<?xml version="1.0" encoding="UTF-8" standalone="no"?>
<!DOCTYPE svg PUBLIC "-//W3C//DTD SVG 1.1//EN"
 "http://www.w3.org/Graphics/SVG/1.1/DTD/svg11.dtd">
<!-- Generated by graphviz version 2.43.0 (0)
 -->
<!-- Title: BitVector::lastPos Pages: 1 -->
<!--zoomable 264 -->

<svg id="main" version="1.1" xmlns="http://www.w3.org/2000/svg" xmlns:xlink="http://www.w3.org/1999/xlink" xml:space="preserve" onload="init(evt)">
<style type="text/css"><![CDATA[
.node, .edge {opacity: 0.7;}
.node.selected, .edge.selected {opacity: 1;}
.edge:hover path { stroke: red; }
.edge:hover polygon { stroke: red; fill: red; }
]]></style>

<defs>
  <circle id="rim" cx="0" cy="0" r="7"/>
  <circle id="rim2" cx="0" cy="0" r="3.5"/>
  <g id="zoomPlus">
    <use xlink:href="#rim" fill="#404040"><set attributeName="fill" to="#808080" begin="zoomplus.mouseover" end="zoomplus.mouseout"/></use>
    <path d="M-4,0h8M0,-4v8" fill="none" stroke="white" stroke-width="1.5" pointer-events="none"/>
  </g>
  <g id="zoomMin">
    <use xlink:href="#rim" fill="#404040"><set attributeName="fill" to="#808080" begin="zoomminus.mouseover" end="zoomminus.mouseout"/></use>
    <path d="M-4,0h8" fill="none" stroke="white" stroke-width="1.5" pointer-events="none"/>
  </g>
  <g id="arrowUp" transform="translate(30 24)">
    <use xlink:href="#rim"/>
    <path pointer-events="none" fill="none" stroke="white" stroke-width="1.5" d="M0,-3.0v7 M-2.5,-0.5L0,-3.0L2.5,-0.5"/>
  </g>
  <g id="arrowRight" transform="rotate(90) translate(36 -43)">
    <use xlink:href="#rim"/>
    <path pointer-events="none" fill="none" stroke="white" stroke-width="1.5" d="M0,-3.0v7 M-2.5,-0.5L0,-3.0L2.5,-0.5"/>
  </g>
  <g id="arrowDown" transform="rotate(180) translate(-30 -48)">
    <use xlink:href="#rim"/>
    <path pointer-events="none" fill="none" stroke="white" stroke-width="1.5" d="M0,-3.0v7 M-2.5,-0.5L0,-3.0L2.5,-0.5"/>
  </g>
  <g id="arrowLeft" transform="rotate(270) translate(-36 17)">
    <use xlink:href="#rim"/>
    <path pointer-events="none" fill="none" stroke="white" stroke-width="1.5" d="M0,-3.0v7 M-2.5,-0.5L0,-3.0L2.5,-0.5"/>
  </g>
  <g id="resetDef">
    <use xlink:href="#rim2" fill="#404040"><set attributeName="fill" to="#808080" begin="reset.mouseover" end="reset.mouseout"/></use>
  </g>
</defs>
<script type="application/ecmascript">
var viewWidth = 716;
var viewHeight = 264;
var sectionId = 'dynsection-37';
</script>
<script type="application/ecmascript" xlink:href="svg.min.js"/>
<svg id="graph" class="graph">
<g id="viewport">
<title>BitVector::lastPos</title>
<!-- Node1 -->
<g id="Node000001" class="node">
<title>Node1</title>
<g id="a_Node000001"><a xlink:title="Last postion of the vector.">
<polygon fill="#999999" stroke="#666666" points="708,-187 606,-187 606,-168 708,-168 708,-187"/>
<text text-anchor="middle" x="657" y="-175" font-family="Helvetica,sans-Serif" font-size="10.00">BitVector::lastPos</text>
</a>
</g>
</g>
<!-- Node2 -->
<g id="Node000002" class="node">
<title>Node2</title>
<g id="a_Node000002"><a xlink:href="class_bit_vector.html#a0608b1bfe67ad7972903a602eb42e404" target="_top" xlink:title="Give an iterator to end an iteration.">
<polygon fill="white" stroke="#666666" points="570,-224 485,-224 485,-205 570,-205 570,-224"/>
<text text-anchor="middle" x="527.5" y="-212" font-family="Helvetica,sans-Serif" font-size="10.00">BitVector::end</text>
</a>
</g>
</g>
<!-- Node1&#45;&gt;Node2 -->
<g id="edge1_Node000001_Node000002" class="edge">
<title>Node1&#45;&gt;Node2</title>
<g id="a_edge1_Node000001_Node000002"><a xlink:title=" ">
<path fill="none" stroke="#63b8ff" d="M613.52,-189.83C596.64,-194.73 577.5,-200.28 561.67,-204.88"/>
<polygon fill="#63b8ff" stroke="#63b8ff" points="614.54,-193.18 623.17,-187.03 612.59,-186.45 614.54,-193.18"/>
</a>
</g>
</g>
<!-- Node3 -->
<g id="Node000003" class="node">
<title>Node3</title>
<g id="a_Node000003"><a xlink:href="class_bit_vector.html#a9c63a7f853693a19595fa92d487f92b5" target="_top" xlink:title="Modify a bit inside BitVector::_data.">
<polygon fill="white" stroke="#666666" points="568.5,-187 486.5,-187 486.5,-168 568.5,-168 568.5,-187"/>
<text text-anchor="middle" x="527.5" y="-175" font-family="Helvetica,sans-Serif" font-size="10.00">BitVector::set</text>
</a>
</g>
</g>
<!-- Node1&#45;&gt;Node3 -->
<g id="edge2_Node000001_Node000003" class="edge">
<title>Node1&#45;&gt;Node3</title>
<g id="a_edge2_Node000001_Node000003"><a xlink:title=" ">
<path fill="none" stroke="#63b8ff" d="M595.96,-177.5C586.66,-177.5 577.26,-177.5 568.54,-177.5"/>
<polygon fill="#63b8ff" stroke="#63b8ff" points="595.97,-181 605.97,-177.5 595.97,-174 595.97,-181"/>
</a>
</g>
</g>
<!-- Node4 -->
<g id="Node000004" class="node">
<title>Node4</title>
<g id="a_Node000004"><a xlink:href="class_bit_vector.html#aca24053f655c825de0f06ec86fff1cec" target="_top" xlink:title="Replace an element by another element. Can add an element to the list if index = BitVector::_element_...">
<polygon fill="white" stroke="#666666" points="568.5,-150 486.5,-150 486.5,-131 568.5,-131 568.5,-150"/>
<text text-anchor="middle" x="527.5" y="-138" font-family="Helvetica,sans-Serif" font-size="10.00">BitVector::set</text>
</a>
</g>
</g>
<!-- Node1&#45;&gt;Node4 -->
<g id="edge3_Node000001_Node000004" class="edge">
<title>Node1&#45;&gt;Node4</title>
<g id="a_edge3_Node000001_Node000004"><a xlink:title=" ">
<path fill="none" stroke="#63b8ff" d="M613.52,-165.17C596.64,-160.27 577.5,-154.72 561.67,-150.12"/>
<polygon fill="#63b8ff" stroke="#63b8ff" points="612.59,-168.55 623.17,-167.97 614.54,-161.82 612.59,-168.55"/>
</a>
</g>
</g>
<!-- Node5 -->
<g id="Node000005" class="node">
<title>Node5</title>
<g id="a_Node000005"><a xlink:href="class_bit_vector.html#afbdbe8a5003f5941ffd5ab095cf87d88" target="_top" xlink:title="Add an element at the end of the vector.">
<polygon fill="white" stroke="#666666" points="448.5,-207 345.5,-207 345.5,-188 448.5,-188 448.5,-207"/>
<text text-anchor="middle" x="397" y="-195" font-family="Helvetica,sans-Serif" font-size="10.00">BitVector::append</text>
</a>
</g>
</g>
<!-- Node4&#45;&gt;Node5 -->
<g id="edge4_Node000004_Node000005" class="edge">
<title>Node4&#45;&gt;Node5</title>
<g id="a_edge4_Node000004_Node000005"><a xlink:title=" ">
<path fill="none" stroke="#63b8ff" d="M495.8,-154.12C472.29,-164.55 440.45,-178.67 419.58,-187.93"/>
<polygon fill="#63b8ff" stroke="#63b8ff" points="497.27,-157.29 504.99,-150.04 494.43,-150.9 497.27,-157.29"/>
</a>
</g>
</g>
<!-- Node6 -->
<g id="Node000006" class="node">
<title>Node6</title>
<g id="a_Node000006"><a xlink:href="class_bit_vector.html#a5547d55a697d61de026d0a94e743624b" target="_top" xlink:title="Construct a new Bit Vector object.">
<polygon fill="white" stroke="#666666" points="275.5,-226 164.5,-226 164.5,-207 275.5,-207 275.5,-226"/>
<text text-anchor="middle" x="220" y="-214" font-family="Helvetica,sans-Serif" font-size="10.00">BitVector::BitVector</text>
</a>
</g>
</g>
<!-- Node4&#45;&gt;Node6 -->
<g id="edge10_Node000004_Node000006" class="edge">
<title>Node4&#45;&gt;Node6</title>
<g id="a_edge10_Node000004_Node000006"><a xlink:title=" ">
<path fill="none" stroke="#63b8ff" d="M490.61,-155.22C488.63,-156.55 486.74,-157.97 485,-159.5 462.44,-179.22 475.24,-202.04 449,-216.5 387.47,-250.42 301.65,-237.3 254.81,-226.07"/>
<polygon fill="#63b8ff" stroke="#63b8ff" points="492.74,-158.04 499.66,-150.02 489.24,-151.97 492.74,-158.04"/>
</a>
</g>
</g>
<!-- Node7 -->
<g id="Node000007" class="node">
<title>Node7</title>
<g id="a_Node000007"><a xlink:href="class_bit_vector.html#a686af396e4dff1536b7588213726c4cc" target="_top" xlink:title="Insert a number of blank position inside BitVector::_data.">
<polygon fill="white" stroke="#666666" points="309,-169 131,-169 131,-150 309,-150 309,-169"/>
<text text-anchor="middle" x="220" y="-157" font-family="Helvetica,sans-Serif" font-size="10.00">BitVector::makeRoomForElement</text>
</a>
</g>
</g>
<!-- Node4&#45;&gt;Node7 -->
<g id="edge13_Node000004_Node000007" class="edge">
<title>Node4&#45;&gt;Node7</title>
<g id="a_edge13_Node000004_Node000007"><a xlink:title=" ">
<path fill="none" stroke="#63b8ff" d="M476.1,-143.63C430.87,-146.45 363.46,-150.64 309.29,-154.01"/>
<polygon fill="#63b8ff" stroke="#63b8ff" points="476.48,-147.12 486.25,-143 476.05,-140.13 476.48,-147.12"/>
</a>
</g>
</g>
<!-- Node8 -->
<g id="Node000008" class="node">
<title>Node8</title>
<g id="a_Node000008"><a xlink:href="class_bit_vector.html#a9f86c96c013632abd9d18feafe78d72e" target="_top" xlink:title="Insert a number_of_elements inside the vector at the index pos .">
<polygon fill="white" stroke="#666666" points="95,-187 0,-187 0,-168 95,-168 95,-187"/>
<text text-anchor="middle" x="47.5" y="-175" font-family="Helvetica,sans-Serif" font-size="10.00">BitVector::insert</text>
</a>
</g>
</g>
<!-- Node4&#45;&gt;Node8 -->
<g id="edge11_Node000004_Node000008" class="edge">
<title>Node4&#45;&gt;Node8</title>
<g id="a_edge11_Node000004_Node000008"><a xlink:title=" ">
<path fill="none" stroke="#63b8ff" d="M489.46,-155.59C487.88,-156.8 486.38,-158.11 485,-159.5 457.3,-187.51 482.03,-219.03 449,-240.5 420.7,-258.89 222.44,-265.61 131,-235.5 101.07,-225.64 72.44,-200.97 58.08,-187.19"/>
<polygon fill="#63b8ff" stroke="#63b8ff" points="491.36,-158.53 497.93,-150.22 487.61,-152.62 491.36,-158.53"/>
</a>
</g>
</g>
<!-- Node9 -->
<g id="Node000009" class="node">
<title>Node9</title>
<g id="a_Node000009"><a xlink:href="class_bit_vector.html#a915743b3f94c75c22317d160bfa741ff" target="_top" xlink:title="Insert a number_of_elements inside the vector at the index pos .">
<polygon fill="white" stroke="#666666" points="95,-150 0,-150 0,-131 95,-131 95,-150"/>
<text text-anchor="middle" x="47.5" y="-138" font-family="Helvetica,sans-Serif" font-size="10.00">BitVector::insert</text>
</a>
</g>
</g>
<!-- Node4&#45;&gt;Node9 -->
<g id="edge12_Node000004_Node000009" class="edge">
<title>Node4&#45;&gt;Node9</title>
<g id="a_edge12_Node000004_Node000009"><a xlink:title=" ">
<path fill="none" stroke="#63b8ff" d="M476.14,-140.5C383.07,-140.5 185.41,-140.5 95.17,-140.5"/>
<polygon fill="#63b8ff" stroke="#63b8ff" points="476.16,-144 486.16,-140.5 476.16,-137 476.16,-144"/>
</a>
</g>
</g>
<!-- Node10 -->
<g id="Node000010" class="node">
<title>Node10</title>
<g id="a_Node000010"><a xlink:href="class_bit_vector.html#a2af5c1a1a0050e2b52d06c38436280fd" target="_top" xlink:title="Add an element at the end of the vector.">
<polygon fill="white" stroke="#666666" points="448.5,-93 345.5,-93 345.5,-74 448.5,-74 448.5,-93"/>
<text text-anchor="middle" x="397" y="-81" font-family="Helvetica,sans-Serif" font-size="10.00">BitVector::append</text>
</a>
</g>
</g>
<!-- Node4&#45;&gt;Node10 -->
<g id="edge9_Node000004_Node000010" class="edge">
<title>Node4&#45;&gt;Node10</title>
<g id="a_edge9_Node000004_Node000010"><a xlink:title=" ">
<path fill="none" stroke="#63b8ff" d="M495.8,-126.88C472.29,-116.45 440.45,-102.33 419.58,-93.07"/>
<polygon fill="#63b8ff" stroke="#63b8ff" points="494.43,-130.1 504.99,-130.96 497.27,-123.71 494.43,-130.1"/>
</a>
</g>
</g>
<!-- Node11 -->
<g id="Node000011" class="node">
<title>Node11</title>
<g id="a_Node000011"><a xlink:href="class_bit_vector.html#a87f84edf5dd56606b26e8741ba6ced02" target="_top" xlink:title="Remove a number of element from the vector.">
<polygon fill="white" stroke="#666666" points="449,-56 345,-56 345,-37 449,-37 449,-56"/>
<text text-anchor="middle" x="397" y="-44" font-family="Helvetica,sans-Serif" font-size="10.00">BitVector::remove</text>
</a>
</g>
</g>
<!-- Node4&#45;&gt;Node11 -->
<g id="edge14_Node000004_Node000011" class="edge">
<title>Node4&#45;&gt;Node11</title>
<g id="a_edge14_Node000004_Node000011"><a xlink:title=" ">
<path fill="none" stroke="#63b8ff" d="M512.57,-122.94C498.24,-105.91 474.47,-80.38 449,-64.5 443.66,-61.17 437.62,-58.35 431.62,-56"/>
<polygon fill="#63b8ff" stroke="#63b8ff" points="510.11,-125.46 519.16,-130.98 515.52,-121.02 510.11,-125.46"/>
</a>
</g>
</g>
<!-- Node12 -->
<g id="Node000012" class="node">
<title>Node12</title>
<g id="a_Node000012"><a xlink:href="class_bit_vector.html#a38e8be69974c874857dd7cb6a52429ac" target="_top" xlink:title="Replace an element by another element. Can add an element to the list if index = BitVector::_element_...">
<polygon fill="white" stroke="#666666" points="438,-19 356,-19 356,0 438,0 438,-19"/>
<text text-anchor="middle" x="397" y="-7" font-family="Helvetica,sans-Serif" font-size="10.00">BitVector::set</text>
</a>
</g>
</g>
<!-- Node4&#45;&gt;Node12 -->
<g id="edge15_Node000004_Node000012" class="edge">
<title>Node4&#45;&gt;Node12</title>
<g id="a_edge15_Node000004_Node000012"><a xlink:title=" ">
<path fill="none" stroke="#63b8ff" d="M518.21,-121.67C506.33,-96.73 482.18,-52.95 449,-27.5 444.6,-24.13 439.53,-21.35 434.31,-19.08"/>
<polygon fill="#63b8ff" stroke="#63b8ff" points="515.06,-123.18 522.42,-130.8 521.42,-120.25 515.06,-123.18"/>
</a>
</g>
</g>
<!-- Node5&#45;&gt;Node6 -->
<g id="edge5_Node000005_Node000006" class="edge">
<title>Node5&#45;&gt;Node6</title>
<g id="a_edge5_Node000005_Node000006"><a xlink:title=" ">
<path fill="none" stroke="#63b8ff" d="M335.18,-204.1C315.87,-206.2 294.64,-208.5 275.79,-210.55"/>
<polygon fill="#63b8ff" stroke="#63b8ff" points="335.82,-207.55 345.38,-203 335.06,-200.6 335.82,-207.55"/>
</a>
</g>
</g>
<!-- Node5&#45;&gt;Node7 -->
<g id="edge6_Node000005_Node000007" class="edge">
<title>Node5&#45;&gt;Node7</title>
<g id="a_edge6_Node000005_Node000007"><a xlink:title=" ">
<path fill="none" stroke="#63b8ff" d="M341.88,-185.75C317.13,-180.37 288.2,-174.09 264.84,-169.02"/>
<polygon fill="#63b8ff" stroke="#63b8ff" points="341.33,-189.21 351.84,-187.91 342.81,-182.37 341.33,-189.21"/>
</a>
</g>
</g>
<!-- Node7&#45;&gt;Node8 -->
<g id="edge7_Node000007_Node000008" class="edge">
<title>Node7&#45;&gt;Node8</title>
<g id="a_edge7_Node000007_Node000008"><a xlink:title=" ">
<path fill="none" stroke="#63b8ff" d="M120.79,-169.87C112.02,-170.79 103.44,-171.7 95.43,-172.55"/>
<polygon fill="#63b8ff" stroke="#63b8ff" points="121.18,-173.35 130.75,-168.82 120.44,-166.39 121.18,-173.35"/>
</a>
</g>
</g>
<!-- Node7&#45;&gt;Node9 -->
<g id="edge8_Node000007_Node000009" class="edge">
<title>Node7&#45;&gt;Node9</title>
<g id="a_edge8_Node000007_Node000009"><a xlink:title=" ">
<path fill="none" stroke="#63b8ff" d="M123.14,-148.82C113.48,-147.74 104.01,-146.69 95.23,-145.71"/>
<polygon fill="#63b8ff" stroke="#63b8ff" points="122.92,-152.32 133.25,-149.94 123.7,-145.36 122.92,-152.32"/>
</a>
</g>
</g>
</g>
</svg>

<g id="navigator" transform="translate(0 0)" fill="#404254">
  <rect fill="#f2f5e9" fill-opacity="0.5" stroke="#606060" stroke-width=".5" x="0" y="0" width="60" height="60"/>
  <use id="zoomplus" xlink:href="#zoomPlus" x="17" y="9" onmousedown="handleZoom(evt,'in')"/>
  <use id="zoomminus" xlink:href="#zoomMin" x="42" y="9" onmousedown="handleZoom(evt,'out')"/>
  <use id="reset" xlink:href="#resetDef" x="30" y="36" onmousedown="handleReset()"/>
   <use id="arrowup" xlink:href="#arrowUp" x="0" y="0" onmousedown="handlePan(0,-1)"/>
  <use id="arrowright" xlink:href="#arrowRight" x="0" y="0" onmousedown="handlePan(1,0)"/>
  <use id="arrowdown" xlink:href="#arrowDown" x="0" y="0" onmousedown="handlePan(0,1)"/>
  <use id="arrowleft" xlink:href="#arrowLeft" x="0" y="0" onmousedown="handlePan(-1,0)"/>
</g>
<svg viewBox="0 0 15 15" width="100%" height="30px" preserveAspectRatio="xMaxYMin meet">
 <g id="arrow_out" transform="scale(0.3 0.3)">
  <a xlink:href="class_bit_vector_ab92cdd9780b949d9d762f58e1ee4a0ae_icgraph_org.svg" target="_base">
   <rect id="button" ry="5" rx="5" y="6" x="6" height="38" width="38"
        fill="#f2f5e9" fill-opacity="0.5" stroke="#606060" stroke-width="1.0"/>
   <path id="arrow"
     d="M 11.500037,31.436501 C 11.940474,20.09759 22.043105,11.32322 32.158766,21.979434 L 37.068811,17.246167 C 37.068811,17.246167 37.088388,32 37.088388,32 L 22.160133,31.978069 C 22.160133,31.978069 26.997745,27.140456 26.997745,27.140456 C 18.528582,18.264221 13.291696,25.230495 11.500037,31.436501 z"
     style="fill:#404040;"/>
  </a>
 </g>
</svg>

<style type='text/css'>
<![CDATA[
[data-mouse-over-selected='false'] { opacity: 0.7; }
[data-mouse-over-selected='true']  { opacity: 1.0; }
]]>
</style>
<script type="application/ecmascript"><![CDATA[
document.addEventListener('DOMContentLoaded', (event) => {
  highlightEdges();
  highlightAdjacentNodes();
});
]]></script>
</svg>
