<?xml version="1.0" encoding="UTF-8" standalone="no"?>
<!DOCTYPE svg PUBLIC "-//W3C//DTD SVG 1.1//EN"
 "http://www.w3.org/Graphics/SVG/1.1/DTD/svg11.dtd">
<!-- Generated by graphviz version 2.43.0 (0)
 -->
<!-- Title: BitVector::maximumOctetNumber Pages: 1 -->
<svg width="1500pt" height="526pt"
 viewBox="0.00 0.00 1500.00 525.50" xmlns="http://www.w3.org/2000/svg" xmlns:xlink="http://www.w3.org/1999/xlink">
<g id="graph0" class="graph" transform="scale(1 1) rotate(0) translate(4 521.5)">
<title>BitVector::maximumOctetNumber</title>
<!-- Node1 -->
<g id="Node000001" class="node">
<title>Node1</title>
<g id="a_Node000001"><a xlink:title="How many octet can be contained in this kind of object.">
<polygon fill="#999999" stroke="#666666" points="1492,-287.5 1310,-287.5 1310,-268.5 1492,-268.5 1492,-287.5"/>
<text text-anchor="middle" x="1401" y="-275.5" font-family="Helvetica,sans-Serif" font-size="10.00">BitVector::maximumOctetNumber</text>
</a>
</g>
</g>
<!-- Node2 -->
<g id="Node000002" class="node">
<title>Node2</title>
<g id="a_Node000002"><a xlink:href="class_bit_vector_1_1_coords.html#a9862c87ea93b2ab42ff2aa7b78868861" target="_top" xlink:title="Increment this coordinates by 1 bit. (Coord++)">
<polygon fill="white" stroke="#666666" points="1250.5,-396 1143.5,-396 1143.5,-366 1250.5,-366 1250.5,-396"/>
<text text-anchor="start" x="1151.5" y="-384" font-family="Helvetica,sans-Serif" font-size="10.00">BitVector::Coords::</text>
<text text-anchor="middle" x="1197" y="-373" font-family="Helvetica,sans-Serif" font-size="10.00">increment</text>
</a>
</g>
</g>
<!-- Node1&#45;&gt;Node2 -->
<g id="edge1_Node000001_Node000002" class="edge">
<title>Node1&#45;&gt;Node2</title>
<g id="a_edge1_Node000001_Node000002"><a xlink:title=" ">
<path fill="none" stroke="#63b8ff" d="M1378.9,-293.59C1354.61,-310.96 1313.03,-338.96 1274,-357 1266.59,-360.43 1258.56,-363.55 1250.59,-366.32"/>
<polygon fill="#63b8ff" stroke="#63b8ff" points="1380.97,-296.41 1387.03,-287.71 1376.87,-290.73 1380.97,-296.41"/>
</a>
</g>
</g>
<!-- Node3 -->
<g id="Node000003" class="node">
<title>Node3</title>
<g id="a_Node000003"><a xlink:href="class_bit_vector.html#ad36e7d0b4b1417ca434414fa40c72eb8" target="_top" xlink:title="How many element can be contained in this object knowing BitVector::_element_size.">
<polygon fill="white" stroke="#666666" points="1274,-347.5 1120,-347.5 1120,-328.5 1274,-328.5 1274,-347.5"/>
<text text-anchor="middle" x="1197" y="-335.5" font-family="Helvetica,sans-Serif" font-size="10.00">BitVector::maxElementLimit</text>
</a>
</g>
</g>
<!-- Node1&#45;&gt;Node3 -->
<g id="edge2_Node000001_Node000003" class="edge">
<title>Node1&#45;&gt;Node3</title>
<g id="a_edge2_Node000001_Node000003"><a xlink:title=" ">
<path fill="none" stroke="#63b8ff" d="M1358.24,-290.4C1320.22,-301.7 1264.88,-318.13 1230.19,-328.44"/>
<polygon fill="#63b8ff" stroke="#63b8ff" points="1359.4,-293.71 1367.99,-287.51 1357.41,-287 1359.4,-293.71"/>
</a>
</g>
</g>
<!-- Node7 -->
<g id="Node000007" class="node">
<title>Node7</title>
<g id="a_Node000007"><a xlink:href="class_bit_vector.html#a13856f33d2350c573cf2fbe587f03757" target="_top" xlink:title="Modify the length of BitVector::_data.">
<polygon fill="white" stroke="#666666" points="658,-406.5 562,-406.5 562,-387.5 658,-387.5 658,-406.5"/>
<text text-anchor="middle" x="610" y="-394.5" font-family="Helvetica,sans-Serif" font-size="10.00">BitVector::resize</text>
</a>
</g>
</g>
<!-- Node1&#45;&gt;Node7 -->
<g id="edge33_Node000001_Node000007" class="edge">
<title>Node1&#45;&gt;Node7</title>
<g id="a_edge33_Node000001_Node000007"><a xlink:title=" ">
<path fill="none" stroke="#63b8ff" d="M1299.48,-281.28C1198.24,-285.79 1037.85,-296.26 901,-320 804,-336.83 692.16,-370.78 640.26,-387.4"/>
<polygon fill="#63b8ff" stroke="#63b8ff" points="1299.86,-284.77 1309.7,-280.84 1299.56,-277.77 1299.86,-284.77"/>
</a>
</g>
</g>
<!-- Node25 -->
<g id="Node000025" class="node">
<title>Node25</title>
<g id="a_Node000025"><a xlink:href="class_bit_vector_1_1_coords.html#a3a65d4174d8f88cc4f2faed6cfefdf74" target="_top" xlink:title="return the last octet position that can be hold by a Coords.">
<polygon fill="white" stroke="#666666" points="1263,-272 1131,-272 1131,-242 1263,-242 1263,-272"/>
<text text-anchor="start" x="1139" y="-260" font-family="Helvetica,sans-Serif" font-size="10.00">BitVector::Coords::</text>
<text text-anchor="middle" x="1197" y="-249" font-family="Helvetica,sans-Serif" font-size="10.00">maximumOctetNumber</text>
</a>
</g>
</g>
<!-- Node1&#45;&gt;Node25 -->
<g id="edge31_Node000001_Node000025" class="edge">
<title>Node1&#45;&gt;Node25</title>
<g id="a_edge31_Node000001_Node000025"><a xlink:title=" ">
<path fill="none" stroke="#63b8ff" d="M1299.91,-267.59C1287.39,-266.29 1274.86,-264.99 1263.07,-263.76"/>
<polygon fill="#63b8ff" stroke="#63b8ff" points="1299.62,-271.08 1309.93,-268.64 1300.34,-264.12 1299.62,-271.08"/>
</a>
</g>
</g>
<!-- Node26 -->
<g id="Node000026" class="node">
<title>Node26</title>
<g id="a_Node000026"><a xlink:href="class_bit_vector_1_1_coords.html#a2273bc2036bc18cdaaf62593bfde5324" target="_top" xlink:title="return the maximum Size_t value that can be returned by a Coords.">
<polygon fill="white" stroke="#666666" points="1250.5,-224 1143.5,-224 1143.5,-194 1250.5,-194 1250.5,-224"/>
<text text-anchor="start" x="1151.5" y="-212" font-family="Helvetica,sans-Serif" font-size="10.00">BitVector::Coords::</text>
<text text-anchor="middle" x="1197" y="-201" font-family="Helvetica,sans-Serif" font-size="10.00">maximumSize_t</text>
</a>
</g>
</g>
<!-- Node1&#45;&gt;Node26 -->
<g id="edge32_Node000001_Node000026" class="edge">
<title>Node1&#45;&gt;Node26</title>
<g id="a_edge32_Node000001_Node000026"><a xlink:title=" ">
<path fill="none" stroke="#63b8ff" d="M1364.54,-264.94C1339.36,-255.76 1304.71,-243.33 1274,-233 1265.21,-230.04 1255.82,-226.99 1246.74,-224.1"/>
<polygon fill="#63b8ff" stroke="#63b8ff" points="1363.44,-268.26 1374.04,-268.41 1365.84,-261.69 1363.44,-268.26"/>
</a>
</g>
</g>
<!-- Node27 -->
<g id="Node000027" class="node">
<title>Node27</title>
<g id="a_Node000027"><a xlink:href="class_bit_vector_1_1_coords.html#a19516be1a614f2078b9fa96d42724e2e" target="_top" xlink:title="Set Coords::octet value.">
<polygon fill="white" stroke="#666666" points="1250.5,-111 1143.5,-111 1143.5,-81 1250.5,-81 1250.5,-111"/>
<text text-anchor="start" x="1151.5" y="-99" font-family="Helvetica,sans-Serif" font-size="10.00">BitVector::Coords::</text>
<text text-anchor="middle" x="1197" y="-88" font-family="Helvetica,sans-Serif" font-size="10.00">setOctet</text>
</a>
</g>
</g>
<!-- Node1&#45;&gt;Node27 -->
<g id="edge34_Node000001_Node000027" class="edge">
<title>Node1&#45;&gt;Node27</title>
<g id="a_edge34_Node000001_Node000027"><a xlink:title=" ">
<path fill="none" stroke="#63b8ff" d="M1381.97,-261.76C1343.18,-226.8 1252.24,-144.87 1214.68,-111.03"/>
<polygon fill="#63b8ff" stroke="#63b8ff" points="1379.65,-264.38 1389.42,-268.47 1384.34,-259.18 1379.65,-264.38"/>
</a>
</g>
</g>
<!-- Node4 -->
<g id="Node000004" class="node">
<title>Node4</title>
<g id="a_Node000004"><a xlink:href="class_bit_vector.html#a04e6d0b67ee9b42ccec437b0176067fe" target="_top" xlink:title="Give A size_t that represent the coords of the first bit of an element.">
<polygon fill="white" stroke="#666666" points="1084,-347.5 901,-347.5 901,-328.5 1084,-328.5 1084,-347.5"/>
<text text-anchor="middle" x="992.5" y="-335.5" font-family="Helvetica,sans-Serif" font-size="10.00">BitVector::indexElementUntreated</text>
</a>
</g>
</g>
<!-- Node3&#45;&gt;Node4 -->
<g id="edge3_Node000003_Node000004" class="edge">
<title>Node3&#45;&gt;Node4</title>
<g id="a_edge3_Node000003_Node000004"><a xlink:title=" ">
<path fill="none" stroke="#63b8ff" d="M1109.52,-338C1101.08,-338 1092.49,-338 1084.01,-338"/>
<polygon fill="#63b8ff" stroke="#63b8ff" points="1109.73,-341.5 1119.73,-338 1109.73,-334.5 1109.73,-341.5"/>
</a>
</g>
</g>
<!-- Node14 -->
<g id="Node000014" class="node">
<title>Node14</title>
<g id="a_Node000014"><a xlink:href="class_bit_vector.html#a686af396e4dff1536b7588213726c4cc" target="_top" xlink:title="Insert a number of blank position inside BitVector::_data.">
<polygon fill="white" stroke="#666666" points="309,-143.5 131,-143.5 131,-124.5 309,-124.5 309,-143.5"/>
<text text-anchor="middle" x="220" y="-131.5" font-family="Helvetica,sans-Serif" font-size="10.00">BitVector::makeRoomForElement</text>
</a>
</g>
</g>
<!-- Node3&#45;&gt;Node14 -->
<g id="edge23_Node000003_Node000014" class="edge">
<title>Node3&#45;&gt;Node14</title>
<g id="a_edge23_Node000003_Node000014"><a xlink:title=" ">
<path fill="none" stroke="#63b8ff" d="M1174.62,-322.19C1094.43,-263.02 814.89,-58 791.5,-58 791.5,-58 791.5,-58 609,-58 472.4,-58 313.72,-103.92 249.82,-124.37"/>
<polygon fill="#63b8ff" stroke="#63b8ff" points="1172.86,-325.24 1182.98,-328.36 1177.01,-319.61 1172.86,-325.24"/>
</a>
</g>
</g>
<!-- Node20 -->
<g id="Node000020" class="node">
<title>Node20</title>
<g id="a_Node000020"><a xlink:href="class_bit_vector.html#a346dbe2e158d2cfda20212e7f93e8402" target="_top" xlink:title="Do maximum BitVector::_element_number is reached (With no possibility to push it further)">
<polygon fill="white" stroke="#666666" points="865,-485 716,-485 716,-455 865,-455 865,-485"/>
<text text-anchor="start" x="724" y="-473" font-family="Helvetica,sans-Serif" font-size="10.00">BitVector::maxElementSize</text>
<text text-anchor="middle" x="790.5" y="-462" font-family="Helvetica,sans-Serif" font-size="10.00">IsReached</text>
</a>
</g>
</g>
<!-- Node3&#45;&gt;Node20 -->
<g id="edge24_Node000003_Node000020" class="edge">
<title>Node3&#45;&gt;Node20</title>
<g id="a_edge24_Node000003_Node000020"><a xlink:title=" ">
<path fill="none" stroke="#63b8ff" d="M1128.62,-351.77C1125.61,-353.33 1122.72,-355.07 1120,-357 1096.19,-373.93 1108.22,-395.66 1084,-412 1018.87,-455.94 928.18,-468.16 865.11,-470.84"/>
<polygon fill="#63b8ff" stroke="#63b8ff" points="1130.24,-354.88 1137.94,-347.6 1127.38,-348.49 1130.24,-354.88"/>
</a>
</g>
</g>
<!-- Node22 -->
<g id="Node000022" class="node">
<title>Node22</title>
<g id="a_Node000022"><a xlink:href="class_bit_vector.html#a214e556dd89acce2427a378c5520adbd" target="_top" xlink:title="Last acceptable coordinate knowing BitVector::_element_size.">
<polygon fill="white" stroke="#666666" points="1074,-402.5 911,-402.5 911,-383.5 1074,-383.5 1074,-402.5"/>
<text text-anchor="middle" x="992.5" y="-390.5" font-family="Helvetica,sans-Serif" font-size="10.00">BitVector::MaximalCoordLimit</text>
</a>
</g>
</g>
<!-- Node3&#45;&gt;Node22 -->
<g id="edge26_Node000003_Node000022" class="edge">
<title>Node3&#45;&gt;Node22</title>
<g id="a_edge26_Node000003_Node000022"><a xlink:title=" ">
<path fill="none" stroke="#63b8ff" d="M1146.93,-350.02C1137.96,-352.29 1128.69,-354.68 1120,-357 1087.9,-365.58 1051.43,-376.03 1025.92,-383.46"/>
<polygon fill="#63b8ff" stroke="#63b8ff" points="1148.04,-353.35 1156.88,-347.52 1146.33,-346.56 1148.04,-353.35"/>
</a>
</g>
</g>
<!-- Node5 -->
<g id="Node000005" class="node">
<title>Node5</title>
<g id="a_Node000005"><a xlink:href="class_bit_vector.html#a93ab8bc2ec39bf299ae28ffcad504b41" target="_top" xlink:title="Give the coords of the first bit of an element.">
<polygon fill="white" stroke="#666666" points="857.5,-265.5 723.5,-265.5 723.5,-246.5 857.5,-246.5 857.5,-265.5"/>
<text text-anchor="middle" x="790.5" y="-253.5" font-family="Helvetica,sans-Serif" font-size="10.00">BitVector::indexElement</text>
</a>
</g>
</g>
<!-- Node4&#45;&gt;Node5 -->
<g id="edge4_Node000004_Node000005" class="edge">
<title>Node4&#45;&gt;Node5</title>
<g id="a_edge4_Node000004_Node000005"><a xlink:title=" ">
<path fill="none" stroke="#63b8ff" d="M958.73,-324.57C918.19,-307.94 850.2,-280.07 814.69,-265.51"/>
<polygon fill="#63b8ff" stroke="#63b8ff" points="957.59,-327.88 968.17,-328.43 960.24,-321.4 957.59,-327.88"/>
</a>
</g>
</g>
<!-- Node6 -->
<g id="Node000006" class="node">
<title>Node6</title>
<g id="a_Node000006"><a xlink:href="class_bit_vector.html#a2d0fe43b80b63edbd64dc887fd87d915" target="_top" xlink:title="Return the element at the position index.">
<polygon fill="white" stroke="#666666" points="651.5,-222.5 568.5,-222.5 568.5,-203.5 651.5,-203.5 651.5,-222.5"/>
<text text-anchor="middle" x="610" y="-210.5" font-family="Helvetica,sans-Serif" font-size="10.00">BitVector::get</text>
</a>
</g>
</g>
<!-- Node5&#45;&gt;Node6 -->
<g id="edge5_Node000005_Node000006" class="edge">
<title>Node5&#45;&gt;Node6</title>
<g id="a_edge5_Node000005_Node000006"><a xlink:title=" ">
<path fill="none" stroke="#63b8ff" d="M739.82,-244.03C711.63,-237.24 676.83,-228.86 650.5,-222.52"/>
<polygon fill="#63b8ff" stroke="#63b8ff" points="739.34,-247.52 749.89,-246.46 740.98,-240.71 739.34,-247.52"/>
</a>
</g>
</g>
<!-- Node5&#45;&gt;Node7 -->
<g id="edge6_Node000005_Node000007" class="edge">
<title>Node5&#45;&gt;Node7</title>
<g id="a_edge6_Node000005_Node000007"><a xlink:title=" ">
<path fill="none" stroke="#63b8ff" d="M748.49,-269.16C737.45,-273.64 725.85,-279.26 716,-286 672.44,-315.82 633.16,-366.35 617.82,-387.38"/>
<polygon fill="#63b8ff" stroke="#63b8ff" points="749.9,-272.37 757.99,-265.52 747.4,-265.83 749.9,-272.37"/>
</a>
</g>
</g>
<!-- Node11 -->
<g id="Node000011" class="node">
<title>Node11</title>
<g id="a_Node000011"><a xlink:href="class_bit_vector.html#aca24053f655c825de0f06ec86fff1cec" target="_top" xlink:title="Replace an element by another element. Can add an element to the list if index = BitVector::_element_...">
<polygon fill="white" stroke="#666666" points="651,-259.5 569,-259.5 569,-240.5 651,-240.5 651,-259.5"/>
<text text-anchor="middle" x="610" y="-247.5" font-family="Helvetica,sans-Serif" font-size="10.00">BitVector::set</text>
</a>
</g>
</g>
<!-- Node5&#45;&gt;Node11 -->
<g id="edge10_Node000005_Node000011" class="edge">
<title>Node5&#45;&gt;Node11</title>
<g id="a_edge10_Node000005_Node000011"><a xlink:title=" ">
<path fill="none" stroke="#63b8ff" d="M713.24,-253.44C691.9,-252.72 669.54,-251.97 651.19,-251.35"/>
<polygon fill="#63b8ff" stroke="#63b8ff" points="713.17,-256.94 723.29,-253.77 713.41,-249.94 713.17,-256.94"/>
</a>
</g>
</g>
<!-- Node8 -->
<g id="Node000008" class="node">
<title>Node8</title>
<g id="a_Node000008"><a xlink:href="class_bit_vector.html#a23c1685317944b2a5c6f149a5fccc6bd" target="_top" xlink:title="Construct a new Bit Vector object.">
<polygon fill="white" stroke="#666666" points="480,-480.5 369,-480.5 369,-461.5 480,-461.5 480,-480.5"/>
<text text-anchor="middle" x="424.5" y="-468.5" font-family="Helvetica,sans-Serif" font-size="10.00">BitVector::BitVector</text>
</a>
</g>
</g>
<!-- Node7&#45;&gt;Node8 -->
<g id="edge7_Node000007_Node000008" class="edge">
<title>Node7&#45;&gt;Node8</title>
<g id="a_edge7_Node000007_Node000008"><a xlink:title=" ">
<path fill="none" stroke="#63b8ff" d="M575.55,-410.54C564.05,-415.58 551.25,-421.64 540,-428 523.04,-437.59 521.82,-445.12 504,-453 496.33,-456.39 487.94,-459.18 479.59,-461.47"/>
<polygon fill="#63b8ff" stroke="#63b8ff" points="577.02,-413.72 584.83,-406.56 574.26,-407.29 577.02,-413.72"/>
</a>
</g>
</g>
<!-- Node9 -->
<g id="Node000009" class="node">
<title>Node9</title>
<g id="a_Node000009"><a xlink:href="class_bit_vector.html#a673b530bb6e520f7f7fa90070e0034db" target="_top" xlink:title="Free memory used by BitVector::_data.">
<polygon fill="white" stroke="#666666" points="470,-443.5 379,-443.5 379,-424.5 470,-424.5 470,-443.5"/>
<text text-anchor="middle" x="424.5" y="-431.5" font-family="Helvetica,sans-Serif" font-size="10.00">BitVector::clear</text>
</a>
</g>
</g>
<!-- Node7&#45;&gt;Node9 -->
<g id="edge8_Node000007_Node000009" class="edge">
<title>Node7&#45;&gt;Node9</title>
<g id="a_edge8_Node000007_Node000009"><a xlink:title=" ">
<path fill="none" stroke="#63b8ff" d="M551.88,-408.52C525.52,-413.83 494.68,-420.05 470.07,-425.01"/>
<polygon fill="#63b8ff" stroke="#63b8ff" points="552.63,-411.94 561.74,-406.53 551.25,-405.07 552.63,-411.94"/>
</a>
</g>
</g>
<!-- Node10 -->
<g id="Node000010" class="node">
<title>Node10</title>
<g id="a_Node000010"><a xlink:href="class_bit_vector.html#a80a4aa212535129b881b4fb2623ce222" target="_top" xlink:title="Reduce the size of BitVector::_data to fit BitVector::_element_number.">
<polygon fill="white" stroke="#666666" points="473,-406.5 376,-406.5 376,-387.5 473,-387.5 473,-406.5"/>
<text text-anchor="middle" x="424.5" y="-394.5" font-family="Helvetica,sans-Serif" font-size="10.00">BitVector::shrink</text>
</a>
</g>
</g>
<!-- Node7&#45;&gt;Node10 -->
<g id="edge9_Node000007_Node000010" class="edge">
<title>Node7&#45;&gt;Node10</title>
<g id="a_edge9_Node000007_Node000010"><a xlink:title=" ">
<path fill="none" stroke="#63b8ff" d="M551.59,-397C526.41,-397 497.2,-397 473.23,-397"/>
<polygon fill="#63b8ff" stroke="#63b8ff" points="551.74,-400.5 561.74,-397 551.74,-393.5 551.74,-400.5"/>
</a>
</g>
</g>
<!-- Node12 -->
<g id="Node000012" class="node">
<title>Node12</title>
<g id="a_Node000012"><a xlink:href="class_bit_vector.html#afbdbe8a5003f5941ffd5ab095cf87d88" target="_top" xlink:title="Add an element at the end of the vector.">
<polygon fill="white" stroke="#666666" points="476,-330.5 373,-330.5 373,-311.5 476,-311.5 476,-330.5"/>
<text text-anchor="middle" x="424.5" y="-318.5" font-family="Helvetica,sans-Serif" font-size="10.00">BitVector::append</text>
</a>
</g>
</g>
<!-- Node11&#45;&gt;Node12 -->
<g id="edge11_Node000011_Node000012" class="edge">
<title>Node11&#45;&gt;Node12</title>
<g id="a_edge11_Node000011_Node000012"><a xlink:title=" ">
<path fill="none" stroke="#63b8ff" d="M584.37,-264.59C563.56,-276.38 532.65,-292.66 504,-303 494.93,-306.28 485.04,-309.09 475.44,-311.46"/>
<polygon fill="#63b8ff" stroke="#63b8ff" points="586.25,-267.54 593.17,-259.52 582.76,-261.47 586.25,-267.54"/>
</a>
</g>
</g>
<!-- Node13 -->
<g id="Node000013" class="node">
<title>Node13</title>
<g id="a_Node000013"><a xlink:href="class_bit_vector.html#a5547d55a697d61de026d0a94e743624b" target="_top" xlink:title="Construct a new Bit Vector object.">
<polygon fill="white" stroke="#666666" points="275.5,-349.5 164.5,-349.5 164.5,-330.5 275.5,-330.5 275.5,-349.5"/>
<text text-anchor="middle" x="220" y="-337.5" font-family="Helvetica,sans-Serif" font-size="10.00">BitVector::BitVector</text>
</a>
</g>
</g>
<!-- Node11&#45;&gt;Node13 -->
<g id="edge17_Node000011_Node000013" class="edge">
<title>Node11&#45;&gt;Node13</title>
<g id="a_edge17_Node000011_Node000013"><a xlink:title=" ">
<path fill="none" stroke="#63b8ff" d="M595.62,-267.36C577.57,-289.17 543.16,-325.51 504,-340 424.86,-369.28 324.53,-359.27 267.06,-349.51"/>
<polygon fill="#63b8ff" stroke="#63b8ff" points="598.37,-269.51 601.91,-259.52 592.92,-265.13 598.37,-269.51"/>
</a>
</g>
</g>
<!-- Node11&#45;&gt;Node14 -->
<g id="edge20_Node000011_Node000014" class="edge">
<title>Node11&#45;&gt;Node14</title>
<g id="a_edge20_Node000011_Node000014"><a xlink:title=" ">
<path fill="none" stroke="#63b8ff" d="M558.67,-242.4C551.93,-239.86 545.47,-236.48 540,-232 511.71,-208.82 534.16,-178.69 504,-158 434.27,-110.16 330.96,-115.65 270.35,-124.48"/>
<polygon fill="#63b8ff" stroke="#63b8ff" points="558.07,-245.89 568.66,-245.56 560.18,-239.21 558.07,-245.89"/>
</a>
</g>
</g>
<!-- Node15 -->
<g id="Node000015" class="node">
<title>Node15</title>
<g id="a_Node000015"><a xlink:href="class_bit_vector.html#a9f86c96c013632abd9d18feafe78d72e" target="_top" xlink:title="Insert a number_of_elements inside the vector at the index pos .">
<polygon fill="white" stroke="#666666" points="95,-161.5 0,-161.5 0,-142.5 95,-142.5 95,-161.5"/>
<text text-anchor="middle" x="47.5" y="-149.5" font-family="Helvetica,sans-Serif" font-size="10.00">BitVector::insert</text>
</a>
</g>
</g>
<!-- Node11&#45;&gt;Node15 -->
<g id="edge18_Node000011_Node000015" class="edge">
<title>Node11&#45;&gt;Node15</title>
<g id="a_edge18_Node000011_Node000015"><a xlink:title=" ">
<path fill="none" stroke="#63b8ff" d="M558.98,-240.69C552.34,-238.4 545.83,-235.55 540,-232 519.57,-219.57 525.4,-202.68 504,-192 468.04,-174.06 203.96,-159.47 95.15,-154.16"/>
<polygon fill="#63b8ff" stroke="#63b8ff" points="558.14,-244.1 568.72,-243.67 560.18,-237.4 558.14,-244.1"/>
</a>
</g>
</g>
<!-- Node16 -->
<g id="Node000016" class="node">
<title>Node16</title>
<g id="a_Node000016"><a xlink:href="class_bit_vector.html#a915743b3f94c75c22317d160bfa741ff" target="_top" xlink:title="Insert a number_of_elements inside the vector at the index pos .">
<polygon fill="white" stroke="#666666" points="95,-124.5 0,-124.5 0,-105.5 95,-105.5 95,-124.5"/>
<text text-anchor="middle" x="47.5" y="-112.5" font-family="Helvetica,sans-Serif" font-size="10.00">BitVector::insert</text>
</a>
</g>
</g>
<!-- Node11&#45;&gt;Node16 -->
<g id="edge19_Node000011_Node000016" class="edge">
<title>Node11&#45;&gt;Node16</title>
<g id="a_edge19_Node000011_Node000016"><a xlink:title=" ">
<path fill="none" stroke="#63b8ff" d="M558.96,-243.51C551.96,-240.83 545.35,-237.12 540,-232 500.71,-194.37 547.76,-147.32 504,-115 370.42,-16.34 149.48,-79.54 74.4,-105.44"/>
<polygon fill="#63b8ff" stroke="#63b8ff" points="558.07,-246.9 568.66,-246.56 560.17,-240.22 558.07,-246.9"/>
</a>
</g>
</g>
<!-- Node17 -->
<g id="Node000017" class="node">
<title>Node17</title>
<g id="a_Node000017"><a xlink:href="class_bit_vector.html#a2af5c1a1a0050e2b52d06c38436280fd" target="_top" xlink:title="Add an element at the end of the vector.">
<polygon fill="white" stroke="#666666" points="476,-293.5 373,-293.5 373,-274.5 476,-274.5 476,-293.5"/>
<text text-anchor="middle" x="424.5" y="-281.5" font-family="Helvetica,sans-Serif" font-size="10.00">BitVector::append</text>
</a>
</g>
</g>
<!-- Node11&#45;&gt;Node17 -->
<g id="edge16_Node000011_Node000017" class="edge">
<title>Node11&#45;&gt;Node17</title>
<g id="a_edge16_Node000011_Node000017"><a xlink:title=" ">
<path fill="none" stroke="#63b8ff" d="M558.82,-259.3C533.13,-264.06 501.94,-269.84 476.18,-274.61"/>
<polygon fill="#63b8ff" stroke="#63b8ff" points="559.54,-262.72 568.73,-257.46 558.26,-255.84 559.54,-262.72"/>
</a>
</g>
</g>
<!-- Node18 -->
<g id="Node000018" class="node">
<title>Node18</title>
<g id="a_Node000018"><a xlink:href="class_bit_vector.html#a87f84edf5dd56606b26e8741ba6ced02" target="_top" xlink:title="Remove a number of element from the vector.">
<polygon fill="white" stroke="#666666" points="476.5,-256.5 372.5,-256.5 372.5,-237.5 476.5,-237.5 476.5,-256.5"/>
<text text-anchor="middle" x="424.5" y="-244.5" font-family="Helvetica,sans-Serif" font-size="10.00">BitVector::remove</text>
</a>
</g>
</g>
<!-- Node11&#45;&gt;Node18 -->
<g id="edge21_Node000011_Node000018" class="edge">
<title>Node11&#45;&gt;Node18</title>
<g id="a_edge21_Node000011_Node000018"><a xlink:title=" ">
<path fill="none" stroke="#63b8ff" d="M558.52,-249.17C533,-248.76 502.11,-248.25 476.52,-247.83"/>
<polygon fill="#63b8ff" stroke="#63b8ff" points="558.67,-252.68 568.73,-249.34 558.79,-245.68 558.67,-252.68"/>
</a>
</g>
</g>
<!-- Node19 -->
<g id="Node000019" class="node">
<title>Node19</title>
<g id="a_Node000019"><a xlink:href="class_bit_vector.html#a38e8be69974c874857dd7cb6a52429ac" target="_top" xlink:title="Replace an element by another element. Can add an element to the list if index = BitVector::_element_...">
<polygon fill="white" stroke="#666666" points="465.5,-219.5 383.5,-219.5 383.5,-200.5 465.5,-200.5 465.5,-219.5"/>
<text text-anchor="middle" x="424.5" y="-207.5" font-family="Helvetica,sans-Serif" font-size="10.00">BitVector::set</text>
</a>
</g>
</g>
<!-- Node11&#45;&gt;Node19 -->
<g id="edge22_Node000011_Node000019" class="edge">
<title>Node11&#45;&gt;Node19</title>
<g id="a_edge22_Node000011_Node000019"><a xlink:title=" ">
<path fill="none" stroke="#63b8ff" d="M558.7,-239.04C529.43,-232.65 493.02,-224.72 465.68,-218.76"/>
<polygon fill="#63b8ff" stroke="#63b8ff" points="558.21,-242.51 568.73,-241.22 559.71,-235.67 558.21,-242.51"/>
</a>
</g>
</g>
<!-- Node12&#45;&gt;Node13 -->
<g id="edge12_Node000012_Node000013" class="edge">
<title>Node12&#45;&gt;Node13</title>
<g id="a_edge12_Node000012_Node000013"><a xlink:title=" ">
<path fill="none" stroke="#63b8ff" d="M362.94,-326.68C335.18,-329.29 302.53,-332.35 275.54,-334.88"/>
<polygon fill="#63b8ff" stroke="#63b8ff" points="363.29,-330.16 372.92,-325.75 362.64,-323.2 363.29,-330.16"/>
</a>
</g>
</g>
<!-- Node12&#45;&gt;Node14 -->
<g id="edge13_Node000012_Node000014" class="edge">
<title>Node12&#45;&gt;Node14</title>
<g id="a_edge13_Node000012_Node000014"><a xlink:title=" ">
<path fill="none" stroke="#63b8ff" d="M362.78,-311.76C356.51,-309.45 350.44,-306.58 345,-303 280.54,-260.62 237.8,-172.53 225.02,-143.51"/>
<polygon fill="#63b8ff" stroke="#63b8ff" points="362.17,-315.23 372.76,-314.93 364.29,-308.56 362.17,-315.23"/>
</a>
</g>
</g>
<!-- Node14&#45;&gt;Node15 -->
<g id="edge14_Node000014_Node000015" class="edge">
<title>Node14&#45;&gt;Node15</title>
<g id="a_edge14_Node000014_Node000015"><a xlink:title=" ">
<path fill="none" stroke="#63b8ff" d="M120.79,-144.37C112.02,-145.29 103.44,-146.2 95.43,-147.05"/>
<polygon fill="#63b8ff" stroke="#63b8ff" points="121.18,-147.85 130.75,-143.32 120.44,-140.89 121.18,-147.85"/>
</a>
</g>
</g>
<!-- Node14&#45;&gt;Node16 -->
<g id="edge15_Node000014_Node000016" class="edge">
<title>Node14&#45;&gt;Node16</title>
<g id="a_edge15_Node000014_Node000016"><a xlink:title=" ">
<path fill="none" stroke="#63b8ff" d="M123.14,-123.32C113.48,-122.24 104.01,-121.19 95.23,-120.21"/>
<polygon fill="#63b8ff" stroke="#63b8ff" points="122.92,-126.82 133.25,-124.44 123.7,-119.86 122.92,-126.82"/>
</a>
</g>
</g>
<!-- Node21 -->
<g id="Node000021" class="node">
<title>Node21</title>
<g id="a_Node000021"><a xlink:href="class_bit_vector.html#a87e099aba27ebb0f67c07dd8314828e7" target="_top" xlink:title="Do maximum capacity is reached (With no possibility to push it further)">
<polygon fill="white" stroke="#666666" points="504,-517.5 345,-517.5 345,-498.5 504,-498.5 504,-517.5"/>
<text text-anchor="middle" x="424.5" y="-505.5" font-family="Helvetica,sans-Serif" font-size="10.00">BitVector::maxSizeIsReached</text>
</a>
</g>
</g>
<!-- Node20&#45;&gt;Node21 -->
<g id="edge25_Node000020_Node000021" class="edge">
<title>Node20&#45;&gt;Node21</title>
<g id="a_edge25_Node000020_Node000021"><a xlink:title=" ">
<path fill="none" stroke="#63b8ff" d="M705.53,-478.77C644.86,-485.1 563.48,-493.6 504.09,-499.8"/>
<polygon fill="#63b8ff" stroke="#63b8ff" points="706.26,-482.21 715.84,-477.69 705.53,-475.25 706.26,-482.21"/>
</a>
</g>
</g>
<!-- Node23 -->
<g id="Node000023" class="node">
<title>Node23</title>
<g id="a_Node000023"><a xlink:href="class_bit_vector.html#acb362f03b29600195996f52c04940439" target="_top" xlink:title="How many octet can be contained in this object knowing BitVector::_element_size.">
<polygon fill="white" stroke="#666666" points="860.5,-406.5 720.5,-406.5 720.5,-387.5 860.5,-387.5 860.5,-406.5"/>
<text text-anchor="middle" x="790.5" y="-394.5" font-family="Helvetica,sans-Serif" font-size="10.00">BitVector::maxOctetLimit</text>
</a>
</g>
</g>
<!-- Node22&#45;&gt;Node23 -->
<g id="edge27_Node000022_Node000023" class="edge">
<title>Node22&#45;&gt;Node23</title>
<g id="a_edge27_Node000022_Node000023"><a xlink:title=" ">
<path fill="none" stroke="#63b8ff" d="M900.55,-394.82C887.15,-395.09 873.54,-395.36 860.69,-395.62"/>
<polygon fill="#63b8ff" stroke="#63b8ff" points="900.8,-398.31 910.73,-394.62 900.66,-391.32 900.8,-398.31"/>
</a>
</g>
</g>
<!-- Node23&#45;&gt;Node7 -->
<g id="edge30_Node000023_Node000007" class="edge">
<title>Node23&#45;&gt;Node7</title>
<g id="a_edge30_Node000023_Node000007"><a xlink:title=" ">
<path fill="none" stroke="#63b8ff" d="M710.1,-397C692.31,-397 674,-397 658.03,-397"/>
<polygon fill="#63b8ff" stroke="#63b8ff" points="710.49,-400.5 720.49,-397 710.49,-393.5 710.49,-400.5"/>
</a>
</g>
</g>
<!-- Node24 -->
<g id="Node000024" class="node">
<title>Node24</title>
<g id="a_Node000024"><a xlink:href="class_bit_vector.html#a00aeec5e60b478d74e1540f34f46e37c" target="_top" xlink:title="Do maximum BitVector::_data_size is reached (With no possibility to push it further)">
<polygon fill="white" stroke="#666666" points="680,-467 540,-467 540,-437 680,-437 680,-467"/>
<text text-anchor="start" x="548" y="-455" font-family="Helvetica,sans-Serif" font-size="10.00">BitVector::maxDataSizeIs</text>
<text text-anchor="middle" x="610" y="-444" font-family="Helvetica,sans-Serif" font-size="10.00">Reached</text>
</a>
</g>
</g>
<!-- Node23&#45;&gt;Node24 -->
<g id="edge28_Node000023_Node000024" class="edge">
<title>Node23&#45;&gt;Node24</title>
<g id="a_edge28_Node000023_Node000024"><a xlink:title=" ">
<path fill="none" stroke="#63b8ff" d="M748.72,-409.57C722.31,-417.7 687.77,-428.34 659.89,-436.93"/>
<polygon fill="#63b8ff" stroke="#63b8ff" points="749.88,-412.87 758.41,-406.58 747.82,-406.18 749.88,-412.87"/>
</a>
</g>
</g>
<!-- Node24&#45;&gt;Node21 -->
<g id="edge29_Node000024_Node000021" class="edge">
<title>Node24&#45;&gt;Node21</title>
<g id="a_edge29_Node000024_Node000021"><a xlink:title=" ">
<path fill="none" stroke="#63b8ff" d="M561.37,-470.63C543.53,-477.24 522.99,-484.41 504,-490 493.54,-493.08 482.16,-495.95 471.4,-498.46"/>
<polygon fill="#63b8ff" stroke="#63b8ff" points="562.83,-473.82 570.97,-467.03 560.38,-467.26 562.83,-473.82"/>
</a>
</g>
</g>
<!-- Node28 -->
<g id="Node000028" class="node">
<title>Node28</title>
<g id="a_Node000028"><a xlink:href="class_bit_vector_1_1_coords.html#a4597c3633519643ceddf0f098317cf33" target="_top" xlink:title="Construct a new Coords object. Coords::octet = 0 and Coords::bit = 0.">
<polygon fill="white" stroke="#666666" points="1046,-30 939,-30 939,0 1046,0 1046,-30"/>
<text text-anchor="start" x="947" y="-18" font-family="Helvetica,sans-Serif" font-size="10.00">BitVector::Coords::</text>
<text text-anchor="middle" x="992.5" y="-7" font-family="Helvetica,sans-Serif" font-size="10.00">Coords</text>
</a>
</g>
</g>
<!-- Node27&#45;&gt;Node28 -->
<g id="edge35_Node000027_Node000028" class="edge">
<title>Node27&#45;&gt;Node28</title>
<g id="a_edge35_Node000027_Node000028"><a xlink:title=" ">
<path fill="none" stroke="#63b8ff" d="M1156.97,-76.42C1135.68,-66.11 1108.7,-53.65 1084,-44 1071.24,-39.02 1057.25,-34.22 1044.15,-30.01"/>
<polygon fill="#63b8ff" stroke="#63b8ff" points="1155.5,-79.6 1166.02,-80.84 1158.57,-73.31 1155.5,-79.6"/>
</a>
</g>
</g>
</g>
</svg>
