<?xml version="1.0" encoding="UTF-8" standalone="no"?>
<!DOCTYPE svg PUBLIC "-//W3C//DTD SVG 1.1//EN"
 "http://www.w3.org/Graphics/SVG/1.1/DTD/svg11.dtd">
<!-- Generated by graphviz version 2.43.0 (0)
 -->
<!-- Title: Sequence::insert Pages: 1 -->
<svg width="422pt" height="138pt"
 viewBox="0.00 0.00 422.00 138.00" xmlns="http://www.w3.org/2000/svg" xmlns:xlink="http://www.w3.org/1999/xlink">

<svg id="main" version="1.1" xmlns="http://www.w3.org/2000/svg" xmlns:xlink="http://www.w3.org/1999/xlink" xml:space="preserve" onload="init(evt)">
<style type="text/css"><![CDATA[
.node, .edge {opacity: 0.7;}
.node.selected, .edge.selected {opacity: 1;}
.edge:hover path { stroke: red; }
.edge:hover polygon { stroke: red; fill: red; }
]]></style>
<script type="application/ecmascript" xlink:href="svg.min.js"/>
<svg id="graph" class="graph">
<g id="graph0" class="graph" transform="scale(1 1) rotate(0) translate(4 134)">
<title>Sequence::insert</title>
<!-- Node1 -->
<g id="Node000001" class="node">
<title>Node1</title>
<g id="a_Node000001"><a xlink:title="Insert a number of chars at the position position .">
<polygon fill="#999999" stroke="#666666" points="414,-93 316,-93 316,-74 414,-74 414,-93"/>
<text text-anchor="middle" x="365" y="-81" font-family="Helvetica,sans-Serif" font-size="10.00">Sequence::insert</text>
</a>
</g>
</g>
<!-- Node2 -->
<g id="Node000002" class="node">
<title>Node2</title>
<g id="a_Node000002"><a xlink:href="class_sequence.html#a3cf6cf5e54782f4d1a2ee07ec519523c" target="_top" xlink:title="Insert a char at the position position .">
<polygon fill="white" stroke="#666666" points="268,-130 170,-130 170,-111 268,-111 268,-130"/>
<text text-anchor="middle" x="219" y="-118" font-family="Helvetica,sans-Serif" font-size="10.00">Sequence::insert</text>
</a>
</g>
</g>
<!-- Node1&#45;&gt;Node2 -->
<g id="edge1_Node000001_Node000002" class="edge">
<title>Node1&#45;&gt;Node2</title>
<g id="a_edge1_Node000001_Node000002"><a xlink:title=" ">
<path fill="none" stroke="#63b8ff" d="M317.09,-95.55C297.77,-100.52 275.68,-106.19 257.46,-110.88"/>
<polygon fill="#63b8ff" stroke="#63b8ff" points="318.1,-98.91 326.92,-93.03 316.36,-92.13 318.1,-98.91"/>
</a>
</g>
</g>
<!-- Node3 -->
<g id="Node000003" class="node">
<title>Node3</title>
<g id="a_Node000003"><a xlink:href="class_sequence.html#aa57fd5a7fdd173374e56006ce1c47bdc" target="_top" xlink:title="Insert a number of chars at the the back of the sequence position .">
<polygon fill="white" stroke="#666666" points="280,-93 158,-93 158,-74 280,-74 280,-93"/>
<text text-anchor="middle" x="219" y="-81" font-family="Helvetica,sans-Serif" font-size="10.00">Sequence::insertBack</text>
</a>
</g>
</g>
<!-- Node1&#45;&gt;Node3 -->
<g id="edge2_Node000001_Node000003" class="edge">
<title>Node1&#45;&gt;Node3</title>
<g id="a_edge2_Node000001_Node000003"><a xlink:title=" ">
<path fill="none" stroke="#63b8ff" d="M305.61,-83.5C297.25,-83.5 288.64,-83.5 280.25,-83.5"/>
<polygon fill="#63b8ff" stroke="#63b8ff" points="305.65,-87 315.65,-83.5 305.65,-80 305.65,-87"/>
</a>
</g>
</g>
<!-- Node4 -->
<g id="Node000004" class="node">
<title>Node4</title>
<g id="a_Node000004"><a xlink:href="class_sequence.html#a092f380b654de9aaa8a770ec0948c454" target="_top" xlink:title="Insert a number of chars at the the front of the sequence position .">
<polygon fill="white" stroke="#666666" points="280,-56 158,-56 158,-37 280,-37 280,-56"/>
<text text-anchor="middle" x="219" y="-44" font-family="Helvetica,sans-Serif" font-size="10.00">Sequence::insertFront</text>
</a>
</g>
</g>
<!-- Node1&#45;&gt;Node4 -->
<g id="edge3_Node000001_Node000004" class="edge">
<title>Node1&#45;&gt;Node4</title>
<g id="a_edge3_Node000001_Node000004"><a xlink:title=" ">
<path fill="none" stroke="#63b8ff" d="M317.09,-71.45C297.77,-66.48 275.68,-60.81 257.46,-56.12"/>
<polygon fill="#63b8ff" stroke="#63b8ff" points="316.36,-74.87 326.92,-73.97 318.1,-68.09 316.36,-74.87"/>
</a>
</g>
</g>
<!-- Node5 -->
<g id="Node000005" class="node">
<title>Node5</title>
<g id="a_Node000005"><a xlink:href="class_sequence.html#a16e70626e330194c1507ed339c9c629c" target="_top" xlink:title="Insert a char at the the back of the sequence position .">
<polygon fill="white" stroke="#666666" points="122,-93 0,-93 0,-74 122,-74 122,-93"/>
<text text-anchor="middle" x="61" y="-81" font-family="Helvetica,sans-Serif" font-size="10.00">Sequence::insertBack</text>
</a>
</g>
</g>
<!-- Node4&#45;&gt;Node5 -->
<g id="edge4_Node000004_Node000005" class="edge">
<title>Node4&#45;&gt;Node5</title>
<g id="a_edge4_Node000004_Node000005"><a xlink:title=" ">
<path fill="none" stroke="#63b8ff" d="M168.01,-58.36C146.78,-63.39 122.36,-69.18 102.31,-73.94"/>
<polygon fill="#63b8ff" stroke="#63b8ff" points="168.9,-61.74 177.83,-56.03 167.29,-54.93 168.9,-61.74"/>
</a>
</g>
</g>
<!-- Node6 -->
<g id="Node000006" class="node">
<title>Node6</title>
<g id="a_Node000006"><a xlink:href="class_sequence.html#a1fa6868ce587e1f3d779bb226cfda548" target="_top" xlink:title="Insert a char at the the front of the sequence position .">
<polygon fill="white" stroke="#666666" points="122,-56 0,-56 0,-37 122,-37 122,-56"/>
<text text-anchor="middle" x="61" y="-44" font-family="Helvetica,sans-Serif" font-size="10.00">Sequence::insertFront</text>
</a>
</g>
</g>
<!-- Node4&#45;&gt;Node6 -->
<g id="edge5_Node000004_Node000006" class="edge">
<title>Node4&#45;&gt;Node6</title>
<g id="a_edge5_Node000004_Node000006"><a xlink:title=" ">
<path fill="none" stroke="#63b8ff" d="M147.46,-46.5C139.01,-46.5 130.44,-46.5 122.15,-46.5"/>
<polygon fill="#63b8ff" stroke="#63b8ff" points="147.69,-50 157.69,-46.5 147.69,-43 147.69,-50"/>
</a>
</g>
</g>
<!-- Node7 -->
<g id="Node000007" class="node">
<title>Node7</title>
<g id="a_Node000007"><a xlink:href="class_sequence.html#ae293cd5124445b604bbcba3a5f01a48a" target="_top" xlink:title="Main Constructor. Construct a new Sequence object.">
<polygon fill="white" stroke="#666666" points="119.5,-19 2.5,-19 2.5,0 119.5,0 119.5,-19"/>
<text text-anchor="middle" x="61" y="-7" font-family="Helvetica,sans-Serif" font-size="10.00">Sequence::Sequence</text>
</a>
</g>
</g>
<!-- Node4&#45;&gt;Node7 -->
<g id="edge6_Node000004_Node000007" class="edge">
<title>Node4&#45;&gt;Node7</title>
<g id="a_edge6_Node000004_Node000007"><a xlink:title=" ">
<path fill="none" stroke="#63b8ff" d="M168.01,-34.64C146.78,-29.61 122.36,-23.82 102.31,-19.06"/>
<polygon fill="#63b8ff" stroke="#63b8ff" points="167.29,-38.07 177.83,-36.97 168.9,-31.26 167.29,-38.07"/>
</a>
</g>
</g>
</g>
</svg>
</svg>

<style type='text/css'>
<![CDATA[
[data-mouse-over-selected='false'] { opacity: 0.7; }
[data-mouse-over-selected='true']  { opacity: 1.0; }
]]>
</style>
<script type="application/ecmascript"><![CDATA[
document.addEventListener('DOMContentLoaded', (event) => {
  highlightEdges();
  highlightAdjacentNodes();
});
]]></script>
</svg>
