<?xml version="1.0" encoding="UTF-8" standalone="no"?>
<!DOCTYPE svg PUBLIC "-//W3C//DTD SVG 1.1//EN"
 "http://www.w3.org/Graphics/SVG/1.1/DTD/svg11.dtd">
<!-- Generated by graphviz version 2.43.0 (0)
 -->
<!-- Title: Sequence::isLegalAmino Pages: 1 -->
<svg width="1063pt" height="138pt"
 viewBox="0.00 0.00 1063.00 138.00" xmlns="http://www.w3.org/2000/svg" xmlns:xlink="http://www.w3.org/1999/xlink">
<g id="graph0" class="graph" transform="scale(1 1) rotate(0) translate(4 134)">
<title>Sequence::isLegalAmino</title>
<!-- Node1 -->
<g id="Node000001" class="node">
<title>Node1</title>
<g id="a_Node000001"><a xlink:title="Say if a symbol can be an amino acid.">
<polygon fill="#999999" stroke="#666666" points="136,-38 0,-38 0,-19 136,-19 136,-38"/>
<text text-anchor="middle" x="68" y="-26" font-family="Helvetica,sans-Serif" font-size="10.00">Sequence::isLegalAmino</text>
</a>
</g>
</g>
<!-- Node2 -->
<g id="Node000002" class="node">
<title>Node2</title>
<g id="a_Node000002"><a xlink:href="class_sequence.html#ad40777fd2f7ad3ae247fab02459e6759" target="_top" xlink:title="Retrieve the symbol at the position in the sequence.">
<polygon fill="white" stroke="#666666" points="258,-38 172,-38 172,-19 258,-19 258,-38"/>
<text text-anchor="middle" x="215" y="-26" font-family="Helvetica,sans-Serif" font-size="10.00">Sequence::get</text>
</a>
</g>
</g>
<!-- Node1&#45;&gt;Node2 -->
<g id="edge1_Node000001_Node000002" class="edge">
<title>Node1&#45;&gt;Node2</title>
<g id="a_edge1_Node000001_Node000002"><a xlink:title=" ">
<path fill="none" stroke="#63b8ff" d="M136.41,-28.5C144.93,-28.5 153.56,-28.5 161.8,-28.5"/>
<polygon fill="#63b8ff" stroke="#63b8ff" points="162,-32 172,-28.5 162,-25 162,-32"/>
</a>
</g>
</g>
<!-- Node2&#45;&gt;Node2 -->
<g id="edge5_Node000002_Node000002" class="edge">
<title>Node2&#45;&gt;Node2</title>
<g id="a_edge5_Node000002_Node000002"><a xlink:title=" ">
<path fill="none" stroke="#63b8ff" d="M192.5,-38.08C181.55,-46.73 189.05,-56 215,-56 231.62,-56 240.68,-52.2 242.16,-47.19"/>
<polygon fill="#63b8ff" stroke="#63b8ff" points="245.17,-45.39 237.5,-38.08 238.94,-48.58 245.17,-45.39"/>
</a>
</g>
</g>
<!-- Node3 -->
<g id="Node000003" class="node">
<title>Node3</title>
<g id="a_Node000003"><a xlink:href="class_bit_vector.html#aebe159444eb9d619959b7325ac5dac2d" target="_top" xlink:title="Return the value of the bit at the position coord.">
<polygon fill="white" stroke="#666666" points="411.5,-112 328.5,-112 328.5,-93 411.5,-93 411.5,-112"/>
<text text-anchor="middle" x="370" y="-100" font-family="Helvetica,sans-Serif" font-size="10.00">BitVector::get</text>
</a>
</g>
</g>
<!-- Node2&#45;&gt;Node3 -->
<g id="edge2_Node000002_Node000003" class="edge">
<title>Node2&#45;&gt;Node3</title>
<g id="a_edge2_Node000002_Node000003"><a xlink:title=" ">
<path fill="none" stroke="#63b8ff" d="M226.76,-38.34C241.07,-50.9 267.62,-72.43 294,-84.5 301.7,-88.02 310.18,-90.91 318.57,-93.25"/>
<polygon fill="#63b8ff" stroke="#63b8ff" points="317.78,-96.66 328.34,-95.75 319.52,-89.88 317.78,-96.66"/>
</a>
</g>
</g>
<!-- Node5 -->
<g id="Node000005" class="node">
<title>Node5</title>
<g id="a_Node000005"><a xlink:href="class_sequence.html#a8181f024304b3fb5f55c7118f648cc61" target="_top" xlink:title="Return a char (same format as Sequence::getType()) that indicate which alphabet is used in the during...">
<polygon fill="white" stroke="#666666" points="446,-75 294,-75 294,-56 446,-56 446,-75"/>
<text text-anchor="middle" x="370" y="-63" font-family="Helvetica,sans-Serif" font-size="10.00">Sequence::getEncodingType</text>
</a>
</g>
</g>
<!-- Node2&#45;&gt;Node5 -->
<g id="edge6_Node000002_Node000005" class="edge">
<title>Node2&#45;&gt;Node5</title>
<g id="a_edge6_Node000002_Node000005"><a xlink:title=" ">
<path fill="none" stroke="#63b8ff" d="M255.27,-38.09C267.66,-41.11 281.4,-44.45 294,-47.5 302.23,-49.49 310.97,-51.6 319.47,-53.64"/>
<polygon fill="#63b8ff" stroke="#63b8ff" points="318.75,-57.06 329.29,-56 320.39,-50.26 318.75,-57.06"/>
</a>
</g>
</g>
<!-- Node6 -->
<g id="Node000006" class="node">
<title>Node6</title>
<g id="a_Node000006"><a xlink:href="class_sequence.html#a49a9126010c0332493c803ddca005394" target="_top" xlink:title="Give a map that compress / decompress char used by Sequence.">
<polygon fill="white" stroke="#666666" points="439.5,-38 300.5,-38 300.5,-19 439.5,-19 439.5,-38"/>
<text text-anchor="middle" x="370" y="-26" font-family="Helvetica,sans-Serif" font-size="10.00">Sequence::translationTab</text>
</a>
</g>
</g>
<!-- Node2&#45;&gt;Node6 -->
<g id="edge7_Node000002_Node000006" class="edge">
<title>Node2&#45;&gt;Node6</title>
<g id="a_edge7_Node000002_Node000006"><a xlink:title=" ">
<path fill="none" stroke="#63b8ff" d="M258.21,-22.39C268.24,-21.99 279.25,-21.78 290.32,-21.75"/>
<polygon fill="#63b8ff" stroke="#63b8ff" points="290.47,-25.25 300.48,-21.78 290.49,-18.25 290.47,-25.25"/>
</a>
</g>
</g>
<!-- Node3&#45;&gt;Node3 -->
<g id="edge3_Node000003_Node000003" class="edge">
<title>Node3&#45;&gt;Node3</title>
<g id="a_edge3_Node000003_Node000003"><a xlink:title=" ">
<path fill="none" stroke="#63b8ff" d="M346.26,-112.08C334.72,-120.73 342.63,-130 370,-130 387.96,-130 397.54,-126.01 398.75,-120.82"/>
<polygon fill="#63b8ff" stroke="#63b8ff" points="401.75,-119.02 393.74,-112.08 395.67,-122.5 401.75,-119.02"/>
</a>
</g>
</g>
<!-- Node4 -->
<g id="Node000004" class="node">
<title>Node4</title>
<g id="a_Node000004"><a xlink:href="class_bit_vector_1_1_coords.html#a2892f7f46c4af93f9733e312229d8ec1" target="_top" xlink:title="Get Coords::octet .">
<polygon fill="white" stroke="#666666" points="599.5,-117.5 492.5,-117.5 492.5,-87.5 599.5,-87.5 599.5,-117.5"/>
<text text-anchor="start" x="500.5" y="-105.5" font-family="Helvetica,sans-Serif" font-size="10.00">BitVector::Coords::</text>
<text text-anchor="middle" x="546" y="-94.5" font-family="Helvetica,sans-Serif" font-size="10.00">getOctet</text>
</a>
</g>
</g>
<!-- Node3&#45;&gt;Node4 -->
<g id="edge4_Node000003_Node000004" class="edge">
<title>Node3&#45;&gt;Node4</title>
<g id="a_edge4_Node000003_Node000004"><a xlink:title=" ">
<path fill="none" stroke="#63b8ff" d="M411.8,-102.5C432.71,-102.5 458.64,-102.5 482.05,-102.5"/>
<polygon fill="#63b8ff" stroke="#63b8ff" points="482.25,-106 492.25,-102.5 482.25,-99 482.25,-106"/>
</a>
</g>
</g>
<!-- Node6&#45;&gt;Node2 -->
<g id="edge13_Node000006_Node000002" class="edge">
<title>Node6&#45;&gt;Node2</title>
<g id="a_edge13_Node000006_Node000002"><a xlink:title=" ">
<path fill="none" stroke="#63b8ff" d="M300.48,-35.22C289.68,-35.31 278.67,-35.21 268.32,-34.94"/>
<polygon fill="#63b8ff" stroke="#63b8ff" points="268.32,-31.44 258.21,-34.61 268.09,-38.44 268.32,-31.44"/>
</a>
</g>
</g>
<!-- Node7 -->
<g id="Node000007" class="node">
<title>Node7</title>
<g id="a_Node000007"><a xlink:href="class_sequence.html#a555c6e58957c4d07028eb5c67b1732ac" target="_top" xlink:title="Function used by Sequence::translationTab to create their compression map.">
<polygon fill="white" stroke="#666666" points="610,-19 482,-19 482,0 610,0 610,-19"/>
<text text-anchor="middle" x="546" y="-7" font-family="Helvetica,sans-Serif" font-size="10.00">Sequence::fillCodeMap</text>
</a>
</g>
</g>
<!-- Node6&#45;&gt;Node7 -->
<g id="edge8_Node000006_Node000007" class="edge">
<title>Node6&#45;&gt;Node7</title>
<g id="a_edge8_Node000006_Node000007"><a xlink:title=" ">
<path fill="none" stroke="#63b8ff" d="M439.77,-20.99C450.28,-19.84 461.16,-18.65 471.76,-17.5"/>
<polygon fill="#63b8ff" stroke="#63b8ff" points="472.26,-20.96 481.82,-16.4 471.5,-14.01 472.26,-20.96"/>
</a>
</g>
</g>
<!-- Node7&#45;&gt;Node2 -->
<g id="edge9_Node000007_Node000002" class="edge">
<title>Node7&#45;&gt;Node2</title>
<g id="a_edge9_Node000007_Node000002"><a xlink:title=" ">
<path fill="none" stroke="#63b8ff" d="M481.83,-5.35C430.92,-3 357.6,-1.87 294,-9.5 282.01,-10.94 269.21,-13.58 257.51,-16.44"/>
<polygon fill="#63b8ff" stroke="#63b8ff" points="256.38,-13.12 247.56,-18.99 258.12,-19.9 256.38,-13.12"/>
</a>
</g>
</g>
<!-- Node8 -->
<g id="Node000008" class="node">
<title>Node8</title>
<g id="a_Node000008"><a xlink:href="class_sequence.html#acf21040958590f98163b3d11f19ea93e" target="_top" xlink:title="Give the number of element contained in this sequence.">
<polygon fill="white" stroke="#666666" points="735,-19 646,-19 646,0 735,0 735,-19"/>
<text text-anchor="middle" x="690.5" y="-7" font-family="Helvetica,sans-Serif" font-size="10.00">Sequence::size</text>
</a>
</g>
</g>
<!-- Node7&#45;&gt;Node8 -->
<g id="edge10_Node000007_Node000008" class="edge">
<title>Node7&#45;&gt;Node8</title>
<g id="a_edge10_Node000007_Node000008"><a xlink:title=" ">
<path fill="none" stroke="#63b8ff" d="M610.33,-9.5C618.8,-9.5 627.42,-9.5 635.7,-9.5"/>
<polygon fill="#63b8ff" stroke="#63b8ff" points="635.98,-13 645.98,-9.5 635.98,-6 635.98,-13"/>
</a>
</g>
</g>
<!-- Node9 -->
<g id="Node000009" class="node">
<title>Node9</title>
<g id="a_Node000009"><a xlink:href="class_bit_vector.html#ab30ea2b408107e4e6bc8095b5a64a1dd" target="_top" xlink:title="Number of element inside this object.">
<polygon fill="white" stroke="#666666" points="857,-19 771,-19 771,0 857,0 857,-19"/>
<text text-anchor="middle" x="814" y="-7" font-family="Helvetica,sans-Serif" font-size="10.00">BitVector::size</text>
</a>
</g>
</g>
<!-- Node8&#45;&gt;Node9 -->
<g id="edge11_Node000008_Node000009" class="edge">
<title>Node8&#45;&gt;Node9</title>
<g id="a_edge11_Node000008_Node000009"><a xlink:title=" ">
<path fill="none" stroke="#63b8ff" d="M735.02,-9.5C743.25,-9.5 751.94,-9.5 760.41,-9.5"/>
<polygon fill="#63b8ff" stroke="#63b8ff" points="760.6,-13 770.6,-9.5 760.6,-6 760.6,-13"/>
</a>
</g>
</g>
<!-- Node10 -->
<g id="Node000010" class="node">
<title>Node10</title>
<g id="a_Node000010"><a xlink:href="class_bit_vector.html#a5339660cfb315ab5de7f78bdf5af4ce1" target="_top" xlink:title="Get BitVector::_element_number.">
<polygon fill="white" stroke="#666666" points="1055,-19 893,-19 893,0 1055,0 1055,-19"/>
<text text-anchor="middle" x="974" y="-7" font-family="Helvetica,sans-Serif" font-size="10.00">BitVector::getElementNumber</text>
</a>
</g>
</g>
<!-- Node9&#45;&gt;Node10 -->
<g id="edge12_Node000009_Node000010" class="edge">
<title>Node9&#45;&gt;Node10</title>
<g id="a_edge12_Node000009_Node000010"><a xlink:title=" ">
<path fill="none" stroke="#63b8ff" d="M857.34,-9.5C865.23,-9.5 873.74,-9.5 882.44,-9.5"/>
<polygon fill="#63b8ff" stroke="#63b8ff" points="882.71,-13 892.71,-9.5 882.71,-6 882.71,-13"/>
</a>
</g>
</g>
</g>
</svg>
