<?xml version="1.0" encoding="UTF-8" standalone="no"?>
<!DOCTYPE svg PUBLIC "-//W3C//DTD SVG 1.1//EN"
 "http://www.w3.org/Graphics/SVG/1.1/DTD/svg11.dtd">
<!-- Generated by graphviz version 2.43.0 (0)
 -->
<!-- Title: FastaSequence Pages: 1 -->
<!--zoomable 727 -->

<svg id="main" version="1.1" xmlns="http://www.w3.org/2000/svg" xmlns:xlink="http://www.w3.org/1999/xlink" xml:space="preserve" onload="init(evt)">
<style type="text/css"><![CDATA[
.node, .edge {opacity: 0.7;}
.node.selected, .edge.selected {opacity: 1;}
.edge:hover path { stroke: red; }
.edge:hover polygon { stroke: red; fill: red; }
]]></style>

<defs>
  <circle id="rim" cx="0" cy="0" r="7"/>
  <circle id="rim2" cx="0" cy="0" r="3.5"/>
  <g id="zoomPlus">
    <use xlink:href="#rim" fill="#404040"><set attributeName="fill" to="#808080" begin="zoomplus.mouseover" end="zoomplus.mouseout"/></use>
    <path d="M-4,0h8M0,-4v8" fill="none" stroke="white" stroke-width="1.5" pointer-events="none"/>
  </g>
  <g id="zoomMin">
    <use xlink:href="#rim" fill="#404040"><set attributeName="fill" to="#808080" begin="zoomminus.mouseover" end="zoomminus.mouseout"/></use>
    <path d="M-4,0h8" fill="none" stroke="white" stroke-width="1.5" pointer-events="none"/>
  </g>
  <g id="arrowUp" transform="translate(30 24)">
    <use xlink:href="#rim"/>
    <path pointer-events="none" fill="none" stroke="white" stroke-width="1.5" d="M0,-3.0v7 M-2.5,-0.5L0,-3.0L2.5,-0.5"/>
  </g>
  <g id="arrowRight" transform="rotate(90) translate(36 -43)">
    <use xlink:href="#rim"/>
    <path pointer-events="none" fill="none" stroke="white" stroke-width="1.5" d="M0,-3.0v7 M-2.5,-0.5L0,-3.0L2.5,-0.5"/>
  </g>
  <g id="arrowDown" transform="rotate(180) translate(-30 -48)">
    <use xlink:href="#rim"/>
    <path pointer-events="none" fill="none" stroke="white" stroke-width="1.5" d="M0,-3.0v7 M-2.5,-0.5L0,-3.0L2.5,-0.5"/>
  </g>
  <g id="arrowLeft" transform="rotate(270) translate(-36 17)">
    <use xlink:href="#rim"/>
    <path pointer-events="none" fill="none" stroke="white" stroke-width="1.5" d="M0,-3.0v7 M-2.5,-0.5L0,-3.0L2.5,-0.5"/>
  </g>
  <g id="resetDef">
    <use xlink:href="#rim2" fill="#404040"><set attributeName="fill" to="#808080" begin="reset.mouseover" end="reset.mouseout"/></use>
  </g>
</defs>
<script type="application/ecmascript">
var viewWidth = 304;
var viewHeight = 727;
var sectionId = 'dynsection-0';
</script>
<script type="application/ecmascript" xlink:href="svg.min.js"/>
<svg id="graph" class="graph">
<g id="viewport">
<title>FastaSequence</title>
<!-- Node1 -->
<g id="Node000001" class="node">
<title>Node1</title>
<g id="a_Node000001"><a xlink:title="Class that represent Sequence inside a fasta File. Can hold comment.">
<polygon fill="#999999" stroke="transparent" points="202,-184 84,-184 84,0 202,0 202,-184"/>
<text text-anchor="start" x="106.5" y="-172" font-family="Helvetica,sans-Serif" font-size="10.00">FastaSequence</text>
<text text-anchor="start" x="90.5" y="-157" font-family="Helvetica,sans-Serif" font-size="10.00">&#45;</text>
<text text-anchor="start" x="101" y="-157" font-family="Helvetica,sans-Serif" font-size="10.00">comments</text>
<text text-anchor="start" x="88" y="-142" font-family="Helvetica,sans-Serif" font-size="10.00">+</text>
<text text-anchor="start" x="101" y="-142" font-family="Helvetica,sans-Serif" font-size="10.00">getAllComment()</text>
<text text-anchor="start" x="88" y="-127" font-family="Helvetica,sans-Serif" font-size="10.00">+</text>
<text text-anchor="start" x="101" y="-127" font-family="Helvetica,sans-Serif" font-size="10.00">FastaSequence()</text>
<text text-anchor="start" x="88" y="-112" font-family="Helvetica,sans-Serif" font-size="10.00">+</text>
<text text-anchor="start" x="101" y="-112" font-family="Helvetica,sans-Serif" font-size="10.00">insert()</text>
<text text-anchor="start" x="88" y="-97" font-family="Helvetica,sans-Serif" font-size="10.00">+</text>
<text text-anchor="start" x="101" y="-97" font-family="Helvetica,sans-Serif" font-size="10.00">eraseSeq()</text>
<text text-anchor="start" x="88" y="-82" font-family="Helvetica,sans-Serif" font-size="10.00">+</text>
<text text-anchor="start" x="101" y="-82" font-family="Helvetica,sans-Serif" font-size="10.00">addComment()</text>
<text text-anchor="start" x="88" y="-67" font-family="Helvetica,sans-Serif" font-size="10.00">+</text>
<text text-anchor="start" x="101" y="-67" font-family="Helvetica,sans-Serif" font-size="10.00">loadComments()</text>
<text text-anchor="start" x="88" y="-52" font-family="Helvetica,sans-Serif" font-size="10.00">+</text>
<text text-anchor="start" x="101" y="-52" font-family="Helvetica,sans-Serif" font-size="10.00">removeComment()</text>
<text text-anchor="start" x="88" y="-37" font-family="Helvetica,sans-Serif" font-size="10.00">+</text>
<text text-anchor="start" x="101" y="-37" font-family="Helvetica,sans-Serif" font-size="10.00">displaceComment()</text>
<text text-anchor="start" x="88" y="-22" font-family="Helvetica,sans-Serif" font-size="10.00">+</text>
<text text-anchor="start" x="101" y="-22" font-family="Helvetica,sans-Serif" font-size="10.00">isCommentedPos()</text>
<text text-anchor="start" x="88" y="-7" font-family="Helvetica,sans-Serif" font-size="10.00">+</text>
<text text-anchor="start" x="101" y="-7" font-family="Helvetica,sans-Serif" font-size="10.00">getComment()</text>
<polygon fill="#666666" stroke="#666666" points="84,-167 84,-167 202,-167 202,-167 84,-167"/>
<polygon fill="#666666" stroke="#666666" points="84,-152 84,-152 99,-152 99,-152 84,-152"/>
<polygon fill="#666666" stroke="#666666" points="99,-152 99,-152 202,-152 202,-152 99,-152"/>
<polygon fill="none" stroke="#666666" points="84,0 84,-184 202,-184 202,0 84,0"/>
</a>
</g>
</g>
<!-- Node2 -->
<g id="Node000002" class="node">
<title>Node2</title>
<g id="a_Node000002"><a xlink:href="class_fasta_related.html" target="_top" xlink:title="Class inherited by all class related to FastaFiles.">
<polygon fill="white" stroke="transparent" points="130,-546.5 0,-546.5 0,-392.5 130,-392.5 130,-546.5"/>
<text text-anchor="start" x="33" y="-534.5" font-family="Helvetica,sans-Serif" font-size="10.00">FastaRelated</text>
<text text-anchor="start" x="6.5" y="-519.5" font-family="Helvetica,sans-Serif" font-size="10.00">&#45;</text>
<text text-anchor="start" x="17" y="-519.5" font-family="Helvetica,sans-Serif" font-size="10.00">legalMultiHeaderChar</text>
<text text-anchor="start" x="6.5" y="-504.5" font-family="Helvetica,sans-Serif" font-size="10.00">&#45;</text>
<text text-anchor="start" x="17" y="-504.5" font-family="Helvetica,sans-Serif" font-size="10.00">legalMonoHeaderChar</text>
<text text-anchor="start" x="6.5" y="-489.5" font-family="Helvetica,sans-Serif" font-size="10.00">&#45;</text>
<text text-anchor="start" x="17" y="-489.5" font-family="Helvetica,sans-Serif" font-size="10.00">legalCommentChar</text>
<text text-anchor="start" x="6.5" y="-474.5" font-family="Helvetica,sans-Serif" font-size="10.00">&#45;</text>
<text text-anchor="start" x="17" y="-474.5" font-family="Helvetica,sans-Serif" font-size="10.00">blankChar</text>
<text text-anchor="start" x="4" y="-459.5" font-family="Helvetica,sans-Serif" font-size="10.00">+</text>
<text text-anchor="start" x="17" y="-459.5" font-family="Helvetica,sans-Serif" font-size="10.00">isHeaderChar()</text>
<text text-anchor="start" x="4" y="-444.5" font-family="Helvetica,sans-Serif" font-size="10.00">+</text>
<text text-anchor="start" x="17" y="-444.5" font-family="Helvetica,sans-Serif" font-size="10.00">isMonoHeaderChar()</text>
<text text-anchor="start" x="4" y="-429.5" font-family="Helvetica,sans-Serif" font-size="10.00">+</text>
<text text-anchor="start" x="17" y="-429.5" font-family="Helvetica,sans-Serif" font-size="10.00">isMultiHeaderChar()</text>
<text text-anchor="start" x="4" y="-414.5" font-family="Helvetica,sans-Serif" font-size="10.00">+</text>
<text text-anchor="start" x="17" y="-414.5" font-family="Helvetica,sans-Serif" font-size="10.00">isCommentChar()</text>
<text text-anchor="start" x="4" y="-399.5" font-family="Helvetica,sans-Serif" font-size="10.00">+</text>
<text text-anchor="start" x="17" y="-399.5" font-family="Helvetica,sans-Serif" font-size="10.00">isBlankChar()</text>
<polygon fill="#666666" stroke="#666666" points="0,-529.5 0,-529.5 130,-529.5 130,-529.5 0,-529.5"/>
<polygon fill="#666666" stroke="#666666" points="0,-469.5 0,-469.5 15,-469.5 15,-469.5 0,-469.5"/>
<polygon fill="#666666" stroke="#666666" points="15,-469.5 15,-469.5 130,-469.5 130,-469.5 15,-469.5"/>
<polygon fill="none" stroke="#666666" points="0,-392.5 0,-546.5 130,-546.5 130,-392.5 0,-392.5"/>
</a>
</g>
</g>
<!-- Node2&#45;&gt;Node1 -->
<g id="edge1_Node000001_Node000002" class="edge">
<title>Node2&#45;&gt;Node1</title>
<g id="a_edge1_Node000001_Node000002"><a xlink:title=" ">
<path fill="none" stroke="#63b8ff" d="M82.97,-381.98C95.27,-322.78 111.55,-244.42 124.05,-184.24"/>
<polygon fill="none" stroke="#63b8ff" points="79.49,-381.56 80.88,-392.06 86.34,-382.98 79.49,-381.56"/>
</a>
</g>
</g>
<!-- Node3 -->
<g id="Node000003" class="node">
<title>Node3</title>
<g id="a_Node000003"><a xlink:href="class_sequence.html" target="_top" xlink:title=" ">
<polygon fill="white" stroke="transparent" points="295.5,-719 148.5,-719 148.5,-220 295.5,-220 295.5,-719"/>
<text text-anchor="start" x="198.5" y="-706.5" font-family="Helvetica,sans-Serif" font-size="10.00">Sequence</text>
<text text-anchor="start" x="155.5" y="-691.5" font-family="Helvetica,sans-Serif" font-size="10.00">&#45;</text>
<text text-anchor="start" x="166" y="-691.5" font-family="Helvetica,sans-Serif" font-size="10.00">type</text>
<text text-anchor="start" x="155.5" y="-676.5" font-family="Helvetica,sans-Serif" font-size="10.00">&#45;</text>
<text text-anchor="start" x="166" y="-676.5" font-family="Helvetica,sans-Serif" font-size="10.00">seq</text>
<text text-anchor="start" x="155.5" y="-661.5" font-family="Helvetica,sans-Serif" font-size="10.00">&#45;</text>
<text text-anchor="start" x="166" y="-661.5" font-family="Helvetica,sans-Serif" font-size="10.00">_encoding_type</text>
<text text-anchor="start" x="155.5" y="-646.5" font-family="Helvetica,sans-Serif" font-size="10.00">&#45;</text>
<text text-anchor="start" x="166" y="-646.5" font-family="Helvetica,sans-Serif" font-size="10.00">_header</text>
<text text-anchor="start" x="155.5" y="-631.5" font-family="Helvetica,sans-Serif" font-size="10.00">&#45;</text>
<text text-anchor="start" x="166" y="-631.5" font-family="Helvetica,sans-Serif" font-size="10.00">_iupac</text>
<text text-anchor="start" x="155.5" y="-616.5" font-family="Helvetica,sans-Serif" font-size="10.00">&#45;</text>
<text text-anchor="start" x="166" y="-616.5" font-family="Helvetica,sans-Serif" font-size="10.00">legalDNA</text>
<text text-anchor="start" x="155.5" y="-601.5" font-family="Helvetica,sans-Serif" font-size="10.00">&#45;</text>
<text text-anchor="start" x="166" y="-601.5" font-family="Helvetica,sans-Serif" font-size="10.00">legalRNA</text>
<text text-anchor="start" x="155.5" y="-586.5" font-family="Helvetica,sans-Serif" font-size="10.00">&#45;</text>
<text text-anchor="start" x="166" y="-586.5" font-family="Helvetica,sans-Serif" font-size="10.00">legalAmino</text>
<text text-anchor="start" x="155.5" y="-571.5" font-family="Helvetica,sans-Serif" font-size="10.00">&#45;</text>
<text text-anchor="start" x="166" y="-571.5" font-family="Helvetica,sans-Serif" font-size="10.00">validType</text>
<text text-anchor="start" x="153" y="-556.5" font-family="Helvetica,sans-Serif" font-size="10.00">+</text>
<text text-anchor="start" x="166" y="-556.5" font-family="Helvetica,sans-Serif" font-size="10.00">begin()</text>
<text text-anchor="start" x="153" y="-541.5" font-family="Helvetica,sans-Serif" font-size="10.00">+</text>
<text text-anchor="start" x="166" y="-541.5" font-family="Helvetica,sans-Serif" font-size="10.00">end()</text>
<text text-anchor="start" x="153" y="-526.5" font-family="Helvetica,sans-Serif" font-size="10.00">+</text>
<text text-anchor="start" x="166" y="-526.5" font-family="Helvetica,sans-Serif" font-size="10.00">Sequence()</text>
<text text-anchor="start" x="153" y="-511.5" font-family="Helvetica,sans-Serif" font-size="10.00">+</text>
<text text-anchor="start" x="166" y="-511.5" font-family="Helvetica,sans-Serif" font-size="10.00">Sequence()</text>
<text text-anchor="start" x="153" y="-496.5" font-family="Helvetica,sans-Serif" font-size="10.00">+</text>
<text text-anchor="start" x="166" y="-496.5" font-family="Helvetica,sans-Serif" font-size="10.00">Sequence()</text>
<text text-anchor="start" x="153" y="-481.5" font-family="Helvetica,sans-Serif" font-size="10.00">+</text>
<text text-anchor="start" x="166" y="-481.5" font-family="Helvetica,sans-Serif" font-size="10.00">getSeq()</text>
<text text-anchor="start" x="153" y="-466.5" font-family="Helvetica,sans-Serif" font-size="10.00">+</text>
<text text-anchor="start" x="166" y="-466.5" font-family="Helvetica,sans-Serif" font-size="10.00">getType()</text>
<text text-anchor="start" x="153" y="-451.5" font-family="Helvetica,sans-Serif" font-size="10.00">+</text>
<text text-anchor="start" x="166" y="-451.5" font-family="Helvetica,sans-Serif" font-size="10.00">getEncodingType()</text>
<text text-anchor="start" x="153" y="-436.5" font-family="Helvetica,sans-Serif" font-size="10.00">+</text>
<text text-anchor="start" x="166" y="-436.5" font-family="Helvetica,sans-Serif" font-size="10.00">getIupac()</text>
<text text-anchor="start" x="153" y="-421.5" font-family="Helvetica,sans-Serif" font-size="10.00">+</text>
<text text-anchor="start" x="166" y="-421.5" font-family="Helvetica,sans-Serif" font-size="10.00">getTypeArray()</text>
<text text-anchor="start" x="166" y="-406.5" font-family="Helvetica,sans-Serif" font-size="10.00">and 19 more...</text>
<text text-anchor="start" x="153" y="-391.5" font-family="Helvetica,sans-Serif" font-size="10.00">+</text>
<text text-anchor="start" x="166" y="-391.5" font-family="Helvetica,sans-Serif" font-size="10.00">getSequenceSymbol()</text>
<text text-anchor="start" x="153" y="-376.5" font-family="Helvetica,sans-Serif" font-size="10.00">+</text>
<text text-anchor="start" x="166" y="-376.5" font-family="Helvetica,sans-Serif" font-size="10.00">getSymbolDNA()</text>
<text text-anchor="start" x="153" y="-361.5" font-family="Helvetica,sans-Serif" font-size="10.00">+</text>
<text text-anchor="start" x="166" y="-361.5" font-family="Helvetica,sans-Serif" font-size="10.00">isLegalNucleic()</text>
<text text-anchor="start" x="153" y="-346.5" font-family="Helvetica,sans-Serif" font-size="10.00">+</text>
<text text-anchor="start" x="166" y="-346.5" font-family="Helvetica,sans-Serif" font-size="10.00">isLegalAmino()</text>
<text text-anchor="start" x="153" y="-331.5" font-family="Helvetica,sans-Serif" font-size="10.00">+</text>
<text text-anchor="start" x="166" y="-331.5" font-family="Helvetica,sans-Serif" font-size="10.00">isLegalSymbol()</text>
<text text-anchor="start" x="153" y="-316.5" font-family="Helvetica,sans-Serif" font-size="10.00">+</text>
<text text-anchor="start" x="166" y="-316.5" font-family="Helvetica,sans-Serif" font-size="10.00">isDNA()</text>
<text text-anchor="start" x="153" y="-301.5" font-family="Helvetica,sans-Serif" font-size="10.00">+</text>
<text text-anchor="start" x="166" y="-301.5" font-family="Helvetica,sans-Serif" font-size="10.00">isRNA()</text>
<text text-anchor="start" x="153" y="-286.5" font-family="Helvetica,sans-Serif" font-size="10.00">+</text>
<text text-anchor="start" x="166" y="-286.5" font-family="Helvetica,sans-Serif" font-size="10.00">isAmino()</text>
<text text-anchor="start" x="153" y="-271.5" font-family="Helvetica,sans-Serif" font-size="10.00">+</text>
<text text-anchor="start" x="166" y="-271.5" font-family="Helvetica,sans-Serif" font-size="10.00">isNucleic()</text>
<text text-anchor="start" x="153" y="-256.5" font-family="Helvetica,sans-Serif" font-size="10.00">+</text>
<text text-anchor="start" x="166" y="-256.5" font-family="Helvetica,sans-Serif" font-size="10.00">isDnaSpecificNucleotide()</text>
<text text-anchor="start" x="166" y="-241.5" font-family="Helvetica,sans-Serif" font-size="10.00">and 14 more...</text>
<text text-anchor="start" x="153" y="-226.5" font-family="Helvetica,sans-Serif" font-size="10.00">#</text>
<text text-anchor="start" x="166" y="-226.5" font-family="Helvetica,sans-Serif" font-size="10.00">parseChar()</text>
<polygon fill="#bfbfbf" stroke="#bfbfbf" points="149,-701.5 149,-701.5 296,-701.5 296,-701.5 149,-701.5"/>
<polygon fill="#bfbfbf" stroke="#bfbfbf" points="149,-566.5 149,-566.5 164,-566.5 164,-566.5 149,-566.5"/>
<polygon fill="#bfbfbf" stroke="#bfbfbf" points="164,-566.5 164,-566.5 296,-566.5 296,-566.5 164,-566.5"/>
<polygon fill="none" stroke="#bfbfbf" points="148.5,-220 148.5,-719 295.5,-719 295.5,-220 148.5,-220"/>
</a>
</g>
</g>
<!-- Node3&#45;&gt;Node1 -->
<g id="edge2_Node000001_Node000003" class="edge">
<title>Node3&#45;&gt;Node1</title>
<g id="a_edge2_Node000001_Node000003"><a xlink:title=" ">
<path fill="none" stroke="#63b8ff" d="M167.57,-209.8C165.71,-200.96 163.91,-192.38 162.17,-184.14"/>
<polygon fill="none" stroke="#63b8ff" points="164.21,-210.8 169.69,-219.87 171.06,-209.36 164.21,-210.8"/>
</a>
</g>
</g>
</g>
</svg>

<g id="navigator" transform="translate(0 0)" fill="#404254">
  <rect fill="#f2f5e9" fill-opacity="0.5" stroke="#606060" stroke-width=".5" x="0" y="0" width="60" height="60"/>
  <use id="zoomplus" xlink:href="#zoomPlus" x="17" y="9" onmousedown="handleZoom(evt,'in')"/>
  <use id="zoomminus" xlink:href="#zoomMin" x="42" y="9" onmousedown="handleZoom(evt,'out')"/>
  <use id="reset" xlink:href="#resetDef" x="30" y="36" onmousedown="handleReset()"/>
   <use id="arrowup" xlink:href="#arrowUp" x="0" y="0" onmousedown="handlePan(0,-1)"/>
  <use id="arrowright" xlink:href="#arrowRight" x="0" y="0" onmousedown="handlePan(1,0)"/>
  <use id="arrowdown" xlink:href="#arrowDown" x="0" y="0" onmousedown="handlePan(0,1)"/>
  <use id="arrowleft" xlink:href="#arrowLeft" x="0" y="0" onmousedown="handlePan(-1,0)"/>
</g>
<svg viewBox="0 0 15 15" width="100%" height="30px" preserveAspectRatio="xMaxYMin meet">
 <g id="arrow_out" transform="scale(0.3 0.3)">
  <a xlink:href="class_fasta_sequence__inherit__graph_org.svg" target="_base">
   <rect id="button" ry="5" rx="5" y="6" x="6" height="38" width="38"
        fill="#f2f5e9" fill-opacity="0.5" stroke="#606060" stroke-width="1.0"/>
   <path id="arrow"
     d="M 11.500037,31.436501 C 11.940474,20.09759 22.043105,11.32322 32.158766,21.979434 L 37.068811,17.246167 C 37.068811,17.246167 37.088388,32 37.088388,32 L 22.160133,31.978069 C 22.160133,31.978069 26.997745,27.140456 26.997745,27.140456 C 18.528582,18.264221 13.291696,25.230495 11.500037,31.436501 z"
     style="fill:#404040;"/>
  </a>
 </g>
</svg>

<style type='text/css'>
<![CDATA[
[data-mouse-over-selected='false'] { opacity: 0.7; }
[data-mouse-over-selected='true']  { opacity: 1.0; }
]]>
</style>
<script type="application/ecmascript"><![CDATA[
document.addEventListener('DOMContentLoaded', (event) => {
  highlightEdges();
  highlightAdjacentNodes();
});
]]></script>
</svg>
