<?xml version="1.0" encoding="UTF-8" standalone="no"?>
<!DOCTYPE svg PUBLIC "-//W3C//DTD SVG 1.1//EN"
 "http://www.w3.org/Graphics/SVG/1.1/DTD/svg11.dtd">
<!-- Generated by graphviz version 2.43.0 (0)
 -->
<!-- Title: Sequence::isRnaSpecificNucleotide Pages: 1 -->
<svg width="1250pt" height="156pt"
 viewBox="0.00 0.00 1250.00 156.00" xmlns="http://www.w3.org/2000/svg" xmlns:xlink="http://www.w3.org/1999/xlink">
<g id="graph0" class="graph" transform="scale(1 1) rotate(0) translate(4 152)">
<title>Sequence::isRnaSpecificNucleotide</title>
<!-- Node1 -->
<g id="Node000001" class="node">
<title>Node1</title>
<g id="a_Node000001"><a xlink:title="Say if a symbol can only be found in acid nucleic related to RNA.">
<polygon fill="#999999" stroke="#666666" points="187,-56 0,-56 0,-37 187,-37 187,-56"/>
<text text-anchor="middle" x="93.5" y="-44" font-family="Helvetica,sans-Serif" font-size="10.00">Sequence::isRnaSpecificNucleotide</text>
</a>
</g>
</g>
<!-- Node2 -->
<g id="Node000002" class="node">
<title>Node2</title>
<g id="a_Node000002"><a xlink:href="class_sequence.html#ad40777fd2f7ad3ae247fab02459e6759" target="_top" xlink:title="Retrieve the symbol at the position in the sequence.">
<polygon fill="white" stroke="#666666" points="445,-56 359,-56 359,-37 445,-37 445,-56"/>
<text text-anchor="middle" x="402" y="-44" font-family="Helvetica,sans-Serif" font-size="10.00">Sequence::get</text>
</a>
</g>
</g>
<!-- Node1&#45;&gt;Node2 -->
<g id="edge1_Node000001_Node000002" class="edge">
<title>Node1&#45;&gt;Node2</title>
<g id="a_edge1_Node000001_Node000002"><a xlink:title=" ">
<path fill="none" stroke="#63b8ff" d="M141.87,-56.02C188.15,-64 260.55,-73 323,-65.5 334.99,-64.06 347.79,-61.42 359.49,-58.56"/>
<polygon fill="#63b8ff" stroke="#63b8ff" points="360.62,-61.88 369.44,-56.01 358.88,-55.1 360.62,-61.88"/>
</a>
</g>
</g>
<!-- Node11 -->
<g id="Node000011" class="node">
<title>Node11</title>
<g id="a_Node000011"><a xlink:href="class_sequence.html#a14cf335c6053ca586d4e1694898575cf" target="_top" xlink:title="Say if a symbol can be an acid nucleic related to DNA.">
<polygon fill="white" stroke="#666666" points="323,-56 223,-56 223,-37 323,-37 323,-56"/>
<text text-anchor="middle" x="273" y="-44" font-family="Helvetica,sans-Serif" font-size="10.00">Sequence::isDNA</text>
</a>
</g>
</g>
<!-- Node1&#45;&gt;Node11 -->
<g id="edge14_Node000001_Node000011" class="edge">
<title>Node1&#45;&gt;Node11</title>
<g id="a_edge14_Node000001_Node000011"><a xlink:title=" ">
<path fill="none" stroke="#63b8ff" d="M187.15,-46.5C195.78,-46.5 204.36,-46.5 212.56,-46.5"/>
<polygon fill="#63b8ff" stroke="#63b8ff" points="212.73,-50 222.73,-46.5 212.73,-43 212.73,-50"/>
</a>
</g>
</g>
<!-- Node12 -->
<g id="Node000012" class="node">
<title>Node12</title>
<g id="a_Node000012"><a xlink:href="class_sequence.html#ad04d994668bcc5d29c6813fcbc28dfb6" target="_top" xlink:title="Say if a symbol can be an acid nucleic related to RNA.">
<polygon fill="white" stroke="#666666" points="322.5,-19 223.5,-19 223.5,0 322.5,0 322.5,-19"/>
<text text-anchor="middle" x="273" y="-7" font-family="Helvetica,sans-Serif" font-size="10.00">Sequence::isRNA</text>
</a>
</g>
</g>
<!-- Node1&#45;&gt;Node12 -->
<g id="edge16_Node000001_Node000012" class="edge">
<title>Node1&#45;&gt;Node12</title>
<g id="a_edge16_Node000001_Node000012"><a xlink:title=" ">
<path fill="none" stroke="#63b8ff" d="M140.21,-36.97C163.41,-32.14 191.79,-26.22 216.27,-21.12"/>
<polygon fill="#63b8ff" stroke="#63b8ff" points="217.06,-24.53 226.14,-19.06 215.63,-17.67 217.06,-24.53"/>
</a>
</g>
</g>
<!-- Node2&#45;&gt;Node2 -->
<g id="edge5_Node000002_Node000002" class="edge">
<title>Node2&#45;&gt;Node2</title>
<g id="a_edge5_Node000002_Node000002"><a xlink:title=" ">
<path fill="none" stroke="#63b8ff" d="M382.27,-56.08C372.67,-64.73 379.25,-74 402,-74 416.22,-74 424.12,-70.38 425.7,-65.55"/>
<polygon fill="#63b8ff" stroke="#63b8ff" points="428.83,-63.95 421.73,-56.08 422.37,-66.66 428.83,-63.95"/>
</a>
</g>
</g>
<!-- Node3 -->
<g id="Node000003" class="node">
<title>Node3</title>
<g id="a_Node000003"><a xlink:href="class_bit_vector.html#aebe159444eb9d619959b7325ac5dac2d" target="_top" xlink:title="Return the value of the bit at the position coord.">
<polygon fill="white" stroke="#666666" points="598.5,-130 515.5,-130 515.5,-111 598.5,-111 598.5,-130"/>
<text text-anchor="middle" x="557" y="-118" font-family="Helvetica,sans-Serif" font-size="10.00">BitVector::get</text>
</a>
</g>
</g>
<!-- Node2&#45;&gt;Node3 -->
<g id="edge2_Node000002_Node000003" class="edge">
<title>Node2&#45;&gt;Node3</title>
<g id="a_edge2_Node000002_Node000003"><a xlink:title=" ">
<path fill="none" stroke="#63b8ff" d="M413.76,-56.34C428.07,-68.9 454.62,-90.43 481,-102.5 488.7,-106.02 497.18,-108.91 505.57,-111.25"/>
<polygon fill="#63b8ff" stroke="#63b8ff" points="504.78,-114.66 515.34,-113.75 506.52,-107.88 504.78,-114.66"/>
</a>
</g>
</g>
<!-- Node5 -->
<g id="Node000005" class="node">
<title>Node5</title>
<g id="a_Node000005"><a xlink:href="class_sequence.html#a8181f024304b3fb5f55c7118f648cc61" target="_top" xlink:title="Return a char (same format as Sequence::getType()) that indicate which alphabet is used in the during...">
<polygon fill="white" stroke="#666666" points="633,-93 481,-93 481,-74 633,-74 633,-93"/>
<text text-anchor="middle" x="557" y="-81" font-family="Helvetica,sans-Serif" font-size="10.00">Sequence::getEncodingType</text>
</a>
</g>
</g>
<!-- Node2&#45;&gt;Node5 -->
<g id="edge6_Node000002_Node000005" class="edge">
<title>Node2&#45;&gt;Node5</title>
<g id="a_edge6_Node000002_Node000005"><a xlink:title=" ">
<path fill="none" stroke="#63b8ff" d="M442.27,-56.09C454.66,-59.11 468.4,-62.45 481,-65.5 489.23,-67.49 497.97,-69.6 506.47,-71.64"/>
<polygon fill="#63b8ff" stroke="#63b8ff" points="505.75,-75.06 516.29,-74 507.39,-68.26 505.75,-75.06"/>
</a>
</g>
</g>
<!-- Node6 -->
<g id="Node000006" class="node">
<title>Node6</title>
<g id="a_Node000006"><a xlink:href="class_sequence.html#a49a9126010c0332493c803ddca005394" target="_top" xlink:title="Give a map that compress / decompress char used by Sequence.">
<polygon fill="white" stroke="#666666" points="626.5,-56 487.5,-56 487.5,-37 626.5,-37 626.5,-56"/>
<text text-anchor="middle" x="557" y="-44" font-family="Helvetica,sans-Serif" font-size="10.00">Sequence::translationTab</text>
</a>
</g>
</g>
<!-- Node2&#45;&gt;Node6 -->
<g id="edge7_Node000002_Node000006" class="edge">
<title>Node2&#45;&gt;Node6</title>
<g id="a_edge7_Node000002_Node000006"><a xlink:title=" ">
<path fill="none" stroke="#63b8ff" d="M445.21,-40.39C455.24,-39.99 466.25,-39.78 477.32,-39.75"/>
<polygon fill="#63b8ff" stroke="#63b8ff" points="477.47,-43.25 487.48,-39.78 477.49,-36.25 477.47,-43.25"/>
</a>
</g>
</g>
<!-- Node3&#45;&gt;Node3 -->
<g id="edge3_Node000003_Node000003" class="edge">
<title>Node3&#45;&gt;Node3</title>
<g id="a_edge3_Node000003_Node000003"><a xlink:title=" ">
<path fill="none" stroke="#63b8ff" d="M533.26,-130.08C521.72,-138.73 529.63,-148 557,-148 574.96,-148 584.54,-144.01 585.75,-138.82"/>
<polygon fill="#63b8ff" stroke="#63b8ff" points="588.75,-137.02 580.74,-130.08 582.67,-140.5 588.75,-137.02"/>
</a>
</g>
</g>
<!-- Node4 -->
<g id="Node000004" class="node">
<title>Node4</title>
<g id="a_Node000004"><a xlink:href="class_bit_vector_1_1_coords.html#a2892f7f46c4af93f9733e312229d8ec1" target="_top" xlink:title="Get Coords::octet .">
<polygon fill="white" stroke="#666666" points="786.5,-135.5 679.5,-135.5 679.5,-105.5 786.5,-105.5 786.5,-135.5"/>
<text text-anchor="start" x="687.5" y="-123.5" font-family="Helvetica,sans-Serif" font-size="10.00">BitVector::Coords::</text>
<text text-anchor="middle" x="733" y="-112.5" font-family="Helvetica,sans-Serif" font-size="10.00">getOctet</text>
</a>
</g>
</g>
<!-- Node3&#45;&gt;Node4 -->
<g id="edge4_Node000003_Node000004" class="edge">
<title>Node3&#45;&gt;Node4</title>
<g id="a_edge4_Node000003_Node000004"><a xlink:title=" ">
<path fill="none" stroke="#63b8ff" d="M598.8,-120.5C619.71,-120.5 645.64,-120.5 669.05,-120.5"/>
<polygon fill="#63b8ff" stroke="#63b8ff" points="669.25,-124 679.25,-120.5 669.25,-117 669.25,-124"/>
</a>
</g>
</g>
<!-- Node6&#45;&gt;Node2 -->
<g id="edge13_Node000006_Node000002" class="edge">
<title>Node6&#45;&gt;Node2</title>
<g id="a_edge13_Node000006_Node000002"><a xlink:title=" ">
<path fill="none" stroke="#63b8ff" d="M487.48,-53.22C476.68,-53.31 465.67,-53.21 455.32,-52.94"/>
<polygon fill="#63b8ff" stroke="#63b8ff" points="455.32,-49.44 445.21,-52.61 455.09,-56.44 455.32,-49.44"/>
</a>
</g>
</g>
<!-- Node7 -->
<g id="Node000007" class="node">
<title>Node7</title>
<g id="a_Node000007"><a xlink:href="class_sequence.html#a555c6e58957c4d07028eb5c67b1732ac" target="_top" xlink:title="Function used by Sequence::translationTab to create their compression map.">
<polygon fill="white" stroke="#666666" points="797,-37 669,-37 669,-18 797,-18 797,-37"/>
<text text-anchor="middle" x="733" y="-25" font-family="Helvetica,sans-Serif" font-size="10.00">Sequence::fillCodeMap</text>
</a>
</g>
</g>
<!-- Node6&#45;&gt;Node7 -->
<g id="edge8_Node000006_Node000007" class="edge">
<title>Node6&#45;&gt;Node7</title>
<g id="a_edge8_Node000006_Node000007"><a xlink:title=" ">
<path fill="none" stroke="#63b8ff" d="M626.77,-38.99C637.28,-37.84 648.16,-36.65 658.76,-35.5"/>
<polygon fill="#63b8ff" stroke="#63b8ff" points="659.26,-38.96 668.82,-34.4 658.5,-32.01 659.26,-38.96"/>
</a>
</g>
</g>
<!-- Node7&#45;&gt;Node2 -->
<g id="edge9_Node000007_Node000002" class="edge">
<title>Node7&#45;&gt;Node2</title>
<g id="a_edge9_Node000007_Node000002"><a xlink:title=" ">
<path fill="none" stroke="#63b8ff" d="M668.83,-23.35C617.92,-21 544.6,-19.87 481,-27.5 469.01,-28.94 456.21,-31.58 444.51,-34.44"/>
<polygon fill="#63b8ff" stroke="#63b8ff" points="443.38,-31.12 434.56,-36.99 445.12,-37.9 443.38,-31.12"/>
</a>
</g>
</g>
<!-- Node8 -->
<g id="Node000008" class="node">
<title>Node8</title>
<g id="a_Node000008"><a xlink:href="class_sequence.html#acf21040958590f98163b3d11f19ea93e" target="_top" xlink:title="Give the number of element contained in this sequence.">
<polygon fill="white" stroke="#666666" points="922,-37 833,-37 833,-18 922,-18 922,-37"/>
<text text-anchor="middle" x="877.5" y="-25" font-family="Helvetica,sans-Serif" font-size="10.00">Sequence::size</text>
</a>
</g>
</g>
<!-- Node7&#45;&gt;Node8 -->
<g id="edge10_Node000007_Node000008" class="edge">
<title>Node7&#45;&gt;Node8</title>
<g id="a_edge10_Node000007_Node000008"><a xlink:title=" ">
<path fill="none" stroke="#63b8ff" d="M797.33,-27.5C805.8,-27.5 814.42,-27.5 822.7,-27.5"/>
<polygon fill="#63b8ff" stroke="#63b8ff" points="822.98,-31 832.98,-27.5 822.98,-24 822.98,-31"/>
</a>
</g>
</g>
<!-- Node9 -->
<g id="Node000009" class="node">
<title>Node9</title>
<g id="a_Node000009"><a xlink:href="class_bit_vector.html#ab30ea2b408107e4e6bc8095b5a64a1dd" target="_top" xlink:title="Number of element inside this object.">
<polygon fill="white" stroke="#666666" points="1044,-37 958,-37 958,-18 1044,-18 1044,-37"/>
<text text-anchor="middle" x="1001" y="-25" font-family="Helvetica,sans-Serif" font-size="10.00">BitVector::size</text>
</a>
</g>
</g>
<!-- Node8&#45;&gt;Node9 -->
<g id="edge11_Node000008_Node000009" class="edge">
<title>Node8&#45;&gt;Node9</title>
<g id="a_edge11_Node000008_Node000009"><a xlink:title=" ">
<path fill="none" stroke="#63b8ff" d="M922.02,-27.5C930.25,-27.5 938.94,-27.5 947.41,-27.5"/>
<polygon fill="#63b8ff" stroke="#63b8ff" points="947.6,-31 957.6,-27.5 947.6,-24 947.6,-31"/>
</a>
</g>
</g>
<!-- Node10 -->
<g id="Node000010" class="node">
<title>Node10</title>
<g id="a_Node000010"><a xlink:href="class_bit_vector.html#a5339660cfb315ab5de7f78bdf5af4ce1" target="_top" xlink:title="Get BitVector::_element_number.">
<polygon fill="white" stroke="#666666" points="1242,-37 1080,-37 1080,-18 1242,-18 1242,-37"/>
<text text-anchor="middle" x="1161" y="-25" font-family="Helvetica,sans-Serif" font-size="10.00">BitVector::getElementNumber</text>
</a>
</g>
</g>
<!-- Node9&#45;&gt;Node10 -->
<g id="edge12_Node000009_Node000010" class="edge">
<title>Node9&#45;&gt;Node10</title>
<g id="a_edge12_Node000009_Node000010"><a xlink:title=" ">
<path fill="none" stroke="#63b8ff" d="M1044.34,-27.5C1052.23,-27.5 1060.74,-27.5 1069.44,-27.5"/>
<polygon fill="#63b8ff" stroke="#63b8ff" points="1069.71,-31 1079.71,-27.5 1069.71,-24 1069.71,-31"/>
</a>
</g>
</g>
<!-- Node11&#45;&gt;Node2 -->
<g id="edge15_Node000011_Node000002" class="edge">
<title>Node11&#45;&gt;Node2</title>
<g id="a_edge15_Node000011_Node000002"><a xlink:title=" ">
<path fill="none" stroke="#63b8ff" d="M323.1,-46.5C331.44,-46.5 340.12,-46.5 348.54,-46.5"/>
<polygon fill="#63b8ff" stroke="#63b8ff" points="348.64,-50 358.64,-46.5 348.64,-43 348.64,-50"/>
</a>
</g>
</g>
<!-- Node12&#45;&gt;Node2 -->
<g id="edge17_Node000012_Node000002" class="edge">
<title>Node12&#45;&gt;Node2</title>
<g id="a_edge17_Node000012_Node000002"><a xlink:title=" ">
<path fill="none" stroke="#63b8ff" d="M306.71,-19.03C322.43,-23.61 341.49,-29.16 358.34,-34.07"/>
<polygon fill="#63b8ff" stroke="#63b8ff" points="357.38,-37.44 367.96,-36.88 359.34,-30.72 357.38,-37.44"/>
</a>
</g>
</g>
</g>
</svg>
