<?xml version="1.0" encoding="UTF-8" standalone="no"?>
<!DOCTYPE svg PUBLIC "-//W3C//DTD SVG 1.1//EN"
 "http://www.w3.org/Graphics/SVG/1.1/DTD/svg11.dtd">
<!-- Generated by graphviz version 2.43.0 (0)
 -->
<!-- Title: BitVector::maximumElementNumber Pages: 1 -->
<!--zoomable 500 -->

<svg id="main" version="1.1" xmlns="http://www.w3.org/2000/svg" xmlns:xlink="http://www.w3.org/1999/xlink" xml:space="preserve" onload="init(evt)">
<style type="text/css"><![CDATA[
.node, .edge {opacity: 0.7;}
.node.selected, .edge.selected {opacity: 1;}
.edge:hover path { stroke: red; }
.edge:hover polygon { stroke: red; fill: red; }
]]></style>

<defs>
  <circle id="rim" cx="0" cy="0" r="7"/>
  <circle id="rim2" cx="0" cy="0" r="3.5"/>
  <g id="zoomPlus">
    <use xlink:href="#rim" fill="#404040"><set attributeName="fill" to="#808080" begin="zoomplus.mouseover" end="zoomplus.mouseout"/></use>
    <path d="M-4,0h8M0,-4v8" fill="none" stroke="white" stroke-width="1.5" pointer-events="none"/>
  </g>
  <g id="zoomMin">
    <use xlink:href="#rim" fill="#404040"><set attributeName="fill" to="#808080" begin="zoomminus.mouseover" end="zoomminus.mouseout"/></use>
    <path d="M-4,0h8" fill="none" stroke="white" stroke-width="1.5" pointer-events="none"/>
  </g>
  <g id="arrowUp" transform="translate(30 24)">
    <use xlink:href="#rim"/>
    <path pointer-events="none" fill="none" stroke="white" stroke-width="1.5" d="M0,-3.0v7 M-2.5,-0.5L0,-3.0L2.5,-0.5"/>
  </g>
  <g id="arrowRight" transform="rotate(90) translate(36 -43)">
    <use xlink:href="#rim"/>
    <path pointer-events="none" fill="none" stroke="white" stroke-width="1.5" d="M0,-3.0v7 M-2.5,-0.5L0,-3.0L2.5,-0.5"/>
  </g>
  <g id="arrowDown" transform="rotate(180) translate(-30 -48)">
    <use xlink:href="#rim"/>
    <path pointer-events="none" fill="none" stroke="white" stroke-width="1.5" d="M0,-3.0v7 M-2.5,-0.5L0,-3.0L2.5,-0.5"/>
  </g>
  <g id="arrowLeft" transform="rotate(270) translate(-36 17)">
    <use xlink:href="#rim"/>
    <path pointer-events="none" fill="none" stroke="white" stroke-width="1.5" d="M0,-3.0v7 M-2.5,-0.5L0,-3.0L2.5,-0.5"/>
  </g>
  <g id="resetDef">
    <use xlink:href="#rim2" fill="#404040"><set attributeName="fill" to="#808080" begin="reset.mouseover" end="reset.mouseout"/></use>
  </g>
</defs>
<script type="application/ecmascript">
var viewWidth = 1795;
var viewHeight = 500;
var sectionId = 'dynsection-49';
</script>
<script type="application/ecmascript" xlink:href="svg.min.js"/>
<svg id="graph" class="graph">
<g id="viewport">
<title>BitVector::maximumElementNumber</title>
<!-- Node1 -->
<g id="Node000001" class="node">
<title>Node1</title>
<g id="a_Node000001"><a xlink:title="How many element can be contained in this kind of object.">
<polygon fill="#999999" stroke="#666666" points="1787,-236 1629,-236 1629,-206 1787,-206 1787,-236"/>
<text text-anchor="start" x="1637" y="-224" font-family="Helvetica,sans-Serif" font-size="10.00">BitVector::maximumElement</text>
<text text-anchor="middle" x="1708" y="-213" font-family="Helvetica,sans-Serif" font-size="10.00">Number</text>
</a>
</g>
</g>
<!-- Node2 -->
<g id="Node000002" class="node">
<title>Node2</title>
<g id="a_Node000002"><a xlink:href="class_bit_vector.html#ad36e7d0b4b1417ca434414fa40c72eb8" target="_top" xlink:title="How many element can be contained in this object knowing BitVector::_element_size.">
<polygon fill="white" stroke="#666666" points="1593,-230.5 1439,-230.5 1439,-211.5 1593,-211.5 1593,-230.5"/>
<text text-anchor="middle" x="1516" y="-218.5" font-family="Helvetica,sans-Serif" font-size="10.00">BitVector::maxElementLimit</text>
</a>
</g>
</g>
<!-- Node1&#45;&gt;Node2 -->
<g id="edge1_Node000001_Node000002" class="edge">
<title>Node1&#45;&gt;Node2</title>
<g id="a_edge1_Node000001_Node000002"><a xlink:title=" ">
<path fill="none" stroke="#63b8ff" d="M1618.62,-221C1610.15,-221 1601.61,-221 1593.27,-221"/>
<polygon fill="#63b8ff" stroke="#63b8ff" points="1618.9,-224.5 1628.9,-221 1618.9,-217.5 1618.9,-224.5"/>
</a>
</g>
</g>
<!-- Node3 -->
<g id="Node000003" class="node">
<title>Node3</title>
<g id="a_Node000003"><a xlink:href="class_bit_vector.html#a04e6d0b67ee9b42ccec437b0176067fe" target="_top" xlink:title="Give A size_t that represent the coords of the first bit of an element.">
<polygon fill="white" stroke="#666666" points="1403,-255.5 1220,-255.5 1220,-236.5 1403,-236.5 1403,-255.5"/>
<text text-anchor="middle" x="1311.5" y="-243.5" font-family="Helvetica,sans-Serif" font-size="10.00">BitVector::indexElementUntreated</text>
</a>
</g>
</g>
<!-- Node2&#45;&gt;Node3 -->
<g id="edge2_Node000002_Node000003" class="edge">
<title>Node2&#45;&gt;Node3</title>
<g id="a_edge2_Node000002_Node000003"><a xlink:title=" ">
<path fill="none" stroke="#63b8ff" d="M1428.48,-231.68C1415.6,-233.27 1402.39,-234.9 1389.71,-236.47"/>
<polygon fill="#63b8ff" stroke="#63b8ff" points="1429.24,-235.11 1438.73,-230.42 1428.38,-228.17 1429.24,-235.11"/>
</a>
</g>
</g>
<!-- Node13 -->
<g id="Node000013" class="node">
<title>Node13</title>
<g id="a_Node000013"><a xlink:href="class_bit_vector.html#a686af396e4dff1536b7588213726c4cc" target="_top" xlink:title="Insert a number of blank position inside BitVector::_data.">
<polygon fill="white" stroke="#666666" points="628,-395.5 450,-395.5 450,-376.5 628,-376.5 628,-395.5"/>
<text text-anchor="middle" x="539" y="-383.5" font-family="Helvetica,sans-Serif" font-size="10.00">BitVector::makeRoomForElement</text>
</a>
</g>
</g>
<!-- Node2&#45;&gt;Node13 -->
<g id="edge32_Node000002_Node000013" class="edge">
<title>Node2&#45;&gt;Node13</title>
<g id="a_edge32_Node000002_Node000013"><a xlink:title=" ">
<path fill="none" stroke="#63b8ff" d="M1500.04,-238.32C1450.58,-293.57 1285.45,-462 1110.5,-462 1110.5,-462 1110.5,-462 928,-462 809.96,-462 778.77,-460.58 664,-433 626.39,-423.96 584.74,-406.55 560.55,-395.64"/>
<polygon fill="#63b8ff" stroke="#63b8ff" points="1502.74,-240.56 1506.73,-230.75 1497.49,-235.93 1502.74,-240.56"/>
</a>
</g>
</g>
<!-- Node27 -->
<g id="Node000027" class="node">
<title>Node27</title>
<g id="a_Node000027"><a xlink:href="class_bit_vector.html#a346dbe2e158d2cfda20212e7f93e8402" target="_top" xlink:title="Do maximum BitVector::_element_number is reached (With no possibility to push it further)">
<polygon fill="white" stroke="#666666" points="1184,-208 1035,-208 1035,-178 1184,-178 1184,-208"/>
<text text-anchor="start" x="1043" y="-196" font-family="Helvetica,sans-Serif" font-size="10.00">BitVector::maxElementSize</text>
<text text-anchor="middle" x="1109.5" y="-185" font-family="Helvetica,sans-Serif" font-size="10.00">IsReached</text>
</a>
</g>
</g>
<!-- Node2&#45;&gt;Node27 -->
<g id="edge33_Node000002_Node000027" class="edge">
<title>Node2&#45;&gt;Node27</title>
<g id="a_edge33_Node000002_Node000027"><a xlink:title=" ">
<path fill="none" stroke="#63b8ff" d="M1428.86,-215.04C1356.15,-210 1253.15,-202.87 1184.2,-198.1"/>
<polygon fill="#63b8ff" stroke="#63b8ff" points="1428.7,-218.53 1438.92,-215.73 1429.18,-211.55 1428.7,-218.53"/>
</a>
</g>
</g>
<!-- Node29 -->
<g id="Node000029" class="node">
<title>Node29</title>
<g id="a_Node000029"><a xlink:href="class_bit_vector.html#a214e556dd89acce2427a378c5520adbd" target="_top" xlink:title="Last acceptable coordinate knowing BitVector::_element_size.">
<polygon fill="white" stroke="#666666" points="1393,-136.5 1230,-136.5 1230,-117.5 1393,-117.5 1393,-136.5"/>
<text text-anchor="middle" x="1311.5" y="-124.5" font-family="Helvetica,sans-Serif" font-size="10.00">BitVector::MaximalCoordLimit</text>
</a>
</g>
</g>
<!-- Node2&#45;&gt;Node29 -->
<g id="edge35_Node000002_Node000029" class="edge">
<title>Node2&#45;&gt;Node29</title>
<g id="a_edge35_Node000002_Node000029"><a xlink:title=" ">
<path fill="none" stroke="#63b8ff" d="M1485.38,-207.25C1443.79,-187.95 1369.13,-153.29 1333.09,-136.56"/>
<polygon fill="#63b8ff" stroke="#63b8ff" points="1483.92,-210.43 1494.47,-211.47 1486.87,-204.08 1483.92,-210.43"/>
</a>
</g>
</g>
<!-- Node4 -->
<g id="Node000004" class="node">
<title>Node4</title>
<g id="a_Node000004"><a xlink:href="class_bit_vector.html#a93ab8bc2ec39bf299ae28ffcad504b41" target="_top" xlink:title="Give the coords of the first bit of an element.">
<polygon fill="white" stroke="#666666" points="1176.5,-270.5 1042.5,-270.5 1042.5,-251.5 1176.5,-251.5 1176.5,-270.5"/>
<text text-anchor="middle" x="1109.5" y="-258.5" font-family="Helvetica,sans-Serif" font-size="10.00">BitVector::indexElement</text>
</a>
</g>
</g>
<!-- Node3&#45;&gt;Node4 -->
<g id="edge3_Node000003_Node000004" class="edge">
<title>Node3&#45;&gt;Node4</title>
<g id="a_edge3_Node000003_Node000004"><a xlink:title=" ">
<path fill="none" stroke="#63b8ff" d="M1209.59,-253.57C1198.39,-254.41 1187.2,-255.25 1176.59,-256.04"/>
<polygon fill="#63b8ff" stroke="#63b8ff" points="1210.15,-257.04 1219.86,-252.8 1209.63,-250.06 1210.15,-257.04"/>
</a>
</g>
</g>
<!-- Node5 -->
<g id="Node000005" class="node">
<title>Node5</title>
<g id="a_Node000005"><a xlink:href="class_bit_vector.html#a2d0fe43b80b63edbd64dc887fd87d915" target="_top" xlink:title="Return the element at the position index.">
<polygon fill="white" stroke="#666666" points="970.5,-320.5 887.5,-320.5 887.5,-301.5 970.5,-301.5 970.5,-320.5"/>
<text text-anchor="middle" x="929" y="-308.5" font-family="Helvetica,sans-Serif" font-size="10.00">BitVector::get</text>
</a>
</g>
</g>
<!-- Node4&#45;&gt;Node5 -->
<g id="edge4_Node000004_Node000005" class="edge">
<title>Node4&#45;&gt;Node5</title>
<g id="a_edge4_Node000004_Node000005"><a xlink:title=" ">
<path fill="none" stroke="#63b8ff" d="M1066.85,-273.48C1046.44,-279.52 1021.47,-286.79 999,-293 988.74,-295.84 977.58,-298.8 967.3,-301.48"/>
<polygon fill="#63b8ff" stroke="#63b8ff" points="1067.88,-276.83 1076.47,-270.63 1065.89,-270.12 1067.88,-276.83"/>
</a>
</g>
</g>
<!-- Node6 -->
<g id="Node000006" class="node">
<title>Node6</title>
<g id="a_Node000006"><a xlink:href="class_bit_vector.html#a13856f33d2350c573cf2fbe587f03757" target="_top" xlink:title="Modify the length of BitVector::_data.">
<polygon fill="white" stroke="#666666" points="977,-116.5 881,-116.5 881,-97.5 977,-97.5 977,-116.5"/>
<text text-anchor="middle" x="929" y="-104.5" font-family="Helvetica,sans-Serif" font-size="10.00">BitVector::resize</text>
</a>
</g>
</g>
<!-- Node4&#45;&gt;Node6 -->
<g id="edge5_Node000004_Node000006" class="edge">
<title>Node4&#45;&gt;Node6</title>
<g id="a_edge5_Node000004_Node000006"><a xlink:title=" ">
<path fill="none" stroke="#63b8ff" d="M1080.61,-246.65C1066.36,-238.75 1049.11,-228.27 1035,-217 994.36,-184.54 954.09,-136.9 937.69,-116.66"/>
<polygon fill="#63b8ff" stroke="#63b8ff" points="1079.02,-249.76 1089.48,-251.45 1082.35,-243.61 1079.02,-249.76"/>
</a>
</g>
</g>
<!-- Node10 -->
<g id="Node000010" class="node">
<title>Node10</title>
<g id="a_Node000010"><a xlink:href="class_bit_vector.html#aca24053f655c825de0f06ec86fff1cec" target="_top" xlink:title="Replace an element by another element. Can add an element to the list if index = BitVector::_element_...">
<polygon fill="white" stroke="#666666" points="970,-283.5 888,-283.5 888,-264.5 970,-264.5 970,-283.5"/>
<text text-anchor="middle" x="929" y="-271.5" font-family="Helvetica,sans-Serif" font-size="10.00">BitVector::set</text>
</a>
</g>
</g>
<!-- Node4&#45;&gt;Node10 -->
<g id="edge9_Node000004_Node000010" class="edge">
<title>Node4&#45;&gt;Node10</title>
<g id="a_edge9_Node000004_Node000010"><a xlink:title=" ">
<path fill="none" stroke="#63b8ff" d="M1032.24,-266.55C1010.9,-268.11 988.54,-269.74 970.19,-271.07"/>
<polygon fill="#63b8ff" stroke="#63b8ff" points="1032.57,-270.04 1042.29,-265.82 1032.06,-263.06 1032.57,-270.04"/>
</a>
</g>
</g>
<!-- Node7 -->
<g id="Node000007" class="node">
<title>Node7</title>
<g id="a_Node000007"><a xlink:href="class_bit_vector.html#a23c1685317944b2a5c6f149a5fccc6bd" target="_top" xlink:title="Construct a new Bit Vector object.">
<polygon fill="white" stroke="#666666" points="799,-57.5 688,-57.5 688,-38.5 799,-38.5 799,-57.5"/>
<text text-anchor="middle" x="743.5" y="-45.5" font-family="Helvetica,sans-Serif" font-size="10.00">BitVector::BitVector</text>
</a>
</g>
</g>
<!-- Node6&#45;&gt;Node7 -->
<g id="edge6_Node000006_Node000007" class="edge">
<title>Node6&#45;&gt;Node7</title>
<g id="a_edge6_Node000006_Node000007"><a xlink:title=" ">
<path fill="none" stroke="#63b8ff" d="M895.14,-93.56C869.81,-83.32 836.85,-70.27 823,-66 812.84,-62.87 801.8,-60.01 791.29,-57.54"/>
<polygon fill="#63b8ff" stroke="#63b8ff" points="893.83,-96.81 904.41,-97.32 896.46,-90.32 893.83,-96.81"/>
</a>
</g>
</g>
<!-- Node8 -->
<g id="Node000008" class="node">
<title>Node8</title>
<g id="a_Node000008"><a xlink:href="class_bit_vector.html#a673b530bb6e520f7f7fa90070e0034db" target="_top" xlink:title="Free memory used by BitVector::_data.">
<polygon fill="white" stroke="#666666" points="789,-131.5 698,-131.5 698,-112.5 789,-112.5 789,-131.5"/>
<text text-anchor="middle" x="743.5" y="-119.5" font-family="Helvetica,sans-Serif" font-size="10.00">BitVector::clear</text>
</a>
</g>
</g>
<!-- Node6&#45;&gt;Node8 -->
<g id="edge7_Node000006_Node000008" class="edge">
<title>Node6&#45;&gt;Node8</title>
<g id="a_edge7_Node000006_Node000008"><a xlink:title=" ">
<path fill="none" stroke="#63b8ff" d="M870.53,-111.7C844.25,-113.85 813.57,-116.35 789.07,-118.36"/>
<polygon fill="#63b8ff" stroke="#63b8ff" points="871.06,-115.17 880.74,-110.86 870.49,-108.19 871.06,-115.17"/>
</a>
</g>
</g>
<!-- Node9 -->
<g id="Node000009" class="node">
<title>Node9</title>
<g id="a_Node000009"><a xlink:href="class_bit_vector.html#a80a4aa212535129b881b4fb2623ce222" target="_top" xlink:title="Reduce the size of BitVector::_data to fit BitVector::_element_number.">
<polygon fill="white" stroke="#666666" points="792,-94.5 695,-94.5 695,-75.5 792,-75.5 792,-94.5"/>
<text text-anchor="middle" x="743.5" y="-82.5" font-family="Helvetica,sans-Serif" font-size="10.00">BitVector::shrink</text>
</a>
</g>
</g>
<!-- Node6&#45;&gt;Node9 -->
<g id="edge8_Node000006_Node000009" class="edge">
<title>Node6&#45;&gt;Node9</title>
<g id="a_edge8_Node000006_Node000009"><a xlink:title=" ">
<path fill="none" stroke="#63b8ff" d="M870.59,-100.12C845.41,-97.1 816.2,-93.6 792.23,-90.72"/>
<polygon fill="#63b8ff" stroke="#63b8ff" points="870.4,-103.62 880.74,-101.33 871.23,-96.67 870.4,-103.62"/>
</a>
</g>
</g>
<!-- Node11 -->
<g id="Node000011" class="node">
<title>Node11</title>
<g id="a_Node000011"><a xlink:href="class_bit_vector.html#afbdbe8a5003f5941ffd5ab095cf87d88" target="_top" xlink:title="Add an element at the end of the vector.">
<polygon fill="white" stroke="#666666" points="795,-321.5 692,-321.5 692,-302.5 795,-302.5 795,-321.5"/>
<text text-anchor="middle" x="743.5" y="-309.5" font-family="Helvetica,sans-Serif" font-size="10.00">BitVector::append</text>
</a>
</g>
</g>
<!-- Node10&#45;&gt;Node11 -->
<g id="edge10_Node000010_Node000011" class="edge">
<title>Node10&#45;&gt;Node11</title>
<g id="a_edge10_Node000010_Node000011"><a xlink:title=" ">
<path fill="none" stroke="#63b8ff" d="M877.62,-284.43C850.39,-290.07 817.02,-296.98 790.49,-302.48"/>
<polygon fill="#63b8ff" stroke="#63b8ff" points="878.65,-287.79 887.73,-282.34 877.23,-280.94 878.65,-287.79"/>
</a>
</g>
</g>
<!-- Node12 -->
<g id="Node000012" class="node">
<title>Node12</title>
<g id="a_Node000012"><a xlink:href="class_bit_vector.html#a5547d55a697d61de026d0a94e743624b" target="_top" xlink:title="Construct a new Bit Vector object.">
<polygon fill="white" stroke="#666666" points="594.5,-321.5 483.5,-321.5 483.5,-302.5 594.5,-302.5 594.5,-321.5"/>
<text text-anchor="middle" x="539" y="-309.5" font-family="Helvetica,sans-Serif" font-size="10.00">BitVector::BitVector</text>
</a>
</g>
</g>
<!-- Node10&#45;&gt;Node12 -->
<g id="edge23_Node000010_Node000012" class="edge">
<title>Node10&#45;&gt;Node12</title>
<g id="a_edge23_Node000010_Node000012"><a xlink:title=" ">
<path fill="none" stroke="#63b8ff" d="M877.48,-276.8C824.27,-279.98 738.1,-285.82 664,-294 641.19,-296.52 616.12,-300.02 594.53,-303.26"/>
<polygon fill="#63b8ff" stroke="#63b8ff" points="877.89,-280.28 887.67,-276.19 877.48,-273.29 877.89,-280.28"/>
</a>
</g>
</g>
<!-- Node10&#45;&gt;Node13 -->
<g id="edge27_Node000010_Node000013" class="edge">
<title>Node10&#45;&gt;Node13</title>
<g id="a_edge27_Node000010_Node000013"><a xlink:title=" ">
<path fill="none" stroke="#63b8ff" d="M877.99,-281.31C870.99,-284.08 864.36,-287.86 859,-293 821.25,-329.18 865.25,-374.2 823,-405 742.02,-464.03 610.96,-417.21 560.61,-395.52"/>
<polygon fill="#63b8ff" stroke="#63b8ff" points="879.28,-284.57 887.69,-278.13 877.1,-277.92 879.28,-284.57"/>
</a>
</g>
</g>
<!-- Node14 -->
<g id="Node000014" class="node">
<title>Node14</title>
<g id="a_Node000014"><a xlink:href="class_sequence.html#aa48778c592160ac60319f780817f491c" target="_top" xlink:title="Insert a number of chars at the position position .">
<polygon fill="white" stroke="#666666" points="414,-207.5 316,-207.5 316,-188.5 414,-188.5 414,-207.5"/>
<text text-anchor="middle" x="365" y="-195.5" font-family="Helvetica,sans-Serif" font-size="10.00">Sequence::insert</text>
</a>
</g>
</g>
<!-- Node10&#45;&gt;Node14 -->
<g id="edge24_Node000010_Node000014" class="edge">
<title>Node10&#45;&gt;Node14</title>
<g id="a_edge24_Node000010_Node000014"><a xlink:title=" ">
<path fill="none" stroke="#63b8ff" d="M915.11,-256.05C897.39,-233.09 863.1,-194.45 823,-179 672.58,-121.05 473.35,-166.95 397.31,-188.44"/>
<polygon fill="#63b8ff" stroke="#63b8ff" points="912.47,-258.37 921.27,-264.27 918.08,-254.17 912.47,-258.37"/>
</a>
</g>
</g>
<!-- Node21 -->
<g id="Node000021" class="node">
<title>Node21</title>
<g id="a_Node000021"><a xlink:href="class_bit_vector.html#a9f86c96c013632abd9d18feafe78d72e" target="_top" xlink:title="Insert a number_of_elements inside the vector at the index pos .">
<polygon fill="white" stroke="#666666" points="412.5,-452.5 317.5,-452.5 317.5,-433.5 412.5,-433.5 412.5,-452.5"/>
<text text-anchor="middle" x="365" y="-440.5" font-family="Helvetica,sans-Serif" font-size="10.00">BitVector::insert</text>
</a>
</g>
</g>
<!-- Node10&#45;&gt;Node21 -->
<g id="edge25_Node000010_Node000021" class="edge">
<title>Node10&#45;&gt;Node21</title>
<g id="a_edge25_Node000010_Node000021"><a xlink:title=" ">
<path fill="none" stroke="#63b8ff" d="M877.96,-280.94C870.9,-283.75 864.27,-287.64 859,-293 813.96,-338.81 873.34,-393.08 823,-433 693.05,-536.06 470.68,-477.51 393.41,-452.53"/>
<polygon fill="#63b8ff" stroke="#63b8ff" points="879.34,-284.17 887.76,-277.73 877.17,-277.52 879.34,-284.17"/>
</a>
</g>
</g>
<!-- Node22 -->
<g id="Node000022" class="node">
<title>Node22</title>
<g id="a_Node000022"><a xlink:href="class_bit_vector.html#a915743b3f94c75c22317d160bfa741ff" target="_top" xlink:title="Insert a number_of_elements inside the vector at the index pos .">
<polygon fill="white" stroke="#666666" points="412.5,-339.5 317.5,-339.5 317.5,-320.5 412.5,-320.5 412.5,-339.5"/>
<text text-anchor="middle" x="365" y="-327.5" font-family="Helvetica,sans-Serif" font-size="10.00">BitVector::insert</text>
</a>
</g>
</g>
<!-- Node10&#45;&gt;Node22 -->
<g id="edge26_Node000010_Node000022" class="edge">
<title>Node10&#45;&gt;Node22</title>
<g id="a_edge26_Node000010_Node000022"><a xlink:title=" ">
<path fill="none" stroke="#63b8ff" d="M877.9,-269.56C789.82,-263.2 602.13,-256.06 450,-294 426.14,-299.95 400.38,-311.89 383.77,-320.39"/>
<polygon fill="#63b8ff" stroke="#63b8ff" points="877.65,-273.06 887.88,-270.31 878.18,-266.08 877.65,-273.06"/>
</a>
</g>
</g>
<!-- Node23 -->
<g id="Node000023" class="node">
<title>Node23</title>
<g id="a_Node000023"><a xlink:href="class_bit_vector.html#a2af5c1a1a0050e2b52d06c38436280fd" target="_top" xlink:title="Add an element at the end of the vector.">
<polygon fill="white" stroke="#666666" points="795,-395.5 692,-395.5 692,-376.5 795,-376.5 795,-395.5"/>
<text text-anchor="middle" x="743.5" y="-383.5" font-family="Helvetica,sans-Serif" font-size="10.00">BitVector::append</text>
</a>
</g>
</g>
<!-- Node10&#45;&gt;Node23 -->
<g id="edge22_Node000010_Node000023" class="edge">
<title>Node10&#45;&gt;Node23</title>
<g id="a_edge22_Node000010_Node000023"><a xlink:title=" ">
<path fill="none" stroke="#63b8ff" d="M878.34,-282.07C871.35,-284.74 864.64,-288.29 859,-293 830.63,-316.71 851.88,-344.91 823,-368 815.03,-374.37 805.22,-378.58 795.27,-381.33"/>
<polygon fill="#63b8ff" stroke="#63b8ff" points="879.55,-285.36 887.98,-278.94 877.39,-278.7 879.55,-285.36"/>
</a>
</g>
</g>
<!-- Node24 -->
<g id="Node000024" class="node">
<title>Node24</title>
<g id="a_Node000024"><a xlink:href="class_bit_vector.html#a87f84edf5dd56606b26e8741ba6ced02" target="_top" xlink:title="Remove a number of element from the vector.">
<polygon fill="white" stroke="#666666" points="795.5,-207.5 691.5,-207.5 691.5,-188.5 795.5,-188.5 795.5,-207.5"/>
<text text-anchor="middle" x="743.5" y="-195.5" font-family="Helvetica,sans-Serif" font-size="10.00">BitVector::remove</text>
</a>
</g>
</g>
<!-- Node10&#45;&gt;Node24 -->
<g id="edge28_Node000010_Node000024" class="edge">
<title>Node10&#45;&gt;Node24</title>
<g id="a_edge28_Node000010_Node000024"><a xlink:title=" ">
<path fill="none" stroke="#63b8ff" d="M902.03,-259.65C881.1,-248.46 850.7,-233.01 823,-222 809.23,-216.53 793.69,-211.54 780.09,-207.55"/>
<polygon fill="#63b8ff" stroke="#63b8ff" points="900.47,-262.79 910.93,-264.46 903.8,-256.63 900.47,-262.79"/>
</a>
</g>
</g>
<!-- Node26 -->
<g id="Node000026" class="node">
<title>Node26</title>
<g id="a_Node000026"><a xlink:href="class_bit_vector.html#a38e8be69974c874857dd7cb6a52429ac" target="_top" xlink:title="Replace an element by another element. Can add an element to the list if index = BitVector::_element_...">
<polygon fill="white" stroke="#666666" points="784.5,-358.5 702.5,-358.5 702.5,-339.5 784.5,-339.5 784.5,-358.5"/>
<text text-anchor="middle" x="743.5" y="-346.5" font-family="Helvetica,sans-Serif" font-size="10.00">BitVector::set</text>
</a>
</g>
</g>
<!-- Node10&#45;&gt;Node26 -->
<g id="edge31_Node000010_Node000026" class="edge">
<title>Node10&#45;&gt;Node26</title>
<g id="a_edge31_Node000010_Node000026"><a xlink:title=" ">
<path fill="none" stroke="#63b8ff" d="M878.06,-284.23C871.41,-286.59 864.87,-289.48 859,-293 839.05,-304.97 843.2,-319.46 823,-331 811.34,-337.66 797.39,-341.85 784.5,-344.5"/>
<polygon fill="#63b8ff" stroke="#63b8ff" points="879.34,-287.5 887.81,-281.13 877.22,-280.82 879.34,-287.5"/>
</a>
</g>
</g>
<!-- Node11&#45;&gt;Node12 -->
<g id="edge11_Node000011_Node000012" class="edge">
<title>Node11&#45;&gt;Node12</title>
<g id="a_edge11_Node000011_Node000012"><a xlink:title=" ">
<path fill="none" stroke="#63b8ff" d="M681.57,-312C653.89,-312 621.41,-312 594.54,-312"/>
<polygon fill="#63b8ff" stroke="#63b8ff" points="681.92,-315.5 691.92,-312 681.92,-308.5 681.92,-315.5"/>
</a>
</g>
</g>
<!-- Node11&#45;&gt;Node13 -->
<g id="edge12_Node000011_Node000013" class="edge">
<title>Node11&#45;&gt;Node13</title>
<g id="a_edge12_Node000011_Node000013"><a xlink:title=" ">
<path fill="none" stroke="#63b8ff" d="M687.05,-324.1C679.25,-326.18 671.37,-328.49 664,-331 625.65,-344.03 582.85,-364.38 558.9,-376.33"/>
<polygon fill="#63b8ff" stroke="#63b8ff" points="688.04,-327.46 696.85,-321.58 686.3,-320.68 688.04,-327.46"/>
</a>
</g>
</g>
<!-- Node13&#45;&gt;Node14 -->
<g id="edge13_Node000013_Node000014" class="edge">
<title>Node13&#45;&gt;Node14</title>
<g id="a_edge13_Node000013_Node000014"><a xlink:title=" ">
<path fill="none" stroke="#63b8ff" d="M508.27,-371.78C490.02,-362.06 466.96,-347.88 450,-331 410.71,-291.89 380.91,-231.18 370.26,-207.71"/>
<polygon fill="#63b8ff" stroke="#63b8ff" points="506.83,-374.98 517.33,-376.46 510.05,-368.76 506.83,-374.98"/>
</a>
</g>
</g>
<!-- Node13&#45;&gt;Node21 -->
<g id="edge20_Node000013_Node000021" class="edge">
<title>Node13&#45;&gt;Node21</title>
<g id="a_edge20_Node000013_Node000021"><a xlink:title=" ">
<path fill="none" stroke="#63b8ff" d="M499.4,-398.79C467.72,-409.29 423.57,-423.92 394.88,-433.43"/>
<polygon fill="#63b8ff" stroke="#63b8ff" points="500.82,-402.01 509.21,-395.54 498.62,-395.36 500.82,-402.01"/>
</a>
</g>
</g>
<!-- Node13&#45;&gt;Node22 -->
<g id="edge21_Node000013_Node000022" class="edge">
<title>Node13&#45;&gt;Node22</title>
<g id="a_edge21_Node000013_Node000022"><a xlink:title=" ">
<path fill="none" stroke="#63b8ff" d="M498.66,-373.19C467.14,-362.93 423.65,-348.77 395.18,-339.5"/>
<polygon fill="#63b8ff" stroke="#63b8ff" points="497.84,-376.61 508.43,-376.37 500.01,-369.95 497.84,-376.61"/>
</a>
</g>
</g>
<!-- Node15 -->
<g id="Node000015" class="node">
<title>Node15</title>
<g id="a_Node000015"><a xlink:href="class_sequence.html#a3cf6cf5e54782f4d1a2ee07ec519523c" target="_top" xlink:title="Insert a char at the position position .">
<polygon fill="white" stroke="#666666" points="268,-244.5 170,-244.5 170,-225.5 268,-225.5 268,-244.5"/>
<text text-anchor="middle" x="219" y="-232.5" font-family="Helvetica,sans-Serif" font-size="10.00">Sequence::insert</text>
</a>
</g>
</g>
<!-- Node14&#45;&gt;Node15 -->
<g id="edge14_Node000014_Node000015" class="edge">
<title>Node14&#45;&gt;Node15</title>
<g id="a_edge14_Node000014_Node000015"><a xlink:title=" ">
<path fill="none" stroke="#63b8ff" d="M317.09,-210.05C297.77,-215.02 275.68,-220.69 257.46,-225.38"/>
<polygon fill="#63b8ff" stroke="#63b8ff" points="318.1,-213.41 326.92,-207.53 316.36,-206.63 318.1,-213.41"/>
</a>
</g>
</g>
<!-- Node16 -->
<g id="Node000016" class="node">
<title>Node16</title>
<g id="a_Node000016"><a xlink:href="class_sequence.html#aa57fd5a7fdd173374e56006ce1c47bdc" target="_top" xlink:title="Insert a number of chars at the the back of the sequence position .">
<polygon fill="white" stroke="#666666" points="280,-207.5 158,-207.5 158,-188.5 280,-188.5 280,-207.5"/>
<text text-anchor="middle" x="219" y="-195.5" font-family="Helvetica,sans-Serif" font-size="10.00">Sequence::insertBack</text>
</a>
</g>
</g>
<!-- Node14&#45;&gt;Node16 -->
<g id="edge15_Node000014_Node000016" class="edge">
<title>Node14&#45;&gt;Node16</title>
<g id="a_edge15_Node000014_Node000016"><a xlink:title=" ">
<path fill="none" stroke="#63b8ff" d="M305.61,-198C297.25,-198 288.64,-198 280.25,-198"/>
<polygon fill="#63b8ff" stroke="#63b8ff" points="305.65,-201.5 315.65,-198 305.65,-194.5 305.65,-201.5"/>
</a>
</g>
</g>
<!-- Node17 -->
<g id="Node000017" class="node">
<title>Node17</title>
<g id="a_Node000017"><a xlink:href="class_sequence.html#a092f380b654de9aaa8a770ec0948c454" target="_top" xlink:title="Insert a number of chars at the the front of the sequence position .">
<polygon fill="white" stroke="#666666" points="280,-170.5 158,-170.5 158,-151.5 280,-151.5 280,-170.5"/>
<text text-anchor="middle" x="219" y="-158.5" font-family="Helvetica,sans-Serif" font-size="10.00">Sequence::insertFront</text>
</a>
</g>
</g>
<!-- Node14&#45;&gt;Node17 -->
<g id="edge16_Node000014_Node000017" class="edge">
<title>Node14&#45;&gt;Node17</title>
<g id="a_edge16_Node000014_Node000017"><a xlink:title=" ">
<path fill="none" stroke="#63b8ff" d="M317.09,-185.95C297.77,-180.98 275.68,-175.31 257.46,-170.62"/>
<polygon fill="#63b8ff" stroke="#63b8ff" points="316.36,-189.37 326.92,-188.47 318.1,-182.59 316.36,-189.37"/>
</a>
</g>
</g>
<!-- Node18 -->
<g id="Node000018" class="node">
<title>Node18</title>
<g id="a_Node000018"><a xlink:href="class_sequence.html#a16e70626e330194c1507ed339c9c629c" target="_top" xlink:title="Insert a char at the the back of the sequence position .">
<polygon fill="white" stroke="#666666" points="122,-207.5 0,-207.5 0,-188.5 122,-188.5 122,-207.5"/>
<text text-anchor="middle" x="61" y="-195.5" font-family="Helvetica,sans-Serif" font-size="10.00">Sequence::insertBack</text>
</a>
</g>
</g>
<!-- Node17&#45;&gt;Node18 -->
<g id="edge17_Node000017_Node000018" class="edge">
<title>Node17&#45;&gt;Node18</title>
<g id="a_edge17_Node000017_Node000018"><a xlink:title=" ">
<path fill="none" stroke="#63b8ff" d="M168.01,-172.86C146.78,-177.89 122.36,-183.68 102.31,-188.44"/>
<polygon fill="#63b8ff" stroke="#63b8ff" points="168.9,-176.24 177.83,-170.53 167.29,-169.43 168.9,-176.24"/>
</a>
</g>
</g>
<!-- Node19 -->
<g id="Node000019" class="node">
<title>Node19</title>
<g id="a_Node000019"><a xlink:href="class_sequence.html#a1fa6868ce587e1f3d779bb226cfda548" target="_top" xlink:title="Insert a char at the the front of the sequence position .">
<polygon fill="white" stroke="#666666" points="122,-170.5 0,-170.5 0,-151.5 122,-151.5 122,-170.5"/>
<text text-anchor="middle" x="61" y="-158.5" font-family="Helvetica,sans-Serif" font-size="10.00">Sequence::insertFront</text>
</a>
</g>
</g>
<!-- Node17&#45;&gt;Node19 -->
<g id="edge18_Node000017_Node000019" class="edge">
<title>Node17&#45;&gt;Node19</title>
<g id="a_edge18_Node000017_Node000019"><a xlink:title=" ">
<path fill="none" stroke="#63b8ff" d="M147.46,-161C139.01,-161 130.44,-161 122.15,-161"/>
<polygon fill="#63b8ff" stroke="#63b8ff" points="147.69,-164.5 157.69,-161 147.69,-157.5 147.69,-164.5"/>
</a>
</g>
</g>
<!-- Node20 -->
<g id="Node000020" class="node">
<title>Node20</title>
<g id="a_Node000020"><a xlink:href="class_sequence.html#ae293cd5124445b604bbcba3a5f01a48a" target="_top" xlink:title="Main Constructor. Construct a new Sequence object.">
<polygon fill="white" stroke="#666666" points="119.5,-133.5 2.5,-133.5 2.5,-114.5 119.5,-114.5 119.5,-133.5"/>
<text text-anchor="middle" x="61" y="-121.5" font-family="Helvetica,sans-Serif" font-size="10.00">Sequence::Sequence</text>
</a>
</g>
</g>
<!-- Node17&#45;&gt;Node20 -->
<g id="edge19_Node000017_Node000020" class="edge">
<title>Node17&#45;&gt;Node20</title>
<g id="a_edge19_Node000017_Node000020"><a xlink:title=" ">
<path fill="none" stroke="#63b8ff" d="M168.01,-149.14C146.78,-144.11 122.36,-138.32 102.31,-133.56"/>
<polygon fill="#63b8ff" stroke="#63b8ff" points="167.29,-152.57 177.83,-151.47 168.9,-145.76 167.29,-152.57"/>
</a>
</g>
</g>
<!-- Node24&#45;&gt;Node14 -->
<g id="edge30_Node000024_Node000014" class="edge">
<title>Node24&#45;&gt;Node14</title>
<g id="a_edge30_Node000024_Node000014"><a xlink:title=" ">
<path fill="none" stroke="#63b8ff" d="M681.14,-198C606.52,-198 482.12,-198 414.08,-198"/>
<polygon fill="#63b8ff" stroke="#63b8ff" points="681.33,-201.5 691.33,-198 681.33,-194.5 681.33,-201.5"/>
</a>
</g>
</g>
<!-- Node25 -->
<g id="Node000025" class="node">
<title>Node25</title>
<g id="a_Node000025"><a xlink:href="class_sequence.html#a20eb6bdd6f5cba62a251eff4387a525d" target="_top" xlink:title="Remove a portion of the sequence.">
<polygon fill="white" stroke="#666666" points="587.5,-245.5 490.5,-245.5 490.5,-226.5 587.5,-226.5 587.5,-245.5"/>
<text text-anchor="middle" x="539" y="-233.5" font-family="Helvetica,sans-Serif" font-size="10.00">Sequence::erase</text>
</a>
</g>
</g>
<!-- Node24&#45;&gt;Node25 -->
<g id="edge29_Node000024_Node000025" class="edge">
<title>Node24&#45;&gt;Node25</title>
<g id="a_edge29_Node000024_Node000025"><a xlink:title=" ">
<path fill="none" stroke="#63b8ff" d="M681.7,-209.41C651.6,-215.06 615.81,-221.77 587.73,-227.04"/>
<polygon fill="#63b8ff" stroke="#63b8ff" points="682.48,-212.82 691.66,-207.54 681.19,-205.94 682.48,-212.82"/>
</a>
</g>
</g>
<!-- Node28 -->
<g id="Node000028" class="node">
<title>Node28</title>
<g id="a_Node000028"><a xlink:href="class_bit_vector.html#a87e099aba27ebb0f67c07dd8314828e7" target="_top" xlink:title="Do maximum capacity is reached (With no possibility to push it further)">
<polygon fill="white" stroke="#666666" points="823,-20.5 664,-20.5 664,-1.5 823,-1.5 823,-20.5"/>
<text text-anchor="middle" x="743.5" y="-8.5" font-family="Helvetica,sans-Serif" font-size="10.00">BitVector::maxSizeIsReached</text>
</a>
</g>
</g>
<!-- Node27&#45;&gt;Node28 -->
<g id="edge34_Node000027_Node000028" class="edge">
<title>Node27&#45;&gt;Node28</title>
<g id="a_edge34_Node000027_Node000028"><a xlink:title=" ">
<path fill="none" stroke="#63b8ff" d="M1084.07,-170.99C1069.62,-157.83 1051.07,-140.67 1035,-125 1018.57,-108.98 1018.42,-100.21 999,-88 981.54,-77.02 842.85,-34.59 823,-29 812.23,-25.97 800.53,-23.07 789.53,-20.53"/>
<polygon fill="#63b8ff" stroke="#63b8ff" points="1081.87,-173.72 1091.63,-177.85 1086.58,-168.54 1081.87,-173.72"/>
</a>
</g>
</g>
<!-- Node30 -->
<g id="Node000030" class="node">
<title>Node30</title>
<g id="a_Node000030"><a xlink:href="class_bit_vector.html#acb362f03b29600195996f52c04940439" target="_top" xlink:title="How many octet can be contained in this object knowing BitVector::_element_size.">
<polygon fill="white" stroke="#666666" points="1179.5,-116.5 1039.5,-116.5 1039.5,-97.5 1179.5,-97.5 1179.5,-116.5"/>
<text text-anchor="middle" x="1109.5" y="-104.5" font-family="Helvetica,sans-Serif" font-size="10.00">BitVector::maxOctetLimit</text>
</a>
</g>
</g>
<!-- Node29&#45;&gt;Node30 -->
<g id="edge36_Node000029_Node000030" class="edge">
<title>Node29&#45;&gt;Node30</title>
<g id="a_edge36_Node000029_Node000030"><a xlink:title=" ">
<path fill="none" stroke="#63b8ff" d="M1219.55,-117.9C1206.15,-116.57 1192.54,-115.2 1179.69,-113.92"/>
<polygon fill="#63b8ff" stroke="#63b8ff" points="1219.43,-121.41 1229.73,-118.92 1220.13,-114.45 1219.43,-121.41"/>
</a>
</g>
</g>
<!-- Node30&#45;&gt;Node6 -->
<g id="edge39_Node000030_Node000006" class="edge">
<title>Node30&#45;&gt;Node6</title>
<g id="a_edge39_Node000030_Node000006"><a xlink:title=" ">
<path fill="none" stroke="#63b8ff" d="M1029.1,-107C1011.31,-107 993,-107 977.03,-107"/>
<polygon fill="#63b8ff" stroke="#63b8ff" points="1029.49,-110.5 1039.49,-107 1029.49,-103.5 1029.49,-110.5"/>
</a>
</g>
</g>
<!-- Node31 -->
<g id="Node000031" class="node">
<title>Node31</title>
<g id="a_Node000031"><a xlink:href="class_bit_vector.html#a00aeec5e60b478d74e1540f34f46e37c" target="_top" xlink:title="Do maximum BitVector::_data_size is reached (With no possibility to push it further)">
<polygon fill="white" stroke="#666666" points="999,-30 859,-30 859,0 999,0 999,-30"/>
<text text-anchor="start" x="867" y="-18" font-family="Helvetica,sans-Serif" font-size="10.00">BitVector::maxDataSizeIs</text>
<text text-anchor="middle" x="929" y="-7" font-family="Helvetica,sans-Serif" font-size="10.00">Reached</text>
</a>
</g>
</g>
<!-- Node30&#45;&gt;Node31 -->
<g id="edge37_Node000030_Node000031" class="edge">
<title>Node30&#45;&gt;Node31</title>
<g id="a_edge37_Node000030_Node000031"><a xlink:title=" ">
<path fill="none" stroke="#63b8ff" d="M1080.65,-92.64C1047.68,-75.65 993.03,-47.48 959.4,-30.15"/>
<polygon fill="#63b8ff" stroke="#63b8ff" points="1079.24,-95.86 1089.73,-97.33 1082.45,-89.64 1079.24,-95.86"/>
</a>
</g>
</g>
<!-- Node31&#45;&gt;Node28 -->
<g id="edge38_Node000031_Node000028" class="edge">
<title>Node31&#45;&gt;Node28</title>
<g id="a_edge38_Node000031_Node000028"><a xlink:title=" ">
<path fill="none" stroke="#63b8ff" d="M848.65,-13.27C840.17,-13.09 831.56,-12.9 823.09,-12.71"/>
<polygon fill="#63b8ff" stroke="#63b8ff" points="848.81,-16.77 858.89,-13.49 848.97,-9.78 848.81,-16.77"/>
</a>
</g>
</g>
</g>
</svg>

<g id="navigator" transform="translate(0 0)" fill="#404254">
  <rect fill="#f2f5e9" fill-opacity="0.5" stroke="#606060" stroke-width=".5" x="0" y="0" width="60" height="60"/>
  <use id="zoomplus" xlink:href="#zoomPlus" x="17" y="9" onmousedown="handleZoom(evt,'in')"/>
  <use id="zoomminus" xlink:href="#zoomMin" x="42" y="9" onmousedown="handleZoom(evt,'out')"/>
  <use id="reset" xlink:href="#resetDef" x="30" y="36" onmousedown="handleReset()"/>
   <use id="arrowup" xlink:href="#arrowUp" x="0" y="0" onmousedown="handlePan(0,-1)"/>
  <use id="arrowright" xlink:href="#arrowRight" x="0" y="0" onmousedown="handlePan(1,0)"/>
  <use id="arrowdown" xlink:href="#arrowDown" x="0" y="0" onmousedown="handlePan(0,1)"/>
  <use id="arrowleft" xlink:href="#arrowLeft" x="0" y="0" onmousedown="handlePan(-1,0)"/>
</g>
<svg viewBox="0 0 15 15" width="100%" height="30px" preserveAspectRatio="xMaxYMin meet">
 <g id="arrow_out" transform="scale(0.3 0.3)">
  <a xlink:href="class_bit_vector_a68b14af0886039ddcf55c82a250deb4c_icgraph_org.svg" target="_base">
   <rect id="button" ry="5" rx="5" y="6" x="6" height="38" width="38"
        fill="#f2f5e9" fill-opacity="0.5" stroke="#606060" stroke-width="1.0"/>
   <path id="arrow"
     d="M 11.500037,31.436501 C 11.940474,20.09759 22.043105,11.32322 32.158766,21.979434 L 37.068811,17.246167 C 37.068811,17.246167 37.088388,32 37.088388,32 L 22.160133,31.978069 C 22.160133,31.978069 26.997745,27.140456 26.997745,27.140456 C 18.528582,18.264221 13.291696,25.230495 11.500037,31.436501 z"
     style="fill:#404040;"/>
  </a>
 </g>
</svg>

<style type='text/css'>
<![CDATA[
[data-mouse-over-selected='false'] { opacity: 0.7; }
[data-mouse-over-selected='true']  { opacity: 1.0; }
]]>
</style>
<script type="application/ecmascript"><![CDATA[
document.addEventListener('DOMContentLoaded', (event) => {
  highlightEdges();
  highlightAdjacentNodes();
});
]]></script>
</svg>
