<?xml version="1.0" encoding="UTF-8" standalone="no"?>
<!DOCTYPE svg PUBLIC "-//W3C//DTD SVG 1.1//EN"
 "http://www.w3.org/Graphics/SVG/1.1/DTD/svg11.dtd">
<!-- Generated by graphviz version 2.43.0 (0)
 -->
<!-- Title: BitVector::_killInternalData Pages: 1 -->
<svg width="458pt" height="101pt"
 viewBox="0.00 0.00 458.00 101.00" xmlns="http://www.w3.org/2000/svg" xmlns:xlink="http://www.w3.org/1999/xlink">

<svg id="main" version="1.1" xmlns="http://www.w3.org/2000/svg" xmlns:xlink="http://www.w3.org/1999/xlink" xml:space="preserve" onload="init(evt)">
<style type="text/css"><![CDATA[
.node, .edge {opacity: 0.7;}
.node.selected, .edge.selected {opacity: 1;}
.edge:hover path { stroke: red; }
.edge:hover polygon { stroke: red; fill: red; }
]]></style>
<script type="application/ecmascript" xlink:href="svg.min.js"/>
<svg id="graph" class="graph">
<g id="graph0" class="graph" transform="scale(1 1) rotate(0) translate(4 97)">
<title>BitVector::_killInternalData</title>
<!-- Node1 -->
<g id="Node000001" class="node">
<title>Node1</title>
<g id="a_Node000001"><a xlink:title="Free memory used by BitVector::_data.">
<polygon fill="#999999" stroke="#666666" points="450,-37 302,-37 302,-18 450,-18 450,-37"/>
<text text-anchor="middle" x="376" y="-25" font-family="Helvetica,sans-Serif" font-size="10.00">BitVector::_killInternalData</text>
</a>
</g>
</g>
<!-- Node2 -->
<g id="Node000002" class="node">
<title>Node2</title>
<g id="a_Node000002"><a xlink:href="class_bit_vector.html#a13856f33d2350c573cf2fbe587f03757" target="_top" xlink:title="Modify the length of BitVector::_data.">
<polygon fill="white" stroke="#666666" points="254.5,-56 158.5,-56 158.5,-37 254.5,-37 254.5,-56"/>
<text text-anchor="middle" x="206.5" y="-44" font-family="Helvetica,sans-Serif" font-size="10.00">BitVector::resize</text>
</a>
</g>
</g>
<!-- Node1&#45;&gt;Node2 -->
<g id="edge1_Node000001_Node000002" class="edge">
<title>Node1&#45;&gt;Node2</title>
<g id="a_edge1_Node000001_Node000002"><a xlink:title=" ">
<path fill="none" stroke="#63b8ff" d="M291.47,-36.97C278.91,-38.4 266.33,-39.83 254.88,-41.13"/>
<polygon fill="#63b8ff" stroke="#63b8ff" points="291.99,-40.44 301.53,-35.83 291.2,-33.48 291.99,-40.44"/>
</a>
</g>
</g>
<!-- Node6 -->
<g id="Node000006" class="node">
<title>Node6</title>
<g id="a_Node000006"><a xlink:href="class_bit_vector.html#a77ca7fce8fc1cf29dd3ffe98f1fed314" target="_top" xlink:title="Free memory used by BitVector::_data.">
<polygon fill="white" stroke="#666666" points="266,-19 147,-19 147,0 266,0 266,-19"/>
<text text-anchor="middle" x="206.5" y="-7" font-family="Helvetica,sans-Serif" font-size="10.00">BitVector::~BitVector</text>
</a>
</g>
</g>
<!-- Node1&#45;&gt;Node6 -->
<g id="edge5_Node000001_Node000006" class="edge">
<title>Node1&#45;&gt;Node6</title>
<g id="a_edge5_Node000001_Node000006"><a xlink:title=" ">
<path fill="none" stroke="#63b8ff" d="M291.47,-18.52C282.89,-17.6 274.3,-16.68 266.07,-15.79"/>
<polygon fill="#63b8ff" stroke="#63b8ff" points="291.22,-22.02 301.53,-19.6 291.96,-15.06 291.22,-22.02"/>
</a>
</g>
</g>
<!-- Node3 -->
<g id="Node000003" class="node">
<title>Node3</title>
<g id="a_Node000003"><a xlink:href="class_bit_vector.html#a23c1685317944b2a5c6f149a5fccc6bd" target="_top" xlink:title="Construct a new Bit Vector object.">
<polygon fill="white" stroke="#666666" points="111,-93 0,-93 0,-74 111,-74 111,-93"/>
<text text-anchor="middle" x="55.5" y="-81" font-family="Helvetica,sans-Serif" font-size="10.00">BitVector::BitVector</text>
</a>
</g>
</g>
<!-- Node2&#45;&gt;Node3 -->
<g id="edge2_Node000002_Node000003" class="edge">
<title>Node2&#45;&gt;Node3</title>
<g id="a_edge2_Node000002_Node000003"><a xlink:title=" ">
<path fill="none" stroke="#63b8ff" d="M157.2,-58.49C137.05,-63.5 113.98,-69.23 95,-73.94"/>
<polygon fill="#63b8ff" stroke="#63b8ff" points="158.27,-61.84 167.13,-56.03 156.58,-55.04 158.27,-61.84"/>
</a>
</g>
</g>
<!-- Node4 -->
<g id="Node000004" class="node">
<title>Node4</title>
<g id="a_Node000004"><a xlink:href="class_bit_vector.html#a673b530bb6e520f7f7fa90070e0034db" target="_top" xlink:title="Free memory used by BitVector::_data.">
<polygon fill="white" stroke="#666666" points="101,-56 10,-56 10,-37 101,-37 101,-56"/>
<text text-anchor="middle" x="55.5" y="-44" font-family="Helvetica,sans-Serif" font-size="10.00">BitVector::clear</text>
</a>
</g>
</g>
<!-- Node2&#45;&gt;Node4 -->
<g id="edge3_Node000002_Node000004" class="edge">
<title>Node2&#45;&gt;Node4</title>
<g id="a_edge3_Node000002_Node000004"><a xlink:title=" ">
<path fill="none" stroke="#63b8ff" d="M148.26,-46.5C132.61,-46.5 115.88,-46.5 101.05,-46.5"/>
<polygon fill="#63b8ff" stroke="#63b8ff" points="148.36,-50 158.36,-46.5 148.36,-43 148.36,-50"/>
</a>
</g>
</g>
<!-- Node5 -->
<g id="Node000005" class="node">
<title>Node5</title>
<g id="a_Node000005"><a xlink:href="class_bit_vector.html#a80a4aa212535129b881b4fb2623ce222" target="_top" xlink:title="Reduce the size of BitVector::_data to fit BitVector::_element_number.">
<polygon fill="white" stroke="#666666" points="104,-19 7,-19 7,0 104,0 104,-19"/>
<text text-anchor="middle" x="55.5" y="-7" font-family="Helvetica,sans-Serif" font-size="10.00">BitVector::shrink</text>
</a>
</g>
</g>
<!-- Node2&#45;&gt;Node5 -->
<g id="edge4_Node000002_Node000005" class="edge">
<title>Node2&#45;&gt;Node5</title>
<g id="a_edge4_Node000002_Node000005"><a xlink:title=" ">
<path fill="none" stroke="#63b8ff" d="M157.2,-34.51C137.05,-29.5 113.98,-23.77 95,-19.06"/>
<polygon fill="#63b8ff" stroke="#63b8ff" points="156.58,-37.96 167.13,-36.97 158.27,-31.16 156.58,-37.96"/>
</a>
</g>
</g>
</g>
</svg>
</svg>

<style type='text/css'>
<![CDATA[
[data-mouse-over-selected='false'] { opacity: 0.7; }
[data-mouse-over-selected='true']  { opacity: 1.0; }
]]>
</style>
<script type="application/ecmascript"><![CDATA[
document.addEventListener('DOMContentLoaded', (event) => {
  highlightEdges();
  highlightAdjacentNodes();
});
]]></script>
</svg>
