<?xml version="1.0" encoding="UTF-8" standalone="no"?>
<!DOCTYPE svg PUBLIC "-//W3C//DTD SVG 1.1//EN"
 "http://www.w3.org/Graphics/SVG/1.1/DTD/svg11.dtd">
<!-- Generated by graphviz version 2.43.0 (0)
 -->
<!-- Title: BitVector::indexElementUntreated Pages: 1 -->
<!--zoomable 446 -->

<svg id="main" version="1.1" xmlns="http://www.w3.org/2000/svg" xmlns:xlink="http://www.w3.org/1999/xlink" xml:space="preserve" onload="init(evt)">
<style type="text/css"><![CDATA[
.node, .edge {opacity: 0.7;}
.node.selected, .edge.selected {opacity: 1;}
.edge:hover path { stroke: red; }
.edge:hover polygon { stroke: red; fill: red; }
]]></style>

<defs>
  <circle id="rim" cx="0" cy="0" r="7"/>
  <circle id="rim2" cx="0" cy="0" r="3.5"/>
  <g id="zoomPlus">
    <use xlink:href="#rim" fill="#404040"><set attributeName="fill" to="#808080" begin="zoomplus.mouseover" end="zoomplus.mouseout"/></use>
    <path d="M-4,0h8M0,-4v8" fill="none" stroke="white" stroke-width="1.5" pointer-events="none"/>
  </g>
  <g id="zoomMin">
    <use xlink:href="#rim" fill="#404040"><set attributeName="fill" to="#808080" begin="zoomminus.mouseover" end="zoomminus.mouseout"/></use>
    <path d="M-4,0h8" fill="none" stroke="white" stroke-width="1.5" pointer-events="none"/>
  </g>
  <g id="arrowUp" transform="translate(30 24)">
    <use xlink:href="#rim"/>
    <path pointer-events="none" fill="none" stroke="white" stroke-width="1.5" d="M0,-3.0v7 M-2.5,-0.5L0,-3.0L2.5,-0.5"/>
  </g>
  <g id="arrowRight" transform="rotate(90) translate(36 -43)">
    <use xlink:href="#rim"/>
    <path pointer-events="none" fill="none" stroke="white" stroke-width="1.5" d="M0,-3.0v7 M-2.5,-0.5L0,-3.0L2.5,-0.5"/>
  </g>
  <g id="arrowDown" transform="rotate(180) translate(-30 -48)">
    <use xlink:href="#rim"/>
    <path pointer-events="none" fill="none" stroke="white" stroke-width="1.5" d="M0,-3.0v7 M-2.5,-0.5L0,-3.0L2.5,-0.5"/>
  </g>
  <g id="arrowLeft" transform="rotate(270) translate(-36 17)">
    <use xlink:href="#rim"/>
    <path pointer-events="none" fill="none" stroke="white" stroke-width="1.5" d="M0,-3.0v7 M-2.5,-0.5L0,-3.0L2.5,-0.5"/>
  </g>
  <g id="resetDef">
    <use xlink:href="#rim2" fill="#404040"><set attributeName="fill" to="#808080" begin="reset.mouseover" end="reset.mouseout"/></use>
  </g>
</defs>
<script type="application/ecmascript">
var viewWidth = 1304;
var viewHeight = 446;
var sectionId = 'dynsection-32';
</script>
<script type="application/ecmascript" xlink:href="svg.min.js"/>
<svg id="graph" class="graph">
<g id="viewport">
<title>BitVector::indexElementUntreated</title>
<!-- Node1 -->
<g id="Node000001" class="node">
<title>Node1</title>
<g id="a_Node000001"><a xlink:title="Give A size_t that represent the coords of the first bit of an element.">
<polygon fill="#999999" stroke="#666666" points="1296,-382.28 1113,-382.28 1113,-363.28 1296,-363.28 1296,-382.28"/>
<text text-anchor="middle" x="1204.5" y="-370.28" font-family="Helvetica,sans-Serif" font-size="10.00">BitVector::indexElementUntreated</text>
</a>
</g>
</g>
<!-- Node2 -->
<g id="Node000002" class="node">
<title>Node2</title>
<g id="a_Node000002"><a xlink:href="class_bit_vector.html#a93ab8bc2ec39bf299ae28ffcad504b41" target="_top" xlink:title="Give the coords of the first bit of an element.">
<polygon fill="white" stroke="#666666" points="1077,-382.28 943,-382.28 943,-363.28 1077,-363.28 1077,-382.28"/>
<text text-anchor="middle" x="1010" y="-370.28" font-family="Helvetica,sans-Serif" font-size="10.00">BitVector::indexElement</text>
</a>
</g>
</g>
<!-- Node1&#45;&gt;Node2 -->
<g id="edge1_Node000001_Node000002" class="edge">
<title>Node1&#45;&gt;Node2</title>
<g id="a_edge1_Node000001_Node000002"><a xlink:title=" ">
<path fill="none" stroke="#63b8ff" d="M1102.67,-372.78C1093.98,-372.78 1085.33,-372.78 1077.02,-372.78"/>
<polygon fill="#63b8ff" stroke="#63b8ff" points="1102.89,-376.28 1112.89,-372.78 1102.89,-369.28 1102.89,-376.28"/>
</a>
</g>
</g>
<!-- Node3 -->
<g id="Node000003" class="node">
<title>Node3</title>
<g id="a_Node000003"><a xlink:href="class_bit_vector.html#a2d0fe43b80b63edbd64dc887fd87d915" target="_top" xlink:title="Return the element at the position index.">
<polygon fill="white" stroke="#666666" points="900.5,-419.28 817.5,-419.28 817.5,-400.28 900.5,-400.28 900.5,-419.28"/>
<text text-anchor="middle" x="859" y="-407.28" font-family="Helvetica,sans-Serif" font-size="10.00">BitVector::get</text>
</a>
</g>
</g>
<!-- Node2&#45;&gt;Node3 -->
<g id="edge2_Node000002_Node000003" class="edge">
<title>Node2&#45;&gt;Node3</title>
<g id="a_edge2_Node000002_Node000003"><a xlink:title=" ">
<path fill="none" stroke="#63b8ff" d="M960.7,-384.77C940.55,-389.77 917.48,-395.5 898.5,-400.22"/>
<polygon fill="#63b8ff" stroke="#63b8ff" points="961.77,-388.11 970.63,-382.31 960.08,-381.32 961.77,-388.11"/>
</a>
</g>
</g>
<!-- Node4 -->
<g id="Node000004" class="node">
<title>Node4</title>
<g id="a_Node000004"><a xlink:href="class_bit_vector.html#a13856f33d2350c573cf2fbe587f03757" target="_top" xlink:title="Modify the length of BitVector::_data.">
<polygon fill="white" stroke="#666666" points="907,-382.28 811,-382.28 811,-363.28 907,-363.28 907,-382.28"/>
<text text-anchor="middle" x="859" y="-370.28" font-family="Helvetica,sans-Serif" font-size="10.00">BitVector::resize</text>
</a>
</g>
</g>
<!-- Node2&#45;&gt;Node4 -->
<g id="edge3_Node000002_Node000004" class="edge">
<title>Node2&#45;&gt;Node4</title>
<g id="a_edge3_Node000002_Node000004"><a xlink:title=" ">
<path fill="none" stroke="#63b8ff" d="M932.64,-372.78C923.99,-372.78 915.38,-372.78 907.26,-372.78"/>
<polygon fill="#63b8ff" stroke="#63b8ff" points="932.78,-376.28 942.78,-372.78 932.78,-369.28 932.78,-376.28"/>
</a>
</g>
</g>
<!-- Node8 -->
<g id="Node000008" class="node">
<title>Node8</title>
<g id="a_Node000008"><a xlink:href="class_bit_vector.html#aca24053f655c825de0f06ec86fff1cec" target="_top" xlink:title="Replace an element by another element. Can add an element to the list if index = BitVector::_element_...">
<polygon fill="white" stroke="#666666" points="900,-195.28 818,-195.28 818,-176.28 900,-176.28 900,-195.28"/>
<text text-anchor="middle" x="859" y="-183.28" font-family="Helvetica,sans-Serif" font-size="10.00">BitVector::set</text>
</a>
</g>
</g>
<!-- Node2&#45;&gt;Node8 -->
<g id="edge7_Node000002_Node000008" class="edge">
<title>Node2&#45;&gt;Node8</title>
<g id="a_edge7_Node000002_Node000008"><a xlink:title=" ">
<path fill="none" stroke="#63b8ff" d="M994.83,-355C963.99,-316.28 891.59,-225.42 867.76,-195.51"/>
<polygon fill="#63b8ff" stroke="#63b8ff" points="992.44,-357.61 1001.41,-363.25 997.91,-353.24 992.44,-357.61"/>
</a>
</g>
</g>
<!-- Node5 -->
<g id="Node000005" class="node">
<title>Node5</title>
<g id="a_Node000005"><a xlink:href="class_bit_vector.html#a23c1685317944b2a5c6f149a5fccc6bd" target="_top" xlink:title="Construct a new Bit Vector object.">
<polygon fill="white" stroke="#666666" points="775,-438.28 664,-438.28 664,-419.28 775,-419.28 775,-438.28"/>
<text text-anchor="middle" x="719.5" y="-426.28" font-family="Helvetica,sans-Serif" font-size="10.00">BitVector::BitVector</text>
</a>
</g>
</g>
<!-- Node4&#45;&gt;Node5 -->
<g id="edge4_Node000004_Node000005" class="edge">
<title>Node4&#45;&gt;Node5</title>
<g id="a_edge4_Node000004_Node000005"><a xlink:title=" ">
<path fill="none" stroke="#63b8ff" d="M823.65,-386.19C819.36,-388 815.06,-389.89 811,-391.78 794.59,-399.4 791.65,-403.69 775,-410.78 767.85,-413.82 760,-416.68 752.53,-419.19"/>
<polygon fill="#63b8ff" stroke="#63b8ff" points="825.01,-389.42 832.92,-382.37 822.34,-382.95 825.01,-389.42"/>
</a>
</g>
</g>
<!-- Node6 -->
<g id="Node000006" class="node">
<title>Node6</title>
<g id="a_Node000006"><a xlink:href="class_bit_vector.html#a673b530bb6e520f7f7fa90070e0034db" target="_top" xlink:title="Free memory used by BitVector::_data.">
<polygon fill="white" stroke="#666666" points="765,-401.28 674,-401.28 674,-382.28 765,-382.28 765,-401.28"/>
<text text-anchor="middle" x="719.5" y="-389.28" font-family="Helvetica,sans-Serif" font-size="10.00">BitVector::clear</text>
</a>
</g>
</g>
<!-- Node4&#45;&gt;Node6 -->
<g id="edge5_Node000004_Node000006" class="edge">
<title>Node4&#45;&gt;Node6</title>
<g id="a_edge5_Node000004_Node000006"><a xlink:title=" ">
<path fill="none" stroke="#63b8ff" d="M800.46,-380.73C788.65,-382.36 776.4,-384.05 765.13,-385.61"/>
<polygon fill="#63b8ff" stroke="#63b8ff" points="801.25,-384.15 810.68,-379.32 800.3,-377.22 801.25,-384.15"/>
</a>
</g>
</g>
<!-- Node7 -->
<g id="Node000007" class="node">
<title>Node7</title>
<g id="a_Node000007"><a xlink:href="class_bit_vector.html#a80a4aa212535129b881b4fb2623ce222" target="_top" xlink:title="Reduce the size of BitVector::_data to fit BitVector::_element_number.">
<polygon fill="white" stroke="#666666" points="768,-364.28 671,-364.28 671,-345.28 768,-345.28 768,-364.28"/>
<text text-anchor="middle" x="719.5" y="-352.28" font-family="Helvetica,sans-Serif" font-size="10.00">BitVector::shrink</text>
</a>
</g>
</g>
<!-- Node4&#45;&gt;Node7 -->
<g id="edge6_Node000004_Node000007" class="edge">
<title>Node4&#45;&gt;Node7</title>
<g id="a_edge6_Node000004_Node000007"><a xlink:title=" ">
<path fill="none" stroke="#63b8ff" d="M800.56,-365.26C789.85,-363.86 778.76,-362.4 768.37,-361.04"/>
<polygon fill="#63b8ff" stroke="#63b8ff" points="800.31,-368.75 810.68,-366.58 801.22,-361.81 800.31,-368.75"/>
</a>
</g>
</g>
<!-- Node9 -->
<g id="Node000009" class="node">
<title>Node9</title>
<g id="a_Node000009"><a xlink:href="class_bit_vector.html#afbdbe8a5003f5941ffd5ab095cf87d88" target="_top" xlink:title="Add an element at the end of the vector.">
<polygon fill="white" stroke="#666666" points="771,-138.28 668,-138.28 668,-119.28 771,-119.28 771,-138.28"/>
<text text-anchor="middle" x="719.5" y="-126.28" font-family="Helvetica,sans-Serif" font-size="10.00">BitVector::append</text>
</a>
</g>
</g>
<!-- Node8&#45;&gt;Node9 -->
<g id="edge8_Node000008_Node000009" class="edge">
<title>Node8&#45;&gt;Node9</title>
<g id="a_edge8_Node000008_Node000009"><a xlink:title=" ">
<path fill="none" stroke="#63b8ff" d="M825.48,-172.3C800.3,-161.86 766.02,-147.65 743.59,-138.35"/>
<polygon fill="#63b8ff" stroke="#63b8ff" points="824.41,-175.64 834.99,-176.24 827.09,-169.17 824.41,-175.64"/>
</a>
</g>
</g>
<!-- Node10 -->
<g id="Node000010" class="node">
<title>Node10</title>
<g id="a_Node000010"><a xlink:href="class_bit_vector.html#a5547d55a697d61de026d0a94e743624b" target="_top" xlink:title="Construct a new Bit Vector object.">
<polygon fill="white" stroke="#666666" points="594.5,-147.28 483.5,-147.28 483.5,-128.28 594.5,-128.28 594.5,-147.28"/>
<text text-anchor="middle" x="539" y="-135.28" font-family="Helvetica,sans-Serif" font-size="10.00">BitVector::BitVector</text>
</a>
</g>
</g>
<!-- Node8&#45;&gt;Node10 -->
<g id="edge21_Node000008_Node000010" class="edge">
<title>Node8&#45;&gt;Node10</title>
<g id="a_edge21_Node000008_Node000010"><a xlink:title=" ">
<path fill="none" stroke="#63b8ff" d="M807.68,-178.18C749.59,-169.41 654.4,-155.04 594.57,-146.01"/>
<polygon fill="#63b8ff" stroke="#63b8ff" points="807.31,-181.67 817.73,-179.7 808.36,-174.74 807.31,-181.67"/>
</a>
</g>
</g>
<!-- Node11 -->
<g id="Node000011" class="node">
<title>Node11</title>
<g id="a_Node000011"><a xlink:href="class_bit_vector.html#a686af396e4dff1536b7588213726c4cc" target="_top" xlink:title="Insert a number of blank position inside BitVector::_data.">
<polygon fill="white" stroke="#666666" points="628,-100.28 450,-100.28 450,-81.28 628,-81.28 628,-100.28"/>
<text text-anchor="middle" x="539" y="-88.28" font-family="Helvetica,sans-Serif" font-size="10.00">BitVector::makeRoomForElement</text>
</a>
</g>
</g>
<!-- Node8&#45;&gt;Node11 -->
<g id="edge25_Node000008_Node000011" class="edge">
<title>Node8&#45;&gt;Node11</title>
<g id="a_edge25_Node000008_Node000011"><a xlink:title=" ">
<path fill="none" stroke="#63b8ff" d="M844.43,-168.08C829.56,-150.16 803.93,-123.35 775,-110.78 729.18,-90.87 673.66,-85.4 628.1,-85.12"/>
<polygon fill="#63b8ff" stroke="#63b8ff" points="841.85,-170.45 850.84,-176.06 847.31,-166.07 841.85,-170.45"/>
</a>
</g>
</g>
<!-- Node12 -->
<g id="Node000012" class="node">
<title>Node12</title>
<g id="a_Node000012"><a xlink:href="class_sequence.html#aa48778c592160ac60319f780817f491c" target="_top" xlink:title="Insert a number of chars at the position position .">
<polygon fill="white" stroke="#666666" points="414,-203.28 316,-203.28 316,-184.28 414,-184.28 414,-203.28"/>
<text text-anchor="middle" x="365" y="-191.28" font-family="Helvetica,sans-Serif" font-size="10.00">Sequence::insert</text>
</a>
</g>
</g>
<!-- Node8&#45;&gt;Node12 -->
<g id="edge22_Node000008_Node000012" class="edge">
<title>Node8&#45;&gt;Node12</title>
<g id="a_edge22_Node000008_Node000012"><a xlink:title=" ">
<path fill="none" stroke="#63b8ff" d="M844.87,-203.68C830.2,-222.02 804.59,-249.39 775,-260.78 731.32,-277.59 500.49,-267.59 450,-250.78 420.24,-240.87 391.25,-217.18 376.35,-203.67"/>
<polygon fill="#63b8ff" stroke="#63b8ff" points="847.83,-205.58 851.16,-195.52 842.28,-201.3 847.83,-205.58"/>
</a>
</g>
</g>
<!-- Node19 -->
<g id="Node000019" class="node">
<title>Node19</title>
<g id="a_Node000019"><a xlink:href="class_bit_vector.html#a9f86c96c013632abd9d18feafe78d72e" target="_top" xlink:title="Insert a number_of_elements inside the vector at the index pos .">
<polygon fill="white" stroke="#666666" points="412.5,-81.28 317.5,-81.28 317.5,-62.28 412.5,-62.28 412.5,-81.28"/>
<text text-anchor="middle" x="365" y="-69.28" font-family="Helvetica,sans-Serif" font-size="10.00">BitVector::insert</text>
</a>
</g>
</g>
<!-- Node8&#45;&gt;Node19 -->
<g id="edge23_Node000008_Node000019" class="edge">
<title>Node8&#45;&gt;Node19</title>
<g id="a_edge23_Node000008_Node000019"><a xlink:title=" ">
<path fill="none" stroke="#63b8ff" d="M849.04,-166.94C836.34,-142.66 810.64,-101.34 775,-82.78 652.63,-19.03 480.48,-45.69 404.55,-62.26"/>
<polygon fill="#63b8ff" stroke="#63b8ff" points="846.06,-168.82 853.67,-176.19 852.32,-165.68 846.06,-168.82"/>
</a>
</g>
</g>
<!-- Node20 -->
<g id="Node000020" class="node">
<title>Node20</title>
<g id="a_Node000020"><a xlink:href="class_bit_vector.html#a915743b3f94c75c22317d160bfa741ff" target="_top" xlink:title="Insert a number_of_elements inside the vector at the index pos .">
<polygon fill="white" stroke="#666666" points="412.5,-44.28 317.5,-44.28 317.5,-25.28 412.5,-25.28 412.5,-44.28"/>
<text text-anchor="middle" x="365" y="-32.28" font-family="Helvetica,sans-Serif" font-size="10.00">BitVector::insert</text>
</a>
</g>
</g>
<!-- Node8&#45;&gt;Node20 -->
<g id="edge24_Node000008_Node000020" class="edge">
<title>Node8&#45;&gt;Node20</title>
<g id="a_edge24_Node000008_Node000020"><a xlink:title=" ">
<path fill="none" stroke="#63b8ff" d="M852.93,-166.07C843.57,-134.19 820.25,-72.09 775,-44.78 653.85,28.37 473.52,-6.29 399.52,-25.25"/>
<polygon fill="#63b8ff" stroke="#63b8ff" points="849.63,-167.28 855.67,-175.99 856.38,-165.41 849.63,-167.28"/>
</a>
</g>
</g>
<!-- Node21 -->
<g id="Node000021" class="node">
<title>Node21</title>
<g id="a_Node000021"><a xlink:href="class_bit_vector.html#a2af5c1a1a0050e2b52d06c38436280fd" target="_top" xlink:title="Add an element at the end of the vector.">
<polygon fill="white" stroke="#666666" points="771,-327.28 668,-327.28 668,-308.28 771,-308.28 771,-327.28"/>
<text text-anchor="middle" x="719.5" y="-315.28" font-family="Helvetica,sans-Serif" font-size="10.00">BitVector::append</text>
</a>
</g>
</g>
<!-- Node8&#45;&gt;Node21 -->
<g id="edge20_Node000008_Node000021" class="edge">
<title>Node8&#45;&gt;Node21</title>
<g id="a_edge20_Node000008_Node000021"><a xlink:title=" ">
<path fill="none" stroke="#63b8ff" d="M847.69,-204.41C833.85,-227.97 807.23,-268.49 775,-293.78 767.43,-299.71 758.17,-304.5 749.45,-308.2"/>
<polygon fill="#63b8ff" stroke="#63b8ff" points="850.89,-205.86 852.82,-195.45 844.82,-202.39 850.89,-205.86"/>
</a>
</g>
</g>
<!-- Node22 -->
<g id="Node000022" class="node">
<title>Node22</title>
<g id="a_Node000022"><a xlink:href="class_bit_vector.html#a87f84edf5dd56606b26e8741ba6ced02" target="_top" xlink:title="Remove a number of element from the vector.">
<polygon fill="white" stroke="#666666" points="771.5,-214.28 667.5,-214.28 667.5,-195.28 771.5,-195.28 771.5,-214.28"/>
<text text-anchor="middle" x="719.5" y="-202.28" font-family="Helvetica,sans-Serif" font-size="10.00">BitVector::remove</text>
</a>
</g>
</g>
<!-- Node8&#45;&gt;Node22 -->
<g id="edge26_Node000008_Node000022" class="edge">
<title>Node8&#45;&gt;Node22</title>
<g id="a_edge26_Node000008_Node000022"><a xlink:title=" ">
<path fill="none" stroke="#63b8ff" d="M807.78,-192.72C796.03,-194.34 783.51,-196.07 771.72,-197.7"/>
<polygon fill="#63b8ff" stroke="#63b8ff" points="808.43,-196.16 817.86,-191.32 807.47,-189.23 808.43,-196.16"/>
</a>
</g>
</g>
<!-- Node24 -->
<g id="Node000024" class="node">
<title>Node24</title>
<g id="a_Node000024"><a xlink:href="class_bit_vector.html#a38e8be69974c874857dd7cb6a52429ac" target="_top" xlink:title="Replace an element by another element. Can add an element to the list if index = BitVector::_element_...">
<polygon fill="white" stroke="#666666" points="760.5,-251.28 678.5,-251.28 678.5,-232.28 760.5,-232.28 760.5,-251.28"/>
<text text-anchor="middle" x="719.5" y="-239.28" font-family="Helvetica,sans-Serif" font-size="10.00">BitVector::set</text>
</a>
</g>
</g>
<!-- Node8&#45;&gt;Node24 -->
<g id="edge29_Node000008_Node000024" class="edge">
<title>Node8&#45;&gt;Node24</title>
<g id="a_edge29_Node000008_Node000024"><a xlink:title=" ">
<path fill="none" stroke="#63b8ff" d="M829.54,-199.75C813.68,-207.3 793.45,-216.53 775,-223.78 767.39,-226.76 759.07,-229.68 751.27,-232.27"/>
<polygon fill="#63b8ff" stroke="#63b8ff" points="831.31,-202.78 838.81,-195.3 828.28,-196.47 831.31,-202.78"/>
</a>
</g>
</g>
<!-- Node9&#45;&gt;Node10 -->
<g id="edge9_Node000009_Node000010" class="edge">
<title>Node9&#45;&gt;Node10</title>
<g id="a_edge9_Node000009_Node000010"><a xlink:title=" ">
<path fill="none" stroke="#63b8ff" d="M657.67,-131.84C637.2,-132.88 614.5,-134.02 594.55,-135.03"/>
<polygon fill="#63b8ff" stroke="#63b8ff" points="658.02,-135.33 667.83,-131.33 657.66,-128.34 658.02,-135.33"/>
</a>
</g>
</g>
<!-- Node9&#45;&gt;Node11 -->
<g id="edge10_Node000009_Node000011" class="edge">
<title>Node9&#45;&gt;Node11</title>
<g id="a_edge10_Node000009_Node000011"><a xlink:title=" ">
<path fill="none" stroke="#63b8ff" d="M663.63,-117.1C638.32,-111.71 608.65,-105.39 584.72,-100.3"/>
<polygon fill="#63b8ff" stroke="#63b8ff" points="662.95,-120.53 673.46,-119.19 664.4,-113.68 662.95,-120.53"/>
</a>
</g>
</g>
<!-- Node11&#45;&gt;Node12 -->
<g id="edge11_Node000011_Node000012" class="edge">
<title>Node11&#45;&gt;Node12</title>
<g id="a_edge11_Node000011_Node000012"><a xlink:title=" ">
<path fill="none" stroke="#63b8ff" d="M487.93,-103.41C475.12,-107.67 461.68,-113.09 450,-119.78 418.63,-137.75 388.5,-168.67 374.37,-184.24"/>
<polygon fill="#63b8ff" stroke="#63b8ff" points="489.08,-106.72 497.56,-100.38 486.98,-100.04 489.08,-106.72"/>
</a>
</g>
</g>
<!-- Node11&#45;&gt;Node19 -->
<g id="edge18_Node000011_Node000019" class="edge">
<title>Node11&#45;&gt;Node19</title>
<g id="a_edge18_Node000011_Node000019"><a xlink:title=" ">
<path fill="none" stroke="#63b8ff" d="M441.71,-80.14C431.72,-79.04 421.91,-77.95 412.84,-76.95"/>
<polygon fill="#63b8ff" stroke="#63b8ff" points="441.42,-83.63 451.75,-81.25 442.19,-76.67 441.42,-83.63"/>
</a>
</g>
</g>
<!-- Node11&#45;&gt;Node20 -->
<g id="edge19_Node000011_Node000020" class="edge">
<title>Node11&#45;&gt;Node20</title>
<g id="a_edge19_Node000011_Node000020"><a xlink:title=" ">
<path fill="none" stroke="#63b8ff" d="M498.66,-77.97C467.14,-67.71 423.65,-53.55 395.18,-44.28"/>
<polygon fill="#63b8ff" stroke="#63b8ff" points="497.84,-81.38 508.43,-81.15 500.01,-74.73 497.84,-81.38"/>
</a>
</g>
</g>
<!-- Node13 -->
<g id="Node000013" class="node">
<title>Node13</title>
<g id="a_Node000013"><a xlink:href="class_sequence.html#a3cf6cf5e54782f4d1a2ee07ec519523c" target="_top" xlink:title="Insert a char at the position position .">
<polygon fill="white" stroke="#666666" points="268,-240.28 170,-240.28 170,-221.28 268,-221.28 268,-240.28"/>
<text text-anchor="middle" x="219" y="-228.28" font-family="Helvetica,sans-Serif" font-size="10.00">Sequence::insert</text>
</a>
</g>
</g>
<!-- Node12&#45;&gt;Node13 -->
<g id="edge12_Node000012_Node000013" class="edge">
<title>Node12&#45;&gt;Node13</title>
<g id="a_edge12_Node000012_Node000013"><a xlink:title=" ">
<path fill="none" stroke="#63b8ff" d="M317.09,-205.83C297.77,-210.8 275.68,-216.47 257.46,-221.15"/>
<polygon fill="#63b8ff" stroke="#63b8ff" points="318.1,-209.18 326.92,-203.31 316.36,-202.4 318.1,-209.18"/>
</a>
</g>
</g>
<!-- Node14 -->
<g id="Node000014" class="node">
<title>Node14</title>
<g id="a_Node000014"><a xlink:href="class_sequence.html#aa57fd5a7fdd173374e56006ce1c47bdc" target="_top" xlink:title="Insert a number of chars at the the back of the sequence position .">
<polygon fill="white" stroke="#666666" points="280,-203.28 158,-203.28 158,-184.28 280,-184.28 280,-203.28"/>
<text text-anchor="middle" x="219" y="-191.28" font-family="Helvetica,sans-Serif" font-size="10.00">Sequence::insertBack</text>
</a>
</g>
</g>
<!-- Node12&#45;&gt;Node14 -->
<g id="edge13_Node000012_Node000014" class="edge">
<title>Node12&#45;&gt;Node14</title>
<g id="a_edge13_Node000012_Node000014"><a xlink:title=" ">
<path fill="none" stroke="#63b8ff" d="M305.61,-193.78C297.25,-193.78 288.64,-193.78 280.25,-193.78"/>
<polygon fill="#63b8ff" stroke="#63b8ff" points="305.65,-197.28 315.65,-193.78 305.65,-190.28 305.65,-197.28"/>
</a>
</g>
</g>
<!-- Node15 -->
<g id="Node000015" class="node">
<title>Node15</title>
<g id="a_Node000015"><a xlink:href="class_sequence.html#a092f380b654de9aaa8a770ec0948c454" target="_top" xlink:title="Insert a number of chars at the the front of the sequence position .">
<polygon fill="white" stroke="#666666" points="280,-166.28 158,-166.28 158,-147.28 280,-147.28 280,-166.28"/>
<text text-anchor="middle" x="219" y="-154.28" font-family="Helvetica,sans-Serif" font-size="10.00">Sequence::insertFront</text>
</a>
</g>
</g>
<!-- Node12&#45;&gt;Node15 -->
<g id="edge14_Node000012_Node000015" class="edge">
<title>Node12&#45;&gt;Node15</title>
<g id="a_edge14_Node000012_Node000015"><a xlink:title=" ">
<path fill="none" stroke="#63b8ff" d="M317.09,-181.73C297.77,-176.76 275.68,-171.08 257.46,-166.4"/>
<polygon fill="#63b8ff" stroke="#63b8ff" points="316.36,-185.15 326.92,-184.25 318.1,-178.37 316.36,-185.15"/>
</a>
</g>
</g>
<!-- Node16 -->
<g id="Node000016" class="node">
<title>Node16</title>
<g id="a_Node000016"><a xlink:href="class_sequence.html#a16e70626e330194c1507ed339c9c629c" target="_top" xlink:title="Insert a char at the the back of the sequence position .">
<polygon fill="white" stroke="#666666" points="122,-203.28 0,-203.28 0,-184.28 122,-184.28 122,-203.28"/>
<text text-anchor="middle" x="61" y="-191.28" font-family="Helvetica,sans-Serif" font-size="10.00">Sequence::insertBack</text>
</a>
</g>
</g>
<!-- Node15&#45;&gt;Node16 -->
<g id="edge15_Node000015_Node000016" class="edge">
<title>Node15&#45;&gt;Node16</title>
<g id="a_edge15_Node000015_Node000016"><a xlink:title=" ">
<path fill="none" stroke="#63b8ff" d="M168.01,-168.63C146.78,-173.67 122.36,-179.46 102.31,-184.22"/>
<polygon fill="#63b8ff" stroke="#63b8ff" points="168.9,-172.02 177.83,-166.31 167.29,-165.21 168.9,-172.02"/>
</a>
</g>
</g>
<!-- Node17 -->
<g id="Node000017" class="node">
<title>Node17</title>
<g id="a_Node000017"><a xlink:href="class_sequence.html#a1fa6868ce587e1f3d779bb226cfda548" target="_top" xlink:title="Insert a char at the the front of the sequence position .">
<polygon fill="white" stroke="#666666" points="122,-166.28 0,-166.28 0,-147.28 122,-147.28 122,-166.28"/>
<text text-anchor="middle" x="61" y="-154.28" font-family="Helvetica,sans-Serif" font-size="10.00">Sequence::insertFront</text>
</a>
</g>
</g>
<!-- Node15&#45;&gt;Node17 -->
<g id="edge16_Node000015_Node000017" class="edge">
<title>Node15&#45;&gt;Node17</title>
<g id="a_edge16_Node000015_Node000017"><a xlink:title=" ">
<path fill="none" stroke="#63b8ff" d="M147.46,-156.78C139.01,-156.78 130.44,-156.78 122.15,-156.78"/>
<polygon fill="#63b8ff" stroke="#63b8ff" points="147.69,-160.28 157.69,-156.78 147.69,-153.28 147.69,-160.28"/>
</a>
</g>
</g>
<!-- Node18 -->
<g id="Node000018" class="node">
<title>Node18</title>
<g id="a_Node000018"><a xlink:href="class_sequence.html#ae293cd5124445b604bbcba3a5f01a48a" target="_top" xlink:title="Main Constructor. Construct a new Sequence object.">
<polygon fill="white" stroke="#666666" points="119.5,-129.28 2.5,-129.28 2.5,-110.28 119.5,-110.28 119.5,-129.28"/>
<text text-anchor="middle" x="61" y="-117.28" font-family="Helvetica,sans-Serif" font-size="10.00">Sequence::Sequence</text>
</a>
</g>
</g>
<!-- Node15&#45;&gt;Node18 -->
<g id="edge17_Node000015_Node000018" class="edge">
<title>Node15&#45;&gt;Node18</title>
<g id="a_edge17_Node000015_Node000018"><a xlink:title=" ">
<path fill="none" stroke="#63b8ff" d="M168.01,-144.92C146.78,-139.89 122.36,-134.09 102.31,-129.34"/>
<polygon fill="#63b8ff" stroke="#63b8ff" points="167.29,-148.35 177.83,-147.25 168.9,-141.54 167.29,-148.35"/>
</a>
</g>
</g>
<!-- Node22&#45;&gt;Node12 -->
<g id="edge28_Node000022_Node000012" class="edge">
<title>Node22&#45;&gt;Node12</title>
<g id="a_edge28_Node000022_Node000012"><a xlink:title=" ">
<path fill="none" stroke="#63b8ff" d="M656.95,-202.86C587.88,-200.7 477.28,-197.25 414.2,-195.28"/>
<polygon fill="#63b8ff" stroke="#63b8ff" points="657.14,-206.36 667.24,-203.18 657.36,-199.37 657.14,-206.36"/>
</a>
</g>
</g>
<!-- Node23 -->
<g id="Node000023" class="node">
<title>Node23</title>
<g id="a_Node000023"><a xlink:href="class_sequence.html#a20eb6bdd6f5cba62a251eff4387a525d" target="_top" xlink:title="Remove a portion of the sequence.">
<polygon fill="white" stroke="#666666" points="587.5,-241.28 490.5,-241.28 490.5,-222.28 587.5,-222.28 587.5,-241.28"/>
<text text-anchor="middle" x="539" y="-229.28" font-family="Helvetica,sans-Serif" font-size="10.00">Sequence::erase</text>
</a>
</g>
</g>
<!-- Node22&#45;&gt;Node23 -->
<g id="edge27_Node000022_Node000023" class="edge">
<title>Node22&#45;&gt;Node23</title>
<g id="a_edge27_Node000022_Node000023"><a xlink:title=" ">
<path fill="none" stroke="#63b8ff" d="M657.44,-214.01C634.68,-217.46 609.19,-221.31 587.79,-224.55"/>
<polygon fill="#63b8ff" stroke="#63b8ff" points="657.99,-217.47 667.35,-212.51 656.94,-210.55 657.99,-217.47"/>
</a>
</g>
</g>
</g>
</svg>

<g id="navigator" transform="translate(0 0)" fill="#404254">
  <rect fill="#f2f5e9" fill-opacity="0.5" stroke="#606060" stroke-width=".5" x="0" y="0" width="60" height="60"/>
  <use id="zoomplus" xlink:href="#zoomPlus" x="17" y="9" onmousedown="handleZoom(evt,'in')"/>
  <use id="zoomminus" xlink:href="#zoomMin" x="42" y="9" onmousedown="handleZoom(evt,'out')"/>
  <use id="reset" xlink:href="#resetDef" x="30" y="36" onmousedown="handleReset()"/>
   <use id="arrowup" xlink:href="#arrowUp" x="0" y="0" onmousedown="handlePan(0,-1)"/>
  <use id="arrowright" xlink:href="#arrowRight" x="0" y="0" onmousedown="handlePan(1,0)"/>
  <use id="arrowdown" xlink:href="#arrowDown" x="0" y="0" onmousedown="handlePan(0,1)"/>
  <use id="arrowleft" xlink:href="#arrowLeft" x="0" y="0" onmousedown="handlePan(-1,0)"/>
</g>
<svg viewBox="0 0 15 15" width="100%" height="30px" preserveAspectRatio="xMaxYMin meet">
 <g id="arrow_out" transform="scale(0.3 0.3)">
  <a xlink:href="class_bit_vector_a04e6d0b67ee9b42ccec437b0176067fe_icgraph_org.svg" target="_base">
   <rect id="button" ry="5" rx="5" y="6" x="6" height="38" width="38"
        fill="#f2f5e9" fill-opacity="0.5" stroke="#606060" stroke-width="1.0"/>
   <path id="arrow"
     d="M 11.500037,31.436501 C 11.940474,20.09759 22.043105,11.32322 32.158766,21.979434 L 37.068811,17.246167 C 37.068811,17.246167 37.088388,32 37.088388,32 L 22.160133,31.978069 C 22.160133,31.978069 26.997745,27.140456 26.997745,27.140456 C 18.528582,18.264221 13.291696,25.230495 11.500037,31.436501 z"
     style="fill:#404040;"/>
  </a>
 </g>
</svg>

<style type='text/css'>
<![CDATA[
[data-mouse-over-selected='false'] { opacity: 0.7; }
[data-mouse-over-selected='true']  { opacity: 1.0; }
]]>
</style>
<script type="application/ecmascript"><![CDATA[
document.addEventListener('DOMContentLoaded', (event) => {
  highlightEdges();
  highlightAdjacentNodes();
});
]]></script>
</svg>
