<?xml version="1.0" encoding="UTF-8" standalone="no"?>
<!DOCTYPE svg PUBLIC "-//W3C//DTD SVG 1.1//EN"
 "http://www.w3.org/Graphics/SVG/1.1/DTD/svg11.dtd">
<!-- Generated by graphviz version 2.43.0 (0)
 -->
<!-- Title: BitVector::set Pages: 1 -->
<svg width="657pt" height="130pt"
 viewBox="0.00 0.00 657.00 130.13" xmlns="http://www.w3.org/2000/svg" xmlns:xlink="http://www.w3.org/1999/xlink">
<g id="graph0" class="graph" transform="scale(1 1) rotate(0) translate(4 126.13)">
<title>BitVector::set</title>
<!-- Node1 -->
<g id="Node000001" class="node">
<title>Node1</title>
<g id="a_Node000001"><a xlink:title="Modify a bit inside BitVector::_data.">
<polygon fill="#999999" stroke="#666666" points="82,-65.13 0,-65.13 0,-46.13 82,-46.13 82,-65.13"/>
<text text-anchor="middle" x="41" y="-53.13" font-family="Helvetica,sans-Serif" font-size="10.00">BitVector::set</text>
</a>
</g>
</g>
<!-- Node2 -->
<g id="Node000002" class="node">
<title>Node2</title>
<g id="a_Node000002"><a xlink:href="class_bit_vector.html#aebe159444eb9d619959b7325ac5dac2d" target="_top" xlink:title="Return the value of the bit at the position coord.">
<polygon fill="white" stroke="#666666" points="506,-84.13 423,-84.13 423,-65.13 506,-65.13 506,-84.13"/>
<text text-anchor="middle" x="464.5" y="-72.13" font-family="Helvetica,sans-Serif" font-size="10.00">BitVector::get</text>
</a>
</g>
</g>
<!-- Node1&#45;&gt;Node2 -->
<g id="edge1_Node000001_Node000002" class="edge">
<title>Node1&#45;&gt;Node2</title>
<g id="a_edge1_Node000001_Node000002"><a xlink:title=" ">
<path fill="none" stroke="#63b8ff" d="M82.03,-57.43C159.07,-60.9 327.79,-68.51 412.64,-72.34"/>
<polygon fill="#63b8ff" stroke="#63b8ff" points="412.66,-75.84 422.81,-72.79 412.97,-68.85 412.66,-75.84"/>
</a>
</g>
</g>
<!-- Node3 -->
<g id="Node000003" class="node">
<title>Node3</title>
<g id="a_Node000003"><a xlink:href="class_bit_vector_1_1_coords.html#a2892f7f46c4af93f9733e312229d8ec1" target="_top" xlink:title="Get Coords::octet .">
<polygon fill="white" stroke="#666666" points="649,-51.63 542,-51.63 542,-21.63 649,-21.63 649,-51.63"/>
<text text-anchor="start" x="550" y="-39.63" font-family="Helvetica,sans-Serif" font-size="10.00">BitVector::Coords::</text>
<text text-anchor="middle" x="595.5" y="-28.63" font-family="Helvetica,sans-Serif" font-size="10.00">getOctet</text>
</a>
</g>
</g>
<!-- Node1&#45;&gt;Node3 -->
<g id="edge4_Node000001_Node000003" class="edge">
<title>Node1&#45;&gt;Node3</title>
<g id="a_edge4_Node000001_Node000003"><a xlink:title=" ">
<path fill="none" stroke="#63b8ff" d="M56.08,-46.07C70.78,-36.71 94.88,-23.08 118,-17.63 263.04,16.61 439.69,-6.69 531.8,-23.55"/>
<polygon fill="#63b8ff" stroke="#63b8ff" points="531.32,-27.02 541.79,-25.41 532.61,-20.14 531.32,-27.02"/>
</a>
</g>
</g>
<!-- Node4 -->
<g id="Node000004" class="node">
<title>Node4</title>
<g id="a_Node000004"><a xlink:href="class_bit_vector.html#ab4d98ce4b8d36ed6af1aa46e67810972" target="_top" xlink:title="Give the last coordinates thar can be contained inside BitVector::_data with the current BitVector::_...">
<polygon fill="white" stroke="#666666" points="218,-46.13 120,-46.13 120,-27.13 218,-27.13 218,-46.13"/>
<text text-anchor="middle" x="169" y="-34.13" font-family="Helvetica,sans-Serif" font-size="10.00">BitVector::lastBit</text>
</a>
</g>
</g>
<!-- Node1&#45;&gt;Node4 -->
<g id="edge5_Node000001_Node000004" class="edge">
<title>Node1&#45;&gt;Node4</title>
<g id="a_edge5_Node000001_Node000004"><a xlink:title=" ">
<path fill="none" stroke="#63b8ff" d="M82.21,-49.56C90.99,-48.24 100.46,-46.81 109.78,-45.41"/>
<polygon fill="#63b8ff" stroke="#63b8ff" points="110.43,-48.85 119.8,-43.9 109.39,-41.93 110.43,-48.85"/>
</a>
</g>
</g>
<!-- Node5 -->
<g id="Node000005" class="node">
<title>Node5</title>
<g id="a_Node000005"><a xlink:href="class_bit_vector.html#ab92cdd9780b949d9d762f58e1ee4a0ae" target="_top" xlink:title="Last postion of the vector.">
<polygon fill="white" stroke="#666666" points="220,-122.13 118,-122.13 118,-103.13 220,-103.13 220,-122.13"/>
<text text-anchor="middle" x="169" y="-110.13" font-family="Helvetica,sans-Serif" font-size="10.00">BitVector::lastPos</text>
</a>
</g>
</g>
<!-- Node1&#45;&gt;Node5 -->
<g id="edge6_Node000001_Node000005" class="edge">
<title>Node1&#45;&gt;Node5</title>
<g id="a_edge6_Node000001_Node000005"><a xlink:title=" ">
<path fill="none" stroke="#63b8ff" d="M63.09,-65.17C83.44,-74.38 114.47,-88.41 137.51,-98.84"/>
<polygon fill="#63b8ff" stroke="#63b8ff" points="136.29,-102.12 146.84,-103.06 139.17,-95.75 136.29,-102.12"/>
</a>
</g>
</g>
<!-- Node2&#45;&gt;Node2 -->
<g id="edge2_Node000002_Node000002" class="edge">
<title>Node2&#45;&gt;Node2</title>
<g id="a_edge2_Node000002_Node000002"><a xlink:title=" ">
<path fill="none" stroke="#63b8ff" d="M444.46,-84.21C434.72,-92.86 441.39,-102.13 464.5,-102.13 479.3,-102.13 487.36,-98.33 488.68,-93.32"/>
<polygon fill="#63b8ff" stroke="#63b8ff" points="491.86,-91.86 484.54,-84.21 485.49,-94.76 491.86,-91.86"/>
</a>
</g>
</g>
<!-- Node2&#45;&gt;Node3 -->
<g id="edge3_Node000002_Node000003" class="edge">
<title>Node2&#45;&gt;Node3</title>
<g id="a_edge3_Node000002_Node000003"><a xlink:title=" ">
<path fill="none" stroke="#63b8ff" d="M498.05,-65.04C508.89,-61.85 521.34,-58.18 533.61,-54.57"/>
<polygon fill="#63b8ff" stroke="#63b8ff" points="534.77,-57.87 543.38,-51.69 532.8,-51.16 534.77,-57.87"/>
</a>
</g>
</g>
<!-- Node6 -->
<g id="Node000006" class="node">
<title>Node6</title>
<g id="a_Node000006"><a xlink:href="class_bit_vector.html#a115789c8a9812eabb52f8843cd4e9965" target="_top" xlink:title="Give the a coord object that represent the size of 1 element inside BitVector::_data.">
<polygon fill="white" stroke="#666666" points="387,-122.13 256,-122.13 256,-103.13 387,-103.13 387,-122.13"/>
<text text-anchor="middle" x="321.5" y="-110.13" font-family="Helvetica,sans-Serif" font-size="10.00">BitVector::getCoordUnit</text>
</a>
</g>
</g>
<!-- Node5&#45;&gt;Node6 -->
<g id="edge7_Node000005_Node000006" class="edge">
<title>Node5&#45;&gt;Node6</title>
<g id="a_edge7_Node000005_Node000006"><a xlink:title=" ">
<path fill="none" stroke="#63b8ff" d="M220.11,-112.63C228.35,-112.63 237.04,-112.63 245.72,-112.63"/>
<polygon fill="#63b8ff" stroke="#63b8ff" points="245.88,-116.13 255.88,-112.63 245.88,-109.13 245.88,-116.13"/>
</a>
</g>
</g>
<!-- Node6&#45;&gt;Node2 -->
<g id="edge8_Node000006_Node000002" class="edge">
<title>Node6&#45;&gt;Node2</title>
<g id="a_edge8_Node000006_Node000002"><a xlink:title=" ">
<path fill="none" stroke="#63b8ff" d="M358.08,-103.04C376.28,-98.13 398.64,-92.11 418.07,-86.87"/>
<polygon fill="#63b8ff" stroke="#63b8ff" points="419.19,-90.2 427.93,-84.21 417.36,-83.44 419.19,-90.2"/>
</a>
</g>
</g>
</g>
</svg>
