<?xml version="1.0" encoding="UTF-8" standalone="no"?>
<!DOCTYPE svg PUBLIC "-//W3C//DTD SVG 1.1//EN"
 "http://www.w3.org/Graphics/SVG/1.1/DTD/svg11.dtd">
<!-- Generated by graphviz version 2.43.0 (0)
 -->
<!-- Title: Sequence::isAminoSpecific Pages: 1 -->
<!--zoomable 213 -->

<svg id="main" version="1.1" xmlns="http://www.w3.org/2000/svg" xmlns:xlink="http://www.w3.org/1999/xlink" xml:space="preserve" onload="init(evt)">
<style type="text/css"><![CDATA[
.node, .edge {opacity: 0.7;}
.node.selected, .edge.selected {opacity: 1;}
.edge:hover path { stroke: red; }
.edge:hover polygon { stroke: red; fill: red; }
]]></style>

<defs>
  <circle id="rim" cx="0" cy="0" r="7"/>
  <circle id="rim2" cx="0" cy="0" r="3.5"/>
  <g id="zoomPlus">
    <use xlink:href="#rim" fill="#404040"><set attributeName="fill" to="#808080" begin="zoomplus.mouseover" end="zoomplus.mouseout"/></use>
    <path d="M-4,0h8M0,-4v8" fill="none" stroke="white" stroke-width="1.5" pointer-events="none"/>
  </g>
  <g id="zoomMin">
    <use xlink:href="#rim" fill="#404040"><set attributeName="fill" to="#808080" begin="zoomminus.mouseover" end="zoomminus.mouseout"/></use>
    <path d="M-4,0h8" fill="none" stroke="white" stroke-width="1.5" pointer-events="none"/>
  </g>
  <g id="arrowUp" transform="translate(30 24)">
    <use xlink:href="#rim"/>
    <path pointer-events="none" fill="none" stroke="white" stroke-width="1.5" d="M0,-3.0v7 M-2.5,-0.5L0,-3.0L2.5,-0.5"/>
  </g>
  <g id="arrowRight" transform="rotate(90) translate(36 -43)">
    <use xlink:href="#rim"/>
    <path pointer-events="none" fill="none" stroke="white" stroke-width="1.5" d="M0,-3.0v7 M-2.5,-0.5L0,-3.0L2.5,-0.5"/>
  </g>
  <g id="arrowDown" transform="rotate(180) translate(-30 -48)">
    <use xlink:href="#rim"/>
    <path pointer-events="none" fill="none" stroke="white" stroke-width="1.5" d="M0,-3.0v7 M-2.5,-0.5L0,-3.0L2.5,-0.5"/>
  </g>
  <g id="arrowLeft" transform="rotate(270) translate(-36 17)">
    <use xlink:href="#rim"/>
    <path pointer-events="none" fill="none" stroke="white" stroke-width="1.5" d="M0,-3.0v7 M-2.5,-0.5L0,-3.0L2.5,-0.5"/>
  </g>
  <g id="resetDef">
    <use xlink:href="#rim2" fill="#404040"><set attributeName="fill" to="#808080" begin="reset.mouseover" end="reset.mouseout"/></use>
  </g>
</defs>
<script type="application/ecmascript">
var viewWidth = 1396;
var viewHeight = 213;
var sectionId = 'dynsection-30';
</script>
<script type="application/ecmascript" xlink:href="svg.min.js"/>
<svg id="graph" class="graph">
<g id="viewport">
<title>Sequence::isAminoSpecific</title>
<!-- Node1 -->
<g id="Node000001" class="node">
<title>Node1</title>
<g id="a_Node000001"><a xlink:title="Say if a symbol can only be found in acid nucleic related to amino acid.">
<polygon fill="#999999" stroke="#666666" points="147,-151 0,-151 0,-132 147,-132 147,-151"/>
<text text-anchor="middle" x="73.5" y="-139" font-family="Helvetica,sans-Serif" font-size="10.00">Sequence::isAminoSpecific</text>
</a>
</g>
</g>
<!-- Node2 -->
<g id="Node000002" class="node">
<title>Node2</title>
<g id="a_Node000002"><a xlink:href="class_sequence.html#ad40777fd2f7ad3ae247fab02459e6759" target="_top" xlink:title="Retrieve the symbol at the position in the sequence.">
<polygon fill="white" stroke="#666666" points="591,-113 505,-113 505,-94 591,-94 591,-113"/>
<text text-anchor="middle" x="548" y="-101" font-family="Helvetica,sans-Serif" font-size="10.00">Sequence::get</text>
</a>
</g>
</g>
<!-- Node1&#45;&gt;Node2 -->
<g id="edge1_Node000001_Node000002" class="edge">
<title>Node1&#45;&gt;Node2</title>
<g id="a_edge1_Node000001_Node000002"><a xlink:title=" ">
<path fill="none" stroke="#63b8ff" d="M108.3,-151.01C177.86,-168.91 341.24,-202.21 469,-160.5 493.22,-152.6 516.15,-134.01 530.8,-120.2"/>
<polygon fill="#63b8ff" stroke="#63b8ff" points="533.34,-122.61 538.05,-113.11 528.45,-117.6 533.34,-122.61"/>
</a>
</g>
</g>
<!-- Node11 -->
<g id="Node000011" class="node">
<title>Node11</title>
<g id="a_Node000011"><a xlink:href="class_sequence.html#a31e8f630c8d214e79ac9ef7d128e3c24" target="_top" xlink:title="Say if a symbol can be an amino acid.">
<polygon fill="white" stroke="#666666" points="295,-151 185,-151 185,-132 295,-132 295,-151"/>
<text text-anchor="middle" x="240" y="-139" font-family="Helvetica,sans-Serif" font-size="10.00">Sequence::isAmino</text>
</a>
</g>
</g>
<!-- Node1&#45;&gt;Node11 -->
<g id="edge14_Node000001_Node000011" class="edge">
<title>Node1&#45;&gt;Node11</title>
<g id="a_edge14_Node000001_Node000011"><a xlink:title=" ">
<path fill="none" stroke="#63b8ff" d="M147.13,-141.5C156.26,-141.5 165.55,-141.5 174.54,-141.5"/>
<polygon fill="#63b8ff" stroke="#63b8ff" points="174.55,-145 184.55,-141.5 174.55,-138 174.55,-145"/>
</a>
</g>
</g>
<!-- Node13 -->
<g id="Node000013" class="node">
<title>Node13</title>
<g id="a_Node000013"><a xlink:href="class_sequence.html#ab351491ae27a3b4daa4d6af021ae0af2" target="_top" xlink:title="Say if a symbol can be an acid nucleic.">
<polygon fill="white" stroke="#666666" points="297,-75 183,-75 183,-56 297,-56 297,-75"/>
<text text-anchor="middle" x="240" y="-63" font-family="Helvetica,sans-Serif" font-size="10.00">Sequence::isNucleic</text>
</a>
</g>
</g>
<!-- Node1&#45;&gt;Node13 -->
<g id="edge18_Node000001_Node000013" class="edge">
<title>Node1&#45;&gt;Node13</title>
<g id="a_edge18_Node000001_Node000013"><a xlink:title=" ">
<path fill="none" stroke="#63b8ff" d="M95.33,-131.87C124.13,-118.57 176.27,-94.48 209.19,-79.27"/>
<polygon fill="#63b8ff" stroke="#63b8ff" points="210.73,-82.42 218.34,-75.05 207.79,-76.06 210.73,-82.42"/>
</a>
</g>
</g>
<!-- Node2&#45;&gt;Node2 -->
<g id="edge5_Node000002_Node000002" class="edge">
<title>Node2&#45;&gt;Node2</title>
<g id="a_edge5_Node000002_Node000002"><a xlink:title=" ">
<path fill="none" stroke="#63b8ff" d="M525.5,-113.08C514.55,-121.73 522.05,-131 548,-131 564.62,-131 573.68,-127.2 575.16,-122.19"/>
<polygon fill="#63b8ff" stroke="#63b8ff" points="578.17,-120.39 570.5,-113.08 571.94,-123.58 578.17,-120.39"/>
</a>
</g>
</g>
<!-- Node3 -->
<g id="Node000003" class="node">
<title>Node3</title>
<g id="a_Node000003"><a xlink:href="class_bit_vector.html#aebe159444eb9d619959b7325ac5dac2d" target="_top" xlink:title="Return the value of the bit at the position coord.">
<polygon fill="white" stroke="#666666" points="744.5,-187 661.5,-187 661.5,-168 744.5,-168 744.5,-187"/>
<text text-anchor="middle" x="703" y="-175" font-family="Helvetica,sans-Serif" font-size="10.00">BitVector::get</text>
</a>
</g>
</g>
<!-- Node2&#45;&gt;Node3 -->
<g id="edge2_Node000002_Node000003" class="edge">
<title>Node2&#45;&gt;Node3</title>
<g id="a_edge2_Node000002_Node000003"><a xlink:title=" ">
<path fill="none" stroke="#63b8ff" d="M559.76,-113.34C574.07,-125.9 600.62,-147.43 627,-159.5 634.7,-163.02 643.18,-165.91 651.57,-168.25"/>
<polygon fill="#63b8ff" stroke="#63b8ff" points="650.78,-171.66 661.34,-170.75 652.52,-164.88 650.78,-171.66"/>
</a>
</g>
</g>
<!-- Node5 -->
<g id="Node000005" class="node">
<title>Node5</title>
<g id="a_Node000005"><a xlink:href="class_sequence.html#a8181f024304b3fb5f55c7118f648cc61" target="_top" xlink:title="Return a char (same format as Sequence::getType()) that indicate which alphabet is used in the during...">
<polygon fill="white" stroke="#666666" points="779,-150 627,-150 627,-131 779,-131 779,-150"/>
<text text-anchor="middle" x="703" y="-138" font-family="Helvetica,sans-Serif" font-size="10.00">Sequence::getEncodingType</text>
</a>
</g>
</g>
<!-- Node2&#45;&gt;Node5 -->
<g id="edge6_Node000002_Node000005" class="edge">
<title>Node2&#45;&gt;Node5</title>
<g id="a_edge6_Node000002_Node000005"><a xlink:title=" ">
<path fill="none" stroke="#63b8ff" d="M588.27,-113.09C600.66,-116.11 614.4,-119.45 627,-122.5 635.23,-124.49 643.97,-126.6 652.47,-128.64"/>
<polygon fill="#63b8ff" stroke="#63b8ff" points="651.75,-132.06 662.29,-131 653.39,-125.26 651.75,-132.06"/>
</a>
</g>
</g>
<!-- Node6 -->
<g id="Node000006" class="node">
<title>Node6</title>
<g id="a_Node000006"><a xlink:href="class_sequence.html#a49a9126010c0332493c803ddca005394" target="_top" xlink:title="Give a map that compress / decompress char used by Sequence.">
<polygon fill="white" stroke="#666666" points="772.5,-113 633.5,-113 633.5,-94 772.5,-94 772.5,-113"/>
<text text-anchor="middle" x="703" y="-101" font-family="Helvetica,sans-Serif" font-size="10.00">Sequence::translationTab</text>
</a>
</g>
</g>
<!-- Node2&#45;&gt;Node6 -->
<g id="edge7_Node000002_Node000006" class="edge">
<title>Node2&#45;&gt;Node6</title>
<g id="a_edge7_Node000002_Node000006"><a xlink:title=" ">
<path fill="none" stroke="#63b8ff" d="M591.21,-97.39C601.24,-96.99 612.25,-96.78 623.32,-96.75"/>
<polygon fill="#63b8ff" stroke="#63b8ff" points="623.47,-100.25 633.48,-96.78 623.49,-93.25 623.47,-100.25"/>
</a>
</g>
</g>
<!-- Node3&#45;&gt;Node3 -->
<g id="edge3_Node000003_Node000003" class="edge">
<title>Node3&#45;&gt;Node3</title>
<g id="a_edge3_Node000003_Node000003"><a xlink:title=" ">
<path fill="none" stroke="#63b8ff" d="M679.26,-187.08C667.72,-195.73 675.63,-205 703,-205 720.96,-205 730.54,-201.01 731.75,-195.82"/>
<polygon fill="#63b8ff" stroke="#63b8ff" points="734.75,-194.02 726.74,-187.08 728.67,-197.5 734.75,-194.02"/>
</a>
</g>
</g>
<!-- Node4 -->
<g id="Node000004" class="node">
<title>Node4</title>
<g id="a_Node000004"><a xlink:href="class_bit_vector_1_1_coords.html#a2892f7f46c4af93f9733e312229d8ec1" target="_top" xlink:title="Get Coords::octet .">
<polygon fill="white" stroke="#666666" points="932.5,-192.5 825.5,-192.5 825.5,-162.5 932.5,-162.5 932.5,-192.5"/>
<text text-anchor="start" x="833.5" y="-180.5" font-family="Helvetica,sans-Serif" font-size="10.00">BitVector::Coords::</text>
<text text-anchor="middle" x="879" y="-169.5" font-family="Helvetica,sans-Serif" font-size="10.00">getOctet</text>
</a>
</g>
</g>
<!-- Node3&#45;&gt;Node4 -->
<g id="edge4_Node000003_Node000004" class="edge">
<title>Node3&#45;&gt;Node4</title>
<g id="a_edge4_Node000003_Node000004"><a xlink:title=" ">
<path fill="none" stroke="#63b8ff" d="M744.8,-177.5C765.71,-177.5 791.64,-177.5 815.05,-177.5"/>
<polygon fill="#63b8ff" stroke="#63b8ff" points="815.25,-181 825.25,-177.5 815.25,-174 815.25,-181"/>
</a>
</g>
</g>
<!-- Node6&#45;&gt;Node2 -->
<g id="edge13_Node000006_Node000002" class="edge">
<title>Node6&#45;&gt;Node2</title>
<g id="a_edge13_Node000006_Node000002"><a xlink:title=" ">
<path fill="none" stroke="#63b8ff" d="M633.48,-110.22C622.68,-110.31 611.67,-110.21 601.32,-109.94"/>
<polygon fill="#63b8ff" stroke="#63b8ff" points="601.32,-106.44 591.21,-109.61 601.09,-113.44 601.32,-106.44"/>
</a>
</g>
</g>
<!-- Node7 -->
<g id="Node000007" class="node">
<title>Node7</title>
<g id="a_Node000007"><a xlink:href="class_sequence.html#a555c6e58957c4d07028eb5c67b1732ac" target="_top" xlink:title="Function used by Sequence::translationTab to create their compression map.">
<polygon fill="white" stroke="#666666" points="943,-94 815,-94 815,-75 943,-75 943,-94"/>
<text text-anchor="middle" x="879" y="-82" font-family="Helvetica,sans-Serif" font-size="10.00">Sequence::fillCodeMap</text>
</a>
</g>
</g>
<!-- Node6&#45;&gt;Node7 -->
<g id="edge8_Node000006_Node000007" class="edge">
<title>Node6&#45;&gt;Node7</title>
<g id="a_edge8_Node000006_Node000007"><a xlink:title=" ">
<path fill="none" stroke="#63b8ff" d="M772.77,-95.99C783.28,-94.84 794.16,-93.65 804.76,-92.5"/>
<polygon fill="#63b8ff" stroke="#63b8ff" points="805.26,-95.96 814.82,-91.4 804.5,-89.01 805.26,-95.96"/>
</a>
</g>
</g>
<!-- Node7&#45;&gt;Node2 -->
<g id="edge9_Node000007_Node000002" class="edge">
<title>Node7&#45;&gt;Node2</title>
<g id="a_edge9_Node000007_Node000002"><a xlink:title=" ">
<path fill="none" stroke="#63b8ff" d="M814.85,-80.88C763.95,-78.89 690.63,-78.12 627,-85.5 615.8,-86.8 603.86,-89.08 592.77,-91.6"/>
<polygon fill="#63b8ff" stroke="#63b8ff" points="591.8,-88.23 582.88,-93.95 593.42,-95.04 591.8,-88.23"/>
</a>
</g>
</g>
<!-- Node8 -->
<g id="Node000008" class="node">
<title>Node8</title>
<g id="a_Node000008"><a xlink:href="class_sequence.html#acf21040958590f98163b3d11f19ea93e" target="_top" xlink:title="Give the number of element contained in this sequence.">
<polygon fill="white" stroke="#666666" points="1068,-94 979,-94 979,-75 1068,-75 1068,-94"/>
<text text-anchor="middle" x="1023.5" y="-82" font-family="Helvetica,sans-Serif" font-size="10.00">Sequence::size</text>
</a>
</g>
</g>
<!-- Node7&#45;&gt;Node8 -->
<g id="edge10_Node000007_Node000008" class="edge">
<title>Node7&#45;&gt;Node8</title>
<g id="a_edge10_Node000007_Node000008"><a xlink:title=" ">
<path fill="none" stroke="#63b8ff" d="M943.33,-84.5C951.8,-84.5 960.42,-84.5 968.7,-84.5"/>
<polygon fill="#63b8ff" stroke="#63b8ff" points="968.98,-88 978.98,-84.5 968.98,-81 968.98,-88"/>
</a>
</g>
</g>
<!-- Node9 -->
<g id="Node000009" class="node">
<title>Node9</title>
<g id="a_Node000009"><a xlink:href="class_bit_vector.html#ab30ea2b408107e4e6bc8095b5a64a1dd" target="_top" xlink:title="Number of element inside this object.">
<polygon fill="white" stroke="#666666" points="1190,-94 1104,-94 1104,-75 1190,-75 1190,-94"/>
<text text-anchor="middle" x="1147" y="-82" font-family="Helvetica,sans-Serif" font-size="10.00">BitVector::size</text>
</a>
</g>
</g>
<!-- Node8&#45;&gt;Node9 -->
<g id="edge11_Node000008_Node000009" class="edge">
<title>Node8&#45;&gt;Node9</title>
<g id="a_edge11_Node000008_Node000009"><a xlink:title=" ">
<path fill="none" stroke="#63b8ff" d="M1068.02,-84.5C1076.25,-84.5 1084.94,-84.5 1093.41,-84.5"/>
<polygon fill="#63b8ff" stroke="#63b8ff" points="1093.6,-88 1103.6,-84.5 1093.6,-81 1093.6,-88"/>
</a>
</g>
</g>
<!-- Node10 -->
<g id="Node000010" class="node">
<title>Node10</title>
<g id="a_Node000010"><a xlink:href="class_bit_vector.html#a5339660cfb315ab5de7f78bdf5af4ce1" target="_top" xlink:title="Get BitVector::_element_number.">
<polygon fill="white" stroke="#666666" points="1388,-94 1226,-94 1226,-75 1388,-75 1388,-94"/>
<text text-anchor="middle" x="1307" y="-82" font-family="Helvetica,sans-Serif" font-size="10.00">BitVector::getElementNumber</text>
</a>
</g>
</g>
<!-- Node9&#45;&gt;Node10 -->
<g id="edge12_Node000009_Node000010" class="edge">
<title>Node9&#45;&gt;Node10</title>
<g id="a_edge12_Node000009_Node000010"><a xlink:title=" ">
<path fill="none" stroke="#63b8ff" d="M1190.34,-84.5C1198.23,-84.5 1206.74,-84.5 1215.44,-84.5"/>
<polygon fill="#63b8ff" stroke="#63b8ff" points="1215.71,-88 1225.71,-84.5 1215.71,-81 1215.71,-88"/>
</a>
</g>
</g>
<!-- Node11&#45;&gt;Node2 -->
<g id="edge15_Node000011_Node000002" class="edge">
<title>Node11&#45;&gt;Node2</title>
<g id="a_edge15_Node000011_Node000002"><a xlink:title=" ">
<path fill="none" stroke="#63b8ff" d="M295.21,-148.28C341.9,-152.52 410.76,-154.93 469,-141.5 488.57,-136.99 508.91,-126.87 523.91,-118.21"/>
<polygon fill="#63b8ff" stroke="#63b8ff" points="525.73,-121.2 532.51,-113.06 522.13,-115.19 525.73,-121.2"/>
</a>
</g>
</g>
<!-- Node12 -->
<g id="Node000012" class="node">
<title>Node12</title>
<g id="a_Node000012"><a xlink:href="class_sequence.html#a1c338fe40d1251531461f2a737f235cd" target="_top" xlink:title="Say if a symbol can be an amino acid.">
<polygon fill="white" stroke="#666666" points="469,-132 333,-132 333,-113 469,-113 469,-132"/>
<text text-anchor="middle" x="401" y="-120" font-family="Helvetica,sans-Serif" font-size="10.00">Sequence::isLegalAmino</text>
</a>
</g>
</g>
<!-- Node11&#45;&gt;Node12 -->
<g id="edge16_Node000011_Node000012" class="edge">
<title>Node11&#45;&gt;Node12</title>
<g id="a_edge16_Node000011_Node000012"><a xlink:title=" ">
<path fill="none" stroke="#63b8ff" d="M295.27,-135.01C304.13,-133.96 313.45,-132.84 322.72,-131.73"/>
<polygon fill="#63b8ff" stroke="#63b8ff" points="323.24,-135.2 332.75,-130.54 322.41,-128.25 323.24,-135.2"/>
</a>
</g>
</g>
<!-- Node12&#45;&gt;Node2 -->
<g id="edge17_Node000012_Node000002" class="edge">
<title>Node12&#45;&gt;Node2</title>
<g id="a_edge17_Node000012_Node000002"><a xlink:title=" ">
<path fill="none" stroke="#63b8ff" d="M469.41,-113.67C478.03,-112.54 486.75,-111.4 495.07,-110.3"/>
<polygon fill="#63b8ff" stroke="#63b8ff" points="495.54,-113.77 505,-109 494.63,-106.83 495.54,-113.77"/>
</a>
</g>
</g>
<!-- Node13&#45;&gt;Node2 -->
<g id="edge19_Node000013_Node000002" class="edge">
<title>Node13&#45;&gt;Node2</title>
<g id="a_edge19_Node000013_Node000002"><a xlink:title=" ">
<path fill="none" stroke="#63b8ff" d="M297.13,-72.47C353.53,-79.47 439.78,-90.19 494.77,-97.01"/>
<polygon fill="#63b8ff" stroke="#63b8ff" points="494.64,-100.52 504.99,-98.28 495.5,-93.58 494.64,-100.52"/>
</a>
</g>
</g>
<!-- Node14 -->
<g id="Node000014" class="node">
<title>Node14</title>
<g id="a_Node000014"><a xlink:href="class_sequence.html#a14cf335c6053ca586d4e1694898575cf" target="_top" xlink:title="Say if a symbol can be an acid nucleic related to DNA.">
<polygon fill="white" stroke="#666666" points="451,-56 351,-56 351,-37 451,-37 451,-56"/>
<text text-anchor="middle" x="401" y="-44" font-family="Helvetica,sans-Serif" font-size="10.00">Sequence::isDNA</text>
</a>
</g>
</g>
<!-- Node13&#45;&gt;Node14 -->
<g id="edge20_Node000013_Node000014" class="edge">
<title>Node13&#45;&gt;Node14</title>
<g id="a_edge20_Node000013_Node000014"><a xlink:title=" ">
<path fill="none" stroke="#63b8ff" d="M297.06,-58.8C311.16,-57.12 326.34,-55.3 340.6,-53.6"/>
<polygon fill="#63b8ff" stroke="#63b8ff" points="341.28,-57.04 350.79,-52.38 340.45,-50.09 341.28,-57.04"/>
</a>
</g>
</g>
<!-- Node15 -->
<g id="Node000015" class="node">
<title>Node15</title>
<g id="a_Node000015"><a xlink:href="class_sequence.html#ad04d994668bcc5d29c6813fcbc28dfb6" target="_top" xlink:title="Say if a symbol can be an acid nucleic related to RNA.">
<polygon fill="white" stroke="#666666" points="450.5,-19 351.5,-19 351.5,0 450.5,0 450.5,-19"/>
<text text-anchor="middle" x="401" y="-7" font-family="Helvetica,sans-Serif" font-size="10.00">Sequence::isRNA</text>
</a>
</g>
</g>
<!-- Node13&#45;&gt;Node15 -->
<g id="edge22_Node000013_Node000015" class="edge">
<title>Node13&#45;&gt;Node15</title>
<g id="a_edge22_Node000013_Node000015"><a xlink:title=" ">
<path fill="none" stroke="#63b8ff" d="M261.9,-55.96C280.36,-47.75 308.13,-35.94 333,-27.5 338.91,-25.49 345.18,-23.56 351.41,-21.76"/>
<polygon fill="#63b8ff" stroke="#63b8ff" points="352.44,-25.1 361.13,-19.03 350.55,-18.36 352.44,-25.1"/>
</a>
</g>
</g>
<!-- Node14&#45;&gt;Node2 -->
<g id="edge21_Node000014_Node000002" class="edge">
<title>Node14&#45;&gt;Node2</title>
<g id="a_edge21_Node000014_Node000002"><a xlink:title=" ">
<path fill="none" stroke="#63b8ff" d="M429.84,-56.08C441.93,-60.34 456.22,-65.51 469,-70.5 484.58,-76.58 501.72,-83.77 515.95,-89.89"/>
<polygon fill="#63b8ff" stroke="#63b8ff" points="514.71,-93.17 525.28,-93.92 517.49,-86.74 514.71,-93.17"/>
</a>
</g>
</g>
<!-- Node15&#45;&gt;Node2 -->
<g id="edge23_Node000015_Node000002" class="edge">
<title>Node15&#45;&gt;Node2</title>
<g id="a_edge23_Node000015_Node000002"><a xlink:title=" ">
<path fill="none" stroke="#63b8ff" d="M449.7,-19.06C456.4,-21.33 463.03,-24.1 469,-27.5 495.31,-42.47 519.21,-68.44 533.44,-85.8"/>
<polygon fill="#63b8ff" stroke="#63b8ff" points="530.99,-88.34 539.95,-93.98 536.46,-83.98 530.99,-88.34"/>
</a>
</g>
</g>
</g>
</svg>

<g id="navigator" transform="translate(0 0)" fill="#404254">
  <rect fill="#f2f5e9" fill-opacity="0.5" stroke="#606060" stroke-width=".5" x="0" y="0" width="60" height="60"/>
  <use id="zoomplus" xlink:href="#zoomPlus" x="17" y="9" onmousedown="handleZoom(evt,'in')"/>
  <use id="zoomminus" xlink:href="#zoomMin" x="42" y="9" onmousedown="handleZoom(evt,'out')"/>
  <use id="reset" xlink:href="#resetDef" x="30" y="36" onmousedown="handleReset()"/>
   <use id="arrowup" xlink:href="#arrowUp" x="0" y="0" onmousedown="handlePan(0,-1)"/>
  <use id="arrowright" xlink:href="#arrowRight" x="0" y="0" onmousedown="handlePan(1,0)"/>
  <use id="arrowdown" xlink:href="#arrowDown" x="0" y="0" onmousedown="handlePan(0,1)"/>
  <use id="arrowleft" xlink:href="#arrowLeft" x="0" y="0" onmousedown="handlePan(-1,0)"/>
</g>
<svg viewBox="0 0 15 15" width="100%" height="30px" preserveAspectRatio="xMaxYMin meet">
 <g id="arrow_out" transform="scale(0.3 0.3)">
  <a xlink:href="class_sequence_a14ee59cb34cf4d2087d1eabd3e4c6d4c_cgraph_org.svg" target="_base">
   <rect id="button" ry="5" rx="5" y="6" x="6" height="38" width="38"
        fill="#f2f5e9" fill-opacity="0.5" stroke="#606060" stroke-width="1.0"/>
   <path id="arrow"
     d="M 11.500037,31.436501 C 11.940474,20.09759 22.043105,11.32322 32.158766,21.979434 L 37.068811,17.246167 C 37.068811,17.246167 37.088388,32 37.088388,32 L 22.160133,31.978069 C 22.160133,31.978069 26.997745,27.140456 26.997745,27.140456 C 18.528582,18.264221 13.291696,25.230495 11.500037,31.436501 z"
     style="fill:#404040;"/>
  </a>
 </g>
</svg>

<style type='text/css'>
<![CDATA[
[data-mouse-over-selected='false'] { opacity: 0.7; }
[data-mouse-over-selected='true']  { opacity: 1.0; }
]]>
</style>
<script type="application/ecmascript"><![CDATA[
document.addEventListener('DOMContentLoaded', (event) => {
  highlightEdges();
  highlightAdjacentNodes();
});
]]></script>
</svg>
