<?xml version="1.0" encoding="UTF-8" standalone="no"?>
<!DOCTYPE svg PUBLIC "-//W3C//DTD SVG 1.1//EN"
 "http://www.w3.org/Graphics/SVG/1.1/DTD/svg11.dtd">
<!-- Generated by graphviz version 2.43.0 (0)
 -->
<!-- Title: Sequence::canBeRna Pages: 1 -->
<svg width="333pt" height="64pt"
 viewBox="0.00 0.00 333.00 64.00" xmlns="http://www.w3.org/2000/svg" xmlns:xlink="http://www.w3.org/1999/xlink">
<g id="graph0" class="graph" transform="scale(1 1) rotate(0) translate(4 60)">
<title>Sequence::canBeRna</title>
<!-- Node1 -->
<g id="Node000001" class="node">
<title>Node1</title>
<g id="a_Node000001"><a xlink:title="Say if a symbol can represent RNA.">
<polygon fill="#999999" stroke="#666666" points="325,-37 206,-37 206,-18 325,-18 325,-37"/>
<text text-anchor="middle" x="265.5" y="-25" font-family="Helvetica,sans-Serif" font-size="10.00">Sequence::canBeRna</text>
</a>
</g>
</g>
<!-- Node2 -->
<g id="Node000002" class="node">
<title>Node2</title>
<g id="a_Node000002"><a xlink:href="class_sequence.html#a71b6ac1cfbf97a9d2391d6e7c65319b1" target="_top" xlink:title="Say if a symbol can represent an nucleic acid.">
<polygon fill="white" stroke="#666666" points="153,-56 17,-56 17,-37 153,-37 153,-56"/>
<text text-anchor="middle" x="85" y="-44" font-family="Helvetica,sans-Serif" font-size="10.00">Sequence::canBeNucleic</text>
</a>
</g>
</g>
<!-- Node1&#45;&gt;Node2 -->
<g id="edge1_Node000001_Node000002" class="edge">
<title>Node1&#45;&gt;Node2</title>
<g id="a_edge1_Node000001_Node000002"><a xlink:title=" ">
<path fill="none" stroke="#63b8ff" d="M195.58,-34.84C181.67,-36.32 167.07,-37.87 153.22,-39.34"/>
<polygon fill="#63b8ff" stroke="#63b8ff" points="195.98,-38.31 205.56,-33.77 195.24,-31.35 195.98,-38.31"/>
</a>
</g>
</g>
<!-- Node3 -->
<g id="Node000003" class="node">
<title>Node3</title>
<g id="a_Node000003"><a xlink:href="class_sequence.html#af4dfd329689bebc4131b422d7974ca4e" target="_top" xlink:title="Get the Sequence::SequenceSymbol object attached to a symbol.">
<polygon fill="white" stroke="#666666" points="170,-19 0,-19 0,0 170,0 170,-19"/>
<text text-anchor="middle" x="85" y="-7" font-family="Helvetica,sans-Serif" font-size="10.00">Sequence::getSequenceSymbol</text>
</a>
</g>
</g>
<!-- Node1&#45;&gt;Node3 -->
<g id="edge2_Node000001_Node000003" class="edge">
<title>Node1&#45;&gt;Node3</title>
<g id="a_edge2_Node000001_Node000003"><a xlink:title=" ">
<path fill="none" stroke="#63b8ff" d="M195.53,-20.54C187.19,-19.7 178.6,-18.84 170.07,-17.98"/>
<polygon fill="#63b8ff" stroke="#63b8ff" points="195.26,-24.04 205.56,-21.56 195.96,-17.07 195.26,-24.04"/>
</a>
</g>
</g>
</g>
</svg>
