<?xml version="1.0" encoding="UTF-8" standalone="no"?>
<!DOCTYPE svg PUBLIC "-//W3C//DTD SVG 1.1//EN"
 "http://www.w3.org/Graphics/SVG/1.1/DTD/svg11.dtd">
<!-- Generated by graphviz version 2.43.0 (0)
 -->
<!-- Title: BitVector::Coords::getBit Pages: 1 -->
<svg width="1183pt" height="352pt"
 viewBox="0.00 0.00 1183.00 351.69" xmlns="http://www.w3.org/2000/svg" xmlns:xlink="http://www.w3.org/1999/xlink">
<g id="graph0" class="graph" transform="scale(1 1) rotate(0) translate(4 347.69)">
<title>BitVector::Coords::getBit</title>
<!-- Node1 -->
<g id="Node000001" class="node">
<title>Node1</title>
<g id="a_Node000001"><a xlink:title="Get Coords::bit .">
<polygon fill="#999999" stroke="#666666" points="1175,-193.5 1068,-193.5 1068,-163.5 1175,-163.5 1175,-193.5"/>
<text text-anchor="start" x="1076" y="-181.5" font-family="Helvetica,sans-Serif" font-size="10.00">BitVector::Coords::</text>
<text text-anchor="middle" x="1121.5" y="-170.5" font-family="Helvetica,sans-Serif" font-size="10.00">getBit</text>
</a>
</g>
</g>
<!-- Node2 -->
<g id="Node000002" class="node">
<title>Node2</title>
<g id="a_Node000002"><a xlink:href="class_bit_vector.html#a8c3c1f0faa0bbf35638c7217a841cbd8" target="_top" xlink:title=" ">
<polygon fill="white" stroke="#666666" points="1032,-188 923,-188 923,-169 1032,-169 1032,-188"/>
<text text-anchor="middle" x="977.5" y="-176" font-family="Helvetica,sans-Serif" font-size="10.00">BitVector::copyBits</text>
</a>
</g>
</g>
<!-- Node1&#45;&gt;Node2 -->
<g id="edge1_Node000001_Node000002" class="edge">
<title>Node1&#45;&gt;Node2</title>
<g id="a_edge1_Node000001_Node000002"><a xlink:title=" ">
<path fill="none" stroke="#63b8ff" d="M1057.5,-178.5C1049.12,-178.5 1040.58,-178.5 1032.37,-178.5"/>
<polygon fill="#63b8ff" stroke="#63b8ff" points="1057.62,-182 1067.62,-178.5 1057.62,-175 1057.62,-182"/>
</a>
</g>
</g>
<!-- Node3 -->
<g id="Node000003" class="node">
<title>Node3</title>
<g id="a_Node000003"><a xlink:href="class_bit_vector.html#a2d0fe43b80b63edbd64dc887fd87d915" target="_top" xlink:title="Return the element at the position index.">
<polygon fill="white" stroke="#666666" points="887,-207 804,-207 804,-188 887,-188 887,-207"/>
<text text-anchor="middle" x="845.5" y="-195" font-family="Helvetica,sans-Serif" font-size="10.00">BitVector::get</text>
</a>
</g>
</g>
<!-- Node2&#45;&gt;Node3 -->
<g id="edge2_Node000002_Node000003" class="edge">
<title>Node2&#45;&gt;Node3</title>
<g id="a_edge2_Node000002_Node000003"><a xlink:title=" ">
<path fill="none" stroke="#63b8ff" d="M912.75,-187.82C904.09,-189.08 895.4,-190.35 887.29,-191.54"/>
<polygon fill="#63b8ff" stroke="#63b8ff" points="913.48,-191.25 922.87,-186.34 912.47,-184.32 913.48,-191.25"/>
</a>
</g>
</g>
<!-- Node4 -->
<g id="Node000004" class="node">
<title>Node4</title>
<g id="a_Node000004"><a xlink:href="class_bit_vector.html#aca24053f655c825de0f06ec86fff1cec" target="_top" xlink:title="Replace an element by another element. Can add an element to the list if index = BitVector::_element_...">
<polygon fill="white" stroke="#666666" points="886.5,-170 804.5,-170 804.5,-151 886.5,-151 886.5,-170"/>
<text text-anchor="middle" x="845.5" y="-158" font-family="Helvetica,sans-Serif" font-size="10.00">BitVector::set</text>
</a>
</g>
</g>
<!-- Node2&#45;&gt;Node4 -->
<g id="edge3_Node000002_Node000004" class="edge">
<title>Node2&#45;&gt;Node4</title>
<g id="a_edge3_Node000002_Node000004"><a xlink:title=" ">
<path fill="none" stroke="#63b8ff" d="M912.92,-169.7C904.06,-168.47 895.16,-167.24 886.89,-166.09"/>
<polygon fill="#63b8ff" stroke="#63b8ff" points="912.49,-173.17 922.87,-171.07 913.45,-166.24 912.49,-173.17"/>
</a>
</g>
</g>
<!-- Node5 -->
<g id="Node000005" class="node">
<title>Node5</title>
<g id="a_Node000005"><a xlink:href="class_bit_vector.html#afbdbe8a5003f5941ffd5ab095cf87d88" target="_top" xlink:title="Add an element at the end of the vector.">
<polygon fill="white" stroke="#666666" points="767.5,-208 664.5,-208 664.5,-189 767.5,-189 767.5,-208"/>
<text text-anchor="middle" x="716" y="-196" font-family="Helvetica,sans-Serif" font-size="10.00">BitVector::append</text>
</a>
</g>
</g>
<!-- Node4&#45;&gt;Node5 -->
<g id="edge4_Node000004_Node000005" class="edge">
<title>Node4&#45;&gt;Node5</title>
<g id="a_edge4_Node000004_Node000005"><a xlink:title=" ">
<path fill="none" stroke="#63b8ff" d="M802.44,-173.04C785.1,-178.2 765.32,-184.1 749.16,-188.91"/>
<polygon fill="#63b8ff" stroke="#63b8ff" points="803.74,-176.3 812.33,-170.09 801.74,-169.59 803.74,-176.3"/>
</a>
</g>
</g>
<!-- Node6 -->
<g id="Node000006" class="node">
<title>Node6</title>
<g id="a_Node000006"><a xlink:href="class_bit_vector.html#a5547d55a697d61de026d0a94e743624b" target="_top" xlink:title="Construct a new Bit Vector object.">
<polygon fill="white" stroke="#666666" points="594.5,-227 483.5,-227 483.5,-208 594.5,-208 594.5,-227"/>
<text text-anchor="middle" x="539" y="-215" font-family="Helvetica,sans-Serif" font-size="10.00">BitVector::BitVector</text>
</a>
</g>
</g>
<!-- Node4&#45;&gt;Node6 -->
<g id="edge17_Node000004_Node000006" class="edge">
<title>Node4&#45;&gt;Node6</title>
<g id="a_edge17_Node000004_Node000006"><a xlink:title=" ">
<path fill="none" stroke="#63b8ff" d="M811.06,-174.93C808.61,-176.37 806.23,-177.89 804,-179.5 785.14,-193.12 789.37,-208.31 768,-217.5 707.46,-243.54 629.22,-235.71 581.92,-227.05"/>
<polygon fill="#63b8ff" stroke="#63b8ff" points="812.91,-177.91 820.11,-170.14 809.64,-171.73 812.91,-177.91"/>
</a>
</g>
</g>
<!-- Node7 -->
<g id="Node000007" class="node">
<title>Node7</title>
<g id="a_Node000007"><a xlink:href="class_bit_vector.html#a686af396e4dff1536b7588213726c4cc" target="_top" xlink:title="Insert a number of blank position inside BitVector::_data.">
<polygon fill="white" stroke="#666666" points="628,-170 450,-170 450,-151 628,-151 628,-170"/>
<text text-anchor="middle" x="539" y="-158" font-family="Helvetica,sans-Serif" font-size="10.00">BitVector::makeRoomForElement</text>
</a>
</g>
</g>
<!-- Node4&#45;&gt;Node7 -->
<g id="edge21_Node000004_Node000007" class="edge">
<title>Node4&#45;&gt;Node7</title>
<g id="a_edge21_Node000004_Node000007"><a xlink:title=" ">
<path fill="none" stroke="#63b8ff" d="M794.26,-160.5C749.18,-160.5 681.99,-160.5 628,-160.5"/>
<polygon fill="#63b8ff" stroke="#63b8ff" points="794.38,-164 804.38,-160.5 794.38,-157 794.38,-164"/>
</a>
</g>
</g>
<!-- Node8 -->
<g id="Node000008" class="node">
<title>Node8</title>
<g id="a_Node000008"><a xlink:href="class_sequence.html#aa48778c592160ac60319f780817f491c" target="_top" xlink:title="Insert a number of chars at the position position .">
<polygon fill="white" stroke="#666666" points="414,-284 316,-284 316,-265 414,-265 414,-284"/>
<text text-anchor="middle" x="365" y="-272" font-family="Helvetica,sans-Serif" font-size="10.00">Sequence::insert</text>
</a>
</g>
</g>
<!-- Node4&#45;&gt;Node8 -->
<g id="edge18_Node000004_Node000008" class="edge">
<title>Node4&#45;&gt;Node8</title>
<g id="a_edge18_Node000004_Node000008"><a xlink:title=" ">
<path fill="none" stroke="#63b8ff" d="M809.43,-175.23C807.52,-176.55 805.69,-177.98 804,-179.5 780.92,-200.34 794.37,-223.02 768,-239.5 657.21,-308.75 494.49,-295.68 414.3,-283.47"/>
<polygon fill="#63b8ff" stroke="#63b8ff" points="811.41,-178.13 818.24,-170.03 807.85,-172.1 811.41,-178.13"/>
</a>
</g>
</g>
<!-- Node15 -->
<g id="Node000015" class="node">
<title>Node15</title>
<g id="a_Node000015"><a xlink:href="class_bit_vector.html#a9f86c96c013632abd9d18feafe78d72e" target="_top" xlink:title="Insert a number_of_elements inside the vector at the index pos .">
<polygon fill="white" stroke="#666666" points="412.5,-151 317.5,-151 317.5,-132 412.5,-132 412.5,-151"/>
<text text-anchor="middle" x="365" y="-139" font-family="Helvetica,sans-Serif" font-size="10.00">BitVector::insert</text>
</a>
</g>
</g>
<!-- Node4&#45;&gt;Node15 -->
<g id="edge19_Node000004_Node000015" class="edge">
<title>Node4&#45;&gt;Node15</title>
<g id="a_edge19_Node000004_Node000015"><a xlink:title=" ">
<path fill="none" stroke="#63b8ff" d="M794.15,-155.18C750.31,-150.82 685.04,-144.98 628,-142.5 552.79,-139.24 465.32,-139.77 412.88,-140.56"/>
<polygon fill="#63b8ff" stroke="#63b8ff" points="793.96,-158.68 804.26,-156.2 794.66,-151.71 793.96,-158.68"/>
</a>
</g>
</g>
<!-- Node16 -->
<g id="Node000016" class="node">
<title>Node16</title>
<g id="a_Node000016"><a xlink:href="class_bit_vector.html#a915743b3f94c75c22317d160bfa741ff" target="_top" xlink:title="Insert a number_of_elements inside the vector at the index pos .">
<polygon fill="white" stroke="#666666" points="412.5,-114 317.5,-114 317.5,-95 412.5,-95 412.5,-114"/>
<text text-anchor="middle" x="365" y="-102" font-family="Helvetica,sans-Serif" font-size="10.00">BitVector::insert</text>
</a>
</g>
</g>
<!-- Node4&#45;&gt;Node16 -->
<g id="edge20_Node000004_Node000016" class="edge">
<title>Node4&#45;&gt;Node16</title>
<g id="a_edge20_Node000004_Node000016"><a xlink:title=" ">
<path fill="none" stroke="#63b8ff" d="M802.78,-148.25C791.56,-145.33 779.39,-142.48 768,-140.5 640.64,-118.31 488.05,-109.4 412.75,-106.16"/>
<polygon fill="#63b8ff" stroke="#63b8ff" points="802.18,-151.72 812.75,-150.93 804,-144.96 802.18,-151.72"/>
</a>
</g>
</g>
<!-- Node17 -->
<g id="Node000017" class="node">
<title>Node17</title>
<g id="a_Node000017"><a xlink:href="class_bit_vector.html#a2af5c1a1a0050e2b52d06c38436280fd" target="_top" xlink:title="Add an element at the end of the vector.">
<polygon fill="white" stroke="#666666" points="767.5,-56 664.5,-56 664.5,-37 767.5,-37 767.5,-56"/>
<text text-anchor="middle" x="716" y="-44" font-family="Helvetica,sans-Serif" font-size="10.00">BitVector::append</text>
</a>
</g>
</g>
<!-- Node4&#45;&gt;Node17 -->
<g id="edge16_Node000004_Node000017" class="edge">
<title>Node4&#45;&gt;Node17</title>
<g id="a_edge16_Node000004_Node000017"><a xlink:title=" ">
<path fill="none" stroke="#63b8ff" d="M832.75,-142.53C819.1,-122.79 795,-91.15 768,-70.5 760.46,-64.73 751.31,-59.89 742.86,-56.1"/>
<polygon fill="#63b8ff" stroke="#63b8ff" points="829.91,-144.59 838.41,-150.92 835.72,-140.68 829.91,-144.59"/>
</a>
</g>
</g>
<!-- Node18 -->
<g id="Node000018" class="node">
<title>Node18</title>
<g id="a_Node000018"><a xlink:href="class_bit_vector.html#a87f84edf5dd56606b26e8741ba6ced02" target="_top" xlink:title="Remove a number of element from the vector.">
<polygon fill="white" stroke="#666666" points="768,-322 664,-322 664,-303 768,-303 768,-322"/>
<text text-anchor="middle" x="716" y="-310" font-family="Helvetica,sans-Serif" font-size="10.00">BitVector::remove</text>
</a>
</g>
</g>
<!-- Node4&#45;&gt;Node18 -->
<g id="edge22_Node000004_Node000018" class="edge">
<title>Node4&#45;&gt;Node18</title>
<g id="a_edge22_Node000004_Node000018"><a xlink:title=" ">
<path fill="none" stroke="#63b8ff" d="M807.81,-175.79C806.45,-176.95 805.17,-178.18 804,-179.5 770.15,-217.67 801.83,-250.31 768,-288.5 762.55,-294.65 755.18,-299.35 747.75,-302.89"/>
<polygon fill="#63b8ff" stroke="#63b8ff" points="810,-178.54 816.31,-170.03 806.07,-172.75 810,-178.54"/>
</a>
</g>
</g>
<!-- Node20 -->
<g id="Node000020" class="node">
<title>Node20</title>
<g id="a_Node000020"><a xlink:href="class_bit_vector.html#a38e8be69974c874857dd7cb6a52429ac" target="_top" xlink:title="Replace an element by another element. Can add an element to the list if index = BitVector::_element_...">
<polygon fill="white" stroke="#666666" points="757,-19 675,-19 675,0 757,0 757,-19"/>
<text text-anchor="middle" x="716" y="-7" font-family="Helvetica,sans-Serif" font-size="10.00">BitVector::set</text>
</a>
</g>
</g>
<!-- Node4&#45;&gt;Node20 -->
<g id="edge25_Node000004_Node000020" class="edge">
<title>Node4&#45;&gt;Node20</title>
<g id="a_edge25_Node000004_Node000020"><a xlink:title=" ">
<path fill="none" stroke="#63b8ff" d="M838.32,-141.25C828.15,-112.52 805.22,-58.47 768,-27.5 763.89,-24.08 759.08,-21.29 754.08,-19.01"/>
<polygon fill="#63b8ff" stroke="#63b8ff" points="835.08,-142.58 841.6,-150.93 841.71,-140.33 835.08,-142.58"/>
</a>
</g>
</g>
<!-- Node5&#45;&gt;Node6 -->
<g id="edge5_Node000005_Node000006" class="edge">
<title>Node5&#45;&gt;Node6</title>
<g id="a_edge5_Node000005_Node000006"><a xlink:title=" ">
<path fill="none" stroke="#63b8ff" d="M654.18,-205.1C634.87,-207.2 613.64,-209.5 594.79,-211.55"/>
<polygon fill="#63b8ff" stroke="#63b8ff" points="654.82,-208.55 664.38,-204 654.06,-201.6 654.82,-208.55"/>
</a>
</g>
</g>
<!-- Node5&#45;&gt;Node7 -->
<g id="edge6_Node000005_Node000007" class="edge">
<title>Node5&#45;&gt;Node7</title>
<g id="a_edge6_Node000005_Node000007"><a xlink:title=" ">
<path fill="none" stroke="#63b8ff" d="M660.88,-186.75C636.13,-181.37 607.2,-175.09 583.84,-170.02"/>
<polygon fill="#63b8ff" stroke="#63b8ff" points="660.33,-190.21 670.84,-188.91 661.81,-183.37 660.33,-190.21"/>
</a>
</g>
</g>
<!-- Node7&#45;&gt;Node8 -->
<g id="edge7_Node000007_Node000008" class="edge">
<title>Node7&#45;&gt;Node8</title>
<g id="a_edge7_Node000007_Node000008"><a xlink:title=" ">
<path fill="none" stroke="#63b8ff" d="M500.99,-173.89C484.75,-180.52 465.81,-189.3 450,-199.5 419.77,-219 389.6,-249.22 375.02,-264.67"/>
<polygon fill="#63b8ff" stroke="#63b8ff" points="502.7,-176.98 510.71,-170.05 500.12,-170.48 502.7,-176.98"/>
</a>
</g>
</g>
<!-- Node7&#45;&gt;Node15 -->
<g id="edge14_Node000007_Node000015" class="edge">
<title>Node7&#45;&gt;Node15</title>
<g id="a_edge14_Node000007_Node000015"><a xlink:title=" ">
<path fill="none" stroke="#63b8ff" d="M441.71,-149.86C431.72,-148.76 421.91,-147.68 412.84,-146.67"/>
<polygon fill="#63b8ff" stroke="#63b8ff" points="441.42,-153.35 451.75,-150.97 442.19,-146.4 441.42,-153.35"/>
</a>
</g>
</g>
<!-- Node7&#45;&gt;Node16 -->
<g id="edge15_Node000007_Node000016" class="edge">
<title>Node7&#45;&gt;Node16</title>
<g id="a_edge15_Node000007_Node000016"><a xlink:title=" ">
<path fill="none" stroke="#63b8ff" d="M498.66,-147.69C467.14,-137.43 423.65,-123.27 395.18,-114"/>
<polygon fill="#63b8ff" stroke="#63b8ff" points="497.84,-151.11 508.43,-150.87 500.01,-144.45 497.84,-151.11"/>
</a>
</g>
</g>
<!-- Node9 -->
<g id="Node000009" class="node">
<title>Node9</title>
<g id="a_Node000009"><a xlink:href="class_sequence.html#a3cf6cf5e54782f4d1a2ee07ec519523c" target="_top" xlink:title="Insert a char at the position position .">
<polygon fill="white" stroke="#666666" points="268,-321 170,-321 170,-302 268,-302 268,-321"/>
<text text-anchor="middle" x="219" y="-309" font-family="Helvetica,sans-Serif" font-size="10.00">Sequence::insert</text>
</a>
</g>
</g>
<!-- Node8&#45;&gt;Node9 -->
<g id="edge8_Node000008_Node000009" class="edge">
<title>Node8&#45;&gt;Node9</title>
<g id="a_edge8_Node000008_Node000009"><a xlink:title=" ">
<path fill="none" stroke="#63b8ff" d="M317.09,-286.55C297.77,-291.52 275.68,-297.19 257.46,-301.88"/>
<polygon fill="#63b8ff" stroke="#63b8ff" points="318.1,-289.91 326.92,-284.03 316.36,-283.13 318.1,-289.91"/>
</a>
</g>
</g>
<!-- Node10 -->
<g id="Node000010" class="node">
<title>Node10</title>
<g id="a_Node000010"><a xlink:href="class_sequence.html#aa57fd5a7fdd173374e56006ce1c47bdc" target="_top" xlink:title="Insert a number of chars at the the back of the sequence position .">
<polygon fill="white" stroke="#666666" points="280,-284 158,-284 158,-265 280,-265 280,-284"/>
<text text-anchor="middle" x="219" y="-272" font-family="Helvetica,sans-Serif" font-size="10.00">Sequence::insertBack</text>
</a>
</g>
</g>
<!-- Node8&#45;&gt;Node10 -->
<g id="edge9_Node000008_Node000010" class="edge">
<title>Node8&#45;&gt;Node10</title>
<g id="a_edge9_Node000008_Node000010"><a xlink:title=" ">
<path fill="none" stroke="#63b8ff" d="M305.61,-274.5C297.25,-274.5 288.64,-274.5 280.25,-274.5"/>
<polygon fill="#63b8ff" stroke="#63b8ff" points="305.65,-278 315.65,-274.5 305.65,-271 305.65,-278"/>
</a>
</g>
</g>
<!-- Node11 -->
<g id="Node000011" class="node">
<title>Node11</title>
<g id="a_Node000011"><a xlink:href="class_sequence.html#a092f380b654de9aaa8a770ec0948c454" target="_top" xlink:title="Insert a number of chars at the the front of the sequence position .">
<polygon fill="white" stroke="#666666" points="280,-247 158,-247 158,-228 280,-228 280,-247"/>
<text text-anchor="middle" x="219" y="-235" font-family="Helvetica,sans-Serif" font-size="10.00">Sequence::insertFront</text>
</a>
</g>
</g>
<!-- Node8&#45;&gt;Node11 -->
<g id="edge10_Node000008_Node000011" class="edge">
<title>Node8&#45;&gt;Node11</title>
<g id="a_edge10_Node000008_Node000011"><a xlink:title=" ">
<path fill="none" stroke="#63b8ff" d="M317.09,-262.45C297.77,-257.48 275.68,-251.81 257.46,-247.12"/>
<polygon fill="#63b8ff" stroke="#63b8ff" points="316.36,-265.87 326.92,-264.97 318.1,-259.09 316.36,-265.87"/>
</a>
</g>
</g>
<!-- Node12 -->
<g id="Node000012" class="node">
<title>Node12</title>
<g id="a_Node000012"><a xlink:href="class_sequence.html#a16e70626e330194c1507ed339c9c629c" target="_top" xlink:title="Insert a char at the the back of the sequence position .">
<polygon fill="white" stroke="#666666" points="122,-284 0,-284 0,-265 122,-265 122,-284"/>
<text text-anchor="middle" x="61" y="-272" font-family="Helvetica,sans-Serif" font-size="10.00">Sequence::insertBack</text>
</a>
</g>
</g>
<!-- Node11&#45;&gt;Node12 -->
<g id="edge11_Node000011_Node000012" class="edge">
<title>Node11&#45;&gt;Node12</title>
<g id="a_edge11_Node000011_Node000012"><a xlink:title=" ">
<path fill="none" stroke="#63b8ff" d="M168.01,-249.36C146.78,-254.39 122.36,-260.18 102.31,-264.94"/>
<polygon fill="#63b8ff" stroke="#63b8ff" points="168.9,-252.74 177.83,-247.03 167.29,-245.93 168.9,-252.74"/>
</a>
</g>
</g>
<!-- Node13 -->
<g id="Node000013" class="node">
<title>Node13</title>
<g id="a_Node000013"><a xlink:href="class_sequence.html#a1fa6868ce587e1f3d779bb226cfda548" target="_top" xlink:title="Insert a char at the the front of the sequence position .">
<polygon fill="white" stroke="#666666" points="122,-247 0,-247 0,-228 122,-228 122,-247"/>
<text text-anchor="middle" x="61" y="-235" font-family="Helvetica,sans-Serif" font-size="10.00">Sequence::insertFront</text>
</a>
</g>
</g>
<!-- Node11&#45;&gt;Node13 -->
<g id="edge12_Node000011_Node000013" class="edge">
<title>Node11&#45;&gt;Node13</title>
<g id="a_edge12_Node000011_Node000013"><a xlink:title=" ">
<path fill="none" stroke="#63b8ff" d="M147.46,-237.5C139.01,-237.5 130.44,-237.5 122.15,-237.5"/>
<polygon fill="#63b8ff" stroke="#63b8ff" points="147.69,-241 157.69,-237.5 147.69,-234 147.69,-241"/>
</a>
</g>
</g>
<!-- Node14 -->
<g id="Node000014" class="node">
<title>Node14</title>
<g id="a_Node000014"><a xlink:href="class_sequence.html#ae293cd5124445b604bbcba3a5f01a48a" target="_top" xlink:title="Main Constructor. Construct a new Sequence object.">
<polygon fill="white" stroke="#666666" points="119.5,-210 2.5,-210 2.5,-191 119.5,-191 119.5,-210"/>
<text text-anchor="middle" x="61" y="-198" font-family="Helvetica,sans-Serif" font-size="10.00">Sequence::Sequence</text>
</a>
</g>
</g>
<!-- Node11&#45;&gt;Node14 -->
<g id="edge13_Node000011_Node000014" class="edge">
<title>Node11&#45;&gt;Node14</title>
<g id="a_edge13_Node000011_Node000014"><a xlink:title=" ">
<path fill="none" stroke="#63b8ff" d="M168.01,-225.64C146.78,-220.61 122.36,-214.82 102.31,-210.06"/>
<polygon fill="#63b8ff" stroke="#63b8ff" points="167.29,-229.07 177.83,-227.97 168.9,-222.26 167.29,-229.07"/>
</a>
</g>
</g>
<!-- Node18&#45;&gt;Node8 -->
<g id="edge24_Node000018_Node000008" class="edge">
<title>Node18&#45;&gt;Node8</title>
<g id="a_edge24_Node000018_Node000008"><a xlink:title=" ">
<path fill="none" stroke="#63b8ff" d="M673.42,-324.62C620.33,-338.05 526.22,-354.92 450,-331.5 419.68,-322.18 390.47,-297.79 375.8,-284.12"/>
<polygon fill="#63b8ff" stroke="#63b8ff" points="674.37,-327.99 683.16,-322.08 672.6,-321.22 674.37,-327.99"/>
</a>
</g>
</g>
<!-- Node19 -->
<g id="Node000019" class="node">
<title>Node19</title>
<g id="a_Node000019"><a xlink:href="class_sequence.html#a20eb6bdd6f5cba62a251eff4387a525d" target="_top" xlink:title="Remove a portion of the sequence.">
<polygon fill="white" stroke="#666666" points="587.5,-322 490.5,-322 490.5,-303 587.5,-303 587.5,-322"/>
<text text-anchor="middle" x="539" y="-310" font-family="Helvetica,sans-Serif" font-size="10.00">Sequence::erase</text>
</a>
</g>
</g>
<!-- Node18&#45;&gt;Node19 -->
<g id="edge23_Node000018_Node000019" class="edge">
<title>Node18&#45;&gt;Node19</title>
<g id="a_edge23_Node000018_Node000019"><a xlink:title=" ">
<path fill="none" stroke="#63b8ff" d="M653.8,-312.5C632.07,-312.5 607.97,-312.5 587.55,-312.5"/>
<polygon fill="#63b8ff" stroke="#63b8ff" points="653.91,-316 663.91,-312.5 653.91,-309 653.91,-316"/>
</a>
</g>
</g>
</g>
</svg>
