<?xml version="1.0" encoding="UTF-8" standalone="no"?>
<!DOCTYPE svg PUBLIC "-//W3C//DTD SVG 1.1//EN"
 "http://www.w3.org/Graphics/SVG/1.1/DTD/svg11.dtd">
<!-- Generated by graphviz version 2.43.0 (0)
 -->
<!-- Title: Sequence::insertBack Pages: 1 -->
<svg width="2132pt" height="722pt"
 viewBox="0.00 0.00 2132.00 721.87" xmlns="http://www.w3.org/2000/svg" xmlns:xlink="http://www.w3.org/1999/xlink">
<g id="graph0" class="graph" transform="scale(1 1) rotate(0) translate(4 717.87)">
<title>Sequence::insertBack</title>
<!-- Node1 -->
<g id="Node000001" class="node">
<title>Node1</title>
<g id="a_Node000001"><a xlink:title="Insert a number of chars at the the back of the sequence position .">
<polygon fill="#999999" stroke="#666666" points="122,-154 0,-154 0,-135 122,-135 122,-154"/>
<text text-anchor="middle" x="61" y="-142" font-family="Helvetica,sans-Serif" font-size="10.00">Sequence::insertBack</text>
</a>
</g>
</g>
<!-- Node2 -->
<g id="Node000002" class="node">
<title>Node2</title>
<g id="a_Node000002"><a xlink:href="class_sequence.html#ad40777fd2f7ad3ae247fab02459e6759" target="_top" xlink:title="Retrieve the symbol at the position in the sequence.">
<polygon fill="white" stroke="#666666" points="424,-107 338,-107 338,-88 424,-88 424,-107"/>
<text text-anchor="middle" x="381" y="-95" font-family="Helvetica,sans-Serif" font-size="10.00">Sequence::get</text>
</a>
</g>
</g>
<!-- Node1&#45;&gt;Node2 -->
<g id="edge1_Node000001_Node000002" class="edge">
<title>Node1&#45;&gt;Node2</title>
<g id="a_edge1_Node000001_Node000002"><a xlink:title=" ">
<path fill="none" stroke="#63b8ff" d="M122.19,-135.6C181.52,-126.84 271.26,-113.57 327.69,-105.23"/>
<polygon fill="#63b8ff" stroke="#63b8ff" points="328.45,-108.66 337.83,-103.73 327.43,-101.73 328.45,-108.66"/>
</a>
</g>
</g>
<!-- Node11 -->
<g id="Node000011" class="node">
<title>Node11</title>
<g id="a_Node000011"><a xlink:href="class_sequence.html#aa48778c592160ac60319f780817f491c" target="_top" xlink:title="Insert a number of chars at the position position .">
<polygon fill="white" stroke="#666666" points="256,-182 158,-182 158,-163 256,-163 256,-182"/>
<text text-anchor="middle" x="207" y="-170" font-family="Helvetica,sans-Serif" font-size="10.00">Sequence::insert</text>
</a>
</g>
</g>
<!-- Node1&#45;&gt;Node11 -->
<g id="edge14_Node000001_Node000011" class="edge">
<title>Node1&#45;&gt;Node11</title>
<g id="a_edge14_Node000001_Node000011"><a xlink:title=" ">
<path fill="none" stroke="#63b8ff" d="M111.15,-154.06C122.87,-156.34 135.48,-158.79 147.56,-161.14"/>
<polygon fill="#63b8ff" stroke="#63b8ff" points="147.07,-164.61 157.56,-163.08 148.41,-157.74 147.07,-164.61"/>
</a>
</g>
</g>
<!-- Node2&#45;&gt;Node2 -->
<g id="edge5_Node000002_Node000002" class="edge">
<title>Node2&#45;&gt;Node2</title>
<g id="a_edge5_Node000002_Node000002"><a xlink:title=" ">
<path fill="none" stroke="#63b8ff" d="M354.18,-107.08C341.13,-115.73 350.07,-125 381,-125 401.78,-125 412.63,-120.82 413.56,-115.45"/>
<polygon fill="#63b8ff" stroke="#63b8ff" points="416.36,-113.35 407.82,-107.08 410.59,-117.31 416.36,-113.35"/>
</a>
</g>
</g>
<!-- Node3 -->
<g id="Node000003" class="node">
<title>Node3</title>
<g id="a_Node000003"><a xlink:href="class_bit_vector.html#aebe159444eb9d619959b7325ac5dac2d" target="_top" xlink:title="Return the value of the bit at the position coord.">
<polygon fill="white" stroke="#666666" points="1981,-399 1898,-399 1898,-380 1981,-380 1981,-399"/>
<text text-anchor="middle" x="1939.5" y="-387" font-family="Helvetica,sans-Serif" font-size="10.00">BitVector::get</text>
</a>
</g>
</g>
<!-- Node2&#45;&gt;Node3 -->
<g id="edge2_Node000002_Node000003" class="edge">
<title>Node2&#45;&gt;Node3</title>
<g id="a_edge2_Node000002_Node000003"><a xlink:title=" ">
<path fill="none" stroke="#63b8ff" d="M424.07,-88.56C495.53,-74.18 645.37,-47.5 773.5,-47.5 773.5,-47.5 773.5,-47.5 1578,-47.5 1706.09,-47.5 1767.68,-9.84 1862,-96.5 1903.01,-134.18 1928.53,-310.14 1936.12,-369.72"/>
<polygon fill="#63b8ff" stroke="#63b8ff" points="1932.65,-370.23 1937.36,-379.72 1939.6,-369.37 1932.65,-370.23"/>
</a>
</g>
</g>
<!-- Node5 -->
<g id="Node000005" class="node">
<title>Node5</title>
<g id="a_Node000005"><a xlink:href="class_sequence.html#a8181f024304b3fb5f55c7118f648cc61" target="_top" xlink:title="Return a char (same format as Sequence::getType()) that indicate which alphabet is used in the during...">
<polygon fill="white" stroke="#666666" points="658,-19 506,-19 506,0 658,0 658,-19"/>
<text text-anchor="middle" x="582" y="-7" font-family="Helvetica,sans-Serif" font-size="10.00">Sequence::getEncodingType</text>
</a>
</g>
</g>
<!-- Node2&#45;&gt;Node5 -->
<g id="edge6_Node000002_Node000005" class="edge">
<title>Node2&#45;&gt;Node5</title>
<g id="a_edge6_Node000002_Node000005"><a xlink:title=" ">
<path fill="none" stroke="#63b8ff" d="M398.43,-87.9C421.78,-74.51 466.17,-50.02 506,-33.5 515.95,-29.37 526.89,-25.51 537.25,-22.15"/>
<polygon fill="#63b8ff" stroke="#63b8ff" points="538.49,-25.43 546.97,-19.08 536.38,-18.75 538.49,-25.43"/>
</a>
</g>
</g>
<!-- Node6 -->
<g id="Node000006" class="node">
<title>Node6</title>
<g id="a_Node000006"><a xlink:href="class_sequence.html#a49a9126010c0332493c803ddca005394" target="_top" xlink:title="Give a map that compress / decompress char used by Sequence.">
<polygon fill="white" stroke="#666666" points="651.5,-133 512.5,-133 512.5,-114 651.5,-114 651.5,-133"/>
<text text-anchor="middle" x="582" y="-121" font-family="Helvetica,sans-Serif" font-size="10.00">Sequence::translationTab</text>
</a>
</g>
</g>
<!-- Node2&#45;&gt;Node6 -->
<g id="edge7_Node000002_Node000006" class="edge">
<title>Node2&#45;&gt;Node6</title>
<g id="a_edge7_Node000002_Node000006"><a xlink:title=" ">
<path fill="none" stroke="#63b8ff" d="M424.2,-97.38C457.6,-100.27 504.06,-106.33 537.73,-112.16"/>
<polygon fill="#63b8ff" stroke="#63b8ff" points="537.28,-115.64 547.74,-113.97 538.52,-108.75 537.28,-115.64"/>
</a>
</g>
</g>
<!-- Node3&#45;&gt;Node3 -->
<g id="edge3_Node000003_Node000003" class="edge">
<title>Node3&#45;&gt;Node3</title>
<g id="a_edge3_Node000003_Node000003"><a xlink:title=" ">
<path fill="none" stroke="#63b8ff" d="M1919.46,-399.08C1909.72,-407.73 1916.39,-417 1939.5,-417 1954.3,-417 1962.36,-413.2 1963.68,-408.19"/>
<polygon fill="#63b8ff" stroke="#63b8ff" points="1966.86,-406.73 1959.54,-399.08 1960.49,-409.63 1966.86,-406.73"/>
</a>
</g>
</g>
<!-- Node4 -->
<g id="Node000004" class="node">
<title>Node4</title>
<g id="a_Node000004"><a xlink:href="class_bit_vector_1_1_coords.html#a2892f7f46c4af93f9733e312229d8ec1" target="_top" xlink:title="Get Coords::octet .">
<polygon fill="white" stroke="#666666" points="2124,-404.5 2017,-404.5 2017,-374.5 2124,-374.5 2124,-404.5"/>
<text text-anchor="start" x="2025" y="-392.5" font-family="Helvetica,sans-Serif" font-size="10.00">BitVector::Coords::</text>
<text text-anchor="middle" x="2070.5" y="-381.5" font-family="Helvetica,sans-Serif" font-size="10.00">getOctet</text>
</a>
</g>
</g>
<!-- Node3&#45;&gt;Node4 -->
<g id="edge4_Node000003_Node000004" class="edge">
<title>Node3&#45;&gt;Node4</title>
<g id="a_edge4_Node000003_Node000004"><a xlink:title=" ">
<path fill="none" stroke="#63b8ff" d="M1981.32,-389.5C1989.38,-389.5 1998.02,-389.5 2006.62,-389.5"/>
<polygon fill="#63b8ff" stroke="#63b8ff" points="2006.66,-393 2016.66,-389.5 2006.66,-386 2006.66,-393"/>
</a>
</g>
</g>
<!-- Node6&#45;&gt;Node2 -->
<g id="edge13_Node000006_Node000002" class="edge">
<title>Node6&#45;&gt;Node2</title>
<g id="a_edge13_Node000006_Node000002"><a xlink:title=" ">
<path fill="none" stroke="#63b8ff" d="M512.47,-121C483.59,-117.8 450.85,-113.27 425.39,-108.86"/>
<polygon fill="#63b8ff" stroke="#63b8ff" points="425.77,-105.37 415.31,-107.04 424.53,-112.26 425.77,-105.37"/>
</a>
</g>
</g>
<!-- Node7 -->
<g id="Node000007" class="node">
<title>Node7</title>
<g id="a_Node000007"><a xlink:href="class_sequence.html#a555c6e58957c4d07028eb5c67b1732ac" target="_top" xlink:title="Function used by Sequence::translationTab to create their compression map.">
<polygon fill="white" stroke="#666666" points="838.5,-95 710.5,-95 710.5,-76 838.5,-76 838.5,-95"/>
<text text-anchor="middle" x="774.5" y="-83" font-family="Helvetica,sans-Serif" font-size="10.00">Sequence::fillCodeMap</text>
</a>
</g>
</g>
<!-- Node6&#45;&gt;Node7 -->
<g id="edge8_Node000006_Node000007" class="edge">
<title>Node6&#45;&gt;Node7</title>
<g id="a_edge8_Node000006_Node000007"><a xlink:title=" ">
<path fill="none" stroke="#63b8ff" d="M631.07,-113.91C656.78,-108.78 688.61,-102.43 715.66,-97.04"/>
<polygon fill="#63b8ff" stroke="#63b8ff" points="716.65,-100.41 725.77,-95.02 715.28,-93.54 716.65,-100.41"/>
</a>
</g>
</g>
<!-- Node7&#45;&gt;Node2 -->
<g id="edge9_Node000007_Node000002" class="edge">
<title>Node7&#45;&gt;Node2</title>
<g id="a_edge9_Node000007_Node000002"><a xlink:title=" ">
<path fill="none" stroke="#63b8ff" d="M710.49,-87.43C633.85,-89.78 505.89,-93.7 434.39,-95.89"/>
<polygon fill="#63b8ff" stroke="#63b8ff" points="434.16,-92.4 424.27,-96.2 434.37,-99.4 434.16,-92.4"/>
</a>
</g>
</g>
<!-- Node8 -->
<g id="Node000008" class="node">
<title>Node8</title>
<g id="a_Node000008"><a xlink:href="class_sequence.html#acf21040958590f98163b3d11f19ea93e" target="_top" xlink:title="Give the number of element contained in this sequence.">
<polygon fill="white" stroke="#666666" points="1006.5,-95 917.5,-95 917.5,-76 1006.5,-76 1006.5,-95"/>
<text text-anchor="middle" x="962" y="-83" font-family="Helvetica,sans-Serif" font-size="10.00">Sequence::size</text>
</a>
</g>
</g>
<!-- Node7&#45;&gt;Node8 -->
<g id="edge10_Node000007_Node000008" class="edge">
<title>Node7&#45;&gt;Node8</title>
<g id="a_edge10_Node000007_Node000008"><a xlink:title=" ">
<path fill="none" stroke="#63b8ff" d="M838.56,-85.5C860.86,-85.5 885.71,-85.5 907.17,-85.5"/>
<polygon fill="#63b8ff" stroke="#63b8ff" points="907.4,-89 917.4,-85.5 907.4,-82 907.4,-89"/>
</a>
</g>
</g>
<!-- Node9 -->
<g id="Node000009" class="node">
<title>Node9</title>
<g id="a_Node000009"><a xlink:href="class_bit_vector.html#ab30ea2b408107e4e6bc8095b5a64a1dd" target="_top" xlink:title="Number of element inside this object.">
<polygon fill="white" stroke="#666666" points="1203.5,-95 1117.5,-95 1117.5,-76 1203.5,-76 1203.5,-95"/>
<text text-anchor="middle" x="1160.5" y="-83" font-family="Helvetica,sans-Serif" font-size="10.00">BitVector::size</text>
</a>
</g>
</g>
<!-- Node8&#45;&gt;Node9 -->
<g id="edge11_Node000008_Node000009" class="edge">
<title>Node8&#45;&gt;Node9</title>
<g id="a_edge11_Node000008_Node000009"><a xlink:title=" ">
<path fill="none" stroke="#63b8ff" d="M1006.61,-85.5C1036.27,-85.5 1075.68,-85.5 1107.05,-85.5"/>
<polygon fill="#63b8ff" stroke="#63b8ff" points="1107.36,-89 1117.36,-85.5 1107.36,-82 1107.36,-89"/>
</a>
</g>
</g>
<!-- Node10 -->
<g id="Node000010" class="node">
<title>Node10</title>
<g id="a_Node000010"><a xlink:href="class_bit_vector.html#a5339660cfb315ab5de7f78bdf5af4ce1" target="_top" xlink:title="Get BitVector::_element_number.">
<polygon fill="white" stroke="#666666" points="1450,-95 1288,-95 1288,-76 1450,-76 1450,-95"/>
<text text-anchor="middle" x="1369" y="-83" font-family="Helvetica,sans-Serif" font-size="10.00">BitVector::getElementNumber</text>
</a>
</g>
</g>
<!-- Node9&#45;&gt;Node10 -->
<g id="edge12_Node000009_Node000010" class="edge">
<title>Node9&#45;&gt;Node10</title>
<g id="a_edge12_Node000009_Node000010"><a xlink:title=" ">
<path fill="none" stroke="#63b8ff" d="M1203.54,-85.5C1224.88,-85.5 1251.68,-85.5 1277.42,-85.5"/>
<polygon fill="#63b8ff" stroke="#63b8ff" points="1277.6,-89 1287.6,-85.5 1277.6,-82 1277.6,-89"/>
</a>
</g>
</g>
<!-- Node11&#45;&gt;Node2 -->
<g id="edge15_Node000011_Node000002" class="edge">
<title>Node11&#45;&gt;Node2</title>
<g id="a_edge15_Node000011_Node000002"><a xlink:title=" ">
<path fill="none" stroke="#63b8ff" d="M230.13,-162.85C260.19,-149.74 314.1,-126.24 348.41,-111.28"/>
<polygon fill="#63b8ff" stroke="#63b8ff" points="350.18,-114.32 357.95,-107.11 347.39,-107.9 350.18,-114.32"/>
</a>
</g>
</g>
<!-- Node11&#45;&gt;Node6 -->
<g id="edge58_Node000011_Node000006" class="edge">
<title>Node11&#45;&gt;Node6</title>
<g id="a_edge58_Node000011_Node000006"><a xlink:title=" ">
<path fill="none" stroke="#63b8ff" d="M256.38,-166.14C318.7,-157.96 427.82,-143.62 502.18,-133.85"/>
<polygon fill="#63b8ff" stroke="#63b8ff" points="502.98,-137.28 512.44,-132.51 502.07,-130.34 502.98,-137.28"/>
</a>
</g>
</g>
<!-- Node12 -->
<g id="Node000012" class="node">
<title>Node12</title>
<g id="a_Node000012"><a xlink:href="class_bit_vector.html#a686af396e4dff1536b7588213726c4cc" target="_top" xlink:title="Insert a number of blank position inside BitVector::_data.">
<polygon fill="white" stroke="#666666" points="470,-360 292,-360 292,-341 470,-341 470,-360"/>
<text text-anchor="middle" x="381" y="-348" font-family="Helvetica,sans-Serif" font-size="10.00">BitVector::makeRoomForElement</text>
</a>
</g>
</g>
<!-- Node11&#45;&gt;Node12 -->
<g id="edge16_Node000011_Node000012" class="edge">
<title>Node11&#45;&gt;Node12</title>
<g id="a_edge16_Node000011_Node000012"><a xlink:title=" ">
<path fill="none" stroke="#63b8ff" d="M217.25,-182.07C245.01,-210.8 327.92,-296.6 363.49,-333.42"/>
<polygon fill="#63b8ff" stroke="#63b8ff" points="361.24,-336.12 370.71,-340.88 366.27,-331.26 361.24,-336.12"/>
</a>
</g>
</g>
<!-- Node14 -->
<g id="Node000014" class="node">
<title>Node14</title>
<g id="a_Node000014"><a xlink:href="class_bit_vector.html#aca24053f655c825de0f06ec86fff1cec" target="_top" xlink:title="Replace an element by another element. Can add an element to the list if index = BitVector::_element_...">
<polygon fill="white" stroke="#666666" points="815.5,-474 733.5,-474 733.5,-455 815.5,-455 815.5,-474"/>
<text text-anchor="middle" x="774.5" y="-462" font-family="Helvetica,sans-Serif" font-size="10.00">BitVector::set</text>
</a>
</g>
</g>
<!-- Node11&#45;&gt;Node14 -->
<g id="edge57_Node000011_Node000014" class="edge">
<title>Node11&#45;&gt;Node14</title>
<g id="a_edge57_Node000011_Node000014"><a xlink:title=" ">
<path fill="none" stroke="#63b8ff" d="M209.34,-182.26C214.2,-213.91 233.77,-314.77 292,-368.5 413.34,-480.46 626.7,-477.96 723.38,-470.1"/>
<polygon fill="#63b8ff" stroke="#63b8ff" points="723.81,-473.58 733.47,-469.23 723.21,-466.61 723.81,-473.58"/>
</a>
</g>
</g>
<!-- Node27 -->
<g id="Node000027" class="node">
<title>Node27</title>
<g id="a_Node000027"><a xlink:href="class_bit_vector.html#a87f84edf5dd56606b26e8741ba6ced02" target="_top" xlink:title="Remove a number of element from the vector.">
<polygon fill="white" stroke="#666666" points="634,-201 530,-201 530,-182 634,-182 634,-201"/>
<text text-anchor="middle" x="582" y="-189" font-family="Helvetica,sans-Serif" font-size="10.00">BitVector::remove</text>
</a>
</g>
</g>
<!-- Node11&#45;&gt;Node27 -->
<g id="edge44_Node000011_Node000027" class="edge">
<title>Node11&#45;&gt;Node27</title>
<g id="a_edge44_Node000011_Node000027"><a xlink:title=" ">
<path fill="none" stroke="#63b8ff" d="M256.38,-174.96C323.78,-178.4 445.93,-184.62 519.65,-188.37"/>
<polygon fill="#63b8ff" stroke="#63b8ff" points="519.55,-191.87 529.72,-188.89 519.91,-184.88 519.55,-191.87"/>
</a>
</g>
</g>
<!-- Node12&#45;&gt;Node3 -->
<g id="edge41_Node000012_Node000003" class="edge">
<title>Node12&#45;&gt;Node3</title>
<g id="a_edge41_Node000012_Node000003"><a xlink:title=" ">
<path fill="none" stroke="#63b8ff" d="M466.5,-340.97C596.02,-326.66 851.49,-299.57 1069,-283.5 1254.06,-269.82 1300.49,-267.17 1486,-262.5 1566.86,-260.47 1587.12,-261.67 1668,-262.5 1754.24,-263.39 1787.05,-223.84 1862,-266.5 1901.73,-289.11 1923.61,-341.63 1932.96,-370.18"/>
<polygon fill="#63b8ff" stroke="#63b8ff" points="1929.64,-371.31 1935.94,-379.84 1936.33,-369.25 1929.64,-371.31"/>
</a>
</g>
</g>
<!-- Node13 -->
<g id="Node000013" class="node">
<title>Node13</title>
<g id="a_Node000013"><a xlink:href="class_bit_vector.html#afbdbe8a5003f5941ffd5ab095cf87d88" target="_top" xlink:title="Add an element at the end of the vector.">
<polygon fill="white" stroke="#666666" points="633.5,-398 530.5,-398 530.5,-379 633.5,-379 633.5,-398"/>
<text text-anchor="middle" x="582" y="-386" font-family="Helvetica,sans-Serif" font-size="10.00">BitVector::append</text>
</a>
</g>
</g>
<!-- Node12&#45;&gt;Node13 -->
<g id="edge17_Node000012_Node000013" class="edge">
<title>Node12&#45;&gt;Node13</title>
<g id="a_edge17_Node000012_Node000013"><a xlink:title=" ">
<path fill="none" stroke="#63b8ff" d="M431.96,-360.04C459.05,-365.21 492.71,-371.64 521.18,-377.08"/>
<polygon fill="#63b8ff" stroke="#63b8ff" points="520.54,-380.52 531.02,-378.96 521.85,-373.64 520.54,-380.52"/>
</a>
</g>
</g>
<!-- Node12&#45;&gt;Node14 -->
<g id="edge43_Node000012_Node000014" class="edge">
<title>Node12&#45;&gt;Node14</title>
<g id="a_edge43_Node000012_Node000014"><a xlink:title=" ">
<path fill="none" stroke="#63b8ff" d="M400,-360.09C423.71,-372.38 466.97,-393.62 506,-406.5 579.98,-430.92 668.9,-447.85 723.3,-456.87"/>
<polygon fill="#63b8ff" stroke="#63b8ff" points="722.94,-460.35 733.37,-458.51 724.06,-453.45 722.94,-460.35"/>
</a>
</g>
</g>
<!-- Node22 -->
<g id="Node000022" class="node">
<title>Node22</title>
<g id="a_Node000022"><a xlink:href="class_bit_vector.html#ad36e7d0b4b1417ca434414fa40c72eb8" target="_top" xlink:title="How many element can be contained in this object knowing BitVector::_element_size.">
<polygon fill="white" stroke="#666666" points="1446,-409 1292,-409 1292,-390 1446,-390 1446,-409"/>
<text text-anchor="middle" x="1369" y="-397" font-family="Helvetica,sans-Serif" font-size="10.00">BitVector::maxElementLimit</text>
</a>
</g>
</g>
<!-- Node12&#45;&gt;Node22 -->
<g id="edge42_Node000012_Node000022" class="edge">
<title>Node12&#45;&gt;Node22</title>
<g id="a_edge42_Node000012_Node000022"><a xlink:title=" ">
<path fill="none" stroke="#63b8ff" d="M470.24,-350.5C549.59,-350.5 669.34,-350.5 773.5,-350.5 773.5,-350.5 773.5,-350.5 963,-350.5 1087.55,-350.5 1232.09,-373.62 1310.39,-388.1"/>
<polygon fill="#63b8ff" stroke="#63b8ff" points="1310.06,-391.6 1320.53,-389.99 1311.34,-384.72 1310.06,-391.6"/>
</a>
</g>
</g>
<!-- Node13&#45;&gt;Node14 -->
<g id="edge18_Node000013_Node000014" class="edge">
<title>Node13&#45;&gt;Node14</title>
<g id="a_edge18_Node000013_Node000014"><a xlink:title=" ">
<path fill="none" stroke="#63b8ff" d="M615.77,-398.1C629,-402.21 644.34,-407.26 658,-412.5 688.18,-424.08 721.78,-439.51 744.93,-450.54"/>
<polygon fill="#63b8ff" stroke="#63b8ff" points="743.64,-453.81 754.17,-454.98 746.67,-447.5 743.64,-453.81"/>
</a>
</g>
</g>
<!-- Node14&#45;&gt;Node3 -->
<g id="edge22_Node000014_Node000003" class="edge">
<title>Node14&#45;&gt;Node3</title>
<g id="a_edge22_Node000014_Node000003"><a xlink:title=" ">
<path fill="none" stroke="#63b8ff" d="M778.75,-474.18C789.47,-504.64 826.8,-599.26 891,-646.5 990.06,-719.39 1036.51,-713.5 1159.5,-713.5 1159.5,-713.5 1159.5,-713.5 1578,-713.5 1711.82,-713.5 1767.82,-708.57 1862,-613.5 1919.61,-555.34 1933.88,-452.07 1937.38,-409.1"/>
<polygon fill="#63b8ff" stroke="#63b8ff" points="1940.87,-409.32 1938.08,-399.1 1933.89,-408.83 1940.87,-409.32"/>
</a>
</g>
</g>
<!-- Node15 -->
<g id="Node000015" class="node">
<title>Node15</title>
<g id="a_Node000015"><a xlink:href="class_bit_vector.html#a8c3c1f0faa0bbf35638c7217a841cbd8" target="_top" xlink:title=" ">
<polygon fill="white" stroke="#666666" points="1016.5,-637 907.5,-637 907.5,-618 1016.5,-618 1016.5,-637"/>
<text text-anchor="middle" x="962" y="-625" font-family="Helvetica,sans-Serif" font-size="10.00">BitVector::copyBits</text>
</a>
</g>
</g>
<!-- Node14&#45;&gt;Node15 -->
<g id="edge19_Node000014_Node000015" class="edge">
<title>Node14&#45;&gt;Node15</title>
<g id="a_edge19_Node000014_Node000015"><a xlink:title=" ">
<path fill="none" stroke="#63b8ff" d="M780.91,-474.14C795.43,-499.16 837.8,-566.8 891,-603.5 897.18,-607.76 904.19,-611.33 911.32,-614.3"/>
<polygon fill="#63b8ff" stroke="#63b8ff" points="910.47,-617.72 921.06,-617.98 912.94,-611.17 910.47,-617.72"/>
</a>
</g>
</g>
<!-- Node17 -->
<g id="Node000017" class="node">
<title>Node17</title>
<g id="a_Node000017"><a xlink:href="class_bit_vector.html#a115789c8a9812eabb52f8843cd4e9965" target="_top" xlink:title="Give the a coord object that represent the size of 1 element inside BitVector::_data.">
<polygon fill="white" stroke="#666666" points="1848.5,-561 1717.5,-561 1717.5,-542 1848.5,-542 1848.5,-561"/>
<text text-anchor="middle" x="1783" y="-549" font-family="Helvetica,sans-Serif" font-size="10.00">BitVector::getCoordUnit</text>
</a>
</g>
</g>
<!-- Node14&#45;&gt;Node17 -->
<g id="edge23_Node000014_Node000017" class="edge">
<title>Node14&#45;&gt;Node17</title>
<g id="a_edge23_Node000014_Node000017"><a xlink:title=" ">
<path fill="none" stroke="#63b8ff" d="M800.22,-474.14C860.58,-496.79 1020.74,-551.5 1159.5,-551.5 1159.5,-551.5 1159.5,-551.5 1370,-551.5 1487.93,-551.5 1624.85,-551.5 1707.38,-551.5"/>
<polygon fill="#63b8ff" stroke="#63b8ff" points="1707.42,-555 1717.42,-551.5 1707.42,-548 1707.42,-555"/>
</a>
</g>
</g>
<!-- Node18 -->
<g id="Node000018" class="node">
<title>Node18</title>
<g id="a_Node000018"><a xlink:href="class_bit_vector.html#a93ab8bc2ec39bf299ae28ffcad504b41" target="_top" xlink:title="Give the coords of the first bit of an element.">
<polygon fill="white" stroke="#666666" points="1029,-474 895,-474 895,-455 1029,-455 1029,-474"/>
<text text-anchor="middle" x="962" y="-462" font-family="Helvetica,sans-Serif" font-size="10.00">BitVector::indexElement</text>
</a>
</g>
</g>
<!-- Node14&#45;&gt;Node18 -->
<g id="edge25_Node000014_Node000018" class="edge">
<title>Node14&#45;&gt;Node18</title>
<g id="a_edge25_Node000014_Node000018"><a xlink:title=" ">
<path fill="none" stroke="#63b8ff" d="M815.75,-464.5C835.98,-464.5 861.19,-464.5 884.89,-464.5"/>
<polygon fill="#63b8ff" stroke="#63b8ff" points="884.94,-468 894.94,-464.5 884.94,-461 884.94,-468"/>
</a>
</g>
</g>
<!-- Node25 -->
<g id="Node000025" class="node">
<title>Node25</title>
<g id="a_Node000025"><a xlink:href="class_bit_vector.html#ab4d98ce4b8d36ed6af1aa46e67810972" target="_top" xlink:title="Give the last coordinates thar can be contained inside BitVector::_data with the current BitVector::_...">
<polygon fill="white" stroke="#666666" points="1209.5,-312 1111.5,-312 1111.5,-293 1209.5,-293 1209.5,-312"/>
<text text-anchor="middle" x="1160.5" y="-300" font-family="Helvetica,sans-Serif" font-size="10.00">BitVector::lastBit</text>
</a>
</g>
</g>
<!-- Node14&#45;&gt;Node25 -->
<g id="edge38_Node000014_Node000025" class="edge">
<title>Node14&#45;&gt;Node25</title>
<g id="a_edge38_Node000014_Node000025"><a xlink:title=" ">
<path fill="none" stroke="#63b8ff" d="M798.09,-454.97C863.17,-427.51 1051.28,-348.16 1127.18,-316.14"/>
<polygon fill="#63b8ff" stroke="#63b8ff" points="1128.85,-319.23 1136.7,-312.12 1126.13,-312.78 1128.85,-319.23"/>
</a>
</g>
</g>
<!-- Node26 -->
<g id="Node000026" class="node">
<title>Node26</title>
<g id="a_Node000026"><a xlink:href="class_bit_vector.html#ab92cdd9780b949d9d762f58e1ee4a0ae" target="_top" xlink:title="Last postion of the vector.">
<polygon fill="white" stroke="#666666" points="1420,-599 1318,-599 1318,-580 1420,-580 1420,-599"/>
<text text-anchor="middle" x="1369" y="-587" font-family="Helvetica,sans-Serif" font-size="10.00">BitVector::lastPos</text>
</a>
</g>
</g>
<!-- Node14&#45;&gt;Node26 -->
<g id="edge39_Node000014_Node000026" class="edge">
<title>Node14&#45;&gt;Node26</title>
<g id="a_edge39_Node000014_Node000026"><a xlink:title=" ">
<path fill="none" stroke="#63b8ff" d="M782.57,-474.02C798.9,-495.11 841.61,-545.52 891,-565.5 1031.4,-622.29 1214.28,-610.26 1307.54,-598.71"/>
<polygon fill="#63b8ff" stroke="#63b8ff" points="1308.17,-602.15 1317.65,-597.41 1307.28,-595.21 1308.17,-602.15"/>
</a>
</g>
</g>
<!-- Node15&#45;&gt;Node3 -->
<g id="edge20_Node000015_Node000003" class="edge">
<title>Node15&#45;&gt;Node3</title>
<g id="a_edge20_Node000015_Node000003"><a xlink:title=" ">
<path fill="none" stroke="#63b8ff" d="M1016.72,-627.5C1094.28,-627.5 1242.14,-627.5 1368,-627.5 1368,-627.5 1368,-627.5 1578,-627.5 1706.83,-627.5 1762.25,-651.02 1862,-569.5 1912.75,-528.02 1930.46,-446.75 1936.1,-409.29"/>
<polygon fill="#63b8ff" stroke="#63b8ff" points="1939.6,-409.54 1937.49,-399.16 1932.67,-408.59 1939.6,-409.54"/>
</a>
</g>
</g>
<!-- Node16 -->
<g id="Node000016" class="node">
<title>Node16</title>
<g id="a_Node000016"><a xlink:href="class_bit_vector_1_1_coords.html#a393207c752f8f9121aca38c938914154" target="_top" xlink:title="Get Coords::bit .">
<polygon fill="white" stroke="#666666" points="1214,-685.5 1107,-685.5 1107,-655.5 1214,-655.5 1214,-685.5"/>
<text text-anchor="start" x="1115" y="-673.5" font-family="Helvetica,sans-Serif" font-size="10.00">BitVector::Coords::</text>
<text text-anchor="middle" x="1160.5" y="-662.5" font-family="Helvetica,sans-Serif" font-size="10.00">getBit</text>
</a>
</g>
</g>
<!-- Node15&#45;&gt;Node16 -->
<g id="edge21_Node000015_Node000016" class="edge">
<title>Node15&#45;&gt;Node16</title>
<g id="a_edge21_Node000015_Node000016"><a xlink:title=" ">
<path fill="none" stroke="#63b8ff" d="M1006.61,-637.04C1033.22,-642.87 1067.68,-650.41 1097.15,-656.86"/>
<polygon fill="#63b8ff" stroke="#63b8ff" points="1096.41,-660.28 1106.93,-659 1097.91,-653.44 1096.41,-660.28"/>
</a>
</g>
</g>
<!-- Node17&#45;&gt;Node3 -->
<g id="edge24_Node000017_Node000003" class="edge">
<title>Node17&#45;&gt;Node3</title>
<g id="a_edge24_Node000017_Node000003"><a xlink:title=" ">
<path fill="none" stroke="#63b8ff" d="M1835.09,-541.94C1844.71,-538.51 1854.19,-533.84 1862,-527.5 1901.03,-495.84 1923.41,-438.68 1932.96,-408.83"/>
<polygon fill="#63b8ff" stroke="#63b8ff" points="1936.33,-409.75 1935.9,-399.17 1929.64,-407.71 1936.33,-409.75"/>
</a>
</g>
</g>
<!-- Node18&#45;&gt;Node3 -->
<g id="edge26_Node000018_Node000003" class="edge">
<title>Node18&#45;&gt;Node3</title>
<g id="a_edge26_Node000018_Node000003"><a xlink:title=" ">
<path fill="none" stroke="#63b8ff" d="M1010.47,-474.01C1085.89,-488.26 1237.86,-513.5 1368,-513.5 1368,-513.5 1368,-513.5 1578,-513.5 1705.07,-513.5 1750.1,-540.72 1862,-480.5 1892.73,-463.96 1916.24,-429.57 1928.66,-408.12"/>
<polygon fill="#63b8ff" stroke="#63b8ff" points="1931.77,-409.73 1933.58,-399.29 1925.66,-406.33 1931.77,-409.73"/>
</a>
</g>
</g>
<!-- Node19 -->
<g id="Node000019" class="node">
<title>Node19</title>
<g id="a_Node000019"><a xlink:href="class_bit_vector.html#a04e6d0b67ee9b42ccec437b0176067fe" target="_top" xlink:title="Give A size_t that represent the coords of the first bit of an element.">
<polygon fill="white" stroke="#666666" points="1252,-442 1069,-442 1069,-423 1252,-423 1252,-442"/>
<text text-anchor="middle" x="1160.5" y="-430" font-family="Helvetica,sans-Serif" font-size="10.00">BitVector::indexElementUntreated</text>
</a>
</g>
</g>
<!-- Node18&#45;&gt;Node19 -->
<g id="edge27_Node000018_Node000019" class="edge">
<title>Node18&#45;&gt;Node19</title>
<g id="a_edge27_Node000018_Node000019"><a xlink:title=" ">
<path fill="none" stroke="#63b8ff" d="M1021.42,-454.99C1043.3,-451.42 1068.35,-447.34 1091.05,-443.65"/>
<polygon fill="#63b8ff" stroke="#63b8ff" points="1091.65,-447.09 1100.96,-442.03 1090.53,-440.19 1091.65,-447.09"/>
</a>
</g>
</g>
<!-- Node19&#45;&gt;Node3 -->
<g id="edge28_Node000019_Node000003" class="edge">
<title>Node19&#45;&gt;Node3</title>
<g id="a_edge28_Node000019_Node000003"><a xlink:title=" ">
<path fill="none" stroke="#63b8ff" d="M1234.53,-442.02C1390.06,-461.16 1748.95,-499.01 1862,-456.5 1888.17,-446.66 1911.24,-423.35 1925.03,-407"/>
<polygon fill="#63b8ff" stroke="#63b8ff" points="1927.78,-409.17 1931.36,-399.2 1922.35,-404.76 1927.78,-409.17"/>
</a>
</g>
</g>
<!-- Node20 -->
<g id="Node000020" class="node">
<title>Node20</title>
<g id="a_Node000020"><a xlink:href="class_bit_vector.html#af68cda7444ec4459393bbfa423f0a7dd" target="_top" xlink:title="Get the Size_t value if a BitVector::CoordUnit.">
<polygon fill="white" stroke="#666666" points="1628.5,-371.5 1525.5,-371.5 1525.5,-341.5 1628.5,-341.5 1628.5,-371.5"/>
<text text-anchor="start" x="1533.5" y="-359.5" font-family="Helvetica,sans-Serif" font-size="10.00">BitVector::getSize</text>
<text text-anchor="middle" x="1577" y="-348.5" font-family="Helvetica,sans-Serif" font-size="10.00">_tUnit</text>
</a>
</g>
</g>
<!-- Node19&#45;&gt;Node20 -->
<g id="edge29_Node000019_Node000020" class="edge">
<title>Node19&#45;&gt;Node20</title>
<g id="a_edge29_Node000019_Node000020"><a xlink:title=" ">
<path fill="none" stroke="#63b8ff" d="M1179.76,-422.89C1203.83,-410.73 1247.83,-390.18 1288,-380.5 1364.84,-361.97 1456.18,-357.16 1515.07,-356.2"/>
<polygon fill="#63b8ff" stroke="#63b8ff" points="1515.36,-359.7 1525.31,-356.06 1515.27,-352.7 1515.36,-359.7"/>
</a>
</g>
</g>
<!-- Node19&#45;&gt;Node22 -->
<g id="edge32_Node000019_Node000022" class="edge">
<title>Node19&#45;&gt;Node22</title>
<g id="a_edge32_Node000019_Node000022"><a xlink:title=" ">
<path fill="none" stroke="#63b8ff" d="M1220.95,-423C1245.04,-419.15 1273.03,-414.68 1298.08,-410.67"/>
<polygon fill="#63b8ff" stroke="#63b8ff" points="1298.93,-414.08 1308.25,-409.05 1297.83,-407.17 1298.93,-414.08"/>
</a>
</g>
</g>
<!-- Node20&#45;&gt;Node17 -->
<g id="edge30_Node000020_Node000017" class="edge">
<title>Node20&#45;&gt;Node17</title>
<g id="a_edge30_Node000020_Node000017"><a xlink:title=" ">
<path fill="none" stroke="#63b8ff" d="M1628.81,-362.06C1642.69,-365.58 1656.94,-371.29 1668,-380.5 1696.72,-404.42 1683.99,-424.93 1704,-456.5 1722.53,-485.73 1748.88,-516.05 1765.71,-534.35"/>
<polygon fill="#63b8ff" stroke="#63b8ff" points="1763.33,-536.93 1772.71,-541.86 1768.46,-532.16 1763.33,-536.93"/>
</a>
</g>
</g>
<!-- Node21 -->
<g id="Node000021" class="node">
<title>Node21</title>
<g id="a_Node000021"><a xlink:href="class_bit_vector_1_1_coords.html#a3a4fac9de925974af9c8a66a1d0179e6" target="_top" xlink:title="Translate octet and bit value inside a size_t. Allow easier mathematic computations.">
<polygon fill="white" stroke="#666666" points="1836.5,-347.5 1729.5,-347.5 1729.5,-317.5 1836.5,-317.5 1836.5,-347.5"/>
<text text-anchor="start" x="1737.5" y="-335.5" font-family="Helvetica,sans-Serif" font-size="10.00">BitVector::Coords::</text>
<text text-anchor="middle" x="1783" y="-324.5" font-family="Helvetica,sans-Serif" font-size="10.00">toSize_t</text>
</a>
</g>
</g>
<!-- Node20&#45;&gt;Node21 -->
<g id="edge31_Node000020_Node000021" class="edge">
<title>Node20&#45;&gt;Node21</title>
<g id="a_edge31_Node000020_Node000021"><a xlink:title=" ">
<path fill="none" stroke="#63b8ff" d="M1628.69,-350.54C1656.13,-347.31 1690.28,-343.29 1719.38,-339.87"/>
<polygon fill="#63b8ff" stroke="#63b8ff" points="1719.92,-343.33 1729.44,-338.68 1719.1,-336.38 1719.92,-343.33"/>
</a>
</g>
</g>
<!-- Node22&#45;&gt;Node20 -->
<g id="edge33_Node000022_Node000020" class="edge">
<title>Node22&#45;&gt;Node20</title>
<g id="a_edge33_Node000022_Node000020"><a xlink:title=" ">
<path fill="none" stroke="#63b8ff" d="M1415.72,-389.96C1445.02,-383.84 1483.4,-375.83 1515.26,-369.18"/>
<polygon fill="#63b8ff" stroke="#63b8ff" points="1516.28,-372.54 1525.35,-367.07 1514.85,-365.69 1516.28,-372.54"/>
</a>
</g>
</g>
<!-- Node23 -->
<g id="Node000023" class="node">
<title>Node23</title>
<g id="a_Node000023"><a xlink:href="class_bit_vector.html#a68b14af0886039ddcf55c82a250deb4c" target="_top" xlink:title="How many element can be contained in this kind of object.">
<polygon fill="white" stroke="#666666" points="1862,-447.5 1704,-447.5 1704,-417.5 1862,-417.5 1862,-447.5"/>
<text text-anchor="start" x="1712" y="-435.5" font-family="Helvetica,sans-Serif" font-size="10.00">BitVector::maximumElement</text>
<text text-anchor="middle" x="1783" y="-424.5" font-family="Helvetica,sans-Serif" font-size="10.00">Number</text>
</a>
</g>
</g>
<!-- Node22&#45;&gt;Node23 -->
<g id="edge34_Node000022_Node000023" class="edge">
<title>Node22&#45;&gt;Node23</title>
<g id="a_edge34_Node000022_Node000023"><a xlink:title=" ">
<path fill="none" stroke="#63b8ff" d="M1423.85,-409.04C1443.37,-412.19 1465.63,-415.41 1486,-417.5 1555.68,-424.65 1634.95,-428.44 1693.91,-430.42"/>
<polygon fill="#63b8ff" stroke="#63b8ff" points="1693.82,-433.92 1703.93,-430.74 1694.05,-426.92 1693.82,-433.92"/>
</a>
</g>
</g>
<!-- Node24 -->
<g id="Node000024" class="node">
<title>Node24</title>
<g id="a_Node000024"><a xlink:href="class_bit_vector.html#aa3228d2bacb1bb0f6072d73d43a49456" target="_top" xlink:title="How many octet can be contained in this kind of object.">
<polygon fill="white" stroke="#666666" points="1668,-409 1486,-409 1486,-390 1668,-390 1668,-409"/>
<text text-anchor="middle" x="1577" y="-397" font-family="Helvetica,sans-Serif" font-size="10.00">BitVector::maximumOctetNumber</text>
</a>
</g>
</g>
<!-- Node22&#45;&gt;Node24 -->
<g id="edge36_Node000022_Node000024" class="edge">
<title>Node22&#45;&gt;Node24</title>
<g id="a_edge36_Node000022_Node000024"><a xlink:title=" ">
<path fill="none" stroke="#63b8ff" d="M1446.12,-399.5C1455.73,-399.5 1465.68,-399.5 1475.6,-399.5"/>
<polygon fill="#63b8ff" stroke="#63b8ff" points="1475.9,-403 1485.9,-399.5 1475.9,-396 1475.9,-403"/>
</a>
</g>
</g>
<!-- Node23&#45;&gt;Node3 -->
<g id="edge35_Node000023_Node000003" class="edge">
<title>Node23&#45;&gt;Node3</title>
<g id="a_edge35_Node000023_Node000003"><a xlink:title=" ">
<path fill="none" stroke="#63b8ff" d="M1838.04,-417.46C1856.37,-412.36 1876.62,-406.72 1894.11,-401.85"/>
<polygon fill="#63b8ff" stroke="#63b8ff" points="1895.36,-405.14 1904.06,-399.09 1893.48,-398.4 1895.36,-405.14"/>
</a>
</g>
</g>
<!-- Node24&#45;&gt;Node3 -->
<g id="edge37_Node000024_Node000003" class="edge">
<title>Node24&#45;&gt;Node3</title>
<g id="a_edge37_Node000024_Node000003"><a xlink:title=" ">
<path fill="none" stroke="#63b8ff" d="M1668.04,-397C1737.34,-395.08 1830.62,-392.49 1887.56,-390.91"/>
<polygon fill="#63b8ff" stroke="#63b8ff" points="1887.85,-394.41 1897.75,-390.63 1887.66,-387.41 1887.85,-394.41"/>
</a>
</g>
</g>
<!-- Node26&#45;&gt;Node17 -->
<g id="edge40_Node000026_Node000017" class="edge">
<title>Node26&#45;&gt;Node17</title>
<g id="a_edge40_Node000026_Node000017"><a xlink:title=" ">
<path fill="none" stroke="#63b8ff" d="M1420.15,-586.1C1479.42,-581.94 1580.99,-574.34 1668,-565.5 1680.6,-564.22 1693.97,-562.71 1706.94,-561.17"/>
<polygon fill="#63b8ff" stroke="#63b8ff" points="1707.73,-564.6 1717.24,-559.93 1706.9,-557.65 1707.73,-564.6"/>
</a>
</g>
</g>
<!-- Node27&#45;&gt;Node3 -->
<g id="edge45_Node000027_Node000003" class="edge">
<title>Node27&#45;&gt;Node3</title>
<g id="a_edge45_Node000027_Node000003"><a xlink:title=" ">
<path fill="none" stroke="#63b8ff" d="M614.51,-181.9C678.94,-163.16 830.64,-123.5 961,-123.5 961,-123.5 961,-123.5 1578,-123.5 1704.4,-123.5 1762.45,-60.62 1862,-138.5 1935.24,-195.8 1940.32,-321.32 1939.37,-369.82"/>
<polygon fill="#63b8ff" stroke="#63b8ff" points="1935.87,-369.83 1939.06,-379.93 1942.87,-370.04 1935.87,-369.83"/>
</a>
</g>
</g>
<!-- Node27&#45;&gt;Node14 -->
<g id="edge46_Node000027_Node000014" class="edge">
<title>Node27&#45;&gt;Node14</title>
<g id="a_edge46_Node000027_Node000014"><a xlink:title=" ">
<path fill="none" stroke="#63b8ff" d="M589.78,-201.22C617.73,-241.27 724.26,-393.94 760.98,-446.55"/>
<polygon fill="#63b8ff" stroke="#63b8ff" points="758.21,-448.7 766.8,-454.9 763.95,-444.7 758.21,-448.7"/>
</a>
</g>
</g>
<!-- Node28 -->
<g id="Node000028" class="node">
<title>Node28</title>
<g id="a_Node000028"><a xlink:href="class_bit_vector.html#ad60f42244db2c82260326605916431d3" target="_top" xlink:title="Modify the number of known element in this object.">
<polygon fill="white" stroke="#666666" points="855,-201 694,-201 694,-182 855,-182 855,-201"/>
<text text-anchor="middle" x="774.5" y="-189" font-family="Helvetica,sans-Serif" font-size="10.00">BitVector::setElementNumber</text>
</a>
</g>
</g>
<!-- Node27&#45;&gt;Node28 -->
<g id="edge47_Node000027_Node000028" class="edge">
<title>Node27&#45;&gt;Node28</title>
<g id="a_edge47_Node000027_Node000028"><a xlink:title=" ">
<path fill="none" stroke="#63b8ff" d="M634.05,-191.5C649.44,-191.5 666.8,-191.5 683.92,-191.5"/>
<polygon fill="#63b8ff" stroke="#63b8ff" points="683.95,-195 693.95,-191.5 683.95,-188 683.95,-195"/>
</a>
</g>
</g>
<!-- Node28&#45;&gt;Node3 -->
<g id="edge56_Node000028_Node000003" class="edge">
<title>Node28&#45;&gt;Node3</title>
<g id="a_edge56_Node000028_Node000003"><a xlink:title=" ">
<path fill="none" stroke="#63b8ff" d="M852.23,-181.97C929.64,-173.18 1052.68,-161.5 1159.5,-161.5 1159.5,-161.5 1159.5,-161.5 1578,-161.5 1704.57,-161.5 1760.88,-106.38 1862,-182.5 1922.56,-228.09 1935.21,-326.86 1937.83,-369.37"/>
<polygon fill="#63b8ff" stroke="#63b8ff" points="1934.34,-369.75 1938.32,-379.56 1941.33,-369.41 1934.34,-369.75"/>
</a>
</g>
</g>
<!-- Node29 -->
<g id="Node000029" class="node">
<title>Node29</title>
<g id="a_Node000029"><a xlink:href="class_bit_vector.html#ad64e921d07b9528a532477f282af135c" target="_top" xlink:title="How many element can fit in this vector without having to resize the vector ?">
<polygon fill="white" stroke="#666666" points="1033,-219.5 891,-219.5 891,-189.5 1033,-189.5 1033,-219.5"/>
<text text-anchor="start" x="899" y="-207.5" font-family="Helvetica,sans-Serif" font-size="10.00">BitVector::currentElement</text>
<text text-anchor="middle" x="962" y="-196.5" font-family="Helvetica,sans-Serif" font-size="10.00">Capacity</text>
</a>
</g>
</g>
<!-- Node28&#45;&gt;Node29 -->
<g id="edge48_Node000028_Node000029" class="edge">
<title>Node28&#45;&gt;Node29</title>
<g id="a_edge48_Node000028_Node000029"><a xlink:title=" ">
<path fill="none" stroke="#63b8ff" d="M855.25,-197.09C863.69,-197.68 872.29,-198.28 880.74,-198.88"/>
<polygon fill="#63b8ff" stroke="#63b8ff" points="880.74,-202.38 890.96,-199.59 881.23,-195.4 880.74,-202.38"/>
</a>
</g>
</g>
<!-- Node29&#45;&gt;Node25 -->
<g id="edge55_Node000029_Node000025" class="edge">
<title>Node29&#45;&gt;Node25</title>
<g id="a_edge55_Node000029_Node000025"><a xlink:title=" ">
<path fill="none" stroke="#63b8ff" d="M993.27,-219.6C1030.83,-238.33 1094.37,-270.02 1131.05,-288.31"/>
<polygon fill="#63b8ff" stroke="#63b8ff" points="1129.7,-291.55 1140.21,-292.88 1132.82,-285.28 1129.7,-291.55"/>
</a>
</g>
</g>
<!-- Node30 -->
<g id="Node000030" class="node">
<title>Node30</title>
<g id="a_Node000030"><a xlink:href="class_bit_vector.html#a5af3c70f593aac387de23c7e6e5ae57e" target="_top" xlink:title="Find the element that correspond to coord .">
<polygon fill="white" stroke="#666666" points="1234,-214 1087,-214 1087,-195 1234,-195 1234,-214"/>
<text text-anchor="middle" x="1160.5" y="-202" font-family="Helvetica,sans-Serif" font-size="10.00">BitVector::indexCoordinate</text>
</a>
</g>
</g>
<!-- Node29&#45;&gt;Node30 -->
<g id="edge49_Node000029_Node000030" class="edge">
<title>Node29&#45;&gt;Node30</title>
<g id="a_edge49_Node000029_Node000030"><a xlink:title=" ">
<path fill="none" stroke="#63b8ff" d="M1033.11,-204.5C1047.12,-204.5 1061.97,-204.5 1076.37,-204.5"/>
<polygon fill="#63b8ff" stroke="#63b8ff" points="1076.76,-208 1086.76,-204.5 1076.76,-201 1076.76,-208"/>
</a>
</g>
</g>
<!-- Node30&#45;&gt;Node3 -->
<g id="edge50_Node000030_Node000003" class="edge">
<title>Node30&#45;&gt;Node3</title>
<g id="a_edge50_Node000030_Node000003"><a xlink:title=" ">
<path fill="none" stroke="#63b8ff" d="M1234.3,-197.08C1392.33,-182.44 1760.76,-156.73 1862,-223.5 1912.67,-256.92 1930.33,-333.09 1936.02,-369.45"/>
<polygon fill="#63b8ff" stroke="#63b8ff" points="1932.61,-370.34 1937.47,-379.76 1939.54,-369.37 1932.61,-370.34"/>
</a>
</g>
</g>
<!-- Node31 -->
<g id="Node000031" class="node">
<title>Node31</title>
<g id="a_Node000031"><a xlink:href="class_bit_vector.html#a354c83853bc3622efa5d45efcae97286" target="_top" xlink:title="Give more detailed on BiteVector::indexCoordinate.">
<polygon fill="white" stroke="#666666" points="1442.5,-313.5 1295.5,-313.5 1295.5,-283.5 1442.5,-283.5 1442.5,-313.5"/>
<text text-anchor="start" x="1303.5" y="-301.5" font-family="Helvetica,sans-Serif" font-size="10.00">BitVector::indexCoordinate</text>
<text text-anchor="middle" x="1369" y="-290.5" font-family="Helvetica,sans-Serif" font-size="10.00">Untreated</text>
</a>
</g>
</g>
<!-- Node30&#45;&gt;Node31 -->
<g id="edge51_Node000030_Node000031" class="edge">
<title>Node30&#45;&gt;Node31</title>
<g id="a_edge51_Node000030_Node000031"><a xlink:title=" ">
<path fill="none" stroke="#63b8ff" d="M1182.44,-214.03C1215.87,-229.25 1281.98,-259.34 1325.59,-279.19"/>
<polygon fill="#63b8ff" stroke="#63b8ff" points="1324.25,-282.43 1334.8,-283.39 1327.15,-276.06 1324.25,-282.43"/>
</a>
</g>
</g>
<!-- Node31&#45;&gt;Node3 -->
<g id="edge52_Node000031_Node000003" class="edge">
<title>Node31&#45;&gt;Node3</title>
<g id="a_edge52_Node000031_Node000003"><a xlink:title=" ">
<path fill="none" stroke="#63b8ff" d="M1440.89,-283.49C1539.93,-266.07 1723.16,-246.97 1862,-308.5 1891.33,-321.5 1914.77,-351.65 1927.63,-371.28"/>
<polygon fill="#63b8ff" stroke="#63b8ff" points="1924.8,-373.34 1933.08,-379.95 1930.72,-369.62 1924.8,-373.34"/>
</a>
</g>
</g>
<!-- Node31&#45;&gt;Node20 -->
<g id="edge53_Node000031_Node000020" class="edge">
<title>Node31&#45;&gt;Node20</title>
<g id="a_edge53_Node000031_Node000020"><a xlink:title=" ">
<path fill="none" stroke="#63b8ff" d="M1423.32,-313.51C1451.59,-321.47 1486.44,-331.28 1515.7,-339.52"/>
<polygon fill="#63b8ff" stroke="#63b8ff" points="1514.81,-342.91 1525.39,-342.25 1516.71,-336.17 1514.81,-342.91"/>
</a>
</g>
</g>
<!-- Node31&#45;&gt;Node21 -->
<g id="edge54_Node000031_Node000021" class="edge">
<title>Node31&#45;&gt;Node21</title>
<g id="a_edge54_Node000031_Node000021"><a xlink:title=" ">
<path fill="none" stroke="#63b8ff" d="M1442.71,-304.5C1521.14,-310.97 1644.76,-321.17 1719.14,-327.31"/>
<polygon fill="#63b8ff" stroke="#63b8ff" points="1719.04,-330.82 1729.3,-328.15 1719.62,-323.84 1719.04,-330.82"/>
</a>
</g>
</g>
</g>
</svg>
