<?xml version="1.0" encoding="UTF-8" standalone="no"?>
<!DOCTYPE svg PUBLIC "-//W3C//DTD SVG 1.1//EN"
 "http://www.w3.org/Graphics/SVG/1.1/DTD/svg11.dtd">
<!-- Generated by graphviz version 2.43.0 (0)
 -->
<!-- Title: BitVector::currentCapacity Pages: 1 -->
<svg width="1086pt" height="135pt"
 viewBox="0.00 0.00 1086.00 134.50" xmlns="http://www.w3.org/2000/svg" xmlns:xlink="http://www.w3.org/1999/xlink">
<g id="graph0" class="graph" transform="scale(1 1) rotate(0) translate(4 130.5)">
<title>BitVector::currentCapacity</title>
<!-- Node1 -->
<g id="Node000001" class="node">
<title>Node1</title>
<g id="a_Node000001"><a xlink:title="Say how many items can be hold inside this object with the current BitVector::_data_size:">
<polygon fill="#999999" stroke="#666666" points="144,-105.5 0,-105.5 0,-86.5 144,-86.5 144,-105.5"/>
<text text-anchor="middle" x="72" y="-93.5" font-family="Helvetica,sans-Serif" font-size="10.00">BitVector::currentCapacity</text>
</a>
</g>
</g>
<!-- Node2 -->
<g id="Node000002" class="node">
<title>Node2</title>
<g id="a_Node000002"><a xlink:href="class_bit_vector.html#a5af3c70f593aac387de23c7e6e5ae57e" target="_top" xlink:title="Find the element that correspond to coord .">
<polygon fill="white" stroke="#666666" points="327,-105.5 180,-105.5 180,-86.5 327,-86.5 327,-105.5"/>
<text text-anchor="middle" x="253.5" y="-93.5" font-family="Helvetica,sans-Serif" font-size="10.00">BitVector::indexCoordinate</text>
</a>
</g>
</g>
<!-- Node1&#45;&gt;Node2 -->
<g id="edge1_Node000001_Node000002" class="edge">
<title>Node1&#45;&gt;Node2</title>
<g id="a_edge1_Node000001_Node000002"><a xlink:title=" ">
<path fill="none" stroke="#63b8ff" d="M144.2,-96C152.64,-96 161.31,-96 169.9,-96"/>
<polygon fill="#63b8ff" stroke="#63b8ff" points="169.91,-99.5 179.91,-96 169.91,-92.5 169.91,-99.5"/>
</a>
</g>
</g>
<!-- Node3 -->
<g id="Node000003" class="node">
<title>Node3</title>
<g id="a_Node000003"><a xlink:href="class_bit_vector.html#aebe159444eb9d619959b7325ac5dac2d" target="_top" xlink:title="Return the value of the bit at the position coord.">
<polygon fill="white" stroke="#666666" points="935,-108.5 852,-108.5 852,-89.5 935,-89.5 935,-108.5"/>
<text text-anchor="middle" x="893.5" y="-96.5" font-family="Helvetica,sans-Serif" font-size="10.00">BitVector::get</text>
</a>
</g>
</g>
<!-- Node2&#45;&gt;Node3 -->
<g id="edge2_Node000002_Node000003" class="edge">
<title>Node2&#45;&gt;Node3</title>
<g id="a_edge2_Node000002_Node000003"><a xlink:title=" ">
<path fill="none" stroke="#63b8ff" d="M327.16,-98.1C339.13,-98.42 351.41,-98.73 363,-99 564.3,-103.66 614.8,-112.88 816,-105 824.23,-104.68 832.95,-104.16 841.45,-103.56"/>
<polygon fill="#63b8ff" stroke="#63b8ff" points="841.93,-107.04 851.64,-102.8 841.41,-100.06 841.93,-107.04"/>
</a>
</g>
</g>
<!-- Node5 -->
<g id="Node000005" class="node">
<title>Node5</title>
<g id="a_Node000005"><a xlink:href="class_bit_vector.html#a354c83853bc3622efa5d45efcae97286" target="_top" xlink:title="Give more detailed on BiteVector::indexCoordinate.">
<polygon fill="white" stroke="#666666" points="510,-90 363,-90 363,-60 510,-60 510,-90"/>
<text text-anchor="start" x="371" y="-78" font-family="Helvetica,sans-Serif" font-size="10.00">BitVector::indexCoordinate</text>
<text text-anchor="middle" x="436.5" y="-67" font-family="Helvetica,sans-Serif" font-size="10.00">Untreated</text>
</a>
</g>
</g>
<!-- Node2&#45;&gt;Node5 -->
<g id="edge5_Node000002_Node000005" class="edge">
<title>Node2&#45;&gt;Node5</title>
<g id="a_edge5_Node000002_Node000005"><a xlink:title=" ">
<path fill="none" stroke="#63b8ff" d="M327.08,-87.58C335.56,-86.6 344.26,-85.59 352.87,-84.59"/>
<polygon fill="#63b8ff" stroke="#63b8ff" points="353.38,-88.05 362.91,-83.42 352.57,-81.1 353.38,-88.05"/>
</a>
</g>
</g>
<!-- Node3&#45;&gt;Node3 -->
<g id="edge3_Node000003_Node000003" class="edge">
<title>Node3&#45;&gt;Node3</title>
<g id="a_edge3_Node000003_Node000003"><a xlink:title=" ">
<path fill="none" stroke="#63b8ff" d="M873.46,-108.58C863.72,-117.23 870.39,-126.5 893.5,-126.5 908.3,-126.5 916.36,-122.7 917.68,-117.69"/>
<polygon fill="#63b8ff" stroke="#63b8ff" points="920.86,-116.23 913.54,-108.58 914.49,-119.13 920.86,-116.23"/>
</a>
</g>
</g>
<!-- Node4 -->
<g id="Node000004" class="node">
<title>Node4</title>
<g id="a_Node000004"><a xlink:href="class_bit_vector_1_1_coords.html#a2892f7f46c4af93f9733e312229d8ec1" target="_top" xlink:title="Get Coords::octet .">
<polygon fill="white" stroke="#666666" points="1078,-114 971,-114 971,-84 1078,-84 1078,-114"/>
<text text-anchor="start" x="979" y="-102" font-family="Helvetica,sans-Serif" font-size="10.00">BitVector::Coords::</text>
<text text-anchor="middle" x="1024.5" y="-91" font-family="Helvetica,sans-Serif" font-size="10.00">getOctet</text>
</a>
</g>
</g>
<!-- Node3&#45;&gt;Node4 -->
<g id="edge4_Node000003_Node000004" class="edge">
<title>Node3&#45;&gt;Node4</title>
<g id="a_edge4_Node000003_Node000004"><a xlink:title=" ">
<path fill="none" stroke="#63b8ff" d="M935.32,-99C943.38,-99 952.02,-99 960.62,-99"/>
<polygon fill="#63b8ff" stroke="#63b8ff" points="960.66,-102.5 970.66,-99 960.66,-95.5 960.66,-102.5"/>
</a>
</g>
</g>
<!-- Node5&#45;&gt;Node3 -->
<g id="edge6_Node000005_Node000003" class="edge">
<title>Node5&#45;&gt;Node3</title>
<g id="a_edge6_Node000005_Node000003"><a xlink:title=" ">
<path fill="none" stroke="#63b8ff" d="M510.1,-78.83C602.66,-83.71 760.38,-92.03 841.3,-96.3"/>
<polygon fill="#63b8ff" stroke="#63b8ff" points="841.55,-99.82 851.72,-96.85 841.92,-92.83 841.55,-99.82"/>
</a>
</g>
</g>
<!-- Node6 -->
<g id="Node000006" class="node">
<title>Node6</title>
<g id="a_Node000006"><a xlink:href="class_bit_vector.html#af68cda7444ec4459393bbfa423f0a7dd" target="_top" xlink:title="Get the Size_t value if a BitVector::CoordUnit.">
<polygon fill="white" stroke="#666666" points="649,-71 546,-71 546,-41 649,-41 649,-71"/>
<text text-anchor="start" x="554" y="-59" font-family="Helvetica,sans-Serif" font-size="10.00">BitVector::getSize</text>
<text text-anchor="middle" x="597.5" y="-48" font-family="Helvetica,sans-Serif" font-size="10.00">_tUnit</text>
</a>
</g>
</g>
<!-- Node5&#45;&gt;Node6 -->
<g id="edge7_Node000005_Node000006" class="edge">
<title>Node5&#45;&gt;Node6</title>
<g id="a_edge7_Node000005_Node000006"><a xlink:title=" ">
<path fill="none" stroke="#63b8ff" d="M510.02,-66.33C518.64,-65.3 527.37,-64.26 535.8,-63.25"/>
<polygon fill="#63b8ff" stroke="#63b8ff" points="536.39,-66.71 545.9,-62.05 535.56,-59.76 536.39,-66.71"/>
</a>
</g>
</g>
<!-- Node8 -->
<g id="Node000008" class="node">
<title>Node8</title>
<g id="a_Node000008"><a xlink:href="class_bit_vector_1_1_coords.html#a3a4fac9de925974af9c8a66a1d0179e6" target="_top" xlink:title="Translate octet and bit value inside a size_t. Allow easier mathematic computations.">
<polygon fill="white" stroke="#666666" points="804,-30 697,-30 697,0 804,0 804,-30"/>
<text text-anchor="start" x="705" y="-18" font-family="Helvetica,sans-Serif" font-size="10.00">BitVector::Coords::</text>
<text text-anchor="middle" x="750.5" y="-7" font-family="Helvetica,sans-Serif" font-size="10.00">toSize_t</text>
</a>
</g>
</g>
<!-- Node5&#45;&gt;Node8 -->
<g id="edge11_Node000005_Node000008" class="edge">
<title>Node5&#45;&gt;Node8</title>
<g id="a_edge11_Node000005_Node000008"><a xlink:title=" ">
<path fill="none" stroke="#63b8ff" d="M468.52,-59.87C489.8,-50.21 518.97,-38.34 546,-32 592.46,-21.11 646.32,-16.97 686.95,-15.49"/>
<polygon fill="#63b8ff" stroke="#63b8ff" points="687.1,-18.99 696.98,-15.17 686.88,-11.99 687.1,-18.99"/>
</a>
</g>
</g>
<!-- Node7 -->
<g id="Node000007" class="node">
<title>Node7</title>
<g id="a_Node000007"><a xlink:href="class_bit_vector.html#a115789c8a9812eabb52f8843cd4e9965" target="_top" xlink:title="Give the a coord object that represent the size of 1 element inside BitVector::_data.">
<polygon fill="white" stroke="#666666" points="816,-69.5 685,-69.5 685,-50.5 816,-50.5 816,-69.5"/>
<text text-anchor="middle" x="750.5" y="-57.5" font-family="Helvetica,sans-Serif" font-size="10.00">BitVector::getCoordUnit</text>
</a>
</g>
</g>
<!-- Node6&#45;&gt;Node7 -->
<g id="edge8_Node000006_Node000007" class="edge">
<title>Node6&#45;&gt;Node7</title>
<g id="a_edge8_Node000006_Node000007"><a xlink:title=" ">
<path fill="none" stroke="#63b8ff" d="M649.2,-57.34C657.45,-57.56 666.15,-57.79 674.83,-58.02"/>
<polygon fill="#63b8ff" stroke="#63b8ff" points="674.9,-61.52 684.99,-58.29 675.08,-54.53 674.9,-61.52"/>
</a>
</g>
</g>
<!-- Node6&#45;&gt;Node8 -->
<g id="edge10_Node000006_Node000008" class="edge">
<title>Node6&#45;&gt;Node8</title>
<g id="a_edge10_Node000006_Node000008"><a xlink:title=" ">
<path fill="none" stroke="#63b8ff" d="M649.2,-42.23C661.3,-38.95 674.36,-35.4 686.93,-31.99"/>
<polygon fill="#63b8ff" stroke="#63b8ff" points="688.14,-35.29 696.87,-29.29 686.3,-28.53 688.14,-35.29"/>
</a>
</g>
</g>
<!-- Node7&#45;&gt;Node3 -->
<g id="edge9_Node000007_Node000003" class="edge">
<title>Node7&#45;&gt;Node3</title>
<g id="a_edge9_Node000007_Node000003"><a xlink:title=" ">
<path fill="none" stroke="#63b8ff" d="M785.99,-69.54C804.68,-74.71 827.99,-81.16 848.03,-86.7"/>
<polygon fill="#63b8ff" stroke="#63b8ff" points="847.3,-90.13 857.87,-89.42 849.17,-83.38 847.3,-90.13"/>
</a>
</g>
</g>
</g>
</svg>
