<?xml version="1.0" encoding="UTF-8" standalone="no"?>
<!DOCTYPE svg PUBLIC "-//W3C//DTD SVG 1.1//EN"
 "http://www.w3.org/Graphics/SVG/1.1/DTD/svg11.dtd">
<!-- Generated by graphviz version 2.43.0 (0)
 -->
<!-- Title: Sequence::isLegalNucleic Pages: 1 -->
<svg width="527pt" height="27pt"
 viewBox="0.00 0.00 527.00 27.00" xmlns="http://www.w3.org/2000/svg" xmlns:xlink="http://www.w3.org/1999/xlink">
<g id="graph0" class="graph" transform="scale(1 1) rotate(0) translate(4 23)">
<title>Sequence::isLegalNucleic</title>
<!-- Node1 -->
<g id="Node000001" class="node">
<title>Node1</title>
<g id="a_Node000001"><a xlink:title="Say if a symbol can be an acid nucleic.">
<polygon fill="#999999" stroke="#666666" points="519,-19 379,-19 379,0 519,0 519,-19"/>
<text text-anchor="middle" x="449" y="-7" font-family="Helvetica,sans-Serif" font-size="10.00">Sequence::isLegalNucleic</text>
</a>
</g>
</g>
<!-- Node2 -->
<g id="Node000002" class="node">
<title>Node2</title>
<g id="a_Node000002"><a xlink:href="class_sequence.html#a7e6fdc8d243336e9e55e91dfd61eb43b" target="_top" xlink:title="Say if a symbol can be used in the a sequence.">
<polygon fill="white" stroke="#666666" points="343,-19 202,-19 202,0 343,0 343,-19"/>
<text text-anchor="middle" x="272.5" y="-7" font-family="Helvetica,sans-Serif" font-size="10.00">Sequence::isLegalSymbol</text>
</a>
</g>
</g>
<!-- Node1&#45;&gt;Node2 -->
<g id="edge1_Node000001_Node000002" class="edge">
<title>Node1&#45;&gt;Node2</title>
<g id="a_edge1_Node000001_Node000002"><a xlink:title=" ">
<path fill="none" stroke="#63b8ff" d="M368.54,-9.5C360.09,-9.5 351.53,-9.5 343.21,-9.5"/>
<polygon fill="#63b8ff" stroke="#63b8ff" points="368.78,-13 378.78,-9.5 368.78,-6 368.78,-13"/>
</a>
</g>
</g>
<!-- Node3 -->
<g id="Node000003" class="node">
<title>Node3</title>
<g id="a_Node000003"><a xlink:href="class_sequence.html#a2163e89ff5b606d82ad4993c7e5eab4b" target="_top" xlink:title="Turn a symbol to a bool array.">
<polygon fill="white" stroke="#666666" points="166,-19 0,-19 0,0 166,0 166,-19"/>
<text text-anchor="middle" x="83" y="-7" font-family="Helvetica,sans-Serif" font-size="10.00">Sequence::identifySymbolType</text>
</a>
</g>
</g>
<!-- Node2&#45;&gt;Node3 -->
<g id="edge2_Node000002_Node000003" class="edge">
<title>Node2&#45;&gt;Node3</title>
<g id="a_edge2_Node000002_Node000003"><a xlink:title=" ">
<path fill="none" stroke="#63b8ff" d="M191.71,-9.5C183.24,-9.5 174.61,-9.5 166.11,-9.5"/>
<polygon fill="#63b8ff" stroke="#63b8ff" points="191.95,-13 201.95,-9.5 191.95,-6 191.95,-13"/>
</a>
</g>
</g>
</g>
</svg>
