<?xml version="1.0" encoding="UTF-8" standalone="no"?>
<!DOCTYPE svg PUBLIC "-//W3C//DTD SVG 1.1//EN"
 "http://www.w3.org/Graphics/SVG/1.1/DTD/svg11.dtd">
<!-- Generated by graphviz version 2.43.0 (0)
 -->
<!-- Title: Sequence::elementMaxSize Pages: 1 -->
<svg width="1079pt" height="158pt"
 viewBox="0.00 0.00 1079.00 158.00" xmlns="http://www.w3.org/2000/svg" xmlns:xlink="http://www.w3.org/1999/xlink">
<g id="graph0" class="graph" transform="scale(1 1) rotate(0) translate(4 154)">
<title>Sequence::elementMaxSize</title>
<!-- Node1 -->
<g id="Node000001" class="node">
<title>Node1</title>
<g id="a_Node000001"><a xlink:title="Give the number of bit used by a combination of a type encoding_type and an alphabet iupac.">
<polygon fill="#999999" stroke="#666666" points="152,-38 0,-38 0,-19 152,-19 152,-38"/>
<text text-anchor="middle" x="76" y="-26" font-family="Helvetica,sans-Serif" font-size="10.00">Sequence::elementMaxSize</text>
</a>
</g>
</g>
<!-- Node2 -->
<g id="Node000002" class="node">
<title>Node2</title>
<g id="a_Node000002"><a xlink:href="class_sequence.html#ad40777fd2f7ad3ae247fab02459e6759" target="_top" xlink:title="Retrieve the symbol at the position in the sequence.">
<polygon fill="white" stroke="#666666" points="274,-57 188,-57 188,-38 274,-38 274,-57"/>
<text text-anchor="middle" x="231" y="-45" font-family="Helvetica,sans-Serif" font-size="10.00">Sequence::get</text>
</a>
</g>
</g>
<!-- Node1&#45;&gt;Node2 -->
<g id="edge1_Node000001_Node000002" class="edge">
<title>Node1&#45;&gt;Node2</title>
<g id="a_edge1_Node000001_Node000002"><a xlink:title=" ">
<path fill="none" stroke="#63b8ff" d="M152.16,-37.83C160.76,-38.9 169.39,-39.97 177.61,-40.99"/>
<polygon fill="#63b8ff" stroke="#63b8ff" points="177.41,-44.5 187.77,-42.26 178.27,-37.55 177.41,-44.5"/>
</a>
</g>
</g>
<!-- Node6 -->
<g id="Node000006" class="node">
<title>Node6</title>
<g id="a_Node000006"><a xlink:href="class_sequence.html#a49a9126010c0332493c803ddca005394" target="_top" xlink:title="Give a map that compress / decompress char used by Sequence.">
<polygon fill="white" stroke="#666666" points="455.5,-19 316.5,-19 316.5,0 455.5,0 455.5,-19"/>
<text text-anchor="middle" x="386" y="-7" font-family="Helvetica,sans-Serif" font-size="10.00">Sequence::translationTab</text>
</a>
</g>
</g>
<!-- Node1&#45;&gt;Node6 -->
<g id="edge14_Node000001_Node000006" class="edge">
<title>Node1&#45;&gt;Node6</title>
<g id="a_edge14_Node000001_Node000006"><a xlink:title=" ">
<path fill="none" stroke="#63b8ff" d="M152.35,-23.85C199.05,-20.97 258.95,-17.28 306.27,-14.36"/>
<polygon fill="#63b8ff" stroke="#63b8ff" points="306.71,-17.84 316.48,-13.73 306.28,-10.85 306.71,-17.84"/>
</a>
</g>
</g>
<!-- Node2&#45;&gt;Node2 -->
<g id="edge5_Node000002_Node000002" class="edge">
<title>Node2&#45;&gt;Node2</title>
<g id="a_edge5_Node000002_Node000002"><a xlink:title=" ">
<path fill="none" stroke="#63b8ff" d="M207.26,-57.08C195.72,-65.73 203.63,-75 231,-75 248.96,-75 258.54,-71.01 259.75,-65.82"/>
<polygon fill="#63b8ff" stroke="#63b8ff" points="262.75,-64.02 254.74,-57.08 256.67,-67.5 262.75,-64.02"/>
</a>
</g>
</g>
<!-- Node3 -->
<g id="Node000003" class="node">
<title>Node3</title>
<g id="a_Node000003"><a xlink:href="class_bit_vector.html#aebe159444eb9d619959b7325ac5dac2d" target="_top" xlink:title="Return the value of the bit at the position coord.">
<polygon fill="white" stroke="#666666" points="427.5,-132 344.5,-132 344.5,-113 427.5,-113 427.5,-132"/>
<text text-anchor="middle" x="386" y="-120" font-family="Helvetica,sans-Serif" font-size="10.00">BitVector::get</text>
</a>
</g>
</g>
<!-- Node2&#45;&gt;Node3 -->
<g id="edge2_Node000002_Node000003" class="edge">
<title>Node2&#45;&gt;Node3</title>
<g id="a_edge2_Node000002_Node000003"><a xlink:title=" ">
<path fill="none" stroke="#63b8ff" d="M242.24,-57.09C256.39,-69.81 283.21,-92.11 310,-104.5 317.69,-108.06 326.15,-110.95 334.55,-113.3"/>
<polygon fill="#63b8ff" stroke="#63b8ff" points="333.76,-116.71 344.31,-115.81 335.5,-109.93 333.76,-116.71"/>
</a>
</g>
</g>
<!-- Node5 -->
<g id="Node000005" class="node">
<title>Node5</title>
<g id="a_Node000005"><a xlink:href="class_sequence.html#a8181f024304b3fb5f55c7118f648cc61" target="_top" xlink:title="Return a char (same format as Sequence::getType()) that indicate which alphabet is used in the during...">
<polygon fill="white" stroke="#666666" points="462,-95 310,-95 310,-76 462,-76 462,-95"/>
<text text-anchor="middle" x="386" y="-83" font-family="Helvetica,sans-Serif" font-size="10.00">Sequence::getEncodingType</text>
</a>
</g>
</g>
<!-- Node2&#45;&gt;Node5 -->
<g id="edge6_Node000002_Node000005" class="edge">
<title>Node2&#45;&gt;Node5</title>
<g id="a_edge6_Node000002_Node000005"><a xlink:title=" ">
<path fill="none" stroke="#63b8ff" d="M270.61,-57.09C290.71,-62.08 315.48,-68.23 336.82,-73.53"/>
<polygon fill="#63b8ff" stroke="#63b8ff" points="336.12,-76.97 346.67,-75.98 337.81,-70.17 336.12,-76.97"/>
</a>
</g>
</g>
<!-- Node2&#45;&gt;Node6 -->
<g id="edge7_Node000002_Node000006" class="edge">
<title>Node2&#45;&gt;Node6</title>
<g id="a_edge7_Node000002_Node000006"><a xlink:title=" ">
<path fill="none" stroke="#63b8ff" d="M251.69,-37.91C266.67,-32.79 288.3,-26.74 309.8,-21.43"/>
<polygon fill="#63b8ff" stroke="#63b8ff" points="310.74,-24.8 319.64,-19.05 309.1,-18 310.74,-24.8"/>
</a>
</g>
</g>
<!-- Node3&#45;&gt;Node3 -->
<g id="edge3_Node000003_Node000003" class="edge">
<title>Node3&#45;&gt;Node3</title>
<g id="a_edge3_Node000003_Node000003"><a xlink:title=" ">
<path fill="none" stroke="#63b8ff" d="M362.26,-132.08C350.72,-140.73 358.63,-150 386,-150 403.96,-150 413.54,-146.01 414.75,-140.82"/>
<polygon fill="#63b8ff" stroke="#63b8ff" points="417.75,-139.02 409.74,-132.08 411.67,-142.5 417.75,-139.02"/>
</a>
</g>
</g>
<!-- Node4 -->
<g id="Node000004" class="node">
<title>Node4</title>
<g id="a_Node000004"><a xlink:href="class_bit_vector_1_1_coords.html#a2892f7f46c4af93f9733e312229d8ec1" target="_top" xlink:title="Get Coords::octet .">
<polygon fill="white" stroke="#666666" points="615.5,-137.5 508.5,-137.5 508.5,-107.5 615.5,-107.5 615.5,-137.5"/>
<text text-anchor="start" x="516.5" y="-125.5" font-family="Helvetica,sans-Serif" font-size="10.00">BitVector::Coords::</text>
<text text-anchor="middle" x="562" y="-114.5" font-family="Helvetica,sans-Serif" font-size="10.00">getOctet</text>
</a>
</g>
</g>
<!-- Node3&#45;&gt;Node4 -->
<g id="edge4_Node000003_Node000004" class="edge">
<title>Node3&#45;&gt;Node4</title>
<g id="a_edge4_Node000003_Node000004"><a xlink:title=" ">
<path fill="none" stroke="#63b8ff" d="M427.8,-122.5C448.71,-122.5 474.64,-122.5 498.05,-122.5"/>
<polygon fill="#63b8ff" stroke="#63b8ff" points="498.25,-126 508.25,-122.5 498.25,-119 498.25,-126"/>
</a>
</g>
</g>
<!-- Node6&#45;&gt;Node2 -->
<g id="edge13_Node000006_Node000002" class="edge">
<title>Node6&#45;&gt;Node2</title>
<g id="a_edge13_Node000006_Node000002"><a xlink:title=" ">
<path fill="none" stroke="#63b8ff" d="M365.26,-19.11C344.86,-26.07 312.15,-34.77 284.25,-40.96"/>
<polygon fill="#63b8ff" stroke="#63b8ff" points="283.25,-37.6 274.21,-43.12 284.73,-44.44 283.25,-37.6"/>
</a>
</g>
</g>
<!-- Node7 -->
<g id="Node000007" class="node">
<title>Node7</title>
<g id="a_Node000007"><a xlink:href="class_sequence.html#a555c6e58957c4d07028eb5c67b1732ac" target="_top" xlink:title="Function used by Sequence::translationTab to create their compression map.">
<polygon fill="white" stroke="#666666" points="626,-38 498,-38 498,-19 626,-19 626,-38"/>
<text text-anchor="middle" x="562" y="-26" font-family="Helvetica,sans-Serif" font-size="10.00">Sequence::fillCodeMap</text>
</a>
</g>
</g>
<!-- Node6&#45;&gt;Node7 -->
<g id="edge8_Node000006_Node000007" class="edge">
<title>Node6&#45;&gt;Node7</title>
<g id="a_edge8_Node000006_Node000007"><a xlink:title=" ">
<path fill="none" stroke="#63b8ff" d="M455.77,-17.01C466.28,-18.16 477.16,-19.35 487.76,-20.5"/>
<polygon fill="#63b8ff" stroke="#63b8ff" points="487.5,-23.99 497.82,-21.6 488.26,-17.04 487.5,-23.99"/>
</a>
</g>
</g>
<!-- Node7&#45;&gt;Node2 -->
<g id="edge9_Node000007_Node000002" class="edge">
<title>Node7&#45;&gt;Node2</title>
<g id="a_edge9_Node000007_Node000002"><a xlink:title=" ">
<path fill="none" stroke="#63b8ff" d="M497.86,-32.15C435.73,-35.73 342.02,-41.15 284.04,-44.49"/>
<polygon fill="#63b8ff" stroke="#63b8ff" points="283.78,-41 274,-45.07 284.19,-47.99 283.78,-41"/>
</a>
</g>
</g>
<!-- Node8 -->
<g id="Node000008" class="node">
<title>Node8</title>
<g id="a_Node000008"><a xlink:href="class_sequence.html#acf21040958590f98163b3d11f19ea93e" target="_top" xlink:title="Give the number of element contained in this sequence.">
<polygon fill="white" stroke="#666666" points="751,-38 662,-38 662,-19 751,-19 751,-38"/>
<text text-anchor="middle" x="706.5" y="-26" font-family="Helvetica,sans-Serif" font-size="10.00">Sequence::size</text>
</a>
</g>
</g>
<!-- Node7&#45;&gt;Node8 -->
<g id="edge10_Node000007_Node000008" class="edge">
<title>Node7&#45;&gt;Node8</title>
<g id="a_edge10_Node000007_Node000008"><a xlink:title=" ">
<path fill="none" stroke="#63b8ff" d="M626.33,-28.5C634.8,-28.5 643.42,-28.5 651.7,-28.5"/>
<polygon fill="#63b8ff" stroke="#63b8ff" points="651.98,-32 661.98,-28.5 651.98,-25 651.98,-32"/>
</a>
</g>
</g>
<!-- Node9 -->
<g id="Node000009" class="node">
<title>Node9</title>
<g id="a_Node000009"><a xlink:href="class_bit_vector.html#ab30ea2b408107e4e6bc8095b5a64a1dd" target="_top" xlink:title="Number of element inside this object.">
<polygon fill="white" stroke="#666666" points="873,-38 787,-38 787,-19 873,-19 873,-38"/>
<text text-anchor="middle" x="830" y="-26" font-family="Helvetica,sans-Serif" font-size="10.00">BitVector::size</text>
</a>
</g>
</g>
<!-- Node8&#45;&gt;Node9 -->
<g id="edge11_Node000008_Node000009" class="edge">
<title>Node8&#45;&gt;Node9</title>
<g id="a_edge11_Node000008_Node000009"><a xlink:title=" ">
<path fill="none" stroke="#63b8ff" d="M751.02,-28.5C759.25,-28.5 767.94,-28.5 776.41,-28.5"/>
<polygon fill="#63b8ff" stroke="#63b8ff" points="776.6,-32 786.6,-28.5 776.6,-25 776.6,-32"/>
</a>
</g>
</g>
<!-- Node10 -->
<g id="Node000010" class="node">
<title>Node10</title>
<g id="a_Node000010"><a xlink:href="class_bit_vector.html#a5339660cfb315ab5de7f78bdf5af4ce1" target="_top" xlink:title="Get BitVector::_element_number.">
<polygon fill="white" stroke="#666666" points="1071,-38 909,-38 909,-19 1071,-19 1071,-38"/>
<text text-anchor="middle" x="990" y="-26" font-family="Helvetica,sans-Serif" font-size="10.00">BitVector::getElementNumber</text>
</a>
</g>
</g>
<!-- Node9&#45;&gt;Node10 -->
<g id="edge12_Node000009_Node000010" class="edge">
<title>Node9&#45;&gt;Node10</title>
<g id="a_edge12_Node000009_Node000010"><a xlink:title=" ">
<path fill="none" stroke="#63b8ff" d="M873.34,-28.5C881.23,-28.5 889.74,-28.5 898.44,-28.5"/>
<polygon fill="#63b8ff" stroke="#63b8ff" points="898.71,-32 908.71,-28.5 898.71,-25 898.71,-32"/>
</a>
</g>
</g>
</g>
</svg>
