<?xml version="1.0" encoding="UTF-8" standalone="no"?>
<!DOCTYPE svg PUBLIC "-//W3C//DTD SVG 1.1//EN"
 "http://www.w3.org/Graphics/SVG/1.1/DTD/svg11.dtd">
<!-- Generated by graphviz version 2.43.0 (0)
 -->
<!-- Title: BitVector::Coords::Coords Pages: 1 -->
<svg width="738pt" height="114pt"
 viewBox="0.00 0.00 738.00 113.50" xmlns="http://www.w3.org/2000/svg" xmlns:xlink="http://www.w3.org/1999/xlink">
<g id="graph0" class="graph" transform="scale(1 1) rotate(0) translate(4 109.5)">
<title>BitVector::Coords::Coords</title>
<!-- Node1 -->
<g id="Node000001" class="node">
<title>Node1</title>
<g id="a_Node000001"><a xlink:title="Construct a new Coords object. Coords::octet = 0 and Coords::bit = 0.">
<polygon fill="#999999" stroke="#666666" points="107,-83.5 0,-83.5 0,-53.5 107,-53.5 107,-83.5"/>
<text text-anchor="start" x="8" y="-71.5" font-family="Helvetica,sans-Serif" font-size="10.00">BitVector::Coords::</text>
<text text-anchor="middle" x="53.5" y="-60.5" font-family="Helvetica,sans-Serif" font-size="10.00">Coords</text>
</a>
</g>
</g>
<!-- Node2 -->
<g id="Node000002" class="node">
<title>Node2</title>
<g id="a_Node000002"><a xlink:href="class_bit_vector_1_1_coords.html#a2368da9407016aec60da11f41d59a96b" target="_top" xlink:title="Set Coords::bit value.">
<polygon fill="white" stroke="#666666" points="430.5,-105.5 323.5,-105.5 323.5,-75.5 430.5,-75.5 430.5,-105.5"/>
<text text-anchor="start" x="331.5" y="-93.5" font-family="Helvetica,sans-Serif" font-size="10.00">BitVector::Coords::</text>
<text text-anchor="middle" x="377" y="-82.5" font-family="Helvetica,sans-Serif" font-size="10.00">setBit</text>
</a>
</g>
</g>
<!-- Node1&#45;&gt;Node2 -->
<g id="edge1_Node000001_Node000002" class="edge">
<title>Node1&#45;&gt;Node2</title>
<g id="a_edge1_Node000001_Node000002"><a xlink:title=" ">
<path fill="none" stroke="#63b8ff" d="M107.23,-72.11C163.64,-75.97 253.09,-82.09 313.13,-86.2"/>
<polygon fill="#63b8ff" stroke="#63b8ff" points="313.03,-89.7 323.24,-86.89 313.5,-82.72 313.03,-89.7"/>
</a>
</g>
</g>
<!-- Node5 -->
<g id="Node000005" class="node">
<title>Node5</title>
<g id="a_Node000005"><a xlink:href="class_bit_vector_1_1_coords.html#a19516be1a614f2078b9fa96d42724e2e" target="_top" xlink:title="Set Coords::octet value.">
<polygon fill="white" stroke="#666666" points="250,-62.5 143,-62.5 143,-32.5 250,-32.5 250,-62.5"/>
<text text-anchor="start" x="151" y="-50.5" font-family="Helvetica,sans-Serif" font-size="10.00">BitVector::Coords::</text>
<text text-anchor="middle" x="196.5" y="-39.5" font-family="Helvetica,sans-Serif" font-size="10.00">setOctet</text>
</a>
</g>
</g>
<!-- Node1&#45;&gt;Node5 -->
<g id="edge5_Node000001_Node000005" class="edge">
<title>Node1&#45;&gt;Node5</title>
<g id="a_edge5_Node000001_Node000005"><a xlink:title=" ">
<path fill="none" stroke="#63b8ff" d="M107,-60.68C115.44,-59.42 124.26,-58.11 132.9,-56.82"/>
<polygon fill="#63b8ff" stroke="#63b8ff" points="133.58,-60.26 142.95,-55.33 132.55,-53.34 133.58,-60.26"/>
</a>
</g>
</g>
<!-- Node3 -->
<g id="Node000003" class="node">
<title>Node3</title>
<g id="a_Node000003"><a xlink:href="class_bit_vector.html#aebe159444eb9d619959b7325ac5dac2d" target="_top" xlink:title="Return the value of the bit at the position coord.">
<polygon fill="white" stroke="#666666" points="587,-57 504,-57 504,-38 587,-38 587,-57"/>
<text text-anchor="middle" x="545.5" y="-45" font-family="Helvetica,sans-Serif" font-size="10.00">BitVector::get</text>
</a>
</g>
</g>
<!-- Node2&#45;&gt;Node3 -->
<g id="edge2_Node000002_Node000003" class="edge">
<title>Node2&#45;&gt;Node3</title>
<g id="a_edge2_Node000002_Node000003"><a xlink:title=" ">
<path fill="none" stroke="#63b8ff" d="M430.68,-76.89C452.21,-71.33 476.92,-64.95 497.79,-59.56"/>
<polygon fill="#63b8ff" stroke="#63b8ff" points="498.9,-62.89 507.7,-57 497.15,-56.11 498.9,-62.89"/>
</a>
</g>
</g>
<!-- Node3&#45;&gt;Node3 -->
<g id="edge3_Node000003_Node000003" class="edge">
<title>Node3&#45;&gt;Node3</title>
<g id="a_edge3_Node000003_Node000003"><a xlink:title=" ">
<path fill="none" stroke="#63b8ff" d="M525.46,-57.08C515.72,-65.73 522.39,-75 545.5,-75 560.3,-75 568.36,-71.2 569.68,-66.19"/>
<polygon fill="#63b8ff" stroke="#63b8ff" points="572.86,-64.73 565.54,-57.08 566.49,-67.63 572.86,-64.73"/>
</a>
</g>
</g>
<!-- Node4 -->
<g id="Node000004" class="node">
<title>Node4</title>
<g id="a_Node000004"><a xlink:href="class_bit_vector_1_1_coords.html#a2892f7f46c4af93f9733e312229d8ec1" target="_top" xlink:title="Get Coords::octet .">
<polygon fill="white" stroke="#666666" points="730,-62.5 623,-62.5 623,-32.5 730,-32.5 730,-62.5"/>
<text text-anchor="start" x="631" y="-50.5" font-family="Helvetica,sans-Serif" font-size="10.00">BitVector::Coords::</text>
<text text-anchor="middle" x="676.5" y="-39.5" font-family="Helvetica,sans-Serif" font-size="10.00">getOctet</text>
</a>
</g>
</g>
<!-- Node3&#45;&gt;Node4 -->
<g id="edge4_Node000003_Node000004" class="edge">
<title>Node3&#45;&gt;Node4</title>
<g id="a_edge4_Node000003_Node000004"><a xlink:title=" ">
<path fill="none" stroke="#63b8ff" d="M587.32,-47.5C595.38,-47.5 604.02,-47.5 612.62,-47.5"/>
<polygon fill="#63b8ff" stroke="#63b8ff" points="612.66,-51 622.66,-47.5 612.66,-44 612.66,-51"/>
</a>
</g>
</g>
<!-- Node5&#45;&gt;Node3 -->
<g id="edge6_Node000005_Node000003" class="edge">
<title>Node5&#45;&gt;Node3</title>
<g id="a_edge6_Node000005_Node000003"><a xlink:title=" ">
<path fill="none" stroke="#63b8ff" d="M250.2,-47.5C316.25,-47.5 428.66,-47.5 493.77,-47.5"/>
<polygon fill="#63b8ff" stroke="#63b8ff" points="493.8,-51 503.8,-47.5 493.8,-44 493.8,-51"/>
</a>
</g>
</g>
<!-- Node6 -->
<g id="Node000006" class="node">
<title>Node6</title>
<g id="a_Node000006"><a xlink:href="class_bit_vector.html#aa3228d2bacb1bb0f6072d73d43a49456" target="_top" xlink:title="How many octet can be contained in this kind of object.">
<polygon fill="white" stroke="#666666" points="468,-19 286,-19 286,0 468,0 468,-19"/>
<text text-anchor="middle" x="377" y="-7" font-family="Helvetica,sans-Serif" font-size="10.00">BitVector::maximumOctetNumber</text>
</a>
</g>
</g>
<!-- Node5&#45;&gt;Node6 -->
<g id="edge7_Node000005_Node000006" class="edge">
<title>Node5&#45;&gt;Node6</title>
<g id="a_edge7_Node000005_Node000006"><a xlink:title=" ">
<path fill="none" stroke="#63b8ff" d="M250.09,-36.3C272.58,-31.52 298.82,-25.93 321.51,-21.1"/>
<polygon fill="#63b8ff" stroke="#63b8ff" points="322.27,-24.52 331.32,-19.01 320.81,-17.67 322.27,-24.52"/>
</a>
</g>
</g>
<!-- Node6&#45;&gt;Node3 -->
<g id="edge8_Node000006_Node000003" class="edge">
<title>Node6&#45;&gt;Node3</title>
<g id="a_edge8_Node000006_Node000003"><a xlink:title=" ">
<path fill="none" stroke="#63b8ff" d="M420.01,-19.09C442.52,-24.23 470.41,-30.59 494.08,-35.99"/>
<polygon fill="#63b8ff" stroke="#63b8ff" points="493.41,-39.43 503.94,-38.24 494.97,-32.6 493.41,-39.43"/>
</a>
</g>
</g>
</g>
</svg>
