<?xml version="1.0" encoding="UTF-8" standalone="no"?>
<!DOCTYPE svg PUBLIC "-//W3C//DTD SVG 1.1//EN"
 "http://www.w3.org/Graphics/SVG/1.1/DTD/svg11.dtd">
<!-- Generated by graphviz version 2.43.0 (0)
 -->
<!-- Title: FastaSequence::loadComments Pages: 1 -->
<svg width="592pt" height="27pt"
 viewBox="0.00 0.00 592.00 27.00" xmlns="http://www.w3.org/2000/svg" xmlns:xlink="http://www.w3.org/1999/xlink">
<g id="graph0" class="graph" transform="scale(1 1) rotate(0) translate(4 23)">
<title>FastaSequence::loadComments</title>
<!-- Node1 -->
<g id="Node000001" class="node">
<title>Node1</title>
<g id="a_Node000001"><a xlink:title="Load a number of comment from a map.">
<polygon fill="#999999" stroke="#666666" points="170,-19 0,-19 0,0 170,0 170,-19"/>
<text text-anchor="middle" x="85" y="-7" font-family="Helvetica,sans-Serif" font-size="10.00">FastaSequence::loadComments</text>
</a>
</g>
</g>
<!-- Node2 -->
<g id="Node000002" class="node">
<title>Node2</title>
<g id="a_Node000002"><a xlink:href="class_fasta_sequence.html#aef714753277c2a10876429e3c579ef95" target="_top" xlink:title="Add a comment to a position.">
<polygon fill="white" stroke="#666666" points="367,-19 206,-19 206,0 367,0 367,-19"/>
<text text-anchor="middle" x="286.5" y="-7" font-family="Helvetica,sans-Serif" font-size="10.00">FastaSequence::addComment</text>
</a>
</g>
</g>
<!-- Node1&#45;&gt;Node2 -->
<g id="edge1_Node000001_Node000002" class="edge">
<title>Node1&#45;&gt;Node2</title>
<g id="a_edge1_Node000001_Node000002"><a xlink:title=" ">
<path fill="none" stroke="#63b8ff" d="M170.03,-9.5C178.43,-9.5 186.99,-9.5 195.45,-9.5"/>
<polygon fill="#63b8ff" stroke="#63b8ff" points="195.71,-13 205.71,-9.5 195.71,-6 195.71,-13"/>
</a>
</g>
</g>
<!-- Node3 -->
<g id="Node000003" class="node">
<title>Node3</title>
<g id="a_Node000003"><a xlink:href="class_fasta_sequence.html#a2ce25dcf6751310494e59be402017036" target="_top" xlink:title="Do this position is commented.">
<polygon fill="white" stroke="#666666" points="584,-19 403,-19 403,0 584,0 584,-19"/>
<text text-anchor="middle" x="493.5" y="-7" font-family="Helvetica,sans-Serif" font-size="10.00">FastaSequence::isCommentedPos</text>
</a>
</g>
</g>
<!-- Node2&#45;&gt;Node3 -->
<g id="edge2_Node000002_Node000003" class="edge">
<title>Node2&#45;&gt;Node3</title>
<g id="a_edge2_Node000002_Node000003"><a xlink:title=" ">
<path fill="none" stroke="#63b8ff" d="M367.05,-9.5C375.46,-9.5 384.09,-9.5 392.7,-9.5"/>
<polygon fill="#63b8ff" stroke="#63b8ff" points="392.78,-13 402.78,-9.5 392.78,-6 392.78,-13"/>
</a>
</g>
</g>
</g>
</svg>
