<?xml version="1.0" encoding="UTF-8" standalone="no"?>
<!DOCTYPE svg PUBLIC "-//W3C//DTD SVG 1.1//EN"
 "http://www.w3.org/Graphics/SVG/1.1/DTD/svg11.dtd">
<!-- Generated by graphviz version 2.43.0 (0)
 -->
<!-- Title: BitVector::BitVector Pages: 1 -->
<!--zoomable 419 -->

<svg id="main" version="1.1" xmlns="http://www.w3.org/2000/svg" xmlns:xlink="http://www.w3.org/1999/xlink" xml:space="preserve" onload="init(evt)">
<style type="text/css"><![CDATA[
.node, .edge {opacity: 0.7;}
.node.selected, .edge.selected {opacity: 1;}
.edge:hover path { stroke: red; }
.edge:hover polygon { stroke: red; fill: red; }
]]></style>

<defs>
  <circle id="rim" cx="0" cy="0" r="7"/>
  <circle id="rim2" cx="0" cy="0" r="3.5"/>
  <g id="zoomPlus">
    <use xlink:href="#rim" fill="#404040"><set attributeName="fill" to="#808080" begin="zoomplus.mouseover" end="zoomplus.mouseout"/></use>
    <path d="M-4,0h8M0,-4v8" fill="none" stroke="white" stroke-width="1.5" pointer-events="none"/>
  </g>
  <g id="zoomMin">
    <use xlink:href="#rim" fill="#404040"><set attributeName="fill" to="#808080" begin="zoomminus.mouseover" end="zoomminus.mouseout"/></use>
    <path d="M-4,0h8" fill="none" stroke="white" stroke-width="1.5" pointer-events="none"/>
  </g>
  <g id="arrowUp" transform="translate(30 24)">
    <use xlink:href="#rim"/>
    <path pointer-events="none" fill="none" stroke="white" stroke-width="1.5" d="M0,-3.0v7 M-2.5,-0.5L0,-3.0L2.5,-0.5"/>
  </g>
  <g id="arrowRight" transform="rotate(90) translate(36 -43)">
    <use xlink:href="#rim"/>
    <path pointer-events="none" fill="none" stroke="white" stroke-width="1.5" d="M0,-3.0v7 M-2.5,-0.5L0,-3.0L2.5,-0.5"/>
  </g>
  <g id="arrowDown" transform="rotate(180) translate(-30 -48)">
    <use xlink:href="#rim"/>
    <path pointer-events="none" fill="none" stroke="white" stroke-width="1.5" d="M0,-3.0v7 M-2.5,-0.5L0,-3.0L2.5,-0.5"/>
  </g>
  <g id="arrowLeft" transform="rotate(270) translate(-36 17)">
    <use xlink:href="#rim"/>
    <path pointer-events="none" fill="none" stroke="white" stroke-width="1.5" d="M0,-3.0v7 M-2.5,-0.5L0,-3.0L2.5,-0.5"/>
  </g>
  <g id="resetDef">
    <use xlink:href="#rim2" fill="#404040"><set attributeName="fill" to="#808080" begin="reset.mouseover" end="reset.mouseout"/></use>
  </g>
</defs>
<script type="application/ecmascript">
var viewWidth = 1629;
var viewHeight = 419;
var sectionId = 'dynsection-2';
</script>
<script type="application/ecmascript" xlink:href="svg.min.js"/>
<svg id="graph" class="graph">
<g id="viewport">
<title>BitVector::BitVector</title>
<!-- Node1 -->
<g id="Node000001" class="node">
<title>Node1</title>
<g id="a_Node000001"><a xlink:title="Construct a new Bit Vector object.">
<polygon fill="#999999" stroke="#666666" points="111,-295.94 0,-295.94 0,-276.94 111,-276.94 111,-295.94"/>
<text text-anchor="middle" x="55.5" y="-283.94" font-family="Helvetica,sans-Serif" font-size="10.00">BitVector::BitVector</text>
</a>
</g>
</g>
<!-- Node2 -->
<g id="Node000002" class="node">
<title>Node2</title>
<g id="a_Node000002"><a xlink:href="class_bit_vector.html#afbdbe8a5003f5941ffd5ab095cf87d88" target="_top" xlink:title="Add an element at the end of the vector.">
<polygon fill="white" stroke="#666666" points="250,-295.94 147,-295.94 147,-276.94 250,-276.94 250,-295.94"/>
<text text-anchor="middle" x="198.5" y="-283.94" font-family="Helvetica,sans-Serif" font-size="10.00">BitVector::append</text>
</a>
</g>
</g>
<!-- Node1&#45;&gt;Node2 -->
<g id="edge1_Node000001_Node000002" class="edge">
<title>Node1&#45;&gt;Node2</title>
<g id="a_edge1_Node000001_Node000002"><a xlink:title=" ">
<path fill="none" stroke="#63b8ff" d="M111.01,-286.44C119.39,-286.44 128.08,-286.44 136.58,-286.44"/>
<polygon fill="#63b8ff" stroke="#63b8ff" points="136.83,-289.94 146.83,-286.44 136.83,-282.94 136.83,-289.94"/>
</a>
</g>
</g>
<!-- Node3 -->
<g id="Node000003" class="node">
<title>Node3</title>
<g id="a_Node000003"><a xlink:href="class_bit_vector.html#aca24053f655c825de0f06ec86fff1cec" target="_top" xlink:title="Replace an element by another element. Can add an element to the list if index = BitVector::_element_...">
<polygon fill="white" stroke="#666666" points="368,-257.94 286,-257.94 286,-238.94 368,-238.94 368,-257.94"/>
<text text-anchor="middle" x="327" y="-245.94" font-family="Helvetica,sans-Serif" font-size="10.00">BitVector::set</text>
</a>
</g>
</g>
<!-- Node1&#45;&gt;Node3 -->
<g id="edge28_Node000001_Node000003" class="edge">
<title>Node1&#45;&gt;Node3</title>
<g id="a_edge28_Node000001_Node000003"><a xlink:title=" ">
<path fill="none" stroke="#63b8ff" d="M97.79,-276.85C113.17,-273.52 130.82,-269.99 147,-267.44 190.13,-260.64 239.49,-255.6 275.45,-252.43"/>
<polygon fill="#63b8ff" stroke="#63b8ff" points="276.02,-255.89 285.68,-251.55 275.42,-248.92 276.02,-255.89"/>
</a>
</g>
</g>
<!-- Node5 -->
<g id="Node000005" class="node">
<title>Node5</title>
<g id="a_Node000005"><a xlink:href="class_bit_vector.html#aebe159444eb9d619959b7325ac5dac2d" target="_top" xlink:title="Return the value of the bit at the position coord.">
<polygon fill="white" stroke="#666666" points="1478,-186.94 1395,-186.94 1395,-167.94 1478,-167.94 1478,-186.94"/>
<text text-anchor="middle" x="1436.5" y="-174.94" font-family="Helvetica,sans-Serif" font-size="10.00">BitVector::get</text>
</a>
</g>
</g>
<!-- Node1&#45;&gt;Node5 -->
<g id="edge27_Node000001_Node000005" class="edge">
<title>Node1&#45;&gt;Node5</title>
<g id="a_edge27_Node000001_Node000005"><a xlink:title=" ">
<path fill="none" stroke="#63b8ff" d="M67.97,-296.17C103.65,-325.4 216.81,-410.44 326,-410.44 326,-410.44 326,-410.44 1075,-410.44 1205.78,-410.44 1258.12,-416.67 1359,-333.44 1402.69,-297.39 1423.45,-230.3 1431.41,-197.09"/>
<polygon fill="#63b8ff" stroke="#63b8ff" points="1434.84,-197.75 1433.63,-187.23 1428.02,-196.21 1434.84,-197.75"/>
</a>
</g>
</g>
<!-- Node2&#45;&gt;Node3 -->
<g id="edge2_Node000002_Node000003" class="edge">
<title>Node2&#45;&gt;Node3</title>
<g id="a_edge2_Node000002_Node000003"><a xlink:title=" ">
<path fill="none" stroke="#63b8ff" d="M231.42,-276.85C247.45,-272.04 267.07,-266.14 284.28,-260.97"/>
<polygon fill="#63b8ff" stroke="#63b8ff" points="285.52,-264.25 294.09,-258.03 283.5,-257.55 285.52,-264.25"/>
</a>
</g>
</g>
<!-- Node4 -->
<g id="Node000004" class="node">
<title>Node4</title>
<g id="a_Node000004"><a xlink:href="class_bit_vector.html#a8c3c1f0faa0bbf35638c7217a841cbd8" target="_top" xlink:title=" ">
<polygon fill="white" stroke="#666666" points="525.5,-333.94 416.5,-333.94 416.5,-314.94 525.5,-314.94 525.5,-333.94"/>
<text text-anchor="middle" x="471" y="-321.94" font-family="Helvetica,sans-Serif" font-size="10.00">BitVector::copyBits</text>
</a>
</g>
</g>
<!-- Node3&#45;&gt;Node4 -->
<g id="edge3_Node000003_Node000004" class="edge">
<title>Node3&#45;&gt;Node4</title>
<g id="a_edge3_Node000003_Node000004"><a xlink:title=" ">
<path fill="none" stroke="#63b8ff" d="M340.04,-258.1C354.54,-269.39 379.97,-288.1 404,-300.44 411.96,-304.53 420.78,-308.24 429.31,-311.46"/>
<polygon fill="#63b8ff" stroke="#63b8ff" points="428.17,-314.77 438.76,-314.89 430.55,-308.19 428.17,-314.77"/>
</a>
</g>
</g>
<!-- Node3&#45;&gt;Node5 -->
<g id="edge8_Node000003_Node000005" class="edge">
<title>Node3&#45;&gt;Node5</title>
<g id="a_edge8_Node000003_Node000005"><a xlink:title=" ">
<path fill="none" stroke="#63b8ff" d="M368.12,-256.53C379.67,-258.67 392.3,-260.83 404,-262.44 519.18,-278.32 548.23,-286.44 664.5,-286.44 664.5,-286.44 664.5,-286.44 1075,-286.44 1203.01,-286.44 1242.13,-290.67 1359,-238.44 1382.55,-227.91 1405.08,-208.41 1419.52,-194.28"/>
<polygon fill="#63b8ff" stroke="#63b8ff" points="1422.1,-196.64 1426.66,-187.08 1417.13,-191.72 1422.1,-196.64"/>
</a>
</g>
</g>
<!-- Node8 -->
<g id="Node000008" class="node">
<title>Node8</title>
<g id="a_Node000008"><a xlink:href="class_bit_vector.html#a115789c8a9812eabb52f8843cd4e9965" target="_top" xlink:title="Give the a coord object that represent the size of 1 element inside BitVector::_data.">
<polygon fill="white" stroke="#666666" points="1345.5,-229.94 1214.5,-229.94 1214.5,-210.94 1345.5,-210.94 1345.5,-229.94"/>
<text text-anchor="middle" x="1280" y="-217.94" font-family="Helvetica,sans-Serif" font-size="10.00">BitVector::getCoordUnit</text>
</a>
</g>
</g>
<!-- Node3&#45;&gt;Node8 -->
<g id="edge9_Node000003_Node000008" class="edge">
<title>Node3&#45;&gt;Node8</title>
<g id="a_edge9_Node000003_Node000008"><a xlink:title=" ">
<path fill="none" stroke="#63b8ff" d="M368.24,-240.93C431.19,-229.86 556.91,-210.44 664.5,-210.44 664.5,-210.44 664.5,-210.44 871,-210.44 987.36,-210.44 1122.33,-214.56 1204.15,-217.51"/>
<polygon fill="#63b8ff" stroke="#63b8ff" points="1204.23,-221.01 1214.35,-217.88 1204.49,-214.02 1204.23,-221.01"/>
</a>
</g>
</g>
<!-- Node9 -->
<g id="Node000009" class="node">
<title>Node9</title>
<g id="a_Node000009"><a xlink:href="class_bit_vector.html#a93ab8bc2ec39bf299ae28ffcad504b41" target="_top" xlink:title="Give the coords of the first bit of an element.">
<polygon fill="white" stroke="#666666" points="538,-133.94 404,-133.94 404,-114.94 538,-114.94 538,-133.94"/>
<text text-anchor="middle" x="471" y="-121.94" font-family="Helvetica,sans-Serif" font-size="10.00">BitVector::indexElement</text>
</a>
</g>
</g>
<!-- Node3&#45;&gt;Node9 -->
<g id="edge11_Node000003_Node000009" class="edge">
<title>Node3&#45;&gt;Node9</title>
<g id="a_edge11_Node000003_Node000009"><a xlink:title=" ">
<path fill="none" stroke="#63b8ff" d="M333.5,-238.81C344.62,-220.09 371.51,-178.4 404,-153.44 411.96,-147.33 421.4,-142.2 430.62,-138.04"/>
<polygon fill="#63b8ff" stroke="#63b8ff" points="432.22,-141.16 440.08,-134.05 429.5,-134.71 432.22,-141.16"/>
</a>
</g>
</g>
<!-- Node16 -->
<g id="Node000016" class="node">
<title>Node16</title>
<g id="a_Node000016"><a xlink:href="class_bit_vector.html#ab4d98ce4b8d36ed6af1aa46e67810972" target="_top" xlink:title="Give the last coordinates thar can be contained inside BitVector::_data with the current BitVector::_...">
<polygon fill="white" stroke="#666666" points="520,-181.94 422,-181.94 422,-162.94 520,-162.94 520,-181.94"/>
<text text-anchor="middle" x="471" y="-169.94" font-family="Helvetica,sans-Serif" font-size="10.00">BitVector::lastBit</text>
</a>
</g>
</g>
<!-- Node3&#45;&gt;Node16 -->
<g id="edge24_Node000003_Node000016" class="edge">
<title>Node3&#45;&gt;Node16</title>
<g id="a_edge24_Node000003_Node000016"><a xlink:title=" ">
<path fill="none" stroke="#63b8ff" d="M340.04,-238.78C354.54,-227.49 379.97,-208.78 404,-196.44 411.96,-192.35 420.78,-188.64 429.31,-185.41"/>
<polygon fill="#63b8ff" stroke="#63b8ff" points="430.55,-188.69 438.76,-181.99 428.17,-182.11 430.55,-188.69"/>
</a>
</g>
</g>
<!-- Node17 -->
<g id="Node000017" class="node">
<title>Node17</title>
<g id="a_Node000017"><a xlink:href="class_bit_vector.html#ab92cdd9780b949d9d762f58e1ee4a0ae" target="_top" xlink:title="Last postion of the vector.">
<polygon fill="white" stroke="#666666" points="921,-257.94 819,-257.94 819,-238.94 921,-238.94 921,-257.94"/>
<text text-anchor="middle" x="870" y="-245.94" font-family="Helvetica,sans-Serif" font-size="10.00">BitVector::lastPos</text>
</a>
</g>
</g>
<!-- Node3&#45;&gt;Node17 -->
<g id="edge25_Node000003_Node000017" class="edge">
<title>Node3&#45;&gt;Node17</title>
<g id="a_edge25_Node000003_Node000017"><a xlink:title=" ">
<path fill="none" stroke="#63b8ff" d="M368.22,-248.44C462.38,-248.44 697.53,-248.44 808.82,-248.44"/>
<polygon fill="#63b8ff" stroke="#63b8ff" points="808.87,-251.94 818.87,-248.44 808.87,-244.94 808.87,-251.94"/>
</a>
</g>
</g>
<!-- Node4&#45;&gt;Node5 -->
<g id="edge4_Node000004_Node000005" class="edge">
<title>Node4&#45;&gt;Node5</title>
<g id="a_edge4_Node000004_Node000005"><a xlink:title=" ">
<path fill="none" stroke="#63b8ff" d="M525.62,-324.44C601.9,-324.44 746.14,-324.44 869,-324.44 869,-324.44 869,-324.44 1075,-324.44 1201.67,-324.44 1250.97,-366.58 1359,-300.44 1397.8,-276.69 1419.96,-225.09 1429.63,-196.86"/>
<polygon fill="#63b8ff" stroke="#63b8ff" points="1432.98,-197.88 1432.73,-187.29 1426.32,-195.72 1432.98,-197.88"/>
</a>
</g>
</g>
<!-- Node7 -->
<g id="Node000007" class="node">
<title>Node7</title>
<g id="a_Node000007"><a xlink:href="class_bit_vector_1_1_coords.html#a393207c752f8f9121aca38c938914154" target="_top" xlink:title="Get Coords::bit .">
<polygon fill="white" stroke="#666666" points="719,-382.44 612,-382.44 612,-352.44 719,-352.44 719,-382.44"/>
<text text-anchor="start" x="620" y="-370.44" font-family="Helvetica,sans-Serif" font-size="10.00">BitVector::Coords::</text>
<text text-anchor="middle" x="665.5" y="-359.44" font-family="Helvetica,sans-Serif" font-size="10.00">getBit</text>
</a>
</g>
</g>
<!-- Node4&#45;&gt;Node7 -->
<g id="edge7_Node000004_Node000007" class="edge">
<title>Node4&#45;&gt;Node7</title>
<g id="a_edge7_Node000004_Node000007"><a xlink:title=" ">
<path fill="none" stroke="#63b8ff" d="M514.72,-333.98C540.38,-339.72 573.49,-347.11 602.05,-353.49"/>
<polygon fill="#63b8ff" stroke="#63b8ff" points="601.42,-356.94 611.94,-355.7 602.95,-350.1 601.42,-356.94"/>
</a>
</g>
</g>
<!-- Node5&#45;&gt;Node5 -->
<g id="edge5_Node000005_Node000005" class="edge">
<title>Node5&#45;&gt;Node5</title>
<g id="a_edge5_Node000005_Node000005"><a xlink:title=" ">
<path fill="none" stroke="#63b8ff" d="M1416.46,-187.02C1406.72,-195.67 1413.39,-204.94 1436.5,-204.94 1451.3,-204.94 1459.36,-201.14 1460.68,-196.13"/>
<polygon fill="#63b8ff" stroke="#63b8ff" points="1463.86,-194.67 1456.54,-187.02 1457.49,-197.57 1463.86,-194.67"/>
</a>
</g>
</g>
<!-- Node6 -->
<g id="Node000006" class="node">
<title>Node6</title>
<g id="a_Node000006"><a xlink:href="class_bit_vector_1_1_coords.html#a2892f7f46c4af93f9733e312229d8ec1" target="_top" xlink:title="Get Coords::octet .">
<polygon fill="white" stroke="#666666" points="1621,-192.44 1514,-192.44 1514,-162.44 1621,-162.44 1621,-192.44"/>
<text text-anchor="start" x="1522" y="-180.44" font-family="Helvetica,sans-Serif" font-size="10.00">BitVector::Coords::</text>
<text text-anchor="middle" x="1567.5" y="-169.44" font-family="Helvetica,sans-Serif" font-size="10.00">getOctet</text>
</a>
</g>
</g>
<!-- Node5&#45;&gt;Node6 -->
<g id="edge6_Node000005_Node000006" class="edge">
<title>Node5&#45;&gt;Node6</title>
<g id="a_edge6_Node000005_Node000006"><a xlink:title=" ">
<path fill="none" stroke="#63b8ff" d="M1478.32,-177.44C1486.38,-177.44 1495.02,-177.44 1503.62,-177.44"/>
<polygon fill="#63b8ff" stroke="#63b8ff" points="1503.66,-180.94 1513.66,-177.44 1503.66,-173.94 1503.66,-180.94"/>
</a>
</g>
</g>
<!-- Node8&#45;&gt;Node5 -->
<g id="edge10_Node000008_Node000005" class="edge">
<title>Node8&#45;&gt;Node5</title>
<g id="a_edge10_Node000008_Node000005"><a xlink:title=" ">
<path fill="none" stroke="#63b8ff" d="M1322.42,-210.88C1334.27,-208 1347.18,-204.73 1359,-201.44 1371.36,-198 1384.74,-193.92 1396.8,-190.12"/>
<polygon fill="#63b8ff" stroke="#63b8ff" points="1398.11,-193.38 1406.57,-187 1395.98,-186.71 1398.11,-193.38"/>
</a>
</g>
</g>
<!-- Node9&#45;&gt;Node5 -->
<g id="edge12_Node000009_Node000005" class="edge">
<title>Node9&#45;&gt;Node5</title>
<g id="a_edge12_Node000009_Node000005"><a xlink:title=" ">
<path fill="none" stroke="#63b8ff" d="M490.86,-114.92C546.92,-87.52 718.05,-10.44 869,-10.44 869,-10.44 869,-10.44 1075,-10.44 1202.02,-10.44 1253.01,27.57 1359,-42.44 1400.44,-69.81 1421.87,-127.77 1430.62,-158.07"/>
<polygon fill="#63b8ff" stroke="#63b8ff" points="1427.28,-159.14 1433.28,-167.87 1434.04,-157.31 1427.28,-159.14"/>
</a>
</g>
</g>
<!-- Node10 -->
<g id="Node000010" class="node">
<title>Node10</title>
<g id="a_Node000010"><a xlink:href="class_bit_vector.html#a04e6d0b67ee9b42ccec437b0176067fe" target="_top" xlink:title="Give A size_t that represent the coords of the first bit of an element.">
<polygon fill="white" stroke="#666666" points="757,-133.94 574,-133.94 574,-114.94 757,-114.94 757,-133.94"/>
<text text-anchor="middle" x="665.5" y="-121.94" font-family="Helvetica,sans-Serif" font-size="10.00">BitVector::indexElementUntreated</text>
</a>
</g>
</g>
<!-- Node9&#45;&gt;Node10 -->
<g id="edge13_Node000009_Node000010" class="edge">
<title>Node9&#45;&gt;Node10</title>
<g id="a_edge13_Node000009_Node000010"><a xlink:title=" ">
<path fill="none" stroke="#63b8ff" d="M538.25,-124.44C546.53,-124.44 555.15,-124.44 563.81,-124.44"/>
<polygon fill="#63b8ff" stroke="#63b8ff" points="563.99,-127.94 573.99,-124.44 563.99,-120.94 563.99,-127.94"/>
</a>
</g>
</g>
<!-- Node10&#45;&gt;Node5 -->
<g id="edge14_Node000010_Node000005" class="edge">
<title>Node10&#45;&gt;Node5</title>
<g id="a_edge14_Node000010_Node000005"><a xlink:title=" ">
<path fill="none" stroke="#63b8ff" d="M709.85,-114.92C843.24,-86.54 1245.4,-8.08 1359,-67.44 1395.6,-86.57 1418.23,-132.07 1428.66,-158.17"/>
<polygon fill="#63b8ff" stroke="#63b8ff" points="1425.47,-159.62 1432.28,-167.73 1432.01,-157.14 1425.47,-159.62"/>
</a>
</g>
</g>
<!-- Node11 -->
<g id="Node000011" class="node">
<title>Node11</title>
<g id="a_Node000011"><a xlink:href="class_bit_vector.html#af68cda7444ec4459393bbfa423f0a7dd" target="_top" xlink:title="Get the Size_t value if a BitVector::CoordUnit.">
<polygon fill="white" stroke="#666666" points="1125.5,-182.44 1022.5,-182.44 1022.5,-152.44 1125.5,-152.44 1125.5,-182.44"/>
<text text-anchor="start" x="1030.5" y="-170.44" font-family="Helvetica,sans-Serif" font-size="10.00">BitVector::getSize</text>
<text text-anchor="middle" x="1074" y="-159.44" font-family="Helvetica,sans-Serif" font-size="10.00">_tUnit</text>
</a>
</g>
</g>
<!-- Node10&#45;&gt;Node11 -->
<g id="edge15_Node000010_Node000011" class="edge">
<title>Node10&#45;&gt;Node11</title>
<g id="a_edge15_Node000010_Node000011"><a xlink:title=" ">
<path fill="none" stroke="#63b8ff" d="M728.83,-133.97C749.25,-136.91 772.07,-140.02 793,-142.44 868.31,-151.15 955.31,-158.5 1012.09,-162.92"/>
<polygon fill="#63b8ff" stroke="#63b8ff" points="1012.1,-166.44 1022.34,-163.72 1012.64,-159.46 1012.1,-166.44"/>
</a>
</g>
</g>
<!-- Node13 -->
<g id="Node000013" class="node">
<title>Node13</title>
<g id="a_Node000013"><a xlink:href="class_bit_vector.html#ad36e7d0b4b1417ca434414fa40c72eb8" target="_top" xlink:title="How many element can be contained in this object knowing BitVector::_element_size.">
<polygon fill="white" stroke="#666666" points="947,-133.94 793,-133.94 793,-114.94 947,-114.94 947,-133.94"/>
<text text-anchor="middle" x="870" y="-121.94" font-family="Helvetica,sans-Serif" font-size="10.00">BitVector::maxElementLimit</text>
</a>
</g>
</g>
<!-- Node10&#45;&gt;Node13 -->
<g id="edge18_Node000010_Node000013" class="edge">
<title>Node10&#45;&gt;Node13</title>
<g id="a_edge18_Node000010_Node000013"><a xlink:title=" ">
<path fill="none" stroke="#63b8ff" d="M757.09,-124.44C765.55,-124.44 774.11,-124.44 782.53,-124.44"/>
<polygon fill="#63b8ff" stroke="#63b8ff" points="782.72,-127.94 792.72,-124.44 782.72,-120.94 782.72,-127.94"/>
</a>
</g>
</g>
<!-- Node11&#45;&gt;Node8 -->
<g id="edge16_Node000011_Node000008" class="edge">
<title>Node11&#45;&gt;Node8</title>
<g id="a_edge16_Node000011_Node000008"><a xlink:title=" ">
<path fill="none" stroke="#63b8ff" d="M1125.51,-181.37C1148.5,-187.64 1176.09,-195.05 1201,-201.44 1210.02,-203.76 1219.65,-206.16 1228.95,-208.44"/>
<polygon fill="#63b8ff" stroke="#63b8ff" points="1228.33,-211.89 1238.87,-210.87 1229.99,-205.09 1228.33,-211.89"/>
</a>
</g>
</g>
<!-- Node12 -->
<g id="Node000012" class="node">
<title>Node12</title>
<g id="a_Node000012"><a xlink:href="class_bit_vector_1_1_coords.html#a3a4fac9de925974af9c8a66a1d0179e6" target="_top" xlink:title="Translate octet and bit value inside a size_t. Allow easier mathematic computations.">
<polygon fill="white" stroke="#666666" points="1333.5,-192.44 1226.5,-192.44 1226.5,-162.44 1333.5,-162.44 1333.5,-192.44"/>
<text text-anchor="start" x="1234.5" y="-180.44" font-family="Helvetica,sans-Serif" font-size="10.00">BitVector::Coords::</text>
<text text-anchor="middle" x="1280" y="-169.44" font-family="Helvetica,sans-Serif" font-size="10.00">toSize_t</text>
</a>
</g>
</g>
<!-- Node11&#45;&gt;Node12 -->
<g id="edge17_Node000011_Node000012" class="edge">
<title>Node11&#45;&gt;Node12</title>
<g id="a_edge17_Node000011_Node000012"><a xlink:title=" ">
<path fill="none" stroke="#63b8ff" d="M1125.69,-169.92C1153.13,-171.27 1187.28,-172.94 1216.38,-174.37"/>
<polygon fill="#63b8ff" stroke="#63b8ff" points="1216.28,-177.87 1226.44,-174.86 1216.62,-170.88 1216.28,-177.87"/>
</a>
</g>
</g>
<!-- Node13&#45;&gt;Node11 -->
<g id="edge19_Node000013_Node000011" class="edge">
<title>Node13&#45;&gt;Node11</title>
<g id="a_edge19_Node000013_Node000011"><a xlink:title=" ">
<path fill="none" stroke="#63b8ff" d="M915.83,-133.98C944.25,-140.03 981.38,-147.94 1012.41,-154.54"/>
<polygon fill="#63b8ff" stroke="#63b8ff" points="1011.74,-157.98 1022.25,-156.64 1013.2,-151.13 1011.74,-157.98"/>
</a>
</g>
</g>
<!-- Node14 -->
<g id="Node000014" class="node">
<title>Node14</title>
<g id="a_Node000014"><a xlink:href="class_bit_vector.html#a68b14af0886039ddcf55c82a250deb4c" target="_top" xlink:title="How many element can be contained in this kind of object.">
<polygon fill="white" stroke="#666666" points="1359,-106.44 1201,-106.44 1201,-76.44 1359,-76.44 1359,-106.44"/>
<text text-anchor="start" x="1209" y="-94.44" font-family="Helvetica,sans-Serif" font-size="10.00">BitVector::maximumElement</text>
<text text-anchor="middle" x="1280" y="-83.44" font-family="Helvetica,sans-Serif" font-size="10.00">Number</text>
</a>
</g>
</g>
<!-- Node13&#45;&gt;Node14 -->
<g id="edge20_Node000013_Node000014" class="edge">
<title>Node13&#45;&gt;Node14</title>
<g id="a_edge20_Node000013_Node000014"><a xlink:title=" ">
<path fill="none" stroke="#63b8ff" d="M919.34,-114.93C939.01,-111.4 962.02,-107.71 983,-105.44 1052.63,-97.92 1131.9,-94.43 1190.87,-92.82"/>
<polygon fill="#63b8ff" stroke="#63b8ff" points="1190.99,-96.32 1200.9,-92.56 1190.81,-89.33 1190.99,-96.32"/>
</a>
</g>
</g>
<!-- Node15 -->
<g id="Node000015" class="node">
<title>Node15</title>
<g id="a_Node000015"><a xlink:href="class_bit_vector.html#aa3228d2bacb1bb0f6072d73d43a49456" target="_top" xlink:title="How many octet can be contained in this kind of object.">
<polygon fill="white" stroke="#666666" points="1165,-133.94 983,-133.94 983,-114.94 1165,-114.94 1165,-133.94"/>
<text text-anchor="middle" x="1074" y="-121.94" font-family="Helvetica,sans-Serif" font-size="10.00">BitVector::maximumOctetNumber</text>
</a>
</g>
</g>
<!-- Node13&#45;&gt;Node15 -->
<g id="edge22_Node000013_Node000015" class="edge">
<title>Node13&#45;&gt;Node15</title>
<g id="a_edge22_Node000013_Node000015"><a xlink:title=" ">
<path fill="none" stroke="#63b8ff" d="M947.08,-124.44C955.44,-124.44 964.04,-124.44 972.64,-124.44"/>
<polygon fill="#63b8ff" stroke="#63b8ff" points="972.71,-127.94 982.71,-124.44 972.71,-120.94 972.71,-127.94"/>
</a>
</g>
</g>
<!-- Node14&#45;&gt;Node5 -->
<g id="edge21_Node000014_Node000005" class="edge">
<title>Node14&#45;&gt;Node5</title>
<g id="a_edge21_Node000014_Node000005"><a xlink:title=" ">
<path fill="none" stroke="#63b8ff" d="M1328.15,-106.51C1338.56,-110.51 1349.35,-115.19 1359,-120.44 1380.16,-131.95 1401.97,-148.78 1416.86,-161.17"/>
<polygon fill="#63b8ff" stroke="#63b8ff" points="1414.88,-164.08 1424.77,-167.88 1419.41,-158.74 1414.88,-164.08"/>
</a>
</g>
</g>
<!-- Node15&#45;&gt;Node5 -->
<g id="edge23_Node000015_Node000005" class="edge">
<title>Node15&#45;&gt;Node5</title>
<g id="a_edge23_Node000015_Node000005"><a xlink:title=" ">
<path fill="none" stroke="#63b8ff" d="M1165.24,-128.98C1221.42,-132.96 1294.92,-140.26 1359,-153.44 1372.56,-156.23 1387.12,-160.47 1399.87,-164.62"/>
<polygon fill="#63b8ff" stroke="#63b8ff" points="1399.05,-168.03 1409.64,-167.89 1401.27,-161.4 1399.05,-168.03"/>
</a>
</g>
</g>
<!-- Node17&#45;&gt;Node8 -->
<g id="edge26_Node000017_Node000008" class="edge">
<title>Node17&#45;&gt;Node8</title>
<g id="a_edge26_Node000017_Node000008"><a xlink:title=" ">
<path fill="none" stroke="#63b8ff" d="M921.03,-245.01C991.91,-240.14 1122.08,-231.21 1204.39,-225.56"/>
<polygon fill="#63b8ff" stroke="#63b8ff" points="1204.7,-229.05 1214.44,-224.87 1204.22,-222.06 1204.7,-229.05"/>
</a>
</g>
</g>
</g>
</svg>

<g id="navigator" transform="translate(0 0)" fill="#404254">
  <rect fill="#f2f5e9" fill-opacity="0.5" stroke="#606060" stroke-width=".5" x="0" y="0" width="60" height="60"/>
  <use id="zoomplus" xlink:href="#zoomPlus" x="17" y="9" onmousedown="handleZoom(evt,'in')"/>
  <use id="zoomminus" xlink:href="#zoomMin" x="42" y="9" onmousedown="handleZoom(evt,'out')"/>
  <use id="reset" xlink:href="#resetDef" x="30" y="36" onmousedown="handleReset()"/>
   <use id="arrowup" xlink:href="#arrowUp" x="0" y="0" onmousedown="handlePan(0,-1)"/>
  <use id="arrowright" xlink:href="#arrowRight" x="0" y="0" onmousedown="handlePan(1,0)"/>
  <use id="arrowdown" xlink:href="#arrowDown" x="0" y="0" onmousedown="handlePan(0,1)"/>
  <use id="arrowleft" xlink:href="#arrowLeft" x="0" y="0" onmousedown="handlePan(-1,0)"/>
</g>
<svg viewBox="0 0 15 15" width="100%" height="30px" preserveAspectRatio="xMaxYMin meet">
 <g id="arrow_out" transform="scale(0.3 0.3)">
  <a xlink:href="class_bit_vector_a5547d55a697d61de026d0a94e743624b_cgraph_org.svg" target="_base">
   <rect id="button" ry="5" rx="5" y="6" x="6" height="38" width="38"
        fill="#f2f5e9" fill-opacity="0.5" stroke="#606060" stroke-width="1.0"/>
   <path id="arrow"
     d="M 11.500037,31.436501 C 11.940474,20.09759 22.043105,11.32322 32.158766,21.979434 L 37.068811,17.246167 C 37.068811,17.246167 37.088388,32 37.088388,32 L 22.160133,31.978069 C 22.160133,31.978069 26.997745,27.140456 26.997745,27.140456 C 18.528582,18.264221 13.291696,25.230495 11.500037,31.436501 z"
     style="fill:#404040;"/>
  </a>
 </g>
</svg>

<style type='text/css'>
<![CDATA[
[data-mouse-over-selected='false'] { opacity: 0.7; }
[data-mouse-over-selected='true']  { opacity: 1.0; }
]]>
</style>
<script type="application/ecmascript"><![CDATA[
document.addEventListener('DOMContentLoaded', (event) => {
  highlightEdges();
  highlightAdjacentNodes();
});
]]></script>
</svg>
