<?xml version="1.0" encoding="UTF-8" standalone="no"?>
<!DOCTYPE svg PUBLIC "-//W3C//DTD SVG 1.1//EN"
 "http://www.w3.org/Graphics/SVG/1.1/DTD/svg11.dtd">
<!-- Generated by graphviz version 2.43.0 (0)
 -->
<!-- Title: Sequence Pages: 1 -->
<svg width="280pt" height="828pt"
 viewBox="0.00 0.00 279.50 828.00" xmlns="http://www.w3.org/2000/svg" xmlns:xlink="http://www.w3.org/1999/xlink">
<g id="graph0" class="graph" transform="scale(1 1) rotate(0) translate(4 824)">
<title>Sequence</title>
<!-- Node1 -->
<g id="Node000001" class="node">
<title>Node1</title>
<g id="a_Node000001"><a xlink:title=" ">
<polygon fill="#999999" stroke="transparent" points="225,-469 78,-469 78,0 225,0 225,-469"/>
<text text-anchor="start" x="128" y="-456.5" font-family="Helvetica,sans-Serif" font-size="10.00">Sequence</text>
<text text-anchor="start" x="85" y="-441.5" font-family="Helvetica,sans-Serif" font-size="10.00">&#45;</text>
<text text-anchor="start" x="95.5" y="-441.5" font-family="Helvetica,sans-Serif" font-size="10.00">type</text>
<text text-anchor="start" x="85" y="-426.5" font-family="Helvetica,sans-Serif" font-size="10.00">&#45;</text>
<text text-anchor="start" x="95.5" y="-426.5" font-family="Helvetica,sans-Serif" font-size="10.00">_encoding_type</text>
<text text-anchor="start" x="85" y="-411.5" font-family="Helvetica,sans-Serif" font-size="10.00">&#45;</text>
<text text-anchor="start" x="95.5" y="-411.5" font-family="Helvetica,sans-Serif" font-size="10.00">_iupac</text>
<text text-anchor="start" x="85" y="-396.5" font-family="Helvetica,sans-Serif" font-size="10.00">&#45;</text>
<text text-anchor="start" x="95.5" y="-396.5" font-family="Helvetica,sans-Serif" font-size="10.00">legalDNA</text>
<text text-anchor="start" x="85" y="-381.5" font-family="Helvetica,sans-Serif" font-size="10.00">&#45;</text>
<text text-anchor="start" x="95.5" y="-381.5" font-family="Helvetica,sans-Serif" font-size="10.00">legalRNA</text>
<text text-anchor="start" x="85" y="-366.5" font-family="Helvetica,sans-Serif" font-size="10.00">&#45;</text>
<text text-anchor="start" x="95.5" y="-366.5" font-family="Helvetica,sans-Serif" font-size="10.00">legalAmino</text>
<text text-anchor="start" x="85" y="-351.5" font-family="Helvetica,sans-Serif" font-size="10.00">&#45;</text>
<text text-anchor="start" x="95.5" y="-351.5" font-family="Helvetica,sans-Serif" font-size="10.00">validType</text>
<text text-anchor="start" x="82.5" y="-336.5" font-family="Helvetica,sans-Serif" font-size="10.00">+</text>
<text text-anchor="start" x="95.5" y="-336.5" font-family="Helvetica,sans-Serif" font-size="10.00">begin()</text>
<text text-anchor="start" x="82.5" y="-321.5" font-family="Helvetica,sans-Serif" font-size="10.00">+</text>
<text text-anchor="start" x="95.5" y="-321.5" font-family="Helvetica,sans-Serif" font-size="10.00">end()</text>
<text text-anchor="start" x="82.5" y="-306.5" font-family="Helvetica,sans-Serif" font-size="10.00">+</text>
<text text-anchor="start" x="95.5" y="-306.5" font-family="Helvetica,sans-Serif" font-size="10.00">Sequence()</text>
<text text-anchor="start" x="82.5" y="-291.5" font-family="Helvetica,sans-Serif" font-size="10.00">+</text>
<text text-anchor="start" x="95.5" y="-291.5" font-family="Helvetica,sans-Serif" font-size="10.00">Sequence()</text>
<text text-anchor="start" x="82.5" y="-276.5" font-family="Helvetica,sans-Serif" font-size="10.00">+</text>
<text text-anchor="start" x="95.5" y="-276.5" font-family="Helvetica,sans-Serif" font-size="10.00">Sequence()</text>
<text text-anchor="start" x="82.5" y="-261.5" font-family="Helvetica,sans-Serif" font-size="10.00">+</text>
<text text-anchor="start" x="95.5" y="-261.5" font-family="Helvetica,sans-Serif" font-size="10.00">getSeq()</text>
<text text-anchor="start" x="82.5" y="-246.5" font-family="Helvetica,sans-Serif" font-size="10.00">+</text>
<text text-anchor="start" x="95.5" y="-246.5" font-family="Helvetica,sans-Serif" font-size="10.00">getType()</text>
<text text-anchor="start" x="82.5" y="-231.5" font-family="Helvetica,sans-Serif" font-size="10.00">+</text>
<text text-anchor="start" x="95.5" y="-231.5" font-family="Helvetica,sans-Serif" font-size="10.00">getEncodingType()</text>
<text text-anchor="start" x="82.5" y="-216.5" font-family="Helvetica,sans-Serif" font-size="10.00">+</text>
<text text-anchor="start" x="95.5" y="-216.5" font-family="Helvetica,sans-Serif" font-size="10.00">getIupac()</text>
<text text-anchor="start" x="82.5" y="-201.5" font-family="Helvetica,sans-Serif" font-size="10.00">+</text>
<text text-anchor="start" x="95.5" y="-201.5" font-family="Helvetica,sans-Serif" font-size="10.00">getTypeArray()</text>
<text text-anchor="start" x="95.5" y="-186.5" font-family="Helvetica,sans-Serif" font-size="10.00">and 19 more...</text>
<text text-anchor="start" x="82.5" y="-171.5" font-family="Helvetica,sans-Serif" font-size="10.00">+</text>
<text text-anchor="start" x="95.5" y="-171.5" font-family="Helvetica,sans-Serif" font-size="10.00">getSequenceSymbol()</text>
<text text-anchor="start" x="82.5" y="-156.5" font-family="Helvetica,sans-Serif" font-size="10.00">+</text>
<text text-anchor="start" x="95.5" y="-156.5" font-family="Helvetica,sans-Serif" font-size="10.00">getSymbolDNA()</text>
<text text-anchor="start" x="82.5" y="-141.5" font-family="Helvetica,sans-Serif" font-size="10.00">+</text>
<text text-anchor="start" x="95.5" y="-141.5" font-family="Helvetica,sans-Serif" font-size="10.00">isLegalNucleic()</text>
<text text-anchor="start" x="82.5" y="-126.5" font-family="Helvetica,sans-Serif" font-size="10.00">+</text>
<text text-anchor="start" x="95.5" y="-126.5" font-family="Helvetica,sans-Serif" font-size="10.00">isLegalAmino()</text>
<text text-anchor="start" x="82.5" y="-111.5" font-family="Helvetica,sans-Serif" font-size="10.00">+</text>
<text text-anchor="start" x="95.5" y="-111.5" font-family="Helvetica,sans-Serif" font-size="10.00">isLegalSymbol()</text>
<text text-anchor="start" x="82.5" y="-96.5" font-family="Helvetica,sans-Serif" font-size="10.00">+</text>
<text text-anchor="start" x="95.5" y="-96.5" font-family="Helvetica,sans-Serif" font-size="10.00">isDNA()</text>
<text text-anchor="start" x="82.5" y="-81.5" font-family="Helvetica,sans-Serif" font-size="10.00">+</text>
<text text-anchor="start" x="95.5" y="-81.5" font-family="Helvetica,sans-Serif" font-size="10.00">isRNA()</text>
<text text-anchor="start" x="82.5" y="-66.5" font-family="Helvetica,sans-Serif" font-size="10.00">+</text>
<text text-anchor="start" x="95.5" y="-66.5" font-family="Helvetica,sans-Serif" font-size="10.00">isAmino()</text>
<text text-anchor="start" x="82.5" y="-51.5" font-family="Helvetica,sans-Serif" font-size="10.00">+</text>
<text text-anchor="start" x="95.5" y="-51.5" font-family="Helvetica,sans-Serif" font-size="10.00">isNucleic()</text>
<text text-anchor="start" x="82.5" y="-36.5" font-family="Helvetica,sans-Serif" font-size="10.00">+</text>
<text text-anchor="start" x="95.5" y="-36.5" font-family="Helvetica,sans-Serif" font-size="10.00">isDnaSpecificNucleotide()</text>
<text text-anchor="start" x="95.5" y="-21.5" font-family="Helvetica,sans-Serif" font-size="10.00">and 14 more...</text>
<text text-anchor="start" x="82.5" y="-6.5" font-family="Helvetica,sans-Serif" font-size="10.00">#</text>
<text text-anchor="start" x="95.5" y="-6.5" font-family="Helvetica,sans-Serif" font-size="10.00">parseChar()</text>
<polygon fill="#666666" stroke="#666666" points="78.5,-451.5 78.5,-451.5 225.5,-451.5 225.5,-451.5 78.5,-451.5"/>
<polygon fill="#666666" stroke="#666666" points="78.5,-346.5 78.5,-346.5 93.5,-346.5 93.5,-346.5 78.5,-346.5"/>
<polygon fill="#666666" stroke="#666666" points="93.5,-346.5 93.5,-346.5 225.5,-346.5 225.5,-346.5 93.5,-346.5"/>
<polygon fill="none" stroke="#666666" points="78,0 78,-469 225,-469 225,0 78,0"/>
</a>
</g>
</g>
<!-- Node2 -->
<g id="Node000002" class="node">
<title>Node2</title>
<g id="a_Node000002"><a xlink:href="class_bit_vector.html" target="_top" xlink:title="Class that allow the storage of a number inside a char *. All element must be converted to a number o...">
<polygon fill="white" stroke="transparent" points="159,-820 0,-820 0,-516 159,-516 159,-820"/>
<text text-anchor="start" x="57.5" y="-808" font-family="Helvetica,sans-Serif" font-size="10.00">BitVector</text>
<text text-anchor="start" x="7" y="-793" font-family="Helvetica,sans-Serif" font-size="10.00">&#45;</text>
<text text-anchor="start" x="17.5" y="-793" font-family="Helvetica,sans-Serif" font-size="10.00">_data</text>
<text text-anchor="start" x="7" y="-778" font-family="Helvetica,sans-Serif" font-size="10.00">&#45;</text>
<text text-anchor="start" x="17.5" y="-778" font-family="Helvetica,sans-Serif" font-size="10.00">_data_size</text>
<text text-anchor="start" x="7" y="-763" font-family="Helvetica,sans-Serif" font-size="10.00">&#45;</text>
<text text-anchor="start" x="17.5" y="-763" font-family="Helvetica,sans-Serif" font-size="10.00">_element_number</text>
<text text-anchor="start" x="7" y="-748" font-family="Helvetica,sans-Serif" font-size="10.00">&#45;</text>
<text text-anchor="start" x="17.5" y="-748" font-family="Helvetica,sans-Serif" font-size="10.00">_element_size</text>
<text text-anchor="start" x="4.5" y="-733" font-family="Helvetica,sans-Serif" font-size="10.00">+</text>
<text text-anchor="start" x="17.5" y="-733" font-family="Helvetica,sans-Serif" font-size="10.00">BitVector()</text>
<text text-anchor="start" x="4.5" y="-718" font-family="Helvetica,sans-Serif" font-size="10.00">+</text>
<text text-anchor="start" x="17.5" y="-718" font-family="Helvetica,sans-Serif" font-size="10.00">BitVector()</text>
<text text-anchor="start" x="4.5" y="-703" font-family="Helvetica,sans-Serif" font-size="10.00">+</text>
<text text-anchor="start" x="17.5" y="-703" font-family="Helvetica,sans-Serif" font-size="10.00">BitVector()</text>
<text text-anchor="start" x="4.5" y="-688" font-family="Helvetica,sans-Serif" font-size="10.00">+</text>
<text text-anchor="start" x="17.5" y="-688" font-family="Helvetica,sans-Serif" font-size="10.00">setElementNumber()</text>
<text text-anchor="start" x="4.5" y="-673" font-family="Helvetica,sans-Serif" font-size="10.00">+</text>
<text text-anchor="start" x="17.5" y="-673" font-family="Helvetica,sans-Serif" font-size="10.00">~BitVector()</text>
<text text-anchor="start" x="4.5" y="-658" font-family="Helvetica,sans-Serif" font-size="10.00">+</text>
<text text-anchor="start" x="17.5" y="-658" font-family="Helvetica,sans-Serif" font-size="10.00">getDataSize()</text>
<text text-anchor="start" x="4.5" y="-643" font-family="Helvetica,sans-Serif" font-size="10.00">+</text>
<text text-anchor="start" x="17.5" y="-643" font-family="Helvetica,sans-Serif" font-size="10.00">getElementNumber()</text>
<text text-anchor="start" x="4.5" y="-628" font-family="Helvetica,sans-Serif" font-size="10.00">+</text>
<text text-anchor="start" x="17.5" y="-628" font-family="Helvetica,sans-Serif" font-size="10.00">getElementSize()</text>
<text text-anchor="start" x="4.5" y="-613" font-family="Helvetica,sans-Serif" font-size="10.00">+</text>
<text text-anchor="start" x="17.5" y="-613" font-family="Helvetica,sans-Serif" font-size="10.00">size()</text>
<text text-anchor="start" x="4.5" y="-598" font-family="Helvetica,sans-Serif" font-size="10.00">+</text>
<text text-anchor="start" x="17.5" y="-598" font-family="Helvetica,sans-Serif" font-size="10.00">currentElementCapacity()</text>
<text text-anchor="start" x="17.5" y="-583" font-family="Helvetica,sans-Serif" font-size="10.00">and 36 more...</text>
<text text-anchor="start" x="4.5" y="-568" font-family="Helvetica,sans-Serif" font-size="10.00">+</text>
<text text-anchor="start" x="17.5" y="-568" font-family="Helvetica,sans-Serif" font-size="10.00">maximumOctetNumber()</text>
<text text-anchor="start" x="4.5" y="-553" font-family="Helvetica,sans-Serif" font-size="10.00">+</text>
<text text-anchor="start" x="17.5" y="-553" font-family="Helvetica,sans-Serif" font-size="10.00">maximumElementNumber()</text>
<text text-anchor="start" x="4.5" y="-538" font-family="Helvetica,sans-Serif" font-size="10.00">+</text>
<text text-anchor="start" x="17.5" y="-538" font-family="Helvetica,sans-Serif" font-size="10.00">copyBits()</text>
<text text-anchor="start" x="4.5" y="-523" font-family="Helvetica,sans-Serif" font-size="10.00">#</text>
<text text-anchor="start" x="17.5" y="-523" font-family="Helvetica,sans-Serif" font-size="10.00">_killInternalData()</text>
<polygon fill="#666666" stroke="#666666" points="0.5,-803 0.5,-803 159.5,-803 159.5,-803 0.5,-803"/>
<polygon fill="#666666" stroke="#666666" points="0.5,-743 0.5,-743 15.5,-743 15.5,-743 0.5,-743"/>
<polygon fill="#666666" stroke="#666666" points="15.5,-743 15.5,-743 159.5,-743 159.5,-743 15.5,-743"/>
<polygon fill="none" stroke="#666666" points="0,-516 0,-820 159,-820 159,-516 0,-516"/>
</a>
</g>
</g>
<!-- Node2&#45;&gt;Node1 -->
<g id="edge1_Node000001_Node000002" class="edge">
<title>Node2&#45;&gt;Node1</title>
<g id="a_edge1_Node000001_Node000002"><a xlink:title=" ">
<path fill="none" stroke="#63b8ff" d="M104.73,-515.78C106.61,-504.51 108.54,-492.98 110.48,-481.34"/>
<polygon fill="none" stroke="#63b8ff" points="110.54,-481 107.58,-474.42 112.51,-469.16 115.47,-475.74 110.54,-481"/>
</a>
</g>
<text text-anchor="middle" x="122" y="-490" font-family="Helvetica,sans-Serif" font-size="10.00" fill="grey"> &#45;seq</text>
</g>
<!-- Node3 -->
<g id="Node000003" class="node">
<title>Node3</title>
<g id="a_Node000003"><a xlink:href="class_header.html" target="_top" xlink:title="Represent the header of a Fasta / FastQ file.">
<polygon fill="white" stroke="transparent" points="271.5,-722.5 177.5,-722.5 177.5,-613.5 271.5,-613.5 271.5,-722.5"/>
<text text-anchor="start" x="206.5" y="-710" font-family="Helvetica,sans-Serif" font-size="10.00">Header</text>
<text text-anchor="start" x="184" y="-695" font-family="Helvetica,sans-Serif" font-size="10.00">&#45;</text>
<text text-anchor="start" x="194.5" y="-695" font-family="Helvetica,sans-Serif" font-size="10.00">_comment</text>
<text text-anchor="start" x="184" y="-680" font-family="Helvetica,sans-Serif" font-size="10.00">&#45;</text>
<text text-anchor="start" x="194.5" y="-680" font-family="Helvetica,sans-Serif" font-size="10.00">_accession</text>
<text text-anchor="start" x="181.5" y="-665" font-family="Helvetica,sans-Serif" font-size="10.00">+</text>
<text text-anchor="start" x="194.5" y="-665" font-family="Helvetica,sans-Serif" font-size="10.00">getComment()</text>
<text text-anchor="start" x="181.5" y="-650" font-family="Helvetica,sans-Serif" font-size="10.00">+</text>
<text text-anchor="start" x="194.5" y="-650" font-family="Helvetica,sans-Serif" font-size="10.00">setComment()</text>
<text text-anchor="start" x="181.5" y="-635" font-family="Helvetica,sans-Serif" font-size="10.00">+</text>
<text text-anchor="start" x="194.5" y="-635" font-family="Helvetica,sans-Serif" font-size="10.00">getAccession()</text>
<text text-anchor="start" x="181.5" y="-620" font-family="Helvetica,sans-Serif" font-size="10.00">+</text>
<text text-anchor="start" x="194.5" y="-620" font-family="Helvetica,sans-Serif" font-size="10.00">setAccession()</text>
<polygon fill="#666666" stroke="#666666" points="177.5,-705 177.5,-705 271.5,-705 271.5,-705 177.5,-705"/>
<polygon fill="#666666" stroke="#666666" points="177.5,-675 177.5,-675 192.5,-675 192.5,-675 177.5,-675"/>
<polygon fill="#666666" stroke="#666666" points="192.5,-675 192.5,-675 271.5,-675 271.5,-675 192.5,-675"/>
<polygon fill="none" stroke="#666666" points="177.5,-613.5 177.5,-722.5 271.5,-722.5 271.5,-613.5 177.5,-613.5"/>
</a>
</g>
</g>
<!-- Node3&#45;&gt;Node1 -->
<g id="edge2_Node000001_Node000003" class="edge">
<title>Node3&#45;&gt;Node1</title>
<g id="a_edge2_Node000001_Node000003"><a xlink:title=" ">
<path fill="none" stroke="#63b8ff" d="M215.4,-613.22C209.56,-578.71 201.52,-531.17 193.11,-481.45"/>
<polygon fill="none" stroke="#63b8ff" points="193.08,-481.29 188.14,-476.04 191.08,-469.45 196.02,-474.7 193.08,-481.29"/>
</a>
</g>
<text text-anchor="middle" x="217.5" y="-490" font-family="Helvetica,sans-Serif" font-size="10.00" fill="grey"> &#45;_header</text>
</g>
</g>
</svg>
