<?xml version="1.0" encoding="UTF-8" standalone="no"?>
<!DOCTYPE svg PUBLIC "-//W3C//DTD SVG 1.1//EN"
 "http://www.w3.org/Graphics/SVG/1.1/DTD/svg11.dtd">
<!-- Generated by graphviz version 2.43.0 (0)
 -->
<!-- Title: Sequence::readTypeChar Pages: 1 -->
<svg width="1064pt" height="138pt"
 viewBox="0.00 0.00 1064.00 138.00" xmlns="http://www.w3.org/2000/svg" xmlns:xlink="http://www.w3.org/1999/xlink">
<g id="graph0" class="graph" transform="scale(1 1) rotate(0) translate(4 134)">
<title>Sequence::readTypeChar</title>
<!-- Node1 -->
<g id="Node000001" class="node">
<title>Node1</title>
<g id="a_Node000001"><a xlink:title="Turn a symbol to a bool array.">
<polygon fill="#999999" stroke="#666666" points="137,-38 0,-38 0,-19 137,-19 137,-38"/>
<text text-anchor="middle" x="68.5" y="-26" font-family="Helvetica,sans-Serif" font-size="10.00">Sequence::readTypeChar</text>
</a>
</g>
</g>
<!-- Node2 -->
<g id="Node000002" class="node">
<title>Node2</title>
<g id="a_Node000002"><a xlink:href="class_sequence.html#ad40777fd2f7ad3ae247fab02459e6759" target="_top" xlink:title="Retrieve the symbol at the position in the sequence.">
<polygon fill="white" stroke="#666666" points="259,-38 173,-38 173,-19 259,-19 259,-38"/>
<text text-anchor="middle" x="216" y="-26" font-family="Helvetica,sans-Serif" font-size="10.00">Sequence::get</text>
</a>
</g>
</g>
<!-- Node1&#45;&gt;Node2 -->
<g id="edge1_Node000001_Node000002" class="edge">
<title>Node1&#45;&gt;Node2</title>
<g id="a_edge1_Node000001_Node000002"><a xlink:title=" ">
<path fill="none" stroke="#63b8ff" d="M137.14,-28.5C145.7,-28.5 154.35,-28.5 162.62,-28.5"/>
<polygon fill="#63b8ff" stroke="#63b8ff" points="162.85,-32 172.85,-28.5 162.85,-25 162.85,-32"/>
</a>
</g>
</g>
<!-- Node2&#45;&gt;Node2 -->
<g id="edge5_Node000002_Node000002" class="edge">
<title>Node2&#45;&gt;Node2</title>
<g id="a_edge5_Node000002_Node000002"><a xlink:title=" ">
<path fill="none" stroke="#63b8ff" d="M193.5,-38.08C182.55,-46.73 190.05,-56 216,-56 232.62,-56 241.68,-52.2 243.16,-47.19"/>
<polygon fill="#63b8ff" stroke="#63b8ff" points="246.17,-45.39 238.5,-38.08 239.94,-48.58 246.17,-45.39"/>
</a>
</g>
</g>
<!-- Node3 -->
<g id="Node000003" class="node">
<title>Node3</title>
<g id="a_Node000003"><a xlink:href="class_bit_vector.html#aebe159444eb9d619959b7325ac5dac2d" target="_top" xlink:title="Return the value of the bit at the position coord.">
<polygon fill="white" stroke="#666666" points="412.5,-112 329.5,-112 329.5,-93 412.5,-93 412.5,-112"/>
<text text-anchor="middle" x="371" y="-100" font-family="Helvetica,sans-Serif" font-size="10.00">BitVector::get</text>
</a>
</g>
</g>
<!-- Node2&#45;&gt;Node3 -->
<g id="edge2_Node000002_Node000003" class="edge">
<title>Node2&#45;&gt;Node3</title>
<g id="a_edge2_Node000002_Node000003"><a xlink:title=" ">
<path fill="none" stroke="#63b8ff" d="M227.76,-38.34C242.07,-50.9 268.62,-72.43 295,-84.5 302.7,-88.02 311.18,-90.91 319.57,-93.25"/>
<polygon fill="#63b8ff" stroke="#63b8ff" points="318.78,-96.66 329.34,-95.75 320.52,-89.88 318.78,-96.66"/>
</a>
</g>
</g>
<!-- Node5 -->
<g id="Node000005" class="node">
<title>Node5</title>
<g id="a_Node000005"><a xlink:href="class_sequence.html#a8181f024304b3fb5f55c7118f648cc61" target="_top" xlink:title="Return a char (same format as Sequence::getType()) that indicate which alphabet is used in the during...">
<polygon fill="white" stroke="#666666" points="447,-75 295,-75 295,-56 447,-56 447,-75"/>
<text text-anchor="middle" x="371" y="-63" font-family="Helvetica,sans-Serif" font-size="10.00">Sequence::getEncodingType</text>
</a>
</g>
</g>
<!-- Node2&#45;&gt;Node5 -->
<g id="edge6_Node000002_Node000005" class="edge">
<title>Node2&#45;&gt;Node5</title>
<g id="a_edge6_Node000002_Node000005"><a xlink:title=" ">
<path fill="none" stroke="#63b8ff" d="M256.27,-38.09C268.66,-41.11 282.4,-44.45 295,-47.5 303.23,-49.49 311.97,-51.6 320.47,-53.64"/>
<polygon fill="#63b8ff" stroke="#63b8ff" points="319.75,-57.06 330.29,-56 321.39,-50.26 319.75,-57.06"/>
</a>
</g>
</g>
<!-- Node6 -->
<g id="Node000006" class="node">
<title>Node6</title>
<g id="a_Node000006"><a xlink:href="class_sequence.html#a49a9126010c0332493c803ddca005394" target="_top" xlink:title="Give a map that compress / decompress char used by Sequence.">
<polygon fill="white" stroke="#666666" points="440.5,-38 301.5,-38 301.5,-19 440.5,-19 440.5,-38"/>
<text text-anchor="middle" x="371" y="-26" font-family="Helvetica,sans-Serif" font-size="10.00">Sequence::translationTab</text>
</a>
</g>
</g>
<!-- Node2&#45;&gt;Node6 -->
<g id="edge7_Node000002_Node000006" class="edge">
<title>Node2&#45;&gt;Node6</title>
<g id="a_edge7_Node000002_Node000006"><a xlink:title=" ">
<path fill="none" stroke="#63b8ff" d="M259.21,-22.39C269.24,-21.99 280.25,-21.78 291.32,-21.75"/>
<polygon fill="#63b8ff" stroke="#63b8ff" points="291.47,-25.25 301.48,-21.78 291.49,-18.25 291.47,-25.25"/>
</a>
</g>
</g>
<!-- Node3&#45;&gt;Node3 -->
<g id="edge3_Node000003_Node000003" class="edge">
<title>Node3&#45;&gt;Node3</title>
<g id="a_edge3_Node000003_Node000003"><a xlink:title=" ">
<path fill="none" stroke="#63b8ff" d="M347.26,-112.08C335.72,-120.73 343.63,-130 371,-130 388.96,-130 398.54,-126.01 399.75,-120.82"/>
<polygon fill="#63b8ff" stroke="#63b8ff" points="402.75,-119.02 394.74,-112.08 396.67,-122.5 402.75,-119.02"/>
</a>
</g>
</g>
<!-- Node4 -->
<g id="Node000004" class="node">
<title>Node4</title>
<g id="a_Node000004"><a xlink:href="class_bit_vector_1_1_coords.html#a2892f7f46c4af93f9733e312229d8ec1" target="_top" xlink:title="Get Coords::octet .">
<polygon fill="white" stroke="#666666" points="600.5,-117.5 493.5,-117.5 493.5,-87.5 600.5,-87.5 600.5,-117.5"/>
<text text-anchor="start" x="501.5" y="-105.5" font-family="Helvetica,sans-Serif" font-size="10.00">BitVector::Coords::</text>
<text text-anchor="middle" x="547" y="-94.5" font-family="Helvetica,sans-Serif" font-size="10.00">getOctet</text>
</a>
</g>
</g>
<!-- Node3&#45;&gt;Node4 -->
<g id="edge4_Node000003_Node000004" class="edge">
<title>Node3&#45;&gt;Node4</title>
<g id="a_edge4_Node000003_Node000004"><a xlink:title=" ">
<path fill="none" stroke="#63b8ff" d="M412.8,-102.5C433.71,-102.5 459.64,-102.5 483.05,-102.5"/>
<polygon fill="#63b8ff" stroke="#63b8ff" points="483.25,-106 493.25,-102.5 483.25,-99 483.25,-106"/>
</a>
</g>
</g>
<!-- Node6&#45;&gt;Node2 -->
<g id="edge13_Node000006_Node000002" class="edge">
<title>Node6&#45;&gt;Node2</title>
<g id="a_edge13_Node000006_Node000002"><a xlink:title=" ">
<path fill="none" stroke="#63b8ff" d="M301.48,-35.22C290.68,-35.31 279.67,-35.21 269.32,-34.94"/>
<polygon fill="#63b8ff" stroke="#63b8ff" points="269.32,-31.44 259.21,-34.61 269.09,-38.44 269.32,-31.44"/>
</a>
</g>
</g>
<!-- Node7 -->
<g id="Node000007" class="node">
<title>Node7</title>
<g id="a_Node000007"><a xlink:href="class_sequence.html#a555c6e58957c4d07028eb5c67b1732ac" target="_top" xlink:title="Function used by Sequence::translationTab to create their compression map.">
<polygon fill="white" stroke="#666666" points="611,-19 483,-19 483,0 611,0 611,-19"/>
<text text-anchor="middle" x="547" y="-7" font-family="Helvetica,sans-Serif" font-size="10.00">Sequence::fillCodeMap</text>
</a>
</g>
</g>
<!-- Node6&#45;&gt;Node7 -->
<g id="edge8_Node000006_Node000007" class="edge">
<title>Node6&#45;&gt;Node7</title>
<g id="a_edge8_Node000006_Node000007"><a xlink:title=" ">
<path fill="none" stroke="#63b8ff" d="M440.77,-20.99C451.28,-19.84 462.16,-18.65 472.76,-17.5"/>
<polygon fill="#63b8ff" stroke="#63b8ff" points="473.26,-20.96 482.82,-16.4 472.5,-14.01 473.26,-20.96"/>
</a>
</g>
</g>
<!-- Node7&#45;&gt;Node2 -->
<g id="edge9_Node000007_Node000002" class="edge">
<title>Node7&#45;&gt;Node2</title>
<g id="a_edge9_Node000007_Node000002"><a xlink:title=" ">
<path fill="none" stroke="#63b8ff" d="M482.83,-5.35C431.92,-3 358.6,-1.87 295,-9.5 283.01,-10.94 270.21,-13.58 258.51,-16.44"/>
<polygon fill="#63b8ff" stroke="#63b8ff" points="257.38,-13.12 248.56,-18.99 259.12,-19.9 257.38,-13.12"/>
</a>
</g>
</g>
<!-- Node8 -->
<g id="Node000008" class="node">
<title>Node8</title>
<g id="a_Node000008"><a xlink:href="class_sequence.html#acf21040958590f98163b3d11f19ea93e" target="_top" xlink:title="Give the number of element contained in this sequence.">
<polygon fill="white" stroke="#666666" points="736,-19 647,-19 647,0 736,0 736,-19"/>
<text text-anchor="middle" x="691.5" y="-7" font-family="Helvetica,sans-Serif" font-size="10.00">Sequence::size</text>
</a>
</g>
</g>
<!-- Node7&#45;&gt;Node8 -->
<g id="edge10_Node000007_Node000008" class="edge">
<title>Node7&#45;&gt;Node8</title>
<g id="a_edge10_Node000007_Node000008"><a xlink:title=" ">
<path fill="none" stroke="#63b8ff" d="M611.33,-9.5C619.8,-9.5 628.42,-9.5 636.7,-9.5"/>
<polygon fill="#63b8ff" stroke="#63b8ff" points="636.98,-13 646.98,-9.5 636.98,-6 636.98,-13"/>
</a>
</g>
</g>
<!-- Node9 -->
<g id="Node000009" class="node">
<title>Node9</title>
<g id="a_Node000009"><a xlink:href="class_bit_vector.html#ab30ea2b408107e4e6bc8095b5a64a1dd" target="_top" xlink:title="Number of element inside this object.">
<polygon fill="white" stroke="#666666" points="858,-19 772,-19 772,0 858,0 858,-19"/>
<text text-anchor="middle" x="815" y="-7" font-family="Helvetica,sans-Serif" font-size="10.00">BitVector::size</text>
</a>
</g>
</g>
<!-- Node8&#45;&gt;Node9 -->
<g id="edge11_Node000008_Node000009" class="edge">
<title>Node8&#45;&gt;Node9</title>
<g id="a_edge11_Node000008_Node000009"><a xlink:title=" ">
<path fill="none" stroke="#63b8ff" d="M736.02,-9.5C744.25,-9.5 752.94,-9.5 761.41,-9.5"/>
<polygon fill="#63b8ff" stroke="#63b8ff" points="761.6,-13 771.6,-9.5 761.6,-6 761.6,-13"/>
</a>
</g>
</g>
<!-- Node10 -->
<g id="Node000010" class="node">
<title>Node10</title>
<g id="a_Node000010"><a xlink:href="class_bit_vector.html#a5339660cfb315ab5de7f78bdf5af4ce1" target="_top" xlink:title="Get BitVector::_element_number.">
<polygon fill="white" stroke="#666666" points="1056,-19 894,-19 894,0 1056,0 1056,-19"/>
<text text-anchor="middle" x="975" y="-7" font-family="Helvetica,sans-Serif" font-size="10.00">BitVector::getElementNumber</text>
</a>
</g>
</g>
<!-- Node9&#45;&gt;Node10 -->
<g id="edge12_Node000009_Node000010" class="edge">
<title>Node9&#45;&gt;Node10</title>
<g id="a_edge12_Node000009_Node000010"><a xlink:title=" ">
<path fill="none" stroke="#63b8ff" d="M858.34,-9.5C866.23,-9.5 874.74,-9.5 883.44,-9.5"/>
<polygon fill="#63b8ff" stroke="#63b8ff" points="883.71,-13 893.71,-9.5 883.71,-6 883.71,-13"/>
</a>
</g>
</g>
</g>
</svg>
