<?xml version="1.0" encoding="UTF-8" standalone="no"?>
<!DOCTYPE svg PUBLIC "-//W3C//DTD SVG 1.1//EN"
 "http://www.w3.org/Graphics/SVG/1.1/DTD/svg11.dtd">
<!-- Generated by graphviz version 2.43.0 (0)
 -->
<!-- Title: Sequence::SequenceSymbol Pages: 1 -->
<svg width="156pt" height="207pt"
 viewBox="0.00 0.00 156.00 207.00" xmlns="http://www.w3.org/2000/svg" xmlns:xlink="http://www.w3.org/1999/xlink">
<g id="graph0" class="graph" transform="scale(1 1) rotate(0) translate(4 203)">
<title>Sequence::SequenceSymbol</title>
<!-- Node1 -->
<g id="Node000001" class="node">
<title>Node1</title>
<g id="a_Node000001"><a xlink:title=" ">
<polygon fill="#999999" stroke="transparent" points="148,-199 0,-199 0,0 148,0 148,-199"/>
<text text-anchor="start" x="5" y="-186.5" font-family="Helvetica,sans-Serif" font-size="10.00">Sequence::SequenceSymbol</text>
<text text-anchor="start" x="7" y="-171.5" font-family="Helvetica,sans-Serif" font-size="10.00">&#45;</text>
<text text-anchor="start" x="18" y="-171.5" font-family="Helvetica,sans-Serif" font-size="10.00">_replacement</text>
<text text-anchor="start" x="7" y="-156.5" font-family="Helvetica,sans-Serif" font-size="10.00">&#45;</text>
<text text-anchor="start" x="18" y="-156.5" font-family="Helvetica,sans-Serif" font-size="10.00">_symbol</text>
<text text-anchor="start" x="7" y="-141.5" font-family="Helvetica,sans-Serif" font-size="10.00">&#45;</text>
<text text-anchor="start" x="18" y="-141.5" font-family="Helvetica,sans-Serif" font-size="10.00">_iupac</text>
<text text-anchor="start" x="4.5" y="-126.5" font-family="Helvetica,sans-Serif" font-size="10.00">+</text>
<text text-anchor="start" x="18" y="-126.5" font-family="Helvetica,sans-Serif" font-size="10.00">SequenceSymbol()</text>
<text text-anchor="start" x="4.5" y="-111.5" font-family="Helvetica,sans-Serif" font-size="10.00">+</text>
<text text-anchor="start" x="18" y="-111.5" font-family="Helvetica,sans-Serif" font-size="10.00">correspondTo()</text>
<text text-anchor="start" x="4.5" y="-96.5" font-family="Helvetica,sans-Serif" font-size="10.00">+</text>
<text text-anchor="start" x="18" y="-96.5" font-family="Helvetica,sans-Serif" font-size="10.00">isUsableIn()</text>
<text text-anchor="start" x="4.5" y="-81.5" font-family="Helvetica,sans-Serif" font-size="10.00">+</text>
<text text-anchor="start" x="18" y="-81.5" font-family="Helvetica,sans-Serif" font-size="10.00">getReplacementSymbol()</text>
<text text-anchor="start" x="4.5" y="-66.5" font-family="Helvetica,sans-Serif" font-size="10.00">+</text>
<text text-anchor="start" x="18" y="-66.5" font-family="Helvetica,sans-Serif" font-size="10.00">getValue()</text>
<text text-anchor="start" x="4.5" y="-51.5" font-family="Helvetica,sans-Serif" font-size="10.00">+</text>
<text text-anchor="start" x="18" y="-51.5" font-family="Helvetica,sans-Serif" font-size="10.00">get()</text>
<text text-anchor="start" x="4.5" y="-36.5" font-family="Helvetica,sans-Serif" font-size="10.00">+</text>
<text text-anchor="start" x="18" y="-36.5" font-family="Helvetica,sans-Serif" font-size="10.00">operator char()</text>
<text text-anchor="start" x="4.5" y="-21.5" font-family="Helvetica,sans-Serif" font-size="10.00">+</text>
<text text-anchor="start" x="18" y="-21.5" font-family="Helvetica,sans-Serif" font-size="10.00">operator std::string()</text>
<text text-anchor="start" x="4.5" y="-6.5" font-family="Helvetica,sans-Serif" font-size="10.00">+</text>
<text text-anchor="start" x="18" y="-6.5" font-family="Helvetica,sans-Serif" font-size="10.00">toString()</text>
<polygon fill="#666666" stroke="#666666" points="0,-181.5 0,-181.5 148,-181.5 148,-181.5 0,-181.5"/>
<polygon fill="#666666" stroke="#666666" points="0,-136.5 0,-136.5 16,-136.5 16,-136.5 0,-136.5"/>
<polygon fill="#666666" stroke="#666666" points="16,-136.5 16,-136.5 148,-136.5 148,-136.5 16,-136.5"/>
<polygon fill="none" stroke="#666666" points="0,0 0,-199 148,-199 148,0 0,0"/>
</a>
</g>
</g>
</g>
</svg>
