<?xml version="1.0" encoding="UTF-8" standalone="no"?>
<!DOCTYPE svg PUBLIC "-//W3C//DTD SVG 1.1//EN"
 "http://www.w3.org/Graphics/SVG/1.1/DTD/svg11.dtd">
<!-- Generated by graphviz version 2.43.0 (0)
 -->
<!-- Title: BitVector::Coords Pages: 1 -->
<svg width="153pt" height="252pt"
 viewBox="0.00 0.00 153.00 252.00" xmlns="http://www.w3.org/2000/svg" xmlns:xlink="http://www.w3.org/1999/xlink">
<g id="graph0" class="graph" transform="scale(1 1) rotate(0) translate(4 248)">
<title>BitVector::Coords</title>
<!-- Node1 -->
<g id="Node000001" class="node">
<title>Node1</title>
<g id="a_Node000001"><a xlink:title="Class that represent coordinates inside a BitVector. It memorize octet position and bit position n or...">
<polygon fill="#999999" stroke="transparent" points="145,-244 0,-244 0,0 145,0 145,-244"/>
<text text-anchor="start" x="30.5" y="-232" font-family="Helvetica,sans-Serif" font-size="10.00">BitVector::Coords</text>
<text text-anchor="start" x="7" y="-217" font-family="Helvetica,sans-Serif" font-size="10.00">&#45;</text>
<text text-anchor="start" x="17.5" y="-217" font-family="Helvetica,sans-Serif" font-size="10.00">octet</text>
<text text-anchor="start" x="7" y="-202" font-family="Helvetica,sans-Serif" font-size="10.00">&#45;</text>
<text text-anchor="start" x="17.5" y="-202" font-family="Helvetica,sans-Serif" font-size="10.00">bit</text>
<text text-anchor="start" x="4.5" y="-187" font-family="Helvetica,sans-Serif" font-size="10.00">+</text>
<text text-anchor="start" x="17.5" y="-187" font-family="Helvetica,sans-Serif" font-size="10.00">Coords()</text>
<text text-anchor="start" x="4.5" y="-172" font-family="Helvetica,sans-Serif" font-size="10.00">+</text>
<text text-anchor="start" x="17.5" y="-172" font-family="Helvetica,sans-Serif" font-size="10.00">Coords()</text>
<text text-anchor="start" x="4.5" y="-157" font-family="Helvetica,sans-Serif" font-size="10.00">+</text>
<text text-anchor="start" x="17.5" y="-157" font-family="Helvetica,sans-Serif" font-size="10.00">Coords()</text>
<text text-anchor="start" x="4.5" y="-142" font-family="Helvetica,sans-Serif" font-size="10.00">+</text>
<text text-anchor="start" x="17.5" y="-142" font-family="Helvetica,sans-Serif" font-size="10.00">Coords()</text>
<text text-anchor="start" x="4.5" y="-127" font-family="Helvetica,sans-Serif" font-size="10.00">+</text>
<text text-anchor="start" x="17.5" y="-127" font-family="Helvetica,sans-Serif" font-size="10.00">toSize_t()</text>
<text text-anchor="start" x="4.5" y="-112" font-family="Helvetica,sans-Serif" font-size="10.00">+</text>
<text text-anchor="start" x="17.5" y="-112" font-family="Helvetica,sans-Serif" font-size="10.00">toString()</text>
<text text-anchor="start" x="4.5" y="-97" font-family="Helvetica,sans-Serif" font-size="10.00">+</text>
<text text-anchor="start" x="17.5" y="-97" font-family="Helvetica,sans-Serif" font-size="10.00">operator std::string()</text>
<text text-anchor="start" x="4.5" y="-82" font-family="Helvetica,sans-Serif" font-size="10.00">+</text>
<text text-anchor="start" x="17.5" y="-82" font-family="Helvetica,sans-Serif" font-size="10.00">getBit()</text>
<text text-anchor="start" x="4.5" y="-67" font-family="Helvetica,sans-Serif" font-size="10.00">+</text>
<text text-anchor="start" x="17.5" y="-67" font-family="Helvetica,sans-Serif" font-size="10.00">getOctet()</text>
<text text-anchor="start" x="4.5" y="-52" font-family="Helvetica,sans-Serif" font-size="10.00">+</text>
<text text-anchor="start" x="17.5" y="-52" font-family="Helvetica,sans-Serif" font-size="10.00">setOctet()</text>
<text text-anchor="start" x="17.5" y="-37" font-family="Helvetica,sans-Serif" font-size="10.00">and 26 more...</text>
<text text-anchor="start" x="4.5" y="-22" font-family="Helvetica,sans-Serif" font-size="10.00">+</text>
<text text-anchor="start" x="17.5" y="-22" font-family="Helvetica,sans-Serif" font-size="10.00">maximumOctetNumber()</text>
<text text-anchor="start" x="4.5" y="-7" font-family="Helvetica,sans-Serif" font-size="10.00">+</text>
<text text-anchor="start" x="17.5" y="-7" font-family="Helvetica,sans-Serif" font-size="10.00">maximumSize_t()</text>
<polygon fill="#666666" stroke="#666666" points="0.5,-227 0.5,-227 145.5,-227 145.5,-227 0.5,-227"/>
<polygon fill="#666666" stroke="#666666" points="0.5,-197 0.5,-197 15.5,-197 15.5,-197 0.5,-197"/>
<polygon fill="#666666" stroke="#666666" points="15.5,-197 15.5,-197 145.5,-197 145.5,-197 15.5,-197"/>
<polygon fill="none" stroke="#666666" points="0,0 0,-244 145,-244 145,0 0,0"/>
</a>
</g>
</g>
</g>
</svg>
