<?xml version="1.0" encoding="UTF-8" standalone="no"?>
<!DOCTYPE svg PUBLIC "-//W3C//DTD SVG 1.1//EN"
 "http://www.w3.org/Graphics/SVG/1.1/DTD/svg11.dtd">
<!-- Generated by graphviz version 2.43.0 (0)
 -->
<!-- Title: BitVector::get Pages: 1 -->
<svg width="1344pt" height="352pt"
 viewBox="0.00 0.00 1344.00 351.58" xmlns="http://www.w3.org/2000/svg" xmlns:xlink="http://www.w3.org/1999/xlink">
<g id="graph0" class="graph" transform="scale(1 1) rotate(0) translate(4 347.58)">
<title>BitVector::get</title>
<!-- Node1 -->
<g id="Node000001" class="node">
<title>Node1</title>
<g id="a_Node000001"><a xlink:title="Return the element at the position index.">
<polygon fill="#999999" stroke="#666666" points="83,-248 0,-248 0,-229 83,-229 83,-248"/>
<text text-anchor="middle" x="41.5" y="-236" font-family="Helvetica,sans-Serif" font-size="10.00">BitVector::get</text>
</a>
</g>
</g>
<!-- Node2 -->
<g id="Node000002" class="node">
<title>Node2</title>
<g id="a_Node000002"><a xlink:href="class_bit_vector.html#a8c3c1f0faa0bbf35638c7217a841cbd8" target="_top" xlink:title=" ">
<polygon fill="white" stroke="#666666" points="240.5,-310 131.5,-310 131.5,-291 240.5,-291 240.5,-310"/>
<text text-anchor="middle" x="186" y="-298" font-family="Helvetica,sans-Serif" font-size="10.00">BitVector::copyBits</text>
</a>
</g>
</g>
<!-- Node1&#45;&gt;Node2 -->
<g id="edge1_Node000001_Node000002" class="edge">
<title>Node1&#45;&gt;Node2</title>
<g id="a_edge1_Node000001_Node000002"><a xlink:title=" ">
<path fill="none" stroke="#63b8ff" d="M64.45,-248.05C88.23,-258.4 126.38,-275 153.39,-286.75"/>
<polygon fill="#63b8ff" stroke="#63b8ff" points="152.22,-290.06 162.79,-290.84 155.01,-283.64 152.22,-290.06"/>
</a>
</g>
</g>
<!-- Node3 -->
<g id="Node000003" class="node">
<title>Node3</title>
<g id="a_Node000003"><a xlink:href="class_bit_vector.html#aebe159444eb9d619959b7325ac5dac2d" target="_top" xlink:title="Return the value of the bit at the position coord.">
<polygon fill="white" stroke="#666666" points="1193,-191 1110,-191 1110,-172 1193,-172 1193,-191"/>
<text text-anchor="middle" x="1151.5" y="-179" font-family="Helvetica,sans-Serif" font-size="10.00">BitVector::get</text>
</a>
</g>
</g>
<!-- Node1&#45;&gt;Node3 -->
<g id="edge6_Node000001_Node000003" class="edge">
<title>Node1&#45;&gt;Node3</title>
<g id="a_edge6_Node000001_Node000003"><a xlink:title=" ">
<path fill="none" stroke="#63b8ff" d="M83.18,-242.28C146.48,-247.82 272.41,-257.5 379.5,-257.5 379.5,-257.5 379.5,-257.5 790,-257.5 917.41,-257.5 952.04,-255.36 1074,-218.5 1091.96,-213.07 1110.95,-203.91 1125.52,-196.06"/>
<polygon fill="#63b8ff" stroke="#63b8ff" points="1127.34,-199.05 1134.39,-191.14 1123.95,-192.93 1127.34,-199.05"/>
</a>
</g>
</g>
<!-- Node6 -->
<g id="Node000006" class="node">
<title>Node6</title>
<g id="a_Node000006"><a xlink:href="class_bit_vector.html#a115789c8a9812eabb52f8843cd4e9965" target="_top" xlink:title="Give the a coord object that represent the size of 1 element inside BitVector::_data.">
<polygon fill="white" stroke="#666666" points="1060.5,-19 929.5,-19 929.5,0 1060.5,0 1060.5,-19"/>
<text text-anchor="middle" x="995" y="-7" font-family="Helvetica,sans-Serif" font-size="10.00">BitVector::getCoordUnit</text>
</a>
</g>
</g>
<!-- Node1&#45;&gt;Node6 -->
<g id="edge7_Node000001_Node000006" class="edge">
<title>Node1&#45;&gt;Node6</title>
<g id="a_edge7_Node000001_Node000006"><a xlink:title=" ">
<path fill="none" stroke="#63b8ff" d="M49.35,-228.99C81.3,-185.84 220.91,-10.5 379.5,-10.5 379.5,-10.5 379.5,-10.5 586,-10.5 702.33,-10.5 837.31,-10.09 919.14,-9.79"/>
<polygon fill="#63b8ff" stroke="#63b8ff" points="919.36,-13.29 929.34,-9.76 919.33,-6.29 919.36,-13.29"/>
</a>
</g>
</g>
<!-- Node7 -->
<g id="Node000007" class="node">
<title>Node7</title>
<g id="a_Node000007"><a xlink:href="class_bit_vector.html#a93ab8bc2ec39bf299ae28ffcad504b41" target="_top" xlink:title="Give the coords of the first bit of an element.">
<polygon fill="white" stroke="#666666" points="253,-229 119,-229 119,-210 253,-210 253,-229"/>
<text text-anchor="middle" x="186" y="-217" font-family="Helvetica,sans-Serif" font-size="10.00">BitVector::indexElement</text>
</a>
</g>
</g>
<!-- Node1&#45;&gt;Node7 -->
<g id="edge9_Node000001_Node000007" class="edge">
<title>Node1&#45;&gt;Node7</title>
<g id="a_edge9_Node000001_Node000007"><a xlink:title=" ">
<path fill="none" stroke="#63b8ff" d="M83.33,-233.06C91.4,-231.98 100.11,-230.82 108.92,-229.64"/>
<polygon fill="#63b8ff" stroke="#63b8ff" points="109.42,-233.11 118.87,-228.32 108.5,-226.17 109.42,-233.11"/>
</a>
</g>
</g>
<!-- Node2&#45;&gt;Node3 -->
<g id="edge2_Node000002_Node000003" class="edge">
<title>Node2&#45;&gt;Node3</title>
<g id="a_edge2_Node000002_Node000003"><a xlink:title=" ">
<path fill="none" stroke="#63b8ff" d="M221.19,-310.05C240.87,-315.17 266.15,-321.1 289,-324.5 418.95,-343.84 452.62,-343.5 584,-343.5 584,-343.5 584,-343.5 790,-343.5 920.22,-343.5 963.49,-340.37 1074,-271.5 1103.15,-253.34 1126.9,-220.42 1139.84,-199.83"/>
<polygon fill="#63b8ff" stroke="#63b8ff" points="1142.95,-201.44 1145.15,-191.08 1136.97,-197.81 1142.95,-201.44"/>
</a>
</g>
</g>
<!-- Node5 -->
<g id="Node000005" class="node">
<title>Node5</title>
<g id="a_Node000005"><a xlink:href="class_bit_vector_1_1_coords.html#a393207c752f8f9121aca38c938914154" target="_top" xlink:title="Get Coords::bit .">
<polygon fill="white" stroke="#666666" points="434,-315.5 327,-315.5 327,-285.5 434,-285.5 434,-315.5"/>
<text text-anchor="start" x="335" y="-303.5" font-family="Helvetica,sans-Serif" font-size="10.00">BitVector::Coords::</text>
<text text-anchor="middle" x="380.5" y="-292.5" font-family="Helvetica,sans-Serif" font-size="10.00">getBit</text>
</a>
</g>
</g>
<!-- Node2&#45;&gt;Node5 -->
<g id="edge5_Node000002_Node000005" class="edge">
<title>Node2&#45;&gt;Node5</title>
<g id="a_edge5_Node000002_Node000005"><a xlink:title=" ">
<path fill="none" stroke="#63b8ff" d="M240.62,-300.5C264.18,-300.5 292,-300.5 316.54,-300.5"/>
<polygon fill="#63b8ff" stroke="#63b8ff" points="316.83,-304 326.83,-300.5 316.83,-297 316.83,-304"/>
</a>
</g>
</g>
<!-- Node3&#45;&gt;Node3 -->
<g id="edge3_Node000003_Node000003" class="edge">
<title>Node3&#45;&gt;Node3</title>
<g id="a_edge3_Node000003_Node000003"><a xlink:title=" ">
<path fill="none" stroke="#63b8ff" d="M1131.46,-191.08C1121.72,-199.73 1128.39,-209 1151.5,-209 1166.3,-209 1174.36,-205.2 1175.68,-200.19"/>
<polygon fill="#63b8ff" stroke="#63b8ff" points="1178.86,-198.73 1171.54,-191.08 1172.49,-201.63 1178.86,-198.73"/>
</a>
</g>
</g>
<!-- Node4 -->
<g id="Node000004" class="node">
<title>Node4</title>
<g id="a_Node000004"><a xlink:href="class_bit_vector_1_1_coords.html#a2892f7f46c4af93f9733e312229d8ec1" target="_top" xlink:title="Get Coords::octet .">
<polygon fill="white" stroke="#666666" points="1336,-196.5 1229,-196.5 1229,-166.5 1336,-166.5 1336,-196.5"/>
<text text-anchor="start" x="1237" y="-184.5" font-family="Helvetica,sans-Serif" font-size="10.00">BitVector::Coords::</text>
<text text-anchor="middle" x="1282.5" y="-173.5" font-family="Helvetica,sans-Serif" font-size="10.00">getOctet</text>
</a>
</g>
</g>
<!-- Node3&#45;&gt;Node4 -->
<g id="edge4_Node000003_Node000004" class="edge">
<title>Node3&#45;&gt;Node4</title>
<g id="a_edge4_Node000003_Node000004"><a xlink:title=" ">
<path fill="none" stroke="#63b8ff" d="M1193.32,-181.5C1201.38,-181.5 1210.02,-181.5 1218.62,-181.5"/>
<polygon fill="#63b8ff" stroke="#63b8ff" points="1218.66,-185 1228.66,-181.5 1218.66,-178 1218.66,-185"/>
</a>
</g>
</g>
<!-- Node6&#45;&gt;Node3 -->
<g id="edge8_Node000006_Node000003" class="edge">
<title>Node6&#45;&gt;Node3</title>
<g id="a_edge8_Node000006_Node000003"><a xlink:title=" ">
<path fill="none" stroke="#63b8ff" d="M1058.01,-19.14C1063.75,-21.61 1069.2,-24.68 1074,-28.5 1117.41,-63.11 1138.22,-128.77 1146.28,-161.67"/>
<polygon fill="#63b8ff" stroke="#63b8ff" points="1142.97,-162.87 1148.62,-171.83 1149.79,-161.3 1142.97,-162.87"/>
</a>
</g>
</g>
<!-- Node7&#45;&gt;Node3 -->
<g id="edge10_Node000007_Node000003" class="edge">
<title>Node7&#45;&gt;Node3</title>
<g id="a_edge10_Node000007_Node000003"><a xlink:title=" ">
<path fill="none" stroke="#63b8ff" d="M253.03,-219.5C331.81,-219.5 467.52,-219.5 584,-219.5 584,-219.5 584,-219.5 790,-219.5 900.89,-219.5 1029.92,-201.5 1099.58,-190.27"/>
<polygon fill="#63b8ff" stroke="#63b8ff" points="1100.52,-193.67 1109.83,-188.6 1099.4,-186.76 1100.52,-193.67"/>
</a>
</g>
</g>
<!-- Node8 -->
<g id="Node000008" class="node">
<title>Node8</title>
<g id="a_Node000008"><a xlink:href="class_bit_vector.html#a04e6d0b67ee9b42ccec437b0176067fe" target="_top" xlink:title="Give A size_t that represent the coords of the first bit of an element.">
<polygon fill="white" stroke="#666666" points="472,-163 289,-163 289,-144 472,-144 472,-163"/>
<text text-anchor="middle" x="380.5" y="-151" font-family="Helvetica,sans-Serif" font-size="10.00">BitVector::indexElementUntreated</text>
</a>
</g>
</g>
<!-- Node7&#45;&gt;Node8 -->
<g id="edge11_Node000007_Node000008" class="edge">
<title>Node7&#45;&gt;Node8</title>
<g id="a_edge11_Node000007_Node000008"><a xlink:title=" ">
<path fill="none" stroke="#63b8ff" d="M214.99,-209.9C248.59,-198.38 305.05,-179.03 342.29,-166.26"/>
<polygon fill="#63b8ff" stroke="#63b8ff" points="343.46,-169.56 351.79,-163 341.19,-162.93 343.46,-169.56"/>
</a>
</g>
</g>
<!-- Node8&#45;&gt;Node3 -->
<g id="edge12_Node000008_Node000003" class="edge">
<title>Node8&#45;&gt;Node3</title>
<g id="a_edge12_Node000008_Node000003"><a xlink:title=" ">
<path fill="none" stroke="#63b8ff" d="M472.35,-156.81C635.1,-162.73 971.3,-174.98 1099.4,-179.64"/>
<polygon fill="#63b8ff" stroke="#63b8ff" points="1099.58,-183.15 1109.71,-180.01 1099.84,-176.15 1099.58,-183.15"/>
</a>
</g>
</g>
<!-- Node9 -->
<g id="Node000009" class="node">
<title>Node9</title>
<g id="a_Node000009"><a xlink:href="class_bit_vector.html#af68cda7444ec4459393bbfa423f0a7dd" target="_top" xlink:title="Get the Size_t value if a BitVector::CoordUnit.">
<polygon fill="white" stroke="#666666" points="840.5,-70.5 737.5,-70.5 737.5,-40.5 840.5,-40.5 840.5,-70.5"/>
<text text-anchor="start" x="745.5" y="-58.5" font-family="Helvetica,sans-Serif" font-size="10.00">BitVector::getSize</text>
<text text-anchor="middle" x="789" y="-47.5" font-family="Helvetica,sans-Serif" font-size="10.00">_tUnit</text>
</a>
</g>
</g>
<!-- Node8&#45;&gt;Node9 -->
<g id="edge13_Node000008_Node000009" class="edge">
<title>Node8&#45;&gt;Node9</title>
<g id="a_edge13_Node000008_Node000009"><a xlink:title=" ">
<path fill="none" stroke="#63b8ff" d="M404.44,-143.85C429.51,-133.62 471.03,-117.58 508,-107.5 582.47,-87.19 670.25,-72.31 727.41,-63.8"/>
<polygon fill="#63b8ff" stroke="#63b8ff" points="727.98,-67.25 737.36,-62.33 726.96,-60.32 727.98,-67.25"/>
</a>
</g>
</g>
<!-- Node11 -->
<g id="Node000011" class="node">
<title>Node11</title>
<g id="a_Node000011"><a xlink:href="class_bit_vector.html#ad36e7d0b4b1417ca434414fa40c72eb8" target="_top" xlink:title="How many element can be contained in this object knowing BitVector::_element_size.">
<polygon fill="white" stroke="#666666" points="662,-136 508,-136 508,-117 662,-117 662,-136"/>
<text text-anchor="middle" x="585" y="-124" font-family="Helvetica,sans-Serif" font-size="10.00">BitVector::maxElementLimit</text>
</a>
</g>
</g>
<!-- Node8&#45;&gt;Node11 -->
<g id="edge16_Node000008_Node000011" class="edge">
<title>Node8&#45;&gt;Node11</title>
<g id="a_edge16_Node000008_Node000011"><a xlink:title=" ">
<path fill="none" stroke="#63b8ff" d="M452.89,-143.98C468.92,-141.84 486.05,-139.56 502.46,-137.37"/>
<polygon fill="#63b8ff" stroke="#63b8ff" points="503.12,-140.82 512.57,-136.02 502.19,-133.88 503.12,-140.82"/>
</a>
</g>
</g>
<!-- Node9&#45;&gt;Node6 -->
<g id="edge14_Node000009_Node000006" class="edge">
<title>Node9&#45;&gt;Node6</title>
<g id="a_edge14_Node000009_Node000006"><a xlink:title=" ">
<path fill="none" stroke="#63b8ff" d="M840.69,-44.07C871.57,-37.11 910.93,-28.23 942.04,-21.22"/>
<polygon fill="#63b8ff" stroke="#63b8ff" points="942.84,-24.62 951.83,-19.01 941.3,-17.8 942.84,-24.62"/>
</a>
</g>
</g>
<!-- Node10 -->
<g id="Node000010" class="node">
<title>Node10</title>
<g id="a_Node000010"><a xlink:href="class_bit_vector_1_1_coords.html#a3a4fac9de925974af9c8a66a1d0179e6" target="_top" xlink:title="Translate octet and bit value inside a size_t. Allow easier mathematic computations.">
<polygon fill="white" stroke="#666666" points="1048.5,-67.5 941.5,-67.5 941.5,-37.5 1048.5,-37.5 1048.5,-67.5"/>
<text text-anchor="start" x="949.5" y="-55.5" font-family="Helvetica,sans-Serif" font-size="10.00">BitVector::Coords::</text>
<text text-anchor="middle" x="995" y="-44.5" font-family="Helvetica,sans-Serif" font-size="10.00">toSize_t</text>
</a>
</g>
</g>
<!-- Node9&#45;&gt;Node10 -->
<g id="edge15_Node000009_Node000010" class="edge">
<title>Node9&#45;&gt;Node10</title>
<g id="a_edge15_Node000009_Node000010"><a xlink:title=" ">
<path fill="none" stroke="#63b8ff" d="M840.69,-54.75C868.13,-54.35 902.28,-53.85 931.38,-53.42"/>
<polygon fill="#63b8ff" stroke="#63b8ff" points="931.49,-56.92 941.44,-53.27 931.39,-49.92 931.49,-56.92"/>
</a>
</g>
</g>
<!-- Node11&#45;&gt;Node9 -->
<g id="edge17_Node000011_Node000009" class="edge">
<title>Node11&#45;&gt;Node9</title>
<g id="a_edge17_Node000011_Node000009"><a xlink:title=" ">
<path fill="none" stroke="#63b8ff" d="M607.18,-116.92C629.49,-107.03 665.79,-91.55 698,-80.5 707.43,-77.27 717.53,-74.14 727.42,-71.26"/>
<polygon fill="#63b8ff" stroke="#63b8ff" points="728.56,-74.58 737.22,-68.47 726.64,-67.85 728.56,-74.58"/>
</a>
</g>
</g>
<!-- Node12 -->
<g id="Node000012" class="node">
<title>Node12</title>
<g id="a_Node000012"><a xlink:href="class_bit_vector.html#a68b14af0886039ddcf55c82a250deb4c" target="_top" xlink:title="How many element can be contained in this kind of object.">
<polygon fill="white" stroke="#666666" points="1074,-153.5 916,-153.5 916,-123.5 1074,-123.5 1074,-153.5"/>
<text text-anchor="start" x="924" y="-141.5" font-family="Helvetica,sans-Serif" font-size="10.00">BitVector::maximumElement</text>
<text text-anchor="middle" x="995" y="-130.5" font-family="Helvetica,sans-Serif" font-size="10.00">Number</text>
</a>
</g>
</g>
<!-- Node11&#45;&gt;Node12 -->
<g id="edge18_Node000011_Node000012" class="edge">
<title>Node11&#45;&gt;Node12</title>
<g id="a_edge18_Node000011_Node000012"><a xlink:title=" ">
<path fill="none" stroke="#63b8ff" d="M662.26,-128.74C731.32,-130.77 833.06,-133.77 905.64,-135.9"/>
<polygon fill="#63b8ff" stroke="#63b8ff" points="905.58,-139.4 915.68,-136.2 905.79,-132.4 905.58,-139.4"/>
</a>
</g>
</g>
<!-- Node13 -->
<g id="Node000013" class="node">
<title>Node13</title>
<g id="a_Node000013"><a xlink:href="class_bit_vector.html#aa3228d2bacb1bb0f6072d73d43a49456" target="_top" xlink:title="How many octet can be contained in this kind of object.">
<polygon fill="white" stroke="#666666" points="880,-109 698,-109 698,-90 880,-90 880,-109"/>
<text text-anchor="middle" x="789" y="-97" font-family="Helvetica,sans-Serif" font-size="10.00">BitVector::maximumOctetNumber</text>
</a>
</g>
</g>
<!-- Node11&#45;&gt;Node13 -->
<g id="edge20_Node000011_Node000013" class="edge">
<title>Node11&#45;&gt;Node13</title>
<g id="a_edge20_Node000011_Node000013"><a xlink:title=" ">
<path fill="none" stroke="#63b8ff" d="M657.22,-116.98C673.21,-114.84 690.29,-112.56 706.66,-110.37"/>
<polygon fill="#63b8ff" stroke="#63b8ff" points="707.3,-113.82 716.74,-109.02 706.37,-106.88 707.3,-113.82"/>
</a>
</g>
</g>
<!-- Node12&#45;&gt;Node3 -->
<g id="edge19_Node000012_Node000003" class="edge">
<title>Node12&#45;&gt;Node3</title>
<g id="a_edge19_Node000012_Node000003"><a xlink:title=" ">
<path fill="none" stroke="#63b8ff" d="M1050.04,-153.54C1068.37,-158.64 1088.62,-164.28 1106.11,-169.15"/>
<polygon fill="#63b8ff" stroke="#63b8ff" points="1105.48,-172.6 1116.06,-171.91 1107.36,-165.86 1105.48,-172.6"/>
</a>
</g>
</g>
<!-- Node13&#45;&gt;Node3 -->
<g id="edge21_Node000013_Node000003" class="edge">
<title>Node13&#45;&gt;Node3</title>
<g id="a_edge21_Node000013_Node000003"><a xlink:title=" ">
<path fill="none" stroke="#63b8ff" d="M871.4,-89.99C929.9,-86.4 1009.51,-88.29 1074,-114.5 1099.67,-124.93 1122.62,-147.75 1136.53,-163.85"/>
<polygon fill="#63b8ff" stroke="#63b8ff" points="1134.21,-166.53 1143.29,-171.98 1139.59,-162.06 1134.21,-166.53"/>
</a>
</g>
</g>
</g>
</svg>
