<?xml version="1.0" encoding="UTF-8" standalone="no"?>
<!DOCTYPE svg PUBLIC "-//W3C//DTD SVG 1.1//EN"
 "http://www.w3.org/Graphics/SVG/1.1/DTD/svg11.dtd">
<!-- Generated by graphviz version 2.43.0 (0)
 -->
<!-- Title: BitVector::resize Pages: 1 -->
<svg width="251pt" height="101pt"
 viewBox="0.00 0.00 251.00 101.00" xmlns="http://www.w3.org/2000/svg" xmlns:xlink="http://www.w3.org/1999/xlink">
<g id="graph0" class="graph" transform="scale(1 1) rotate(0) translate(4 97)">
<title>BitVector::resize</title>
<!-- Node1 -->
<g id="Node000001" class="node">
<title>Node1</title>
<g id="a_Node000001"><a xlink:title="Modify the length of BitVector::_data.">
<polygon fill="#999999" stroke="#666666" points="243,-56 147,-56 147,-37 243,-37 243,-56"/>
<text text-anchor="middle" x="195" y="-44" font-family="Helvetica,sans-Serif" font-size="10.00">BitVector::resize</text>
</a>
</g>
</g>
<!-- Node2 -->
<g id="Node000002" class="node">
<title>Node2</title>
<g id="a_Node000002"><a xlink:href="class_bit_vector.html#a23c1685317944b2a5c6f149a5fccc6bd" target="_top" xlink:title="Construct a new Bit Vector object.">
<polygon fill="white" stroke="#666666" points="111,-93 0,-93 0,-74 111,-74 111,-93"/>
<text text-anchor="middle" x="55.5" y="-81" font-family="Helvetica,sans-Serif" font-size="10.00">BitVector::BitVector</text>
</a>
</g>
</g>
<!-- Node1&#45;&gt;Node2 -->
<g id="edge1_Node000001_Node000002" class="edge">
<title>Node1&#45;&gt;Node2</title>
<g id="a_edge1_Node000001_Node000002"><a xlink:title=" ">
<path fill="none" stroke="#63b8ff" d="M148.7,-58.69C130.37,-63.62 109.51,-69.24 92.27,-73.88"/>
<polygon fill="#63b8ff" stroke="#63b8ff" points="149.84,-62.01 158.59,-56.03 148.02,-55.25 149.84,-62.01"/>
</a>
</g>
</g>
<!-- Node3 -->
<g id="Node000003" class="node">
<title>Node3</title>
<g id="a_Node000003"><a xlink:href="class_bit_vector.html#a673b530bb6e520f7f7fa90070e0034db" target="_top" xlink:title="Free memory used by BitVector::_data.">
<polygon fill="white" stroke="#666666" points="101,-56 10,-56 10,-37 101,-37 101,-56"/>
<text text-anchor="middle" x="55.5" y="-44" font-family="Helvetica,sans-Serif" font-size="10.00">BitVector::clear</text>
</a>
</g>
</g>
<!-- Node1&#45;&gt;Node3 -->
<g id="edge2_Node000001_Node000003" class="edge">
<title>Node1&#45;&gt;Node3</title>
<g id="a_edge2_Node000001_Node000003"><a xlink:title=" ">
<path fill="none" stroke="#63b8ff" d="M136.46,-46.5C124.65,-46.5 112.4,-46.5 101.13,-46.5"/>
<polygon fill="#63b8ff" stroke="#63b8ff" points="136.68,-50 146.68,-46.5 136.68,-43 136.68,-50"/>
</a>
</g>
</g>
<!-- Node4 -->
<g id="Node000004" class="node">
<title>Node4</title>
<g id="a_Node000004"><a xlink:href="class_bit_vector.html#a80a4aa212535129b881b4fb2623ce222" target="_top" xlink:title="Reduce the size of BitVector::_data to fit BitVector::_element_number.">
<polygon fill="white" stroke="#666666" points="104,-19 7,-19 7,0 104,0 104,-19"/>
<text text-anchor="middle" x="55.5" y="-7" font-family="Helvetica,sans-Serif" font-size="10.00">BitVector::shrink</text>
</a>
</g>
</g>
<!-- Node1&#45;&gt;Node4 -->
<g id="edge3_Node000001_Node000004" class="edge">
<title>Node1&#45;&gt;Node4</title>
<g id="a_edge3_Node000001_Node000004"><a xlink:title=" ">
<path fill="none" stroke="#63b8ff" d="M148.7,-34.31C130.37,-29.38 109.51,-23.76 92.27,-19.12"/>
<polygon fill="#63b8ff" stroke="#63b8ff" points="148.02,-37.75 158.59,-36.97 149.84,-30.99 148.02,-37.75"/>
</a>
</g>
</g>
</g>
</svg>
