<?xml version="1.0" encoding="UTF-8" standalone="no"?>
<!DOCTYPE svg PUBLIC "-//W3C//DTD SVG 1.1//EN"
 "http://www.w3.org/Graphics/SVG/1.1/DTD/svg11.dtd">
<!-- Generated by graphviz version 2.43.0 (0)
 -->
<!-- Title: FastaHeader::load Pages: 1 -->
<svg width="270pt" height="64pt"
 viewBox="0.00 0.00 270.00 64.00" xmlns="http://www.w3.org/2000/svg" xmlns:xlink="http://www.w3.org/1999/xlink">
<g id="graph0" class="graph" transform="scale(1 1) rotate(0) translate(4 60)">
<title>FastaHeader::load</title>
<!-- Node1 -->
<g id="Node000001" class="node">
<title>Node1</title>
<g id="a_Node000001"><a xlink:title="Construct a new Fasta Header object.">
<polygon fill="#999999" stroke="#666666" points="104,-37 0,-37 0,-18 104,-18 104,-37"/>
<text text-anchor="middle" x="52" y="-25" font-family="Helvetica,sans-Serif" font-size="10.00">FastaHeader::load</text>
</a>
</g>
</g>
<!-- Node2 -->
<g id="Node000002" class="node">
<title>Node2</title>
<g id="a_Node000002"><a xlink:href="class_header.html#a1734dde9c24c3d18fb6230645b3f0ab0" target="_top" xlink:title="Set the accession number / key contained inside this header;.">
<polygon fill="white" stroke="#666666" points="262,-56 140,-56 140,-37 262,-37 262,-56"/>
<text text-anchor="middle" x="201" y="-44" font-family="Helvetica,sans-Serif" font-size="10.00">Header::setAccession</text>
</a>
</g>
</g>
<!-- Node1&#45;&gt;Node2 -->
<g id="edge1_Node000001_Node000002" class="edge">
<title>Node1&#45;&gt;Node2</title>
<g id="a_edge1_Node000001_Node000002"><a xlink:title=" ">
<path fill="none" stroke="#63b8ff" d="M104,-34.09C112.35,-35.17 121.12,-36.3 129.83,-37.43"/>
<polygon fill="#63b8ff" stroke="#63b8ff" points="129.63,-40.93 139.99,-38.74 130.53,-33.99 129.63,-40.93"/>
</a>
</g>
</g>
<!-- Node3 -->
<g id="Node000003" class="node">
<title>Node3</title>
<g id="a_Node000003"><a xlink:href="class_header.html#ab7591583b60456a69b27c013b063aa85" target="_top" xlink:title="Change the comments related to this header;.">
<polygon fill="white" stroke="#666666" points="261.5,-19 140.5,-19 140.5,0 261.5,0 261.5,-19"/>
<text text-anchor="middle" x="201" y="-7" font-family="Helvetica,sans-Serif" font-size="10.00">Header::setComment</text>
</a>
</g>
</g>
<!-- Node1&#45;&gt;Node3 -->
<g id="edge2_Node000001_Node000003" class="edge">
<title>Node1&#45;&gt;Node3</title>
<g id="a_edge2_Node000001_Node000003"><a xlink:title=" ">
<path fill="none" stroke="#63b8ff" d="M104,-21.25C112.5,-20.21 121.44,-19.12 130.3,-18.03"/>
<polygon fill="#63b8ff" stroke="#63b8ff" points="130.75,-21.51 140.25,-16.82 129.9,-14.56 130.75,-21.51"/>
</a>
</g>
</g>
</g>
</svg>
