<?xml version="1.0" encoding="UTF-8" standalone="no"?>
<!DOCTYPE svg PUBLIC "-//W3C//DTD SVG 1.1//EN"
 "http://www.w3.org/Graphics/SVG/1.1/DTD/svg11.dtd">
<!-- Generated by graphviz version 2.43.0 (0)
 -->
<!-- Title: BitVector::shrink Pages: 1 -->
<!--zoomable 439 -->

<svg id="main" version="1.1" xmlns="http://www.w3.org/2000/svg" xmlns:xlink="http://www.w3.org/1999/xlink" xml:space="preserve" onload="init(evt)">
<style type="text/css"><![CDATA[
.node, .edge {opacity: 0.7;}
.node.selected, .edge.selected {opacity: 1;}
.edge:hover path { stroke: red; }
.edge:hover polygon { stroke: red; fill: red; }
]]></style>

<defs>
  <circle id="rim" cx="0" cy="0" r="7"/>
  <circle id="rim2" cx="0" cy="0" r="3.5"/>
  <g id="zoomPlus">
    <use xlink:href="#rim" fill="#404040"><set attributeName="fill" to="#808080" begin="zoomplus.mouseover" end="zoomplus.mouseout"/></use>
    <path d="M-4,0h8M0,-4v8" fill="none" stroke="white" stroke-width="1.5" pointer-events="none"/>
  </g>
  <g id="zoomMin">
    <use xlink:href="#rim" fill="#404040"><set attributeName="fill" to="#808080" begin="zoomminus.mouseover" end="zoomminus.mouseout"/></use>
    <path d="M-4,0h8" fill="none" stroke="white" stroke-width="1.5" pointer-events="none"/>
  </g>
  <g id="arrowUp" transform="translate(30 24)">
    <use xlink:href="#rim"/>
    <path pointer-events="none" fill="none" stroke="white" stroke-width="1.5" d="M0,-3.0v7 M-2.5,-0.5L0,-3.0L2.5,-0.5"/>
  </g>
  <g id="arrowRight" transform="rotate(90) translate(36 -43)">
    <use xlink:href="#rim"/>
    <path pointer-events="none" fill="none" stroke="white" stroke-width="1.5" d="M0,-3.0v7 M-2.5,-0.5L0,-3.0L2.5,-0.5"/>
  </g>
  <g id="arrowDown" transform="rotate(180) translate(-30 -48)">
    <use xlink:href="#rim"/>
    <path pointer-events="none" fill="none" stroke="white" stroke-width="1.5" d="M0,-3.0v7 M-2.5,-0.5L0,-3.0L2.5,-0.5"/>
  </g>
  <g id="arrowLeft" transform="rotate(270) translate(-36 17)">
    <use xlink:href="#rim"/>
    <path pointer-events="none" fill="none" stroke="white" stroke-width="1.5" d="M0,-3.0v7 M-2.5,-0.5L0,-3.0L2.5,-0.5"/>
  </g>
  <g id="resetDef">
    <use xlink:href="#rim2" fill="#404040"><set attributeName="fill" to="#808080" begin="reset.mouseover" end="reset.mouseout"/></use>
  </g>
</defs>
<script type="application/ecmascript">
var viewWidth = 1496;
var viewHeight = 439;
var sectionId = 'dynsection-66';
</script>
<script type="application/ecmascript" xlink:href="svg.min.js"/>
<svg id="graph" class="graph">
<g id="viewport">
<title>BitVector::shrink</title>
<!-- Node1 -->
<g id="Node000001" class="node">
<title>Node1</title>
<g id="a_Node000001"><a xlink:title="Reduce the size of BitVector::_data to fit BitVector::_element_number.">
<polygon fill="#999999" stroke="#666666" points="97,-174.08 0,-174.08 0,-155.08 97,-155.08 97,-174.08"/>
<text text-anchor="middle" x="48.5" y="-162.08" font-family="Helvetica,sans-Serif" font-size="10.00">BitVector::shrink</text>
</a>
</g>
</g>
<!-- Node2 -->
<g id="Node000002" class="node">
<title>Node2</title>
<g id="a_Node000002"><a xlink:href="class_bit_vector.html#af68cda7444ec4459393bbfa423f0a7dd" target="_top" xlink:title="Get the Size_t value if a BitVector::CoordUnit.">
<polygon fill="white" stroke="#666666" points="992.5,-245.58 889.5,-245.58 889.5,-215.58 992.5,-215.58 992.5,-245.58"/>
<text text-anchor="start" x="897.5" y="-233.58" font-family="Helvetica,sans-Serif" font-size="10.00">BitVector::getSize</text>
<text text-anchor="middle" x="941" y="-222.58" font-family="Helvetica,sans-Serif" font-size="10.00">_tUnit</text>
</a>
</g>
</g>
<!-- Node1&#45;&gt;Node2 -->
<g id="edge1_Node000001_Node000002" class="edge">
<title>Node1&#45;&gt;Node2</title>
<g id="a_edge1_Node000001_Node000002"><a xlink:title=" ">
<path fill="none" stroke="#63b8ff" d="M93.61,-154.99C149.33,-143.73 248.29,-126.58 334,-126.58 334,-126.58 334,-126.58 533.5,-126.58 669.27,-126.58 822.82,-181.7 896.29,-211.69"/>
<polygon fill="#63b8ff" stroke="#63b8ff" points="895.11,-214.99 905.69,-215.57 897.78,-208.52 895.11,-214.99"/>
</a>
</g>
</g>
<!-- Node7 -->
<g id="Node000007" class="node">
<title>Node7</title>
<g id="a_Node000007"><a xlink:href="class_bit_vector.html#a13856f33d2350c573cf2fbe587f03757" target="_top" xlink:title="Modify the length of BitVector::_data.">
<polygon fill="white" stroke="#666666" points="229,-231.08 133,-231.08 133,-212.08 229,-212.08 229,-231.08"/>
<text text-anchor="middle" x="181" y="-219.08" font-family="Helvetica,sans-Serif" font-size="10.00">BitVector::resize</text>
</a>
</g>
</g>
<!-- Node1&#45;&gt;Node7 -->
<g id="edge7_Node000001_Node000007" class="edge">
<title>Node1&#45;&gt;Node7</title>
<g id="a_edge7_Node000001_Node000007"><a xlink:title=" ">
<path fill="none" stroke="#63b8ff" d="M71.34,-174.12C92.52,-183.37 124.85,-197.49 148.74,-207.92"/>
<polygon fill="#63b8ff" stroke="#63b8ff" points="147.52,-211.21 158.09,-212.01 150.32,-204.8 147.52,-211.21"/>
</a>
</g>
</g>
<!-- Node3 -->
<g id="Node000003" class="node">
<title>Node3</title>
<g id="a_Node000003"><a xlink:href="class_bit_vector.html#a115789c8a9812eabb52f8843cd4e9965" target="_top" xlink:title="Give the a coord object that represent the size of 1 element inside BitVector::_data.">
<polygon fill="white" stroke="#666666" points="1212.5,-240.08 1081.5,-240.08 1081.5,-221.08 1212.5,-221.08 1212.5,-240.08"/>
<text text-anchor="middle" x="1147" y="-228.08" font-family="Helvetica,sans-Serif" font-size="10.00">BitVector::getCoordUnit</text>
</a>
</g>
</g>
<!-- Node2&#45;&gt;Node3 -->
<g id="edge2_Node000002_Node000003" class="edge">
<title>Node2&#45;&gt;Node3</title>
<g id="a_edge2_Node000002_Node000003"><a xlink:title=" ">
<path fill="none" stroke="#63b8ff" d="M992.69,-230.58C1016.34,-230.58 1044.96,-230.58 1071.04,-230.58"/>
<polygon fill="#63b8ff" stroke="#63b8ff" points="1071.27,-234.08 1081.27,-230.58 1071.27,-227.08 1071.27,-234.08"/>
</a>
</g>
</g>
<!-- Node6 -->
<g id="Node000006" class="node">
<title>Node6</title>
<g id="a_Node000006"><a xlink:href="class_bit_vector_1_1_coords.html#a3a4fac9de925974af9c8a66a1d0179e6" target="_top" xlink:title="Translate octet and bit value inside a size_t. Allow easier mathematic computations.">
<polygon fill="white" stroke="#666666" points="1200.5,-202.58 1093.5,-202.58 1093.5,-172.58 1200.5,-172.58 1200.5,-202.58"/>
<text text-anchor="start" x="1101.5" y="-190.58" font-family="Helvetica,sans-Serif" font-size="10.00">BitVector::Coords::</text>
<text text-anchor="middle" x="1147" y="-179.58" font-family="Helvetica,sans-Serif" font-size="10.00">toSize_t</text>
</a>
</g>
</g>
<!-- Node2&#45;&gt;Node6 -->
<g id="edge6_Node000002_Node000006" class="edge">
<title>Node2&#45;&gt;Node6</title>
<g id="a_edge6_Node000002_Node000006"><a xlink:title=" ">
<path fill="none" stroke="#63b8ff" d="M992.69,-219.89C1020.13,-214.11 1054.28,-206.91 1083.38,-200.78"/>
<polygon fill="#63b8ff" stroke="#63b8ff" points="1084.37,-204.14 1093.44,-198.66 1082.93,-197.29 1084.37,-204.14"/>
</a>
</g>
</g>
<!-- Node4 -->
<g id="Node000004" class="node">
<title>Node4</title>
<g id="a_Node000004"><a xlink:href="class_bit_vector.html#aebe159444eb9d619959b7325ac5dac2d" target="_top" xlink:title="Return the value of the bit at the position coord.">
<polygon fill="white" stroke="#666666" points="1345,-197.08 1262,-197.08 1262,-178.08 1345,-178.08 1345,-197.08"/>
<text text-anchor="middle" x="1303.5" y="-185.08" font-family="Helvetica,sans-Serif" font-size="10.00">BitVector::get</text>
</a>
</g>
</g>
<!-- Node3&#45;&gt;Node4 -->
<g id="edge3_Node000003_Node000004" class="edge">
<title>Node3&#45;&gt;Node4</title>
<g id="a_edge3_Node000003_Node000004"><a xlink:title=" ">
<path fill="none" stroke="#63b8ff" d="M1189.42,-221.02C1201.27,-218.14 1214.18,-214.87 1226,-211.58 1238.36,-208.14 1251.74,-204.06 1263.8,-200.25"/>
<polygon fill="#63b8ff" stroke="#63b8ff" points="1265.11,-203.51 1273.57,-197.14 1262.98,-196.84 1265.11,-203.51"/>
</a>
</g>
</g>
<!-- Node4&#45;&gt;Node4 -->
<g id="edge4_Node000004_Node000004" class="edge">
<title>Node4&#45;&gt;Node4</title>
<g id="a_edge4_Node000004_Node000004"><a xlink:title=" ">
<path fill="none" stroke="#63b8ff" d="M1283.46,-197.16C1273.72,-205.81 1280.39,-215.08 1303.5,-215.08 1318.3,-215.08 1326.36,-211.27 1327.68,-206.27"/>
<polygon fill="#63b8ff" stroke="#63b8ff" points="1330.86,-204.81 1323.54,-197.16 1324.49,-207.71 1330.86,-204.81"/>
</a>
</g>
</g>
<!-- Node5 -->
<g id="Node000005" class="node">
<title>Node5</title>
<g id="a_Node000005"><a xlink:href="class_bit_vector_1_1_coords.html#a2892f7f46c4af93f9733e312229d8ec1" target="_top" xlink:title="Get Coords::octet .">
<polygon fill="white" stroke="#666666" points="1488,-369.58 1381,-369.58 1381,-339.58 1488,-339.58 1488,-369.58"/>
<text text-anchor="start" x="1389" y="-357.58" font-family="Helvetica,sans-Serif" font-size="10.00">BitVector::Coords::</text>
<text text-anchor="middle" x="1434.5" y="-346.58" font-family="Helvetica,sans-Serif" font-size="10.00">getOctet</text>
</a>
</g>
</g>
<!-- Node4&#45;&gt;Node5 -->
<g id="edge5_Node000004_Node000005" class="edge">
<title>Node4&#45;&gt;Node5</title>
<g id="a_edge5_Node000004_Node000005"><a xlink:title=" ">
<path fill="none" stroke="#63b8ff" d="M1312.18,-197.52C1332.27,-223.53 1386.76,-294.07 1415.38,-331.13"/>
<polygon fill="#63b8ff" stroke="#63b8ff" points="1412.86,-333.58 1421.74,-339.35 1418.4,-329.3 1412.86,-333.58"/>
</a>
</g>
</g>
<!-- Node7&#45;&gt;Node2 -->
<g id="edge12_Node000007_Node000002" class="edge">
<title>Node7&#45;&gt;Node2</title>
<g id="a_edge12_Node000007_Node000002"><a xlink:title=" ">
<path fill="none" stroke="#63b8ff" d="M229.13,-222.14C360.77,-223.7 732.29,-228.11 879.16,-229.85"/>
<polygon fill="#63b8ff" stroke="#63b8ff" points="879.3,-233.36 889.34,-229.98 879.38,-226.36 879.3,-233.36"/>
</a>
</g>
</g>
<!-- Node7&#45;&gt;Node4 -->
<g id="edge10_Node000007_Node000004" class="edge">
<title>Node7&#45;&gt;Node4</title>
<g id="a_edge10_Node000007_Node000004"><a xlink:title=" ">
<path fill="none" stroke="#63b8ff" d="M189.06,-212.07C202.31,-194.76 232.53,-157.71 265,-134.58 371.09,-58.98 401.23,-12.58 531.5,-12.58 531.5,-12.58 531.5,-12.58 942,-12.58 1068.88,-12.58 1120.92,29.54 1226,-41.58 1270.31,-71.56 1290.7,-135.62 1298.48,-167.99"/>
<polygon fill="#63b8ff" stroke="#63b8ff" points="1295.12,-169.02 1300.72,-178.01 1301.95,-167.49 1295.12,-169.02"/>
</a>
</g>
</g>
<!-- Node7&#45;&gt;Node5 -->
<g id="edge11_Node000007_Node000005" class="edge">
<title>Node7&#45;&gt;Node5</title>
<g id="a_edge11_Node000007_Node000005"><a xlink:title=" ">
<path fill="none" stroke="#63b8ff" d="M185.48,-231.42C194.57,-255.68 221.36,-318.72 265,-351.58 363.69,-425.89 407.96,-430.58 531.5,-430.58 531.5,-430.58 531.5,-430.58 1148,-430.58 1236.55,-430.58 1335.5,-396.02 1390.56,-373.51"/>
<polygon fill="#63b8ff" stroke="#63b8ff" points="1392.1,-376.66 1399.99,-369.59 1389.41,-370.19 1392.1,-376.66"/>
</a>
</g>
</g>
<!-- Node8 -->
<g id="Node000008" class="node">
<title>Node8</title>
<g id="a_Node000008"><a xlink:href="class_bit_vector.html#aece011ed1a0d697e5f777a7c2e147fcd" target="_top" xlink:title="Free memory used by BitVector::_data.">
<polygon fill="white" stroke="#666666" points="811,-60.08 663,-60.08 663,-41.08 811,-41.08 811,-60.08"/>
<text text-anchor="middle" x="737" y="-48.08" font-family="Helvetica,sans-Serif" font-size="10.00">BitVector::_killInternalData</text>
</a>
</g>
</g>
<!-- Node7&#45;&gt;Node8 -->
<g id="edge8_Node000007_Node000008" class="edge">
<title>Node7&#45;&gt;Node8</title>
<g id="a_edge8_Node000007_Node000008"><a xlink:title=" ">
<path fill="none" stroke="#63b8ff" d="M200.77,-211.97C217.37,-203.73 242.39,-191.89 265,-183.58 414.02,-128.8 596.42,-83.13 684.09,-62.46"/>
<polygon fill="#63b8ff" stroke="#63b8ff" points="685.11,-65.81 694.05,-60.12 683.51,-59 685.11,-65.81"/>
</a>
</g>
</g>
<!-- Node9 -->
<g id="Node000009" class="node">
<title>Node9</title>
<g id="a_Node000009"><a xlink:href="class_bit_vector.html#a93ab8bc2ec39bf299ae28ffcad504b41" target="_top" xlink:title="Give the coords of the first bit of an element.">
<polygon fill="white" stroke="#666666" points="402,-212.08 268,-212.08 268,-193.08 402,-193.08 402,-212.08"/>
<text text-anchor="middle" x="335" y="-200.08" font-family="Helvetica,sans-Serif" font-size="10.00">BitVector::indexElement</text>
</a>
</g>
</g>
<!-- Node7&#45;&gt;Node9 -->
<g id="edge13_Node000007_Node000009" class="edge">
<title>Node7&#45;&gt;Node9</title>
<g id="a_edge13_Node000007_Node000009"><a xlink:title=" ">
<path fill="none" stroke="#63b8ff" d="M229.26,-215.67C238.32,-214.54 248.01,-213.33 257.71,-212.11"/>
<polygon fill="#63b8ff" stroke="#63b8ff" points="258.3,-215.57 267.79,-210.85 257.44,-208.62 258.3,-215.57"/>
</a>
</g>
</g>
<!-- Node13 -->
<g id="Node000013" class="node">
<title>Node13</title>
<g id="a_Node000013"><a xlink:href="class_bit_vector.html#aa3228d2bacb1bb0f6072d73d43a49456" target="_top" xlink:title="How many octet can be contained in this kind of object.">
<polygon fill="white" stroke="#666666" points="1032,-326.08 850,-326.08 850,-307.08 1032,-307.08 1032,-326.08"/>
<text text-anchor="middle" x="941" y="-314.08" font-family="Helvetica,sans-Serif" font-size="10.00">BitVector::maximumOctetNumber</text>
</a>
</g>
</g>
<!-- Node7&#45;&gt;Node13 -->
<g id="edge24_Node000007_Node000013" class="edge">
<title>Node7&#45;&gt;Node13</title>
<g id="a_edge24_Node000007_Node000013"><a xlink:title=" ">
<path fill="none" stroke="#63b8ff" d="M187.03,-231.3C198.03,-251.35 226.34,-297.01 265,-315.58 481.91,-419.76 785.13,-357.45 896.64,-328.71"/>
<polygon fill="#63b8ff" stroke="#63b8ff" points="897.73,-332.05 906.52,-326.13 895.96,-325.28 897.73,-332.05"/>
</a>
</g>
</g>
<!-- Node14 -->
<g id="Node000014" class="node">
<title>Node14</title>
<g id="a_Node000014"><a xlink:href="class_bit_vector.html#acb362f03b29600195996f52c04940439" target="_top" xlink:title="How many octet can be contained in this object knowing BitVector::_element_size.">
<polygon fill="white" stroke="#666666" points="405,-307.08 265,-307.08 265,-288.08 405,-288.08 405,-307.08"/>
<text text-anchor="middle" x="335" y="-295.08" font-family="Helvetica,sans-Serif" font-size="10.00">BitVector::maxOctetLimit</text>
</a>
</g>
</g>
<!-- Node7&#45;&gt;Node14 -->
<g id="edge25_Node000007_Node000014" class="edge">
<title>Node7&#45;&gt;Node14</title>
<g id="a_edge25_Node000007_Node000014"><a xlink:title=" ">
<path fill="none" stroke="#63b8ff" d="M201.25,-231.2C227.63,-244.39 275.21,-268.18 305.67,-283.41"/>
<polygon fill="#63b8ff" stroke="#63b8ff" points="304.4,-286.69 314.91,-288.03 307.53,-280.43 304.4,-286.69"/>
</a>
</g>
</g>
<!-- Node8&#45;&gt;Node4 -->
<g id="edge9_Node000008_Node000004" class="edge">
<title>Node8&#45;&gt;Node4</title>
<g id="a_edge9_Node000008_Node000004"><a xlink:title=" ">
<path fill="none" stroke="#63b8ff" d="M811.13,-46.35C929.57,-40.78 1157.06,-35.8 1226,-74.58 1262.66,-95.2 1285.26,-141.57 1295.68,-168.05"/>
<polygon fill="#63b8ff" stroke="#63b8ff" points="1292.52,-169.6 1299.29,-177.75 1299.08,-167.15 1292.52,-169.6"/>
</a>
</g>
</g>
<!-- Node9&#45;&gt;Node4 -->
<g id="edge14_Node000009_Node000004" class="edge">
<title>Node9&#45;&gt;Node4</title>
<g id="a_edge14_Node000009_Node000004"><a xlink:title=" ">
<path fill="none" stroke="#63b8ff" d="M381.55,-193.05C399.94,-189.54 421.4,-185.87 441,-183.58 718.08,-151.19 789.07,-159.05 1068,-154.58 1138.21,-153.45 1157.23,-140.38 1226,-154.58 1243.61,-158.21 1262.16,-166.1 1276.58,-173.25"/>
<polygon fill="#63b8ff" stroke="#63b8ff" points="1275.35,-176.55 1285.84,-178.02 1278.55,-170.33 1275.35,-176.55"/>
</a>
</g>
</g>
<!-- Node10 -->
<g id="Node000010" class="node">
<title>Node10</title>
<g id="a_Node000010"><a xlink:href="class_bit_vector.html#a04e6d0b67ee9b42ccec437b0176067fe" target="_top" xlink:title="Give A size_t that represent the coords of the first bit of an element.">
<polygon fill="white" stroke="#666666" points="624,-212.08 441,-212.08 441,-193.08 624,-193.08 624,-212.08"/>
<text text-anchor="middle" x="532.5" y="-200.08" font-family="Helvetica,sans-Serif" font-size="10.00">BitVector::indexElementUntreated</text>
</a>
</g>
</g>
<!-- Node9&#45;&gt;Node10 -->
<g id="edge15_Node000009_Node000010" class="edge">
<title>Node9&#45;&gt;Node10</title>
<g id="a_edge15_Node000009_Node000010"><a xlink:title=" ">
<path fill="none" stroke="#63b8ff" d="M402.19,-202.58C411.4,-202.58 421.02,-202.58 430.69,-202.58"/>
<polygon fill="#63b8ff" stroke="#63b8ff" points="430.76,-206.08 440.76,-202.58 430.76,-199.08 430.76,-206.08"/>
</a>
</g>
</g>
<!-- Node10&#45;&gt;Node2 -->
<g id="edge17_Node000010_Node000002" class="edge">
<title>Node10&#45;&gt;Node2</title>
<g id="a_edge17_Node000010_Node000002"><a xlink:title=" ">
<path fill="none" stroke="#63b8ff" d="M624.22,-208.83C702.01,-214.18 811.91,-221.75 879.43,-226.4"/>
<polygon fill="#63b8ff" stroke="#63b8ff" points="879.26,-229.9 889.48,-227.1 879.74,-222.92 879.26,-229.9"/>
</a>
</g>
</g>
<!-- Node10&#45;&gt;Node4 -->
<g id="edge16_Node000010_Node000004" class="edge">
<title>Node10&#45;&gt;Node4</title>
<g id="a_edge16_Node000010_Node000004"><a xlink:title=" ">
<path fill="none" stroke="#63b8ff" d="M624.18,-193.94C730.42,-184.29 911.79,-169.27 1068,-163.58 1138.18,-161.02 1156.59,-152.94 1226,-163.58 1240.36,-165.78 1255.73,-170.17 1268.9,-174.61"/>
<polygon fill="#63b8ff" stroke="#63b8ff" points="1267.89,-177.96 1278.49,-177.97 1270.21,-171.36 1267.89,-177.96"/>
</a>
</g>
</g>
<!-- Node11 -->
<g id="Node000011" class="node">
<title>Node11</title>
<g id="a_Node000011"><a xlink:href="class_bit_vector.html#ad36e7d0b4b1417ca434414fa40c72eb8" target="_top" xlink:title="How many element can be contained in this object knowing BitVector::_element_size.">
<polygon fill="white" stroke="#666666" points="814,-326.08 660,-326.08 660,-307.08 814,-307.08 814,-326.08"/>
<text text-anchor="middle" x="737" y="-314.08" font-family="Helvetica,sans-Serif" font-size="10.00">BitVector::maxElementLimit</text>
</a>
</g>
</g>
<!-- Node10&#45;&gt;Node11 -->
<g id="edge18_Node000010_Node000011" class="edge">
<title>Node10&#45;&gt;Node11</title>
<g id="a_edge18_Node000010_Node000011"><a xlink:title=" ">
<path fill="none" stroke="#63b8ff" d="M550.42,-212.1C585.85,-232.05 668.08,-278.34 710.17,-302.03"/>
<polygon fill="#63b8ff" stroke="#63b8ff" points="708.56,-305.14 718.99,-307 711.99,-299.04 708.56,-305.14"/>
</a>
</g>
</g>
<!-- Node11&#45;&gt;Node2 -->
<g id="edge19_Node000011_Node000002" class="edge">
<title>Node11&#45;&gt;Node2</title>
<g id="a_edge19_Node000011_Node000002"><a xlink:title=" ">
<path fill="none" stroke="#63b8ff" d="M778.25,-307.05C790.16,-303.4 802.95,-298.62 814,-292.58 832.27,-282.59 831.91,-272.89 850,-262.58 859.17,-257.35 869.35,-252.74 879.46,-248.77"/>
<polygon fill="#63b8ff" stroke="#63b8ff" points="880.96,-251.94 889.1,-245.16 878.51,-245.39 880.96,-251.94"/>
</a>
</g>
</g>
<!-- Node12 -->
<g id="Node000012" class="node">
<title>Node12</title>
<g id="a_Node000012"><a xlink:href="class_bit_vector.html#a68b14af0886039ddcf55c82a250deb4c" target="_top" xlink:title="How many element can be contained in this kind of object.">
<polygon fill="white" stroke="#666666" points="1226,-288.58 1068,-288.58 1068,-258.58 1226,-258.58 1226,-288.58"/>
<text text-anchor="start" x="1076" y="-276.58" font-family="Helvetica,sans-Serif" font-size="10.00">BitVector::maximumElement</text>
<text text-anchor="middle" x="1147" y="-265.58" font-family="Helvetica,sans-Serif" font-size="10.00">Number</text>
</a>
</g>
</g>
<!-- Node11&#45;&gt;Node12 -->
<g id="edge20_Node000011_Node000012" class="edge">
<title>Node11&#45;&gt;Node12</title>
<g id="a_edge20_Node000011_Node000012"><a xlink:title=" ">
<path fill="none" stroke="#63b8ff" d="M788.6,-307.03C807.78,-303.67 829.84,-300.1 850,-297.58 919.64,-288.86 998.91,-282.63 1057.88,-278.7"/>
<polygon fill="#63b8ff" stroke="#63b8ff" points="1058.16,-282.19 1067.91,-278.05 1057.7,-275.21 1058.16,-282.19"/>
</a>
</g>
</g>
<!-- Node11&#45;&gt;Node13 -->
<g id="edge22_Node000011_Node000013" class="edge">
<title>Node11&#45;&gt;Node13</title>
<g id="a_edge22_Node000011_Node000013"><a xlink:title=" ">
<path fill="none" stroke="#63b8ff" d="M814.08,-316.58C822.44,-316.58 831.04,-316.58 839.64,-316.58"/>
<polygon fill="#63b8ff" stroke="#63b8ff" points="839.71,-320.08 849.71,-316.58 839.71,-313.08 839.71,-320.08"/>
</a>
</g>
</g>
<!-- Node12&#45;&gt;Node4 -->
<g id="edge21_Node000012_Node000004" class="edge">
<title>Node12&#45;&gt;Node4</title>
<g id="a_edge21_Node000012_Node000004"><a xlink:title=" ">
<path fill="none" stroke="#63b8ff" d="M1203.58,-258.53C1211.3,-255.65 1218.98,-252.34 1226,-248.58 1248.49,-236.53 1270.92,-217.63 1285.62,-204.05"/>
<polygon fill="#63b8ff" stroke="#63b8ff" points="1288.08,-206.55 1292.95,-197.14 1283.27,-201.46 1288.08,-206.55"/>
</a>
</g>
</g>
<!-- Node13&#45;&gt;Node4 -->
<g id="edge23_Node000013_Node000004" class="edge">
<title>Node13&#45;&gt;Node4</title>
<g id="a_edge23_Node000013_Node000004"><a xlink:title=" ">
<path fill="none" stroke="#63b8ff" d="M995.61,-326.09C1055.8,-333.95 1154.39,-338.1 1226,-297.58 1261.94,-277.24 1284.83,-232.2 1295.48,-206.51"/>
<polygon fill="#63b8ff" stroke="#63b8ff" points="1298.77,-207.69 1299.18,-197.11 1292.26,-205.13 1298.77,-207.69"/>
</a>
</g>
</g>
<!-- Node14&#45;&gt;Node5 -->
<g id="edge26_Node000014_Node000005" class="edge">
<title>Node14&#45;&gt;Node5</title>
<g id="a_edge26_Node000014_Node000005"><a xlink:title=" ">
<path fill="none" stroke="#63b8ff" d="M389.5,-307.12C482.29,-323.34 669.54,-354.58 736,-354.58 736,-354.58 736,-354.58 1148,-354.58 1224.68,-354.58 1312.95,-354.58 1370.8,-354.58"/>
<polygon fill="#63b8ff" stroke="#63b8ff" points="1370.88,-358.08 1380.88,-354.58 1370.88,-351.08 1370.88,-358.08"/>
</a>
</g>
</g>
<!-- Node15 -->
<g id="Node000015" class="node">
<title>Node15</title>
<g id="a_Node000015"><a xlink:href="class_bit_vector.html#a214e556dd89acce2427a378c5520adbd" target="_top" xlink:title="Last acceptable coordinate knowing BitVector::_element_size.">
<polygon fill="white" stroke="#666666" points="614,-307.08 451,-307.08 451,-288.08 614,-288.08 614,-307.08"/>
<text text-anchor="middle" x="532.5" y="-295.08" font-family="Helvetica,sans-Serif" font-size="10.00">BitVector::MaximalCoordLimit</text>
</a>
</g>
</g>
<!-- Node14&#45;&gt;Node15 -->
<g id="edge27_Node000014_Node000015" class="edge">
<title>Node14&#45;&gt;Node15</title>
<g id="a_edge27_Node000014_Node000015"><a xlink:title=" ">
<path fill="none" stroke="#63b8ff" d="M405.2,-297.58C416.59,-297.58 428.54,-297.58 440.36,-297.58"/>
<polygon fill="#63b8ff" stroke="#63b8ff" points="440.69,-301.08 450.69,-297.58 440.69,-294.08 440.69,-301.08"/>
</a>
</g>
</g>
<!-- Node15&#45;&gt;Node2 -->
<g id="edge28_Node000015_Node000002" class="edge">
<title>Node15&#45;&gt;Node2</title>
<g id="a_edge28_Node000015_Node000002"><a xlink:title=" ">
<path fill="none" stroke="#63b8ff" d="M600.2,-288.04C657.1,-279.75 741.05,-267.11 814,-254.58 835.41,-250.9 858.79,-246.54 879.54,-242.55"/>
<polygon fill="#63b8ff" stroke="#63b8ff" points="880.34,-245.96 889.5,-240.63 879.01,-239.09 880.34,-245.96"/>
</a>
</g>
</g>
<!-- Node15&#45;&gt;Node11 -->
<g id="edge29_Node000015_Node000011" class="edge">
<title>Node15&#45;&gt;Node11</title>
<g id="a_edge29_Node000015_Node000011"><a xlink:title=" ">
<path fill="none" stroke="#63b8ff" d="M614.12,-305.14C625.8,-306.24 637.87,-307.37 649.67,-308.48"/>
<polygon fill="#63b8ff" stroke="#63b8ff" points="649.66,-311.99 659.94,-309.44 650.31,-305.02 649.66,-311.99"/>
</a>
</g>
</g>
</g>
</svg>

<g id="navigator" transform="translate(0 0)" fill="#404254">
  <rect fill="#f2f5e9" fill-opacity="0.5" stroke="#606060" stroke-width=".5" x="0" y="0" width="60" height="60"/>
  <use id="zoomplus" xlink:href="#zoomPlus" x="17" y="9" onmousedown="handleZoom(evt,'in')"/>
  <use id="zoomminus" xlink:href="#zoomMin" x="42" y="9" onmousedown="handleZoom(evt,'out')"/>
  <use id="reset" xlink:href="#resetDef" x="30" y="36" onmousedown="handleReset()"/>
   <use id="arrowup" xlink:href="#arrowUp" x="0" y="0" onmousedown="handlePan(0,-1)"/>
  <use id="arrowright" xlink:href="#arrowRight" x="0" y="0" onmousedown="handlePan(1,0)"/>
  <use id="arrowdown" xlink:href="#arrowDown" x="0" y="0" onmousedown="handlePan(0,1)"/>
  <use id="arrowleft" xlink:href="#arrowLeft" x="0" y="0" onmousedown="handlePan(-1,0)"/>
</g>
<svg viewBox="0 0 15 15" width="100%" height="30px" preserveAspectRatio="xMaxYMin meet">
 <g id="arrow_out" transform="scale(0.3 0.3)">
  <a xlink:href="class_bit_vector_a80a4aa212535129b881b4fb2623ce222_cgraph_org.svg" target="_base">
   <rect id="button" ry="5" rx="5" y="6" x="6" height="38" width="38"
        fill="#f2f5e9" fill-opacity="0.5" stroke="#606060" stroke-width="1.0"/>
   <path id="arrow"
     d="M 11.500037,31.436501 C 11.940474,20.09759 22.043105,11.32322 32.158766,21.979434 L 37.068811,17.246167 C 37.068811,17.246167 37.088388,32 37.088388,32 L 22.160133,31.978069 C 22.160133,31.978069 26.997745,27.140456 26.997745,27.140456 C 18.528582,18.264221 13.291696,25.230495 11.500037,31.436501 z"
     style="fill:#404040;"/>
  </a>
 </g>
</svg>

<style type='text/css'>
<![CDATA[
[data-mouse-over-selected='false'] { opacity: 0.7; }
[data-mouse-over-selected='true']  { opacity: 1.0; }
]]>
</style>
<script type="application/ecmascript"><![CDATA[
document.addEventListener('DOMContentLoaded', (event) => {
  highlightEdges();
  highlightAdjacentNodes();
});
]]></script>
</svg>
