<?xml version="1.0" encoding="UTF-8" standalone="no"?>
<!DOCTYPE svg PUBLIC "-//W3C//DTD SVG 1.1//EN"
 "http://www.w3.org/Graphics/SVG/1.1/DTD/svg11.dtd">
<!-- Generated by graphviz version 2.43.0 (0)
 -->
<!-- Title: BitVector::makeRoomForElement Pages: 1 -->
<svg width="1696pt" height="418pt"
 viewBox="0.00 0.00 1696.00 418.10" xmlns="http://www.w3.org/2000/svg" xmlns:xlink="http://www.w3.org/1999/xlink">
<g id="graph0" class="graph" transform="scale(1 1) rotate(0) translate(4 414.1)">
<title>BitVector::makeRoomForElement</title>
<!-- Node1 -->
<g id="Node000001" class="node">
<title>Node1</title>
<g id="a_Node000001"><a xlink:title="Insert a number of blank position inside BitVector::_data.">
<polygon fill="#999999" stroke="#666666" points="178,-336.21 0,-336.21 0,-317.21 178,-317.21 178,-336.21"/>
<text text-anchor="middle" x="89" y="-324.21" font-family="Helvetica,sans-Serif" font-size="10.00">BitVector::makeRoomForElement</text>
</a>
</g>
</g>
<!-- Node2 -->
<g id="Node000002" class="node">
<title>Node2</title>
<g id="a_Node000002"><a xlink:href="class_bit_vector.html#afbdbe8a5003f5941ffd5ab095cf87d88" target="_top" xlink:title="Add an element at the end of the vector.">
<polygon fill="white" stroke="#666666" points="317,-317.21 214,-317.21 214,-298.21 317,-298.21 317,-317.21"/>
<text text-anchor="middle" x="265.5" y="-305.21" font-family="Helvetica,sans-Serif" font-size="10.00">BitVector::append</text>
</a>
</g>
</g>
<!-- Node1&#45;&gt;Node2 -->
<g id="edge1_Node000001_Node000002" class="edge">
<title>Node1&#45;&gt;Node2</title>
<g id="a_edge1_Node000001_Node000002"><a xlink:title=" ">
<path fill="none" stroke="#63b8ff" d="M177.51,-317.18C186.33,-316.22 195.16,-315.26 203.61,-314.34"/>
<polygon fill="#63b8ff" stroke="#63b8ff" points="204.16,-317.8 213.73,-313.24 203.41,-310.84 204.16,-317.8"/>
</a>
</g>
</g>
<!-- Node3 -->
<g id="Node000003" class="node">
<title>Node3</title>
<g id="a_Node000003"><a xlink:href="class_bit_vector.html#aca24053f655c825de0f06ec86fff1cec" target="_top" xlink:title="Replace an element by another element. Can add an element to the list if index = BitVector::_element_...">
<polygon fill="white" stroke="#666666" points="435,-191.21 353,-191.21 353,-172.21 435,-172.21 435,-191.21"/>
<text text-anchor="middle" x="394" y="-179.21" font-family="Helvetica,sans-Serif" font-size="10.00">BitVector::set</text>
</a>
</g>
</g>
<!-- Node1&#45;&gt;Node3 -->
<g id="edge29_Node000001_Node000003" class="edge">
<title>Node1&#45;&gt;Node3</title>
<g id="a_edge29_Node000001_Node000003"><a xlink:title=" ">
<path fill="none" stroke="#63b8ff" d="M109.88,-317.2C161.99,-292.26 302.74,-224.9 363.93,-195.62"/>
<polygon fill="#63b8ff" stroke="#63b8ff" points="365.54,-198.73 373.05,-191.26 362.51,-192.42 365.54,-198.73"/>
</a>
</g>
</g>
<!-- Node5 -->
<g id="Node000005" class="node">
<title>Node5</title>
<g id="a_Node000005"><a xlink:href="class_bit_vector.html#aebe159444eb9d619959b7325ac5dac2d" target="_top" xlink:title="Return the value of the bit at the position coord.">
<polygon fill="white" stroke="#666666" points="1545,-249.21 1462,-249.21 1462,-230.21 1545,-230.21 1545,-249.21"/>
<text text-anchor="middle" x="1503.5" y="-237.21" font-family="Helvetica,sans-Serif" font-size="10.00">BitVector::get</text>
</a>
</g>
</g>
<!-- Node1&#45;&gt;Node5 -->
<g id="edge27_Node000001_Node000005" class="edge">
<title>Node1&#45;&gt;Node5</title>
<g id="a_edge27_Node000001_Node000005"><a xlink:title=" ">
<path fill="none" stroke="#63b8ff" d="M111.56,-336.27C160.53,-357.1 284.36,-404.71 393,-404.71 393,-404.71 393,-404.71 1142,-404.71 1269.73,-404.71 1319.19,-430.75 1426,-360.71 1463.43,-336.17 1486.06,-286.27 1496.18,-258.84"/>
<polygon fill="#63b8ff" stroke="#63b8ff" points="1499.55,-259.81 1499.56,-249.22 1492.95,-257.5 1499.55,-259.81"/>
</a>
</g>
</g>
<!-- Node13 -->
<g id="Node000013" class="node">
<title>Node13</title>
<g id="a_Node000013"><a xlink:href="class_bit_vector.html#ad36e7d0b4b1417ca434414fa40c72eb8" target="_top" xlink:title="How many element can be contained in this object knowing BitVector::_element_size.">
<polygon fill="white" stroke="#666666" points="1014,-296.21 860,-296.21 860,-277.21 1014,-277.21 1014,-296.21"/>
<text text-anchor="middle" x="937" y="-284.21" font-family="Helvetica,sans-Serif" font-size="10.00">BitVector::maxElementLimit</text>
</a>
</g>
</g>
<!-- Node1&#45;&gt;Node13 -->
<g id="edge28_Node000001_Node000013" class="edge">
<title>Node1&#45;&gt;Node13</title>
<g id="a_edge28_Node000001_Node000013"><a xlink:title=" ">
<path fill="none" stroke="#63b8ff" d="M134.17,-336.24C192.95,-348.07 300.28,-366.71 393,-366.71 393,-366.71 393,-366.71 539,-366.71 673.36,-366.71 828.35,-322.13 898.3,-299.53"/>
<polygon fill="#63b8ff" stroke="#63b8ff" points="899.57,-302.79 907.99,-296.36 897.4,-296.14 899.57,-302.79"/>
</a>
</g>
</g>
<!-- Node2&#45;&gt;Node3 -->
<g id="edge2_Node000002_Node000003" class="edge">
<title>Node2&#45;&gt;Node3</title>
<g id="a_edge2_Node000002_Node000003"><a xlink:title=" ">
<path fill="none" stroke="#63b8ff" d="M276.43,-297.82C297.95,-276.39 349.13,-225.41 375.94,-198.7"/>
<polygon fill="#63b8ff" stroke="#63b8ff" points="378.5,-201.09 383.12,-191.55 373.56,-196.13 378.5,-201.09"/>
</a>
</g>
</g>
<!-- Node4 -->
<g id="Node000004" class="node">
<title>Node4</title>
<g id="a_Node000004"><a xlink:href="class_bit_vector.html#a8c3c1f0faa0bbf35638c7217a841cbd8" target="_top" xlink:title=" ">
<polygon fill="white" stroke="#666666" points="592.5,-53.21 483.5,-53.21 483.5,-34.21 592.5,-34.21 592.5,-53.21"/>
<text text-anchor="middle" x="538" y="-41.21" font-family="Helvetica,sans-Serif" font-size="10.00">BitVector::copyBits</text>
</a>
</g>
</g>
<!-- Node3&#45;&gt;Node4 -->
<g id="edge3_Node000003_Node000004" class="edge">
<title>Node3&#45;&gt;Node4</title>
<g id="a_edge3_Node000003_Node000004"><a xlink:title=" ">
<path fill="none" stroke="#63b8ff" d="M399.5,-171.93C409.55,-151.06 435.71,-101.71 471,-72.71 478.61,-66.46 487.77,-61.31 496.82,-57.18"/>
<polygon fill="#63b8ff" stroke="#63b8ff" points="498.29,-60.36 506.13,-53.24 495.56,-53.91 498.29,-60.36"/>
</a>
</g>
</g>
<!-- Node3&#45;&gt;Node5 -->
<g id="edge8_Node000003_Node000005" class="edge">
<title>Node3&#45;&gt;Node5</title>
<g id="a_edge8_Node000003_Node000005"><a xlink:title=" ">
<path fill="none" stroke="#63b8ff" d="M403.2,-172.06C416.03,-157.69 442.36,-131.06 471,-118.71 578.11,-72.51 614.85,-86.71 731.5,-86.71 731.5,-86.71 731.5,-86.71 1142,-86.71 1270.24,-86.71 1316.84,-70.41 1426,-137.71 1458.5,-157.75 1481.93,-197.08 1493.76,-220.62"/>
<polygon fill="#63b8ff" stroke="#63b8ff" points="1490.75,-222.43 1498.24,-229.92 1497.05,-219.39 1490.75,-222.43"/>
</a>
</g>
</g>
<!-- Node8 -->
<g id="Node000008" class="node">
<title>Node8</title>
<g id="a_Node000008"><a xlink:href="class_bit_vector.html#a115789c8a9812eabb52f8843cd4e9965" target="_top" xlink:title="Give the a coord object that represent the size of 1 element inside BitVector::_data.">
<polygon fill="white" stroke="#666666" points="1412.5,-166.21 1281.5,-166.21 1281.5,-147.21 1412.5,-147.21 1412.5,-166.21"/>
<text text-anchor="middle" x="1347" y="-154.21" font-family="Helvetica,sans-Serif" font-size="10.00">BitVector::getCoordUnit</text>
</a>
</g>
</g>
<!-- Node3&#45;&gt;Node8 -->
<g id="edge9_Node000003_Node000008" class="edge">
<title>Node3&#45;&gt;Node8</title>
<g id="a_edge9_Node000003_Node000008"><a xlink:title=" ">
<path fill="none" stroke="#63b8ff" d="M409.72,-172.16C424.54,-163.08 448.38,-149.93 471,-143.71 582.93,-112.95 615.41,-124.71 731.5,-124.71 731.5,-124.71 731.5,-124.71 938,-124.71 1054.68,-124.71 1189.57,-137.88 1271.28,-147.32"/>
<polygon fill="#63b8ff" stroke="#63b8ff" points="1271.13,-150.83 1281.47,-148.51 1271.94,-143.87 1271.13,-150.83"/>
</a>
</g>
</g>
<!-- Node9 -->
<g id="Node000009" class="node">
<title>Node9</title>
<g id="a_Node000009"><a xlink:href="class_bit_vector.html#a93ab8bc2ec39bf299ae28ffcad504b41" target="_top" xlink:title="Give the coords of the first bit of an element.">
<polygon fill="white" stroke="#666666" points="605,-253.21 471,-253.21 471,-234.21 605,-234.21 605,-253.21"/>
<text text-anchor="middle" x="538" y="-241.21" font-family="Helvetica,sans-Serif" font-size="10.00">BitVector::indexElement</text>
</a>
</g>
</g>
<!-- Node3&#45;&gt;Node9 -->
<g id="edge11_Node000003_Node000009" class="edge">
<title>Node3&#45;&gt;Node9</title>
<g id="a_edge11_Node000003_Node000009"><a xlink:title=" ">
<path fill="none" stroke="#63b8ff" d="M416.88,-191.26C440.57,-201.61 478.59,-218.21 505.5,-229.96"/>
<polygon fill="#63b8ff" stroke="#63b8ff" points="504.3,-233.25 514.86,-234.05 507.1,-226.84 504.3,-233.25"/>
</a>
</g>
</g>
<!-- Node16 -->
<g id="Node000016" class="node">
<title>Node16</title>
<g id="a_Node000016"><a xlink:href="class_bit_vector.html#ab4d98ce4b8d36ed6af1aa46e67810972" target="_top" xlink:title="Give the last coordinates thar can be contained inside BitVector::_data with the current BitVector::_...">
<polygon fill="white" stroke="#666666" points="587,-172.21 489,-172.21 489,-153.21 587,-153.21 587,-172.21"/>
<text text-anchor="middle" x="538" y="-160.21" font-family="Helvetica,sans-Serif" font-size="10.00">BitVector::lastBit</text>
</a>
</g>
</g>
<!-- Node3&#45;&gt;Node16 -->
<g id="edge24_Node000003_Node000016" class="edge">
<title>Node3&#45;&gt;Node16</title>
<g id="a_edge24_Node000003_Node000016"><a xlink:title=" ">
<path fill="none" stroke="#63b8ff" d="M435.31,-176.32C448.84,-174.51 464.2,-172.45 478.81,-170.5"/>
<polygon fill="#63b8ff" stroke="#63b8ff" points="479.33,-173.96 488.78,-169.16 478.4,-167.02 479.33,-173.96"/>
</a>
</g>
</g>
<!-- Node17 -->
<g id="Node000017" class="node">
<title>Node17</title>
<g id="a_Node000017"><a xlink:href="class_bit_vector.html#ab92cdd9780b949d9d762f58e1ee4a0ae" target="_top" xlink:title="Last postion of the vector.">
<polygon fill="white" stroke="#666666" points="988,-172.21 886,-172.21 886,-153.21 988,-153.21 988,-172.21"/>
<text text-anchor="middle" x="937" y="-160.21" font-family="Helvetica,sans-Serif" font-size="10.00">BitVector::lastPos</text>
</a>
</g>
</g>
<!-- Node3&#45;&gt;Node17 -->
<g id="edge25_Node000003_Node000017" class="edge">
<title>Node3&#45;&gt;Node17</title>
<g id="a_edge25_Node000003_Node000017"><a xlink:title=" ">
<path fill="none" stroke="#63b8ff" d="M435.27,-182.11C477.55,-182.39 545.96,-182.46 605,-180.71 699.6,-177.91 809.25,-171.28 875.58,-166.9"/>
<polygon fill="#63b8ff" stroke="#63b8ff" points="876.1,-170.37 885.84,-166.21 875.63,-163.39 876.1,-170.37"/>
</a>
</g>
</g>
<!-- Node4&#45;&gt;Node5 -->
<g id="edge4_Node000004_Node000005" class="edge">
<title>Node4&#45;&gt;Node5</title>
<g id="a_edge4_Node000004_Node000005"><a xlink:title=" ">
<path fill="none" stroke="#63b8ff" d="M573.19,-34.16C592.87,-29.04 618.15,-23.11 641,-19.71 770.95,-0.37 804.62,-0.71 936,-0.71 936,-0.71 936,-0.71 1142,-0.71 1272.22,-0.71 1325.97,10.65 1426,-72.71 1472.64,-111.58 1492.22,-185.01 1499.19,-220.09"/>
<polygon fill="#63b8ff" stroke="#63b8ff" points="1495.77,-220.84 1501.03,-230.04 1502.66,-219.57 1495.77,-220.84"/>
</a>
</g>
</g>
<!-- Node7 -->
<g id="Node000007" class="node">
<title>Node7</title>
<g id="a_Node000007"><a xlink:href="class_bit_vector_1_1_coords.html#a393207c752f8f9121aca38c938914154" target="_top" xlink:title="Get Coords::bit .">
<polygon fill="white" stroke="#666666" points="786,-58.71 679,-58.71 679,-28.71 786,-28.71 786,-58.71"/>
<text text-anchor="start" x="687" y="-46.71" font-family="Helvetica,sans-Serif" font-size="10.00">BitVector::Coords::</text>
<text text-anchor="middle" x="732.5" y="-35.71" font-family="Helvetica,sans-Serif" font-size="10.00">getBit</text>
</a>
</g>
</g>
<!-- Node4&#45;&gt;Node7 -->
<g id="edge7_Node000004_Node000007" class="edge">
<title>Node4&#45;&gt;Node7</title>
<g id="a_edge7_Node000004_Node000007"><a xlink:title=" ">
<path fill="none" stroke="#63b8ff" d="M592.62,-43.71C616.18,-43.71 644,-43.71 668.54,-43.71"/>
<polygon fill="#63b8ff" stroke="#63b8ff" points="668.83,-47.21 678.83,-43.71 668.83,-40.21 668.83,-47.21"/>
</a>
</g>
</g>
<!-- Node5&#45;&gt;Node5 -->
<g id="edge5_Node000005_Node000005" class="edge">
<title>Node5&#45;&gt;Node5</title>
<g id="a_edge5_Node000005_Node000005"><a xlink:title=" ">
<path fill="none" stroke="#63b8ff" d="M1483.46,-249.29C1473.72,-257.94 1480.39,-267.21 1503.5,-267.21 1518.3,-267.21 1526.36,-263.41 1527.68,-258.4"/>
<polygon fill="#63b8ff" stroke="#63b8ff" points="1530.86,-256.94 1523.54,-249.29 1524.49,-259.84 1530.86,-256.94"/>
</a>
</g>
</g>
<!-- Node6 -->
<g id="Node000006" class="node">
<title>Node6</title>
<g id="a_Node000006"><a xlink:href="class_bit_vector_1_1_coords.html#a2892f7f46c4af93f9733e312229d8ec1" target="_top" xlink:title="Get Coords::octet .">
<polygon fill="white" stroke="#666666" points="1688,-254.71 1581,-254.71 1581,-224.71 1688,-224.71 1688,-254.71"/>
<text text-anchor="start" x="1589" y="-242.71" font-family="Helvetica,sans-Serif" font-size="10.00">BitVector::Coords::</text>
<text text-anchor="middle" x="1634.5" y="-231.71" font-family="Helvetica,sans-Serif" font-size="10.00">getOctet</text>
</a>
</g>
</g>
<!-- Node5&#45;&gt;Node6 -->
<g id="edge6_Node000005_Node000006" class="edge">
<title>Node5&#45;&gt;Node6</title>
<g id="a_edge6_Node000005_Node000006"><a xlink:title=" ">
<path fill="none" stroke="#63b8ff" d="M1545.32,-239.71C1553.38,-239.71 1562.02,-239.71 1570.62,-239.71"/>
<polygon fill="#63b8ff" stroke="#63b8ff" points="1570.66,-243.21 1580.66,-239.71 1570.66,-236.21 1570.66,-243.21"/>
</a>
</g>
</g>
<!-- Node8&#45;&gt;Node5 -->
<g id="edge10_Node000008_Node000005" class="edge">
<title>Node8&#45;&gt;Node5</title>
<g id="a_edge10_Node000008_Node000005"><a xlink:title=" ">
<path fill="none" stroke="#63b8ff" d="M1388.77,-166.26C1401.1,-169.93 1414.42,-174.72 1426,-180.71 1447.91,-192.06 1469.91,-209.85 1484.65,-222.93"/>
<polygon fill="#63b8ff" stroke="#63b8ff" points="1482.68,-225.87 1492.44,-230 1487.39,-220.69 1482.68,-225.87"/>
</a>
</g>
</g>
<!-- Node9&#45;&gt;Node5 -->
<g id="edge12_Node000009_Node000005" class="edge">
<title>Node9&#45;&gt;Node5</title>
<g id="a_edge12_Node000009_Node000005"><a xlink:title=" ">
<path fill="none" stroke="#63b8ff" d="M574.26,-253.25C656.7,-275.01 868.82,-327.8 1050,-345.71 1130.5,-353.67 1151.13,-347.38 1232,-345.71 1318.28,-343.93 1349.24,-377.15 1426,-337.71 1459.11,-320.7 1482.33,-282.13 1493.96,-258.77"/>
<polygon fill="#63b8ff" stroke="#63b8ff" points="1497.22,-260.05 1498.35,-249.51 1490.9,-257.05 1497.22,-260.05"/>
</a>
</g>
</g>
<!-- Node10 -->
<g id="Node000010" class="node">
<title>Node10</title>
<g id="a_Node000010"><a xlink:href="class_bit_vector.html#a04e6d0b67ee9b42ccec437b0176067fe" target="_top" xlink:title="Give A size_t that represent the coords of the first bit of an element.">
<polygon fill="white" stroke="#666666" points="824,-253.21 641,-253.21 641,-234.21 824,-234.21 824,-253.21"/>
<text text-anchor="middle" x="732.5" y="-241.21" font-family="Helvetica,sans-Serif" font-size="10.00">BitVector::indexElementUntreated</text>
</a>
</g>
</g>
<!-- Node9&#45;&gt;Node10 -->
<g id="edge13_Node000009_Node000010" class="edge">
<title>Node9&#45;&gt;Node10</title>
<g id="a_edge13_Node000009_Node000010"><a xlink:title=" ">
<path fill="none" stroke="#63b8ff" d="M605.25,-243.71C613.53,-243.71 622.15,-243.71 630.81,-243.71"/>
<polygon fill="#63b8ff" stroke="#63b8ff" points="630.99,-247.21 640.99,-243.71 630.99,-240.21 630.99,-247.21"/>
</a>
</g>
</g>
<!-- Node10&#45;&gt;Node5 -->
<g id="edge14_Node000010_Node000005" class="edge">
<title>Node10&#45;&gt;Node5</title>
<g id="a_edge14_Node000010_Node000005"><a xlink:title=" ">
<path fill="none" stroke="#63b8ff" d="M824.15,-235.67C887.39,-230.35 973.78,-223.65 1050,-219.71 1146.8,-214.71 1171.08,-215.04 1268,-213.71 1338.22,-212.74 1356.72,-202.26 1426,-213.71 1441.26,-216.23 1457.56,-221.4 1471.18,-226.47"/>
<polygon fill="#63b8ff" stroke="#63b8ff" points="1469.98,-229.76 1480.57,-230.11 1472.51,-223.24 1469.98,-229.76"/>
</a>
</g>
</g>
<!-- Node11 -->
<g id="Node000011" class="node">
<title>Node11</title>
<g id="a_Node000011"><a xlink:href="class_bit_vector.html#af68cda7444ec4459393bbfa423f0a7dd" target="_top" xlink:title="Get the Size_t value if a BitVector::CoordUnit.">
<polygon fill="white" stroke="#666666" points="1192.5,-258.71 1089.5,-258.71 1089.5,-228.71 1192.5,-228.71 1192.5,-258.71"/>
<text text-anchor="start" x="1097.5" y="-246.71" font-family="Helvetica,sans-Serif" font-size="10.00">BitVector::getSize</text>
<text text-anchor="middle" x="1141" y="-235.71" font-family="Helvetica,sans-Serif" font-size="10.00">_tUnit</text>
</a>
</g>
</g>
<!-- Node10&#45;&gt;Node11 -->
<g id="edge15_Node000010_Node000011" class="edge">
<title>Node10&#45;&gt;Node11</title>
<g id="a_edge15_Node000010_Node000011"><a xlink:title=" ">
<path fill="none" stroke="#63b8ff" d="M824.22,-243.71C902.01,-243.71 1011.91,-243.71 1079.43,-243.71"/>
<polygon fill="#63b8ff" stroke="#63b8ff" points="1079.48,-247.21 1089.48,-243.71 1079.48,-240.21 1079.48,-247.21"/>
</a>
</g>
</g>
<!-- Node10&#45;&gt;Node13 -->
<g id="edge18_Node000010_Node000013" class="edge">
<title>Node10&#45;&gt;Node13</title>
<g id="a_edge18_Node000010_Node000013"><a xlink:title=" ">
<path fill="none" stroke="#63b8ff" d="M778.44,-253.25C808.72,-259.68 848.85,-268.21 881.04,-275.04"/>
<polygon fill="#63b8ff" stroke="#63b8ff" points="880.68,-278.54 891.18,-277.19 882.13,-271.69 880.68,-278.54"/>
</a>
</g>
</g>
<!-- Node11&#45;&gt;Node8 -->
<g id="edge16_Node000011_Node000008" class="edge">
<title>Node11&#45;&gt;Node8</title>
<g id="a_edge16_Node000011_Node000008"><a xlink:title=" ">
<path fill="none" stroke="#63b8ff" d="M1177.53,-228.56C1216.1,-212.11 1277.11,-186.09 1314.16,-170.29"/>
<polygon fill="#63b8ff" stroke="#63b8ff" points="1315.66,-173.45 1323.49,-166.31 1312.92,-167.01 1315.66,-173.45"/>
</a>
</g>
</g>
<!-- Node12 -->
<g id="Node000012" class="node">
<title>Node12</title>
<g id="a_Node000012"><a xlink:href="class_bit_vector_1_1_coords.html#a3a4fac9de925974af9c8a66a1d0179e6" target="_top" xlink:title="Translate octet and bit value inside a size_t. Allow easier mathematic computations.">
<polygon fill="white" stroke="#666666" points="1400.5,-252.71 1293.5,-252.71 1293.5,-222.71 1400.5,-222.71 1400.5,-252.71"/>
<text text-anchor="start" x="1301.5" y="-240.71" font-family="Helvetica,sans-Serif" font-size="10.00">BitVector::Coords::</text>
<text text-anchor="middle" x="1347" y="-229.71" font-family="Helvetica,sans-Serif" font-size="10.00">toSize_t</text>
</a>
</g>
</g>
<!-- Node11&#45;&gt;Node12 -->
<g id="edge17_Node000011_Node000012" class="edge">
<title>Node11&#45;&gt;Node12</title>
<g id="a_edge17_Node000011_Node000012"><a xlink:title=" ">
<path fill="none" stroke="#63b8ff" d="M1192.69,-242.22C1220.13,-241.41 1254.28,-240.41 1283.38,-239.55"/>
<polygon fill="#63b8ff" stroke="#63b8ff" points="1283.55,-243.05 1293.44,-239.26 1283.34,-236.05 1283.55,-243.05"/>
</a>
</g>
</g>
<!-- Node13&#45;&gt;Node11 -->
<g id="edge19_Node000013_Node000011" class="edge">
<title>Node13&#45;&gt;Node11</title>
<g id="a_edge19_Node000013_Node000011"><a xlink:title=" ">
<path fill="none" stroke="#63b8ff" d="M982.83,-277.17C1011.25,-271.12 1048.38,-263.21 1079.41,-256.61"/>
<polygon fill="#63b8ff" stroke="#63b8ff" points="1080.2,-260.02 1089.25,-254.51 1078.74,-253.17 1080.2,-260.02"/>
</a>
</g>
</g>
<!-- Node14 -->
<g id="Node000014" class="node">
<title>Node14</title>
<g id="a_Node000014"><a xlink:href="class_bit_vector.html#a68b14af0886039ddcf55c82a250deb4c" target="_top" xlink:title="How many element can be contained in this kind of object.">
<polygon fill="white" stroke="#666666" points="1426,-300.71 1268,-300.71 1268,-270.71 1426,-270.71 1426,-300.71"/>
<text text-anchor="start" x="1276" y="-288.71" font-family="Helvetica,sans-Serif" font-size="10.00">BitVector::maximumElement</text>
<text text-anchor="middle" x="1347" y="-277.71" font-family="Helvetica,sans-Serif" font-size="10.00">Number</text>
</a>
</g>
</g>
<!-- Node13&#45;&gt;Node14 -->
<g id="edge20_Node000013_Node000014" class="edge">
<title>Node13&#45;&gt;Node14</title>
<g id="a_edge20_Node000013_Node000014"><a xlink:title=" ">
<path fill="none" stroke="#63b8ff" d="M1014.26,-286.52C1083.32,-286.35 1185.06,-286.1 1257.64,-285.93"/>
<polygon fill="#63b8ff" stroke="#63b8ff" points="1257.69,-289.43 1267.68,-285.9 1257.67,-282.43 1257.69,-289.43"/>
</a>
</g>
</g>
<!-- Node15 -->
<g id="Node000015" class="node">
<title>Node15</title>
<g id="a_Node000015"><a xlink:href="class_bit_vector.html#aa3228d2bacb1bb0f6072d73d43a49456" target="_top" xlink:title="How many octet can be contained in this kind of object.">
<polygon fill="white" stroke="#666666" points="1232,-336.21 1050,-336.21 1050,-317.21 1232,-317.21 1232,-336.21"/>
<text text-anchor="middle" x="1141" y="-324.21" font-family="Helvetica,sans-Serif" font-size="10.00">BitVector::maximumOctetNumber</text>
</a>
</g>
</g>
<!-- Node13&#45;&gt;Node15 -->
<g id="edge22_Node000013_Node000015" class="edge">
<title>Node13&#45;&gt;Node15</title>
<g id="a_edge22_Node000013_Node000015"><a xlink:title=" ">
<path fill="none" stroke="#63b8ff" d="M986.13,-296.24C1014.85,-301.93 1051.53,-309.19 1081.87,-315.2"/>
<polygon fill="#63b8ff" stroke="#63b8ff" points="1081.4,-318.67 1091.89,-317.18 1082.76,-311.81 1081.4,-318.67"/>
</a>
</g>
</g>
<!-- Node14&#45;&gt;Node5 -->
<g id="edge21_Node000014_Node000005" class="edge">
<title>Node14&#45;&gt;Node5</title>
<g id="a_edge21_Node000014_Node000005"><a xlink:title=" ">
<path fill="none" stroke="#63b8ff" d="M1398.59,-270.65C1418.67,-264.67 1441.5,-257.87 1460.63,-252.18"/>
<polygon fill="#63b8ff" stroke="#63b8ff" points="1461.68,-255.52 1470.26,-249.31 1459.68,-248.81 1461.68,-255.52"/>
</a>
</g>
</g>
<!-- Node15&#45;&gt;Node5 -->
<g id="edge23_Node000015_Node000005" class="edge">
<title>Node15&#45;&gt;Node5</title>
<g id="a_edge23_Node000015_Node000005"><a xlink:title=" ">
<path fill="none" stroke="#63b8ff" d="M1228.97,-336.22C1287.01,-339.09 1363.8,-336.04 1426,-309.71 1452.4,-298.54 1475.56,-274.18 1489.29,-257.36"/>
<polygon fill="#63b8ff" stroke="#63b8ff" points="1492.15,-259.39 1495.58,-249.36 1486.65,-255.06 1492.15,-259.39"/>
</a>
</g>
</g>
<!-- Node17&#45;&gt;Node8 -->
<g id="edge26_Node000017_Node000008" class="edge">
<title>Node17&#45;&gt;Node8</title>
<g id="a_edge26_Node000017_Node000008"><a xlink:title=" ">
<path fill="none" stroke="#63b8ff" d="M988.03,-161.97C1058.91,-160.93 1189.08,-159.02 1271.39,-157.81"/>
<polygon fill="#63b8ff" stroke="#63b8ff" points="1271.49,-161.31 1281.44,-157.66 1271.39,-154.31 1271.49,-161.31"/>
</a>
</g>
</g>
</g>
</svg>
