<?xml version="1.0" encoding="UTF-8" standalone="no"?>
<!DOCTYPE svg PUBLIC "-//W3C//DTD SVG 1.1//EN"
 "http://www.w3.org/Graphics/SVG/1.1/DTD/svg11.dtd">
<!-- Generated by graphviz version 2.43.0 (0)
 -->
<!-- Title: Sequence::insertFront Pages: 1 -->
<svg width="2132pt" height="798pt"
 viewBox="0.00 0.00 2132.00 798.00" xmlns="http://www.w3.org/2000/svg" xmlns:xlink="http://www.w3.org/1999/xlink">
<g id="graph0" class="graph" transform="scale(1 1) rotate(0) translate(4 794)">
<title>Sequence::insertFront</title>
<!-- Node1 -->
<g id="Node000001" class="node">
<title>Node1</title>
<g id="a_Node000001"><a xlink:title="Insert a number of chars at the the front of the sequence position .">
<polygon fill="#999999" stroke="#666666" points="122,-47.5 0,-47.5 0,-28.5 122,-28.5 122,-47.5"/>
<text text-anchor="middle" x="61" y="-35.5" font-family="Helvetica,sans-Serif" font-size="10.00">Sequence::insertFront</text>
</a>
</g>
</g>
<!-- Node2 -->
<g id="Node000002" class="node">
<title>Node2</title>
<g id="a_Node000002"><a xlink:href="class_sequence.html#aa48778c592160ac60319f780817f491c" target="_top" xlink:title="Insert a number of chars at the position position .">
<polygon fill="white" stroke="#666666" points="256,-156.5 158,-156.5 158,-137.5 256,-137.5 256,-156.5"/>
<text text-anchor="middle" x="207" y="-144.5" font-family="Helvetica,sans-Serif" font-size="10.00">Sequence::insert</text>
</a>
</g>
</g>
<!-- Node1&#45;&gt;Node2 -->
<g id="edge1_Node000001_Node000002" class="edge">
<title>Node1&#45;&gt;Node2</title>
<g id="a_edge1_Node000001_Node000002"><a xlink:title=" ">
<path fill="none" stroke="#63b8ff" d="M74.78,-47.67C99.59,-66.45 154.49,-108.01 184.83,-130.98"/>
<polygon fill="#63b8ff" stroke="#63b8ff" points="182.96,-133.95 193.04,-137.19 187.18,-128.37 182.96,-133.95"/>
</a>
</g>
</g>
<!-- Node9 -->
<g id="Node000009" class="node">
<title>Node9</title>
<g id="a_Node000009"><a xlink:href="class_sequence.html#acf21040958590f98163b3d11f19ea93e" target="_top" xlink:title="Give the number of element contained in this sequence.">
<polygon fill="white" stroke="#666666" points="1006.5,-28.5 917.5,-28.5 917.5,-9.5 1006.5,-9.5 1006.5,-28.5"/>
<text text-anchor="middle" x="962" y="-16.5" font-family="Helvetica,sans-Serif" font-size="10.00">Sequence::size</text>
</a>
</g>
</g>
<!-- Node1&#45;&gt;Node9 -->
<g id="edge58_Node000001_Node000009" class="edge">
<title>Node1&#45;&gt;Node9</title>
<g id="a_edge58_Node000001_Node000009"><a xlink:title=" ">
<path fill="none" stroke="#63b8ff" d="M111.08,-28.46C173.37,-17.2 284.23,0 380,0 380,0 380,0 583,0 698.55,0 833.71,-8.97 907.02,-14.58"/>
<polygon fill="#63b8ff" stroke="#63b8ff" points="907.14,-18.1 917.38,-15.38 907.68,-11.12 907.14,-18.1"/>
</a>
</g>
</g>
<!-- Node3 -->
<g id="Node000003" class="node">
<title>Node3</title>
<g id="a_Node000003"><a xlink:href="class_sequence.html#ad40777fd2f7ad3ae247fab02459e6759" target="_top" xlink:title="Retrieve the symbol at the position in the sequence.">
<polygon fill="white" stroke="#666666" points="424,-104.5 338,-104.5 338,-85.5 424,-85.5 424,-104.5"/>
<text text-anchor="middle" x="381" y="-92.5" font-family="Helvetica,sans-Serif" font-size="10.00">Sequence::get</text>
</a>
</g>
</g>
<!-- Node2&#45;&gt;Node3 -->
<g id="edge2_Node000002_Node000003" class="edge">
<title>Node2&#45;&gt;Node3</title>
<g id="a_edge2_Node000002_Node000003"><a xlink:title=" ">
<path fill="none" stroke="#63b8ff" d="M239.55,-137.46C267.34,-129.06 308.03,-116.76 338.47,-107.56"/>
<polygon fill="#63b8ff" stroke="#63b8ff" points="339.8,-110.81 348.36,-104.57 337.78,-104.11 339.8,-110.81"/>
</a>
</g>
</g>
<!-- Node7 -->
<g id="Node000007" class="node">
<title>Node7</title>
<g id="a_Node000007"><a xlink:href="class_sequence.html#a49a9126010c0332493c803ddca005394" target="_top" xlink:title="Give a map that compress / decompress char used by Sequence.">
<polygon fill="white" stroke="#666666" points="651.5,-47.5 512.5,-47.5 512.5,-28.5 651.5,-28.5 651.5,-47.5"/>
<text text-anchor="middle" x="582" y="-35.5" font-family="Helvetica,sans-Serif" font-size="10.00">Sequence::translationTab</text>
</a>
</g>
</g>
<!-- Node2&#45;&gt;Node7 -->
<g id="edge57_Node000002_Node000007" class="edge">
<title>Node2&#45;&gt;Node7</title>
<g id="a_edge57_Node000002_Node000007"><a xlink:title=" ">
<path fill="none" stroke="#63b8ff" d="M216.16,-137.35C229.98,-121.73 259.68,-91.22 292,-77 358.92,-47.56 442.29,-38.93 502.27,-36.99"/>
<polygon fill="#63b8ff" stroke="#63b8ff" points="502.53,-40.48 512.43,-36.72 502.34,-33.49 502.53,-40.48"/>
</a>
</g>
</g>
<!-- Node12 -->
<g id="Node000012" class="node">
<title>Node12</title>
<g id="a_Node000012"><a xlink:href="class_bit_vector.html#a686af396e4dff1536b7588213726c4cc" target="_top" xlink:title="Insert a number of blank position inside BitVector::_data.">
<polygon fill="white" stroke="#666666" points="470,-362.5 292,-362.5 292,-343.5 470,-343.5 470,-362.5"/>
<text text-anchor="middle" x="381" y="-350.5" font-family="Helvetica,sans-Serif" font-size="10.00">BitVector::makeRoomForElement</text>
</a>
</g>
</g>
<!-- Node2&#45;&gt;Node12 -->
<g id="edge15_Node000002_Node000012" class="edge">
<title>Node2&#45;&gt;Node12</title>
<g id="a_edge15_Node000002_Node000012"><a xlink:title=" ">
<path fill="none" stroke="#63b8ff" d="M216.07,-156.66C243.03,-188.96 330.32,-293.5 365.3,-335.4"/>
<polygon fill="#63b8ff" stroke="#63b8ff" points="362.66,-337.69 371.75,-343.12 368.03,-333.2 362.66,-337.69"/>
</a>
</g>
</g>
<!-- Node14 -->
<g id="Node000014" class="node">
<title>Node14</title>
<g id="a_Node000014"><a xlink:href="class_bit_vector.html#aca24053f655c825de0f06ec86fff1cec" target="_top" xlink:title="Replace an element by another element. Can add an element to the list if index = BitVector::_element_...">
<polygon fill="white" stroke="#666666" points="815.5,-476.5 733.5,-476.5 733.5,-457.5 815.5,-457.5 815.5,-476.5"/>
<text text-anchor="middle" x="774.5" y="-464.5" font-family="Helvetica,sans-Serif" font-size="10.00">BitVector::set</text>
</a>
</g>
</g>
<!-- Node2&#45;&gt;Node14 -->
<g id="edge56_Node000002_Node000014" class="edge">
<title>Node2&#45;&gt;Node14</title>
<g id="a_edge56_Node000002_Node000014"><a xlink:title=" ">
<path fill="none" stroke="#63b8ff" d="M208.71,-156.71C211.75,-191.24 226.72,-309.35 292,-372 411.22,-486.41 626.14,-482 723.34,-473.13"/>
<polygon fill="#63b8ff" stroke="#63b8ff" points="723.87,-476.6 733.49,-472.15 723.2,-469.63 723.87,-476.6"/>
</a>
</g>
</g>
<!-- Node27 -->
<g id="Node000027" class="node">
<title>Node27</title>
<g id="a_Node000027"><a xlink:href="class_bit_vector.html#a87f84edf5dd56606b26e8741ba6ced02" target="_top" xlink:title="Remove a number of element from the vector.">
<polygon fill="white" stroke="#666666" points="634,-218.5 530,-218.5 530,-199.5 634,-199.5 634,-218.5"/>
<text text-anchor="middle" x="582" y="-206.5" font-family="Helvetica,sans-Serif" font-size="10.00">BitVector::remove</text>
</a>
</g>
</g>
<!-- Node2&#45;&gt;Node27 -->
<g id="edge43_Node000002_Node000027" class="edge">
<title>Node2&#45;&gt;Node27</title>
<g id="a_edge43_Node000002_Node000027"><a xlink:title=" ">
<path fill="none" stroke="#63b8ff" d="M256.38,-155.04C323.78,-166.24 445.93,-186.55 519.65,-198.8"/>
<polygon fill="#63b8ff" stroke="#63b8ff" points="519.28,-202.29 529.72,-200.48 520.42,-195.38 519.28,-202.29"/>
</a>
</g>
</g>
<!-- Node3&#45;&gt;Node3 -->
<g id="edge6_Node000003_Node000003" class="edge">
<title>Node3&#45;&gt;Node3</title>
<g id="a_edge6_Node000003_Node000003"><a xlink:title=" ">
<path fill="none" stroke="#63b8ff" d="M354.18,-104.58C341.13,-113.23 350.07,-122.5 381,-122.5 401.78,-122.5 412.63,-118.32 413.56,-112.95"/>
<polygon fill="#63b8ff" stroke="#63b8ff" points="416.36,-110.85 407.82,-104.58 410.59,-114.81 416.36,-110.85"/>
</a>
</g>
</g>
<!-- Node4 -->
<g id="Node000004" class="node">
<title>Node4</title>
<g id="a_Node000004"><a xlink:href="class_bit_vector.html#aebe159444eb9d619959b7325ac5dac2d" target="_top" xlink:title="Return the value of the bit at the position coord.">
<polygon fill="white" stroke="#666666" points="1981,-465.5 1898,-465.5 1898,-446.5 1981,-446.5 1981,-465.5"/>
<text text-anchor="middle" x="1939.5" y="-453.5" font-family="Helvetica,sans-Serif" font-size="10.00">BitVector::get</text>
</a>
</g>
</g>
<!-- Node3&#45;&gt;Node4 -->
<g id="edge3_Node000003_Node000004" class="edge">
<title>Node3&#45;&gt;Node4</title>
<g id="a_edge3_Node000003_Node000004"><a xlink:title=" ">
<path fill="none" stroke="#63b8ff" d="M407.23,-104.58C431.99,-113.54 471.03,-126.49 506,-133 623.17,-154.82 654.31,-152 773.5,-152 773.5,-152 773.5,-152 1578,-152 1704.75,-152 1764.79,-96.66 1862,-178 1902.49,-211.88 1928.19,-378.67 1935.99,-436.34"/>
<polygon fill="#63b8ff" stroke="#63b8ff" points="1932.53,-436.89 1937.31,-446.35 1939.47,-435.98 1932.53,-436.89"/>
</a>
</g>
</g>
<!-- Node6 -->
<g id="Node000006" class="node">
<title>Node6</title>
<g id="a_Node000006"><a xlink:href="class_sequence.html#a8181f024304b3fb5f55c7118f648cc61" target="_top" xlink:title="Return a char (same format as Sequence::getType()) that indicate which alphabet is used in the during...">
<polygon fill="white" stroke="#666666" points="658,-123.5 506,-123.5 506,-104.5 658,-104.5 658,-123.5"/>
<text text-anchor="middle" x="582" y="-111.5" font-family="Helvetica,sans-Serif" font-size="10.00">Sequence::getEncodingType</text>
</a>
</g>
</g>
<!-- Node3&#45;&gt;Node6 -->
<g id="edge7_Node000003_Node000006" class="edge">
<title>Node3&#45;&gt;Node6</title>
<g id="a_edge7_Node000003_Node000006"><a xlink:title=" ">
<path fill="none" stroke="#63b8ff" d="M424.2,-99.03C445.06,-101.02 471.01,-103.5 495.76,-105.86"/>
<polygon fill="#63b8ff" stroke="#63b8ff" points="495.62,-109.36 505.91,-106.83 496.29,-102.4 495.62,-109.36"/>
</a>
</g>
</g>
<!-- Node3&#45;&gt;Node7 -->
<g id="edge8_Node000003_Node000007" class="edge">
<title>Node3&#45;&gt;Node7</title>
<g id="a_edge8_Node000003_Node000007"><a xlink:title=" ">
<path fill="none" stroke="#63b8ff" d="M394.85,-85.47C412.01,-78.02 443.35,-69.59 470,-62 483.22,-58.23 497.31,-54.12 510.84,-50.29"/>
<polygon fill="#63b8ff" stroke="#63b8ff" points="511.9,-53.63 520.58,-47.56 510.01,-46.89 511.9,-53.63"/>
</a>
</g>
</g>
<!-- Node4&#45;&gt;Node4 -->
<g id="edge4_Node000004_Node000004" class="edge">
<title>Node4&#45;&gt;Node4</title>
<g id="a_edge4_Node000004_Node000004"><a xlink:title=" ">
<path fill="none" stroke="#63b8ff" d="M1919.46,-465.58C1909.72,-474.23 1916.39,-483.5 1939.5,-483.5 1954.3,-483.5 1962.36,-479.7 1963.68,-474.69"/>
<polygon fill="#63b8ff" stroke="#63b8ff" points="1966.86,-473.23 1959.54,-465.58 1960.49,-476.13 1966.86,-473.23"/>
</a>
</g>
</g>
<!-- Node5 -->
<g id="Node000005" class="node">
<title>Node5</title>
<g id="a_Node000005"><a xlink:href="class_bit_vector_1_1_coords.html#a2892f7f46c4af93f9733e312229d8ec1" target="_top" xlink:title="Get Coords::octet .">
<polygon fill="white" stroke="#666666" points="2124,-471 2017,-471 2017,-441 2124,-441 2124,-471"/>
<text text-anchor="start" x="2025" y="-459" font-family="Helvetica,sans-Serif" font-size="10.00">BitVector::Coords::</text>
<text text-anchor="middle" x="2070.5" y="-448" font-family="Helvetica,sans-Serif" font-size="10.00">getOctet</text>
</a>
</g>
</g>
<!-- Node4&#45;&gt;Node5 -->
<g id="edge5_Node000004_Node000005" class="edge">
<title>Node4&#45;&gt;Node5</title>
<g id="a_edge5_Node000004_Node000005"><a xlink:title=" ">
<path fill="none" stroke="#63b8ff" d="M1981.32,-456C1989.38,-456 1998.02,-456 2006.62,-456"/>
<polygon fill="#63b8ff" stroke="#63b8ff" points="2006.66,-459.5 2016.66,-456 2006.66,-452.5 2006.66,-459.5"/>
</a>
</g>
</g>
<!-- Node7&#45;&gt;Node3 -->
<g id="edge14_Node000007_Node000003" class="edge">
<title>Node7&#45;&gt;Node3</title>
<g id="a_edge14_Node000007_Node000003"><a xlink:title=" ">
<path fill="none" stroke="#63b8ff" d="M568.04,-47.62C547.35,-57.25 505.58,-69.86 470,-80 458.34,-83.32 445.78,-86.8 433.91,-89.81"/>
<polygon fill="#63b8ff" stroke="#63b8ff" points="433.01,-86.43 424.13,-92.21 434.68,-93.23 433.01,-86.43"/>
</a>
</g>
</g>
<!-- Node8 -->
<g id="Node000008" class="node">
<title>Node8</title>
<g id="a_Node000008"><a xlink:href="class_sequence.html#a555c6e58957c4d07028eb5c67b1732ac" target="_top" xlink:title="Function used by Sequence::translationTab to create their compression map.">
<polygon fill="white" stroke="#666666" points="838.5,-47.5 710.5,-47.5 710.5,-28.5 838.5,-28.5 838.5,-47.5"/>
<text text-anchor="middle" x="774.5" y="-35.5" font-family="Helvetica,sans-Serif" font-size="10.00">Sequence::fillCodeMap</text>
</a>
</g>
</g>
<!-- Node7&#45;&gt;Node8 -->
<g id="edge9_Node000007_Node000008" class="edge">
<title>Node7&#45;&gt;Node8</title>
<g id="a_edge9_Node000007_Node000008"><a xlink:title=" ">
<path fill="none" stroke="#63b8ff" d="M651.51,-38C667.26,-38 684.07,-38 700.02,-38"/>
<polygon fill="#63b8ff" stroke="#63b8ff" points="700.36,-41.5 710.36,-38 700.36,-34.5 700.36,-41.5"/>
</a>
</g>
</g>
<!-- Node8&#45;&gt;Node3 -->
<g id="edge10_Node000008_Node000003" class="edge">
<title>Node8&#45;&gt;Node3</title>
<g id="a_edge10_Node000008_Node000003"><a xlink:title=" ">
<path fill="none" stroke="#63b8ff" d="M717.44,-47.52C698.57,-50.65 677.39,-54.07 658,-57 580.11,-68.77 489.62,-80.94 434.08,-88.24"/>
<polygon fill="#63b8ff" stroke="#63b8ff" points="433.59,-84.78 424.13,-89.55 434.5,-91.72 433.59,-84.78"/>
</a>
</g>
</g>
<!-- Node8&#45;&gt;Node9 -->
<g id="edge11_Node000008_Node000009" class="edge">
<title>Node8&#45;&gt;Node9</title>
<g id="a_edge11_Node000008_Node000009"><a xlink:title=" ">
<path fill="none" stroke="#63b8ff" d="M838.56,-31.54C860.86,-29.26 885.71,-26.71 907.17,-24.51"/>
<polygon fill="#63b8ff" stroke="#63b8ff" points="907.81,-27.97 917.4,-23.47 907.1,-21 907.81,-27.97"/>
</a>
</g>
</g>
<!-- Node10 -->
<g id="Node000010" class="node">
<title>Node10</title>
<g id="a_Node000010"><a xlink:href="class_bit_vector.html#ab30ea2b408107e4e6bc8095b5a64a1dd" target="_top" xlink:title="Number of element inside this object.">
<polygon fill="white" stroke="#666666" points="1203.5,-28.5 1117.5,-28.5 1117.5,-9.5 1203.5,-9.5 1203.5,-28.5"/>
<text text-anchor="middle" x="1160.5" y="-16.5" font-family="Helvetica,sans-Serif" font-size="10.00">BitVector::size</text>
</a>
</g>
</g>
<!-- Node9&#45;&gt;Node10 -->
<g id="edge12_Node000009_Node000010" class="edge">
<title>Node9&#45;&gt;Node10</title>
<g id="a_edge12_Node000009_Node000010"><a xlink:title=" ">
<path fill="none" stroke="#63b8ff" d="M1006.61,-19C1036.27,-19 1075.68,-19 1107.05,-19"/>
<polygon fill="#63b8ff" stroke="#63b8ff" points="1107.36,-22.5 1117.36,-19 1107.36,-15.5 1107.36,-22.5"/>
</a>
</g>
</g>
<!-- Node11 -->
<g id="Node000011" class="node">
<title>Node11</title>
<g id="a_Node000011"><a xlink:href="class_bit_vector.html#a5339660cfb315ab5de7f78bdf5af4ce1" target="_top" xlink:title="Get BitVector::_element_number.">
<polygon fill="white" stroke="#666666" points="1450,-28.5 1288,-28.5 1288,-9.5 1450,-9.5 1450,-28.5"/>
<text text-anchor="middle" x="1369" y="-16.5" font-family="Helvetica,sans-Serif" font-size="10.00">BitVector::getElementNumber</text>
</a>
</g>
</g>
<!-- Node10&#45;&gt;Node11 -->
<g id="edge13_Node000010_Node000011" class="edge">
<title>Node10&#45;&gt;Node11</title>
<g id="a_edge13_Node000010_Node000011"><a xlink:title=" ">
<path fill="none" stroke="#63b8ff" d="M1203.54,-19C1224.88,-19 1251.68,-19 1277.42,-19"/>
<polygon fill="#63b8ff" stroke="#63b8ff" points="1277.6,-22.5 1287.6,-19 1277.6,-15.5 1277.6,-22.5"/>
</a>
</g>
</g>
<!-- Node12&#45;&gt;Node4 -->
<g id="edge40_Node000012_Node000004" class="edge">
<title>Node12&#45;&gt;Node4</title>
<g id="a_edge40_Node000012_Node000004"><a xlink:title=" ">
<path fill="none" stroke="#63b8ff" d="M470.06,-350.09C482.14,-349.71 494.37,-349.34 506,-349 677.1,-344.02 719.87,-342.8 891,-339 1106.73,-334.2 1674.67,-224.91 1862,-332 1901.92,-354.82 1923.72,-407.75 1933,-436.53"/>
<polygon fill="#63b8ff" stroke="#63b8ff" points="1929.7,-437.71 1935.96,-446.26 1936.4,-435.68 1929.7,-437.71"/>
</a>
</g>
</g>
<!-- Node13 -->
<g id="Node000013" class="node">
<title>Node13</title>
<g id="a_Node000013"><a xlink:href="class_bit_vector.html#afbdbe8a5003f5941ffd5ab095cf87d88" target="_top" xlink:title="Add an element at the end of the vector.">
<polygon fill="white" stroke="#666666" points="633.5,-400.5 530.5,-400.5 530.5,-381.5 633.5,-381.5 633.5,-400.5"/>
<text text-anchor="middle" x="582" y="-388.5" font-family="Helvetica,sans-Serif" font-size="10.00">BitVector::append</text>
</a>
</g>
</g>
<!-- Node12&#45;&gt;Node13 -->
<g id="edge16_Node000012_Node000013" class="edge">
<title>Node12&#45;&gt;Node13</title>
<g id="a_edge16_Node000012_Node000013"><a xlink:title=" ">
<path fill="none" stroke="#63b8ff" d="M431.96,-362.54C459.05,-367.71 492.71,-374.14 521.18,-379.58"/>
<polygon fill="#63b8ff" stroke="#63b8ff" points="520.54,-383.02 531.02,-381.46 521.85,-376.14 520.54,-383.02"/>
</a>
</g>
</g>
<!-- Node12&#45;&gt;Node14 -->
<g id="edge42_Node000012_Node000014" class="edge">
<title>Node12&#45;&gt;Node14</title>
<g id="a_edge42_Node000012_Node000014"><a xlink:title=" ">
<path fill="none" stroke="#63b8ff" d="M399.57,-362.59C423.15,-375.1 466.65,-396.94 506,-410 579.88,-434.52 668.83,-451.01 723.26,-459.7"/>
<polygon fill="#63b8ff" stroke="#63b8ff" points="722.92,-463.19 733.34,-461.28 724,-456.27 722.92,-463.19"/>
</a>
</g>
</g>
<!-- Node22 -->
<g id="Node000022" class="node">
<title>Node22</title>
<g id="a_Node000022"><a xlink:href="class_bit_vector.html#ad36e7d0b4b1417ca434414fa40c72eb8" target="_top" xlink:title="How many element can be contained in this object knowing BitVector::_element_size.">
<polygon fill="white" stroke="#666666" points="1446,-475.5 1292,-475.5 1292,-456.5 1446,-456.5 1446,-475.5"/>
<text text-anchor="middle" x="1369" y="-463.5" font-family="Helvetica,sans-Serif" font-size="10.00">BitVector::maxElementLimit</text>
</a>
</g>
</g>
<!-- Node12&#45;&gt;Node22 -->
<g id="edge41_Node000012_Node000022" class="edge">
<title>Node12&#45;&gt;Node22</title>
<g id="a_edge41_Node000012_Node000022"><a xlink:title=" ">
<path fill="none" stroke="#63b8ff" d="M470.24,-353C549.59,-353 669.34,-353 773.5,-353 773.5,-353 773.5,-353 963,-353 1092.13,-353 1131.25,-337.24 1252,-383 1291.45,-397.95 1329.77,-429.77 1350.99,-449.38"/>
<polygon fill="#63b8ff" stroke="#63b8ff" points="1348.83,-452.15 1358.5,-456.47 1353.64,-447.06 1348.83,-452.15"/>
</a>
</g>
</g>
<!-- Node13&#45;&gt;Node14 -->
<g id="edge17_Node000013_Node000014" class="edge">
<title>Node13&#45;&gt;Node14</title>
<g id="a_edge17_Node000013_Node000014"><a xlink:title=" ">
<path fill="none" stroke="#63b8ff" d="M615.77,-400.6C629,-404.71 644.34,-409.76 658,-415 688.18,-426.58 721.78,-442.01 744.93,-453.04"/>
<polygon fill="#63b8ff" stroke="#63b8ff" points="743.64,-456.31 754.17,-457.48 746.67,-450 743.64,-456.31"/>
</a>
</g>
</g>
<!-- Node14&#45;&gt;Node4 -->
<g id="edge21_Node000014_Node000004" class="edge">
<title>Node14&#45;&gt;Node4</title>
<g id="a_edge21_Node000014_Node000004"><a xlink:title=" ">
<path fill="none" stroke="#63b8ff" d="M789.03,-476.68C837,-510 1004.41,-618 1159.5,-618 1159.5,-618 1159.5,-618 1578,-618 1705.07,-618 1755.4,-654.17 1862,-585 1901.7,-559.24 1923.59,-505.02 1932.95,-475.75"/>
<polygon fill="#63b8ff" stroke="#63b8ff" points="1936.39,-476.44 1935.93,-465.86 1929.69,-474.42 1936.39,-476.44"/>
</a>
</g>
</g>
<!-- Node15 -->
<g id="Node000015" class="node">
<title>Node15</title>
<g id="a_Node000015"><a xlink:href="class_bit_vector.html#a8c3c1f0faa0bbf35638c7217a841cbd8" target="_top" xlink:title=" ">
<polygon fill="white" stroke="#666666" points="1016.5,-741.5 907.5,-741.5 907.5,-722.5 1016.5,-722.5 1016.5,-741.5"/>
<text text-anchor="middle" x="962" y="-729.5" font-family="Helvetica,sans-Serif" font-size="10.00">BitVector::copyBits</text>
</a>
</g>
</g>
<!-- Node14&#45;&gt;Node15 -->
<g id="edge18_Node000014_Node000015" class="edge">
<title>Node14&#45;&gt;Node15</title>
<g id="a_edge18_Node000014_Node000015"><a xlink:title=" ">
<path fill="none" stroke="#63b8ff" d="M777.38,-476.91C784.81,-513.28 815.43,-640.77 891,-708 895.55,-712.05 900.82,-715.42 906.38,-718.23"/>
<polygon fill="#63b8ff" stroke="#63b8ff" points="905.37,-721.61 915.94,-722.44 908.19,-715.2 905.37,-721.61"/>
</a>
</g>
</g>
<!-- Node17 -->
<g id="Node000017" class="node">
<title>Node17</title>
<g id="a_Node000017"><a xlink:href="class_bit_vector.html#a115789c8a9812eabb52f8843cd4e9965" target="_top" xlink:title="Give the a coord object that represent the size of 1 element inside BitVector::_data.">
<polygon fill="white" stroke="#666666" points="1848.5,-665.5 1717.5,-665.5 1717.5,-646.5 1848.5,-646.5 1848.5,-665.5"/>
<text text-anchor="middle" x="1783" y="-653.5" font-family="Helvetica,sans-Serif" font-size="10.00">BitVector::getCoordUnit</text>
</a>
</g>
</g>
<!-- Node14&#45;&gt;Node17 -->
<g id="edge22_Node000014_Node000017" class="edge">
<title>Node14&#45;&gt;Node17</title>
<g id="a_edge22_Node000014_Node000017"><a xlink:title=" ">
<path fill="none" stroke="#63b8ff" d="M778.05,-476.67C787.12,-508.91 821.02,-613.21 891,-659 991.7,-724.89 1039.16,-694 1159.5,-694 1159.5,-694 1159.5,-694 1370,-694 1488.78,-694 1626,-678.15 1708.29,-666.92"/>
<polygon fill="#63b8ff" stroke="#63b8ff" points="1708.87,-670.37 1718.29,-665.54 1707.91,-663.44 1708.87,-670.37"/>
</a>
</g>
</g>
<!-- Node18 -->
<g id="Node000018" class="node">
<title>Node18</title>
<g id="a_Node000018"><a xlink:href="class_bit_vector.html#a93ab8bc2ec39bf299ae28ffcad504b41" target="_top" xlink:title="Give the coords of the first bit of an element.">
<polygon fill="white" stroke="#666666" points="1029,-476.5 895,-476.5 895,-457.5 1029,-457.5 1029,-476.5"/>
<text text-anchor="middle" x="962" y="-464.5" font-family="Helvetica,sans-Serif" font-size="10.00">BitVector::indexElement</text>
</a>
</g>
</g>
<!-- Node14&#45;&gt;Node18 -->
<g id="edge24_Node000014_Node000018" class="edge">
<title>Node14&#45;&gt;Node18</title>
<g id="a_edge24_Node000014_Node000018"><a xlink:title=" ">
<path fill="none" stroke="#63b8ff" d="M815.75,-467C835.98,-467 861.19,-467 884.89,-467"/>
<polygon fill="#63b8ff" stroke="#63b8ff" points="884.94,-470.5 894.94,-467 884.94,-463.5 884.94,-470.5"/>
</a>
</g>
</g>
<!-- Node25 -->
<g id="Node000025" class="node">
<title>Node25</title>
<g id="a_Node000025"><a xlink:href="class_bit_vector.html#ab4d98ce4b8d36ed6af1aa46e67810972" target="_top" xlink:title="Give the last coordinates thar can be contained inside BitVector::_data with the current BitVector::_...">
<polygon fill="white" stroke="#666666" points="1209.5,-410.5 1111.5,-410.5 1111.5,-391.5 1209.5,-391.5 1209.5,-410.5"/>
<text text-anchor="middle" x="1160.5" y="-398.5" font-family="Helvetica,sans-Serif" font-size="10.00">BitVector::lastBit</text>
</a>
</g>
</g>
<!-- Node14&#45;&gt;Node25 -->
<g id="edge37_Node000014_Node000025" class="edge">
<title>Node14&#45;&gt;Node25</title>
<g id="a_edge37_Node000014_Node000025"><a xlink:title=" ">
<path fill="none" stroke="#63b8ff" d="M815.51,-460.12C883.53,-448.43 1022,-424.63 1100.94,-411.07"/>
<polygon fill="#63b8ff" stroke="#63b8ff" points="1101.94,-414.45 1111.2,-409.3 1100.75,-407.55 1101.94,-414.45"/>
</a>
</g>
</g>
<!-- Node26 -->
<g id="Node000026" class="node">
<title>Node26</title>
<g id="a_Node000026"><a xlink:href="class_bit_vector.html#ab92cdd9780b949d9d762f58e1ee4a0ae" target="_top" xlink:title="Last postion of the vector.">
<polygon fill="white" stroke="#666666" points="1420,-665.5 1318,-665.5 1318,-646.5 1420,-646.5 1420,-665.5"/>
<text text-anchor="middle" x="1369" y="-653.5" font-family="Helvetica,sans-Serif" font-size="10.00">BitVector::lastPos</text>
</a>
</g>
</g>
<!-- Node14&#45;&gt;Node26 -->
<g id="edge38_Node000014_Node000026" class="edge">
<title>Node14&#45;&gt;Node26</title>
<g id="a_edge38_Node000014_Node000026"><a xlink:title=" ">
<path fill="none" stroke="#63b8ff" d="M778.81,-476.77C789.49,-506.51 826.13,-596.12 891,-632 960.92,-670.67 1195.93,-664.72 1307.81,-659.41"/>
<polygon fill="#63b8ff" stroke="#63b8ff" points="1308.1,-662.9 1317.92,-658.92 1307.76,-655.91 1308.1,-662.9"/>
</a>
</g>
</g>
<!-- Node15&#45;&gt;Node4 -->
<g id="edge19_Node000015_Node000004" class="edge">
<title>Node15&#45;&gt;Node4</title>
<g id="a_edge19_Node000015_Node000004"><a xlink:title=" ">
<path fill="none" stroke="#63b8ff" d="M1016.72,-732C1094.28,-732 1242.14,-732 1368,-732 1368,-732 1368,-732 1578,-732 1706.74,-732 1764.91,-759.54 1862,-675 1922.5,-622.32 1935.17,-519.02 1937.81,-475.78"/>
<polygon fill="#63b8ff" stroke="#63b8ff" points="1941.31,-475.86 1938.3,-465.7 1934.32,-475.52 1941.31,-475.86"/>
</a>
</g>
</g>
<!-- Node16 -->
<g id="Node000016" class="node">
<title>Node16</title>
<g id="a_Node000016"><a xlink:href="class_bit_vector_1_1_coords.html#a393207c752f8f9121aca38c938914154" target="_top" xlink:title="Get Coords::bit .">
<polygon fill="white" stroke="#666666" points="1214,-790 1107,-790 1107,-760 1214,-760 1214,-790"/>
<text text-anchor="start" x="1115" y="-778" font-family="Helvetica,sans-Serif" font-size="10.00">BitVector::Coords::</text>
<text text-anchor="middle" x="1160.5" y="-767" font-family="Helvetica,sans-Serif" font-size="10.00">getBit</text>
</a>
</g>
</g>
<!-- Node15&#45;&gt;Node16 -->
<g id="edge20_Node000015_Node000016" class="edge">
<title>Node15&#45;&gt;Node16</title>
<g id="a_edge20_Node000015_Node000016"><a xlink:title=" ">
<path fill="none" stroke="#63b8ff" d="M1006.61,-741.54C1033.22,-747.37 1067.68,-754.91 1097.15,-761.36"/>
<polygon fill="#63b8ff" stroke="#63b8ff" points="1096.41,-764.78 1106.93,-763.5 1097.91,-757.94 1096.41,-764.78"/>
</a>
</g>
</g>
<!-- Node17&#45;&gt;Node4 -->
<g id="edge23_Node000017_Node000004" class="edge">
<title>Node17&#45;&gt;Node4</title>
<g id="a_edge23_Node000017_Node000004"><a xlink:title=" ">
<path fill="none" stroke="#63b8ff" d="M1837.2,-646.42C1846.21,-642.99 1854.92,-638.33 1862,-632 1909.51,-589.51 1928.73,-512.25 1935.41,-475.9"/>
<polygon fill="#63b8ff" stroke="#63b8ff" points="1938.93,-476.08 1937.16,-465.64 1932.03,-474.91 1938.93,-476.08"/>
</a>
</g>
</g>
<!-- Node18&#45;&gt;Node4 -->
<g id="edge25_Node000018_Node000004" class="edge">
<title>Node18&#45;&gt;Node4</title>
<g id="a_edge25_Node000018_Node000004"><a xlink:title=" ">
<path fill="none" stroke="#63b8ff" d="M982.68,-476.63C1040.38,-503.96 1214.7,-580 1368,-580 1368,-580 1368,-580 1578,-580 1704.79,-580 1750.66,-613.66 1862,-553 1894.48,-535.3 1917.92,-497.42 1929.76,-474.59"/>
<polygon fill="#63b8ff" stroke="#63b8ff" points="1932.93,-476.07 1934.24,-465.55 1926.66,-472.95 1932.93,-476.07"/>
</a>
</g>
</g>
<!-- Node19 -->
<g id="Node000019" class="node">
<title>Node19</title>
<g id="a_Node000019"><a xlink:href="class_bit_vector.html#a04e6d0b67ee9b42ccec437b0176067fe" target="_top" xlink:title="Give A size_t that represent the coords of the first bit of an element.">
<polygon fill="white" stroke="#666666" points="1252,-475.5 1069,-475.5 1069,-456.5 1252,-456.5 1252,-475.5"/>
<text text-anchor="middle" x="1160.5" y="-463.5" font-family="Helvetica,sans-Serif" font-size="10.00">BitVector::indexElementUntreated</text>
</a>
</g>
</g>
<!-- Node18&#45;&gt;Node19 -->
<g id="edge26_Node000018_Node000019" class="edge">
<title>Node18&#45;&gt;Node19</title>
<g id="a_edge26_Node000018_Node000019"><a xlink:title=" ">
<path fill="none" stroke="#63b8ff" d="M1029.25,-466.66C1038.78,-466.61 1048.76,-466.56 1058.77,-466.51"/>
<polygon fill="#63b8ff" stroke="#63b8ff" points="1058.79,-470.01 1068.77,-466.46 1058.76,-463.01 1058.79,-470.01"/>
</a>
</g>
</g>
<!-- Node19&#45;&gt;Node4 -->
<g id="edge27_Node000019_Node000004" class="edge">
<title>Node19&#45;&gt;Node4</title>
<g id="a_edge27_Node000019_Node000004"><a xlink:title=" ">
<path fill="none" stroke="#63b8ff" d="M1186.76,-475.58C1280.11,-509.46 1613.02,-616.62 1862,-523 1888.17,-513.16 1911.24,-489.85 1925.03,-473.5"/>
<polygon fill="#63b8ff" stroke="#63b8ff" points="1927.78,-475.67 1931.36,-465.7 1922.35,-471.26 1927.78,-475.67"/>
</a>
</g>
</g>
<!-- Node20 -->
<g id="Node000020" class="node">
<title>Node20</title>
<g id="a_Node000020"><a xlink:href="class_bit_vector.html#af68cda7444ec4459393bbfa423f0a7dd" target="_top" xlink:title="Get the Size_t value if a BitVector::CoordUnit.">
<polygon fill="white" stroke="#666666" points="1628.5,-438 1525.5,-438 1525.5,-408 1628.5,-408 1628.5,-438"/>
<text text-anchor="start" x="1533.5" y="-426" font-family="Helvetica,sans-Serif" font-size="10.00">BitVector::getSize</text>
<text text-anchor="middle" x="1577" y="-415" font-family="Helvetica,sans-Serif" font-size="10.00">_tUnit</text>
</a>
</g>
</g>
<!-- Node19&#45;&gt;Node20 -->
<g id="edge28_Node000019_Node000020" class="edge">
<title>Node19&#45;&gt;Node20</title>
<g id="a_edge28_Node000019_Node000020"><a xlink:title=" ">
<path fill="none" stroke="#63b8ff" d="M1223.5,-456.49C1244,-453.53 1266.95,-450.41 1288,-448 1366.32,-439.04 1456.95,-431.66 1515.3,-427.3"/>
<polygon fill="#63b8ff" stroke="#63b8ff" points="1515.74,-430.78 1525.45,-426.55 1515.22,-423.8 1515.74,-430.78"/>
</a>
</g>
</g>
<!-- Node19&#45;&gt;Node22 -->
<g id="edge31_Node000019_Node000022" class="edge">
<title>Node19&#45;&gt;Node22</title>
<g id="a_edge31_Node000019_Node000022"><a xlink:title=" ">
<path fill="none" stroke="#63b8ff" d="M1252.07,-466C1261.89,-466 1271.85,-466 1281.61,-466"/>
<polygon fill="#63b8ff" stroke="#63b8ff" points="1281.7,-469.5 1291.7,-466 1281.7,-462.5 1281.7,-469.5"/>
</a>
</g>
</g>
<!-- Node20&#45;&gt;Node17 -->
<g id="edge29_Node000020_Node000017" class="edge">
<title>Node20&#45;&gt;Node17</title>
<g id="a_edge29_Node000020_Node000017"><a xlink:title=" ">
<path fill="none" stroke="#63b8ff" d="M1628.8,-429.21C1642.68,-432.89 1656.93,-438.73 1668,-448 1696.35,-471.74 1686.63,-490.36 1704,-523 1726.3,-564.91 1755.13,-612.58 1770.75,-637.92"/>
<polygon fill="#63b8ff" stroke="#63b8ff" points="1767.81,-639.81 1776.05,-646.48 1773.76,-636.13 1767.81,-639.81"/>
</a>
</g>
</g>
<!-- Node21 -->
<g id="Node000021" class="node">
<title>Node21</title>
<g id="a_Node000021"><a xlink:href="class_bit_vector_1_1_coords.html#a3a4fac9de925974af9c8a66a1d0179e6" target="_top" xlink:title="Translate octet and bit value inside a size_t. Allow easier mathematic computations.">
<polygon fill="white" stroke="#666666" points="1836.5,-414 1729.5,-414 1729.5,-384 1836.5,-384 1836.5,-414"/>
<text text-anchor="start" x="1737.5" y="-402" font-family="Helvetica,sans-Serif" font-size="10.00">BitVector::Coords::</text>
<text text-anchor="middle" x="1783" y="-391" font-family="Helvetica,sans-Serif" font-size="10.00">toSize_t</text>
</a>
</g>
</g>
<!-- Node20&#45;&gt;Node21 -->
<g id="edge30_Node000020_Node000021" class="edge">
<title>Node20&#45;&gt;Node21</title>
<g id="a_edge30_Node000020_Node000021"><a xlink:title=" ">
<path fill="none" stroke="#63b8ff" d="M1628.69,-417.04C1656.13,-413.81 1690.28,-409.79 1719.38,-406.37"/>
<polygon fill="#63b8ff" stroke="#63b8ff" points="1719.92,-409.83 1729.44,-405.18 1719.1,-402.88 1719.92,-409.83"/>
</a>
</g>
</g>
<!-- Node22&#45;&gt;Node20 -->
<g id="edge32_Node000022_Node000020" class="edge">
<title>Node22&#45;&gt;Node20</title>
<g id="a_edge32_Node000022_Node000020"><a xlink:title=" ">
<path fill="none" stroke="#63b8ff" d="M1415.72,-456.46C1445.02,-450.34 1483.4,-442.33 1515.26,-435.68"/>
<polygon fill="#63b8ff" stroke="#63b8ff" points="1516.28,-439.04 1525.35,-433.57 1514.85,-432.19 1516.28,-439.04"/>
</a>
</g>
</g>
<!-- Node23 -->
<g id="Node000023" class="node">
<title>Node23</title>
<g id="a_Node000023"><a xlink:href="class_bit_vector.html#a68b14af0886039ddcf55c82a250deb4c" target="_top" xlink:title="How many element can be contained in this kind of object.">
<polygon fill="white" stroke="#666666" points="1862,-514 1704,-514 1704,-484 1862,-484 1862,-514"/>
<text text-anchor="start" x="1712" y="-502" font-family="Helvetica,sans-Serif" font-size="10.00">BitVector::maximumElement</text>
<text text-anchor="middle" x="1783" y="-491" font-family="Helvetica,sans-Serif" font-size="10.00">Number</text>
</a>
</g>
</g>
<!-- Node22&#45;&gt;Node23 -->
<g id="edge33_Node000022_Node000023" class="edge">
<title>Node22&#45;&gt;Node23</title>
<g id="a_edge33_Node000022_Node000023"><a xlink:title=" ">
<path fill="none" stroke="#63b8ff" d="M1420.36,-475.54C1440.68,-479.06 1464.39,-482.73 1486,-485 1555.65,-492.33 1634.92,-495.82 1693.89,-497.48"/>
<polygon fill="#63b8ff" stroke="#63b8ff" points="1693.82,-500.98 1703.91,-497.76 1694.01,-493.99 1693.82,-500.98"/>
</a>
</g>
</g>
<!-- Node24 -->
<g id="Node000024" class="node">
<title>Node24</title>
<g id="a_Node000024"><a xlink:href="class_bit_vector.html#aa3228d2bacb1bb0f6072d73d43a49456" target="_top" xlink:title="How many octet can be contained in this kind of object.">
<polygon fill="white" stroke="#666666" points="1668,-475.5 1486,-475.5 1486,-456.5 1668,-456.5 1668,-475.5"/>
<text text-anchor="middle" x="1577" y="-463.5" font-family="Helvetica,sans-Serif" font-size="10.00">BitVector::maximumOctetNumber</text>
</a>
</g>
</g>
<!-- Node22&#45;&gt;Node24 -->
<g id="edge35_Node000022_Node000024" class="edge">
<title>Node22&#45;&gt;Node24</title>
<g id="a_edge35_Node000022_Node000024"><a xlink:title=" ">
<path fill="none" stroke="#63b8ff" d="M1446.12,-466C1455.73,-466 1465.68,-466 1475.6,-466"/>
<polygon fill="#63b8ff" stroke="#63b8ff" points="1475.9,-469.5 1485.9,-466 1475.9,-462.5 1475.9,-469.5"/>
</a>
</g>
</g>
<!-- Node23&#45;&gt;Node4 -->
<g id="edge34_Node000023_Node000004" class="edge">
<title>Node23&#45;&gt;Node4</title>
<g id="a_edge34_Node000023_Node000004"><a xlink:title=" ">
<path fill="none" stroke="#63b8ff" d="M1838.04,-483.96C1856.37,-478.86 1876.62,-473.22 1894.11,-468.35"/>
<polygon fill="#63b8ff" stroke="#63b8ff" points="1895.36,-471.64 1904.06,-465.59 1893.48,-464.9 1895.36,-471.64"/>
</a>
</g>
</g>
<!-- Node24&#45;&gt;Node4 -->
<g id="edge36_Node000024_Node000004" class="edge">
<title>Node24&#45;&gt;Node4</title>
<g id="a_edge36_Node000024_Node000004"><a xlink:title=" ">
<path fill="none" stroke="#63b8ff" d="M1668.04,-463.5C1737.34,-461.58 1830.62,-458.99 1887.56,-457.41"/>
<polygon fill="#63b8ff" stroke="#63b8ff" points="1887.85,-460.91 1897.75,-457.13 1887.66,-453.91 1887.85,-460.91"/>
</a>
</g>
</g>
<!-- Node26&#45;&gt;Node17 -->
<g id="edge39_Node000026_Node000017" class="edge">
<title>Node26&#45;&gt;Node17</title>
<g id="a_edge39_Node000026_Node000017"><a xlink:title=" ">
<path fill="none" stroke="#63b8ff" d="M1420.11,-656C1491.75,-656 1623.97,-656 1707.21,-656"/>
<polygon fill="#63b8ff" stroke="#63b8ff" points="1707.37,-659.5 1717.37,-656 1707.37,-652.5 1707.37,-659.5"/>
</a>
</g>
</g>
<!-- Node27&#45;&gt;Node4 -->
<g id="edge44_Node000027_Node000004" class="edge">
<title>Node27&#45;&gt;Node4</title>
<g id="a_edge44_Node000027_Node000004"><a xlink:title=" ">
<path fill="none" stroke="#63b8ff" d="M634.01,-204.81C706.59,-199.21 843.88,-190 961,-190 961,-190 961,-190 1578,-190 1641.19,-190 1812.19,-165.13 1862,-204 1899.61,-233.35 1926.73,-382.27 1935.48,-436.34"/>
<polygon fill="#63b8ff" stroke="#63b8ff" points="1932.04,-437.04 1937.06,-446.37 1938.96,-435.94 1932.04,-437.04"/>
</a>
</g>
</g>
<!-- Node27&#45;&gt;Node14 -->
<g id="edge45_Node000027_Node000014" class="edge">
<title>Node27&#45;&gt;Node14</title>
<g id="a_edge45_Node000027_Node000014"><a xlink:title=" ">
<path fill="none" stroke="#63b8ff" d="M590.24,-218.8C618.71,-257.36 723.28,-398.98 760.36,-449.2"/>
<polygon fill="#63b8ff" stroke="#63b8ff" points="757.7,-451.5 766.46,-457.47 763.34,-447.34 757.7,-451.5"/>
</a>
</g>
</g>
<!-- Node28 -->
<g id="Node000028" class="node">
<title>Node28</title>
<g id="a_Node000028"><a xlink:href="class_bit_vector.html#ad60f42244db2c82260326605916431d3" target="_top" xlink:title="Modify the number of known element in this object.">
<polygon fill="white" stroke="#666666" points="855,-237.5 694,-237.5 694,-218.5 855,-218.5 855,-237.5"/>
<text text-anchor="middle" x="774.5" y="-225.5" font-family="Helvetica,sans-Serif" font-size="10.00">BitVector::setElementNumber</text>
</a>
</g>
</g>
<!-- Node27&#45;&gt;Node28 -->
<g id="edge46_Node000027_Node000028" class="edge">
<title>Node27&#45;&gt;Node28</title>
<g id="a_edge46_Node000027_Node000028"><a xlink:title=" ">
<path fill="none" stroke="#63b8ff" d="M634.05,-214.09C649.44,-215.63 666.8,-217.36 683.92,-219.07"/>
<polygon fill="#63b8ff" stroke="#63b8ff" points="683.65,-222.56 693.95,-220.07 684.35,-215.59 683.65,-222.56"/>
</a>
</g>
</g>
<!-- Node28&#45;&gt;Node4 -->
<g id="edge55_Node000028_Node000004" class="edge">
<title>Node28&#45;&gt;Node4</title>
<g id="a_edge55_Node000028_Node000004"><a xlink:title=" ">
<path fill="none" stroke="#63b8ff" d="M855.3,-228C932.97,-228 1054.33,-228 1159.5,-228 1159.5,-228 1159.5,-228 1578,-228 1704.53,-228 1760.84,-171.99 1862,-248 1923.15,-293.94 1935.46,-393.94 1937.91,-436.35"/>
<polygon fill="#63b8ff" stroke="#63b8ff" points="1934.42,-436.65 1938.36,-446.48 1941.41,-436.33 1934.42,-436.65"/>
</a>
</g>
</g>
<!-- Node29 -->
<g id="Node000029" class="node">
<title>Node29</title>
<g id="a_Node000029"><a xlink:href="class_bit_vector.html#ad64e921d07b9528a532477f282af135c" target="_top" xlink:title="How many element can fit in this vector without having to resize the vector ?">
<polygon fill="white" stroke="#666666" points="1033,-286 891,-286 891,-256 1033,-256 1033,-286"/>
<text text-anchor="start" x="899" y="-274" font-family="Helvetica,sans-Serif" font-size="10.00">BitVector::currentElement</text>
<text text-anchor="middle" x="962" y="-263" font-family="Helvetica,sans-Serif" font-size="10.00">Capacity</text>
</a>
</g>
</g>
<!-- Node28&#45;&gt;Node29 -->
<g id="edge47_Node000028_Node000029" class="edge">
<title>Node28&#45;&gt;Node29</title>
<g id="a_edge47_Node000028_Node000029"><a xlink:title=" ">
<path fill="none" stroke="#63b8ff" d="M816.67,-237.54C837.12,-242.28 862.48,-248.16 886.21,-253.66"/>
<polygon fill="#63b8ff" stroke="#63b8ff" points="885.73,-257.15 896.26,-255.99 887.31,-250.33 885.73,-257.15"/>
</a>
</g>
</g>
<!-- Node29&#45;&gt;Node25 -->
<g id="edge54_Node000029_Node000025" class="edge">
<title>Node29&#45;&gt;Node25</title>
<g id="a_edge54_Node000029_Node000025"><a xlink:title=" ">
<path fill="none" stroke="#63b8ff" d="M985.93,-286.17C1023.63,-311.11 1098.33,-360.53 1136.25,-385.62"/>
<polygon fill="#63b8ff" stroke="#63b8ff" points="1134.78,-388.84 1145.05,-391.44 1138.64,-383 1134.78,-388.84"/>
</a>
</g>
</g>
<!-- Node30 -->
<g id="Node000030" class="node">
<title>Node30</title>
<g id="a_Node000030"><a xlink:href="class_bit_vector.html#a5af3c70f593aac387de23c7e6e5ae57e" target="_top" xlink:title="Find the element that correspond to coord .">
<polygon fill="white" stroke="#666666" points="1234,-280.5 1087,-280.5 1087,-261.5 1234,-261.5 1234,-280.5"/>
<text text-anchor="middle" x="1160.5" y="-268.5" font-family="Helvetica,sans-Serif" font-size="10.00">BitVector::indexCoordinate</text>
</a>
</g>
</g>
<!-- Node29&#45;&gt;Node30 -->
<g id="edge48_Node000029_Node000030" class="edge">
<title>Node29&#45;&gt;Node30</title>
<g id="a_edge48_Node000029_Node000030"><a xlink:title=" ">
<path fill="none" stroke="#63b8ff" d="M1033.11,-271C1047.12,-271 1061.97,-271 1076.37,-271"/>
<polygon fill="#63b8ff" stroke="#63b8ff" points="1076.76,-274.5 1086.76,-271 1076.76,-267.5 1076.76,-274.5"/>
</a>
</g>
</g>
<!-- Node30&#45;&gt;Node4 -->
<g id="edge49_Node000030_Node000004" class="edge">
<title>Node30&#45;&gt;Node4</title>
<g id="a_edge49_Node000030_Node000004"><a xlink:title=" ">
<path fill="none" stroke="#63b8ff" d="M1234.3,-263.58C1392.33,-248.94 1760.76,-223.23 1862,-290 1912.67,-323.42 1930.33,-399.59 1936.02,-435.95"/>
<polygon fill="#63b8ff" stroke="#63b8ff" points="1932.61,-436.84 1937.47,-446.26 1939.54,-435.87 1932.61,-436.84"/>
</a>
</g>
</g>
<!-- Node31 -->
<g id="Node000031" class="node">
<title>Node31</title>
<g id="a_Node000031"><a xlink:href="class_bit_vector.html#a354c83853bc3622efa5d45efcae97286" target="_top" xlink:title="Give more detailed on BiteVector::indexCoordinate.">
<polygon fill="white" stroke="#666666" points="1442.5,-380 1295.5,-380 1295.5,-350 1442.5,-350 1442.5,-380"/>
<text text-anchor="start" x="1303.5" y="-368" font-family="Helvetica,sans-Serif" font-size="10.00">BitVector::indexCoordinate</text>
<text text-anchor="middle" x="1369" y="-357" font-family="Helvetica,sans-Serif" font-size="10.00">Untreated</text>
</a>
</g>
</g>
<!-- Node30&#45;&gt;Node31 -->
<g id="edge50_Node000030_Node000031" class="edge">
<title>Node30&#45;&gt;Node31</title>
<g id="a_edge50_Node000030_Node000031"><a xlink:title=" ">
<path fill="none" stroke="#63b8ff" d="M1182.44,-280.53C1215.87,-295.75 1281.98,-325.84 1325.59,-345.69"/>
<polygon fill="#63b8ff" stroke="#63b8ff" points="1324.25,-348.93 1334.8,-349.89 1327.15,-342.56 1324.25,-348.93"/>
</a>
</g>
</g>
<!-- Node31&#45;&gt;Node4 -->
<g id="edge51_Node000031_Node000004" class="edge">
<title>Node31&#45;&gt;Node4</title>
<g id="a_edge51_Node000031_Node000004"><a xlink:title=" ">
<path fill="none" stroke="#63b8ff" d="M1440.89,-349.98C1539.94,-332.55 1723.17,-313.45 1862,-375 1891.33,-388 1914.77,-418.16 1927.63,-437.78"/>
<polygon fill="#63b8ff" stroke="#63b8ff" points="1924.8,-439.84 1933.08,-446.45 1930.72,-436.12 1924.8,-439.84"/>
</a>
</g>
</g>
<!-- Node31&#45;&gt;Node20 -->
<g id="edge52_Node000031_Node000020" class="edge">
<title>Node31&#45;&gt;Node20</title>
<g id="a_edge52_Node000031_Node000020"><a xlink:title=" ">
<path fill="none" stroke="#63b8ff" d="M1423.32,-380.01C1451.59,-387.97 1486.44,-397.78 1515.7,-406.02"/>
<polygon fill="#63b8ff" stroke="#63b8ff" points="1514.81,-409.41 1525.39,-408.75 1516.71,-402.67 1514.81,-409.41"/>
</a>
</g>
</g>
<!-- Node31&#45;&gt;Node21 -->
<g id="edge53_Node000031_Node000021" class="edge">
<title>Node31&#45;&gt;Node21</title>
<g id="a_edge53_Node000031_Node000021"><a xlink:title=" ">
<path fill="none" stroke="#63b8ff" d="M1442.71,-371C1521.14,-377.47 1644.76,-387.67 1719.14,-393.81"/>
<polygon fill="#63b8ff" stroke="#63b8ff" points="1719.04,-397.32 1729.3,-394.65 1719.62,-390.34 1719.04,-397.32"/>
</a>
</g>
</g>
</g>
</svg>
