<?xml version="1.0" encoding="UTF-8" standalone="no"?>
<!DOCTYPE svg PUBLIC "-//W3C//DTD SVG 1.1//EN"
 "http://www.w3.org/Graphics/SVG/1.1/DTD/svg11.dtd">
<!-- Generated by graphviz version 2.43.0 (0)
 -->
<!-- Title: BitVector::clear Pages: 1 -->
<!--zoomable 409 -->

<svg id="main" version="1.1" xmlns="http://www.w3.org/2000/svg" xmlns:xlink="http://www.w3.org/1999/xlink" xml:space="preserve" onload="init(evt)">
<style type="text/css"><![CDATA[
.node, .edge {opacity: 0.7;}
.node.selected, .edge.selected {opacity: 1;}
.edge:hover path { stroke: red; }
.edge:hover polygon { stroke: red; fill: red; }
]]></style>

<defs>
  <circle id="rim" cx="0" cy="0" r="7"/>
  <circle id="rim2" cx="0" cy="0" r="3.5"/>
  <g id="zoomPlus">
    <use xlink:href="#rim" fill="#404040"><set attributeName="fill" to="#808080" begin="zoomplus.mouseover" end="zoomplus.mouseout"/></use>
    <path d="M-4,0h8M0,-4v8" fill="none" stroke="white" stroke-width="1.5" pointer-events="none"/>
  </g>
  <g id="zoomMin">
    <use xlink:href="#rim" fill="#404040"><set attributeName="fill" to="#808080" begin="zoomminus.mouseover" end="zoomminus.mouseout"/></use>
    <path d="M-4,0h8" fill="none" stroke="white" stroke-width="1.5" pointer-events="none"/>
  </g>
  <g id="arrowUp" transform="translate(30 24)">
    <use xlink:href="#rim"/>
    <path pointer-events="none" fill="none" stroke="white" stroke-width="1.5" d="M0,-3.0v7 M-2.5,-0.5L0,-3.0L2.5,-0.5"/>
  </g>
  <g id="arrowRight" transform="rotate(90) translate(36 -43)">
    <use xlink:href="#rim"/>
    <path pointer-events="none" fill="none" stroke="white" stroke-width="1.5" d="M0,-3.0v7 M-2.5,-0.5L0,-3.0L2.5,-0.5"/>
  </g>
  <g id="arrowDown" transform="rotate(180) translate(-30 -48)">
    <use xlink:href="#rim"/>
    <path pointer-events="none" fill="none" stroke="white" stroke-width="1.5" d="M0,-3.0v7 M-2.5,-0.5L0,-3.0L2.5,-0.5"/>
  </g>
  <g id="arrowLeft" transform="rotate(270) translate(-36 17)">
    <use xlink:href="#rim"/>
    <path pointer-events="none" fill="none" stroke="white" stroke-width="1.5" d="M0,-3.0v7 M-2.5,-0.5L0,-3.0L2.5,-0.5"/>
  </g>
  <g id="resetDef">
    <use xlink:href="#rim2" fill="#404040"><set attributeName="fill" to="#808080" begin="reset.mouseover" end="reset.mouseout"/></use>
  </g>
</defs>
<script type="application/ecmascript">
var viewWidth = 1490;
var viewHeight = 409;
var sectionId = 'dynsection-10';
</script>
<script type="application/ecmascript" xlink:href="svg.min.js"/>
<svg id="graph" class="graph">
<g id="viewport">
<title>BitVector::clear</title>
<!-- Node1 -->
<g id="Node000001" class="node">
<title>Node1</title>
<g id="a_Node000001"><a xlink:title="Free memory used by BitVector::_data.">
<polygon fill="#999999" stroke="#666666" points="91,-296.43 0,-296.43 0,-277.43 91,-277.43 91,-296.43"/>
<text text-anchor="middle" x="45.5" y="-284.43" font-family="Helvetica,sans-Serif" font-size="10.00">BitVector::clear</text>
</a>
</g>
</g>
<!-- Node2 -->
<g id="Node000002" class="node">
<title>Node2</title>
<g id="a_Node000002"><a xlink:href="class_bit_vector.html#a13856f33d2350c573cf2fbe587f03757" target="_top" xlink:title="Modify the length of BitVector::_data.">
<polygon fill="white" stroke="#666666" points="223,-296.43 127,-296.43 127,-277.43 223,-277.43 223,-296.43"/>
<text text-anchor="middle" x="175" y="-284.43" font-family="Helvetica,sans-Serif" font-size="10.00">BitVector::resize</text>
</a>
</g>
</g>
<!-- Node1&#45;&gt;Node2 -->
<g id="edge1_Node000001_Node000002" class="edge">
<title>Node1&#45;&gt;Node2</title>
<g id="a_edge1_Node000001_Node000002"><a xlink:title=" ">
<path fill="none" stroke="#63b8ff" d="M91.09,-286.93C99.26,-286.93 107.89,-286.93 116.38,-286.93"/>
<polygon fill="#63b8ff" stroke="#63b8ff" points="116.61,-290.43 126.61,-286.93 116.61,-283.43 116.61,-290.43"/>
</a>
</g>
</g>
<!-- Node3 -->
<g id="Node000003" class="node">
<title>Node3</title>
<g id="a_Node000003"><a xlink:href="class_bit_vector.html#aece011ed1a0d697e5f777a7c2e147fcd" target="_top" xlink:title="Free memory used by BitVector::_data.">
<polygon fill="white" stroke="#666666" points="805,-334.43 657,-334.43 657,-315.43 805,-315.43 805,-334.43"/>
<text text-anchor="middle" x="731" y="-322.43" font-family="Helvetica,sans-Serif" font-size="10.00">BitVector::_killInternalData</text>
</a>
</g>
</g>
<!-- Node2&#45;&gt;Node3 -->
<g id="edge2_Node000002_Node000003" class="edge">
<title>Node2&#45;&gt;Node3</title>
<g id="a_edge2_Node000002_Node000003"><a xlink:title=" ">
<path fill="none" stroke="#63b8ff" d="M223.27,-295.88C234.92,-297.81 247.38,-299.66 259,-300.93 394.27,-315.73 552.41,-321.43 646.72,-323.6"/>
<polygon fill="#63b8ff" stroke="#63b8ff" points="646.69,-327.11 656.77,-323.83 646.85,-320.11 646.69,-327.11"/>
</a>
</g>
</g>
<!-- Node4 -->
<g id="Node000004" class="node">
<title>Node4</title>
<g id="a_Node000004"><a xlink:href="class_bit_vector.html#aebe159444eb9d619959b7325ac5dac2d" target="_top" xlink:title="Return the value of the bit at the position coord.">
<polygon fill="white" stroke="#666666" points="1339,-220.43 1256,-220.43 1256,-201.43 1339,-201.43 1339,-220.43"/>
<text text-anchor="middle" x="1297.5" y="-208.43" font-family="Helvetica,sans-Serif" font-size="10.00">BitVector::get</text>
</a>
</g>
</g>
<!-- Node2&#45;&gt;Node4 -->
<g id="edge6_Node000002_Node000004" class="edge">
<title>Node2&#45;&gt;Node4</title>
<g id="a_edge6_Node000002_Node000004"><a xlink:title=" ">
<path fill="none" stroke="#63b8ff" d="M195.67,-296.51C212.2,-304.19 236.65,-314.68 259,-320.93 374.48,-353.21 405.59,-362.93 525.5,-362.93 525.5,-362.93 525.5,-362.93 936,-362.93 1065.49,-362.93 1108.76,-364.2 1220,-297.93 1248.79,-280.78 1272.51,-249.1 1285.56,-229.07"/>
<polygon fill="#63b8ff" stroke="#63b8ff" points="1288.57,-230.86 1290.94,-220.53 1282.65,-227.13 1288.57,-230.86"/>
</a>
</g>
</g>
<!-- Node5 -->
<g id="Node000005" class="node">
<title>Node5</title>
<g id="a_Node000005"><a xlink:href="class_bit_vector_1_1_coords.html#a2892f7f46c4af93f9733e312229d8ec1" target="_top" xlink:title="Get Coords::octet .">
<polygon fill="white" stroke="#666666" points="1482,-225.93 1375,-225.93 1375,-195.93 1482,-195.93 1482,-225.93"/>
<text text-anchor="start" x="1383" y="-213.93" font-family="Helvetica,sans-Serif" font-size="10.00">BitVector::Coords::</text>
<text text-anchor="middle" x="1428.5" y="-202.93" font-family="Helvetica,sans-Serif" font-size="10.00">getOctet</text>
</a>
</g>
</g>
<!-- Node2&#45;&gt;Node5 -->
<g id="edge7_Node000002_Node000005" class="edge">
<title>Node2&#45;&gt;Node5</title>
<g id="a_edge7_Node000002_Node000005"><a xlink:title=" ">
<path fill="none" stroke="#63b8ff" d="M185.18,-296.65C199.49,-311.17 228.63,-338.25 259,-351.93 368.81,-401.38 405.07,-400.93 525.5,-400.93 525.5,-400.93 525.5,-400.93 1142,-400.93 1261.04,-400.93 1368.28,-285.04 1409.55,-234.28"/>
<polygon fill="#63b8ff" stroke="#63b8ff" points="1412.53,-236.15 1416.03,-226.16 1407.06,-231.78 1412.53,-236.15"/>
</a>
</g>
</g>
<!-- Node6 -->
<g id="Node000006" class="node">
<title>Node6</title>
<g id="a_Node000006"><a xlink:href="class_bit_vector.html#af68cda7444ec4459393bbfa423f0a7dd" target="_top" xlink:title="Get the Size_t value if a BitVector::CoordUnit.">
<polygon fill="white" stroke="#666666" points="986.5,-166.93 883.5,-166.93 883.5,-136.93 986.5,-136.93 986.5,-166.93"/>
<text text-anchor="start" x="891.5" y="-154.93" font-family="Helvetica,sans-Serif" font-size="10.00">BitVector::getSize</text>
<text text-anchor="middle" x="935" y="-143.93" font-family="Helvetica,sans-Serif" font-size="10.00">_tUnit</text>
</a>
</g>
</g>
<!-- Node2&#45;&gt;Node6 -->
<g id="edge8_Node000002_Node000006" class="edge">
<title>Node2&#45;&gt;Node6</title>
<g id="a_edge8_Node000002_Node000006"><a xlink:title=" ">
<path fill="none" stroke="#63b8ff" d="M223.15,-284.16C268.4,-281.15 338.59,-275.59 399,-266.93 582.43,-240.61 627.55,-228.09 808,-185.93 829.43,-180.92 852.73,-174.82 873.4,-169.18"/>
<polygon fill="#63b8ff" stroke="#63b8ff" points="874.6,-172.48 883.31,-166.45 872.74,-165.73 874.6,-172.48"/>
</a>
</g>
</g>
<!-- Node9 -->
<g id="Node000009" class="node">
<title>Node9</title>
<g id="a_Node000009"><a xlink:href="class_bit_vector.html#a93ab8bc2ec39bf299ae28ffcad504b41" target="_top" xlink:title="Give the coords of the first bit of an element.">
<polygon fill="white" stroke="#666666" points="396,-258.43 262,-258.43 262,-239.43 396,-239.43 396,-258.43"/>
<text text-anchor="middle" x="329" y="-246.43" font-family="Helvetica,sans-Serif" font-size="10.00">BitVector::indexElement</text>
</a>
</g>
</g>
<!-- Node2&#45;&gt;Node9 -->
<g id="edge12_Node000002_Node000009" class="edge">
<title>Node2&#45;&gt;Node9</title>
<g id="a_edge12_Node000002_Node000009"><a xlink:title=" ">
<path fill="none" stroke="#63b8ff" d="M214.36,-277.34C234.32,-272.35 258.93,-266.2 280.13,-260.89"/>
<polygon fill="#63b8ff" stroke="#63b8ff" points="281.07,-264.27 289.92,-258.45 279.37,-257.48 281.07,-264.27"/>
</a>
</g>
</g>
<!-- Node13 -->
<g id="Node000013" class="node">
<title>Node13</title>
<g id="a_Node000013"><a xlink:href="class_bit_vector.html#aa3228d2bacb1bb0f6072d73d43a49456" target="_top" xlink:title="How many octet can be contained in this kind of object.">
<polygon fill="white" stroke="#666666" points="1026,-48.43 844,-48.43 844,-29.43 1026,-29.43 1026,-48.43"/>
<text text-anchor="middle" x="935" y="-36.43" font-family="Helvetica,sans-Serif" font-size="10.00">BitVector::maximumOctetNumber</text>
</a>
</g>
</g>
<!-- Node2&#45;&gt;Node13 -->
<g id="edge23_Node000002_Node000013" class="edge">
<title>Node2&#45;&gt;Node13</title>
<g id="a_edge23_Node000002_Node000013"><a xlink:title=" ">
<path fill="none" stroke="#63b8ff" d="M176.87,-277.34C180.31,-245.39 196.12,-142.04 259,-96.93 452.62,41.98 762.53,-2.65 883.41,-27.31"/>
<polygon fill="#63b8ff" stroke="#63b8ff" points="882.98,-30.8 893.49,-29.41 884.41,-23.95 882.98,-30.8"/>
</a>
</g>
</g>
<!-- Node14 -->
<g id="Node000014" class="node">
<title>Node14</title>
<g id="a_Node000014"><a xlink:href="class_bit_vector.html#acb362f03b29600195996f52c04940439" target="_top" xlink:title="How many octet can be contained in this object knowing BitVector::_element_size.">
<polygon fill="white" stroke="#666666" points="399,-125.43 259,-125.43 259,-106.43 399,-106.43 399,-125.43"/>
<text text-anchor="middle" x="329" y="-113.43" font-family="Helvetica,sans-Serif" font-size="10.00">BitVector::maxOctetLimit</text>
</a>
</g>
</g>
<!-- Node2&#45;&gt;Node14 -->
<g id="edge24_Node000002_Node000014" class="edge">
<title>Node2&#45;&gt;Node14</title>
<g id="a_edge24_Node000002_Node000014"><a xlink:title=" ">
<path fill="none" stroke="#63b8ff" d="M184.61,-277.24C209.38,-249.38 281.07,-168.73 312.7,-133.14"/>
<polygon fill="#63b8ff" stroke="#63b8ff" points="315.46,-135.3 319.49,-125.51 310.23,-130.65 315.46,-135.3"/>
</a>
</g>
</g>
<!-- Node3&#45;&gt;Node4 -->
<g id="edge3_Node000003_Node000004" class="edge">
<title>Node3&#45;&gt;Node4</title>
<g id="a_edge3_Node000003_Node000004"><a xlink:title=" ">
<path fill="none" stroke="#63b8ff" d="M805.25,-326.12C902.99,-325.39 1080.01,-315.89 1220,-262.93 1241.85,-254.66 1263.56,-239 1278.25,-227.02"/>
<polygon fill="#63b8ff" stroke="#63b8ff" points="1280.63,-229.59 1286.03,-220.47 1276.12,-224.23 1280.63,-229.59"/>
</a>
</g>
</g>
<!-- Node4&#45;&gt;Node4 -->
<g id="edge4_Node000004_Node000004" class="edge">
<title>Node4&#45;&gt;Node4</title>
<g id="a_edge4_Node000004_Node000004"><a xlink:title=" ">
<path fill="none" stroke="#63b8ff" d="M1277.46,-220.51C1267.72,-229.16 1274.39,-238.43 1297.5,-238.43 1312.3,-238.43 1320.36,-234.63 1321.68,-229.62"/>
<polygon fill="#63b8ff" stroke="#63b8ff" points="1324.86,-228.16 1317.54,-220.51 1318.49,-231.06 1324.86,-228.16"/>
</a>
</g>
</g>
<!-- Node4&#45;&gt;Node5 -->
<g id="edge5_Node000004_Node000005" class="edge">
<title>Node4&#45;&gt;Node5</title>
<g id="a_edge5_Node000004_Node000005"><a xlink:title=" ">
<path fill="none" stroke="#63b8ff" d="M1339.32,-210.93C1347.38,-210.93 1356.02,-210.93 1364.62,-210.93"/>
<polygon fill="#63b8ff" stroke="#63b8ff" points="1364.66,-214.43 1374.66,-210.93 1364.66,-207.43 1364.66,-214.43"/>
</a>
</g>
</g>
<!-- Node7 -->
<g id="Node000007" class="node">
<title>Node7</title>
<g id="a_Node000007"><a xlink:href="class_bit_vector.html#a115789c8a9812eabb52f8843cd4e9965" target="_top" xlink:title="Give the a coord object that represent the size of 1 element inside BitVector::_data.">
<polygon fill="white" stroke="#666666" points="1206.5,-182.43 1075.5,-182.43 1075.5,-163.43 1206.5,-163.43 1206.5,-182.43"/>
<text text-anchor="middle" x="1141" y="-170.43" font-family="Helvetica,sans-Serif" font-size="10.00">BitVector::getCoordUnit</text>
</a>
</g>
</g>
<!-- Node6&#45;&gt;Node7 -->
<g id="edge9_Node000006_Node000007" class="edge">
<title>Node6&#45;&gt;Node7</title>
<g id="a_edge9_Node000006_Node000007"><a xlink:title=" ">
<path fill="none" stroke="#63b8ff" d="M986.69,-157.15C1010.34,-159.58 1038.96,-162.53 1065.04,-165.21"/>
<polygon fill="#63b8ff" stroke="#63b8ff" points="1064.97,-168.72 1075.27,-166.26 1065.69,-161.76 1064.97,-168.72"/>
</a>
</g>
</g>
<!-- Node8 -->
<g id="Node000008" class="node">
<title>Node8</title>
<g id="a_Node000008"><a xlink:href="class_bit_vector_1_1_coords.html#a3a4fac9de925974af9c8a66a1d0179e6" target="_top" xlink:title="Translate octet and bit value inside a size_t. Allow easier mathematic computations.">
<polygon fill="white" stroke="#666666" points="1194.5,-144.93 1087.5,-144.93 1087.5,-114.93 1194.5,-114.93 1194.5,-144.93"/>
<text text-anchor="start" x="1095.5" y="-132.93" font-family="Helvetica,sans-Serif" font-size="10.00">BitVector::Coords::</text>
<text text-anchor="middle" x="1141" y="-121.93" font-family="Helvetica,sans-Serif" font-size="10.00">toSize_t</text>
</a>
</g>
</g>
<!-- Node6&#45;&gt;Node8 -->
<g id="edge11_Node000006_Node000008" class="edge">
<title>Node6&#45;&gt;Node8</title>
<g id="a_edge11_Node000006_Node000008"><a xlink:title=" ">
<path fill="none" stroke="#63b8ff" d="M986.69,-146.46C1014.13,-143.5 1048.28,-139.82 1077.38,-136.68"/>
<polygon fill="#63b8ff" stroke="#63b8ff" points="1077.87,-140.15 1087.44,-135.6 1077.12,-133.19 1077.87,-140.15"/>
</a>
</g>
</g>
<!-- Node7&#45;&gt;Node4 -->
<g id="edge10_Node000007_Node000004" class="edge">
<title>Node7&#45;&gt;Node4</title>
<g id="a_edge10_Node000007_Node000004"><a xlink:title=" ">
<path fill="none" stroke="#63b8ff" d="M1180.99,-182.52C1201.28,-187.51 1226.29,-193.66 1247.85,-198.96"/>
<polygon fill="#63b8ff" stroke="#63b8ff" points="1247.25,-202.42 1257.79,-201.41 1248.92,-195.62 1247.25,-202.42"/>
</a>
</g>
</g>
<!-- Node9&#45;&gt;Node4 -->
<g id="edge13_Node000009_Node000004" class="edge">
<title>Node9&#45;&gt;Node4</title>
<g id="a_edge13_Node000009_Node000004"><a xlink:title=" ">
<path fill="none" stroke="#63b8ff" d="M396.18,-248.93C475.5,-248.93 612.47,-248.93 730,-248.93 730,-248.93 730,-248.93 936,-248.93 1046.89,-248.93 1175.92,-230.93 1245.58,-219.7"/>
<polygon fill="#63b8ff" stroke="#63b8ff" points="1246.52,-223.09 1255.83,-218.03 1245.4,-216.19 1246.52,-223.09"/>
</a>
</g>
</g>
<!-- Node10 -->
<g id="Node000010" class="node">
<title>Node10</title>
<g id="a_Node000010"><a xlink:href="class_bit_vector.html#a04e6d0b67ee9b42ccec437b0176067fe" target="_top" xlink:title="Give A size_t that represent the coords of the first bit of an element.">
<polygon fill="white" stroke="#666666" points="618,-201.43 435,-201.43 435,-182.43 618,-182.43 618,-201.43"/>
<text text-anchor="middle" x="526.5" y="-189.43" font-family="Helvetica,sans-Serif" font-size="10.00">BitVector::indexElementUntreated</text>
</a>
</g>
</g>
<!-- Node9&#45;&gt;Node10 -->
<g id="edge14_Node000009_Node000010" class="edge">
<title>Node9&#45;&gt;Node10</title>
<g id="a_edge14_Node000009_Node000010"><a xlink:title=" ">
<path fill="none" stroke="#63b8ff" d="M362.72,-239.39C395.71,-229.77 446.78,-214.88 482.9,-204.35"/>
<polygon fill="#63b8ff" stroke="#63b8ff" points="484.05,-207.66 492.67,-201.5 482.09,-200.94 484.05,-207.66"/>
</a>
</g>
</g>
<!-- Node10&#45;&gt;Node4 -->
<g id="edge15_Node000010_Node000004" class="edge">
<title>Node10&#45;&gt;Node4</title>
<g id="a_edge15_Node000010_Node000004"><a xlink:title=" ">
<path fill="none" stroke="#63b8ff" d="M618.35,-194.17C781.1,-198.19 1117.3,-206.5 1245.4,-209.67"/>
<polygon fill="#63b8ff" stroke="#63b8ff" points="1245.62,-213.17 1255.71,-209.92 1245.79,-206.17 1245.62,-213.17"/>
</a>
</g>
</g>
<!-- Node10&#45;&gt;Node6 -->
<g id="edge16_Node000010_Node000006" class="edge">
<title>Node10&#45;&gt;Node6</title>
<g id="a_edge16_Node000010_Node000006"><a xlink:title=" ">
<path fill="none" stroke="#63b8ff" d="M618.22,-183C696.01,-175.35 805.91,-164.53 873.43,-157.89"/>
<polygon fill="#63b8ff" stroke="#63b8ff" points="873.87,-161.36 883.48,-156.9 873.18,-154.4 873.87,-161.36"/>
</a>
</g>
</g>
<!-- Node11 -->
<g id="Node000011" class="node">
<title>Node11</title>
<g id="a_Node000011"><a xlink:href="class_bit_vector.html#ad36e7d0b4b1417ca434414fa40c72eb8" target="_top" xlink:title="How many element can be contained in this object knowing BitVector::_element_size.">
<polygon fill="white" stroke="#666666" points="808,-106.43 654,-106.43 654,-87.43 808,-87.43 808,-106.43"/>
<text text-anchor="middle" x="731" y="-94.43" font-family="Helvetica,sans-Serif" font-size="10.00">BitVector::maxElementLimit</text>
</a>
</g>
</g>
<!-- Node10&#45;&gt;Node11 -->
<g id="edge17_Node000010_Node000011" class="edge">
<title>Node10&#45;&gt;Node11</title>
<g id="a_edge17_Node000010_Node000011"><a xlink:title=" ">
<path fill="none" stroke="#63b8ff" d="M548.03,-182.3C584.13,-165.36 659.08,-130.2 700.64,-110.7"/>
<polygon fill="#63b8ff" stroke="#63b8ff" points="702.15,-113.86 709.72,-106.44 699.18,-107.52 702.15,-113.86"/>
</a>
</g>
</g>
<!-- Node11&#45;&gt;Node6 -->
<g id="edge18_Node000011_Node000006" class="edge">
<title>Node11&#45;&gt;Node6</title>
<g id="a_edge18_Node000011_Node000006"><a xlink:title=" ">
<path fill="none" stroke="#63b8ff" d="M767.19,-106.51C796.4,-114.46 838.64,-125.96 873.3,-135.4"/>
<polygon fill="#63b8ff" stroke="#63b8ff" points="872.75,-138.88 883.32,-138.13 874.59,-132.12 872.75,-138.88"/>
</a>
</g>
</g>
<!-- Node12 -->
<g id="Node000012" class="node">
<title>Node12</title>
<g id="a_Node000012"><a xlink:href="class_bit_vector.html#a68b14af0886039ddcf55c82a250deb4c" target="_top" xlink:title="How many element can be contained in this kind of object.">
<polygon fill="white" stroke="#666666" points="1220,-96.93 1062,-96.93 1062,-66.93 1220,-66.93 1220,-96.93"/>
<text text-anchor="start" x="1070" y="-84.93" font-family="Helvetica,sans-Serif" font-size="10.00">BitVector::maximumElement</text>
<text text-anchor="middle" x="1141" y="-73.93" font-family="Helvetica,sans-Serif" font-size="10.00">Number</text>
</a>
</g>
</g>
<!-- Node11&#45;&gt;Node12 -->
<g id="edge19_Node000011_Node000012" class="edge">
<title>Node11&#45;&gt;Node12</title>
<g id="a_edge19_Node000011_Node000012"><a xlink:title=" ">
<path fill="none" stroke="#63b8ff" d="M808.26,-94.12C877.32,-91.59 979.06,-87.84 1051.64,-85.18"/>
<polygon fill="#63b8ff" stroke="#63b8ff" points="1051.82,-88.67 1061.68,-84.81 1051.56,-81.68 1051.82,-88.67"/>
</a>
</g>
</g>
<!-- Node11&#45;&gt;Node13 -->
<g id="edge21_Node000011_Node000013" class="edge">
<title>Node11&#45;&gt;Node13</title>
<g id="a_edge21_Node000011_Node000013"><a xlink:title=" ">
<path fill="none" stroke="#63b8ff" d="M765.36,-87.35C799.71,-77.49 853.4,-62.07 890.94,-51.29"/>
<polygon fill="#63b8ff" stroke="#63b8ff" points="891.95,-54.64 900.59,-48.52 890.02,-47.92 891.95,-54.64"/>
</a>
</g>
</g>
<!-- Node12&#45;&gt;Node4 -->
<g id="edge20_Node000012_Node000004" class="edge">
<title>Node12&#45;&gt;Node4</title>
<g id="a_edge20_Node000012_Node000004"><a xlink:title=" ">
<path fill="none" stroke="#63b8ff" d="M1204.24,-96.96C1209.8,-99.5 1215.16,-102.47 1220,-105.93 1251.81,-128.63 1275.6,-168.69 1287.66,-192.22"/>
<polygon fill="#63b8ff" stroke="#63b8ff" points="1284.53,-193.78 1292.1,-201.2 1290.8,-190.68 1284.53,-193.78"/>
</a>
</g>
</g>
<!-- Node13&#45;&gt;Node4 -->
<g id="edge22_Node000013_Node000004" class="edge">
<title>Node13&#45;&gt;Node4</title>
<g id="a_edge22_Node000013_Node000004"><a xlink:title=" ">
<path fill="none" stroke="#63b8ff" d="M979.64,-29.4C1039.29,-18.95 1147.17,-9.49 1220,-57.93 1266.65,-88.96 1286.09,-157.36 1293.09,-191.19"/>
<polygon fill="#63b8ff" stroke="#63b8ff" points="1289.69,-192.06 1295.01,-201.23 1296.57,-190.75 1289.69,-192.06"/>
</a>
</g>
</g>
<!-- Node14&#45;&gt;Node5 -->
<g id="edge25_Node000014_Node000005" class="edge">
<title>Node14&#45;&gt;Node5</title>
<g id="a_edge25_Node000014_Node000005"><a xlink:title=" ">
<path fill="none" stroke="#63b8ff" d="M349,-106.32C405.48,-78.68 577.9,-0.93 730,-0.93 730,-0.93 730,-0.93 1142,-0.93 1266.73,-0.93 1372.94,-132.61 1411.75,-187.42"/>
<polygon fill="#63b8ff" stroke="#63b8ff" points="1409.02,-189.62 1417.6,-195.83 1414.76,-185.62 1409.02,-189.62"/>
</a>
</g>
</g>
<!-- Node15 -->
<g id="Node000015" class="node">
<title>Node15</title>
<g id="a_Node000015"><a xlink:href="class_bit_vector.html#a214e556dd89acce2427a378c5520adbd" target="_top" xlink:title="Last acceptable coordinate knowing BitVector::_element_size.">
<polygon fill="white" stroke="#666666" points="608,-125.43 445,-125.43 445,-106.43 608,-106.43 608,-125.43"/>
<text text-anchor="middle" x="526.5" y="-113.43" font-family="Helvetica,sans-Serif" font-size="10.00">BitVector::MaximalCoordLimit</text>
</a>
</g>
</g>
<!-- Node14&#45;&gt;Node15 -->
<g id="edge26_Node000014_Node000015" class="edge">
<title>Node14&#45;&gt;Node15</title>
<g id="a_edge26_Node000014_Node000015"><a xlink:title=" ">
<path fill="none" stroke="#63b8ff" d="M399.2,-115.93C410.59,-115.93 422.54,-115.93 434.36,-115.93"/>
<polygon fill="#63b8ff" stroke="#63b8ff" points="434.69,-119.43 444.69,-115.93 434.69,-112.43 434.69,-119.43"/>
</a>
</g>
</g>
<!-- Node15&#45;&gt;Node6 -->
<g id="edge27_Node000015_Node000006" class="edge">
<title>Node15&#45;&gt;Node6</title>
<g id="a_edge27_Node000015_Node000006"><a xlink:title=" ">
<path fill="none" stroke="#63b8ff" d="M608.3,-123.08C686.31,-129.99 802.69,-140.3 873.16,-146.54"/>
<polygon fill="#63b8ff" stroke="#63b8ff" points="872.95,-150.03 883.22,-147.43 873.56,-143.06 872.95,-150.03"/>
</a>
</g>
</g>
<!-- Node15&#45;&gt;Node11 -->
<g id="edge28_Node000015_Node000011" class="edge">
<title>Node15&#45;&gt;Node11</title>
<g id="a_edge28_Node000015_Node000011"><a xlink:title=" ">
<path fill="none" stroke="#63b8ff" d="M608.12,-108.36C619.8,-107.27 631.87,-106.14 643.67,-105.03"/>
<polygon fill="#63b8ff" stroke="#63b8ff" points="644.31,-108.48 653.94,-104.06 643.66,-101.51 644.31,-108.48"/>
</a>
</g>
</g>
</g>
</svg>

<g id="navigator" transform="translate(0 0)" fill="#404254">
  <rect fill="#f2f5e9" fill-opacity="0.5" stroke="#606060" stroke-width=".5" x="0" y="0" width="60" height="60"/>
  <use id="zoomplus" xlink:href="#zoomPlus" x="17" y="9" onmousedown="handleZoom(evt,'in')"/>
  <use id="zoomminus" xlink:href="#zoomMin" x="42" y="9" onmousedown="handleZoom(evt,'out')"/>
  <use id="reset" xlink:href="#resetDef" x="30" y="36" onmousedown="handleReset()"/>
   <use id="arrowup" xlink:href="#arrowUp" x="0" y="0" onmousedown="handlePan(0,-1)"/>
  <use id="arrowright" xlink:href="#arrowRight" x="0" y="0" onmousedown="handlePan(1,0)"/>
  <use id="arrowdown" xlink:href="#arrowDown" x="0" y="0" onmousedown="handlePan(0,1)"/>
  <use id="arrowleft" xlink:href="#arrowLeft" x="0" y="0" onmousedown="handlePan(-1,0)"/>
</g>
<svg viewBox="0 0 15 15" width="100%" height="30px" preserveAspectRatio="xMaxYMin meet">
 <g id="arrow_out" transform="scale(0.3 0.3)">
  <a xlink:href="class_bit_vector_a673b530bb6e520f7f7fa90070e0034db_cgraph_org.svg" target="_base">
   <rect id="button" ry="5" rx="5" y="6" x="6" height="38" width="38"
        fill="#f2f5e9" fill-opacity="0.5" stroke="#606060" stroke-width="1.0"/>
   <path id="arrow"
     d="M 11.500037,31.436501 C 11.940474,20.09759 22.043105,11.32322 32.158766,21.979434 L 37.068811,17.246167 C 37.068811,17.246167 37.088388,32 37.088388,32 L 22.160133,31.978069 C 22.160133,31.978069 26.997745,27.140456 26.997745,27.140456 C 18.528582,18.264221 13.291696,25.230495 11.500037,31.436501 z"
     style="fill:#404040;"/>
  </a>
 </g>
</svg>

<style type='text/css'>
<![CDATA[
[data-mouse-over-selected='false'] { opacity: 0.7; }
[data-mouse-over-selected='true']  { opacity: 1.0; }
]]>
</style>
<script type="application/ecmascript"><![CDATA[
document.addEventListener('DOMContentLoaded', (event) => {
  highlightEdges();
  highlightAdjacentNodes();
});
]]></script>
</svg>
