<?xml version="1.0" encoding="UTF-8" standalone="no"?>
<!DOCTYPE svg PUBLIC "-//W3C//DTD SVG 1.1//EN"
 "http://www.w3.org/Graphics/SVG/1.1/DTD/svg11.dtd">
<!-- Generated by graphviz version 2.43.0 (0)
 -->
<!-- Title: FastaSequence::isCommentedPos Pages: 1 -->
<!--zoomable 140 -->

<svg id="main" version="1.1" xmlns="http://www.w3.org/2000/svg" xmlns:xlink="http://www.w3.org/1999/xlink" xml:space="preserve" onload="init(evt)">
<style type="text/css"><![CDATA[
.node, .edge {opacity: 0.7;}
.node.selected, .edge.selected {opacity: 1;}
.edge:hover path { stroke: red; }
.edge:hover polygon { stroke: red; fill: red; }
]]></style>

<defs>
  <circle id="rim" cx="0" cy="0" r="7"/>
  <circle id="rim2" cx="0" cy="0" r="3.5"/>
  <g id="zoomPlus">
    <use xlink:href="#rim" fill="#404040"><set attributeName="fill" to="#808080" begin="zoomplus.mouseover" end="zoomplus.mouseout"/></use>
    <path d="M-4,0h8M0,-4v8" fill="none" stroke="white" stroke-width="1.5" pointer-events="none"/>
  </g>
  <g id="zoomMin">
    <use xlink:href="#rim" fill="#404040"><set attributeName="fill" to="#808080" begin="zoomminus.mouseover" end="zoomminus.mouseout"/></use>
    <path d="M-4,0h8" fill="none" stroke="white" stroke-width="1.5" pointer-events="none"/>
  </g>
  <g id="arrowUp" transform="translate(30 24)">
    <use xlink:href="#rim"/>
    <path pointer-events="none" fill="none" stroke="white" stroke-width="1.5" d="M0,-3.0v7 M-2.5,-0.5L0,-3.0L2.5,-0.5"/>
  </g>
  <g id="arrowRight" transform="rotate(90) translate(36 -43)">
    <use xlink:href="#rim"/>
    <path pointer-events="none" fill="none" stroke="white" stroke-width="1.5" d="M0,-3.0v7 M-2.5,-0.5L0,-3.0L2.5,-0.5"/>
  </g>
  <g id="arrowDown" transform="rotate(180) translate(-30 -48)">
    <use xlink:href="#rim"/>
    <path pointer-events="none" fill="none" stroke="white" stroke-width="1.5" d="M0,-3.0v7 M-2.5,-0.5L0,-3.0L2.5,-0.5"/>
  </g>
  <g id="arrowLeft" transform="rotate(270) translate(-36 17)">
    <use xlink:href="#rim"/>
    <path pointer-events="none" fill="none" stroke="white" stroke-width="1.5" d="M0,-3.0v7 M-2.5,-0.5L0,-3.0L2.5,-0.5"/>
  </g>
  <g id="resetDef">
    <use xlink:href="#rim2" fill="#404040"><set attributeName="fill" to="#808080" begin="reset.mouseover" end="reset.mouseout"/></use>
  </g>
</defs>
<script type="application/ecmascript">
var viewWidth = 626;
var viewHeight = 140;
var sectionId = 'dynsection-7';
</script>
<script type="application/ecmascript" xlink:href="svg.min.js"/>
<svg id="graph" class="graph">
<g id="viewport">
<title>FastaSequence::isCommentedPos</title>
<!-- Node1 -->
<g id="Node000001" class="node">
<title>Node1</title>
<g id="a_Node000001"><a xlink:title="Do this position is commented.">
<polygon fill="#999999" stroke="#666666" points="618,-75 437,-75 437,-56 618,-56 618,-75"/>
<text text-anchor="middle" x="527.5" y="-63" font-family="Helvetica,sans-Serif" font-size="10.00">FastaSequence::isCommentedPos</text>
</a>
</g>
</g>
<!-- Node2 -->
<g id="Node000002" class="node">
<title>Node2</title>
<g id="a_Node000002"><a xlink:href="class_fasta_sequence.html#aef714753277c2a10876429e3c579ef95" target="_top" xlink:title="Add a comment to a position.">
<polygon fill="white" stroke="#666666" points="391,-132 230,-132 230,-113 391,-113 391,-132"/>
<text text-anchor="middle" x="310.5" y="-120" font-family="Helvetica,sans-Serif" font-size="10.00">FastaSequence::addComment</text>
</a>
</g>
</g>
<!-- Node1&#45;&gt;Node2 -->
<g id="edge1_Node000001_Node000002" class="edge">
<title>Node1&#45;&gt;Node2</title>
<g id="a_edge1_Node000001_Node000002"><a xlink:title=" ">
<path fill="none" stroke="#63b8ff" d="M480.8,-77.62C441.05,-88.15 384.23,-103.22 347.6,-112.93"/>
<polygon fill="#63b8ff" stroke="#63b8ff" points="481.74,-80.99 490.51,-75.04 479.95,-74.22 481.74,-80.99"/>
</a>
</g>
</g>
<!-- Node3 -->
<g id="Node000003" class="node">
<title>Node3</title>
<g id="a_Node000003"><a xlink:href="class_fasta_sequence.html#a758811b3ddc850c6cde26f4e5568eaa5" target="_top" xlink:title="Change the position of a comment. If a comment is present at new_position , The two comments are merg...">
<polygon fill="white" stroke="#666666" points="184,-75 0,-75 0,-56 184,-56 184,-75"/>
<text text-anchor="middle" x="92" y="-63" font-family="Helvetica,sans-Serif" font-size="10.00">FastaSequence::displaceComment</text>
</a>
</g>
</g>
<!-- Node1&#45;&gt;Node3 -->
<g id="edge4_Node000001_Node000003" class="edge">
<title>Node1&#45;&gt;Node3</title>
<g id="a_edge4_Node000001_Node000003"><a xlink:title=" ">
<path fill="none" stroke="#63b8ff" d="M426.81,-65.5C353.74,-65.5 255.33,-65.5 184.31,-65.5"/>
<polygon fill="#63b8ff" stroke="#63b8ff" points="426.94,-69 436.94,-65.5 426.94,-62 426.94,-69"/>
</a>
</g>
</g>
<!-- Node5 -->
<g id="Node000005" class="node">
<title>Node5</title>
<g id="a_Node000005"><a xlink:href="class_fasta_sequence.html#a519c4b4ec5de7e8c1a92de1409a7cf02" target="_top" xlink:title="Retrieve the comment at the position position.">
<polygon fill="white" stroke="#666666" points="390,-56 231,-56 231,-37 390,-37 390,-56"/>
<text text-anchor="middle" x="310.5" y="-44" font-family="Helvetica,sans-Serif" font-size="10.00">FastaSequence::getComment</text>
</a>
</g>
</g>
<!-- Node1&#45;&gt;Node5 -->
<g id="edge5_Node000001_Node000005" class="edge">
<title>Node1&#45;&gt;Node5</title>
<g id="a_edge5_Node000001_Node000005"><a xlink:title=" ">
<path fill="none" stroke="#63b8ff" d="M426.61,-56.67C414.33,-55.59 401.92,-54.49 390.02,-53.44"/>
<polygon fill="#63b8ff" stroke="#63b8ff" points="426.61,-60.19 436.88,-57.58 427.22,-53.21 426.61,-60.19"/>
</a>
</g>
</g>
<!-- Node6 -->
<g id="Node000006" class="node">
<title>Node6</title>
<g id="a_Node000006"><a xlink:href="class_fasta_sequence.html#a792b9d3fd8ace887fd7db583576c1116" target="_top" xlink:title="Remove a comment.">
<polygon fill="white" stroke="#666666" points="401,-19 220,-19 220,0 401,0 401,-19"/>
<text text-anchor="middle" x="310.5" y="-7" font-family="Helvetica,sans-Serif" font-size="10.00">FastaSequence::removeComment</text>
</a>
</g>
</g>
<!-- Node1&#45;&gt;Node6 -->
<g id="edge7_Node000001_Node000006" class="edge">
<title>Node1&#45;&gt;Node6</title>
<g id="a_edge7_Node000001_Node000006"><a xlink:title=" ">
<path fill="none" stroke="#63b8ff" d="M488.09,-52.83C463.38,-44.94 430.5,-34.91 401,-27.5 388.86,-24.45 375.69,-21.57 363.28,-19.04"/>
<polygon fill="#63b8ff" stroke="#63b8ff" points="487.22,-56.22 497.81,-55.96 489.36,-49.56 487.22,-56.22"/>
</a>
</g>
</g>
<!-- Node2&#45;&gt;Node3 -->
<g id="edge2_Node000002_Node000003" class="edge">
<title>Node2&#45;&gt;Node3</title>
<g id="a_edge2_Node000002_Node000003"><a xlink:title=" ">
<path fill="none" stroke="#63b8ff" d="M263.48,-110.38C223.45,-99.85 166.24,-84.78 129.36,-75.07"/>
<polygon fill="#63b8ff" stroke="#63b8ff" points="262.7,-113.8 273.26,-112.96 264.48,-107.03 262.7,-113.8"/>
</a>
</g>
</g>
<!-- Node4 -->
<g id="Node000004" class="node">
<title>Node4</title>
<g id="a_Node000004"><a xlink:href="class_fasta_sequence.html#acd6551e5176ac2bdaa4d228fa9b5f14f" target="_top" xlink:title="Load a number of comment from a map.">
<polygon fill="white" stroke="#666666" points="177,-132 7,-132 7,-113 177,-113 177,-132"/>
<text text-anchor="middle" x="92" y="-120" font-family="Helvetica,sans-Serif" font-size="10.00">FastaSequence::loadComments</text>
</a>
</g>
</g>
<!-- Node2&#45;&gt;Node4 -->
<g id="edge3_Node000002_Node000004" class="edge">
<title>Node2&#45;&gt;Node4</title>
<g id="a_edge3_Node000002_Node000004"><a xlink:title=" ">
<path fill="none" stroke="#63b8ff" d="M219.67,-122.5C205.63,-122.5 191.16,-122.5 177.25,-122.5"/>
<polygon fill="#63b8ff" stroke="#63b8ff" points="219.81,-126 229.81,-122.5 219.81,-119 219.81,-126"/>
</a>
</g>
</g>
<!-- Node5&#45;&gt;Node3 -->
<g id="edge6_Node000005_Node000003" class="edge">
<title>Node5&#45;&gt;Node3</title>
<g id="a_edge6_Node000005_Node000003"><a xlink:title=" ">
<path fill="none" stroke="#63b8ff" d="M220.7,-54.29C208.66,-55.35 196.29,-56.44 184.2,-57.5"/>
<polygon fill="#63b8ff" stroke="#63b8ff" points="221.07,-57.77 230.73,-53.41 220.46,-50.8 221.07,-57.77"/>
</a>
</g>
</g>
<!-- Node6&#45;&gt;Node3 -->
<g id="edge8_Node000006_Node000003" class="edge">
<title>Node6&#45;&gt;Node3</title>
<g id="a_edge8_Node000006_Node000003"><a xlink:title=" ">
<path fill="none" stroke="#63b8ff" d="M247.71,-21.15C238.4,-23.13 228.92,-25.27 220,-27.5 186.06,-35.97 147.65,-47.78 122.05,-55.98"/>
<polygon fill="#63b8ff" stroke="#63b8ff" points="248.65,-24.53 257.73,-19.07 247.23,-17.68 248.65,-24.53"/>
</a>
</g>
</g>
</g>
</svg>

<g id="navigator" transform="translate(0 0)" fill="#404254">
  <rect fill="#f2f5e9" fill-opacity="0.5" stroke="#606060" stroke-width=".5" x="0" y="0" width="60" height="60"/>
  <use id="zoomplus" xlink:href="#zoomPlus" x="17" y="9" onmousedown="handleZoom(evt,'in')"/>
  <use id="zoomminus" xlink:href="#zoomMin" x="42" y="9" onmousedown="handleZoom(evt,'out')"/>
  <use id="reset" xlink:href="#resetDef" x="30" y="36" onmousedown="handleReset()"/>
   <use id="arrowup" xlink:href="#arrowUp" x="0" y="0" onmousedown="handlePan(0,-1)"/>
  <use id="arrowright" xlink:href="#arrowRight" x="0" y="0" onmousedown="handlePan(1,0)"/>
  <use id="arrowdown" xlink:href="#arrowDown" x="0" y="0" onmousedown="handlePan(0,1)"/>
  <use id="arrowleft" xlink:href="#arrowLeft" x="0" y="0" onmousedown="handlePan(-1,0)"/>
</g>
<svg viewBox="0 0 15 15" width="100%" height="30px" preserveAspectRatio="xMaxYMin meet">
 <g id="arrow_out" transform="scale(0.3 0.3)">
  <a xlink:href="class_fasta_sequence_a2ce25dcf6751310494e59be402017036_icgraph_org.svg" target="_base">
   <rect id="button" ry="5" rx="5" y="6" x="6" height="38" width="38"
        fill="#f2f5e9" fill-opacity="0.5" stroke="#606060" stroke-width="1.0"/>
   <path id="arrow"
     d="M 11.500037,31.436501 C 11.940474,20.09759 22.043105,11.32322 32.158766,21.979434 L 37.068811,17.246167 C 37.068811,17.246167 37.088388,32 37.088388,32 L 22.160133,31.978069 C 22.160133,31.978069 26.997745,27.140456 26.997745,27.140456 C 18.528582,18.264221 13.291696,25.230495 11.500037,31.436501 z"
     style="fill:#404040;"/>
  </a>
 </g>
</svg>

<style type='text/css'>
<![CDATA[
[data-mouse-over-selected='false'] { opacity: 0.7; }
[data-mouse-over-selected='true']  { opacity: 1.0; }
]]>
</style>
<script type="application/ecmascript"><![CDATA[
document.addEventListener('DOMContentLoaded', (event) => {
  highlightEdges();
  highlightAdjacentNodes();
});
]]></script>
</svg>
