<?xml version="1.0" encoding="UTF-8" standalone="no"?>
<!DOCTYPE svg PUBLIC "-//W3C//DTD SVG 1.1//EN"
 "http://www.w3.org/Graphics/SVG/1.1/DTD/svg11.dtd">
<!-- Generated by graphviz version 2.43.0 (0)
 -->
<!-- Title: FastaSequence::loadComments Pages: 1 -->
<!--zoomable 233 -->

<svg id="main" version="1.1" xmlns="http://www.w3.org/2000/svg" xmlns:xlink="http://www.w3.org/1999/xlink" xml:space="preserve" onload="init(evt)">
<style type="text/css"><![CDATA[
.node, .edge {opacity: 0.7;}
.node.selected, .edge.selected {opacity: 1;}
.edge:hover path { stroke: red; }
.edge:hover polygon { stroke: red; fill: red; }
]]></style>

<defs>
  <circle id="rim" cx="0" cy="0" r="7"/>
  <circle id="rim2" cx="0" cy="0" r="3.5"/>
  <g id="zoomPlus">
    <use xlink:href="#rim" fill="#404040"><set attributeName="fill" to="#808080" begin="zoomplus.mouseover" end="zoomplus.mouseout"/></use>
    <path d="M-4,0h8M0,-4v8" fill="none" stroke="white" stroke-width="1.5" pointer-events="none"/>
  </g>
  <g id="zoomMin">
    <use xlink:href="#rim" fill="#404040"><set attributeName="fill" to="#808080" begin="zoomminus.mouseover" end="zoomminus.mouseout"/></use>
    <path d="M-4,0h8" fill="none" stroke="white" stroke-width="1.5" pointer-events="none"/>
  </g>
  <g id="arrowUp" transform="translate(30 24)">
    <use xlink:href="#rim"/>
    <path pointer-events="none" fill="none" stroke="white" stroke-width="1.5" d="M0,-3.0v7 M-2.5,-0.5L0,-3.0L2.5,-0.5"/>
  </g>
  <g id="arrowRight" transform="rotate(90) translate(36 -43)">
    <use xlink:href="#rim"/>
    <path pointer-events="none" fill="none" stroke="white" stroke-width="1.5" d="M0,-3.0v7 M-2.5,-0.5L0,-3.0L2.5,-0.5"/>
  </g>
  <g id="arrowDown" transform="rotate(180) translate(-30 -48)">
    <use xlink:href="#rim"/>
    <path pointer-events="none" fill="none" stroke="white" stroke-width="1.5" d="M0,-3.0v7 M-2.5,-0.5L0,-3.0L2.5,-0.5"/>
  </g>
  <g id="arrowLeft" transform="rotate(270) translate(-36 17)">
    <use xlink:href="#rim"/>
    <path pointer-events="none" fill="none" stroke="white" stroke-width="1.5" d="M0,-3.0v7 M-2.5,-0.5L0,-3.0L2.5,-0.5"/>
  </g>
  <g id="resetDef">
    <use xlink:href="#rim2" fill="#404040"><set attributeName="fill" to="#808080" begin="reset.mouseover" end="reset.mouseout"/></use>
  </g>
</defs>
<script type="application/ecmascript">
var viewWidth = 1389;
var viewHeight = 233;
var sectionId = 'dynsection-8';
</script>
<script type="application/ecmascript" xlink:href="svg.min.js"/>
<svg id="graph" class="graph">
<g id="viewport">
<title>FastaSequence::loadComments</title>
<!-- Node1 -->
<g id="Node000001" class="node">
<title>Node1</title>
<g id="a_Node000001"><a xlink:title="Load a number of comment from a map.">
<polygon fill="#999999" stroke="#666666" points="170,-95 0,-95 0,-76 170,-76 170,-95"/>
<text text-anchor="middle" x="85" y="-83" font-family="Helvetica,sans-Serif" font-size="10.00">FastaSequence::loadComments</text>
</a>
</g>
</g>
<!-- Node2 -->
<g id="Node000002" class="node">
<title>Node2</title>
<g id="a_Node000002"><a xlink:href="class_fasta_sequence.html#aef714753277c2a10876429e3c579ef95" target="_top" xlink:title="Add a comment to a position.">
<polygon fill="white" stroke="#666666" points="367,-76 206,-76 206,-57 367,-57 367,-76"/>
<text text-anchor="middle" x="286.5" y="-64" font-family="Helvetica,sans-Serif" font-size="10.00">FastaSequence::addComment</text>
</a>
</g>
</g>
<!-- Node1&#45;&gt;Node2 -->
<g id="edge1_Node000001_Node000002" class="edge">
<title>Node1&#45;&gt;Node2</title>
<g id="a_edge1_Node000001_Node000002"><a xlink:title=" ">
<path fill="none" stroke="#63b8ff" d="M170.03,-77.5C178.52,-76.69 187.18,-75.86 195.73,-75.05"/>
<polygon fill="#63b8ff" stroke="#63b8ff" points="196.09,-78.53 205.71,-74.1 195.42,-71.56 196.09,-78.53"/>
</a>
</g>
</g>
<!-- Node3 -->
<g id="Node000003" class="node">
<title>Node3</title>
<g id="a_Node000003"><a xlink:href="class_sequence.html#ad40777fd2f7ad3ae247fab02459e6759" target="_top" xlink:title="Retrieve the symbol at the position in the sequence.">
<polygon fill="white" stroke="#666666" points="536.5,-133 450.5,-133 450.5,-114 536.5,-114 536.5,-133"/>
<text text-anchor="middle" x="493.5" y="-121" font-family="Helvetica,sans-Serif" font-size="10.00">Sequence::get</text>
</a>
</g>
</g>
<!-- Node1&#45;&gt;Node3 -->
<g id="edge17_Node000001_Node000003" class="edge">
<title>Node1&#45;&gt;Node3</title>
<g id="a_edge17_Node000001_Node000003"><a xlink:title=" ">
<path fill="none" stroke="#63b8ff" d="M170.23,-93.37C251.52,-100.97 372.03,-112.24 440.31,-118.62"/>
<polygon fill="#63b8ff" stroke="#63b8ff" points="440.12,-122.12 450.4,-119.56 440.77,-115.15 440.12,-122.12"/>
</a>
</g>
</g>
<!-- Node2&#45;&gt;Node3 -->
<g id="edge2_Node000002_Node000003" class="edge">
<title>Node2&#45;&gt;Node3</title>
<g id="a_edge2_Node000002_Node000003"><a xlink:title=" ">
<path fill="none" stroke="#63b8ff" d="M321.81,-76.04C356.55,-85.7 410.41,-100.68 448.32,-111.22"/>
<polygon fill="#63b8ff" stroke="#63b8ff" points="447.5,-114.62 458.08,-113.93 449.38,-107.88 447.5,-114.62"/>
</a>
</g>
</g>
<!-- Node9 -->
<g id="Node000009" class="node">
<title>Node9</title>
<g id="a_Node000009"><a xlink:href="class_sequence.html#acf21040958590f98163b3d11f19ea93e" target="_top" xlink:title="Give the number of element contained in this sequence.">
<polygon fill="white" stroke="#666666" points="1061,-76 972,-76 972,-57 1061,-57 1061,-76"/>
<text text-anchor="middle" x="1016.5" y="-64" font-family="Helvetica,sans-Serif" font-size="10.00">Sequence::size</text>
</a>
</g>
</g>
<!-- Node2&#45;&gt;Node9 -->
<g id="edge16_Node000002_Node000009" class="edge">
<title>Node2&#45;&gt;Node9</title>
<g id="a_edge16_Node000002_Node000009"><a xlink:title=" ">
<path fill="none" stroke="#63b8ff" d="M367.14,-66.5C516.43,-66.5 834.69,-66.5 961.61,-66.5"/>
<polygon fill="#63b8ff" stroke="#63b8ff" points="961.85,-70 971.85,-66.5 961.85,-63 961.85,-70"/>
</a>
</g>
</g>
<!-- Node12 -->
<g id="Node000012" class="node">
<title>Node12</title>
<g id="a_Node000012"><a xlink:href="class_fasta_sequence.html#a2ce25dcf6751310494e59be402017036" target="_top" xlink:title="Do this position is commented.">
<polygon fill="white" stroke="#666666" points="584,-19 403,-19 403,0 584,0 584,-19"/>
<text text-anchor="middle" x="493.5" y="-7" font-family="Helvetica,sans-Serif" font-size="10.00">FastaSequence::isCommentedPos</text>
</a>
</g>
</g>
<!-- Node2&#45;&gt;Node12 -->
<g id="edge15_Node000002_Node000012" class="edge">
<title>Node2&#45;&gt;Node12</title>
<g id="a_edge15_Node000002_Node000012"><a xlink:title=" ">
<path fill="none" stroke="#63b8ff" d="M320.32,-56.97C343.41,-50.3 375.06,-41.24 403,-33.5 417.1,-29.6 432.47,-25.44 446.44,-21.7"/>
<polygon fill="#63b8ff" stroke="#63b8ff" points="447.56,-25.02 456.32,-19.06 445.75,-18.26 447.56,-25.02"/>
</a>
</g>
</g>
<!-- Node3&#45;&gt;Node3 -->
<g id="edge6_Node000003_Node000003" class="edge">
<title>Node3&#45;&gt;Node3</title>
<g id="a_edge6_Node000003_Node000003"><a xlink:title=" ">
<path fill="none" stroke="#63b8ff" d="M462.37,-133.08C447.22,-141.73 457.6,-151 493.5,-151 518.74,-151 531.37,-146.42 531.37,-140.69"/>
<polygon fill="#63b8ff" stroke="#63b8ff" points="533.89,-138.25 524.63,-133.08 528.65,-142.89 533.89,-138.25"/>
</a>
</g>
</g>
<!-- Node4 -->
<g id="Node000004" class="node">
<title>Node4</title>
<g id="a_Node000004"><a xlink:href="class_bit_vector.html#aebe159444eb9d619959b7325ac5dac2d" target="_top" xlink:title="Return the value of the bit at the position coord.">
<polygon fill="white" stroke="#666666" points="737.5,-207 654.5,-207 654.5,-188 737.5,-188 737.5,-207"/>
<text text-anchor="middle" x="696" y="-195" font-family="Helvetica,sans-Serif" font-size="10.00">BitVector::get</text>
</a>
</g>
</g>
<!-- Node3&#45;&gt;Node4 -->
<g id="edge3_Node000003_Node000004" class="edge">
<title>Node3&#45;&gt;Node4</title>
<g id="a_edge3_Node000003_Node000004"><a xlink:title=" ">
<path fill="none" stroke="#63b8ff" d="M513.2,-133.15C537.35,-145.31 580.92,-166.22 620,-179.5 627.75,-182.13 636.08,-184.54 644.26,-186.67"/>
<polygon fill="#63b8ff" stroke="#63b8ff" points="643.58,-190.11 654.13,-189.13 645.28,-183.31 643.58,-190.11"/>
</a>
</g>
</g>
<!-- Node6 -->
<g id="Node000006" class="node">
<title>Node6</title>
<g id="a_Node000006"><a xlink:href="class_sequence.html#a8181f024304b3fb5f55c7118f648cc61" target="_top" xlink:title="Return a char (same format as Sequence::getType()) that indicate which alphabet is used in the during...">
<polygon fill="white" stroke="#666666" points="772,-170 620,-170 620,-151 772,-151 772,-170"/>
<text text-anchor="middle" x="696" y="-158" font-family="Helvetica,sans-Serif" font-size="10.00">Sequence::getEncodingType</text>
</a>
</g>
</g>
<!-- Node3&#45;&gt;Node6 -->
<g id="edge7_Node000003_Node000006" class="edge">
<title>Node3&#45;&gt;Node6</title>
<g id="a_edge7_Node000003_Node000006"><a xlink:title=" ">
<path fill="none" stroke="#63b8ff" d="M536.53,-131.26C564.61,-136.44 602.02,-143.34 633.44,-149.14"/>
<polygon fill="#63b8ff" stroke="#63b8ff" points="632.94,-152.61 643.41,-150.98 634.21,-145.72 632.94,-152.61"/>
</a>
</g>
</g>
<!-- Node7 -->
<g id="Node000007" class="node">
<title>Node7</title>
<g id="a_Node000007"><a xlink:href="class_sequence.html#a49a9126010c0332493c803ddca005394" target="_top" xlink:title="Give a map that compress / decompress char used by Sequence.">
<polygon fill="white" stroke="#666666" points="765.5,-133 626.5,-133 626.5,-114 765.5,-114 765.5,-133"/>
<text text-anchor="middle" x="696" y="-121" font-family="Helvetica,sans-Serif" font-size="10.00">Sequence::translationTab</text>
</a>
</g>
</g>
<!-- Node3&#45;&gt;Node7 -->
<g id="edge8_Node000003_Node000007" class="edge">
<title>Node3&#45;&gt;Node7</title>
<g id="a_edge8_Node000003_Node000007"><a xlink:title=" ">
<path fill="none" stroke="#63b8ff" d="M536.53,-117.89C559.54,-116.87 588.82,-116.53 615.93,-116.89"/>
<polygon fill="#63b8ff" stroke="#63b8ff" points="616.14,-120.39 626.19,-117.05 616.25,-113.39 616.14,-120.39"/>
</a>
</g>
</g>
<!-- Node4&#45;&gt;Node4 -->
<g id="edge4_Node000004_Node000004" class="edge">
<title>Node4&#45;&gt;Node4</title>
<g id="a_edge4_Node000004_Node000004"><a xlink:title=" ">
<path fill="none" stroke="#63b8ff" d="M668.87,-207.08C655.68,-215.73 664.72,-225 696,-225 717.02,-225 728,-220.82 728.93,-215.45"/>
<polygon fill="#63b8ff" stroke="#63b8ff" points="731.7,-213.3 723.13,-207.08 725.95,-217.29 731.7,-213.3"/>
</a>
</g>
</g>
<!-- Node5 -->
<g id="Node000005" class="node">
<title>Node5</title>
<g id="a_Node000005"><a xlink:href="class_bit_vector_1_1_coords.html#a2892f7f46c4af93f9733e312229d8ec1" target="_top" xlink:title="Get Coords::octet .">
<polygon fill="white" stroke="#666666" points="925.5,-212.5 818.5,-212.5 818.5,-182.5 925.5,-182.5 925.5,-212.5"/>
<text text-anchor="start" x="826.5" y="-200.5" font-family="Helvetica,sans-Serif" font-size="10.00">BitVector::Coords::</text>
<text text-anchor="middle" x="872" y="-189.5" font-family="Helvetica,sans-Serif" font-size="10.00">getOctet</text>
</a>
</g>
</g>
<!-- Node4&#45;&gt;Node5 -->
<g id="edge5_Node000004_Node000005" class="edge">
<title>Node4&#45;&gt;Node5</title>
<g id="a_edge5_Node000004_Node000005"><a xlink:title=" ">
<path fill="none" stroke="#63b8ff" d="M737.8,-197.5C758.71,-197.5 784.64,-197.5 808.05,-197.5"/>
<polygon fill="#63b8ff" stroke="#63b8ff" points="808.25,-201 818.25,-197.5 808.25,-194 808.25,-201"/>
</a>
</g>
</g>
<!-- Node7&#45;&gt;Node3 -->
<g id="edge14_Node000007_Node000003" class="edge">
<title>Node7&#45;&gt;Node3</title>
<g id="a_edge14_Node000007_Node000003"><a xlink:title=" ">
<path fill="none" stroke="#63b8ff" d="M626.19,-129.95C600.12,-130.47 570.9,-130.32 546.61,-129.5"/>
<polygon fill="#63b8ff" stroke="#63b8ff" points="546.66,-126 536.53,-129.11 546.39,-133 546.66,-126"/>
</a>
</g>
</g>
<!-- Node8 -->
<g id="Node000008" class="node">
<title>Node8</title>
<g id="a_Node000008"><a xlink:href="class_sequence.html#a555c6e58957c4d07028eb5c67b1732ac" target="_top" xlink:title="Function used by Sequence::translationTab to create their compression map.">
<polygon fill="white" stroke="#666666" points="936,-95 808,-95 808,-76 936,-76 936,-95"/>
<text text-anchor="middle" x="872" y="-83" font-family="Helvetica,sans-Serif" font-size="10.00">Sequence::fillCodeMap</text>
</a>
</g>
</g>
<!-- Node7&#45;&gt;Node8 -->
<g id="edge9_Node000007_Node000008" class="edge">
<title>Node7&#45;&gt;Node8</title>
<g id="a_edge9_Node000007_Node000008"><a xlink:title=" ">
<path fill="none" stroke="#63b8ff" d="M740.91,-113.91C764.18,-108.83 792.95,-102.54 817.52,-97.18"/>
<polygon fill="#63b8ff" stroke="#63b8ff" points="818.39,-100.57 827.41,-95.02 816.89,-93.73 818.39,-100.57"/>
</a>
</g>
</g>
<!-- Node8&#45;&gt;Node3 -->
<g id="edge10_Node000008_Node000003" class="edge">
<title>Node8&#45;&gt;Node3</title>
<g id="a_edge10_Node000008_Node000003"><a xlink:title=" ">
<path fill="none" stroke="#63b8ff" d="M807.95,-88.96C757.12,-92.07 683.83,-97.26 620,-104.5 595.79,-107.25 569.08,-111.16 546.55,-114.73"/>
<polygon fill="#63b8ff" stroke="#63b8ff" points="545.84,-111.3 536.52,-116.34 546.94,-118.21 545.84,-111.3"/>
</a>
</g>
</g>
<!-- Node8&#45;&gt;Node9 -->
<g id="edge11_Node000008_Node000009" class="edge">
<title>Node8&#45;&gt;Node9</title>
<g id="a_edge11_Node000008_Node000009"><a xlink:title=" ">
<path fill="none" stroke="#63b8ff" d="M936.33,-77.06C944.89,-75.91 953.61,-74.75 961.98,-73.64"/>
<polygon fill="#63b8ff" stroke="#63b8ff" points="962.53,-77.09 971.98,-72.3 961.6,-70.16 962.53,-77.09"/>
</a>
</g>
</g>
<!-- Node10 -->
<g id="Node000010" class="node">
<title>Node10</title>
<g id="a_Node000010"><a xlink:href="class_bit_vector.html#ab30ea2b408107e4e6bc8095b5a64a1dd" target="_top" xlink:title="Number of element inside this object.">
<polygon fill="white" stroke="#666666" points="1183,-76 1097,-76 1097,-57 1183,-57 1183,-76"/>
<text text-anchor="middle" x="1140" y="-64" font-family="Helvetica,sans-Serif" font-size="10.00">BitVector::size</text>
</a>
</g>
</g>
<!-- Node9&#45;&gt;Node10 -->
<g id="edge12_Node000009_Node000010" class="edge">
<title>Node9&#45;&gt;Node10</title>
<g id="a_edge12_Node000009_Node000010"><a xlink:title=" ">
<path fill="none" stroke="#63b8ff" d="M1061.02,-66.5C1069.25,-66.5 1077.94,-66.5 1086.41,-66.5"/>
<polygon fill="#63b8ff" stroke="#63b8ff" points="1086.6,-70 1096.6,-66.5 1086.6,-63 1086.6,-70"/>
</a>
</g>
</g>
<!-- Node11 -->
<g id="Node000011" class="node">
<title>Node11</title>
<g id="a_Node000011"><a xlink:href="class_bit_vector.html#a5339660cfb315ab5de7f78bdf5af4ce1" target="_top" xlink:title="Get BitVector::_element_number.">
<polygon fill="white" stroke="#666666" points="1381,-76 1219,-76 1219,-57 1381,-57 1381,-76"/>
<text text-anchor="middle" x="1300" y="-64" font-family="Helvetica,sans-Serif" font-size="10.00">BitVector::getElementNumber</text>
</a>
</g>
</g>
<!-- Node10&#45;&gt;Node11 -->
<g id="edge13_Node000010_Node000011" class="edge">
<title>Node10&#45;&gt;Node11</title>
<g id="a_edge13_Node000010_Node000011"><a xlink:title=" ">
<path fill="none" stroke="#63b8ff" d="M1183.34,-66.5C1191.23,-66.5 1199.74,-66.5 1208.44,-66.5"/>
<polygon fill="#63b8ff" stroke="#63b8ff" points="1208.71,-70 1218.71,-66.5 1208.71,-63 1208.71,-70"/>
</a>
</g>
</g>
</g>
</svg>

<g id="navigator" transform="translate(0 0)" fill="#404254">
  <rect fill="#f2f5e9" fill-opacity="0.5" stroke="#606060" stroke-width=".5" x="0" y="0" width="60" height="60"/>
  <use id="zoomplus" xlink:href="#zoomPlus" x="17" y="9" onmousedown="handleZoom(evt,'in')"/>
  <use id="zoomminus" xlink:href="#zoomMin" x="42" y="9" onmousedown="handleZoom(evt,'out')"/>
  <use id="reset" xlink:href="#resetDef" x="30" y="36" onmousedown="handleReset()"/>
   <use id="arrowup" xlink:href="#arrowUp" x="0" y="0" onmousedown="handlePan(0,-1)"/>
  <use id="arrowright" xlink:href="#arrowRight" x="0" y="0" onmousedown="handlePan(1,0)"/>
  <use id="arrowdown" xlink:href="#arrowDown" x="0" y="0" onmousedown="handlePan(0,1)"/>
  <use id="arrowleft" xlink:href="#arrowLeft" x="0" y="0" onmousedown="handlePan(-1,0)"/>
</g>
<svg viewBox="0 0 15 15" width="100%" height="30px" preserveAspectRatio="xMaxYMin meet">
 <g id="arrow_out" transform="scale(0.3 0.3)">
  <a xlink:href="class_fasta_sequence_acd6551e5176ac2bdaa4d228fa9b5f14f_cgraph_org.svg" target="_base">
   <rect id="button" ry="5" rx="5" y="6" x="6" height="38" width="38"
        fill="#f2f5e9" fill-opacity="0.5" stroke="#606060" stroke-width="1.0"/>
   <path id="arrow"
     d="M 11.500037,31.436501 C 11.940474,20.09759 22.043105,11.32322 32.158766,21.979434 L 37.068811,17.246167 C 37.068811,17.246167 37.088388,32 37.088388,32 L 22.160133,31.978069 C 22.160133,31.978069 26.997745,27.140456 26.997745,27.140456 C 18.528582,18.264221 13.291696,25.230495 11.500037,31.436501 z"
     style="fill:#404040;"/>
  </a>
 </g>
</svg>

<style type='text/css'>
<![CDATA[
[data-mouse-over-selected='false'] { opacity: 0.7; }
[data-mouse-over-selected='true']  { opacity: 1.0; }
]]>
</style>
<script type="application/ecmascript"><![CDATA[
document.addEventListener('DOMContentLoaded', (event) => {
  highlightEdges();
  highlightAdjacentNodes();
});
]]></script>
</svg>
