<?xml version="1.0" encoding="UTF-8" standalone="no"?>
<!DOCTYPE svg PUBLIC "-//W3C//DTD SVG 1.1//EN"
 "http://www.w3.org/Graphics/SVG/1.1/DTD/svg11.dtd">
<!-- Generated by graphviz version 2.43.0 (0)
 -->
<!-- Title: FastaSequence::displaceComment Pages: 1 -->
<svg width="1423pt" height="270pt"
 viewBox="0.00 0.00 1423.00 270.00" xmlns="http://www.w3.org/2000/svg" xmlns:xlink="http://www.w3.org/1999/xlink">
<g id="graph0" class="graph" transform="scale(1 1) rotate(0) translate(4 266)">
<title>FastaSequence::displaceComment</title>
<!-- Node1 -->
<g id="Node000001" class="node">
<title>Node1</title>
<g id="a_Node000001"><a xlink:title="Change the position of a comment. If a comment is present at new_position , The two comments are merg...">
<polygon fill="#999999" stroke="#666666" points="184,-94 0,-94 0,-75 184,-75 184,-94"/>
<text text-anchor="middle" x="92" y="-82" font-family="Helvetica,sans-Serif" font-size="10.00">FastaSequence::displaceComment</text>
</a>
</g>
</g>
<!-- Node2 -->
<g id="Node000002" class="node">
<title>Node2</title>
<g id="a_Node000002"><a xlink:href="class_fasta_sequence.html#aef714753277c2a10876429e3c579ef95" target="_top" xlink:title="Add a comment to a position.">
<polygon fill="white" stroke="#666666" points="391,-132 230,-132 230,-113 391,-113 391,-132"/>
<text text-anchor="middle" x="310.5" y="-120" font-family="Helvetica,sans-Serif" font-size="10.00">FastaSequence::addComment</text>
</a>
</g>
</g>
<!-- Node1&#45;&gt;Node2 -->
<g id="edge1_Node000001_Node000002" class="edge">
<title>Node1&#45;&gt;Node2</title>
<g id="a_edge1_Node000001_Node000002"><a xlink:title=" ">
<path fill="none" stroke="#63b8ff" d="M147.35,-94.04C177.08,-99.26 214.08,-105.75 245.23,-111.22"/>
<polygon fill="#63b8ff" stroke="#63b8ff" points="244.67,-114.67 255.12,-112.96 245.88,-107.78 244.67,-114.67"/>
</a>
</g>
</g>
<!-- Node3 -->
<g id="Node000003" class="node">
<title>Node3</title>
<g id="a_Node000003"><a xlink:href="class_sequence.html#ad40777fd2f7ad3ae247fab02459e6759" target="_top" xlink:title="Retrieve the symbol at the position in the sequence.">
<polygon fill="white" stroke="#666666" points="570.5,-170 484.5,-170 484.5,-151 570.5,-151 570.5,-170"/>
<text text-anchor="middle" x="527.5" y="-158" font-family="Helvetica,sans-Serif" font-size="10.00">Sequence::get</text>
</a>
</g>
</g>
<!-- Node1&#45;&gt;Node3 -->
<g id="edge17_Node000001_Node000003" class="edge">
<title>Node1&#45;&gt;Node3</title>
<g id="a_edge17_Node000001_Node000003"><a xlink:title=" ">
<path fill="none" stroke="#63b8ff" d="M109.16,-94.06C132.64,-107.4 178,-131.14 220,-141.5 307.22,-163.02 412.41,-164.44 474.13,-162.9"/>
<polygon fill="#63b8ff" stroke="#63b8ff" points="474.49,-166.39 484.39,-162.61 474.29,-159.39 474.49,-166.39"/>
</a>
</g>
</g>
<!-- Node12 -->
<g id="Node000012" class="node">
<title>Node12</title>
<g id="a_Node000012"><a xlink:href="class_fasta_sequence.html#a2ce25dcf6751310494e59be402017036" target="_top" xlink:title="Do this position is commented.">
<polygon fill="white" stroke="#666666" points="618,-56 437,-56 437,-37 618,-37 618,-56"/>
<text text-anchor="middle" x="527.5" y="-44" font-family="Helvetica,sans-Serif" font-size="10.00">FastaSequence::isCommentedPos</text>
</a>
</g>
</g>
<!-- Node1&#45;&gt;Node12 -->
<g id="edge20_Node000001_Node000012" class="edge">
<title>Node1&#45;&gt;Node12</title>
<g id="a_edge20_Node000001_Node000012"><a xlink:title=" ">
<path fill="none" stroke="#63b8ff" d="M184.13,-80.44C245.51,-77.25 328.25,-72.07 401,-64.5 419.2,-62.61 438.8,-60.05 456.99,-57.45"/>
<polygon fill="#63b8ff" stroke="#63b8ff" points="457.53,-60.91 466.93,-56.01 456.53,-53.98 457.53,-60.91"/>
</a>
</g>
</g>
<!-- Node13 -->
<g id="Node000013" class="node">
<title>Node13</title>
<g id="a_Node000013"><a xlink:href="class_fasta_sequence.html#a519c4b4ec5de7e8c1a92de1409a7cf02" target="_top" xlink:title="Retrieve the comment at the position position.">
<polygon fill="white" stroke="#666666" points="390,-56 231,-56 231,-37 390,-37 390,-56"/>
<text text-anchor="middle" x="310.5" y="-44" font-family="Helvetica,sans-Serif" font-size="10.00">FastaSequence::getComment</text>
</a>
</g>
</g>
<!-- Node1&#45;&gt;Node13 -->
<g id="edge18_Node000001_Node000013" class="edge">
<title>Node1&#45;&gt;Node13</title>
<g id="a_edge18_Node000001_Node000013"><a xlink:title=" ">
<path fill="none" stroke="#63b8ff" d="M147.35,-74.96C177.08,-69.74 214.08,-63.25 245.23,-57.78"/>
<polygon fill="#63b8ff" stroke="#63b8ff" points="245.88,-61.22 255.12,-56.04 244.67,-54.33 245.88,-61.22"/>
</a>
</g>
</g>
<!-- Node14 -->
<g id="Node000014" class="node">
<title>Node14</title>
<g id="a_Node000014"><a xlink:href="class_fasta_sequence.html#a792b9d3fd8ace887fd7db583576c1116" target="_top" xlink:title="Remove a comment.">
<polygon fill="white" stroke="#666666" points="401,-19 220,-19 220,0 401,0 401,-19"/>
<text text-anchor="middle" x="310.5" y="-7" font-family="Helvetica,sans-Serif" font-size="10.00">FastaSequence::removeComment</text>
</a>
</g>
</g>
<!-- Node1&#45;&gt;Node14 -->
<g id="edge21_Node000001_Node000014" class="edge">
<title>Node1&#45;&gt;Node14</title>
<g id="a_edge21_Node000001_Node000014"><a xlink:title=" ">
<path fill="none" stroke="#63b8ff" d="M111,-74.87C135.17,-62.3 179.73,-40.41 220,-27.5 227.14,-25.21 234.69,-23.16 242.26,-21.32"/>
<polygon fill="#63b8ff" stroke="#63b8ff" points="243.23,-24.69 252.19,-19.04 241.67,-17.87 243.23,-24.69"/>
</a>
</g>
</g>
<!-- Node2&#45;&gt;Node3 -->
<g id="edge2_Node000002_Node000003" class="edge">
<title>Node2&#45;&gt;Node3</title>
<g id="a_edge2_Node000002_Node000003"><a xlink:title=" ">
<path fill="none" stroke="#63b8ff" d="M365.48,-132.04C398.84,-137.94 441.45,-145.47 474.45,-151.3"/>
<polygon fill="#63b8ff" stroke="#63b8ff" points="473.91,-154.76 484.36,-153.05 475.13,-147.87 473.91,-154.76"/>
</a>
</g>
</g>
<!-- Node9 -->
<g id="Node000009" class="node">
<title>Node9</title>
<g id="a_Node000009"><a xlink:href="class_sequence.html#acf21040958590f98163b3d11f19ea93e" target="_top" xlink:title="Give the number of element contained in this sequence.">
<polygon fill="white" stroke="#666666" points="1095,-113 1006,-113 1006,-94 1095,-94 1095,-113"/>
<text text-anchor="middle" x="1050.5" y="-101" font-family="Helvetica,sans-Serif" font-size="10.00">Sequence::size</text>
</a>
</g>
</g>
<!-- Node2&#45;&gt;Node9 -->
<g id="edge16_Node000002_Node000009" class="edge">
<title>Node2&#45;&gt;Node9</title>
<g id="a_edge16_Node000002_Node000009"><a xlink:title=" ">
<path fill="none" stroke="#63b8ff" d="M391.02,-119.08C494.76,-114.78 681.91,-107.6 842,-104.5 894.13,-103.49 953.64,-103.3 995.52,-103.33"/>
<polygon fill="#63b8ff" stroke="#63b8ff" points="995.77,-106.83 1005.78,-103.34 995.78,-99.83 995.77,-106.83"/>
</a>
</g>
</g>
<!-- Node2&#45;&gt;Node12 -->
<g id="edge15_Node000002_Node000012" class="edge">
<title>Node2&#45;&gt;Node12</title>
<g id="a_edge15_Node000002_Node000012"><a xlink:title=" ">
<path fill="none" stroke="#63b8ff" d="M361.1,-112.96C374.45,-109.39 388.61,-104.66 401,-98.5 419.15,-89.47 418.85,-79.53 437,-70.5 446.39,-65.83 456.8,-61.98 467.1,-58.84"/>
<polygon fill="#63b8ff" stroke="#63b8ff" points="468.25,-62.15 476.9,-56.04 466.33,-55.42 468.25,-62.15"/>
</a>
</g>
</g>
<!-- Node3&#45;&gt;Node3 -->
<g id="edge6_Node000003_Node000003" class="edge">
<title>Node3&#45;&gt;Node3</title>
<g id="a_edge6_Node000003_Node000003"><a xlink:title=" ">
<path fill="none" stroke="#63b8ff" d="M496.37,-170.08C481.22,-178.73 491.6,-188 527.5,-188 552.74,-188 565.37,-183.42 565.37,-177.69"/>
<polygon fill="#63b8ff" stroke="#63b8ff" points="567.89,-175.25 558.63,-170.08 562.65,-179.89 567.89,-175.25"/>
</a>
</g>
</g>
<!-- Node4 -->
<g id="Node000004" class="node">
<title>Node4</title>
<g id="a_Node000004"><a xlink:href="class_bit_vector.html#aebe159444eb9d619959b7325ac5dac2d" target="_top" xlink:title="Return the value of the bit at the position coord.">
<polygon fill="white" stroke="#666666" points="771.5,-244 688.5,-244 688.5,-225 771.5,-225 771.5,-244"/>
<text text-anchor="middle" x="730" y="-232" font-family="Helvetica,sans-Serif" font-size="10.00">BitVector::get</text>
</a>
</g>
</g>
<!-- Node3&#45;&gt;Node4 -->
<g id="edge3_Node000003_Node000004" class="edge">
<title>Node3&#45;&gt;Node4</title>
<g id="a_edge3_Node000003_Node000004"><a xlink:title=" ">
<path fill="none" stroke="#63b8ff" d="M547.2,-170.15C571.35,-182.31 614.92,-203.22 654,-216.5 661.75,-219.13 670.08,-221.54 678.26,-223.67"/>
<polygon fill="#63b8ff" stroke="#63b8ff" points="677.58,-227.11 688.13,-226.13 679.28,-220.31 677.58,-227.11"/>
</a>
</g>
</g>
<!-- Node6 -->
<g id="Node000006" class="node">
<title>Node6</title>
<g id="a_Node000006"><a xlink:href="class_sequence.html#a8181f024304b3fb5f55c7118f648cc61" target="_top" xlink:title="Return a char (same format as Sequence::getType()) that indicate which alphabet is used in the during...">
<polygon fill="white" stroke="#666666" points="806,-207 654,-207 654,-188 806,-188 806,-207"/>
<text text-anchor="middle" x="730" y="-195" font-family="Helvetica,sans-Serif" font-size="10.00">Sequence::getEncodingType</text>
</a>
</g>
</g>
<!-- Node3&#45;&gt;Node6 -->
<g id="edge7_Node000003_Node000006" class="edge">
<title>Node3&#45;&gt;Node6</title>
<g id="a_edge7_Node000003_Node000006"><a xlink:title=" ">
<path fill="none" stroke="#63b8ff" d="M570.53,-168.26C598.61,-173.44 636.02,-180.34 667.44,-186.14"/>
<polygon fill="#63b8ff" stroke="#63b8ff" points="666.94,-189.61 677.41,-187.98 668.21,-182.72 666.94,-189.61"/>
</a>
</g>
</g>
<!-- Node7 -->
<g id="Node000007" class="node">
<title>Node7</title>
<g id="a_Node000007"><a xlink:href="class_sequence.html#a49a9126010c0332493c803ddca005394" target="_top" xlink:title="Give a map that compress / decompress char used by Sequence.">
<polygon fill="white" stroke="#666666" points="799.5,-170 660.5,-170 660.5,-151 799.5,-151 799.5,-170"/>
<text text-anchor="middle" x="730" y="-158" font-family="Helvetica,sans-Serif" font-size="10.00">Sequence::translationTab</text>
</a>
</g>
</g>
<!-- Node3&#45;&gt;Node7 -->
<g id="edge8_Node000003_Node000007" class="edge">
<title>Node3&#45;&gt;Node7</title>
<g id="a_edge8_Node000003_Node000007"><a xlink:title=" ">
<path fill="none" stroke="#63b8ff" d="M570.53,-154.89C593.54,-153.87 622.82,-153.53 649.93,-153.89"/>
<polygon fill="#63b8ff" stroke="#63b8ff" points="650.14,-157.39 660.19,-154.05 650.25,-150.39 650.14,-157.39"/>
</a>
</g>
</g>
<!-- Node4&#45;&gt;Node4 -->
<g id="edge4_Node000004_Node000004" class="edge">
<title>Node4&#45;&gt;Node4</title>
<g id="a_edge4_Node000004_Node000004"><a xlink:title=" ">
<path fill="none" stroke="#63b8ff" d="M702.87,-244.08C689.68,-252.73 698.72,-262 730,-262 751.02,-262 762,-257.82 762.93,-252.45"/>
<polygon fill="#63b8ff" stroke="#63b8ff" points="765.7,-250.3 757.13,-244.08 759.95,-254.29 765.7,-250.3"/>
</a>
</g>
</g>
<!-- Node5 -->
<g id="Node000005" class="node">
<title>Node5</title>
<g id="a_Node000005"><a xlink:href="class_bit_vector_1_1_coords.html#a2892f7f46c4af93f9733e312229d8ec1" target="_top" xlink:title="Get Coords::octet .">
<polygon fill="white" stroke="#666666" points="959.5,-249.5 852.5,-249.5 852.5,-219.5 959.5,-219.5 959.5,-249.5"/>
<text text-anchor="start" x="860.5" y="-237.5" font-family="Helvetica,sans-Serif" font-size="10.00">BitVector::Coords::</text>
<text text-anchor="middle" x="906" y="-226.5" font-family="Helvetica,sans-Serif" font-size="10.00">getOctet</text>
</a>
</g>
</g>
<!-- Node4&#45;&gt;Node5 -->
<g id="edge5_Node000004_Node000005" class="edge">
<title>Node4&#45;&gt;Node5</title>
<g id="a_edge5_Node000004_Node000005"><a xlink:title=" ">
<path fill="none" stroke="#63b8ff" d="M771.8,-234.5C792.71,-234.5 818.64,-234.5 842.05,-234.5"/>
<polygon fill="#63b8ff" stroke="#63b8ff" points="842.25,-238 852.25,-234.5 842.25,-231 842.25,-238"/>
</a>
</g>
</g>
<!-- Node7&#45;&gt;Node3 -->
<g id="edge14_Node000007_Node000003" class="edge">
<title>Node7&#45;&gt;Node3</title>
<g id="a_edge14_Node000007_Node000003"><a xlink:title=" ">
<path fill="none" stroke="#63b8ff" d="M660.19,-166.95C634.12,-167.47 604.9,-167.32 580.61,-166.5"/>
<polygon fill="#63b8ff" stroke="#63b8ff" points="580.66,-163 570.53,-166.11 580.39,-170 580.66,-163"/>
</a>
</g>
</g>
<!-- Node8 -->
<g id="Node000008" class="node">
<title>Node8</title>
<g id="a_Node000008"><a xlink:href="class_sequence.html#a555c6e58957c4d07028eb5c67b1732ac" target="_top" xlink:title="Function used by Sequence::translationTab to create their compression map.">
<polygon fill="white" stroke="#666666" points="970,-132 842,-132 842,-113 970,-113 970,-132"/>
<text text-anchor="middle" x="906" y="-120" font-family="Helvetica,sans-Serif" font-size="10.00">Sequence::fillCodeMap</text>
</a>
</g>
</g>
<!-- Node7&#45;&gt;Node8 -->
<g id="edge9_Node000007_Node000008" class="edge">
<title>Node7&#45;&gt;Node8</title>
<g id="a_edge9_Node000007_Node000008"><a xlink:title=" ">
<path fill="none" stroke="#63b8ff" d="M774.91,-150.91C798.18,-145.83 826.95,-139.54 851.52,-134.18"/>
<polygon fill="#63b8ff" stroke="#63b8ff" points="852.39,-137.57 861.41,-132.02 850.89,-130.73 852.39,-137.57"/>
</a>
</g>
</g>
<!-- Node8&#45;&gt;Node3 -->
<g id="edge10_Node000008_Node000003" class="edge">
<title>Node8&#45;&gt;Node3</title>
<g id="a_edge10_Node000008_Node000003"><a xlink:title=" ">
<path fill="none" stroke="#63b8ff" d="M841.97,-126.42C791.15,-129.84 717.86,-135.38 654,-142.5 629.81,-145.2 603.11,-148.92 580.57,-152.28"/>
<polygon fill="#63b8ff" stroke="#63b8ff" points="579.9,-148.84 570.54,-153.8 580.95,-155.77 579.9,-148.84"/>
</a>
</g>
</g>
<!-- Node8&#45;&gt;Node9 -->
<g id="edge11_Node000008_Node000009" class="edge">
<title>Node8&#45;&gt;Node9</title>
<g id="a_edge11_Node000008_Node000009"><a xlink:title=" ">
<path fill="none" stroke="#63b8ff" d="M970.33,-114.06C978.89,-112.91 987.61,-111.75 995.98,-110.64"/>
<polygon fill="#63b8ff" stroke="#63b8ff" points="996.53,-114.09 1005.98,-109.3 995.6,-107.16 996.53,-114.09"/>
</a>
</g>
</g>
<!-- Node10 -->
<g id="Node000010" class="node">
<title>Node10</title>
<g id="a_Node000010"><a xlink:href="class_bit_vector.html#ab30ea2b408107e4e6bc8095b5a64a1dd" target="_top" xlink:title="Number of element inside this object.">
<polygon fill="white" stroke="#666666" points="1217,-113 1131,-113 1131,-94 1217,-94 1217,-113"/>
<text text-anchor="middle" x="1174" y="-101" font-family="Helvetica,sans-Serif" font-size="10.00">BitVector::size</text>
</a>
</g>
</g>
<!-- Node9&#45;&gt;Node10 -->
<g id="edge12_Node000009_Node000010" class="edge">
<title>Node9&#45;&gt;Node10</title>
<g id="a_edge12_Node000009_Node000010"><a xlink:title=" ">
<path fill="none" stroke="#63b8ff" d="M1095.02,-103.5C1103.25,-103.5 1111.94,-103.5 1120.41,-103.5"/>
<polygon fill="#63b8ff" stroke="#63b8ff" points="1120.6,-107 1130.6,-103.5 1120.6,-100 1120.6,-107"/>
</a>
</g>
</g>
<!-- Node11 -->
<g id="Node000011" class="node">
<title>Node11</title>
<g id="a_Node000011"><a xlink:href="class_bit_vector.html#a5339660cfb315ab5de7f78bdf5af4ce1" target="_top" xlink:title="Get BitVector::_element_number.">
<polygon fill="white" stroke="#666666" points="1415,-113 1253,-113 1253,-94 1415,-94 1415,-113"/>
<text text-anchor="middle" x="1334" y="-101" font-family="Helvetica,sans-Serif" font-size="10.00">BitVector::getElementNumber</text>
</a>
</g>
</g>
<!-- Node10&#45;&gt;Node11 -->
<g id="edge13_Node000010_Node000011" class="edge">
<title>Node10&#45;&gt;Node11</title>
<g id="a_edge13_Node000010_Node000011"><a xlink:title=" ">
<path fill="none" stroke="#63b8ff" d="M1217.34,-103.5C1225.23,-103.5 1233.74,-103.5 1242.44,-103.5"/>
<polygon fill="#63b8ff" stroke="#63b8ff" points="1242.71,-107 1252.71,-103.5 1242.71,-100 1242.71,-107"/>
</a>
</g>
</g>
<!-- Node13&#45;&gt;Node12 -->
<g id="edge19_Node000013_Node000012" class="edge">
<title>Node13&#45;&gt;Node12</title>
<g id="a_edge19_Node000013_Node000012"><a xlink:title=" ">
<path fill="none" stroke="#63b8ff" d="M390.03,-46.5C401.93,-46.5 414.35,-46.5 426.63,-46.5"/>
<polygon fill="#63b8ff" stroke="#63b8ff" points="426.9,-50 436.9,-46.5 426.9,-43 426.9,-50"/>
</a>
</g>
</g>
<!-- Node14&#45;&gt;Node12 -->
<g id="edge22_Node000014_Node000012" class="edge">
<title>Node14&#45;&gt;Node12</title>
<g id="a_edge22_Node000014_Node000012"><a xlink:title=" ">
<path fill="none" stroke="#63b8ff" d="M366.87,-19.03C395.6,-23.97 430.88,-30.04 460.96,-35.22"/>
<polygon fill="#63b8ff" stroke="#63b8ff" points="460.5,-38.69 470.95,-36.94 461.69,-31.79 460.5,-38.69"/>
</a>
</g>
</g>
</g>
</svg>
