<?xml version="1.0" encoding="UTF-8" standalone="no"?>
<!DOCTYPE svg PUBLIC "-//W3C//DTD SVG 1.1//EN"
 "http://www.w3.org/Graphics/SVG/1.1/DTD/svg11.dtd">
<!-- Generated by graphviz version 2.43.0 (0)
 -->
<!-- Title: Sequence::isRNA Pages: 1 -->
<svg width="756pt" height="199pt"
 viewBox="0.00 0.00 756.00 199.44" xmlns="http://www.w3.org/2000/svg" xmlns:xlink="http://www.w3.org/1999/xlink">
<g id="graph0" class="graph" transform="scale(1 1) rotate(0) translate(4 195.44)">
<title>Sequence::isRNA</title>
<!-- Node1 -->
<g id="Node000001" class="node">
<title>Node1</title>
<g id="a_Node000001"><a xlink:title="Say if a symbol can be an acid nucleic related to RNA.">
<polygon fill="#999999" stroke="#666666" points="748,-115.44 649,-115.44 649,-96.44 748,-96.44 748,-115.44"/>
<text text-anchor="middle" x="698.5" y="-103.44" font-family="Helvetica,sans-Serif" font-size="10.00">Sequence::isRNA</text>
</a>
</g>
</g>
<!-- Node2 -->
<g id="Node000002" class="node">
<title>Node2</title>
<g id="a_Node000002"><a xlink:href="class_sequence.html#af4dfd329689bebc4131b422d7974ca4e" target="_top" xlink:title="Get the Sequence::SequenceSymbol object attached to a symbol.">
<polygon fill="white" stroke="#666666" points="604.5,-191.44 434.5,-191.44 434.5,-172.44 604.5,-172.44 604.5,-191.44"/>
<text text-anchor="middle" x="519.5" y="-179.44" font-family="Helvetica,sans-Serif" font-size="10.00">Sequence::getSequenceSymbol</text>
</a>
</g>
</g>
<!-- Node1&#45;&gt;Node2 -->
<g id="edge1_Node000001_Node000002" class="edge">
<title>Node1&#45;&gt;Node2</title>
<g id="a_edge1_Node000001_Node000002"><a xlink:title=" ">
<path fill="none" stroke="#63b8ff" d="M676.33,-121.44C659.8,-132.92 635.86,-148.2 613,-157.94 598.96,-163.93 583.06,-168.71 568.46,-172.38"/>
<polygon fill="#63b8ff" stroke="#63b8ff" points="678.56,-124.15 684.7,-115.52 674.52,-118.44 678.56,-124.15"/>
</a>
</g>
</g>
<!-- Node3 -->
<g id="Node000003" class="node">
<title>Node3</title>
<g id="a_Node000003"><a xlink:href="class_sequence.html#a375a7807541e86995fc0eb92258f1414" target="_top" xlink:title="Say if a symbol can only be found in acid nucleic related to DNA.">
<polygon fill="white" stroke="#666666" points="390,-153.44 202,-153.44 202,-134.44 390,-134.44 390,-153.44"/>
<text text-anchor="middle" x="296" y="-141.44" font-family="Helvetica,sans-Serif" font-size="10.00">Sequence::isDnaSpecificNucleotide</text>
</a>
</g>
</g>
<!-- Node1&#45;&gt;Node3 -->
<g id="edge2_Node000001_Node000003" class="edge">
<title>Node1&#45;&gt;Node3</title>
<g id="a_edge2_Node000001_Node000003"><a xlink:title=" ">
<path fill="none" stroke="#63b8ff" d="M651.08,-117.79C638.77,-120.54 625.45,-123.18 613,-124.94 538.45,-135.5 453.19,-140.19 390.04,-142.28"/>
<polygon fill="#63b8ff" stroke="#63b8ff" points="652.18,-121.13 661.14,-115.47 650.6,-114.31 652.18,-121.13"/>
</a>
</g>
</g>
<!-- Node5 -->
<g id="Node000005" class="node">
<title>Node5</title>
<g id="a_Node000005"><a xlink:href="class_sequence.html#a2f4c93c744fc524b81c91843c81d31be" target="_top" xlink:title="Say if a symbol can be an acid nucleic.">
<polygon fill="white" stroke="#666666" points="589.5,-115.44 449.5,-115.44 449.5,-96.44 589.5,-96.44 589.5,-115.44"/>
<text text-anchor="middle" x="519.5" y="-103.44" font-family="Helvetica,sans-Serif" font-size="10.00">Sequence::isLegalNucleic</text>
</a>
</g>
</g>
<!-- Node1&#45;&gt;Node5 -->
<g id="edge4_Node000001_Node000005" class="edge">
<title>Node1&#45;&gt;Node5</title>
<g id="a_edge4_Node000001_Node000005"><a xlink:title=" ">
<path fill="none" stroke="#63b8ff" d="M638.6,-105.94C622.93,-105.94 605.87,-105.94 589.71,-105.94"/>
<polygon fill="#63b8ff" stroke="#63b8ff" points="638.67,-109.44 648.67,-105.94 638.67,-102.44 638.67,-109.44"/>
</a>
</g>
</g>
<!-- Node7 -->
<g id="Node000007" class="node">
<title>Node7</title>
<g id="a_Node000007"><a xlink:href="class_sequence.html#ab351491ae27a3b4daa4d6af021ae0af2" target="_top" xlink:title="Say if a symbol can be an acid nucleic.">
<polygon fill="white" stroke="#666666" points="576.5,-78.44 462.5,-78.44 462.5,-59.44 576.5,-59.44 576.5,-78.44"/>
<text text-anchor="middle" x="519.5" y="-66.44" font-family="Helvetica,sans-Serif" font-size="10.00">Sequence::isNucleic</text>
</a>
</g>
</g>
<!-- Node1&#45;&gt;Node7 -->
<g id="edge7_Node000001_Node000007" class="edge">
<title>Node1&#45;&gt;Node7</title>
<g id="a_edge7_Node000001_Node000007"><a xlink:title=" ">
<path fill="none" stroke="#63b8ff" d="M642.97,-94.27C633,-92.15 622.69,-89.97 613,-87.94 598.08,-84.82 581.79,-81.46 567.1,-78.44"/>
<polygon fill="#63b8ff" stroke="#63b8ff" points="642.27,-97.7 652.78,-96.35 643.73,-90.85 642.27,-97.7"/>
</a>
</g>
</g>
<!-- Node10 -->
<g id="Node000010" class="node">
<title>Node10</title>
<g id="a_Node000010"><a xlink:href="class_sequence.html#a43936ff8f097e07421ae7a2389bd9cc0" target="_top" xlink:title="Say if a symbol can only be found in acid nucleic related to RNA.">
<polygon fill="white" stroke="#666666" points="613,-23.44 426,-23.44 426,-4.44 613,-4.44 613,-23.44"/>
<text text-anchor="middle" x="519.5" y="-11.44" font-family="Helvetica,sans-Serif" font-size="10.00">Sequence::isRnaSpecificNucleotide</text>
</a>
</g>
</g>
<!-- Node1&#45;&gt;Node10 -->
<g id="edge12_Node000001_Node000010" class="edge">
<title>Node1&#45;&gt;Node10</title>
<g id="a_edge12_Node000001_Node000010"><a xlink:title=" ">
<path fill="none" stroke="#63b8ff" d="M676.07,-90.31C659.41,-78.57 635.42,-62.58 613,-50.94 592.12,-40.11 567.32,-30.34 548.66,-23.57"/>
<polygon fill="#63b8ff" stroke="#63b8ff" points="674.35,-93.38 684.53,-96.34 678.42,-87.68 674.35,-93.38"/>
</a>
</g>
</g>
<!-- Node4 -->
<g id="Node000004" class="node">
<title>Node4</title>
<g id="a_Node000004"><a xlink:href="class_sequence.html#a2163e89ff5b606d82ad4993c7e5eab4b" target="_top" xlink:title="Turn a symbol to a bool array.">
<polygon fill="white" stroke="#666666" points="166,-79.44 0,-79.44 0,-60.44 166,-60.44 166,-79.44"/>
<text text-anchor="middle" x="83" y="-67.44" font-family="Helvetica,sans-Serif" font-size="10.00">Sequence::identifySymbolType</text>
</a>
</g>
</g>
<!-- Node3&#45;&gt;Node4 -->
<g id="edge3_Node000003_Node000004" class="edge">
<title>Node3&#45;&gt;Node4</title>
<g id="a_edge3_Node000003_Node000004"><a xlink:title=" ">
<path fill="none" stroke="#63b8ff" d="M224.04,-132.14C216.53,-130.32 209.06,-128.26 202,-125.94 164.3,-113.57 123,-91.94 100.64,-79.5"/>
<polygon fill="#63b8ff" stroke="#63b8ff" points="223.37,-135.58 233.9,-134.4 224.94,-128.76 223.37,-135.58"/>
</a>
</g>
</g>
<!-- Node6 -->
<g id="Node000006" class="node">
<title>Node6</title>
<g id="a_Node000006"><a xlink:href="class_sequence.html#a7e6fdc8d243336e9e55e91dfd61eb43b" target="_top" xlink:title="Say if a symbol can be used in the a sequence.">
<polygon fill="white" stroke="#666666" points="366.5,-116.44 225.5,-116.44 225.5,-97.44 366.5,-97.44 366.5,-116.44"/>
<text text-anchor="middle" x="296" y="-104.44" font-family="Helvetica,sans-Serif" font-size="10.00">Sequence::isLegalSymbol</text>
</a>
</g>
</g>
<!-- Node5&#45;&gt;Node6 -->
<g id="edge5_Node000005_Node000006" class="edge">
<title>Node5&#45;&gt;Node6</title>
<g id="a_edge5_Node000005_Node000006"><a xlink:title=" ">
<path fill="none" stroke="#63b8ff" d="M439.32,-106.3C415.63,-106.41 389.83,-106.52 366.79,-106.63"/>
<polygon fill="#63b8ff" stroke="#63b8ff" points="439.34,-109.8 449.33,-106.26 439.31,-102.8 439.34,-109.8"/>
</a>
</g>
</g>
<!-- Node6&#45;&gt;Node4 -->
<g id="edge6_Node000006_Node000004" class="edge">
<title>Node6&#45;&gt;Node4</title>
<g id="a_edge6_Node000006_Node000004"><a xlink:title=" ">
<path fill="none" stroke="#63b8ff" d="M230.49,-95.63C201.07,-90.47 166.62,-84.43 138.52,-79.5"/>
<polygon fill="#63b8ff" stroke="#63b8ff" points="230.21,-99.13 240.66,-97.41 231.42,-92.24 230.21,-99.13"/>
</a>
</g>
</g>
<!-- Node8 -->
<g id="Node000008" class="node">
<title>Node8</title>
<g id="a_Node000008"><a xlink:href="class_sequence.html#a14ee59cb34cf4d2087d1eabd3e4c6d4c" target="_top" xlink:title="Say if a symbol can only be found in acid nucleic related to amino acid.">
<polygon fill="white" stroke="#666666" points="369.5,-79.44 222.5,-79.44 222.5,-60.44 369.5,-60.44 369.5,-79.44"/>
<text text-anchor="middle" x="296" y="-67.44" font-family="Helvetica,sans-Serif" font-size="10.00">Sequence::isAminoSpecific</text>
</a>
</g>
</g>
<!-- Node7&#45;&gt;Node8 -->
<g id="edge8_Node000007_Node000008" class="edge">
<title>Node7&#45;&gt;Node8</title>
<g id="a_edge8_Node000007_Node000008"><a xlink:title=" ">
<path fill="none" stroke="#63b8ff" d="M452.21,-69.24C426.27,-69.36 396.42,-69.49 369.88,-69.61"/>
<polygon fill="#63b8ff" stroke="#63b8ff" points="452.34,-72.74 462.32,-69.2 452.3,-65.74 452.34,-72.74"/>
</a>
</g>
</g>
<!-- Node9 -->
<g id="Node000009" class="node">
<title>Node9</title>
<g id="a_Node000009"><a xlink:href="class_sequence.html#a7fb536cb5ce9b5de78634aa314623835" target="_top" xlink:title="Say if a symbol can only be found in acid nucleic related to nucleic acid.">
<polygon fill="white" stroke="#666666" points="372,-42.44 220,-42.44 220,-23.44 372,-23.44 372,-42.44"/>
<text text-anchor="middle" x="296" y="-30.44" font-family="Helvetica,sans-Serif" font-size="10.00">Sequence::isNucleicSpecific</text>
</a>
</g>
</g>
<!-- Node7&#45;&gt;Node9 -->
<g id="edge10_Node000007_Node000009" class="edge">
<title>Node7&#45;&gt;Node9</title>
<g id="a_edge10_Node000007_Node000009"><a xlink:title=" ">
<path fill="none" stroke="#63b8ff" d="M452.16,-58.16C421.53,-53.18 385.47,-47.32 355.83,-42.5"/>
<polygon fill="#63b8ff" stroke="#63b8ff" points="451.89,-61.66 462.32,-59.81 453.01,-54.75 451.89,-61.66"/>
</a>
</g>
</g>
<!-- Node8&#45;&gt;Node4 -->
<g id="edge9_Node000008_Node000004" class="edge">
<title>Node8&#45;&gt;Node4</title>
<g id="a_edge9_Node000008_Node000004"><a xlink:title=" ">
<path fill="none" stroke="#63b8ff" d="M212.06,-69.94C196.97,-69.94 181.23,-69.94 166.16,-69.94"/>
<polygon fill="#63b8ff" stroke="#63b8ff" points="212.39,-73.44 222.39,-69.94 212.39,-66.44 212.39,-73.44"/>
</a>
</g>
</g>
<!-- Node9&#45;&gt;Node4 -->
<g id="edge11_Node000009_Node000004" class="edge">
<title>Node9&#45;&gt;Node4</title>
<g id="a_edge11_Node000009_Node000004"><a xlink:title=" ">
<path fill="none" stroke="#63b8ff" d="M230.49,-44.26C201.07,-49.41 166.62,-55.46 138.52,-60.38"/>
<polygon fill="#63b8ff" stroke="#63b8ff" points="231.42,-47.65 240.66,-42.47 230.21,-40.75 231.42,-47.65"/>
</a>
</g>
</g>
<!-- Node10&#45;&gt;Node4 -->
<g id="edge13_Node000010_Node000004" class="edge">
<title>Node10&#45;&gt;Node4</title>
<g id="a_edge13_Node000010_Node000004"><a xlink:title=" ">
<path fill="none" stroke="#63b8ff" d="M429.65,-3.61C365.57,1.36 277.43,3.05 202,-13.94 162.18,-22.91 120.02,-46.95 98.5,-60.44"/>
<polygon fill="#63b8ff" stroke="#63b8ff" points="429.47,-7.1 439.73,-4.43 430.04,-0.13 429.47,-7.1"/>
</a>
</g>
</g>
</g>
</svg>
