<?xml version="1.0" encoding="UTF-8" standalone="no"?>
<!DOCTYPE svg PUBLIC "-//W3C//DTD SVG 1.1//EN"
 "http://www.w3.org/Graphics/SVG/1.1/DTD/svg11.dtd">
<!-- Generated by graphviz version 2.43.0 (0)
 -->
<!-- Title: Sequence::isDNA Pages: 1 -->
<svg width="1027pt" height="138pt"
 viewBox="0.00 0.00 1027.00 138.00" xmlns="http://www.w3.org/2000/svg" xmlns:xlink="http://www.w3.org/1999/xlink">
<g id="graph0" class="graph" transform="scale(1 1) rotate(0) translate(4 134)">
<title>Sequence::isDNA</title>
<!-- Node1 -->
<g id="Node000001" class="node">
<title>Node1</title>
<g id="a_Node000001"><a xlink:title="Say if a symbol can be an acid nucleic related to DNA.">
<polygon fill="#999999" stroke="#666666" points="100,-38 0,-38 0,-19 100,-19 100,-38"/>
<text text-anchor="middle" x="50" y="-26" font-family="Helvetica,sans-Serif" font-size="10.00">Sequence::isDNA</text>
</a>
</g>
</g>
<!-- Node2 -->
<g id="Node000002" class="node">
<title>Node2</title>
<g id="a_Node000002"><a xlink:href="class_sequence.html#ad40777fd2f7ad3ae247fab02459e6759" target="_top" xlink:title="Retrieve the symbol at the position in the sequence.">
<polygon fill="white" stroke="#666666" points="222,-38 136,-38 136,-19 222,-19 222,-38"/>
<text text-anchor="middle" x="179" y="-26" font-family="Helvetica,sans-Serif" font-size="10.00">Sequence::get</text>
</a>
</g>
</g>
<!-- Node1&#45;&gt;Node2 -->
<g id="edge1_Node000001_Node000002" class="edge">
<title>Node1&#45;&gt;Node2</title>
<g id="a_edge1_Node000001_Node000002"><a xlink:title=" ">
<path fill="none" stroke="#63b8ff" d="M100.1,-28.5C108.44,-28.5 117.12,-28.5 125.54,-28.5"/>
<polygon fill="#63b8ff" stroke="#63b8ff" points="125.64,-32 135.64,-28.5 125.64,-25 125.64,-32"/>
</a>
</g>
</g>
<!-- Node2&#45;&gt;Node2 -->
<g id="edge5_Node000002_Node000002" class="edge">
<title>Node2&#45;&gt;Node2</title>
<g id="a_edge5_Node000002_Node000002"><a xlink:title=" ">
<path fill="none" stroke="#63b8ff" d="M159.27,-38.08C149.67,-46.73 156.25,-56 179,-56 193.22,-56 201.12,-52.38 202.7,-47.55"/>
<polygon fill="#63b8ff" stroke="#63b8ff" points="205.83,-45.95 198.73,-38.08 199.37,-48.66 205.83,-45.95"/>
</a>
</g>
</g>
<!-- Node3 -->
<g id="Node000003" class="node">
<title>Node3</title>
<g id="a_Node000003"><a xlink:href="class_bit_vector.html#aebe159444eb9d619959b7325ac5dac2d" target="_top" xlink:title="Return the value of the bit at the position coord.">
<polygon fill="white" stroke="#666666" points="375.5,-112 292.5,-112 292.5,-93 375.5,-93 375.5,-112"/>
<text text-anchor="middle" x="334" y="-100" font-family="Helvetica,sans-Serif" font-size="10.00">BitVector::get</text>
</a>
</g>
</g>
<!-- Node2&#45;&gt;Node3 -->
<g id="edge2_Node000002_Node000003" class="edge">
<title>Node2&#45;&gt;Node3</title>
<g id="a_edge2_Node000002_Node000003"><a xlink:title=" ">
<path fill="none" stroke="#63b8ff" d="M190.76,-38.34C205.07,-50.9 231.62,-72.43 258,-84.5 265.7,-88.02 274.18,-90.91 282.57,-93.25"/>
<polygon fill="#63b8ff" stroke="#63b8ff" points="281.78,-96.66 292.34,-95.75 283.52,-89.88 281.78,-96.66"/>
</a>
</g>
</g>
<!-- Node5 -->
<g id="Node000005" class="node">
<title>Node5</title>
<g id="a_Node000005"><a xlink:href="class_sequence.html#a8181f024304b3fb5f55c7118f648cc61" target="_top" xlink:title="Return a char (same format as Sequence::getType()) that indicate which alphabet is used in the during...">
<polygon fill="white" stroke="#666666" points="410,-75 258,-75 258,-56 410,-56 410,-75"/>
<text text-anchor="middle" x="334" y="-63" font-family="Helvetica,sans-Serif" font-size="10.00">Sequence::getEncodingType</text>
</a>
</g>
</g>
<!-- Node2&#45;&gt;Node5 -->
<g id="edge6_Node000002_Node000005" class="edge">
<title>Node2&#45;&gt;Node5</title>
<g id="a_edge6_Node000002_Node000005"><a xlink:title=" ">
<path fill="none" stroke="#63b8ff" d="M219.27,-38.09C231.66,-41.11 245.4,-44.45 258,-47.5 266.23,-49.49 274.97,-51.6 283.47,-53.64"/>
<polygon fill="#63b8ff" stroke="#63b8ff" points="282.75,-57.06 293.29,-56 284.39,-50.26 282.75,-57.06"/>
</a>
</g>
</g>
<!-- Node6 -->
<g id="Node000006" class="node">
<title>Node6</title>
<g id="a_Node000006"><a xlink:href="class_sequence.html#a49a9126010c0332493c803ddca005394" target="_top" xlink:title="Give a map that compress / decompress char used by Sequence.">
<polygon fill="white" stroke="#666666" points="403.5,-38 264.5,-38 264.5,-19 403.5,-19 403.5,-38"/>
<text text-anchor="middle" x="334" y="-26" font-family="Helvetica,sans-Serif" font-size="10.00">Sequence::translationTab</text>
</a>
</g>
</g>
<!-- Node2&#45;&gt;Node6 -->
<g id="edge7_Node000002_Node000006" class="edge">
<title>Node2&#45;&gt;Node6</title>
<g id="a_edge7_Node000002_Node000006"><a xlink:title=" ">
<path fill="none" stroke="#63b8ff" d="M222.21,-22.39C232.24,-21.99 243.25,-21.78 254.32,-21.75"/>
<polygon fill="#63b8ff" stroke="#63b8ff" points="254.47,-25.25 264.48,-21.78 254.49,-18.25 254.47,-25.25"/>
</a>
</g>
</g>
<!-- Node3&#45;&gt;Node3 -->
<g id="edge3_Node000003_Node000003" class="edge">
<title>Node3&#45;&gt;Node3</title>
<g id="a_edge3_Node000003_Node000003"><a xlink:title=" ">
<path fill="none" stroke="#63b8ff" d="M310.26,-112.08C298.72,-120.73 306.63,-130 334,-130 351.96,-130 361.54,-126.01 362.75,-120.82"/>
<polygon fill="#63b8ff" stroke="#63b8ff" points="365.75,-119.02 357.74,-112.08 359.67,-122.5 365.75,-119.02"/>
</a>
</g>
</g>
<!-- Node4 -->
<g id="Node000004" class="node">
<title>Node4</title>
<g id="a_Node000004"><a xlink:href="class_bit_vector_1_1_coords.html#a2892f7f46c4af93f9733e312229d8ec1" target="_top" xlink:title="Get Coords::octet .">
<polygon fill="white" stroke="#666666" points="563.5,-117.5 456.5,-117.5 456.5,-87.5 563.5,-87.5 563.5,-117.5"/>
<text text-anchor="start" x="464.5" y="-105.5" font-family="Helvetica,sans-Serif" font-size="10.00">BitVector::Coords::</text>
<text text-anchor="middle" x="510" y="-94.5" font-family="Helvetica,sans-Serif" font-size="10.00">getOctet</text>
</a>
</g>
</g>
<!-- Node3&#45;&gt;Node4 -->
<g id="edge4_Node000003_Node000004" class="edge">
<title>Node3&#45;&gt;Node4</title>
<g id="a_edge4_Node000003_Node000004"><a xlink:title=" ">
<path fill="none" stroke="#63b8ff" d="M375.8,-102.5C396.71,-102.5 422.64,-102.5 446.05,-102.5"/>
<polygon fill="#63b8ff" stroke="#63b8ff" points="446.25,-106 456.25,-102.5 446.25,-99 446.25,-106"/>
</a>
</g>
</g>
<!-- Node6&#45;&gt;Node2 -->
<g id="edge13_Node000006_Node000002" class="edge">
<title>Node6&#45;&gt;Node2</title>
<g id="a_edge13_Node000006_Node000002"><a xlink:title=" ">
<path fill="none" stroke="#63b8ff" d="M264.48,-35.22C253.68,-35.31 242.67,-35.21 232.32,-34.94"/>
<polygon fill="#63b8ff" stroke="#63b8ff" points="232.32,-31.44 222.21,-34.61 232.09,-38.44 232.32,-31.44"/>
</a>
</g>
</g>
<!-- Node7 -->
<g id="Node000007" class="node">
<title>Node7</title>
<g id="a_Node000007"><a xlink:href="class_sequence.html#a555c6e58957c4d07028eb5c67b1732ac" target="_top" xlink:title="Function used by Sequence::translationTab to create their compression map.">
<polygon fill="white" stroke="#666666" points="574,-19 446,-19 446,0 574,0 574,-19"/>
<text text-anchor="middle" x="510" y="-7" font-family="Helvetica,sans-Serif" font-size="10.00">Sequence::fillCodeMap</text>
</a>
</g>
</g>
<!-- Node6&#45;&gt;Node7 -->
<g id="edge8_Node000006_Node000007" class="edge">
<title>Node6&#45;&gt;Node7</title>
<g id="a_edge8_Node000006_Node000007"><a xlink:title=" ">
<path fill="none" stroke="#63b8ff" d="M403.77,-20.99C414.28,-19.84 425.16,-18.65 435.76,-17.5"/>
<polygon fill="#63b8ff" stroke="#63b8ff" points="436.26,-20.96 445.82,-16.4 435.5,-14.01 436.26,-20.96"/>
</a>
</g>
</g>
<!-- Node7&#45;&gt;Node2 -->
<g id="edge9_Node000007_Node000002" class="edge">
<title>Node7&#45;&gt;Node2</title>
<g id="a_edge9_Node000007_Node000002"><a xlink:title=" ">
<path fill="none" stroke="#63b8ff" d="M445.83,-5.35C394.92,-3 321.6,-1.87 258,-9.5 246.01,-10.94 233.21,-13.58 221.51,-16.44"/>
<polygon fill="#63b8ff" stroke="#63b8ff" points="220.38,-13.12 211.56,-18.99 222.12,-19.9 220.38,-13.12"/>
</a>
</g>
</g>
<!-- Node8 -->
<g id="Node000008" class="node">
<title>Node8</title>
<g id="a_Node000008"><a xlink:href="class_sequence.html#acf21040958590f98163b3d11f19ea93e" target="_top" xlink:title="Give the number of element contained in this sequence.">
<polygon fill="white" stroke="#666666" points="699,-19 610,-19 610,0 699,0 699,-19"/>
<text text-anchor="middle" x="654.5" y="-7" font-family="Helvetica,sans-Serif" font-size="10.00">Sequence::size</text>
</a>
</g>
</g>
<!-- Node7&#45;&gt;Node8 -->
<g id="edge10_Node000007_Node000008" class="edge">
<title>Node7&#45;&gt;Node8</title>
<g id="a_edge10_Node000007_Node000008"><a xlink:title=" ">
<path fill="none" stroke="#63b8ff" d="M574.33,-9.5C582.8,-9.5 591.42,-9.5 599.7,-9.5"/>
<polygon fill="#63b8ff" stroke="#63b8ff" points="599.98,-13 609.98,-9.5 599.98,-6 599.98,-13"/>
</a>
</g>
</g>
<!-- Node9 -->
<g id="Node000009" class="node">
<title>Node9</title>
<g id="a_Node000009"><a xlink:href="class_bit_vector.html#ab30ea2b408107e4e6bc8095b5a64a1dd" target="_top" xlink:title="Number of element inside this object.">
<polygon fill="white" stroke="#666666" points="821,-19 735,-19 735,0 821,0 821,-19"/>
<text text-anchor="middle" x="778" y="-7" font-family="Helvetica,sans-Serif" font-size="10.00">BitVector::size</text>
</a>
</g>
</g>
<!-- Node8&#45;&gt;Node9 -->
<g id="edge11_Node000008_Node000009" class="edge">
<title>Node8&#45;&gt;Node9</title>
<g id="a_edge11_Node000008_Node000009"><a xlink:title=" ">
<path fill="none" stroke="#63b8ff" d="M699.02,-9.5C707.25,-9.5 715.94,-9.5 724.41,-9.5"/>
<polygon fill="#63b8ff" stroke="#63b8ff" points="724.6,-13 734.6,-9.5 724.6,-6 724.6,-13"/>
</a>
</g>
</g>
<!-- Node10 -->
<g id="Node000010" class="node">
<title>Node10</title>
<g id="a_Node000010"><a xlink:href="class_bit_vector.html#a5339660cfb315ab5de7f78bdf5af4ce1" target="_top" xlink:title="Get BitVector::_element_number.">
<polygon fill="white" stroke="#666666" points="1019,-19 857,-19 857,0 1019,0 1019,-19"/>
<text text-anchor="middle" x="938" y="-7" font-family="Helvetica,sans-Serif" font-size="10.00">BitVector::getElementNumber</text>
</a>
</g>
</g>
<!-- Node9&#45;&gt;Node10 -->
<g id="edge12_Node000009_Node000010" class="edge">
<title>Node9&#45;&gt;Node10</title>
<g id="a_edge12_Node000009_Node000010"><a xlink:title=" ">
<path fill="none" stroke="#63b8ff" d="M821.34,-9.5C829.23,-9.5 837.74,-9.5 846.44,-9.5"/>
<polygon fill="#63b8ff" stroke="#63b8ff" points="846.71,-13 856.71,-9.5 846.71,-6 846.71,-13"/>
</a>
</g>
</g>
</g>
</svg>
