<?xml version="1.0" encoding="UTF-8" standalone="no"?>
<!DOCTYPE svg PUBLIC "-//W3C//DTD SVG 1.1//EN"
 "http://www.w3.org/Graphics/SVG/1.1/DTD/svg11.dtd">
<!-- Generated by graphviz version 2.43.0 (0)
 -->
<!-- Title: BitVector::lastBit Pages: 1 -->
<svg width="1145pt" height="365pt"
 viewBox="0.00 0.00 1145.00 364.97" xmlns="http://www.w3.org/2000/svg" xmlns:xlink="http://www.w3.org/1999/xlink">
<g id="graph0" class="graph" transform="scale(1 1) rotate(0) translate(4 360.97)">
<title>BitVector::lastBit</title>
<!-- Node1 -->
<g id="Node000001" class="node">
<title>Node1</title>
<g id="a_Node000001"><a xlink:title="Give the last coordinates thar can be contained inside BitVector::_data with the current BitVector::_...">
<polygon fill="#999999" stroke="#666666" points="1137,-187.97 1039,-187.97 1039,-168.97 1137,-168.97 1137,-187.97"/>
<text text-anchor="middle" x="1088" y="-175.97" font-family="Helvetica,sans-Serif" font-size="10.00">BitVector::lastBit</text>
</a>
</g>
</g>
<!-- Node2 -->
<g id="Node000002" class="node">
<title>Node2</title>
<g id="a_Node000002"><a xlink:href="class_bit_vector.html#ad64e921d07b9528a532477f282af135c" target="_top" xlink:title="How many element can fit in this vector without having to resize the vector ?">
<polygon fill="white" stroke="#666666" points="1003,-308.47 861,-308.47 861,-278.47 1003,-278.47 1003,-308.47"/>
<text text-anchor="start" x="869" y="-296.47" font-family="Helvetica,sans-Serif" font-size="10.00">BitVector::currentElement</text>
<text text-anchor="middle" x="932" y="-285.47" font-family="Helvetica,sans-Serif" font-size="10.00">Capacity</text>
</a>
</g>
</g>
<!-- Node1&#45;&gt;Node2 -->
<g id="edge1_Node000001_Node000002" class="edge">
<title>Node1&#45;&gt;Node2</title>
<g id="a_edge1_Node000001_Node000002"><a xlink:title=" ">
<path fill="none" stroke="#63b8ff" d="M1066.1,-194.08C1036.41,-216.25 982.37,-256.6 953.11,-278.45"/>
<polygon fill="#63b8ff" stroke="#63b8ff" points="1068.22,-196.86 1074.13,-188.08 1064.03,-191.26 1068.22,-196.86"/>
</a>
</g>
</g>
<!-- Node13 -->
<g id="Node000013" class="node">
<title>Node13</title>
<g id="a_Node000013"><a xlink:href="class_bit_vector.html#a9c63a7f853693a19595fa92d487f92b5" target="_top" xlink:title="Modify a bit inside BitVector::_data.">
<polygon fill="white" stroke="#666666" points="973,-150.97 891,-150.97 891,-131.97 973,-131.97 973,-150.97"/>
<text text-anchor="middle" x="932" y="-138.97" font-family="Helvetica,sans-Serif" font-size="10.00">BitVector::set</text>
</a>
</g>
</g>
<!-- Node1&#45;&gt;Node13 -->
<g id="edge12_Node000001_Node000013" class="edge">
<title>Node1&#45;&gt;Node13</title>
<g id="a_edge12_Node000001_Node000013"><a xlink:title=" ">
<path fill="none" stroke="#63b8ff" d="M1037.37,-166.54C1016.47,-161.53 992.49,-155.76 972.79,-151.03"/>
<polygon fill="#63b8ff" stroke="#63b8ff" points="1036.8,-170.01 1047.34,-168.94 1038.44,-163.2 1036.8,-170.01"/>
</a>
</g>
</g>
<!-- Node14 -->
<g id="Node000014" class="node">
<title>Node14</title>
<g id="a_Node000014"><a xlink:href="class_bit_vector.html#aca24053f655c825de0f06ec86fff1cec" target="_top" xlink:title="Replace an element by another element. Can add an element to the list if index = BitVector::_element_...">
<polygon fill="white" stroke="#666666" points="973,-187.97 891,-187.97 891,-168.97 973,-168.97 973,-187.97"/>
<text text-anchor="middle" x="932" y="-175.97" font-family="Helvetica,sans-Serif" font-size="10.00">BitVector::set</text>
</a>
</g>
</g>
<!-- Node1&#45;&gt;Node14 -->
<g id="edge13_Node000001_Node000014" class="edge">
<title>Node1&#45;&gt;Node14</title>
<g id="a_edge13_Node000001_Node000014"><a xlink:title=" ">
<path fill="none" stroke="#63b8ff" d="M1028.6,-178.47C1010.09,-178.47 990.05,-178.47 973.12,-178.47"/>
<polygon fill="#63b8ff" stroke="#63b8ff" points="1028.7,-181.97 1038.7,-178.47 1028.7,-174.97 1028.7,-181.97"/>
</a>
</g>
</g>
<!-- Node3 -->
<g id="Node000003" class="node">
<title>Node3</title>
<g id="a_Node000003"><a xlink:href="class_bit_vector.html#ad60f42244db2c82260326605916431d3" target="_top" xlink:title="Modify the number of known element in this object.">
<polygon fill="white" stroke="#666666" points="825,-356.97 664,-356.97 664,-337.97 825,-337.97 825,-356.97"/>
<text text-anchor="middle" x="744.5" y="-344.97" font-family="Helvetica,sans-Serif" font-size="10.00">BitVector::setElementNumber</text>
</a>
</g>
</g>
<!-- Node2&#45;&gt;Node3 -->
<g id="edge2_Node000002_Node000003" class="edge">
<title>Node2&#45;&gt;Node3</title>
<g id="a_edge2_Node000002_Node000003"><a xlink:title=" ">
<path fill="none" stroke="#63b8ff" d="M880.59,-311.79C863.11,-317.83 843.31,-324.3 825,-329.47 814.24,-332.51 802.55,-335.38 791.53,-337.91"/>
<polygon fill="#63b8ff" stroke="#63b8ff" points="881.75,-315.1 890.04,-308.5 879.44,-308.49 881.75,-315.1"/>
</a>
</g>
</g>
<!-- Node4 -->
<g id="Node000004" class="node">
<title>Node4</title>
<g id="a_Node000004"><a xlink:href="class_bit_vector.html#a87f84edf5dd56606b26e8741ba6ced02" target="_top" xlink:title="Remove a number of element from the vector.">
<polygon fill="white" stroke="#666666" points="591,-244.97 487,-244.97 487,-225.97 591,-225.97 591,-244.97"/>
<text text-anchor="middle" x="539" y="-232.97" font-family="Helvetica,sans-Serif" font-size="10.00">BitVector::remove</text>
</a>
</g>
</g>
<!-- Node3&#45;&gt;Node4 -->
<g id="edge3_Node000003_Node000004" class="edge">
<title>Node3&#45;&gt;Node4</title>
<g id="a_edge3_Node000003_Node000004"><a xlink:title=" ">
<path fill="none" stroke="#63b8ff" d="M677.61,-334.9C672.93,-333.29 668.34,-331.49 664,-329.47 616.24,-307.24 569.29,-264.34 549.63,-245.15"/>
<polygon fill="#63b8ff" stroke="#63b8ff" points="676.74,-338.29 687.33,-337.92 678.82,-331.61 676.74,-338.29"/>
</a>
</g>
</g>
<!-- Node5 -->
<g id="Node000005" class="node">
<title>Node5</title>
<g id="a_Node000005"><a xlink:href="class_sequence.html#a20eb6bdd6f5cba62a251eff4387a525d" target="_top" xlink:title="Remove a portion of the sequence.">
<polygon fill="white" stroke="#666666" points="413.5,-244.97 316.5,-244.97 316.5,-225.97 413.5,-225.97 413.5,-244.97"/>
<text text-anchor="middle" x="365" y="-232.97" font-family="Helvetica,sans-Serif" font-size="10.00">Sequence::erase</text>
</a>
</g>
</g>
<!-- Node4&#45;&gt;Node5 -->
<g id="edge4_Node000004_Node000005" class="edge">
<title>Node4&#45;&gt;Node5</title>
<g id="a_edge4_Node000004_Node000005"><a xlink:title=" ">
<path fill="none" stroke="#63b8ff" d="M476.58,-235.47C455.91,-235.47 433.16,-235.47 413.71,-235.47"/>
<polygon fill="#63b8ff" stroke="#63b8ff" points="476.86,-238.97 486.86,-235.47 476.86,-231.97 476.86,-238.97"/>
</a>
</g>
</g>
<!-- Node6 -->
<g id="Node000006" class="node">
<title>Node6</title>
<g id="a_Node000006"><a xlink:href="class_sequence.html#aa48778c592160ac60319f780817f491c" target="_top" xlink:title="Insert a number of chars at the position position .">
<polygon fill="white" stroke="#666666" points="414,-206.97 316,-206.97 316,-187.97 414,-187.97 414,-206.97"/>
<text text-anchor="middle" x="365" y="-194.97" font-family="Helvetica,sans-Serif" font-size="10.00">Sequence::insert</text>
</a>
</g>
</g>
<!-- Node4&#45;&gt;Node6 -->
<g id="edge5_Node000004_Node000006" class="edge">
<title>Node4&#45;&gt;Node6</title>
<g id="a_edge5_Node000004_Node000006"><a xlink:title=" ">
<path fill="none" stroke="#63b8ff" d="M484.8,-223.72C460.48,-218.34 432.05,-212.06 409.09,-206.99"/>
<polygon fill="#63b8ff" stroke="#63b8ff" points="484.08,-227.14 494.6,-225.88 485.59,-220.31 484.08,-227.14"/>
</a>
</g>
</g>
<!-- Node7 -->
<g id="Node000007" class="node">
<title>Node7</title>
<g id="a_Node000007"><a xlink:href="class_sequence.html#a3cf6cf5e54782f4d1a2ee07ec519523c" target="_top" xlink:title="Insert a char at the position position .">
<polygon fill="white" stroke="#666666" points="268,-243.97 170,-243.97 170,-224.97 268,-224.97 268,-243.97"/>
<text text-anchor="middle" x="219" y="-231.97" font-family="Helvetica,sans-Serif" font-size="10.00">Sequence::insert</text>
</a>
</g>
</g>
<!-- Node6&#45;&gt;Node7 -->
<g id="edge6_Node000006_Node000007" class="edge">
<title>Node6&#45;&gt;Node7</title>
<g id="a_edge6_Node000006_Node000007"><a xlink:title=" ">
<path fill="none" stroke="#63b8ff" d="M317.09,-209.52C297.77,-214.49 275.68,-220.16 257.46,-224.84"/>
<polygon fill="#63b8ff" stroke="#63b8ff" points="318.1,-212.88 326.92,-207 316.36,-206.1 318.1,-212.88"/>
</a>
</g>
</g>
<!-- Node8 -->
<g id="Node000008" class="node">
<title>Node8</title>
<g id="a_Node000008"><a xlink:href="class_sequence.html#aa57fd5a7fdd173374e56006ce1c47bdc" target="_top" xlink:title="Insert a number of chars at the the back of the sequence position .">
<polygon fill="white" stroke="#666666" points="280,-206.97 158,-206.97 158,-187.97 280,-187.97 280,-206.97"/>
<text text-anchor="middle" x="219" y="-194.97" font-family="Helvetica,sans-Serif" font-size="10.00">Sequence::insertBack</text>
</a>
</g>
</g>
<!-- Node6&#45;&gt;Node8 -->
<g id="edge7_Node000006_Node000008" class="edge">
<title>Node6&#45;&gt;Node8</title>
<g id="a_edge7_Node000006_Node000008"><a xlink:title=" ">
<path fill="none" stroke="#63b8ff" d="M305.61,-197.47C297.25,-197.47 288.64,-197.47 280.25,-197.47"/>
<polygon fill="#63b8ff" stroke="#63b8ff" points="305.65,-200.97 315.65,-197.47 305.65,-193.97 305.65,-200.97"/>
</a>
</g>
</g>
<!-- Node9 -->
<g id="Node000009" class="node">
<title>Node9</title>
<g id="a_Node000009"><a xlink:href="class_sequence.html#a092f380b654de9aaa8a770ec0948c454" target="_top" xlink:title="Insert a number of chars at the the front of the sequence position .">
<polygon fill="white" stroke="#666666" points="280,-169.97 158,-169.97 158,-150.97 280,-150.97 280,-169.97"/>
<text text-anchor="middle" x="219" y="-157.97" font-family="Helvetica,sans-Serif" font-size="10.00">Sequence::insertFront</text>
</a>
</g>
</g>
<!-- Node6&#45;&gt;Node9 -->
<g id="edge8_Node000006_Node000009" class="edge">
<title>Node6&#45;&gt;Node9</title>
<g id="a_edge8_Node000006_Node000009"><a xlink:title=" ">
<path fill="none" stroke="#63b8ff" d="M317.09,-185.42C297.77,-180.45 275.68,-174.78 257.46,-170.09"/>
<polygon fill="#63b8ff" stroke="#63b8ff" points="316.36,-188.84 326.92,-187.94 318.1,-182.06 316.36,-188.84"/>
</a>
</g>
</g>
<!-- Node10 -->
<g id="Node000010" class="node">
<title>Node10</title>
<g id="a_Node000010"><a xlink:href="class_sequence.html#a16e70626e330194c1507ed339c9c629c" target="_top" xlink:title="Insert a char at the the back of the sequence position .">
<polygon fill="white" stroke="#666666" points="122,-206.97 0,-206.97 0,-187.97 122,-187.97 122,-206.97"/>
<text text-anchor="middle" x="61" y="-194.97" font-family="Helvetica,sans-Serif" font-size="10.00">Sequence::insertBack</text>
</a>
</g>
</g>
<!-- Node9&#45;&gt;Node10 -->
<g id="edge9_Node000009_Node000010" class="edge">
<title>Node9&#45;&gt;Node10</title>
<g id="a_edge9_Node000009_Node000010"><a xlink:title=" ">
<path fill="none" stroke="#63b8ff" d="M168.01,-172.33C146.78,-177.36 122.36,-183.15 102.31,-187.91"/>
<polygon fill="#63b8ff" stroke="#63b8ff" points="168.9,-175.71 177.83,-170 167.29,-168.9 168.9,-175.71"/>
</a>
</g>
</g>
<!-- Node11 -->
<g id="Node000011" class="node">
<title>Node11</title>
<g id="a_Node000011"><a xlink:href="class_sequence.html#a1fa6868ce587e1f3d779bb226cfda548" target="_top" xlink:title="Insert a char at the the front of the sequence position .">
<polygon fill="white" stroke="#666666" points="122,-169.97 0,-169.97 0,-150.97 122,-150.97 122,-169.97"/>
<text text-anchor="middle" x="61" y="-157.97" font-family="Helvetica,sans-Serif" font-size="10.00">Sequence::insertFront</text>
</a>
</g>
</g>
<!-- Node9&#45;&gt;Node11 -->
<g id="edge10_Node000009_Node000011" class="edge">
<title>Node9&#45;&gt;Node11</title>
<g id="a_edge10_Node000009_Node000011"><a xlink:title=" ">
<path fill="none" stroke="#63b8ff" d="M147.46,-160.47C139.01,-160.47 130.44,-160.47 122.15,-160.47"/>
<polygon fill="#63b8ff" stroke="#63b8ff" points="147.69,-163.97 157.69,-160.47 147.69,-156.97 147.69,-163.97"/>
</a>
</g>
</g>
<!-- Node12 -->
<g id="Node000012" class="node">
<title>Node12</title>
<g id="a_Node000012"><a xlink:href="class_sequence.html#ae293cd5124445b604bbcba3a5f01a48a" target="_top" xlink:title="Main Constructor. Construct a new Sequence object.">
<polygon fill="white" stroke="#666666" points="119.5,-132.97 2.5,-132.97 2.5,-113.97 119.5,-113.97 119.5,-132.97"/>
<text text-anchor="middle" x="61" y="-120.97" font-family="Helvetica,sans-Serif" font-size="10.00">Sequence::Sequence</text>
</a>
</g>
</g>
<!-- Node9&#45;&gt;Node12 -->
<g id="edge11_Node000009_Node000012" class="edge">
<title>Node9&#45;&gt;Node12</title>
<g id="a_edge11_Node000009_Node000012"><a xlink:title=" ">
<path fill="none" stroke="#63b8ff" d="M168.01,-148.61C146.78,-143.58 122.36,-137.78 102.31,-133.03"/>
<polygon fill="#63b8ff" stroke="#63b8ff" points="167.29,-152.04 177.83,-150.94 168.9,-145.23 167.29,-152.04"/>
</a>
</g>
</g>
<!-- Node14&#45;&gt;Node4 -->
<g id="edge26_Node000014_Node000004" class="edge">
<title>Node14&#45;&gt;Node4</title>
<g id="a_edge26_Node000014_Node000004"><a xlink:title=" ">
<path fill="none" stroke="#63b8ff" d="M896.18,-191.41C875.73,-198.48 849.22,-206.74 825,-211.47 744.22,-227.25 648.57,-232.66 591.17,-234.51"/>
<polygon fill="#63b8ff" stroke="#63b8ff" points="897.43,-194.69 905.7,-188.06 895.1,-188.08 897.43,-194.69"/>
</a>
</g>
</g>
<!-- Node14&#45;&gt;Node6 -->
<g id="edge22_Node000014_Node000006" class="edge">
<title>Node14&#45;&gt;Node6</title>
<g id="a_edge22_Node000014_Node000006"><a xlink:title=" ">
<path fill="none" stroke="#63b8ff" d="M880.52,-180.17C772.51,-183.8 520.21,-192.28 414.23,-195.85"/>
<polygon fill="#63b8ff" stroke="#63b8ff" points="880.94,-183.65 890.82,-179.82 880.71,-176.66 880.94,-183.65"/>
</a>
</g>
</g>
<!-- Node15 -->
<g id="Node000015" class="node">
<title>Node15</title>
<g id="a_Node000015"><a xlink:href="class_bit_vector.html#afbdbe8a5003f5941ffd5ab095cf87d88" target="_top" xlink:title="Add an element at the end of the vector.">
<polygon fill="white" stroke="#666666" points="796,-130.97 693,-130.97 693,-111.97 796,-111.97 796,-130.97"/>
<text text-anchor="middle" x="744.5" y="-118.97" font-family="Helvetica,sans-Serif" font-size="10.00">BitVector::append</text>
</a>
</g>
</g>
<!-- Node14&#45;&gt;Node15 -->
<g id="edge14_Node000014_Node000015" class="edge">
<title>Node14&#45;&gt;Node15</title>
<g id="a_edge14_Node000014_Node000015"><a xlink:title=" ">
<path fill="none" stroke="#63b8ff" d="M880.94,-166.53C874.19,-164.65 867.4,-162.61 861,-160.47 844.56,-154.96 841.32,-151.31 825,-145.47 810.34,-140.22 793.9,-135.13 779.79,-130.99"/>
<polygon fill="#63b8ff" stroke="#63b8ff" points="880.17,-169.95 890.73,-169.17 881.99,-163.19 880.17,-169.95"/>
</a>
</g>
</g>
<!-- Node16 -->
<g id="Node000016" class="node">
<title>Node16</title>
<g id="a_Node000016"><a xlink:href="class_bit_vector.html#a5547d55a697d61de026d0a94e743624b" target="_top" xlink:title="Construct a new Bit Vector object.">
<polygon fill="white" stroke="#666666" points="594.5,-93.97 483.5,-93.97 483.5,-74.97 594.5,-74.97 594.5,-93.97"/>
<text text-anchor="middle" x="539" y="-81.97" font-family="Helvetica,sans-Serif" font-size="10.00">BitVector::BitVector</text>
</a>
</g>
</g>
<!-- Node14&#45;&gt;Node16 -->
<g id="edge21_Node000014_Node000016" class="edge">
<title>Node14&#45;&gt;Node16</title>
<g id="a_edge21_Node000014_Node000016"><a xlink:title=" ">
<path fill="none" stroke="#63b8ff" d="M881.12,-170.66C873.96,-168.15 867,-164.84 861,-160.47 836.78,-142.83 850.75,-118.8 825,-103.47 752.35,-60.22 650.05,-66.15 589.83,-74.94"/>
<polygon fill="#63b8ff" stroke="#63b8ff" points="880.35,-174.08 890.93,-173.6 882.36,-167.38 880.35,-174.08"/>
</a>
</g>
</g>
<!-- Node17 -->
<g id="Node000017" class="node">
<title>Node17</title>
<g id="a_Node000017"><a xlink:href="class_bit_vector.html#a686af396e4dff1536b7588213726c4cc" target="_top" xlink:title="Insert a number of blank position inside BitVector::_data.">
<polygon fill="white" stroke="#666666" points="628,-130.97 450,-130.97 450,-111.97 628,-111.97 628,-130.97"/>
<text text-anchor="middle" x="539" y="-118.97" font-family="Helvetica,sans-Serif" font-size="10.00">BitVector::makeRoomForElement</text>
</a>
</g>
</g>
<!-- Node14&#45;&gt;Node17 -->
<g id="edge25_Node000014_Node000017" class="edge">
<title>Node14&#45;&gt;Node17</title>
<g id="a_edge25_Node000014_Node000017"><a xlink:title=" ">
<path fill="none" stroke="#63b8ff" d="M880.78,-171.48C827.09,-163.98 739.5,-151.63 664,-140.47 643.53,-137.44 621.18,-134.05 601.16,-130.97"/>
<polygon fill="#63b8ff" stroke="#63b8ff" points="880.33,-174.96 890.72,-172.87 881.3,-168.02 880.33,-174.96"/>
</a>
</g>
</g>
<!-- Node18 -->
<g id="Node000018" class="node">
<title>Node18</title>
<g id="a_Node000018"><a xlink:href="class_bit_vector.html#a9f86c96c013632abd9d18feafe78d72e" target="_top" xlink:title="Insert a number_of_elements inside the vector at the index pos .">
<polygon fill="white" stroke="#666666" points="412.5,-92.97 317.5,-92.97 317.5,-73.97 412.5,-73.97 412.5,-92.97"/>
<text text-anchor="middle" x="365" y="-80.97" font-family="Helvetica,sans-Serif" font-size="10.00">BitVector::insert</text>
</a>
</g>
</g>
<!-- Node14&#45;&gt;Node18 -->
<g id="edge23_Node000014_Node000018" class="edge">
<title>Node14&#45;&gt;Node18</title>
<g id="a_edge23_Node000014_Node000018"><a xlink:title=" ">
<path fill="none" stroke="#63b8ff" d="M880.76,-171.89C873.54,-169.22 866.65,-165.54 861,-160.47 827.1,-130.02 862.45,-90.42 825,-64.47 816.43,-58.53 493.5,-61.91 450,-66.47 435.2,-68.02 419.15,-70.96 405.08,-73.95"/>
<polygon fill="#63b8ff" stroke="#63b8ff" points="880.16,-175.36 890.74,-174.92 882.19,-168.66 880.16,-175.36"/>
</a>
</g>
</g>
<!-- Node19 -->
<g id="Node000019" class="node">
<title>Node19</title>
<g id="a_Node000019"><a xlink:href="class_bit_vector.html#a915743b3f94c75c22317d160bfa741ff" target="_top" xlink:title="Insert a number_of_elements inside the vector at the index pos .">
<polygon fill="white" stroke="#666666" points="412.5,-55.97 317.5,-55.97 317.5,-36.97 412.5,-36.97 412.5,-55.97"/>
<text text-anchor="middle" x="365" y="-43.97" font-family="Helvetica,sans-Serif" font-size="10.00">BitVector::insert</text>
</a>
</g>
</g>
<!-- Node14&#45;&gt;Node19 -->
<g id="edge24_Node000014_Node000019" class="edge">
<title>Node14&#45;&gt;Node19</title>
<g id="a_edge24_Node000014_Node000019"><a xlink:title=" ">
<path fill="none" stroke="#63b8ff" d="M881.39,-172.28C873.91,-169.59 866.77,-165.79 861,-160.47 825.03,-127.32 864.53,-85.27 825,-56.47 691.33,40.93 472.79,-13 394.79,-36.92"/>
<polygon fill="#63b8ff" stroke="#63b8ff" points="880.4,-175.64 890.98,-175.15 882.4,-168.93 880.4,-175.64"/>
</a>
</g>
</g>
<!-- Node20 -->
<g id="Node000020" class="node">
<title>Node20</title>
<g id="a_Node000020"><a xlink:href="class_bit_vector.html#a2af5c1a1a0050e2b52d06c38436280fd" target="_top" xlink:title="Add an element at the end of the vector.">
<polygon fill="white" stroke="#666666" points="796,-319.97 693,-319.97 693,-300.97 796,-300.97 796,-319.97"/>
<text text-anchor="middle" x="744.5" y="-307.97" font-family="Helvetica,sans-Serif" font-size="10.00">BitVector::append</text>
</a>
</g>
</g>
<!-- Node14&#45;&gt;Node20 -->
<g id="edge20_Node000014_Node000020" class="edge">
<title>Node14&#45;&gt;Node20</title>
<g id="a_edge20_Node000014_Node000020"><a xlink:title=" ">
<path fill="none" stroke="#63b8ff" d="M919.38,-196.65C902.05,-222.21 866.93,-268.34 825,-292.47 816.29,-297.48 806.3,-301.1 796.4,-303.71"/>
<polygon fill="#63b8ff" stroke="#63b8ff" points="922.35,-198.51 924.94,-188.24 916.51,-194.65 922.35,-198.51"/>
</a>
</g>
</g>
<!-- Node21 -->
<g id="Node000021" class="node">
<title>Node21</title>
<g id="a_Node000021"><a xlink:href="class_bit_vector.html#a38e8be69974c874857dd7cb6a52429ac" target="_top" xlink:title="Replace an element by another element. Can add an element to the list if index = BitVector::_element_...">
<polygon fill="white" stroke="#666666" points="785.5,-282.97 703.5,-282.97 703.5,-263.97 785.5,-263.97 785.5,-282.97"/>
<text text-anchor="middle" x="744.5" y="-270.97" font-family="Helvetica,sans-Serif" font-size="10.00">BitVector::set</text>
</a>
</g>
</g>
<!-- Node14&#45;&gt;Node21 -->
<g id="edge27_Node000014_Node000021" class="edge">
<title>Node14&#45;&gt;Node21</title>
<g id="a_edge27_Node000014_Node000021"><a xlink:title=" ">
<path fill="none" stroke="#63b8ff" d="M911.36,-194.25C890.85,-210.07 857.24,-234.23 825,-249.47 812.62,-255.32 798.48,-260.14 785.59,-263.88"/>
<polygon fill="#63b8ff" stroke="#63b8ff" points="913.59,-196.95 919.31,-188.02 909.27,-191.44 913.59,-196.95"/>
</a>
</g>
</g>
<!-- Node15&#45;&gt;Node16 -->
<g id="edge15_Node000015_Node000016" class="edge">
<title>Node15&#45;&gt;Node16</title>
<g id="a_edge15_Node000015_Node000016"><a xlink:title=" ">
<path fill="none" stroke="#63b8ff" d="M682.99,-110.47C654.2,-105.23 620.11,-99.03 592.43,-94"/>
<polygon fill="#63b8ff" stroke="#63b8ff" points="682.47,-113.93 692.94,-112.28 683.72,-107.04 682.47,-113.93"/>
</a>
</g>
</g>
<!-- Node15&#45;&gt;Node17 -->
<g id="edge16_Node000015_Node000017" class="edge">
<title>Node15&#45;&gt;Node17</title>
<g id="a_edge16_Node000015_Node000017"><a xlink:title=" ">
<path fill="none" stroke="#63b8ff" d="M682.58,-121.47C665.53,-121.47 646.65,-121.47 628.36,-121.47"/>
<polygon fill="#63b8ff" stroke="#63b8ff" points="682.94,-124.97 692.94,-121.47 682.94,-117.97 682.94,-124.97"/>
</a>
</g>
</g>
<!-- Node17&#45;&gt;Node6 -->
<g id="edge17_Node000017_Node000006" class="edge">
<title>Node17&#45;&gt;Node6</title>
<g id="a_edge17_Node000017_Node000006"><a xlink:title=" ">
<path fill="none" stroke="#63b8ff" d="M506.63,-135.33C472.13,-150.57 417.62,-174.66 387.61,-187.92"/>
<polygon fill="#63b8ff" stroke="#63b8ff" points="508.48,-138.34 516.22,-131.09 505.65,-131.94 508.48,-138.34"/>
</a>
</g>
</g>
<!-- Node17&#45;&gt;Node18 -->
<g id="edge18_Node000017_Node000018" class="edge">
<title>Node17&#45;&gt;Node18</title>
<g id="a_edge18_Node000017_Node000018"><a xlink:title=" ">
<path fill="none" stroke="#63b8ff" d="M480.08,-109.9C470.04,-107.81 459.71,-105.62 450,-103.47 435.22,-100.2 419.02,-96.4 404.83,-92.99"/>
<polygon fill="#63b8ff" stroke="#63b8ff" points="479.48,-113.35 489.99,-111.94 480.9,-106.49 479.48,-113.35"/>
</a>
</g>
</g>
<!-- Node17&#45;&gt;Node19 -->
<g id="edge19_Node000017_Node000019" class="edge">
<title>Node17&#45;&gt;Node19</title>
<g id="a_edge19_Node000017_Node000019"><a xlink:title=" ">
<path fill="none" stroke="#63b8ff" d="M460.19,-108.38C456.68,-106.91 453.26,-105.28 450,-103.47 429.66,-92.17 433.27,-78.5 414,-65.47 408.51,-61.75 402.18,-58.6 395.96,-55.99"/>
<polygon fill="#63b8ff" stroke="#63b8ff" points="459.11,-111.71 469.7,-111.89 461.54,-105.14 459.11,-111.71"/>
</a>
</g>
</g>
</g>
</svg>
