<?xml version="1.0" encoding="UTF-8" standalone="no"?>
<!DOCTYPE svg PUBLIC "-//W3C//DTD SVG 1.1//EN"
 "http://www.w3.org/Graphics/SVG/1.1/DTD/svg11.dtd">
<!-- Generated by graphviz version 2.43.0 (0)
 -->
<!-- Title: Sequence::isAmino Pages: 1 -->
<svg width="1209pt" height="138pt"
 viewBox="0.00 0.00 1209.00 138.00" xmlns="http://www.w3.org/2000/svg" xmlns:xlink="http://www.w3.org/1999/xlink">
<g id="graph0" class="graph" transform="scale(1 1) rotate(0) translate(4 134)">
<title>Sequence::isAmino</title>
<!-- Node1 -->
<g id="Node000001" class="node">
<title>Node1</title>
<g id="a_Node000001"><a xlink:title="Say if a symbol can be an amino acid.">
<polygon fill="#999999" stroke="#666666" points="110,-38 0,-38 0,-19 110,-19 110,-38"/>
<text text-anchor="middle" x="55" y="-26" font-family="Helvetica,sans-Serif" font-size="10.00">Sequence::isAmino</text>
</a>
</g>
</g>
<!-- Node2 -->
<g id="Node000002" class="node">
<title>Node2</title>
<g id="a_Node000002"><a xlink:href="class_sequence.html#ad40777fd2f7ad3ae247fab02459e6759" target="_top" xlink:title="Retrieve the symbol at the position in the sequence.">
<polygon fill="white" stroke="#666666" points="404,-38 318,-38 318,-19 404,-19 404,-38"/>
<text text-anchor="middle" x="361" y="-26" font-family="Helvetica,sans-Serif" font-size="10.00">Sequence::get</text>
</a>
</g>
</g>
<!-- Node1&#45;&gt;Node2 -->
<g id="edge1_Node000001_Node000002" class="edge">
<title>Node1&#45;&gt;Node2</title>
<g id="a_edge1_Node000001_Node000002"><a xlink:title=" ">
<path fill="none" stroke="#63b8ff" d="M110.35,-28.5C166.18,-28.5 252.5,-28.5 307.61,-28.5"/>
<polygon fill="#63b8ff" stroke="#63b8ff" points="307.86,-32 317.86,-28.5 307.86,-25 307.86,-32"/>
</a>
</g>
</g>
<!-- Node11 -->
<g id="Node000011" class="node">
<title>Node11</title>
<g id="a_Node000011"><a xlink:href="class_sequence.html#a1c338fe40d1251531461f2a737f235cd" target="_top" xlink:title="Say if a symbol can be an amino acid.">
<polygon fill="white" stroke="#666666" points="282,-19 146,-19 146,0 282,0 282,-19"/>
<text text-anchor="middle" x="214" y="-7" font-family="Helvetica,sans-Serif" font-size="10.00">Sequence::isLegalAmino</text>
</a>
</g>
</g>
<!-- Node1&#45;&gt;Node11 -->
<g id="edge14_Node000001_Node000011" class="edge">
<title>Node1&#45;&gt;Node11</title>
<g id="a_edge14_Node000001_Node000011"><a xlink:title=" ">
<path fill="none" stroke="#63b8ff" d="M110.03,-21.96C118.32,-20.96 127.01,-19.91 135.68,-18.86"/>
<polygon fill="#63b8ff" stroke="#63b8ff" points="136.32,-22.3 145.83,-17.63 135.48,-15.36 136.32,-22.3"/>
</a>
</g>
</g>
<!-- Node2&#45;&gt;Node2 -->
<g id="edge5_Node000002_Node000002" class="edge">
<title>Node2&#45;&gt;Node2</title>
<g id="a_edge5_Node000002_Node000002"><a xlink:title=" ">
<path fill="none" stroke="#63b8ff" d="M338.5,-38.08C327.55,-46.73 335.05,-56 361,-56 377.62,-56 386.68,-52.2 388.16,-47.19"/>
<polygon fill="#63b8ff" stroke="#63b8ff" points="391.17,-45.39 383.5,-38.08 384.94,-48.58 391.17,-45.39"/>
</a>
</g>
</g>
<!-- Node3 -->
<g id="Node000003" class="node">
<title>Node3</title>
<g id="a_Node000003"><a xlink:href="class_bit_vector.html#aebe159444eb9d619959b7325ac5dac2d" target="_top" xlink:title="Return the value of the bit at the position coord.">
<polygon fill="white" stroke="#666666" points="557.5,-112 474.5,-112 474.5,-93 557.5,-93 557.5,-112"/>
<text text-anchor="middle" x="516" y="-100" font-family="Helvetica,sans-Serif" font-size="10.00">BitVector::get</text>
</a>
</g>
</g>
<!-- Node2&#45;&gt;Node3 -->
<g id="edge2_Node000002_Node000003" class="edge">
<title>Node2&#45;&gt;Node3</title>
<g id="a_edge2_Node000002_Node000003"><a xlink:title=" ">
<path fill="none" stroke="#63b8ff" d="M372.76,-38.34C387.07,-50.9 413.62,-72.43 440,-84.5 447.7,-88.02 456.18,-90.91 464.57,-93.25"/>
<polygon fill="#63b8ff" stroke="#63b8ff" points="463.78,-96.66 474.34,-95.75 465.52,-89.88 463.78,-96.66"/>
</a>
</g>
</g>
<!-- Node5 -->
<g id="Node000005" class="node">
<title>Node5</title>
<g id="a_Node000005"><a xlink:href="class_sequence.html#a8181f024304b3fb5f55c7118f648cc61" target="_top" xlink:title="Return a char (same format as Sequence::getType()) that indicate which alphabet is used in the during...">
<polygon fill="white" stroke="#666666" points="592,-75 440,-75 440,-56 592,-56 592,-75"/>
<text text-anchor="middle" x="516" y="-63" font-family="Helvetica,sans-Serif" font-size="10.00">Sequence::getEncodingType</text>
</a>
</g>
</g>
<!-- Node2&#45;&gt;Node5 -->
<g id="edge6_Node000002_Node000005" class="edge">
<title>Node2&#45;&gt;Node5</title>
<g id="a_edge6_Node000002_Node000005"><a xlink:title=" ">
<path fill="none" stroke="#63b8ff" d="M401.4,-38.03C420.96,-42.76 444.78,-48.52 465.55,-53.54"/>
<polygon fill="#63b8ff" stroke="#63b8ff" points="464.92,-56.99 475.47,-55.94 466.57,-50.19 464.92,-56.99"/>
</a>
</g>
</g>
<!-- Node6 -->
<g id="Node000006" class="node">
<title>Node6</title>
<g id="a_Node000006"><a xlink:href="class_sequence.html#a49a9126010c0332493c803ddca005394" target="_top" xlink:title="Give a map that compress / decompress char used by Sequence.">
<polygon fill="white" stroke="#666666" points="585.5,-38 446.5,-38 446.5,-19 585.5,-19 585.5,-38"/>
<text text-anchor="middle" x="516" y="-26" font-family="Helvetica,sans-Serif" font-size="10.00">Sequence::translationTab</text>
</a>
</g>
</g>
<!-- Node2&#45;&gt;Node6 -->
<g id="edge7_Node000002_Node000006" class="edge">
<title>Node2&#45;&gt;Node6</title>
<g id="a_edge7_Node000002_Node000006"><a xlink:title=" ">
<path fill="none" stroke="#63b8ff" d="M404.21,-22.39C414.24,-21.99 425.25,-21.78 436.32,-21.75"/>
<polygon fill="#63b8ff" stroke="#63b8ff" points="436.47,-25.25 446.48,-21.78 436.49,-18.25 436.47,-25.25"/>
</a>
</g>
</g>
<!-- Node3&#45;&gt;Node3 -->
<g id="edge3_Node000003_Node000003" class="edge">
<title>Node3&#45;&gt;Node3</title>
<g id="a_edge3_Node000003_Node000003"><a xlink:title=" ">
<path fill="none" stroke="#63b8ff" d="M492.26,-112.08C480.72,-120.73 488.63,-130 516,-130 533.96,-130 543.54,-126.01 544.75,-120.82"/>
<polygon fill="#63b8ff" stroke="#63b8ff" points="547.75,-119.02 539.74,-112.08 541.67,-122.5 547.75,-119.02"/>
</a>
</g>
</g>
<!-- Node4 -->
<g id="Node000004" class="node">
<title>Node4</title>
<g id="a_Node000004"><a xlink:href="class_bit_vector_1_1_coords.html#a2892f7f46c4af93f9733e312229d8ec1" target="_top" xlink:title="Get Coords::octet .">
<polygon fill="white" stroke="#666666" points="745.5,-117.5 638.5,-117.5 638.5,-87.5 745.5,-87.5 745.5,-117.5"/>
<text text-anchor="start" x="646.5" y="-105.5" font-family="Helvetica,sans-Serif" font-size="10.00">BitVector::Coords::</text>
<text text-anchor="middle" x="692" y="-94.5" font-family="Helvetica,sans-Serif" font-size="10.00">getOctet</text>
</a>
</g>
</g>
<!-- Node3&#45;&gt;Node4 -->
<g id="edge4_Node000003_Node000004" class="edge">
<title>Node3&#45;&gt;Node4</title>
<g id="a_edge4_Node000003_Node000004"><a xlink:title=" ">
<path fill="none" stroke="#63b8ff" d="M557.8,-102.5C578.71,-102.5 604.64,-102.5 628.05,-102.5"/>
<polygon fill="#63b8ff" stroke="#63b8ff" points="628.25,-106 638.25,-102.5 628.25,-99 628.25,-106"/>
</a>
</g>
</g>
<!-- Node6&#45;&gt;Node2 -->
<g id="edge13_Node000006_Node000002" class="edge">
<title>Node6&#45;&gt;Node2</title>
<g id="a_edge13_Node000006_Node000002"><a xlink:title=" ">
<path fill="none" stroke="#63b8ff" d="M446.48,-35.22C435.68,-35.31 424.67,-35.21 414.32,-34.94"/>
<polygon fill="#63b8ff" stroke="#63b8ff" points="414.32,-31.44 404.21,-34.61 414.09,-38.44 414.32,-31.44"/>
</a>
</g>
</g>
<!-- Node7 -->
<g id="Node000007" class="node">
<title>Node7</title>
<g id="a_Node000007"><a xlink:href="class_sequence.html#a555c6e58957c4d07028eb5c67b1732ac" target="_top" xlink:title="Function used by Sequence::translationTab to create their compression map.">
<polygon fill="white" stroke="#666666" points="756,-19 628,-19 628,0 756,0 756,-19"/>
<text text-anchor="middle" x="692" y="-7" font-family="Helvetica,sans-Serif" font-size="10.00">Sequence::fillCodeMap</text>
</a>
</g>
</g>
<!-- Node6&#45;&gt;Node7 -->
<g id="edge8_Node000006_Node000007" class="edge">
<title>Node6&#45;&gt;Node7</title>
<g id="a_edge8_Node000006_Node000007"><a xlink:title=" ">
<path fill="none" stroke="#63b8ff" d="M585.77,-20.99C596.28,-19.84 607.16,-18.65 617.76,-17.5"/>
<polygon fill="#63b8ff" stroke="#63b8ff" points="618.26,-20.96 627.82,-16.4 617.5,-14.01 618.26,-20.96"/>
</a>
</g>
</g>
<!-- Node7&#45;&gt;Node2 -->
<g id="edge9_Node000007_Node000002" class="edge">
<title>Node7&#45;&gt;Node2</title>
<g id="a_edge9_Node000007_Node000002"><a xlink:title=" ">
<path fill="none" stroke="#63b8ff" d="M627.83,-5.35C576.92,-3 503.6,-1.87 440,-9.5 428.01,-10.94 415.21,-13.58 403.51,-16.44"/>
<polygon fill="#63b8ff" stroke="#63b8ff" points="402.38,-13.12 393.56,-18.99 404.12,-19.9 402.38,-13.12"/>
</a>
</g>
</g>
<!-- Node8 -->
<g id="Node000008" class="node">
<title>Node8</title>
<g id="a_Node000008"><a xlink:href="class_sequence.html#acf21040958590f98163b3d11f19ea93e" target="_top" xlink:title="Give the number of element contained in this sequence.">
<polygon fill="white" stroke="#666666" points="881,-19 792,-19 792,0 881,0 881,-19"/>
<text text-anchor="middle" x="836.5" y="-7" font-family="Helvetica,sans-Serif" font-size="10.00">Sequence::size</text>
</a>
</g>
</g>
<!-- Node7&#45;&gt;Node8 -->
<g id="edge10_Node000007_Node000008" class="edge">
<title>Node7&#45;&gt;Node8</title>
<g id="a_edge10_Node000007_Node000008"><a xlink:title=" ">
<path fill="none" stroke="#63b8ff" d="M756.33,-9.5C764.8,-9.5 773.42,-9.5 781.7,-9.5"/>
<polygon fill="#63b8ff" stroke="#63b8ff" points="781.98,-13 791.98,-9.5 781.98,-6 781.98,-13"/>
</a>
</g>
</g>
<!-- Node9 -->
<g id="Node000009" class="node">
<title>Node9</title>
<g id="a_Node000009"><a xlink:href="class_bit_vector.html#ab30ea2b408107e4e6bc8095b5a64a1dd" target="_top" xlink:title="Number of element inside this object.">
<polygon fill="white" stroke="#666666" points="1003,-19 917,-19 917,0 1003,0 1003,-19"/>
<text text-anchor="middle" x="960" y="-7" font-family="Helvetica,sans-Serif" font-size="10.00">BitVector::size</text>
</a>
</g>
</g>
<!-- Node8&#45;&gt;Node9 -->
<g id="edge11_Node000008_Node000009" class="edge">
<title>Node8&#45;&gt;Node9</title>
<g id="a_edge11_Node000008_Node000009"><a xlink:title=" ">
<path fill="none" stroke="#63b8ff" d="M881.02,-9.5C889.25,-9.5 897.94,-9.5 906.41,-9.5"/>
<polygon fill="#63b8ff" stroke="#63b8ff" points="906.6,-13 916.6,-9.5 906.6,-6 906.6,-13"/>
</a>
</g>
</g>
<!-- Node10 -->
<g id="Node000010" class="node">
<title>Node10</title>
<g id="a_Node000010"><a xlink:href="class_bit_vector.html#a5339660cfb315ab5de7f78bdf5af4ce1" target="_top" xlink:title="Get BitVector::_element_number.">
<polygon fill="white" stroke="#666666" points="1201,-19 1039,-19 1039,0 1201,0 1201,-19"/>
<text text-anchor="middle" x="1120" y="-7" font-family="Helvetica,sans-Serif" font-size="10.00">BitVector::getElementNumber</text>
</a>
</g>
</g>
<!-- Node9&#45;&gt;Node10 -->
<g id="edge12_Node000009_Node000010" class="edge">
<title>Node9&#45;&gt;Node10</title>
<g id="a_edge12_Node000009_Node000010"><a xlink:title=" ">
<path fill="none" stroke="#63b8ff" d="M1003.34,-9.5C1011.23,-9.5 1019.74,-9.5 1028.44,-9.5"/>
<polygon fill="#63b8ff" stroke="#63b8ff" points="1028.71,-13 1038.71,-9.5 1028.71,-6 1028.71,-13"/>
</a>
</g>
</g>
<!-- Node11&#45;&gt;Node2 -->
<g id="edge15_Node000011_Node000002" class="edge">
<title>Node11&#45;&gt;Node2</title>
<g id="a_edge15_Node000011_Node000002"><a xlink:title=" ">
<path fill="none" stroke="#63b8ff" d="M282.41,-18.33C291.03,-19.46 299.75,-20.6 308.07,-21.7"/>
<polygon fill="#63b8ff" stroke="#63b8ff" points="307.63,-25.17 318,-23 308.54,-18.23 307.63,-25.17"/>
</a>
</g>
</g>
</g>
</svg>
