<?xml version="1.0" encoding="UTF-8" standalone="no"?>
<!DOCTYPE svg PUBLIC "-//W3C//DTD SVG 1.1//EN"
 "http://www.w3.org/Graphics/SVG/1.1/DTD/svg11.dtd">
<!-- Generated by graphviz version 2.43.0 (0)
 -->
<!-- Title: Sequence::Sequence Pages: 1 -->
<svg width="2357pt" height="726pt"
 viewBox="0.00 0.00 2357.00 726.21" xmlns="http://www.w3.org/2000/svg" xmlns:xlink="http://www.w3.org/1999/xlink">
<g id="graph0" class="graph" transform="scale(1 1) rotate(0) translate(4 722.21)">
<title>Sequence::Sequence</title>
<!-- Node1 -->
<g id="Node000001" class="node">
<title>Node1</title>
<g id="a_Node000001"><a xlink:title="Main Constructor. Construct a new Sequence object.">
<polygon fill="#999999" stroke="#666666" points="117,-123.5 0,-123.5 0,-104.5 117,-104.5 117,-123.5"/>
<text text-anchor="middle" x="58.5" y="-111.5" font-family="Helvetica,sans-Serif" font-size="10.00">Sequence::Sequence</text>
</a>
</g>
</g>
<!-- Node2 -->
<g id="Node000002" class="node">
<title>Node2</title>
<g id="a_Node000002"><a xlink:href="class_sequence.html#ac303ef02f197df4fb973b5de8ad1dce6" target="_top" xlink:title="When the sequence append a new cars, the Sequence will no longer search to update is Sequence::type.">
<polygon fill="white" stroke="#666666" points="308,-180.5 153,-180.5 153,-161.5 308,-161.5 308,-180.5"/>
<text text-anchor="middle" x="230.5" y="-168.5" font-family="Helvetica,sans-Serif" font-size="10.00">Sequence::endTypeResearch</text>
</a>
</g>
</g>
<!-- Node1&#45;&gt;Node2 -->
<g id="edge1_Node000001_Node000002" class="edge">
<title>Node1&#45;&gt;Node2</title>
<g id="a_edge1_Node000001_Node000002"><a xlink:title=" ">
<path fill="none" stroke="#63b8ff" d="M86.01,-123.64C104.69,-130.36 130.3,-139.44 153,-147 164.44,-150.81 176.9,-154.79 188.37,-158.39"/>
<polygon fill="#63b8ff" stroke="#63b8ff" points="187.57,-161.8 198.15,-161.44 189.65,-155.12 187.57,-161.8"/>
</a>
</g>
</g>
<!-- Node3 -->
<g id="Node000003" class="node">
<title>Node3</title>
<g id="a_Node000003"><a xlink:href="class_sequence.html#ad40777fd2f7ad3ae247fab02459e6759" target="_top" xlink:title="Retrieve the symbol at the position in the sequence.">
<polygon fill="white" stroke="#666666" points="649,-128.5 563,-128.5 563,-109.5 649,-109.5 649,-128.5"/>
<text text-anchor="middle" x="606" y="-116.5" font-family="Helvetica,sans-Serif" font-size="10.00">Sequence::get</text>
</a>
</g>
</g>
<!-- Node1&#45;&gt;Node3 -->
<g id="edge2_Node000001_Node000003" class="edge">
<title>Node1&#45;&gt;Node3</title>
<g id="a_edge2_Node000001_Node000003"><a xlink:title=" ">
<path fill="none" stroke="#63b8ff" d="M117.12,-113.59C198.29,-113.14 350.95,-112.75 481,-115 504.52,-115.41 530.54,-116.19 552.64,-116.96"/>
<polygon fill="#63b8ff" stroke="#63b8ff" points="552.71,-120.47 562.82,-117.33 552.95,-113.47 552.71,-120.47"/>
</a>
</g>
</g>
<!-- Node12 -->
<g id="Node000012" class="node">
<title>Node12</title>
<g id="a_Node000012"><a xlink:href="class_sequence.html#a092f380b654de9aaa8a770ec0948c454" target="_top" xlink:title="Insert a number of chars at the the front of the sequence position .">
<polygon fill="white" stroke="#666666" points="291.5,-66.5 169.5,-66.5 169.5,-47.5 291.5,-47.5 291.5,-66.5"/>
<text text-anchor="middle" x="230.5" y="-54.5" font-family="Helvetica,sans-Serif" font-size="10.00">Sequence::insertFront</text>
</a>
</g>
</g>
<!-- Node1&#45;&gt;Node12 -->
<g id="edge15_Node000001_Node000012" class="edge">
<title>Node1&#45;&gt;Node12</title>
<g id="a_edge15_Node000001_Node000012"><a xlink:title=" ">
<path fill="none" stroke="#63b8ff" d="M86.01,-104.36C104.69,-97.64 130.3,-88.56 153,-81 164.44,-77.19 176.9,-73.21 188.37,-69.61"/>
<polygon fill="#63b8ff" stroke="#63b8ff" points="189.65,-72.88 198.15,-66.56 187.57,-66.2 189.65,-72.88"/>
</a>
</g>
</g>
<!-- Node34 -->
<g id="Node000034" class="node">
<title>Node34</title>
<g id="a_Node000034"><a xlink:href="class_sequence.html#ae568828bc1d65c8334c0a0336c9fd341" target="_top" xlink:title="Turn a symbol to a bool array.">
<polygon fill="white" stroke="#666666" points="481,-142.5 344,-142.5 344,-123.5 481,-123.5 481,-142.5"/>
<text text-anchor="middle" x="412.5" y="-130.5" font-family="Helvetica,sans-Serif" font-size="10.00">Sequence::readTypeChar</text>
</a>
</g>
</g>
<!-- Node1&#45;&gt;Node34 -->
<g id="edge62_Node000001_Node000034" class="edge">
<title>Node1&#45;&gt;Node34</title>
<g id="a_edge62_Node000001_Node000034"><a xlink:title=" ">
<path fill="none" stroke="#63b8ff" d="M117.23,-117.12C176.2,-120.3 268.13,-125.26 333.54,-128.79"/>
<polygon fill="#63b8ff" stroke="#63b8ff" points="333.62,-132.3 343.8,-129.35 334,-125.31 333.62,-132.3"/>
</a>
</g>
</g>
<!-- Node3&#45;&gt;Node3 -->
<g id="edge6_Node000003_Node000003" class="edge">
<title>Node3&#45;&gt;Node3</title>
<g id="a_edge6_Node000003_Node000003"><a xlink:title=" ">
<path fill="none" stroke="#63b8ff" d="M576.41,-128.58C562.01,-137.23 571.88,-146.5 606,-146.5 629.46,-146.5 641.45,-142.12 641.98,-136.57"/>
<polygon fill="#63b8ff" stroke="#63b8ff" points="644.57,-134.21 635.59,-128.58 639.11,-138.58 644.57,-134.21"/>
</a>
</g>
</g>
<!-- Node4 -->
<g id="Node000004" class="node">
<title>Node4</title>
<g id="a_Node000004"><a xlink:href="class_bit_vector.html#aebe159444eb9d619959b7325ac5dac2d" target="_top" xlink:title="Return the value of the bit at the position coord.">
<polygon fill="white" stroke="#666666" points="2206,-361.5 2123,-361.5 2123,-342.5 2206,-342.5 2206,-361.5"/>
<text text-anchor="middle" x="2164.5" y="-349.5" font-family="Helvetica,sans-Serif" font-size="10.00">BitVector::get</text>
</a>
</g>
</g>
<!-- Node3&#45;&gt;Node4 -->
<g id="edge3_Node000003_Node000004" class="edge">
<title>Node3&#45;&gt;Node4</title>
<g id="a_edge3_Node000003_Node000004"><a xlink:title=" ">
<path fill="none" stroke="#63b8ff" d="M649,-118.11C720.68,-116.68 871.22,-114 998.5,-114 998.5,-114 998.5,-114 1803,-114 1929.48,-114 1986.29,-55.49 2087,-132 2151.57,-181.06 2161.92,-288.26 2163.38,-332.41"/>
<polygon fill="#63b8ff" stroke="#63b8ff" points="2159.88,-332.5 2163.58,-342.42 2166.88,-332.35 2159.88,-332.5"/>
</a>
</g>
</g>
<!-- Node6 -->
<g id="Node000006" class="node">
<title>Node6</title>
<g id="a_Node000006"><a xlink:href="class_sequence.html#a8181f024304b3fb5f55c7118f648cc61" target="_top" xlink:title="Return a char (same format as Sequence::getType()) that indicate which alphabet is used in the during...">
<polygon fill="white" stroke="#666666" points="883,-47.5 731,-47.5 731,-28.5 883,-28.5 883,-47.5"/>
<text text-anchor="middle" x="807" y="-35.5" font-family="Helvetica,sans-Serif" font-size="10.00">Sequence::getEncodingType</text>
</a>
</g>
</g>
<!-- Node3&#45;&gt;Node6 -->
<g id="edge7_Node000003_Node000006" class="edge">
<title>Node3&#45;&gt;Node6</title>
<g id="a_edge7_Node000003_Node000006"><a xlink:title=" ">
<path fill="none" stroke="#63b8ff" d="M626.02,-109.38C650.09,-97.41 693.01,-76.75 731,-62 741.44,-57.95 752.88,-54.03 763.61,-50.58"/>
<polygon fill="#63b8ff" stroke="#63b8ff" points="764.73,-53.89 773.21,-47.55 762.62,-47.22 764.73,-53.89"/>
</a>
</g>
</g>
<!-- Node7 -->
<g id="Node000007" class="node">
<title>Node7</title>
<g id="a_Node000007"><a xlink:href="class_sequence.html#a49a9126010c0332493c803ddca005394" target="_top" xlink:title="Give a map that compress / decompress char used by Sequence.">
<polygon fill="white" stroke="#666666" points="876.5,-161.5 737.5,-161.5 737.5,-142.5 876.5,-142.5 876.5,-161.5"/>
<text text-anchor="middle" x="807" y="-149.5" font-family="Helvetica,sans-Serif" font-size="10.00">Sequence::translationTab</text>
</a>
</g>
</g>
<!-- Node3&#45;&gt;Node7 -->
<g id="edge8_Node000003_Node000007" class="edge">
<title>Node3&#45;&gt;Node7</title>
<g id="a_edge8_Node000003_Node000007"><a xlink:title=" ">
<path fill="none" stroke="#63b8ff" d="M649.2,-120.36C684.36,-124.64 733.99,-132.94 767.94,-140.25"/>
<polygon fill="#63b8ff" stroke="#63b8ff" points="767.41,-143.71 777.94,-142.48 768.94,-136.88 767.41,-143.71"/>
</a>
</g>
</g>
<!-- Node4&#45;&gt;Node4 -->
<g id="edge4_Node000004_Node000004" class="edge">
<title>Node4&#45;&gt;Node4</title>
<g id="a_edge4_Node000004_Node000004"><a xlink:title=" ">
<path fill="none" stroke="#63b8ff" d="M2144.46,-361.58C2134.72,-370.23 2141.39,-379.5 2164.5,-379.5 2179.3,-379.5 2187.36,-375.7 2188.68,-370.69"/>
<polygon fill="#63b8ff" stroke="#63b8ff" points="2191.86,-369.23 2184.54,-361.58 2185.49,-372.13 2191.86,-369.23"/>
</a>
</g>
</g>
<!-- Node5 -->
<g id="Node000005" class="node">
<title>Node5</title>
<g id="a_Node000005"><a xlink:href="class_bit_vector_1_1_coords.html#a2892f7f46c4af93f9733e312229d8ec1" target="_top" xlink:title="Get Coords::octet .">
<polygon fill="white" stroke="#666666" points="2349,-367 2242,-367 2242,-337 2349,-337 2349,-367"/>
<text text-anchor="start" x="2250" y="-355" font-family="Helvetica,sans-Serif" font-size="10.00">BitVector::Coords::</text>
<text text-anchor="middle" x="2295.5" y="-344" font-family="Helvetica,sans-Serif" font-size="10.00">getOctet</text>
</a>
</g>
</g>
<!-- Node4&#45;&gt;Node5 -->
<g id="edge5_Node000004_Node000005" class="edge">
<title>Node4&#45;&gt;Node5</title>
<g id="a_edge5_Node000004_Node000005"><a xlink:title=" ">
<path fill="none" stroke="#63b8ff" d="M2206.32,-352C2214.38,-352 2223.02,-352 2231.62,-352"/>
<polygon fill="#63b8ff" stroke="#63b8ff" points="2231.66,-355.5 2241.66,-352 2231.66,-348.5 2231.66,-355.5"/>
</a>
</g>
</g>
<!-- Node7&#45;&gt;Node3 -->
<g id="edge14_Node000007_Node000003" class="edge">
<title>Node7&#45;&gt;Node3</title>
<g id="a_edge14_Node000007_Node000003"><a xlink:title=" ">
<path fill="none" stroke="#63b8ff" d="M737.31,-147.06C706.37,-142.54 671.02,-136.34 644.95,-130.73"/>
<polygon fill="#63b8ff" stroke="#63b8ff" points="645.61,-127.29 635.09,-128.53 644.09,-134.12 645.61,-127.29"/>
</a>
</g>
</g>
<!-- Node8 -->
<g id="Node000008" class="node">
<title>Node8</title>
<g id="a_Node000008"><a xlink:href="class_sequence.html#a555c6e58957c4d07028eb5c67b1732ac" target="_top" xlink:title="Function used by Sequence::translationTab to create their compression map.">
<polygon fill="white" stroke="#666666" points="1063.5,-85.5 935.5,-85.5 935.5,-66.5 1063.5,-66.5 1063.5,-85.5"/>
<text text-anchor="middle" x="999.5" y="-73.5" font-family="Helvetica,sans-Serif" font-size="10.00">Sequence::fillCodeMap</text>
</a>
</g>
</g>
<!-- Node7&#45;&gt;Node8 -->
<g id="edge9_Node000007_Node000008" class="edge">
<title>Node7&#45;&gt;Node8</title>
<g id="a_edge9_Node000007_Node000008"><a xlink:title=" ">
<path fill="none" stroke="#63b8ff" d="M832.13,-142.37C865.76,-128.95 926.9,-104.57 964.95,-89.38"/>
<polygon fill="#63b8ff" stroke="#63b8ff" points="966.58,-92.5 974.57,-85.55 963.98,-86 966.58,-92.5"/>
</a>
</g>
</g>
<!-- Node8&#45;&gt;Node3 -->
<g id="edge10_Node000008_Node000003" class="edge">
<title>Node8&#45;&gt;Node3</title>
<g id="a_edge10_Node000008_Node000003"><a xlink:title=" ">
<path fill="none" stroke="#63b8ff" d="M935.42,-80.54C881.14,-84.71 800.78,-91.53 731,-100 707.28,-102.88 681.12,-106.78 658.97,-110.3"/>
<polygon fill="#63b8ff" stroke="#63b8ff" points="658.41,-106.84 649.09,-111.88 659.52,-113.75 658.41,-106.84"/>
</a>
</g>
</g>
<!-- Node9 -->
<g id="Node000009" class="node">
<title>Node9</title>
<g id="a_Node000009"><a xlink:href="class_sequence.html#acf21040958590f98163b3d11f19ea93e" target="_top" xlink:title="Give the number of element contained in this sequence.">
<polygon fill="white" stroke="#666666" points="1231.5,-47.5 1142.5,-47.5 1142.5,-28.5 1231.5,-28.5 1231.5,-47.5"/>
<text text-anchor="middle" x="1187" y="-35.5" font-family="Helvetica,sans-Serif" font-size="10.00">Sequence::size</text>
</a>
</g>
</g>
<!-- Node8&#45;&gt;Node9 -->
<g id="edge11_Node000008_Node000009" class="edge">
<title>Node8&#45;&gt;Node9</title>
<g id="a_edge11_Node000008_Node000009"><a xlink:title=" ">
<path fill="none" stroke="#63b8ff" d="M1047.31,-66.41C1073.2,-61.11 1105.47,-54.5 1132.37,-48.99"/>
<polygon fill="#63b8ff" stroke="#63b8ff" points="1133.3,-52.37 1142.39,-46.93 1131.89,-45.51 1133.3,-52.37"/>
</a>
</g>
</g>
<!-- Node10 -->
<g id="Node000010" class="node">
<title>Node10</title>
<g id="a_Node000010"><a xlink:href="class_bit_vector.html#ab30ea2b408107e4e6bc8095b5a64a1dd" target="_top" xlink:title="Number of element inside this object.">
<polygon fill="white" stroke="#666666" points="1428.5,-47.5 1342.5,-47.5 1342.5,-28.5 1428.5,-28.5 1428.5,-47.5"/>
<text text-anchor="middle" x="1385.5" y="-35.5" font-family="Helvetica,sans-Serif" font-size="10.00">BitVector::size</text>
</a>
</g>
</g>
<!-- Node9&#45;&gt;Node10 -->
<g id="edge12_Node000009_Node000010" class="edge">
<title>Node9&#45;&gt;Node10</title>
<g id="a_edge12_Node000009_Node000010"><a xlink:title=" ">
<path fill="none" stroke="#63b8ff" d="M1231.61,-38C1261.27,-38 1300.68,-38 1332.05,-38"/>
<polygon fill="#63b8ff" stroke="#63b8ff" points="1332.36,-41.5 1342.36,-38 1332.36,-34.5 1332.36,-41.5"/>
</a>
</g>
</g>
<!-- Node11 -->
<g id="Node000011" class="node">
<title>Node11</title>
<g id="a_Node000011"><a xlink:href="class_bit_vector.html#a5339660cfb315ab5de7f78bdf5af4ce1" target="_top" xlink:title="Get BitVector::_element_number.">
<polygon fill="white" stroke="#666666" points="1675,-47.5 1513,-47.5 1513,-28.5 1675,-28.5 1675,-47.5"/>
<text text-anchor="middle" x="1594" y="-35.5" font-family="Helvetica,sans-Serif" font-size="10.00">BitVector::getElementNumber</text>
</a>
</g>
</g>
<!-- Node10&#45;&gt;Node11 -->
<g id="edge13_Node000010_Node000011" class="edge">
<title>Node10&#45;&gt;Node11</title>
<g id="a_edge13_Node000010_Node000011"><a xlink:title=" ">
<path fill="none" stroke="#63b8ff" d="M1428.54,-38C1449.88,-38 1476.68,-38 1502.42,-38"/>
<polygon fill="#63b8ff" stroke="#63b8ff" points="1502.6,-41.5 1512.6,-38 1502.6,-34.5 1502.6,-41.5"/>
</a>
</g>
</g>
<!-- Node12&#45;&gt;Node9 -->
<g id="edge61_Node000012_Node000009" class="edge">
<title>Node12&#45;&gt;Node9</title>
<g id="a_edge61_Node000012_Node000009"><a xlink:title=" ">
<path fill="none" stroke="#63b8ff" d="M268.85,-47.46C335.76,-31.23 480.7,0 605,0 605,0 605,0 808,0 924.22,0 1059.54,-18 1132.6,-29.23"/>
<polygon fill="#63b8ff" stroke="#63b8ff" points="1132.07,-32.69 1142.49,-30.76 1133.14,-25.77 1132.07,-32.69"/>
</a>
</g>
</g>
<!-- Node13 -->
<g id="Node000013" class="node">
<title>Node13</title>
<g id="a_Node000013"><a xlink:href="class_sequence.html#aa48778c592160ac60319f780817f491c" target="_top" xlink:title="Insert a number of chars at the position position .">
<polygon fill="white" stroke="#666666" points="461.5,-215.5 363.5,-215.5 363.5,-196.5 461.5,-196.5 461.5,-215.5"/>
<text text-anchor="middle" x="412.5" y="-203.5" font-family="Helvetica,sans-Serif" font-size="10.00">Sequence::insert</text>
</a>
</g>
</g>
<!-- Node12&#45;&gt;Node13 -->
<g id="edge16_Node000012_Node000013" class="edge">
<title>Node12&#45;&gt;Node13</title>
<g id="a_edge16_Node000012_Node000013"><a xlink:title=" ">
<path fill="none" stroke="#63b8ff" d="M242.6,-66.54C262.68,-83.77 306.48,-121.16 344,-152 359.6,-164.82 377.44,-179.08 390.87,-189.72"/>
<polygon fill="#63b8ff" stroke="#63b8ff" points="388.97,-192.68 398.98,-196.15 393.31,-187.2 388.97,-192.68"/>
</a>
</g>
</g>
<!-- Node13&#45;&gt;Node3 -->
<g id="edge17_Node000013_Node000003" class="edge">
<title>Node13&#45;&gt;Node3</title>
<g id="a_edge17_Node000013_Node000003"><a xlink:title=" ">
<path fill="none" stroke="#63b8ff" d="M434.73,-196.36C468.75,-180.9 535.63,-150.52 574.68,-132.77"/>
<polygon fill="#63b8ff" stroke="#63b8ff" points="576.31,-135.88 583.97,-128.55 573.42,-129.5 576.31,-135.88"/>
</a>
</g>
</g>
<!-- Node13&#45;&gt;Node7 -->
<g id="edge60_Node000013_Node000007" class="edge">
<title>Node13&#45;&gt;Node7</title>
<g id="a_edge60_Node000013_Node000007"><a xlink:title=" ">
<path fill="none" stroke="#63b8ff" d="M461.63,-199.38C527.88,-190.26 647.98,-173.74 727.38,-162.82"/>
<polygon fill="#63b8ff" stroke="#63b8ff" points="727.91,-166.28 737.34,-161.45 726.95,-159.34 727.91,-166.28"/>
</a>
</g>
</g>
<!-- Node14 -->
<g id="Node000014" class="node">
<title>Node14</title>
<g id="a_Node000014"><a xlink:href="class_bit_vector.html#a686af396e4dff1536b7588213726c4cc" target="_top" xlink:title="Insert a number of blank position inside BitVector::_data.">
<polygon fill="white" stroke="#666666" points="695,-237.5 517,-237.5 517,-218.5 695,-218.5 695,-237.5"/>
<text text-anchor="middle" x="606" y="-225.5" font-family="Helvetica,sans-Serif" font-size="10.00">BitVector::makeRoomForElement</text>
</a>
</g>
</g>
<!-- Node13&#45;&gt;Node14 -->
<g id="edge18_Node000013_Node000014" class="edge">
<title>Node13&#45;&gt;Node14</title>
<g id="a_edge18_Node000013_Node000014"><a xlink:title=" ">
<path fill="none" stroke="#63b8ff" d="M461.82,-211.55C477.11,-213.31 494.55,-215.31 511.87,-217.3"/>
<polygon fill="#63b8ff" stroke="#63b8ff" points="511.71,-220.81 522.04,-218.47 512.51,-213.85 511.71,-220.81"/>
</a>
</g>
</g>
<!-- Node16 -->
<g id="Node000016" class="node">
<title>Node16</title>
<g id="a_Node000016"><a xlink:href="class_bit_vector.html#aca24053f655c825de0f06ec86fff1cec" target="_top" xlink:title="Replace an element by another element. Can add an element to the list if index = BitVector::_element_...">
<polygon fill="white" stroke="#666666" points="1040.5,-360.5 958.5,-360.5 958.5,-341.5 1040.5,-341.5 1040.5,-360.5"/>
<text text-anchor="middle" x="999.5" y="-348.5" font-family="Helvetica,sans-Serif" font-size="10.00">BitVector::set</text>
</a>
</g>
</g>
<!-- Node13&#45;&gt;Node16 -->
<g id="edge59_Node000013_Node000016" class="edge">
<title>Node13&#45;&gt;Node16</title>
<g id="a_edge59_Node000013_Node000016"><a xlink:title=" ">
<path fill="none" stroke="#63b8ff" d="M437.74,-215.66C458.7,-224 489.83,-236.35 517,-247 611.98,-284.23 631.54,-307.32 731,-330 805.24,-346.93 893.74,-350.8 948.02,-351.39"/>
<polygon fill="#63b8ff" stroke="#63b8ff" points="948.04,-354.89 958.07,-351.46 948.1,-347.89 948.04,-354.89"/>
</a>
</g>
</g>
<!-- Node29 -->
<g id="Node000029" class="node">
<title>Node29</title>
<g id="a_Node000029"><a xlink:href="class_bit_vector.html#a87f84edf5dd56606b26e8741ba6ced02" target="_top" xlink:title="Remove a number of element from the vector.">
<polygon fill="white" stroke="#666666" points="859,-549.5 755,-549.5 755,-530.5 859,-530.5 859,-549.5"/>
<text text-anchor="middle" x="807" y="-537.5" font-family="Helvetica,sans-Serif" font-size="10.00">BitVector::remove</text>
</a>
</g>
</g>
<!-- Node13&#45;&gt;Node29 -->
<g id="edge46_Node000013_Node000029" class="edge">
<title>Node13&#45;&gt;Node29</title>
<g id="a_edge46_Node000013_Node000029"><a xlink:title=" ">
<path fill="none" stroke="#63b8ff" d="M417.88,-215.58C430.29,-241.91 467.98,-316.57 517,-364 597.22,-441.62 717.56,-500.97 774.28,-526.42"/>
<polygon fill="#63b8ff" stroke="#63b8ff" points="772.9,-529.64 783.46,-530.49 775.74,-523.24 772.9,-529.64"/>
</a>
</g>
</g>
<!-- Node14&#45;&gt;Node4 -->
<g id="edge43_Node000014_Node000004" class="edge">
<title>Node14&#45;&gt;Node4</title>
<g id="a_edge43_Node000014_Node000004"><a xlink:title=" ">
<path fill="none" stroke="#63b8ff" d="M680.14,-218.49C843.52,-198.1 1250.7,-152 1593,-152 1593,-152 1593,-152 1803,-152 1929.75,-152 1984.13,-103.95 2087,-178 2138.7,-215.21 2155.93,-295.24 2161.27,-332.35"/>
<polygon fill="#63b8ff" stroke="#63b8ff" points="2157.82,-332.93 2162.58,-342.4 2164.76,-332.03 2157.82,-332.93"/>
</a>
</g>
</g>
<!-- Node15 -->
<g id="Node000015" class="node">
<title>Node15</title>
<g id="a_Node000015"><a xlink:href="class_bit_vector.html#afbdbe8a5003f5941ffd5ab095cf87d88" target="_top" xlink:title="Add an element at the end of the vector.">
<polygon fill="white" stroke="#666666" points="858.5,-320.5 755.5,-320.5 755.5,-301.5 858.5,-301.5 858.5,-320.5"/>
<text text-anchor="middle" x="807" y="-308.5" font-family="Helvetica,sans-Serif" font-size="10.00">BitVector::append</text>
</a>
</g>
</g>
<!-- Node14&#45;&gt;Node15 -->
<g id="edge19_Node000014_Node000015" class="edge">
<title>Node14&#45;&gt;Node15</title>
<g id="a_edge19_Node000014_Node000015"><a xlink:title=" ">
<path fill="none" stroke="#63b8ff" d="M626.5,-237.68C650.71,-249.53 693.41,-269.89 731,-285 742.37,-289.57 754.9,-294.11 766.4,-298.08"/>
<polygon fill="#63b8ff" stroke="#63b8ff" points="765.59,-301.5 776.19,-301.41 767.85,-294.87 765.59,-301.5"/>
</a>
</g>
</g>
<!-- Node14&#45;&gt;Node16 -->
<g id="edge45_Node000014_Node000016" class="edge">
<title>Node14&#45;&gt;Node16</title>
<g id="a_edge45_Node000014_Node000016"><a xlink:title=" ">
<path fill="none" stroke="#63b8ff" d="M664.69,-237.51C721.34,-247.8 809.66,-266.37 883,-293 915.62,-304.85 950.99,-323.55 973.88,-336.5"/>
<polygon fill="#63b8ff" stroke="#63b8ff" points="972.17,-339.56 982.59,-341.5 975.65,-333.49 972.17,-339.56"/>
</a>
</g>
</g>
<!-- Node24 -->
<g id="Node000024" class="node">
<title>Node24</title>
<g id="a_Node000024"><a xlink:href="class_bit_vector.html#ad36e7d0b4b1417ca434414fa40c72eb8" target="_top" xlink:title="How many element can be contained in this object knowing BitVector::_element_size.">
<polygon fill="white" stroke="#666666" points="1671,-323.5 1517,-323.5 1517,-304.5 1671,-304.5 1671,-323.5"/>
<text text-anchor="middle" x="1594" y="-311.5" font-family="Helvetica,sans-Serif" font-size="10.00">BitVector::maxElementLimit</text>
</a>
</g>
</g>
<!-- Node14&#45;&gt;Node24 -->
<g id="edge44_Node000014_Node000024" class="edge">
<title>Node14&#45;&gt;Node24</title>
<g id="a_edge44_Node000014_Node000024"><a xlink:title=" ">
<path fill="none" stroke="#63b8ff" d="M695.24,-228C774.59,-228 894.34,-228 998.5,-228 998.5,-228 998.5,-228 1188,-228 1327.08,-228 1487.27,-277.13 1557.22,-301.12"/>
<polygon fill="#63b8ff" stroke="#63b8ff" points="1556.28,-304.5 1566.87,-304.47 1558.57,-297.88 1556.28,-304.5"/>
</a>
</g>
</g>
<!-- Node15&#45;&gt;Node16 -->
<g id="edge20_Node000015_Node000016" class="edge">
<title>Node15&#45;&gt;Node16</title>
<g id="a_edge20_Node000015_Node000016"><a xlink:title=" ">
<path fill="none" stroke="#63b8ff" d="M853.63,-320.58C882.18,-326.58 918.99,-334.31 948.36,-340.47"/>
<polygon fill="#63b8ff" stroke="#63b8ff" points="947.91,-343.95 958.41,-342.58 949.35,-337.1 947.91,-343.95"/>
</a>
</g>
</g>
<!-- Node16&#45;&gt;Node4 -->
<g id="edge24_Node000016_Node000004" class="edge">
<title>Node16&#45;&gt;Node4</title>
<g id="a_edge24_Node000016_Node000004"><a xlink:title=" ">
<path fill="none" stroke="#63b8ff" d="M1015.59,-341.46C1037.09,-328.27 1078.13,-304.56 1116,-291 1320.01,-217.94 1376.3,-190 1593,-190 1593,-190 1593,-190 1803,-190 1930.35,-190 1980.17,-158.69 2087,-228 2125.39,-252.9 2147.72,-304.53 2157.52,-332.67"/>
<polygon fill="#63b8ff" stroke="#63b8ff" points="2154.21,-333.81 2160.67,-342.21 2160.86,-331.61 2154.21,-333.81"/>
</a>
</g>
</g>
<!-- Node17 -->
<g id="Node000017" class="node">
<title>Node17</title>
<g id="a_Node000017"><a xlink:href="class_bit_vector.html#a8c3c1f0faa0bbf35638c7217a841cbd8" target="_top" xlink:title=" ">
<polygon fill="white" stroke="#666666" points="1241.5,-318.5 1132.5,-318.5 1132.5,-299.5 1241.5,-299.5 1241.5,-318.5"/>
<text text-anchor="middle" x="1187" y="-306.5" font-family="Helvetica,sans-Serif" font-size="10.00">BitVector::copyBits</text>
</a>
</g>
</g>
<!-- Node16&#45;&gt;Node17 -->
<g id="edge21_Node000016_Node000017" class="edge">
<title>Node16&#45;&gt;Node17</title>
<g id="a_edge21_Node000016_Node000017"><a xlink:title=" ">
<path fill="none" stroke="#63b8ff" d="M1040.75,-341.89C1068.01,-335.71 1104.3,-327.5 1133.78,-320.82"/>
<polygon fill="#63b8ff" stroke="#63b8ff" points="1134.92,-324.15 1143.9,-318.53 1133.37,-317.33 1134.92,-324.15"/>
</a>
</g>
</g>
<!-- Node19 -->
<g id="Node000019" class="node">
<title>Node19</title>
<g id="a_Node000019"><a xlink:href="class_bit_vector.html#a115789c8a9812eabb52f8843cd4e9965" target="_top" xlink:title="Give the a coord object that represent the size of 1 element inside BitVector::_data.">
<polygon fill="white" stroke="#666666" points="2073.5,-459.5 1942.5,-459.5 1942.5,-440.5 2073.5,-440.5 2073.5,-459.5"/>
<text text-anchor="middle" x="2008" y="-447.5" font-family="Helvetica,sans-Serif" font-size="10.00">BitVector::getCoordUnit</text>
</a>
</g>
</g>
<!-- Node16&#45;&gt;Node19 -->
<g id="edge25_Node000016_Node000019" class="edge">
<title>Node16&#45;&gt;Node19</title>
<g id="a_edge25_Node000016_Node000019"><a xlink:title=" ">
<path fill="none" stroke="#63b8ff" d="M1028.54,-360.6C1091.42,-381.24 1248.85,-428 1384.5,-428 1384.5,-428 1384.5,-428 1595,-428 1713.1,-428 1849.97,-437.13 1932.44,-443.62"/>
<polygon fill="#63b8ff" stroke="#63b8ff" points="1932.23,-447.12 1942.48,-444.42 1932.79,-440.14 1932.23,-447.12"/>
</a>
</g>
</g>
<!-- Node20 -->
<g id="Node000020" class="node">
<title>Node20</title>
<g id="a_Node000020"><a xlink:href="class_bit_vector.html#a93ab8bc2ec39bf299ae28ffcad504b41" target="_top" xlink:title="Give the coords of the first bit of an element.">
<polygon fill="white" stroke="#666666" points="1254,-361.5 1120,-361.5 1120,-342.5 1254,-342.5 1254,-361.5"/>
<text text-anchor="middle" x="1187" y="-349.5" font-family="Helvetica,sans-Serif" font-size="10.00">BitVector::indexElement</text>
</a>
</g>
</g>
<!-- Node16&#45;&gt;Node20 -->
<g id="edge27_Node000016_Node000020" class="edge">
<title>Node16&#45;&gt;Node20</title>
<g id="a_edge27_Node000016_Node000020"><a xlink:title=" ">
<path fill="none" stroke="#63b8ff" d="M1040.75,-351.22C1060.98,-351.33 1086.19,-351.46 1109.89,-351.59"/>
<polygon fill="#63b8ff" stroke="#63b8ff" points="1109.92,-355.09 1119.94,-351.64 1109.96,-348.09 1109.92,-355.09"/>
</a>
</g>
</g>
<!-- Node27 -->
<g id="Node000027" class="node">
<title>Node27</title>
<g id="a_Node000027"><a xlink:href="class_bit_vector.html#ab4d98ce4b8d36ed6af1aa46e67810972" target="_top" xlink:title="Give the last coordinates thar can be contained inside BitVector::_data with the current BitVector::_...">
<polygon fill="white" stroke="#666666" points="1434.5,-638.5 1336.5,-638.5 1336.5,-619.5 1434.5,-619.5 1434.5,-638.5"/>
<text text-anchor="middle" x="1385.5" y="-626.5" font-family="Helvetica,sans-Serif" font-size="10.00">BitVector::lastBit</text>
</a>
</g>
</g>
<!-- Node16&#45;&gt;Node27 -->
<g id="edge40_Node000016_Node000027" class="edge">
<title>Node16&#45;&gt;Node27</title>
<g id="a_edge40_Node000016_Node000027"><a xlink:title=" ">
<path fill="none" stroke="#63b8ff" d="M1005.71,-360.83C1020.06,-387.11 1062.65,-459.87 1116,-503 1186.26,-559.8 1286.34,-597.93 1342.36,-616.3"/>
<polygon fill="#63b8ff" stroke="#63b8ff" points="1341.37,-619.66 1351.96,-619.4 1343.52,-613 1341.37,-619.66"/>
</a>
</g>
</g>
<!-- Node28 -->
<g id="Node000028" class="node">
<title>Node28</title>
<g id="a_Node000028"><a xlink:href="class_bit_vector.html#ab92cdd9780b949d9d762f58e1ee4a0ae" target="_top" xlink:title="Last postion of the vector.">
<polygon fill="white" stroke="#666666" points="1645,-521.5 1543,-521.5 1543,-502.5 1645,-502.5 1645,-521.5"/>
<text text-anchor="middle" x="1594" y="-509.5" font-family="Helvetica,sans-Serif" font-size="10.00">BitVector::lastPos</text>
</a>
</g>
</g>
<!-- Node16&#45;&gt;Node28 -->
<g id="edge41_Node000016_Node000028" class="edge">
<title>Node16&#45;&gt;Node28</title>
<g id="a_edge41_Node000016_Node000028"><a xlink:title=" ">
<path fill="none" stroke="#63b8ff" d="M1009.26,-360.69C1027.2,-379.82 1070.28,-422.32 1116,-442 1256.42,-502.45 1439.29,-512.27 1532.55,-512.94"/>
<polygon fill="#63b8ff" stroke="#63b8ff" points="1532.64,-516.44 1542.65,-512.98 1532.67,-509.44 1532.64,-516.44"/>
</a>
</g>
</g>
<!-- Node17&#45;&gt;Node4 -->
<g id="edge22_Node000017_Node000004" class="edge">
<title>Node17&#45;&gt;Node4</title>
<g id="a_edge22_Node000017_Node000004"><a xlink:title=" ">
<path fill="none" stroke="#63b8ff" d="M1223.55,-299.43C1244,-294.31 1270.28,-288.37 1294,-285 1573.91,-245.21 1646.4,-255.45 1929,-247 1999.19,-244.9 2024.41,-215.16 2087,-247 2122.36,-264.99 2145.24,-307.82 2156.1,-332.87"/>
<polygon fill="#63b8ff" stroke="#63b8ff" points="2152.98,-334.47 2160.02,-342.39 2159.45,-331.81 2152.98,-334.47"/>
</a>
</g>
</g>
<!-- Node18 -->
<g id="Node000018" class="node">
<title>Node18</title>
<g id="a_Node000018"><a xlink:href="class_bit_vector_1_1_coords.html#a393207c752f8f9121aca38c938914154" target="_top" xlink:title="Get Coords::bit .">
<polygon fill="white" stroke="#666666" points="1439,-324 1332,-324 1332,-294 1439,-294 1439,-324"/>
<text text-anchor="start" x="1340" y="-312" font-family="Helvetica,sans-Serif" font-size="10.00">BitVector::Coords::</text>
<text text-anchor="middle" x="1385.5" y="-301" font-family="Helvetica,sans-Serif" font-size="10.00">getBit</text>
</a>
</g>
</g>
<!-- Node17&#45;&gt;Node18 -->
<g id="edge23_Node000017_Node000018" class="edge">
<title>Node17&#45;&gt;Node18</title>
<g id="a_edge23_Node000017_Node000018"><a xlink:title=" ">
<path fill="none" stroke="#63b8ff" d="M1241.69,-309C1266.47,-309 1296.05,-309 1321.84,-309"/>
<polygon fill="#63b8ff" stroke="#63b8ff" points="1321.89,-312.5 1331.89,-309 1321.89,-305.5 1321.89,-312.5"/>
</a>
</g>
</g>
<!-- Node19&#45;&gt;Node4 -->
<g id="edge26_Node000019_Node000004" class="edge">
<title>Node19&#45;&gt;Node4</title>
<g id="a_edge26_Node000019_Node000004"><a xlink:title=" ">
<path fill="none" stroke="#63b8ff" d="M2025.92,-440.44C2041.85,-431.34 2066.29,-417.13 2087,-404 2105.71,-392.14 2126.46,-377.97 2141.63,-367.41"/>
<polygon fill="#63b8ff" stroke="#63b8ff" points="2143.67,-370.26 2149.86,-361.66 2139.66,-364.52 2143.67,-370.26"/>
</a>
</g>
</g>
<!-- Node20&#45;&gt;Node4 -->
<g id="edge28_Node000020_Node000004" class="edge">
<title>Node20&#45;&gt;Node4</title>
<g id="a_edge28_Node000020_Node000004"><a xlink:title=" ">
<path fill="none" stroke="#63b8ff" d="M1254.29,-352C1334.5,-352 1473.64,-352 1593,-352 1593,-352 1593,-352 1803,-352 1913.43,-352 2042.89,-352 2112.69,-352"/>
<polygon fill="#63b8ff" stroke="#63b8ff" points="2112.95,-355.5 2122.95,-352 2112.95,-348.5 2112.95,-355.5"/>
</a>
</g>
</g>
<!-- Node21 -->
<g id="Node000021" class="node">
<title>Node21</title>
<g id="a_Node000021"><a xlink:href="class_bit_vector.html#a04e6d0b67ee9b42ccec437b0176067fe" target="_top" xlink:title="Give A size_t that represent the coords of the first bit of an element.">
<polygon fill="white" stroke="#666666" points="1477,-399.5 1294,-399.5 1294,-380.5 1477,-380.5 1477,-399.5"/>
<text text-anchor="middle" x="1385.5" y="-387.5" font-family="Helvetica,sans-Serif" font-size="10.00">BitVector::indexElementUntreated</text>
</a>
</g>
</g>
<!-- Node20&#45;&gt;Node21 -->
<g id="edge29_Node000020_Node000021" class="edge">
<title>Node20&#45;&gt;Node21</title>
<g id="a_edge29_Node000020_Node000021"><a xlink:title=" ">
<path fill="none" stroke="#63b8ff" d="M1237.33,-361.54C1263.96,-366.69 1297.03,-373.08 1325.07,-378.51"/>
<polygon fill="#63b8ff" stroke="#63b8ff" points="1324.67,-381.99 1335.15,-380.46 1325.99,-375.12 1324.67,-381.99"/>
</a>
</g>
</g>
<!-- Node21&#45;&gt;Node4 -->
<g id="edge30_Node000021_Node000004" class="edge">
<title>Node21&#45;&gt;Node4</title>
<g id="a_edge30_Node000021_Node000004"><a xlink:title=" ">
<path fill="none" stroke="#63b8ff" d="M1477.2,-391.13C1611.03,-391.84 1869.08,-389.54 2087,-366 2095.39,-365.09 2104.25,-363.79 2112.85,-362.35"/>
<polygon fill="#63b8ff" stroke="#63b8ff" points="2113.53,-365.78 2122.77,-360.6 2112.31,-358.89 2113.53,-365.78"/>
</a>
</g>
</g>
<!-- Node22 -->
<g id="Node000022" class="node">
<title>Node22</title>
<g id="a_Node000022"><a xlink:href="class_bit_vector.html#af68cda7444ec4459393bbfa423f0a7dd" target="_top" xlink:title="Get the Size_t value if a BitVector::CoordUnit.">
<polygon fill="white" stroke="#666666" points="1853.5,-486 1750.5,-486 1750.5,-456 1853.5,-456 1853.5,-486"/>
<text text-anchor="start" x="1758.5" y="-474" font-family="Helvetica,sans-Serif" font-size="10.00">BitVector::getSize</text>
<text text-anchor="middle" x="1802" y="-463" font-family="Helvetica,sans-Serif" font-size="10.00">_tUnit</text>
</a>
</g>
</g>
<!-- Node21&#45;&gt;Node22 -->
<g id="edge31_Node000021_Node000022" class="edge">
<title>Node21&#45;&gt;Node22</title>
<g id="a_edge31_Node000021_Node000022"><a xlink:title=" ">
<path fill="none" stroke="#63b8ff" d="M1435.27,-399.53C1511.28,-414.38 1657.84,-443.02 1740.48,-459.17"/>
<polygon fill="#63b8ff" stroke="#63b8ff" points="1739.99,-462.64 1750.48,-461.13 1741.34,-455.77 1739.99,-462.64"/>
</a>
</g>
</g>
<!-- Node21&#45;&gt;Node24 -->
<g id="edge34_Node000021_Node000024" class="edge">
<title>Node21&#45;&gt;Node24</title>
<g id="a_edge34_Node000021_Node000024"><a xlink:title=" ">
<path fill="none" stroke="#63b8ff" d="M1412.65,-380.37C1449.35,-366.87 1516.23,-342.25 1557.42,-327.09"/>
<polygon fill="#63b8ff" stroke="#63b8ff" points="1558.88,-330.29 1567.06,-323.55 1556.47,-323.72 1558.88,-330.29"/>
</a>
</g>
</g>
<!-- Node22&#45;&gt;Node19 -->
<g id="edge32_Node000022_Node000019" class="edge">
<title>Node22&#45;&gt;Node19</title>
<g id="a_edge32_Node000022_Node000019"><a xlink:title=" ">
<path fill="none" stroke="#63b8ff" d="M1853.69,-465.78C1877.34,-463.35 1905.96,-460.4 1932.04,-457.72"/>
<polygon fill="#63b8ff" stroke="#63b8ff" points="1932.69,-461.17 1942.27,-456.66 1931.97,-454.21 1932.69,-461.17"/>
</a>
</g>
</g>
<!-- Node23 -->
<g id="Node000023" class="node">
<title>Node23</title>
<g id="a_Node000023"><a xlink:href="class_bit_vector_1_1_coords.html#a3a4fac9de925974af9c8a66a1d0179e6" target="_top" xlink:title="Translate octet and bit value inside a size_t. Allow easier mathematic computations.">
<polygon fill="white" stroke="#666666" points="2061.5,-535 1954.5,-535 1954.5,-505 2061.5,-505 2061.5,-535"/>
<text text-anchor="start" x="1962.5" y="-523" font-family="Helvetica,sans-Serif" font-size="10.00">BitVector::Coords::</text>
<text text-anchor="middle" x="2008" y="-512" font-family="Helvetica,sans-Serif" font-size="10.00">toSize_t</text>
</a>
</g>
</g>
<!-- Node22&#45;&gt;Node23 -->
<g id="edge33_Node000022_Node000023" class="edge">
<title>Node22&#45;&gt;Node23</title>
<g id="a_edge33_Node000022_Node000023"><a xlink:title=" ">
<path fill="none" stroke="#63b8ff" d="M1853.69,-483.18C1881.13,-489.77 1915.28,-497.97 1944.38,-504.96"/>
<polygon fill="#63b8ff" stroke="#63b8ff" points="1943.9,-508.44 1954.44,-507.37 1945.53,-501.64 1943.9,-508.44"/>
</a>
</g>
</g>
<!-- Node24&#45;&gt;Node22 -->
<g id="edge35_Node000024_Node000022" class="edge">
<title>Node24&#45;&gt;Node22</title>
<g id="a_edge35_Node000024_Node000022"><a xlink:title=" ">
<path fill="none" stroke="#63b8ff" d="M1607.58,-323.58C1640.07,-348.35 1727.47,-414.96 1772.82,-449.52"/>
<polygon fill="#63b8ff" stroke="#63b8ff" points="1770.97,-452.51 1781.04,-455.79 1775.21,-446.94 1770.97,-452.51"/>
</a>
</g>
</g>
<!-- Node25 -->
<g id="Node000025" class="node">
<title>Node25</title>
<g id="a_Node000025"><a xlink:href="class_bit_vector.html#a68b14af0886039ddcf55c82a250deb4c" target="_top" xlink:title="How many element can be contained in this kind of object.">
<polygon fill="white" stroke="#666666" points="2087,-286 1929,-286 1929,-256 2087,-256 2087,-286"/>
<text text-anchor="start" x="1937" y="-274" font-family="Helvetica,sans-Serif" font-size="10.00">BitVector::maximumElement</text>
<text text-anchor="middle" x="2008" y="-263" font-family="Helvetica,sans-Serif" font-size="10.00">Number</text>
</a>
</g>
</g>
<!-- Node24&#45;&gt;Node25 -->
<g id="edge36_Node000024_Node000025" class="edge">
<title>Node24&#45;&gt;Node25</title>
<g id="a_edge36_Node000024_Node000025"><a xlink:title=" ">
<path fill="none" stroke="#63b8ff" d="M1651.24,-304.47C1670.18,-301.47 1691.47,-298.34 1711,-296 1780.7,-287.66 1859.97,-281.12 1918.93,-276.82"/>
<polygon fill="#63b8ff" stroke="#63b8ff" points="1919.22,-280.31 1928.95,-276.1 1918.72,-273.33 1919.22,-280.31"/>
</a>
</g>
</g>
<!-- Node26 -->
<g id="Node000026" class="node">
<title>Node26</title>
<g id="a_Node000026"><a xlink:href="class_bit_vector.html#aa3228d2bacb1bb0f6072d73d43a49456" target="_top" xlink:title="How many octet can be contained in this kind of object.">
<polygon fill="white" stroke="#666666" points="1893,-323.5 1711,-323.5 1711,-304.5 1893,-304.5 1893,-323.5"/>
<text text-anchor="middle" x="1802" y="-311.5" font-family="Helvetica,sans-Serif" font-size="10.00">BitVector::maximumOctetNumber</text>
</a>
</g>
</g>
<!-- Node24&#45;&gt;Node26 -->
<g id="edge38_Node000024_Node000026" class="edge">
<title>Node24&#45;&gt;Node26</title>
<g id="a_edge38_Node000024_Node000026"><a xlink:title=" ">
<path fill="none" stroke="#63b8ff" d="M1671.12,-314C1680.73,-314 1690.68,-314 1700.6,-314"/>
<polygon fill="#63b8ff" stroke="#63b8ff" points="1700.9,-317.5 1710.9,-314 1700.9,-310.5 1700.9,-317.5"/>
</a>
</g>
</g>
<!-- Node25&#45;&gt;Node4 -->
<g id="edge37_Node000025_Node000004" class="edge">
<title>Node25&#45;&gt;Node4</title>
<g id="a_edge37_Node000025_Node000004"><a xlink:title=" ">
<path fill="none" stroke="#63b8ff" d="M2055.17,-286.07C2065.83,-290.12 2076.99,-294.83 2087,-300 2107.16,-310.41 2128.37,-325.16 2143.33,-336.3"/>
<polygon fill="#63b8ff" stroke="#63b8ff" points="2141.27,-339.13 2151.36,-342.38 2145.49,-333.55 2141.27,-339.13"/>
</a>
</g>
</g>
<!-- Node26&#45;&gt;Node4 -->
<g id="edge39_Node000026_Node000004" class="edge">
<title>Node26&#45;&gt;Node4</title>
<g id="a_edge39_Node000026_Node000004"><a xlink:title=" ">
<path fill="none" stroke="#63b8ff" d="M1893.1,-319.38C1949.05,-323.27 2022.38,-329.38 2087,-338 2095.37,-339.12 2104.21,-340.52 2112.8,-342.01"/>
<polygon fill="#63b8ff" stroke="#63b8ff" points="2112.26,-345.47 2122.72,-343.78 2113.49,-338.58 2112.26,-345.47"/>
</a>
</g>
</g>
<!-- Node28&#45;&gt;Node19 -->
<g id="edge42_Node000028_Node000019" class="edge">
<title>Node28&#45;&gt;Node19</title>
<g id="a_edge42_Node000028_Node000019"><a xlink:title=" ">
<path fill="none" stroke="#63b8ff" d="M1645.22,-513.96C1704.99,-515.19 1807.47,-513.81 1893,-495 1923.41,-488.31 1956.31,-474.56 1978.91,-464.01"/>
<polygon fill="#63b8ff" stroke="#63b8ff" points="1980.7,-467.04 1988.23,-459.57 1977.69,-460.72 1980.7,-467.04"/>
</a>
</g>
</g>
<!-- Node29&#45;&gt;Node4 -->
<g id="edge47_Node000029_Node000004" class="edge">
<title>Node29&#45;&gt;Node4</title>
<g id="a_edge47_Node000029_Node000004"><a xlink:title=" ">
<path fill="none" stroke="#63b8ff" d="M859.08,-545.58C996.54,-560.29 1385.89,-599.88 1711,-613 1791.82,-616.26 1812.3,-618.59 1893,-613 1979.85,-606.99 2020.23,-641.85 2087,-586 2152.89,-530.89 2162.47,-418.1 2163.55,-372.15"/>
<polygon fill="#63b8ff" stroke="#63b8ff" points="2167.05,-372.03 2163.67,-361.99 2160.05,-371.94 2167.05,-372.03"/>
</a>
</g>
</g>
<!-- Node29&#45;&gt;Node16 -->
<g id="edge48_Node000029_Node000016" class="edge">
<title>Node29&#45;&gt;Node16</title>
<g id="a_edge48_Node000029_Node000016"><a xlink:title=" ">
<path fill="none" stroke="#63b8ff" d="M817.71,-530.37C848.15,-500.17 942,-407.06 981.11,-368.25"/>
<polygon fill="#63b8ff" stroke="#63b8ff" points="983.95,-370.37 988.58,-360.84 979.02,-365.4 983.95,-370.37"/>
</a>
</g>
</g>
<!-- Node30 -->
<g id="Node000030" class="node">
<title>Node30</title>
<g id="a_Node000030"><a xlink:href="class_bit_vector.html#ad60f42244db2c82260326605916431d3" target="_top" xlink:title="Modify the number of known element in this object.">
<polygon fill="white" stroke="#666666" points="1080,-656.5 919,-656.5 919,-637.5 1080,-637.5 1080,-656.5"/>
<text text-anchor="middle" x="999.5" y="-644.5" font-family="Helvetica,sans-Serif" font-size="10.00">BitVector::setElementNumber</text>
</a>
</g>
</g>
<!-- Node29&#45;&gt;Node30 -->
<g id="edge49_Node000029_Node000030" class="edge">
<title>Node29&#45;&gt;Node30</title>
<g id="a_edge49_Node000029_Node000030"><a xlink:title=" ">
<path fill="none" stroke="#63b8ff" d="M824.05,-549.7C845.52,-562.6 884.85,-585.99 919,-605 936.06,-614.49 955.42,-624.73 970.76,-632.73"/>
<polygon fill="#63b8ff" stroke="#63b8ff" points="969.25,-635.89 979.74,-637.38 972.48,-629.67 969.25,-635.89"/>
</a>
</g>
</g>
<!-- Node30&#45;&gt;Node4 -->
<g id="edge58_Node000030_Node000004" class="edge">
<title>Node30&#45;&gt;Node4</title>
<g id="a_edge58_Node000030_Node000004"><a xlink:title=" ">
<path fill="none" stroke="#63b8ff" d="M1038.92,-656.54C1107.74,-672.77 1256.78,-704 1384.5,-704 1384.5,-704 1384.5,-704 1803,-704 1930.23,-704 1992.16,-752.82 2087,-668 2131.96,-627.79 2155.16,-434.52 2161.61,-371.74"/>
<polygon fill="#63b8ff" stroke="#63b8ff" points="2165.11,-371.9 2162.62,-361.6 2158.14,-371.21 2165.11,-371.9"/>
</a>
</g>
</g>
<!-- Node31 -->
<g id="Node000031" class="node">
<title>Node31</title>
<g id="a_Node000031"><a xlink:href="class_bit_vector.html#ad64e921d07b9528a532477f282af135c" target="_top" xlink:title="How many element can fit in this vector without having to resize the vector ?">
<polygon fill="white" stroke="#666666" points="1258,-662 1116,-662 1116,-632 1258,-632 1258,-662"/>
<text text-anchor="start" x="1124" y="-650" font-family="Helvetica,sans-Serif" font-size="10.00">BitVector::currentElement</text>
<text text-anchor="middle" x="1187" y="-639" font-family="Helvetica,sans-Serif" font-size="10.00">Capacity</text>
</a>
</g>
</g>
<!-- Node30&#45;&gt;Node31 -->
<g id="edge50_Node000030_Node000031" class="edge">
<title>Node30&#45;&gt;Node31</title>
<g id="a_edge50_Node000030_Node000031"><a xlink:title=" ">
<path fill="none" stroke="#63b8ff" d="M1080.25,-647C1088.69,-647 1097.29,-647 1105.74,-647"/>
<polygon fill="#63b8ff" stroke="#63b8ff" points="1105.96,-650.5 1115.96,-647 1105.96,-643.5 1105.96,-650.5"/>
</a>
</g>
</g>
<!-- Node31&#45;&gt;Node27 -->
<g id="edge57_Node000031_Node000027" class="edge">
<title>Node31&#45;&gt;Node27</title>
<g id="a_edge57_Node000031_Node000027"><a xlink:title=" ">
<path fill="none" stroke="#63b8ff" d="M1258.11,-640.58C1280.37,-638.54 1304.73,-636.31 1326.08,-634.35"/>
<polygon fill="#63b8ff" stroke="#63b8ff" points="1326.65,-637.81 1336.29,-633.42 1326.01,-630.84 1326.65,-637.81"/>
</a>
</g>
</g>
<!-- Node32 -->
<g id="Node000032" class="node">
<title>Node32</title>
<g id="a_Node000032"><a xlink:href="class_bit_vector.html#a5af3c70f593aac387de23c7e6e5ae57e" target="_top" xlink:title="Find the element that correspond to coord .">
<polygon fill="white" stroke="#666666" points="1459,-675.5 1312,-675.5 1312,-656.5 1459,-656.5 1459,-675.5"/>
<text text-anchor="middle" x="1385.5" y="-663.5" font-family="Helvetica,sans-Serif" font-size="10.00">BitVector::indexCoordinate</text>
</a>
</g>
</g>
<!-- Node31&#45;&gt;Node32 -->
<g id="edge51_Node000031_Node000032" class="edge">
<title>Node31&#45;&gt;Node32</title>
<g id="a_edge51_Node000031_Node000032"><a xlink:title=" ">
<path fill="none" stroke="#63b8ff" d="M1258.11,-653.78C1272.26,-655.15 1287.26,-656.6 1301.79,-658"/>
<polygon fill="#63b8ff" stroke="#63b8ff" points="1301.47,-661.49 1311.76,-658.97 1302.15,-654.52 1301.47,-661.49"/>
</a>
</g>
</g>
<!-- Node32&#45;&gt;Node4 -->
<g id="edge52_Node000032_Node000004" class="edge">
<title>Node32&#45;&gt;Node4</title>
<g id="a_edge52_Node000032_Node000004"><a xlink:title=" ">
<path fill="none" stroke="#63b8ff" d="M1459.19,-668.33C1628.57,-673.08 2038.85,-680.43 2087,-642 2130.2,-607.52 2154.36,-430.76 2161.35,-371.44"/>
<polygon fill="#63b8ff" stroke="#63b8ff" points="2164.83,-371.84 2162.49,-361.5 2157.87,-371.04 2164.83,-371.84"/>
</a>
</g>
</g>
<!-- Node33 -->
<g id="Node000033" class="node">
<title>Node33</title>
<g id="a_Node000033"><a xlink:href="class_bit_vector.html#a354c83853bc3622efa5d45efcae97286" target="_top" xlink:title="Give more detailed on BiteVector::indexCoordinate.">
<polygon fill="white" stroke="#666666" points="1667.5,-578 1520.5,-578 1520.5,-548 1667.5,-548 1667.5,-578"/>
<text text-anchor="start" x="1528.5" y="-566" font-family="Helvetica,sans-Serif" font-size="10.00">BitVector::indexCoordinate</text>
<text text-anchor="middle" x="1594" y="-555" font-family="Helvetica,sans-Serif" font-size="10.00">Untreated</text>
</a>
</g>
</g>
<!-- Node32&#45;&gt;Node33 -->
<g id="edge53_Node000032_Node000033" class="edge">
<title>Node32&#45;&gt;Node33</title>
<g id="a_edge53_Node000032_Node000033"><a xlink:title=" ">
<path fill="none" stroke="#63b8ff" d="M1452.31,-656.44C1460.8,-654.19 1469.23,-651.42 1477,-648 1512.42,-632.42 1547.46,-604.56 1569.61,-584.99"/>
<polygon fill="#63b8ff" stroke="#63b8ff" points="1572.07,-587.48 1577.16,-578.19 1567.39,-582.28 1572.07,-587.48"/>
</a>
</g>
</g>
<!-- Node33&#45;&gt;Node4 -->
<g id="edge54_Node000033_Node000004" class="edge">
<title>Node33&#45;&gt;Node4</title>
<g id="a_edge54_Node000033_Node000004"><a xlink:title=" ">
<path fill="none" stroke="#63b8ff" d="M1646.9,-578.01C1743.66,-602.64 1953.82,-639.91 2087,-544 2144.1,-502.88 2158.61,-412.09 2162.27,-371.86"/>
<polygon fill="#63b8ff" stroke="#63b8ff" points="2165.78,-371.97 2163.06,-361.73 2158.8,-371.43 2165.78,-371.97"/>
</a>
</g>
</g>
<!-- Node33&#45;&gt;Node22 -->
<g id="edge55_Node000033_Node000022" class="edge">
<title>Node33&#45;&gt;Node22</title>
<g id="a_edge55_Node000033_Node000022"><a xlink:title=" ">
<path fill="none" stroke="#63b8ff" d="M1634.27,-547.87C1647.3,-542.7 1661.84,-536.76 1675,-531 1704.33,-518.17 1736.94,-502.6 1761.64,-490.54"/>
<polygon fill="#63b8ff" stroke="#63b8ff" points="1763.26,-493.64 1770.7,-486.1 1760.18,-487.36 1763.26,-493.64"/>
</a>
</g>
</g>
<!-- Node33&#45;&gt;Node23 -->
<g id="edge56_Node000033_Node000023" class="edge">
<title>Node33&#45;&gt;Node23</title>
<g id="a_edge56_Node000033_Node000023"><a xlink:title=" ">
<path fill="none" stroke="#63b8ff" d="M1667.71,-555.41C1746.14,-547.23 1869.76,-534.32 1944.14,-526.56"/>
<polygon fill="#63b8ff" stroke="#63b8ff" points="1944.71,-530.02 1954.3,-525.5 1943.99,-523.06 1944.71,-530.02"/>
</a>
</g>
</g>
<!-- Node34&#45;&gt;Node3 -->
<g id="edge63_Node000034_Node000003" class="edge">
<title>Node34&#45;&gt;Node3</title>
<g id="a_edge63_Node000034_Node000003"><a xlink:title=" ">
<path fill="none" stroke="#63b8ff" d="M481.02,-128.06C504.53,-126.34 530.55,-124.44 552.65,-122.83"/>
<polygon fill="#63b8ff" stroke="#63b8ff" points="553.11,-126.3 562.83,-122.08 552.6,-119.32 553.11,-126.3"/>
</a>
</g>
</g>
</g>
</svg>
