<?xml version="1.0" encoding="UTF-8" standalone="no"?>
<!DOCTYPE svg PUBLIC "-//W3C//DTD SVG 1.1//EN"
 "http://www.w3.org/Graphics/SVG/1.1/DTD/svg11.dtd">
<!-- Generated by graphviz version 2.43.0 (0)
 -->
<!-- Title: Sequence::setHeader Pages: 1 -->
<svg width="1047pt" height="138pt"
 viewBox="0.00 0.00 1047.00 138.00" xmlns="http://www.w3.org/2000/svg" xmlns:xlink="http://www.w3.org/1999/xlink">
<g id="graph0" class="graph" transform="scale(1 1) rotate(0) translate(4 134)">
<title>Sequence::setHeader</title>
<!-- Node1 -->
<g id="Node000001" class="node">
<title>Node1</title>
<g id="a_Node000001"><a xlink:title="Set the Header attribute.">
<polygon fill="#999999" stroke="#666666" points="120,-38 0,-38 0,-19 120,-19 120,-38"/>
<text text-anchor="middle" x="60" y="-26" font-family="Helvetica,sans-Serif" font-size="10.00">Sequence::setHeader</text>
</a>
</g>
</g>
<!-- Node2 -->
<g id="Node000002" class="node">
<title>Node2</title>
<g id="a_Node000002"><a xlink:href="class_sequence.html#ad40777fd2f7ad3ae247fab02459e6759" target="_top" xlink:title="Retrieve the symbol at the position in the sequence.">
<polygon fill="white" stroke="#666666" points="242,-38 156,-38 156,-19 242,-19 242,-38"/>
<text text-anchor="middle" x="199" y="-26" font-family="Helvetica,sans-Serif" font-size="10.00">Sequence::get</text>
</a>
</g>
</g>
<!-- Node1&#45;&gt;Node2 -->
<g id="edge1_Node000001_Node000002" class="edge">
<title>Node1&#45;&gt;Node2</title>
<g id="a_edge1_Node000001_Node000002"><a xlink:title=" ">
<path fill="none" stroke="#63b8ff" d="M120.29,-28.5C128.83,-28.5 137.56,-28.5 145.94,-28.5"/>
<polygon fill="#63b8ff" stroke="#63b8ff" points="145.95,-32 155.95,-28.5 145.95,-25 145.95,-32"/>
</a>
</g>
</g>
<!-- Node2&#45;&gt;Node2 -->
<g id="edge5_Node000002_Node000002" class="edge">
<title>Node2&#45;&gt;Node2</title>
<g id="a_edge5_Node000002_Node000002"><a xlink:title=" ">
<path fill="none" stroke="#63b8ff" d="M177.73,-38.08C167.38,-46.73 174.47,-56 199,-56 214.71,-56 223.27,-52.2 224.67,-47.19"/>
<polygon fill="#63b8ff" stroke="#63b8ff" points="227.77,-45.56 220.27,-38.08 221.47,-48.61 227.77,-45.56"/>
</a>
</g>
</g>
<!-- Node3 -->
<g id="Node000003" class="node">
<title>Node3</title>
<g id="a_Node000003"><a xlink:href="class_bit_vector.html#aebe159444eb9d619959b7325ac5dac2d" target="_top" xlink:title="Return the value of the bit at the position coord.">
<polygon fill="white" stroke="#666666" points="395.5,-112 312.5,-112 312.5,-93 395.5,-93 395.5,-112"/>
<text text-anchor="middle" x="354" y="-100" font-family="Helvetica,sans-Serif" font-size="10.00">BitVector::get</text>
</a>
</g>
</g>
<!-- Node2&#45;&gt;Node3 -->
<g id="edge2_Node000002_Node000003" class="edge">
<title>Node2&#45;&gt;Node3</title>
<g id="a_edge2_Node000002_Node000003"><a xlink:title=" ">
<path fill="none" stroke="#63b8ff" d="M210.76,-38.34C225.07,-50.9 251.62,-72.43 278,-84.5 285.7,-88.02 294.18,-90.91 302.57,-93.25"/>
<polygon fill="#63b8ff" stroke="#63b8ff" points="301.78,-96.66 312.34,-95.75 303.52,-89.88 301.78,-96.66"/>
</a>
</g>
</g>
<!-- Node5 -->
<g id="Node000005" class="node">
<title>Node5</title>
<g id="a_Node000005"><a xlink:href="class_sequence.html#a8181f024304b3fb5f55c7118f648cc61" target="_top" xlink:title="Return a char (same format as Sequence::getType()) that indicate which alphabet is used in the during...">
<polygon fill="white" stroke="#666666" points="430,-75 278,-75 278,-56 430,-56 430,-75"/>
<text text-anchor="middle" x="354" y="-63" font-family="Helvetica,sans-Serif" font-size="10.00">Sequence::getEncodingType</text>
</a>
</g>
</g>
<!-- Node2&#45;&gt;Node5 -->
<g id="edge6_Node000002_Node000005" class="edge">
<title>Node2&#45;&gt;Node5</title>
<g id="a_edge6_Node000002_Node000005"><a xlink:title=" ">
<path fill="none" stroke="#63b8ff" d="M239.27,-38.09C251.66,-41.11 265.4,-44.45 278,-47.5 286.23,-49.49 294.97,-51.6 303.47,-53.64"/>
<polygon fill="#63b8ff" stroke="#63b8ff" points="302.75,-57.06 313.29,-56 304.39,-50.26 302.75,-57.06"/>
</a>
</g>
</g>
<!-- Node6 -->
<g id="Node000006" class="node">
<title>Node6</title>
<g id="a_Node000006"><a xlink:href="class_sequence.html#a49a9126010c0332493c803ddca005394" target="_top" xlink:title="Give a map that compress / decompress char used by Sequence.">
<polygon fill="white" stroke="#666666" points="423.5,-38 284.5,-38 284.5,-19 423.5,-19 423.5,-38"/>
<text text-anchor="middle" x="354" y="-26" font-family="Helvetica,sans-Serif" font-size="10.00">Sequence::translationTab</text>
</a>
</g>
</g>
<!-- Node2&#45;&gt;Node6 -->
<g id="edge7_Node000002_Node000006" class="edge">
<title>Node2&#45;&gt;Node6</title>
<g id="a_edge7_Node000002_Node000006"><a xlink:title=" ">
<path fill="none" stroke="#63b8ff" d="M242.21,-22.39C252.24,-21.99 263.25,-21.78 274.32,-21.75"/>
<polygon fill="#63b8ff" stroke="#63b8ff" points="274.47,-25.25 284.48,-21.78 274.49,-18.25 274.47,-25.25"/>
</a>
</g>
</g>
<!-- Node3&#45;&gt;Node3 -->
<g id="edge3_Node000003_Node000003" class="edge">
<title>Node3&#45;&gt;Node3</title>
<g id="a_edge3_Node000003_Node000003"><a xlink:title=" ">
<path fill="none" stroke="#63b8ff" d="M330.26,-112.08C318.72,-120.73 326.63,-130 354,-130 371.96,-130 381.54,-126.01 382.75,-120.82"/>
<polygon fill="#63b8ff" stroke="#63b8ff" points="385.75,-119.02 377.74,-112.08 379.67,-122.5 385.75,-119.02"/>
</a>
</g>
</g>
<!-- Node4 -->
<g id="Node000004" class="node">
<title>Node4</title>
<g id="a_Node000004"><a xlink:href="class_bit_vector_1_1_coords.html#a2892f7f46c4af93f9733e312229d8ec1" target="_top" xlink:title="Get Coords::octet .">
<polygon fill="white" stroke="#666666" points="583.5,-117.5 476.5,-117.5 476.5,-87.5 583.5,-87.5 583.5,-117.5"/>
<text text-anchor="start" x="484.5" y="-105.5" font-family="Helvetica,sans-Serif" font-size="10.00">BitVector::Coords::</text>
<text text-anchor="middle" x="530" y="-94.5" font-family="Helvetica,sans-Serif" font-size="10.00">getOctet</text>
</a>
</g>
</g>
<!-- Node3&#45;&gt;Node4 -->
<g id="edge4_Node000003_Node000004" class="edge">
<title>Node3&#45;&gt;Node4</title>
<g id="a_edge4_Node000003_Node000004"><a xlink:title=" ">
<path fill="none" stroke="#63b8ff" d="M395.8,-102.5C416.71,-102.5 442.64,-102.5 466.05,-102.5"/>
<polygon fill="#63b8ff" stroke="#63b8ff" points="466.25,-106 476.25,-102.5 466.25,-99 466.25,-106"/>
</a>
</g>
</g>
<!-- Node6&#45;&gt;Node2 -->
<g id="edge13_Node000006_Node000002" class="edge">
<title>Node6&#45;&gt;Node2</title>
<g id="a_edge13_Node000006_Node000002"><a xlink:title=" ">
<path fill="none" stroke="#63b8ff" d="M284.48,-35.22C273.68,-35.31 262.67,-35.21 252.32,-34.94"/>
<polygon fill="#63b8ff" stroke="#63b8ff" points="252.32,-31.44 242.21,-34.61 252.09,-38.44 252.32,-31.44"/>
</a>
</g>
</g>
<!-- Node7 -->
<g id="Node000007" class="node">
<title>Node7</title>
<g id="a_Node000007"><a xlink:href="class_sequence.html#a555c6e58957c4d07028eb5c67b1732ac" target="_top" xlink:title="Function used by Sequence::translationTab to create their compression map.">
<polygon fill="white" stroke="#666666" points="594,-19 466,-19 466,0 594,0 594,-19"/>
<text text-anchor="middle" x="530" y="-7" font-family="Helvetica,sans-Serif" font-size="10.00">Sequence::fillCodeMap</text>
</a>
</g>
</g>
<!-- Node6&#45;&gt;Node7 -->
<g id="edge8_Node000006_Node000007" class="edge">
<title>Node6&#45;&gt;Node7</title>
<g id="a_edge8_Node000006_Node000007"><a xlink:title=" ">
<path fill="none" stroke="#63b8ff" d="M423.77,-20.99C434.28,-19.84 445.16,-18.65 455.76,-17.5"/>
<polygon fill="#63b8ff" stroke="#63b8ff" points="456.26,-20.96 465.82,-16.4 455.5,-14.01 456.26,-20.96"/>
</a>
</g>
</g>
<!-- Node7&#45;&gt;Node2 -->
<g id="edge9_Node000007_Node000002" class="edge">
<title>Node7&#45;&gt;Node2</title>
<g id="a_edge9_Node000007_Node000002"><a xlink:title=" ">
<path fill="none" stroke="#63b8ff" d="M465.83,-5.35C414.92,-3 341.6,-1.87 278,-9.5 266.01,-10.94 253.21,-13.58 241.51,-16.44"/>
<polygon fill="#63b8ff" stroke="#63b8ff" points="240.38,-13.12 231.56,-18.99 242.12,-19.9 240.38,-13.12"/>
</a>
</g>
</g>
<!-- Node8 -->
<g id="Node000008" class="node">
<title>Node8</title>
<g id="a_Node000008"><a xlink:href="class_sequence.html#acf21040958590f98163b3d11f19ea93e" target="_top" xlink:title="Give the number of element contained in this sequence.">
<polygon fill="white" stroke="#666666" points="719,-19 630,-19 630,0 719,0 719,-19"/>
<text text-anchor="middle" x="674.5" y="-7" font-family="Helvetica,sans-Serif" font-size="10.00">Sequence::size</text>
</a>
</g>
</g>
<!-- Node7&#45;&gt;Node8 -->
<g id="edge10_Node000007_Node000008" class="edge">
<title>Node7&#45;&gt;Node8</title>
<g id="a_edge10_Node000007_Node000008"><a xlink:title=" ">
<path fill="none" stroke="#63b8ff" d="M594.33,-9.5C602.8,-9.5 611.42,-9.5 619.7,-9.5"/>
<polygon fill="#63b8ff" stroke="#63b8ff" points="619.98,-13 629.98,-9.5 619.98,-6 619.98,-13"/>
</a>
</g>
</g>
<!-- Node9 -->
<g id="Node000009" class="node">
<title>Node9</title>
<g id="a_Node000009"><a xlink:href="class_bit_vector.html#ab30ea2b408107e4e6bc8095b5a64a1dd" target="_top" xlink:title="Number of element inside this object.">
<polygon fill="white" stroke="#666666" points="841,-19 755,-19 755,0 841,0 841,-19"/>
<text text-anchor="middle" x="798" y="-7" font-family="Helvetica,sans-Serif" font-size="10.00">BitVector::size</text>
</a>
</g>
</g>
<!-- Node8&#45;&gt;Node9 -->
<g id="edge11_Node000008_Node000009" class="edge">
<title>Node8&#45;&gt;Node9</title>
<g id="a_edge11_Node000008_Node000009"><a xlink:title=" ">
<path fill="none" stroke="#63b8ff" d="M719.02,-9.5C727.25,-9.5 735.94,-9.5 744.41,-9.5"/>
<polygon fill="#63b8ff" stroke="#63b8ff" points="744.6,-13 754.6,-9.5 744.6,-6 744.6,-13"/>
</a>
</g>
</g>
<!-- Node10 -->
<g id="Node000010" class="node">
<title>Node10</title>
<g id="a_Node000010"><a xlink:href="class_bit_vector.html#a5339660cfb315ab5de7f78bdf5af4ce1" target="_top" xlink:title="Get BitVector::_element_number.">
<polygon fill="white" stroke="#666666" points="1039,-19 877,-19 877,0 1039,0 1039,-19"/>
<text text-anchor="middle" x="958" y="-7" font-family="Helvetica,sans-Serif" font-size="10.00">BitVector::getElementNumber</text>
</a>
</g>
</g>
<!-- Node9&#45;&gt;Node10 -->
<g id="edge12_Node000009_Node000010" class="edge">
<title>Node9&#45;&gt;Node10</title>
<g id="a_edge12_Node000009_Node000010"><a xlink:title=" ">
<path fill="none" stroke="#63b8ff" d="M841.34,-9.5C849.23,-9.5 857.74,-9.5 866.44,-9.5"/>
<polygon fill="#63b8ff" stroke="#63b8ff" points="866.71,-13 876.71,-9.5 866.71,-6 866.71,-13"/>
</a>
</g>
</g>
</g>
</svg>
