<?xml version="1.0" encoding="UTF-8" standalone="no"?>
<!DOCTYPE svg PUBLIC "-//W3C//DTD SVG 1.1//EN"
 "http://www.w3.org/Graphics/SVG/1.1/DTD/svg11.dtd">
<!-- Generated by graphviz version 2.43.0 (0)
 -->
<!-- Title: BitVector::append Pages: 1 -->
<!--zoomable 138 -->

<svg id="main" version="1.1" xmlns="http://www.w3.org/2000/svg" xmlns:xlink="http://www.w3.org/1999/xlink" xml:space="preserve" onload="init(evt)">
<style type="text/css"><![CDATA[
.node, .edge {opacity: 0.7;}
.node.selected, .edge.selected {opacity: 1;}
.edge:hover path { stroke: red; }
.edge:hover polygon { stroke: red; fill: red; }
]]></style>

<defs>
  <circle id="rim" cx="0" cy="0" r="7"/>
  <circle id="rim2" cx="0" cy="0" r="3.5"/>
  <g id="zoomPlus">
    <use xlink:href="#rim" fill="#404040"><set attributeName="fill" to="#808080" begin="zoomplus.mouseover" end="zoomplus.mouseout"/></use>
    <path d="M-4,0h8M0,-4v8" fill="none" stroke="white" stroke-width="1.5" pointer-events="none"/>
  </g>
  <g id="zoomMin">
    <use xlink:href="#rim" fill="#404040"><set attributeName="fill" to="#808080" begin="zoomminus.mouseover" end="zoomminus.mouseout"/></use>
    <path d="M-4,0h8" fill="none" stroke="white" stroke-width="1.5" pointer-events="none"/>
  </g>
  <g id="arrowUp" transform="translate(30 24)">
    <use xlink:href="#rim"/>
    <path pointer-events="none" fill="none" stroke="white" stroke-width="1.5" d="M0,-3.0v7 M-2.5,-0.5L0,-3.0L2.5,-0.5"/>
  </g>
  <g id="arrowRight" transform="rotate(90) translate(36 -43)">
    <use xlink:href="#rim"/>
    <path pointer-events="none" fill="none" stroke="white" stroke-width="1.5" d="M0,-3.0v7 M-2.5,-0.5L0,-3.0L2.5,-0.5"/>
  </g>
  <g id="arrowDown" transform="rotate(180) translate(-30 -48)">
    <use xlink:href="#rim"/>
    <path pointer-events="none" fill="none" stroke="white" stroke-width="1.5" d="M0,-3.0v7 M-2.5,-0.5L0,-3.0L2.5,-0.5"/>
  </g>
  <g id="arrowLeft" transform="rotate(270) translate(-36 17)">
    <use xlink:href="#rim"/>
    <path pointer-events="none" fill="none" stroke="white" stroke-width="1.5" d="M0,-3.0v7 M-2.5,-0.5L0,-3.0L2.5,-0.5"/>
  </g>
  <g id="resetDef">
    <use xlink:href="#rim2" fill="#404040"><set attributeName="fill" to="#808080" begin="reset.mouseover" end="reset.mouseout"/></use>
  </g>
</defs>
<script type="application/ecmascript">
var viewWidth = 775;
var viewHeight = 138;
var sectionId = 'dynsection-7';
</script>
<script type="application/ecmascript" xlink:href="svg.min.js"/>
<svg id="graph" class="graph">
<g id="viewport">
<title>BitVector::append</title>
<!-- Node1 -->
<g id="Node000001" class="node">
<title>Node1</title>
<g id="a_Node000001"><a xlink:title="Add an element at the end of the vector.">
<polygon fill="#999999" stroke="#666666" points="767,-74 664,-74 664,-55 767,-55 767,-74"/>
<text text-anchor="middle" x="715.5" y="-62" font-family="Helvetica,sans-Serif" font-size="10.00">BitVector::append</text>
</a>
</g>
</g>
<!-- Node2 -->
<g id="Node000002" class="node">
<title>Node2</title>
<g id="a_Node000002"><a xlink:href="class_bit_vector.html#a5547d55a697d61de026d0a94e743624b" target="_top" xlink:title="Construct a new Bit Vector object.">
<polygon fill="white" stroke="#666666" points="594.5,-93 483.5,-93 483.5,-74 594.5,-74 594.5,-93"/>
<text text-anchor="middle" x="539" y="-81" font-family="Helvetica,sans-Serif" font-size="10.00">BitVector::BitVector</text>
</a>
</g>
</g>
<!-- Node1&#45;&gt;Node2 -->
<g id="edge1_Node000001_Node000002" class="edge">
<title>Node1&#45;&gt;Node2</title>
<g id="a_edge1_Node000001_Node000002"><a xlink:title=" ">
<path fill="none" stroke="#63b8ff" d="M653.45,-71.15C634.31,-73.23 613.32,-75.52 594.66,-77.55"/>
<polygon fill="#63b8ff" stroke="#63b8ff" points="654,-74.61 663.56,-70.05 653.24,-67.65 654,-74.61"/>
</a>
</g>
</g>
<!-- Node3 -->
<g id="Node000003" class="node">
<title>Node3</title>
<g id="a_Node000003"><a xlink:href="class_bit_vector.html#a686af396e4dff1536b7588213726c4cc" target="_top" xlink:title="Insert a number of blank position inside BitVector::_data.">
<polygon fill="white" stroke="#666666" points="628,-56 450,-56 450,-37 628,-37 628,-56"/>
<text text-anchor="middle" x="539" y="-44" font-family="Helvetica,sans-Serif" font-size="10.00">BitVector::makeRoomForElement</text>
</a>
</g>
</g>
<!-- Node1&#45;&gt;Node3 -->
<g id="edge2_Node000001_Node000003" class="edge">
<title>Node1&#45;&gt;Node3</title>
<g id="a_edge2_Node000001_Node000003"><a xlink:title=" ">
<path fill="none" stroke="#63b8ff" d="M653.38,-58.2C645.19,-57.35 636.65,-56.47 628.11,-55.59"/>
<polygon fill="#63b8ff" stroke="#63b8ff" points="653.25,-61.7 663.56,-59.25 653.97,-54.74 653.25,-61.7"/>
</a>
</g>
</g>
<!-- Node4 -->
<g id="Node000004" class="node">
<title>Node4</title>
<g id="a_Node000004"><a xlink:href="class_sequence.html#aa48778c592160ac60319f780817f491c" target="_top" xlink:title="Insert a number of chars at the position position .">
<polygon fill="white" stroke="#666666" points="414,-93 316,-93 316,-74 414,-74 414,-93"/>
<text text-anchor="middle" x="365" y="-81" font-family="Helvetica,sans-Serif" font-size="10.00">Sequence::insert</text>
</a>
</g>
</g>
<!-- Node3&#45;&gt;Node4 -->
<g id="edge3_Node000003_Node000004" class="edge">
<title>Node3&#45;&gt;Node4</title>
<g id="a_edge3_Node000003_Node000004"><a xlink:title=" ">
<path fill="none" stroke="#63b8ff" d="M483.83,-58.15C460.21,-63.23 432.85,-69.12 410.44,-73.94"/>
<polygon fill="#63b8ff" stroke="#63b8ff" points="484.67,-61.55 493.71,-56.03 483.19,-54.71 484.67,-61.55"/>
</a>
</g>
</g>
<!-- Node11 -->
<g id="Node000011" class="node">
<title>Node11</title>
<g id="a_Node000011"><a xlink:href="class_bit_vector.html#a9f86c96c013632abd9d18feafe78d72e" target="_top" xlink:title="Insert a number_of_elements inside the vector at the index pos .">
<polygon fill="white" stroke="#666666" points="412.5,-56 317.5,-56 317.5,-37 412.5,-37 412.5,-56"/>
<text text-anchor="middle" x="365" y="-44" font-family="Helvetica,sans-Serif" font-size="10.00">BitVector::insert</text>
</a>
</g>
</g>
<!-- Node3&#45;&gt;Node11 -->
<g id="edge10_Node000003_Node000011" class="edge">
<title>Node3&#45;&gt;Node11</title>
<g id="a_edge10_Node000003_Node000011"><a xlink:title=" ">
<path fill="none" stroke="#63b8ff" d="M439.74,-46.5C430.36,-46.5 421.17,-46.5 412.64,-46.5"/>
<polygon fill="#63b8ff" stroke="#63b8ff" points="439.98,-50 449.98,-46.5 439.98,-43 439.98,-50"/>
</a>
</g>
</g>
<!-- Node12 -->
<g id="Node000012" class="node">
<title>Node12</title>
<g id="a_Node000012"><a xlink:href="class_bit_vector.html#a915743b3f94c75c22317d160bfa741ff" target="_top" xlink:title="Insert a number_of_elements inside the vector at the index pos .">
<polygon fill="white" stroke="#666666" points="412.5,-19 317.5,-19 317.5,0 412.5,0 412.5,-19"/>
<text text-anchor="middle" x="365" y="-7" font-family="Helvetica,sans-Serif" font-size="10.00">BitVector::insert</text>
</a>
</g>
</g>
<!-- Node3&#45;&gt;Node12 -->
<g id="edge11_Node000003_Node000012" class="edge">
<title>Node3&#45;&gt;Node12</title>
<g id="a_edge11_Node000003_Node000012"><a xlink:title=" ">
<path fill="none" stroke="#63b8ff" d="M483.83,-34.85C460.21,-29.77 432.85,-23.88 410.44,-19.06"/>
<polygon fill="#63b8ff" stroke="#63b8ff" points="483.19,-38.29 493.71,-36.97 484.67,-31.45 483.19,-38.29"/>
</a>
</g>
</g>
<!-- Node5 -->
<g id="Node000005" class="node">
<title>Node5</title>
<g id="a_Node000005"><a xlink:href="class_sequence.html#a3cf6cf5e54782f4d1a2ee07ec519523c" target="_top" xlink:title="Insert a char at the position position .">
<polygon fill="white" stroke="#666666" points="268,-130 170,-130 170,-111 268,-111 268,-130"/>
<text text-anchor="middle" x="219" y="-118" font-family="Helvetica,sans-Serif" font-size="10.00">Sequence::insert</text>
</a>
</g>
</g>
<!-- Node4&#45;&gt;Node5 -->
<g id="edge4_Node000004_Node000005" class="edge">
<title>Node4&#45;&gt;Node5</title>
<g id="a_edge4_Node000004_Node000005"><a xlink:title=" ">
<path fill="none" stroke="#63b8ff" d="M317.09,-95.55C297.77,-100.52 275.68,-106.19 257.46,-110.88"/>
<polygon fill="#63b8ff" stroke="#63b8ff" points="318.1,-98.91 326.92,-93.03 316.36,-92.13 318.1,-98.91"/>
</a>
</g>
</g>
<!-- Node6 -->
<g id="Node000006" class="node">
<title>Node6</title>
<g id="a_Node000006"><a xlink:href="class_sequence.html#aa57fd5a7fdd173374e56006ce1c47bdc" target="_top" xlink:title="Insert a number of chars at the the back of the sequence position .">
<polygon fill="white" stroke="#666666" points="280,-93 158,-93 158,-74 280,-74 280,-93"/>
<text text-anchor="middle" x="219" y="-81" font-family="Helvetica,sans-Serif" font-size="10.00">Sequence::insertBack</text>
</a>
</g>
</g>
<!-- Node4&#45;&gt;Node6 -->
<g id="edge5_Node000004_Node000006" class="edge">
<title>Node4&#45;&gt;Node6</title>
<g id="a_edge5_Node000004_Node000006"><a xlink:title=" ">
<path fill="none" stroke="#63b8ff" d="M305.61,-83.5C297.25,-83.5 288.64,-83.5 280.25,-83.5"/>
<polygon fill="#63b8ff" stroke="#63b8ff" points="305.65,-87 315.65,-83.5 305.65,-80 305.65,-87"/>
</a>
</g>
</g>
<!-- Node7 -->
<g id="Node000007" class="node">
<title>Node7</title>
<g id="a_Node000007"><a xlink:href="class_sequence.html#a092f380b654de9aaa8a770ec0948c454" target="_top" xlink:title="Insert a number of chars at the the front of the sequence position .">
<polygon fill="white" stroke="#666666" points="280,-56 158,-56 158,-37 280,-37 280,-56"/>
<text text-anchor="middle" x="219" y="-44" font-family="Helvetica,sans-Serif" font-size="10.00">Sequence::insertFront</text>
</a>
</g>
</g>
<!-- Node4&#45;&gt;Node7 -->
<g id="edge6_Node000004_Node000007" class="edge">
<title>Node4&#45;&gt;Node7</title>
<g id="a_edge6_Node000004_Node000007"><a xlink:title=" ">
<path fill="none" stroke="#63b8ff" d="M317.09,-71.45C297.77,-66.48 275.68,-60.81 257.46,-56.12"/>
<polygon fill="#63b8ff" stroke="#63b8ff" points="316.36,-74.87 326.92,-73.97 318.1,-68.09 316.36,-74.87"/>
</a>
</g>
</g>
<!-- Node8 -->
<g id="Node000008" class="node">
<title>Node8</title>
<g id="a_Node000008"><a xlink:href="class_sequence.html#a16e70626e330194c1507ed339c9c629c" target="_top" xlink:title="Insert a char at the the back of the sequence position .">
<polygon fill="white" stroke="#666666" points="122,-93 0,-93 0,-74 122,-74 122,-93"/>
<text text-anchor="middle" x="61" y="-81" font-family="Helvetica,sans-Serif" font-size="10.00">Sequence::insertBack</text>
</a>
</g>
</g>
<!-- Node7&#45;&gt;Node8 -->
<g id="edge7_Node000007_Node000008" class="edge">
<title>Node7&#45;&gt;Node8</title>
<g id="a_edge7_Node000007_Node000008"><a xlink:title=" ">
<path fill="none" stroke="#63b8ff" d="M168.01,-58.36C146.78,-63.39 122.36,-69.18 102.31,-73.94"/>
<polygon fill="#63b8ff" stroke="#63b8ff" points="168.9,-61.74 177.83,-56.03 167.29,-54.93 168.9,-61.74"/>
</a>
</g>
</g>
<!-- Node9 -->
<g id="Node000009" class="node">
<title>Node9</title>
<g id="a_Node000009"><a xlink:href="class_sequence.html#a1fa6868ce587e1f3d779bb226cfda548" target="_top" xlink:title="Insert a char at the the front of the sequence position .">
<polygon fill="white" stroke="#666666" points="122,-56 0,-56 0,-37 122,-37 122,-56"/>
<text text-anchor="middle" x="61" y="-44" font-family="Helvetica,sans-Serif" font-size="10.00">Sequence::insertFront</text>
</a>
</g>
</g>
<!-- Node7&#45;&gt;Node9 -->
<g id="edge8_Node000007_Node000009" class="edge">
<title>Node7&#45;&gt;Node9</title>
<g id="a_edge8_Node000007_Node000009"><a xlink:title=" ">
<path fill="none" stroke="#63b8ff" d="M147.46,-46.5C139.01,-46.5 130.44,-46.5 122.15,-46.5"/>
<polygon fill="#63b8ff" stroke="#63b8ff" points="147.69,-50 157.69,-46.5 147.69,-43 147.69,-50"/>
</a>
</g>
</g>
<!-- Node10 -->
<g id="Node000010" class="node">
<title>Node10</title>
<g id="a_Node000010"><a xlink:href="class_sequence.html#ae293cd5124445b604bbcba3a5f01a48a" target="_top" xlink:title="Main Constructor. Construct a new Sequence object.">
<polygon fill="white" stroke="#666666" points="119.5,-19 2.5,-19 2.5,0 119.5,0 119.5,-19"/>
<text text-anchor="middle" x="61" y="-7" font-family="Helvetica,sans-Serif" font-size="10.00">Sequence::Sequence</text>
</a>
</g>
</g>
<!-- Node7&#45;&gt;Node10 -->
<g id="edge9_Node000007_Node000010" class="edge">
<title>Node7&#45;&gt;Node10</title>
<g id="a_edge9_Node000007_Node000010"><a xlink:title=" ">
<path fill="none" stroke="#63b8ff" d="M168.01,-34.64C146.78,-29.61 122.36,-23.82 102.31,-19.06"/>
<polygon fill="#63b8ff" stroke="#63b8ff" points="167.29,-38.07 177.83,-36.97 168.9,-31.26 167.29,-38.07"/>
</a>
</g>
</g>
</g>
</svg>

<g id="navigator" transform="translate(0 0)" fill="#404254">
  <rect fill="#f2f5e9" fill-opacity="0.5" stroke="#606060" stroke-width=".5" x="0" y="0" width="60" height="60"/>
  <use id="zoomplus" xlink:href="#zoomPlus" x="17" y="9" onmousedown="handleZoom(evt,'in')"/>
  <use id="zoomminus" xlink:href="#zoomMin" x="42" y="9" onmousedown="handleZoom(evt,'out')"/>
  <use id="reset" xlink:href="#resetDef" x="30" y="36" onmousedown="handleReset()"/>
   <use id="arrowup" xlink:href="#arrowUp" x="0" y="0" onmousedown="handlePan(0,-1)"/>
  <use id="arrowright" xlink:href="#arrowRight" x="0" y="0" onmousedown="handlePan(1,0)"/>
  <use id="arrowdown" xlink:href="#arrowDown" x="0" y="0" onmousedown="handlePan(0,1)"/>
  <use id="arrowleft" xlink:href="#arrowLeft" x="0" y="0" onmousedown="handlePan(-1,0)"/>
</g>
<svg viewBox="0 0 15 15" width="100%" height="30px" preserveAspectRatio="xMaxYMin meet">
 <g id="arrow_out" transform="scale(0.3 0.3)">
  <a xlink:href="class_bit_vector_afbdbe8a5003f5941ffd5ab095cf87d88_icgraph_org.svg" target="_base">
   <rect id="button" ry="5" rx="5" y="6" x="6" height="38" width="38"
        fill="#f2f5e9" fill-opacity="0.5" stroke="#606060" stroke-width="1.0"/>
   <path id="arrow"
     d="M 11.500037,31.436501 C 11.940474,20.09759 22.043105,11.32322 32.158766,21.979434 L 37.068811,17.246167 C 37.068811,17.246167 37.088388,32 37.088388,32 L 22.160133,31.978069 C 22.160133,31.978069 26.997745,27.140456 26.997745,27.140456 C 18.528582,18.264221 13.291696,25.230495 11.500037,31.436501 z"
     style="fill:#404040;"/>
  </a>
 </g>
</svg>

<style type='text/css'>
<![CDATA[
[data-mouse-over-selected='false'] { opacity: 0.7; }
[data-mouse-over-selected='true']  { opacity: 1.0; }
]]>
</style>
<script type="application/ecmascript"><![CDATA[
document.addEventListener('DOMContentLoaded', (event) => {
  highlightEdges();
  highlightAdjacentNodes();
});
]]></script>
</svg>
