<?xml version="1.0" encoding="UTF-8" standalone="no"?>
<!DOCTYPE svg PUBLIC "-//W3C//DTD SVG 1.1//EN"
 "http://www.w3.org/Graphics/SVG/1.1/DTD/svg11.dtd">
<!-- Generated by graphviz version 2.43.0 (0)
 -->
<!-- Title: Header Pages: 1 -->
<svg width="195pt" height="464pt"
 viewBox="0.00 0.00 195.00 464.00" xmlns="http://www.w3.org/2000/svg" xmlns:xlink="http://www.w3.org/1999/xlink">
<g id="graph0" class="graph" transform="scale(1 1) rotate(0) translate(4 460)">
<title>Header</title>
<!-- Node1 -->
<g id="Node000001" class="node">
<title>Node1</title>
<g id="a_Node000001"><a xlink:title="Represent the header of a Fasta / FastQ file.">
<polygon fill="#999999" stroke="transparent" points="140.5,-456 46.5,-456 46.5,-347 140.5,-347 140.5,-456"/>
<text text-anchor="start" x="75.5" y="-443.5" font-family="Helvetica,sans-Serif" font-size="10.00">Header</text>
<text text-anchor="start" x="53" y="-428.5" font-family="Helvetica,sans-Serif" font-size="10.00">&#45;</text>
<text text-anchor="start" x="63.5" y="-428.5" font-family="Helvetica,sans-Serif" font-size="10.00">_comment</text>
<text text-anchor="start" x="53" y="-413.5" font-family="Helvetica,sans-Serif" font-size="10.00">&#45;</text>
<text text-anchor="start" x="63.5" y="-413.5" font-family="Helvetica,sans-Serif" font-size="10.00">_accession</text>
<text text-anchor="start" x="50.5" y="-398.5" font-family="Helvetica,sans-Serif" font-size="10.00">+</text>
<text text-anchor="start" x="63.5" y="-398.5" font-family="Helvetica,sans-Serif" font-size="10.00">getComment()</text>
<text text-anchor="start" x="50.5" y="-383.5" font-family="Helvetica,sans-Serif" font-size="10.00">+</text>
<text text-anchor="start" x="63.5" y="-383.5" font-family="Helvetica,sans-Serif" font-size="10.00">setComment()</text>
<text text-anchor="start" x="50.5" y="-368.5" font-family="Helvetica,sans-Serif" font-size="10.00">+</text>
<text text-anchor="start" x="63.5" y="-368.5" font-family="Helvetica,sans-Serif" font-size="10.00">getAccession()</text>
<text text-anchor="start" x="50.5" y="-353.5" font-family="Helvetica,sans-Serif" font-size="10.00">+</text>
<text text-anchor="start" x="63.5" y="-353.5" font-family="Helvetica,sans-Serif" font-size="10.00">setAccession()</text>
<polygon fill="#666666" stroke="#666666" points="46.5,-438.5 46.5,-438.5 140.5,-438.5 140.5,-438.5 46.5,-438.5"/>
<polygon fill="#666666" stroke="#666666" points="46.5,-408.5 46.5,-408.5 61.5,-408.5 61.5,-408.5 46.5,-408.5"/>
<polygon fill="#666666" stroke="#666666" points="61.5,-408.5 61.5,-408.5 140.5,-408.5 140.5,-408.5 61.5,-408.5"/>
<polygon fill="none" stroke="#666666" points="46.5,-347 46.5,-456 140.5,-456 140.5,-347 46.5,-347"/>
</a>
</g>
</g>
<!-- Node2 -->
<g id="Node000002" class="node">
<title>Node2</title>
<g id="a_Node000002"><a xlink:href="class_fasta_header.html" target="_top" xlink:title="A header function that is supposed to be hubble to parse Header from Fasta file.">
<polygon fill="white" stroke="transparent" points="187,-311 0,-311 0,0 187,0 187,-311"/>
<text text-anchor="start" x="63.5" y="-298.5" font-family="Helvetica,sans-Serif" font-size="10.00">FastaHeader</text>
<text text-anchor="start" x="7" y="-283.5" font-family="Helvetica,sans-Serif" font-size="10.00">&#45;</text>
<text text-anchor="start" x="17.5" y="-283.5" font-family="Helvetica,sans-Serif" font-size="10.00">identifier_format</text>
<text text-anchor="start" x="7" y="-268.5" font-family="Helvetica,sans-Serif" font-size="10.00">&#45;</text>
<text text-anchor="start" x="17.5" y="-268.5" font-family="Helvetica,sans-Serif" font-size="10.00">identifier</text>
<text text-anchor="start" x="4.5" y="-253.5" font-family="Helvetica,sans-Serif" font-size="10.00">+</text>
<text text-anchor="start" x="17.5" y="-253.5" font-family="Helvetica,sans-Serif" font-size="10.00">FastaHeader()</text>
<text text-anchor="start" x="4.5" y="-238.5" font-family="Helvetica,sans-Serif" font-size="10.00">+</text>
<text text-anchor="start" x="17.5" y="-238.5" font-family="Helvetica,sans-Serif" font-size="10.00">FastaHeader()</text>
<text text-anchor="start" x="4.5" y="-223.5" font-family="Helvetica,sans-Serif" font-size="10.00">+</text>
<text text-anchor="start" x="17.5" y="-223.5" font-family="Helvetica,sans-Serif" font-size="10.00">load()</text>
<text text-anchor="start" x="4.5" y="-208.5" font-family="Helvetica,sans-Serif" font-size="10.00">+</text>
<text text-anchor="start" x="17.5" y="-208.5" font-family="Helvetica,sans-Serif" font-size="10.00">getIdentifiers()</text>
<text text-anchor="start" x="4.5" y="-193.5" font-family="Helvetica,sans-Serif" font-size="10.00">+</text>
<text text-anchor="start" x="17.5" y="-193.5" font-family="Helvetica,sans-Serif" font-size="10.00">getFormat()</text>
<text text-anchor="start" x="4.5" y="-178.5" font-family="Helvetica,sans-Serif" font-size="10.00">+</text>
<text text-anchor="start" x="17.5" y="-178.5" font-family="Helvetica,sans-Serif" font-size="10.00">findFirstWord()</text>
<text text-anchor="start" x="4.5" y="-163.5" font-family="Helvetica,sans-Serif" font-size="10.00">+</text>
<text text-anchor="start" x="17.5" y="-163.5" font-family="Helvetica,sans-Serif" font-size="10.00">clearRawHeader()</text>
<text text-anchor="start" x="4.5" y="-148.5" font-family="Helvetica,sans-Serif" font-size="10.00">+</text>
<text text-anchor="start" x="17.5" y="-148.5" font-family="Helvetica,sans-Serif" font-size="10.00">cutRawHeader()</text>
<text text-anchor="start" x="4.5" y="-133.5" font-family="Helvetica,sans-Serif" font-size="10.00">+</text>
<text text-anchor="start" x="17.5" y="-133.5" font-family="Helvetica,sans-Serif" font-size="10.00">parseRawHeader()</text>
<text text-anchor="start" x="4.5" y="-118.5" font-family="Helvetica,sans-Serif" font-size="10.00">+</text>
<text text-anchor="start" x="17.5" y="-118.5" font-family="Helvetica,sans-Serif" font-size="10.00">parseRawHeader()</text>
<text text-anchor="start" x="4.5" y="-103.5" font-family="Helvetica,sans-Serif" font-size="10.00">+</text>
<text text-anchor="start" x="17.5" y="-103.5" font-family="Helvetica,sans-Serif" font-size="10.00">intermediateMakeFormatFrom</text>
<text text-anchor="start" x="17.5" y="-92.5" font-family="Helvetica,sans-Serif" font-size="10.00">Vector()</text>
<text text-anchor="start" x="4.5" y="-77.5" font-family="Helvetica,sans-Serif" font-size="10.00">+</text>
<text text-anchor="start" x="17.5" y="-77.5" font-family="Helvetica,sans-Serif" font-size="10.00">makeGenInfoBackboneIdHeader()</text>
<text text-anchor="start" x="4.5" y="-62.5" font-family="Helvetica,sans-Serif" font-size="10.00">+</text>
<text text-anchor="start" x="17.5" y="-62.5" font-family="Helvetica,sans-Serif" font-size="10.00">parseGenInfoBackboneIdHeader()</text>
<text text-anchor="start" x="4.5" y="-47.5" font-family="Helvetica,sans-Serif" font-size="10.00">+</text>
<text text-anchor="start" x="17.5" y="-47.5" font-family="Helvetica,sans-Serif" font-size="10.00">parseGenInfoBackboneIdHeader()</text>
<text text-anchor="start" x="4.5" y="-32.5" font-family="Helvetica,sans-Serif" font-size="10.00">+</text>
<text text-anchor="start" x="17.5" y="-32.5" font-family="Helvetica,sans-Serif" font-size="10.00">makeGenInfoBackboneMoltype</text>
<text text-anchor="start" x="17.5" y="-21.5" font-family="Helvetica,sans-Serif" font-size="10.00">Header()</text>
<text text-anchor="start" x="17.5" y="-6.5" font-family="Helvetica,sans-Serif" font-size="10.00">and 59 more...</text>
<polygon fill="#666666" stroke="#666666" points="0.5,-293.5 0.5,-293.5 187.5,-293.5 187.5,-293.5 0.5,-293.5"/>
<polygon fill="#666666" stroke="#666666" points="0.5,-263.5 0.5,-263.5 15.5,-263.5 15.5,-263.5 0.5,-263.5"/>
<polygon fill="#666666" stroke="#666666" points="15.5,-263.5 15.5,-263.5 187.5,-263.5 187.5,-263.5 15.5,-263.5"/>
<polygon fill="none" stroke="#666666" points="0,0 0,-311 187,-311 187,0 0,0"/>
</a>
</g>
</g>
<!-- Node1&#45;&gt;Node2 -->
<g id="edge1_Node000001_Node000002" class="edge">
<title>Node1&#45;&gt;Node2</title>
<g id="a_edge1_Node000001_Node000002"><a xlink:title=" ">
<path fill="none" stroke="#63b8ff" d="M93.5,-336.94C93.5,-328.82 93.5,-320.26 93.5,-311.45"/>
<polygon fill="none" stroke="#63b8ff" points="90,-336.95 93.5,-346.95 97,-336.95 90,-336.95"/>
</a>
</g>
</g>
</g>
</svg>
