<?xml version="1.0" encoding="UTF-8" standalone="no"?>
<!DOCTYPE svg PUBLIC "-//W3C//DTD SVG 1.1//EN"
 "http://www.w3.org/Graphics/SVG/1.1/DTD/svg11.dtd">
<!-- Generated by graphviz version 2.43.0 (0)
 -->
<!-- Title: BitVector::indexElementUntreated Pages: 1 -->
<svg width="1055pt" height="180pt"
 viewBox="0.00 0.00 1055.00 180.17" xmlns="http://www.w3.org/2000/svg" xmlns:xlink="http://www.w3.org/1999/xlink">
<g id="graph0" class="graph" transform="scale(1 1) rotate(0) translate(4 176.17)">
<title>BitVector::indexElementUntreated</title>
<!-- Node1 -->
<g id="Node000001" class="node">
<title>Node1</title>
<g id="a_Node000001"><a xlink:title="Give A size_t that represent the coords of the first bit of an element.">
<polygon fill="#999999" stroke="#666666" points="183,-107.43 0,-107.43 0,-88.43 183,-88.43 183,-107.43"/>
<text text-anchor="middle" x="91.5" y="-95.43" font-family="Helvetica,sans-Serif" font-size="10.00">BitVector::indexElementUntreated</text>
</a>
</g>
</g>
<!-- Node2 -->
<g id="Node000002" class="node">
<title>Node2</title>
<g id="a_Node000002"><a xlink:href="class_bit_vector.html#aebe159444eb9d619959b7325ac5dac2d" target="_top" xlink:title="Return the value of the bit at the position coord.">
<polygon fill="white" stroke="#666666" points="904,-104.43 821,-104.43 821,-85.43 904,-85.43 904,-104.43"/>
<text text-anchor="middle" x="862.5" y="-92.43" font-family="Helvetica,sans-Serif" font-size="10.00">BitVector::get</text>
</a>
</g>
</g>
<!-- Node1&#45;&gt;Node2 -->
<g id="edge1_Node000001_Node000002" class="edge">
<title>Node1&#45;&gt;Node2</title>
<g id="a_edge1_Node000001_Node000002"><a xlink:title=" ">
<path fill="none" stroke="#63b8ff" d="M154.43,-107.47C253.8,-122.25 455.17,-150 627,-159.93 697.11,-163.99 719.09,-184.16 785,-159.93 810.4,-150.6 833.12,-128.68 847.08,-112.88"/>
<polygon fill="#63b8ff" stroke="#63b8ff" points="850.1,-114.73 853.89,-104.84 844.76,-110.21 850.1,-114.73"/>
</a>
</g>
</g>
<!-- Node4 -->
<g id="Node000004" class="node">
<title>Node4</title>
<g id="a_Node000004"><a xlink:href="class_bit_vector.html#af68cda7444ec4459393bbfa423f0a7dd" target="_top" xlink:title="Get the Size_t value if a BitVector::CoordUnit.">
<polygon fill="white" stroke="#666666" points="551.5,-112.93 448.5,-112.93 448.5,-82.93 551.5,-82.93 551.5,-112.93"/>
<text text-anchor="start" x="456.5" y="-100.93" font-family="Helvetica,sans-Serif" font-size="10.00">BitVector::getSize</text>
<text text-anchor="middle" x="500" y="-89.93" font-family="Helvetica,sans-Serif" font-size="10.00">_tUnit</text>
</a>
</g>
</g>
<!-- Node1&#45;&gt;Node4 -->
<g id="edge4_Node000001_Node000004" class="edge">
<title>Node1&#45;&gt;Node4</title>
<g id="a_edge4_Node000001_Node000004"><a xlink:title=" ">
<path fill="none" stroke="#63b8ff" d="M183.22,-97.93C261.01,-97.93 370.91,-97.93 438.43,-97.93"/>
<polygon fill="#63b8ff" stroke="#63b8ff" points="438.48,-101.43 448.48,-97.93 438.48,-94.43 438.48,-101.43"/>
</a>
</g>
</g>
<!-- Node7 -->
<g id="Node000007" class="node">
<title>Node7</title>
<g id="a_Node000007"><a xlink:href="class_bit_vector.html#ad36e7d0b4b1417ca434414fa40c72eb8" target="_top" xlink:title="How many element can be contained in this object knowing BitVector::_element_size.">
<polygon fill="white" stroke="#666666" points="373,-64.43 219,-64.43 219,-45.43 373,-45.43 373,-64.43"/>
<text text-anchor="middle" x="296" y="-52.43" font-family="Helvetica,sans-Serif" font-size="10.00">BitVector::maxElementLimit</text>
</a>
</g>
</g>
<!-- Node1&#45;&gt;Node7 -->
<g id="edge8_Node000001_Node000007" class="edge">
<title>Node1&#45;&gt;Node7</title>
<g id="a_edge8_Node000001_Node000007"><a xlink:title=" ">
<path fill="none" stroke="#63b8ff" d="M137.44,-88.39C167.72,-81.96 207.85,-73.44 240.04,-66.61"/>
<polygon fill="#63b8ff" stroke="#63b8ff" points="241.13,-69.95 250.18,-64.45 239.68,-63.1 241.13,-69.95"/>
</a>
</g>
</g>
<!-- Node2&#45;&gt;Node2 -->
<g id="edge2_Node000002_Node000002" class="edge">
<title>Node2&#45;&gt;Node2</title>
<g id="a_edge2_Node000002_Node000002"><a xlink:title=" ">
<path fill="none" stroke="#63b8ff" d="M842.46,-104.52C832.72,-113.17 839.39,-122.43 862.5,-122.43 877.3,-122.43 885.36,-118.63 886.68,-113.62"/>
<polygon fill="#63b8ff" stroke="#63b8ff" points="889.86,-112.17 882.54,-104.52 883.49,-115.07 889.86,-112.17"/>
</a>
</g>
</g>
<!-- Node3 -->
<g id="Node000003" class="node">
<title>Node3</title>
<g id="a_Node000003"><a xlink:href="class_bit_vector_1_1_coords.html#a2892f7f46c4af93f9733e312229d8ec1" target="_top" xlink:title="Get Coords::octet .">
<polygon fill="white" stroke="#666666" points="1047,-109.93 940,-109.93 940,-79.93 1047,-79.93 1047,-109.93"/>
<text text-anchor="start" x="948" y="-97.93" font-family="Helvetica,sans-Serif" font-size="10.00">BitVector::Coords::</text>
<text text-anchor="middle" x="993.5" y="-86.93" font-family="Helvetica,sans-Serif" font-size="10.00">getOctet</text>
</a>
</g>
</g>
<!-- Node2&#45;&gt;Node3 -->
<g id="edge3_Node000002_Node000003" class="edge">
<title>Node2&#45;&gt;Node3</title>
<g id="a_edge3_Node000002_Node000003"><a xlink:title=" ">
<path fill="none" stroke="#63b8ff" d="M904.32,-94.93C912.38,-94.93 921.02,-94.93 929.62,-94.93"/>
<polygon fill="#63b8ff" stroke="#63b8ff" points="929.66,-98.43 939.66,-94.93 929.66,-91.43 929.66,-98.43"/>
</a>
</g>
</g>
<!-- Node5 -->
<g id="Node000005" class="node">
<title>Node5</title>
<g id="a_Node000005"><a xlink:href="class_bit_vector.html#a115789c8a9812eabb52f8843cd4e9965" target="_top" xlink:title="Give the a coord object that represent the size of 1 element inside BitVector::_data.">
<polygon fill="white" stroke="#666666" points="771.5,-150.43 640.5,-150.43 640.5,-131.43 771.5,-131.43 771.5,-150.43"/>
<text text-anchor="middle" x="706" y="-138.43" font-family="Helvetica,sans-Serif" font-size="10.00">BitVector::getCoordUnit</text>
</a>
</g>
</g>
<!-- Node4&#45;&gt;Node5 -->
<g id="edge5_Node000004_Node000005" class="edge">
<title>Node4&#45;&gt;Node5</title>
<g id="a_edge5_Node000004_Node000005"><a xlink:title=" ">
<path fill="none" stroke="#63b8ff" d="M551.69,-108.62C581.48,-114.9 619.17,-122.84 649.72,-129.28"/>
<polygon fill="#63b8ff" stroke="#63b8ff" points="649.28,-132.77 659.79,-131.4 650.72,-125.92 649.28,-132.77"/>
</a>
</g>
</g>
<!-- Node6 -->
<g id="Node000006" class="node">
<title>Node6</title>
<g id="a_Node000006"><a xlink:href="class_bit_vector_1_1_coords.html#a3a4fac9de925974af9c8a66a1d0179e6" target="_top" xlink:title="Translate octet and bit value inside a size_t. Allow easier mathematic computations.">
<polygon fill="white" stroke="#666666" points="759.5,-112.93 652.5,-112.93 652.5,-82.93 759.5,-82.93 759.5,-112.93"/>
<text text-anchor="start" x="660.5" y="-100.93" font-family="Helvetica,sans-Serif" font-size="10.00">BitVector::Coords::</text>
<text text-anchor="middle" x="706" y="-89.93" font-family="Helvetica,sans-Serif" font-size="10.00">toSize_t</text>
</a>
</g>
</g>
<!-- Node4&#45;&gt;Node6 -->
<g id="edge7_Node000004_Node000006" class="edge">
<title>Node4&#45;&gt;Node6</title>
<g id="a_edge7_Node000004_Node000006"><a xlink:title=" ">
<path fill="none" stroke="#63b8ff" d="M551.69,-97.93C579.13,-97.93 613.28,-97.93 642.38,-97.93"/>
<polygon fill="#63b8ff" stroke="#63b8ff" points="642.44,-101.43 652.44,-97.93 642.44,-94.43 642.44,-101.43"/>
</a>
</g>
</g>
<!-- Node5&#45;&gt;Node2 -->
<g id="edge6_Node000005_Node000002" class="edge">
<title>Node5&#45;&gt;Node2</title>
<g id="a_edge6_Node000005_Node000002"><a xlink:title=" ">
<path fill="none" stroke="#63b8ff" d="M749.71,-131.35C761.23,-128.54 773.64,-125.31 785,-121.93 798.88,-117.81 813.94,-112.64 827.01,-107.94"/>
<polygon fill="#63b8ff" stroke="#63b8ff" points="828.36,-111.17 836.56,-104.45 825.96,-104.59 828.36,-111.17"/>
</a>
</g>
</g>
<!-- Node7&#45;&gt;Node4 -->
<g id="edge9_Node000007_Node000004" class="edge">
<title>Node7&#45;&gt;Node4</title>
<g id="a_edge9_Node000007_Node000004"><a xlink:title=" ">
<path fill="none" stroke="#63b8ff" d="M341.83,-64.48C370.25,-70.53 407.38,-78.43 438.41,-85.04"/>
<polygon fill="#63b8ff" stroke="#63b8ff" points="437.74,-88.47 448.25,-87.13 439.2,-81.63 437.74,-88.47"/>
</a>
</g>
</g>
<!-- Node8 -->
<g id="Node000008" class="node">
<title>Node8</title>
<g id="a_Node000008"><a xlink:href="class_bit_vector.html#a68b14af0886039ddcf55c82a250deb4c" target="_top" xlink:title="How many element can be contained in this kind of object.">
<polygon fill="white" stroke="#666666" points="785,-64.93 627,-64.93 627,-34.93 785,-34.93 785,-64.93"/>
<text text-anchor="start" x="635" y="-52.93" font-family="Helvetica,sans-Serif" font-size="10.00">BitVector::maximumElement</text>
<text text-anchor="middle" x="706" y="-41.93" font-family="Helvetica,sans-Serif" font-size="10.00">Number</text>
</a>
</g>
</g>
<!-- Node7&#45;&gt;Node8 -->
<g id="edge10_Node000007_Node000008" class="edge">
<title>Node7&#45;&gt;Node8</title>
<g id="a_edge10_Node000007_Node000008"><a xlink:title=" ">
<path fill="none" stroke="#63b8ff" d="M373.26,-54C442.32,-53.15 544.06,-51.91 616.64,-51.02"/>
<polygon fill="#63b8ff" stroke="#63b8ff" points="616.72,-54.52 626.68,-50.89 616.64,-47.52 616.72,-54.52"/>
</a>
</g>
</g>
<!-- Node9 -->
<g id="Node000009" class="node">
<title>Node9</title>
<g id="a_Node000009"><a xlink:href="class_bit_vector.html#aa3228d2bacb1bb0f6072d73d43a49456" target="_top" xlink:title="How many octet can be contained in this kind of object.">
<polygon fill="white" stroke="#666666" points="591,-21.43 409,-21.43 409,-2.43 591,-2.43 591,-21.43"/>
<text text-anchor="middle" x="500" y="-9.43" font-family="Helvetica,sans-Serif" font-size="10.00">BitVector::maximumOctetNumber</text>
</a>
</g>
</g>
<!-- Node7&#45;&gt;Node9 -->
<g id="edge12_Node000007_Node000009" class="edge">
<title>Node7&#45;&gt;Node9</title>
<g id="a_edge12_Node000007_Node000009"><a xlink:title=" ">
<path fill="none" stroke="#63b8ff" d="M341.83,-45.39C372.04,-38.96 412.07,-30.44 444.17,-23.61"/>
<polygon fill="#63b8ff" stroke="#63b8ff" points="445.24,-26.96 454.29,-21.45 443.79,-20.11 445.24,-26.96"/>
</a>
</g>
</g>
<!-- Node8&#45;&gt;Node2 -->
<g id="edge11_Node000008_Node000002" class="edge">
<title>Node8&#45;&gt;Node2</title>
<g id="a_edge11_Node000008_Node000002"><a xlink:title=" ">
<path fill="none" stroke="#63b8ff" d="M758.88,-65.04C778.49,-70.76 800.57,-77.19 819.2,-82.61"/>
<polygon fill="#63b8ff" stroke="#63b8ff" points="818.3,-86 828.88,-85.43 820.26,-79.28 818.3,-86"/>
</a>
</g>
</g>
<!-- Node9&#45;&gt;Node2 -->
<g id="edge13_Node000009_Node000002" class="edge">
<title>Node9&#45;&gt;Node2</title>
<g id="a_edge13_Node000009_Node000002"><a xlink:title=" ">
<path fill="none" stroke="#63b8ff" d="M573.93,-2.42C633.1,2.27 717.47,1.95 785,-25.93 811.33,-36.8 834.5,-60.85 848.26,-77.47"/>
<polygon fill="#63b8ff" stroke="#63b8ff" points="845.59,-79.74 854.56,-85.38 851.06,-75.38 845.59,-79.74"/>
</a>
</g>
</g>
</g>
</svg>
