<?xml version="1.0" encoding="UTF-8" standalone="no"?>
<!DOCTYPE svg PUBLIC "-//W3C//DTD SVG 1.1//EN"
 "http://www.w3.org/Graphics/SVG/1.1/DTD/svg11.dtd">
<!-- Generated by graphviz version 2.43.0 (0)
 -->
<!-- Title: FastaSequence::displaceComment Pages: 1 -->
<svg width="626pt" height="140pt"
 viewBox="0.00 0.00 626.00 140.00" xmlns="http://www.w3.org/2000/svg" xmlns:xlink="http://www.w3.org/1999/xlink">
<g id="graph0" class="graph" transform="scale(1 1) rotate(0) translate(4 136)">
<title>FastaSequence::displaceComment</title>
<!-- Node1 -->
<g id="Node000001" class="node">
<title>Node1</title>
<g id="a_Node000001"><a xlink:title="Change the position of a comment. If a comment is present at new_position , The two comments are merg...">
<polygon fill="#999999" stroke="#666666" points="184,-75 0,-75 0,-56 184,-56 184,-75"/>
<text text-anchor="middle" x="92" y="-63" font-family="Helvetica,sans-Serif" font-size="10.00">FastaSequence::displaceComment</text>
</a>
</g>
</g>
<!-- Node2 -->
<g id="Node000002" class="node">
<title>Node2</title>
<g id="a_Node000002"><a xlink:href="class_fasta_sequence.html#aef714753277c2a10876429e3c579ef95" target="_top" xlink:title="Add a comment to a position.">
<polygon fill="white" stroke="#666666" points="391,-132 230,-132 230,-113 391,-113 391,-132"/>
<text text-anchor="middle" x="310.5" y="-120" font-family="Helvetica,sans-Serif" font-size="10.00">FastaSequence::addComment</text>
</a>
</g>
</g>
<!-- Node1&#45;&gt;Node2 -->
<g id="edge1_Node000001_Node000002" class="edge">
<title>Node1&#45;&gt;Node2</title>
<g id="a_edge1_Node000001_Node000002"><a xlink:title=" ">
<path fill="none" stroke="#63b8ff" d="M129.24,-75.04C166.08,-84.74 223.29,-99.8 263.35,-110.35"/>
<polygon fill="#63b8ff" stroke="#63b8ff" points="262.58,-113.77 273.14,-112.93 264.37,-107 262.58,-113.77"/>
</a>
</g>
</g>
<!-- Node3 -->
<g id="Node000003" class="node">
<title>Node3</title>
<g id="a_Node000003"><a xlink:href="class_fasta_sequence.html#a2ce25dcf6751310494e59be402017036" target="_top" xlink:title="Do this position is commented.">
<polygon fill="white" stroke="#666666" points="618,-75 437,-75 437,-56 618,-56 618,-75"/>
<text text-anchor="middle" x="527.5" y="-63" font-family="Helvetica,sans-Serif" font-size="10.00">FastaSequence::isCommentedPos</text>
</a>
</g>
</g>
<!-- Node1&#45;&gt;Node3 -->
<g id="edge5_Node000001_Node000003" class="edge">
<title>Node1&#45;&gt;Node3</title>
<g id="a_edge5_Node000001_Node000003"><a xlink:title=" ">
<path fill="none" stroke="#63b8ff" d="M184.14,-65.5C255.18,-65.5 353.7,-65.5 426.82,-65.5"/>
<polygon fill="#63b8ff" stroke="#63b8ff" points="426.97,-69 436.97,-65.5 426.97,-62 426.97,-69"/>
</a>
</g>
</g>
<!-- Node4 -->
<g id="Node000004" class="node">
<title>Node4</title>
<g id="a_Node000004"><a xlink:href="class_fasta_sequence.html#a519c4b4ec5de7e8c1a92de1409a7cf02" target="_top" xlink:title="Retrieve the comment at the position position.">
<polygon fill="white" stroke="#666666" points="390,-56 231,-56 231,-37 390,-37 390,-56"/>
<text text-anchor="middle" x="310.5" y="-44" font-family="Helvetica,sans-Serif" font-size="10.00">FastaSequence::getComment</text>
</a>
</g>
</g>
<!-- Node1&#45;&gt;Node4 -->
<g id="edge3_Node000001_Node000004" class="edge">
<title>Node1&#45;&gt;Node4</title>
<g id="a_edge3_Node000001_Node000004"><a xlink:title=" ">
<path fill="none" stroke="#63b8ff" d="M184.19,-57.5C196.29,-56.44 208.68,-55.35 220.73,-54.29"/>
<polygon fill="#63b8ff" stroke="#63b8ff" points="221.11,-57.77 230.77,-53.41 220.5,-50.8 221.11,-57.77"/>
</a>
</g>
</g>
<!-- Node5 -->
<g id="Node000005" class="node">
<title>Node5</title>
<g id="a_Node000005"><a xlink:href="class_fasta_sequence.html#a792b9d3fd8ace887fd7db583576c1116" target="_top" xlink:title="Remove a comment.">
<polygon fill="white" stroke="#666666" points="401,-19 220,-19 220,0 401,0 401,-19"/>
<text text-anchor="middle" x="310.5" y="-7" font-family="Helvetica,sans-Serif" font-size="10.00">FastaSequence::removeComment</text>
</a>
</g>
</g>
<!-- Node1&#45;&gt;Node5 -->
<g id="edge6_Node000001_Node000005" class="edge">
<title>Node1&#45;&gt;Node5</title>
<g id="a_edge6_Node000001_Node000005"><a xlink:title=" ">
<path fill="none" stroke="#63b8ff" d="M123.36,-55.96C148.98,-48.08 186.7,-36.87 220,-28.5 230.16,-25.95 241.02,-23.45 251.55,-21.15"/>
<polygon fill="#63b8ff" stroke="#63b8ff" points="252.47,-24.53 261.51,-19 250.99,-17.68 252.47,-24.53"/>
</a>
</g>
</g>
<!-- Node2&#45;&gt;Node3 -->
<g id="edge2_Node000002_Node000003" class="edge">
<title>Node2&#45;&gt;Node3</title>
<g id="a_edge2_Node000002_Node000003"><a xlink:title=" ">
<path fill="none" stroke="#63b8ff" d="M347.49,-112.96C384.07,-103.26 440.89,-88.2 480.67,-77.65"/>
<polygon fill="#63b8ff" stroke="#63b8ff" points="481.63,-81.02 490.4,-75.07 479.83,-74.25 481.63,-81.02"/>
</a>
</g>
</g>
<!-- Node4&#45;&gt;Node3 -->
<g id="edge4_Node000004_Node000003" class="edge">
<title>Node4&#45;&gt;Node3</title>
<g id="a_edge4_Node000004_Node000003"><a xlink:title=" ">
<path fill="none" stroke="#63b8ff" d="M390.03,-53.44C401.93,-54.49 414.35,-55.59 426.63,-56.67"/>
<polygon fill="#63b8ff" stroke="#63b8ff" points="426.63,-60.19 436.9,-57.58 427.25,-53.21 426.63,-60.19"/>
</a>
</g>
</g>
<!-- Node5&#45;&gt;Node3 -->
<g id="edge7_Node000005_Node000003" class="edge">
<title>Node5&#45;&gt;Node3</title>
<g id="a_edge7_Node000005_Node000003"><a xlink:title=" ">
<path fill="none" stroke="#63b8ff" d="M359.97,-19.07C373.31,-21.9 387.76,-25.15 401,-28.5 429.93,-35.82 462.23,-45.38 486.81,-52.94"/>
<polygon fill="#63b8ff" stroke="#63b8ff" points="485.92,-56.33 496.5,-55.94 487.99,-49.64 485.92,-56.33"/>
</a>
</g>
</g>
</g>
</svg>
