<?xml version="1.0" encoding="UTF-8" standalone="no"?>
<!DOCTYPE svg PUBLIC "-//W3C//DTD SVG 1.1//EN"
 "http://www.w3.org/Graphics/SVG/1.1/DTD/svg11.dtd">
<!-- Generated by graphviz version 2.43.0 (0)
 -->
<!-- Title: BitVector::Coords::toSize_t Pages: 1 -->
<!--zoomable 479 -->

<svg id="main" version="1.1" xmlns="http://www.w3.org/2000/svg" xmlns:xlink="http://www.w3.org/1999/xlink" xml:space="preserve" onload="init(evt)">
<style type="text/css"><![CDATA[
.node, .edge {opacity: 0.7;}
.node.selected, .edge.selected {opacity: 1;}
.edge:hover path { stroke: red; }
.edge:hover polygon { stroke: red; fill: red; }
]]></style>

<defs>
  <circle id="rim" cx="0" cy="0" r="7"/>
  <circle id="rim2" cx="0" cy="0" r="3.5"/>
  <g id="zoomPlus">
    <use xlink:href="#rim" fill="#404040"><set attributeName="fill" to="#808080" begin="zoomplus.mouseover" end="zoomplus.mouseout"/></use>
    <path d="M-4,0h8M0,-4v8" fill="none" stroke="white" stroke-width="1.5" pointer-events="none"/>
  </g>
  <g id="zoomMin">
    <use xlink:href="#rim" fill="#404040"><set attributeName="fill" to="#808080" begin="zoomminus.mouseover" end="zoomminus.mouseout"/></use>
    <path d="M-4,0h8" fill="none" stroke="white" stroke-width="1.5" pointer-events="none"/>
  </g>
  <g id="arrowUp" transform="translate(30 24)">
    <use xlink:href="#rim"/>
    <path pointer-events="none" fill="none" stroke="white" stroke-width="1.5" d="M0,-3.0v7 M-2.5,-0.5L0,-3.0L2.5,-0.5"/>
  </g>
  <g id="arrowRight" transform="rotate(90) translate(36 -43)">
    <use xlink:href="#rim"/>
    <path pointer-events="none" fill="none" stroke="white" stroke-width="1.5" d="M0,-3.0v7 M-2.5,-0.5L0,-3.0L2.5,-0.5"/>
  </g>
  <g id="arrowDown" transform="rotate(180) translate(-30 -48)">
    <use xlink:href="#rim"/>
    <path pointer-events="none" fill="none" stroke="white" stroke-width="1.5" d="M0,-3.0v7 M-2.5,-0.5L0,-3.0L2.5,-0.5"/>
  </g>
  <g id="arrowLeft" transform="rotate(270) translate(-36 17)">
    <use xlink:href="#rim"/>
    <path pointer-events="none" fill="none" stroke="white" stroke-width="1.5" d="M0,-3.0v7 M-2.5,-0.5L0,-3.0L2.5,-0.5"/>
  </g>
  <g id="resetDef">
    <use xlink:href="#rim2" fill="#404040"><set attributeName="fill" to="#808080" begin="reset.mouseover" end="reset.mouseout"/></use>
  </g>
</defs>
<script type="application/ecmascript">
var viewWidth = 1580;
var viewHeight = 479;
var sectionId = 'dynsection-36';
</script>
<script type="application/ecmascript" xlink:href="svg.min.js"/>
<svg id="graph" class="graph">
<g id="viewport">
<title>BitVector::Coords::toSize_t</title>
<!-- Node1 -->
<g id="Node000001" class="node">
<title>Node1</title>
<g id="a_Node000001"><a xlink:title="Translate octet and bit value inside a size_t. Allow easier mathematic computations.">
<polygon fill="#999999" stroke="#666666" points="1572,-232.5 1465,-232.5 1465,-202.5 1572,-202.5 1572,-232.5"/>
<text text-anchor="start" x="1473" y="-220.5" font-family="Helvetica,sans-Serif" font-size="10.00">BitVector::Coords::</text>
<text text-anchor="middle" x="1518.5" y="-209.5" font-family="Helvetica,sans-Serif" font-size="10.00">toSize_t</text>
</a>
</g>
</g>
<!-- Node2 -->
<g id="Node000002" class="node">
<title>Node2</title>
<g id="a_Node000002"><a xlink:href="class_bit_vector.html#af68cda7444ec4459393bbfa423f0a7dd" target="_top" xlink:title="Get the Size_t value if a BitVector::CoordUnit.">
<polygon fill="white" stroke="#666666" points="1429,-211.5 1326,-211.5 1326,-181.5 1429,-181.5 1429,-211.5"/>
<text text-anchor="start" x="1334" y="-199.5" font-family="Helvetica,sans-Serif" font-size="10.00">BitVector::getSize</text>
<text text-anchor="middle" x="1377.5" y="-188.5" font-family="Helvetica,sans-Serif" font-size="10.00">_tUnit</text>
</a>
</g>
</g>
<!-- Node1&#45;&gt;Node2 -->
<g id="edge1_Node000001_Node000002" class="edge">
<title>Node1&#45;&gt;Node2</title>
<g id="a_edge1_Node000001_Node000002"><a xlink:title=" ">
<path fill="none" stroke="#63b8ff" d="M1454.96,-208.05C1446.37,-206.75 1437.63,-205.43 1429.28,-204.17"/>
<polygon fill="#63b8ff" stroke="#63b8ff" points="1454.54,-211.53 1464.95,-209.56 1455.59,-204.61 1454.54,-211.53"/>
</a>
</g>
</g>
<!-- Node3 -->
<g id="Node000003" class="node">
<title>Node3</title>
<g id="a_Node000003"><a xlink:href="class_bit_vector.html#a354c83853bc3622efa5d45efcae97286" target="_top" xlink:title="Give more detailed on BiteVector::indexCoordinate.">
<polygon fill="white" stroke="#666666" points="1286.5,-292.5 1139.5,-292.5 1139.5,-262.5 1286.5,-262.5 1286.5,-292.5"/>
<text text-anchor="start" x="1147.5" y="-280.5" font-family="Helvetica,sans-Serif" font-size="10.00">BitVector::indexCoordinate</text>
<text text-anchor="middle" x="1213" y="-269.5" font-family="Helvetica,sans-Serif" font-size="10.00">Untreated</text>
</a>
</g>
</g>
<!-- Node1&#45;&gt;Node3 -->
<g id="edge41_Node000001_Node000003" class="edge">
<title>Node1&#45;&gt;Node3</title>
<g id="a_edge41_Node000001_Node000003"><a xlink:title=" ">
<path fill="none" stroke="#63b8ff" d="M1455.15,-229.83C1406.22,-239.5 1338,-252.99 1286.6,-263.15"/>
<polygon fill="#63b8ff" stroke="#63b8ff" points="1455.85,-233.26 1464.98,-227.88 1454.49,-226.39 1455.85,-233.26"/>
</a>
</g>
</g>
<!-- Node2&#45;&gt;Node3 -->
<g id="edge2_Node000002_Node000003" class="edge">
<title>Node2&#45;&gt;Node3</title>
<g id="a_edge2_Node000002_Node000003"><a xlink:title=" ">
<path fill="none" stroke="#63b8ff" d="M1345.47,-216.98C1329.32,-227.17 1309.01,-239.25 1290,-248.5 1279.71,-253.51 1268.33,-258.25 1257.57,-262.39"/>
<polygon fill="#63b8ff" stroke="#63b8ff" points="1347.44,-219.87 1353.99,-211.54 1343.68,-213.97 1347.44,-219.87"/>
</a>
</g>
</g>
<!-- Node9 -->
<g id="Node000009" class="node">
<title>Node9</title>
<g id="a_Node000009"><a xlink:href="class_bit_vector.html#a04e6d0b67ee9b42ccec437b0176067fe" target="_top" xlink:title="Give A size_t that represent the coords of the first bit of an element.">
<polygon fill="white" stroke="#666666" points="1100,-244 917,-244 917,-225 1100,-225 1100,-244"/>
<text text-anchor="middle" x="1008.5" y="-232" font-family="Helvetica,sans-Serif" font-size="10.00">BitVector::indexElementUntreated</text>
</a>
</g>
</g>
<!-- Node2&#45;&gt;Node9 -->
<g id="edge8_Node000002_Node000009" class="edge">
<title>Node2&#45;&gt;Node9</title>
<g id="a_edge8_Node000002_Node000009"><a xlink:title=" ">
<path fill="none" stroke="#63b8ff" d="M1315.78,-206.92C1307.14,-208.23 1298.36,-209.47 1290,-210.5 1226.7,-218.32 1155.04,-224.4 1100,-228.49"/>
<polygon fill="#63b8ff" stroke="#63b8ff" points="1316.48,-210.35 1325.82,-205.36 1315.4,-203.43 1316.48,-210.35"/>
</a>
</g>
</g>
<!-- Node12 -->
<g id="Node000012" class="node">
<title>Node12</title>
<g id="a_Node000012"><a xlink:href="class_bit_vector.html#a13856f33d2350c573cf2fbe587f03757" target="_top" xlink:title="Modify the length of BitVector::_data.">
<polygon fill="white" stroke="#666666" points="668.5,-128 572.5,-128 572.5,-109 668.5,-109 668.5,-128"/>
<text text-anchor="middle" x="620.5" y="-116" font-family="Helvetica,sans-Serif" font-size="10.00">BitVector::resize</text>
</a>
</g>
</g>
<!-- Node2&#45;&gt;Node12 -->
<g id="edge39_Node000002_Node000012" class="edge">
<title>Node2&#45;&gt;Node12</title>
<g id="a_edge39_Node000002_Node000012"><a xlink:title=" ">
<path fill="none" stroke="#63b8ff" d="M1315.77,-186.16C1307.13,-184.84 1298.35,-183.57 1290,-182.5 1057.57,-152.6 778.02,-130.2 668.63,-121.95"/>
<polygon fill="#63b8ff" stroke="#63b8ff" points="1315.39,-189.64 1325.81,-187.73 1316.47,-182.73 1315.39,-189.64"/>
</a>
</g>
</g>
<!-- Node15 -->
<g id="Node000015" class="node">
<title>Node15</title>
<g id="a_Node000015"><a xlink:href="class_bit_vector.html#a80a4aa212535129b881b4fb2623ce222" target="_top" xlink:title="Reduce the size of BitVector::_data to fit BitVector::_element_number.">
<polygon fill="white" stroke="#666666" points="473,-130 376,-130 376,-111 473,-111 473,-130"/>
<text text-anchor="middle" x="424.5" y="-118" font-family="Helvetica,sans-Serif" font-size="10.00">BitVector::shrink</text>
</a>
</g>
</g>
<!-- Node2&#45;&gt;Node15 -->
<g id="edge40_Node000002_Node000015" class="edge">
<title>Node2&#45;&gt;Node15</title>
<g id="a_edge40_Node000002_Node000015"><a xlink:title=" ">
<path fill="none" stroke="#63b8ff" d="M1315.38,-196.5C1242.54,-196.5 1117.14,-196.5 1009.5,-196.5 1009.5,-196.5 1009.5,-196.5 808,-196.5 673.27,-196.5 516.87,-150.58 453.91,-130.13"/>
<polygon fill="#63b8ff" stroke="#63b8ff" points="1315.74,-200 1325.74,-196.5 1315.74,-193 1315.74,-200"/>
</a>
</g>
</g>
<!-- Node24 -->
<g id="Node000024" class="node">
<title>Node24</title>
<g id="a_Node000024"><a xlink:href="class_bit_vector.html#ad36e7d0b4b1417ca434414fa40c72eb8" target="_top" xlink:title="How many element can be contained in this object knowing BitVector::_element_size.">
<polygon fill="white" stroke="#666666" points="1290,-92 1136,-92 1136,-73 1290,-73 1290,-92"/>
<text text-anchor="middle" x="1213" y="-80" font-family="Helvetica,sans-Serif" font-size="10.00">BitVector::maxElementLimit</text>
</a>
</g>
</g>
<!-- Node2&#45;&gt;Node24 -->
<g id="edge28_Node000002_Node000024" class="edge">
<title>Node2&#45;&gt;Node24</title>
<g id="a_edge28_Node000002_Node000024"><a xlink:title=" ">
<path fill="none" stroke="#63b8ff" d="M1359.48,-173.06C1343.61,-152.77 1318.19,-124 1290,-106.5 1280.01,-100.3 1268.27,-95.57 1257.05,-92.02"/>
<polygon fill="#63b8ff" stroke="#63b8ff" points="1356.83,-175.35 1365.68,-181.18 1362.39,-171.11 1356.83,-175.35"/>
</a>
</g>
</g>
<!-- Node27 -->
<g id="Node000027" class="node">
<title>Node27</title>
<g id="a_Node000027"><a xlink:href="class_bit_vector.html#a214e556dd89acce2427a378c5520adbd" target="_top" xlink:title="Last acceptable coordinate knowing BitVector::_element_size.">
<polygon fill="white" stroke="#666666" points="1090,-44 927,-44 927,-25 1090,-25 1090,-44"/>
<text text-anchor="middle" x="1008.5" y="-32" font-family="Helvetica,sans-Serif" font-size="10.00">BitVector::MaximalCoordLimit</text>
</a>
</g>
</g>
<!-- Node2&#45;&gt;Node27 -->
<g id="edge38_Node000002_Node000027" class="edge">
<title>Node2&#45;&gt;Node27</title>
<g id="a_edge38_Node000002_Node000027"><a xlink:title=" ">
<path fill="none" stroke="#63b8ff" d="M1368.02,-171.67C1355.98,-140.59 1330.75,-88.41 1290,-63.5 1230.26,-26.99 1149.74,-22.22 1090.29,-25.12"/>
<polygon fill="#63b8ff" stroke="#63b8ff" points="1364.85,-173.18 1371.6,-181.34 1371.41,-170.74 1364.85,-173.18"/>
</a>
</g>
</g>
<!-- Node4 -->
<g id="Node000004" class="node">
<title>Node4</title>
<g id="a_Node000004"><a xlink:href="class_bit_vector.html#a5af3c70f593aac387de23c7e6e5ae57e" target="_top" xlink:title="Find the element that correspond to coord .">
<polygon fill="white" stroke="#666666" points="1082,-321 935,-321 935,-302 1082,-302 1082,-321"/>
<text text-anchor="middle" x="1008.5" y="-309" font-family="Helvetica,sans-Serif" font-size="10.00">BitVector::indexCoordinate</text>
</a>
</g>
</g>
<!-- Node3&#45;&gt;Node4 -->
<g id="edge3_Node000003_Node000004" class="edge">
<title>Node3&#45;&gt;Node4</title>
<g id="a_edge3_Node000003_Node000004"><a xlink:title=" ">
<path fill="none" stroke="#63b8ff" d="M1129.48,-291.36C1108.25,-294.92 1085.89,-298.67 1066.29,-301.96"/>
<polygon fill="#63b8ff" stroke="#63b8ff" points="1130.18,-294.79 1139.46,-289.68 1129.02,-287.88 1130.18,-294.79"/>
</a>
</g>
</g>
<!-- Node5 -->
<g id="Node000005" class="node">
<title>Node5</title>
<g id="a_Node000005"><a xlink:href="class_bit_vector.html#aed5c03f3a6a9a2e5f3c58fb14768b0b4" target="_top" xlink:title="Say how many items can be hold inside this object with the current BitVector::_data_size:">
<polygon fill="white" stroke="#666666" points="881,-364 737,-364 737,-345 881,-345 881,-364"/>
<text text-anchor="middle" x="809" y="-352" font-family="Helvetica,sans-Serif" font-size="10.00">BitVector::currentCapacity</text>
</a>
</g>
</g>
<!-- Node4&#45;&gt;Node5 -->
<g id="edge4_Node000004_Node000005" class="edge">
<title>Node4&#45;&gt;Node5</title>
<g id="a_edge4_Node000004_Node000005"><a xlink:title=" ">
<path fill="none" stroke="#63b8ff" d="M953.76,-323.2C922.35,-330.04 883.22,-338.56 853.71,-344.98"/>
<polygon fill="#63b8ff" stroke="#63b8ff" points="954.64,-326.59 963.67,-321.04 953.15,-319.75 954.64,-326.59"/>
</a>
</g>
</g>
<!-- Node6 -->
<g id="Node000006" class="node">
<title>Node6</title>
<g id="a_Node000006"><a xlink:href="class_bit_vector.html#ad64e921d07b9528a532477f282af135c" target="_top" xlink:title="How many element can fit in this vector without having to resize the vector ?">
<polygon fill="white" stroke="#666666" points="880,-326.5 738,-326.5 738,-296.5 880,-296.5 880,-326.5"/>
<text text-anchor="start" x="746" y="-314.5" font-family="Helvetica,sans-Serif" font-size="10.00">BitVector::currentElement</text>
<text text-anchor="middle" x="809" y="-303.5" font-family="Helvetica,sans-Serif" font-size="10.00">Capacity</text>
</a>
</g>
</g>
<!-- Node4&#45;&gt;Node6 -->
<g id="edge5_Node000004_Node000006" class="edge">
<title>Node4&#45;&gt;Node6</title>
<g id="a_edge5_Node000004_Node000006"><a xlink:title=" ">
<path fill="none" stroke="#63b8ff" d="M924.67,-311.5C909.89,-311.5 894.63,-311.5 880.24,-311.5"/>
<polygon fill="#63b8ff" stroke="#63b8ff" points="924.8,-315 934.8,-311.5 924.8,-308 924.8,-315"/>
</a>
</g>
</g>
<!-- Node7 -->
<g id="Node000007" class="node">
<title>Node7</title>
<g id="a_Node000007"><a xlink:href="class_bit_vector.html#ad60f42244db2c82260326605916431d3" target="_top" xlink:title="Modify the number of known element in this object.">
<polygon fill="white" stroke="#666666" points="701,-413 540,-413 540,-394 701,-394 701,-413"/>
<text text-anchor="middle" x="620.5" y="-401" font-family="Helvetica,sans-Serif" font-size="10.00">BitVector::setElementNumber</text>
</a>
</g>
</g>
<!-- Node6&#45;&gt;Node7 -->
<g id="edge6_Node000006_Node000007" class="edge">
<title>Node6&#45;&gt;Node7</title>
<g id="a_edge6_Node000006_Node000007"><a xlink:title=" ">
<path fill="none" stroke="#63b8ff" d="M749.54,-330.17C745.26,-331.87 741.04,-333.65 737,-335.5 698.7,-353.02 656.82,-379.76 635.57,-393.92"/>
<polygon fill="#63b8ff" stroke="#63b8ff" points="750.87,-333.41 758.98,-326.59 748.39,-326.87 750.87,-333.41"/>
</a>
</g>
</g>
<!-- Node8 -->
<g id="Node000008" class="node">
<title>Node8</title>
<g id="a_Node000008"><a xlink:href="class_bit_vector.html#a87f84edf5dd56606b26e8741ba6ced02" target="_top" xlink:title="Remove a number of element from the vector.">
<polygon fill="white" stroke="#666666" points="476.5,-471 372.5,-471 372.5,-452 476.5,-452 476.5,-471"/>
<text text-anchor="middle" x="424.5" y="-459" font-family="Helvetica,sans-Serif" font-size="10.00">BitVector::remove</text>
</a>
</g>
</g>
<!-- Node7&#45;&gt;Node8 -->
<g id="edge7_Node000007_Node000008" class="edge">
<title>Node7&#45;&gt;Node8</title>
<g id="a_edge7_Node000007_Node000008"><a xlink:title=" ">
<path fill="none" stroke="#63b8ff" d="M577.74,-415.99C541.72,-426.75 490.46,-442.08 457.58,-451.91"/>
<polygon fill="#63b8ff" stroke="#63b8ff" points="578.89,-419.3 587.46,-413.08 576.88,-412.59 578.89,-419.3"/>
</a>
</g>
</g>
<!-- Node10 -->
<g id="Node000010" class="node">
<title>Node10</title>
<g id="a_Node000010"><a xlink:href="class_bit_vector.html#a93ab8bc2ec39bf299ae28ffcad504b41" target="_top" xlink:title="Give the coords of the first bit of an element.">
<polygon fill="white" stroke="#666666" points="876,-244 742,-244 742,-225 876,-225 876,-244"/>
<text text-anchor="middle" x="809" y="-232" font-family="Helvetica,sans-Serif" font-size="10.00">BitVector::indexElement</text>
</a>
</g>
</g>
<!-- Node9&#45;&gt;Node10 -->
<g id="edge9_Node000009_Node000010" class="edge">
<title>Node9&#45;&gt;Node10</title>
<g id="a_edge9_Node000009_Node000010"><a xlink:title=" ">
<path fill="none" stroke="#63b8ff" d="M906.55,-234.5C896.26,-234.5 885.99,-234.5 876.21,-234.5"/>
<polygon fill="#63b8ff" stroke="#63b8ff" points="906.84,-238 916.84,-234.5 906.84,-231 906.84,-238"/>
</a>
</g>
</g>
<!-- Node11 -->
<g id="Node000011" class="node">
<title>Node11</title>
<g id="a_Node000011"><a xlink:href="class_bit_vector.html#a2d0fe43b80b63edbd64dc887fd87d915" target="_top" xlink:title="Return the element at the position index.">
<polygon fill="white" stroke="#666666" points="662,-244 579,-244 579,-225 662,-225 662,-244"/>
<text text-anchor="middle" x="620.5" y="-232" font-family="Helvetica,sans-Serif" font-size="10.00">BitVector::get</text>
</a>
</g>
</g>
<!-- Node10&#45;&gt;Node11 -->
<g id="edge10_Node000010_Node000011" class="edge">
<title>Node10&#45;&gt;Node11</title>
<g id="a_edge10_Node000010_Node000011"><a xlink:title=" ">
<path fill="none" stroke="#63b8ff" d="M731.87,-234.5C708.01,-234.5 682.59,-234.5 662.17,-234.5"/>
<polygon fill="#63b8ff" stroke="#63b8ff" points="731.98,-238 741.98,-234.5 731.98,-231 731.98,-238"/>
</a>
</g>
</g>
<!-- Node10&#45;&gt;Node12 -->
<g id="edge11_Node000010_Node000012" class="edge">
<title>Node10&#45;&gt;Node12</title>
<g id="a_edge11_Node000010_Node000012"><a xlink:title=" ">
<path fill="none" stroke="#63b8ff" d="M783.8,-219.45C744.84,-195.22 669.33,-148.25 636.9,-128.08"/>
<polygon fill="#63b8ff" stroke="#63b8ff" points="782.08,-222.5 792.42,-224.81 785.78,-216.56 782.08,-222.5"/>
</a>
</g>
</g>
<!-- Node16 -->
<g id="Node000016" class="node">
<title>Node16</title>
<g id="a_Node000016"><a xlink:href="class_bit_vector.html#aca24053f655c825de0f06ec86fff1cec" target="_top" xlink:title="Replace an element by another element. Can add an element to the list if index = BitVector::_element_...">
<polygon fill="white" stroke="#666666" points="661.5,-319 579.5,-319 579.5,-300 661.5,-300 661.5,-319"/>
<text text-anchor="middle" x="620.5" y="-307" font-family="Helvetica,sans-Serif" font-size="10.00">BitVector::set</text>
</a>
</g>
</g>
<!-- Node10&#45;&gt;Node16 -->
<g id="edge15_Node000010_Node000016" class="edge">
<title>Node10&#45;&gt;Node16</title>
<g id="a_edge15_Node000010_Node000016"><a xlink:title=" ">
<path fill="none" stroke="#63b8ff" d="M774.59,-247.93C737.4,-262.89 678.23,-286.69 645.41,-299.89"/>
<polygon fill="#63b8ff" stroke="#63b8ff" points="776.03,-251.13 784,-244.15 773.42,-244.64 776.03,-251.13"/>
</a>
</g>
</g>
<!-- Node13 -->
<g id="Node000013" class="node">
<title>Node13</title>
<g id="a_Node000013"><a xlink:href="class_bit_vector.html#a23c1685317944b2a5c6f149a5fccc6bd" target="_top" xlink:title="Construct a new Bit Vector object.">
<polygon fill="white" stroke="#666666" points="480,-93 369,-93 369,-74 480,-74 480,-93"/>
<text text-anchor="middle" x="424.5" y="-81" font-family="Helvetica,sans-Serif" font-size="10.00">BitVector::BitVector</text>
</a>
</g>
</g>
<!-- Node12&#45;&gt;Node13 -->
<g id="edge12_Node000012_Node000013" class="edge">
<title>Node12&#45;&gt;Node13</title>
<g id="a_edge12_Node000012_Node000013"><a xlink:title=" ">
<path fill="none" stroke="#63b8ff" d="M562.12,-108.15C535.57,-103.36 504.23,-97.7 478.27,-93.02"/>
<polygon fill="#63b8ff" stroke="#63b8ff" points="561.58,-111.61 572.04,-109.94 562.82,-104.72 561.58,-111.61"/>
</a>
</g>
</g>
<!-- Node14 -->
<g id="Node000014" class="node">
<title>Node14</title>
<g id="a_Node000014"><a xlink:href="class_bit_vector.html#a673b530bb6e520f7f7fa90070e0034db" target="_top" xlink:title="Free memory used by BitVector::_data.">
<polygon fill="white" stroke="#666666" points="470,-56 379,-56 379,-37 470,-37 470,-56"/>
<text text-anchor="middle" x="424.5" y="-44" font-family="Helvetica,sans-Serif" font-size="10.00">BitVector::clear</text>
</a>
</g>
</g>
<!-- Node12&#45;&gt;Node14 -->
<g id="edge13_Node000012_Node000014" class="edge">
<title>Node12&#45;&gt;Node14</title>
<g id="a_edge13_Node000012_Node000014"><a xlink:title=" ">
<path fill="none" stroke="#63b8ff" d="M577.68,-105.52C565.27,-101.07 551.83,-95.64 540,-89.5 522.71,-80.53 521.82,-72.38 504,-64.5 493.39,-59.81 481.4,-56.27 470.05,-53.62"/>
<polygon fill="#63b8ff" stroke="#63b8ff" points="576.77,-108.91 587.37,-108.88 579.06,-102.3 576.77,-108.91"/>
</a>
</g>
</g>
<!-- Node12&#45;&gt;Node15 -->
<g id="edge14_Node000012_Node000015" class="edge">
<title>Node12&#45;&gt;Node15</title>
<g id="a_edge14_Node000012_Node000015"><a xlink:title=" ">
<path fill="none" stroke="#63b8ff" d="M561.89,-119.09C533.61,-119.39 499.95,-119.73 473.14,-120.01"/>
<polygon fill="#63b8ff" stroke="#63b8ff" points="562.08,-122.59 572.04,-118.99 562.01,-115.59 562.08,-122.59"/>
</a>
</g>
</g>
<!-- Node16&#45;&gt;Node8 -->
<g id="edge26_Node000016_Node000008" class="edge">
<title>Node16&#45;&gt;Node8</title>
<g id="a_edge26_Node000016_Node000008"><a xlink:title=" ">
<path fill="none" stroke="#63b8ff" d="M600.45,-325.73C583.65,-340.48 558.97,-363.29 540,-385.5 521.75,-406.88 526.7,-420.92 504,-437.5 495.37,-443.81 485.06,-448.48 474.79,-451.93"/>
<polygon fill="#63b8ff" stroke="#63b8ff" points="602.75,-328.37 608,-319.17 598.16,-323.08 602.75,-328.37"/>
</a>
</g>
</g>
<!-- Node17 -->
<g id="Node000017" class="node">
<title>Node17</title>
<g id="a_Node000017"><a xlink:href="class_bit_vector.html#afbdbe8a5003f5941ffd5ab095cf87d88" target="_top" xlink:title="Add an element at the end of the vector.">
<polygon fill="white" stroke="#666666" points="476,-357 373,-357 373,-338 476,-338 476,-357"/>
<text text-anchor="middle" x="424.5" y="-345" font-family="Helvetica,sans-Serif" font-size="10.00">BitVector::append</text>
</a>
</g>
</g>
<!-- Node16&#45;&gt;Node17 -->
<g id="edge16_Node000016_Node000017" class="edge">
<title>Node16&#45;&gt;Node17</title>
<g id="a_edge16_Node000016_Node000017"><a xlink:title=" ">
<path fill="none" stroke="#63b8ff" d="M569.28,-319.34C540.01,-325.07 503.26,-332.27 474.24,-337.95"/>
<polygon fill="#63b8ff" stroke="#63b8ff" points="570.16,-322.73 579.3,-317.37 568.82,-315.86 570.16,-322.73"/>
</a>
</g>
</g>
<!-- Node18 -->
<g id="Node000018" class="node">
<title>Node18</title>
<g id="a_Node000018"><a xlink:href="class_bit_vector.html#a5547d55a697d61de026d0a94e743624b" target="_top" xlink:title="Construct a new Bit Vector object.">
<polygon fill="white" stroke="#666666" points="275.5,-376 164.5,-376 164.5,-357 275.5,-357 275.5,-376"/>
<text text-anchor="middle" x="220" y="-364" font-family="Helvetica,sans-Serif" font-size="10.00">BitVector::BitVector</text>
</a>
</g>
</g>
<!-- Node16&#45;&gt;Node18 -->
<g id="edge22_Node000016_Node000018" class="edge">
<title>Node16&#45;&gt;Node18</title>
<g id="a_edge22_Node000016_Node000018"><a xlink:title=" ">
<path fill="none" stroke="#63b8ff" d="M596.47,-324.52C573.95,-338.25 538.16,-357.59 504,-365.5 426.22,-383.51 333.15,-379.06 275.55,-373.4"/>
<polygon fill="#63b8ff" stroke="#63b8ff" points="598.35,-327.47 604.99,-319.21 594.65,-321.53 598.35,-327.47"/>
</a>
</g>
</g>
<!-- Node19 -->
<g id="Node000019" class="node">
<title>Node19</title>
<g id="a_Node000019"><a xlink:href="class_bit_vector.html#a686af396e4dff1536b7588213726c4cc" target="_top" xlink:title="Insert a number of blank position inside BitVector::_data.">
<polygon fill="white" stroke="#666666" points="309,-319 131,-319 131,-300 309,-300 309,-319"/>
<text text-anchor="middle" x="220" y="-307" font-family="Helvetica,sans-Serif" font-size="10.00">BitVector::makeRoomForElement</text>
</a>
</g>
</g>
<!-- Node16&#45;&gt;Node19 -->
<g id="edge25_Node000016_Node000019" class="edge">
<title>Node16&#45;&gt;Node19</title>
<g id="a_edge25_Node000016_Node000019"><a xlink:title=" ">
<path fill="none" stroke="#63b8ff" d="M569.45,-309.5C504.3,-309.5 389.34,-309.5 309.36,-309.5"/>
<polygon fill="#63b8ff" stroke="#63b8ff" points="569.47,-313 579.47,-309.5 569.47,-306 569.47,-313"/>
</a>
</g>
</g>
<!-- Node20 -->
<g id="Node000020" class="node">
<title>Node20</title>
<g id="a_Node000020"><a xlink:href="class_bit_vector.html#a9f86c96c013632abd9d18feafe78d72e" target="_top" xlink:title="Insert a number_of_elements inside the vector at the index pos .">
<polygon fill="white" stroke="#666666" points="95,-356 0,-356 0,-337 95,-337 95,-356"/>
<text text-anchor="middle" x="47.5" y="-344" font-family="Helvetica,sans-Serif" font-size="10.00">BitVector::insert</text>
</a>
</g>
</g>
<!-- Node16&#45;&gt;Node20 -->
<g id="edge23_Node000016_Node000020" class="edge">
<title>Node16&#45;&gt;Node20</title>
<g id="a_edge23_Node000016_Node000020"><a xlink:title=" ">
<path fill="none" stroke="#63b8ff" d="M601.87,-325.96C580.58,-344.6 542.77,-373.89 504,-385.5 345.19,-433.06 292.75,-421.81 131,-385.5 105.96,-379.88 79.57,-365.75 63.57,-356.14"/>
<polygon fill="#63b8ff" stroke="#63b8ff" points="604.33,-328.45 609.44,-319.17 599.66,-323.24 604.33,-328.45"/>
</a>
</g>
</g>
<!-- Node21 -->
<g id="Node000021" class="node">
<title>Node21</title>
<g id="a_Node000021"><a xlink:href="class_bit_vector.html#a915743b3f94c75c22317d160bfa741ff" target="_top" xlink:title="Insert a number_of_elements inside the vector at the index pos .">
<polygon fill="white" stroke="#666666" points="95,-281 0,-281 0,-262 95,-262 95,-281"/>
<text text-anchor="middle" x="47.5" y="-269" font-family="Helvetica,sans-Serif" font-size="10.00">BitVector::insert</text>
</a>
</g>
</g>
<!-- Node16&#45;&gt;Node21 -->
<g id="edge24_Node000016_Node000021" class="edge">
<title>Node16&#45;&gt;Node21</title>
<g id="a_edge24_Node000016_Node000021"><a xlink:title=" ">
<path fill="none" stroke="#63b8ff" d="M596.15,-294.37C579.86,-283.43 557.92,-267.92 540,-252.5 522.61,-237.53 525.14,-224.43 504,-215.5 347.29,-149.33 135.15,-232.48 69.04,-261.91"/>
<polygon fill="#63b8ff" stroke="#63b8ff" points="594.29,-297.33 604.56,-299.94 598.16,-291.5 594.29,-297.33"/>
</a>
</g>
</g>
<!-- Node22 -->
<g id="Node000022" class="node">
<title>Node22</title>
<g id="a_Node000022"><a xlink:href="class_bit_vector.html#a2af5c1a1a0050e2b52d06c38436280fd" target="_top" xlink:title="Add an element at the end of the vector.">
<polygon fill="white" stroke="#666666" points="476,-281 373,-281 373,-262 476,-262 476,-281"/>
<text text-anchor="middle" x="424.5" y="-269" font-family="Helvetica,sans-Serif" font-size="10.00">BitVector::append</text>
</a>
</g>
</g>
<!-- Node16&#45;&gt;Node22 -->
<g id="edge21_Node000016_Node000022" class="edge">
<title>Node16&#45;&gt;Node22</title>
<g id="a_edge21_Node000016_Node000022"><a xlink:title=" ">
<path fill="none" stroke="#63b8ff" d="M569.28,-299.66C540.01,-293.93 503.26,-286.73 474.24,-281.05"/>
<polygon fill="#63b8ff" stroke="#63b8ff" points="568.82,-303.14 579.3,-301.63 570.16,-296.27 568.82,-303.14"/>
</a>
</g>
</g>
<!-- Node23 -->
<g id="Node000023" class="node">
<title>Node23</title>
<g id="a_Node000023"><a xlink:href="class_bit_vector.html#a38e8be69974c874857dd7cb6a52429ac" target="_top" xlink:title="Replace an element by another element. Can add an element to the list if index = BitVector::_element_...">
<polygon fill="white" stroke="#666666" points="465.5,-244 383.5,-244 383.5,-225 465.5,-225 465.5,-244"/>
<text text-anchor="middle" x="424.5" y="-232" font-family="Helvetica,sans-Serif" font-size="10.00">BitVector::set</text>
</a>
</g>
</g>
<!-- Node16&#45;&gt;Node23 -->
<g id="edge27_Node000016_Node000023" class="edge">
<title>Node16&#45;&gt;Node23</title>
<g id="a_edge27_Node000016_Node000023"><a xlink:title=" ">
<path fill="none" stroke="#63b8ff" d="M594.47,-295.02C571.56,-282.28 536.4,-264.03 504,-252.5 491.75,-248.14 478.04,-244.57 465.55,-241.8"/>
<polygon fill="#63b8ff" stroke="#63b8ff" points="592.77,-298.08 603.2,-299.93 596.2,-291.98 592.77,-298.08"/>
</a>
</g>
</g>
<!-- Node17&#45;&gt;Node18 -->
<g id="edge17_Node000017_Node000018" class="edge">
<title>Node17&#45;&gt;Node18</title>
<g id="a_edge17_Node000017_Node000018"><a xlink:title=" ">
<path fill="none" stroke="#63b8ff" d="M362.94,-353.18C335.18,-355.79 302.53,-358.85 275.54,-361.38"/>
<polygon fill="#63b8ff" stroke="#63b8ff" points="363.29,-356.66 372.92,-352.25 362.64,-349.7 363.29,-356.66"/>
</a>
</g>
</g>
<!-- Node17&#45;&gt;Node19 -->
<g id="edge18_Node000017_Node000019" class="edge">
<title>Node17&#45;&gt;Node19</title>
<g id="a_edge18_Node000017_Node000019"><a xlink:title=" ">
<path fill="none" stroke="#63b8ff" d="M362.87,-336.12C333.77,-330.66 299.31,-324.19 271.63,-319"/>
<polygon fill="#63b8ff" stroke="#63b8ff" points="362.45,-339.6 372.92,-338.01 363.74,-332.72 362.45,-339.6"/>
</a>
</g>
</g>
<!-- Node19&#45;&gt;Node20 -->
<g id="edge19_Node000019_Node000020" class="edge">
<title>Node19&#45;&gt;Node20</title>
<g id="a_edge19_Node000019_Node000020"><a xlink:title=" ">
<path fill="none" stroke="#63b8ff" d="M165.31,-321.15C141.89,-326.23 114.76,-332.12 92.56,-336.94"/>
<polygon fill="#63b8ff" stroke="#63b8ff" points="166.06,-324.57 175.09,-319.03 164.58,-317.73 166.06,-324.57"/>
</a>
</g>
</g>
<!-- Node19&#45;&gt;Node21 -->
<g id="edge20_Node000019_Node000021" class="edge">
<title>Node19&#45;&gt;Node21</title>
<g id="a_edge20_Node000019_Node000021"><a xlink:title=" ">
<path fill="none" stroke="#63b8ff" d="M165.95,-297.68C141.91,-292.32 113.87,-286.07 91.21,-281.02"/>
<polygon fill="#63b8ff" stroke="#63b8ff" points="165.45,-301.15 175.98,-299.91 166.98,-294.32 165.45,-301.15"/>
</a>
</g>
</g>
<!-- Node24&#45;&gt;Node9 -->
<g id="edge29_Node000024_Node000009" class="edge">
<title>Node24&#45;&gt;Node9</title>
<g id="a_edge29_Node000024_Node000009"><a xlink:title=" ">
<path fill="none" stroke="#63b8ff" d="M1192.52,-98.91C1170.45,-117.31 1133.24,-147.82 1100,-172.5 1073.85,-191.92 1042.26,-213.06 1024.16,-224.96"/>
<polygon fill="#63b8ff" stroke="#63b8ff" points="1195.04,-101.36 1200.46,-92.26 1190.55,-95.99 1195.04,-101.36"/>
</a>
</g>
</g>
<!-- Node24&#45;&gt;Node19 -->
<g id="edge30_Node000024_Node000019" class="edge">
<title>Node24&#45;&gt;Node19</title>
<g id="a_edge30_Node000024_Node000019"><a xlink:title=" ">
<path fill="none" stroke="#63b8ff" d="M1172.16,-95.16C1100.48,-116.78 944.72,-158.5 810,-158.5 810,-158.5 810,-158.5 619.5,-158.5 494.9,-158.5 458.43,-163.93 345,-215.5 297.05,-237.3 250.2,-280.43 230.6,-299.75"/>
<polygon fill="#63b8ff" stroke="#63b8ff" points="1173.57,-98.39 1182.11,-92.13 1171.52,-91.7 1173.57,-98.39"/>
</a>
</g>
</g>
<!-- Node25 -->
<g id="Node000025" class="node">
<title>Node25</title>
<g id="a_Node000025"><a xlink:href="class_bit_vector.html#a346dbe2e158d2cfda20212e7f93e8402" target="_top" xlink:title="Do maximum BitVector::_element_number is reached (With no possibility to push it further)">
<polygon fill="white" stroke="#666666" points="1083,-92.5 934,-92.5 934,-62.5 1083,-62.5 1083,-92.5"/>
<text text-anchor="start" x="942" y="-80.5" font-family="Helvetica,sans-Serif" font-size="10.00">BitVector::maxElementSize</text>
<text text-anchor="middle" x="1008.5" y="-69.5" font-family="Helvetica,sans-Serif" font-size="10.00">IsReached</text>
</a>
</g>
</g>
<!-- Node24&#45;&gt;Node25 -->
<g id="edge31_Node000024_Node000025" class="edge">
<title>Node24&#45;&gt;Node25</title>
<g id="a_edge31_Node000024_Node000025"><a xlink:title=" ">
<path fill="none" stroke="#63b8ff" d="M1125.51,-80.36C1111.36,-80.02 1096.82,-79.66 1083.02,-79.32"/>
<polygon fill="#63b8ff" stroke="#63b8ff" points="1125.65,-83.87 1135.73,-80.62 1125.82,-76.87 1125.65,-83.87"/>
</a>
</g>
</g>
<!-- Node24&#45;&gt;Node27 -->
<g id="edge33_Node000024_Node000027" class="edge">
<title>Node24&#45;&gt;Node27</title>
<g id="a_edge33_Node000024_Node000027"><a xlink:title=" ">
<path fill="none" stroke="#63b8ff" d="M1167.12,-70.37C1146.7,-64.98 1122.18,-58.7 1100,-53.5 1086.09,-50.24 1070.91,-46.95 1057.03,-44.05"/>
<polygon fill="#63b8ff" stroke="#63b8ff" points="1166.23,-73.76 1176.79,-72.94 1168.02,-66.99 1166.23,-73.76"/>
</a>
</g>
</g>
<!-- Node26 -->
<g id="Node000026" class="node">
<title>Node26</title>
<g id="a_Node000026"><a xlink:href="class_bit_vector.html#a87e099aba27ebb0f67c07dd8314828e7" target="_top" xlink:title="Do maximum capacity is reached (With no possibility to push it further)">
<polygon fill="white" stroke="#666666" points="504,-19 345,-19 345,0 504,0 504,-19"/>
<text text-anchor="middle" x="424.5" y="-7" font-family="Helvetica,sans-Serif" font-size="10.00">BitVector::maxSizeIsReached</text>
</a>
</g>
</g>
<!-- Node25&#45;&gt;Node26 -->
<g id="edge32_Node000025_Node000026" class="edge">
<title>Node25&#45;&gt;Node26</title>
<g id="a_edge32_Node000025_Node000026"><a xlink:title=" ">
<path fill="none" stroke="#63b8ff" d="M923.57,-80.8C828.82,-82.42 670.82,-78.72 540,-44.5 522.88,-40.02 520.72,-33.29 504,-27.5 494.62,-24.25 484.4,-21.42 474.54,-19.03"/>
<polygon fill="#63b8ff" stroke="#63b8ff" points="923.74,-84.3 933.67,-80.6 923.6,-77.3 923.74,-84.3"/>
</a>
</g>
</g>
<!-- Node28 -->
<g id="Node000028" class="node">
<title>Node28</title>
<g id="a_Node000028"><a xlink:href="class_bit_vector.html#acb362f03b29600195996f52c04940439" target="_top" xlink:title="How many octet can be contained in this object knowing BitVector::_element_size.">
<polygon fill="white" stroke="#666666" points="879,-44 739,-44 739,-25 879,-25 879,-44"/>
<text text-anchor="middle" x="809" y="-32" font-family="Helvetica,sans-Serif" font-size="10.00">BitVector::maxOctetLimit</text>
</a>
</g>
</g>
<!-- Node27&#45;&gt;Node28 -->
<g id="edge34_Node000027_Node000028" class="edge">
<title>Node27&#45;&gt;Node28</title>
<g id="a_edge34_Node000027_Node000028"><a xlink:title=" ">
<path fill="none" stroke="#63b8ff" d="M916.83,-34.5C904.22,-34.5 891.43,-34.5 879.29,-34.5"/>
<polygon fill="#63b8ff" stroke="#63b8ff" points="916.88,-38 926.88,-34.5 916.88,-31 916.88,-38"/>
</a>
</g>
</g>
<!-- Node28&#45;&gt;Node12 -->
<g id="edge37_Node000028_Node000012" class="edge">
<title>Node28&#45;&gt;Node12</title>
<g id="a_edge37_Node000028_Node000012"><a xlink:title=" ">
<path fill="none" stroke="#63b8ff" d="M777.06,-48.43C739.03,-65.56 675.51,-94.17 642.64,-108.98"/>
<polygon fill="#63b8ff" stroke="#63b8ff" points="778.93,-51.43 786.61,-44.14 776.05,-45.05 778.93,-51.43"/>
</a>
</g>
</g>
<!-- Node29 -->
<g id="Node000029" class="node">
<title>Node29</title>
<g id="a_Node000029"><a xlink:href="class_bit_vector.html#a00aeec5e60b478d74e1540f34f46e37c" target="_top" xlink:title="Do maximum BitVector::_data_size is reached (With no possibility to push it further)">
<polygon fill="white" stroke="#666666" points="690.5,-35.5 550.5,-35.5 550.5,-5.5 690.5,-5.5 690.5,-35.5"/>
<text text-anchor="start" x="558.5" y="-23.5" font-family="Helvetica,sans-Serif" font-size="10.00">BitVector::maxDataSizeIs</text>
<text text-anchor="middle" x="620.5" y="-12.5" font-family="Helvetica,sans-Serif" font-size="10.00">Reached</text>
</a>
</g>
</g>
<!-- Node28&#45;&gt;Node29 -->
<g id="edge35_Node000028_Node000029" class="edge">
<title>Node28&#45;&gt;Node29</title>
<g id="a_edge35_Node000028_Node000029"><a xlink:title=" ">
<path fill="none" stroke="#63b8ff" d="M728.74,-28.55C716.04,-27.6 703,-26.62 690.57,-25.68"/>
<polygon fill="#63b8ff" stroke="#63b8ff" points="728.59,-32.05 738.82,-29.31 729.11,-25.07 728.59,-32.05"/>
</a>
</g>
</g>
<!-- Node29&#45;&gt;Node26 -->
<g id="edge36_Node000029_Node000026" class="edge">
<title>Node29&#45;&gt;Node26</title>
<g id="a_edge36_Node000029_Node000026"><a xlink:title=" ">
<path fill="none" stroke="#63b8ff" d="M540.02,-15.99C528.22,-15.32 516.06,-14.63 504.27,-13.97"/>
<polygon fill="#63b8ff" stroke="#63b8ff" points="540.1,-19.5 550.28,-16.58 540.5,-12.51 540.1,-19.5"/>
</a>
</g>
</g>
</g>
</svg>

<g id="navigator" transform="translate(0 0)" fill="#404254">
  <rect fill="#f2f5e9" fill-opacity="0.5" stroke="#606060" stroke-width=".5" x="0" y="0" width="60" height="60"/>
  <use id="zoomplus" xlink:href="#zoomPlus" x="17" y="9" onmousedown="handleZoom(evt,'in')"/>
  <use id="zoomminus" xlink:href="#zoomMin" x="42" y="9" onmousedown="handleZoom(evt,'out')"/>
  <use id="reset" xlink:href="#resetDef" x="30" y="36" onmousedown="handleReset()"/>
   <use id="arrowup" xlink:href="#arrowUp" x="0" y="0" onmousedown="handlePan(0,-1)"/>
  <use id="arrowright" xlink:href="#arrowRight" x="0" y="0" onmousedown="handlePan(1,0)"/>
  <use id="arrowdown" xlink:href="#arrowDown" x="0" y="0" onmousedown="handlePan(0,1)"/>
  <use id="arrowleft" xlink:href="#arrowLeft" x="0" y="0" onmousedown="handlePan(-1,0)"/>
</g>
<svg viewBox="0 0 15 15" width="100%" height="30px" preserveAspectRatio="xMaxYMin meet">
 <g id="arrow_out" transform="scale(0.3 0.3)">
  <a xlink:href="class_bit_vector_1_1_coords_a3a4fac9de925974af9c8a66a1d0179e6_icgraph_org.svg" target="_base">
   <rect id="button" ry="5" rx="5" y="6" x="6" height="38" width="38"
        fill="#f2f5e9" fill-opacity="0.5" stroke="#606060" stroke-width="1.0"/>
   <path id="arrow"
     d="M 11.500037,31.436501 C 11.940474,20.09759 22.043105,11.32322 32.158766,21.979434 L 37.068811,17.246167 C 37.068811,17.246167 37.088388,32 37.088388,32 L 22.160133,31.978069 C 22.160133,31.978069 26.997745,27.140456 26.997745,27.140456 C 18.528582,18.264221 13.291696,25.230495 11.500037,31.436501 z"
     style="fill:#404040;"/>
  </a>
 </g>
</svg>

<style type='text/css'>
<![CDATA[
[data-mouse-over-selected='false'] { opacity: 0.7; }
[data-mouse-over-selected='true']  { opacity: 1.0; }
]]>
</style>
<script type="application/ecmascript"><![CDATA[
document.addEventListener('DOMContentLoaded', (event) => {
  highlightEdges();
  highlightAdjacentNodes();
});
]]></script>
</svg>
