<?xml version="1.0" encoding="UTF-8" standalone="no"?>
<!DOCTYPE svg PUBLIC "-//W3C//DTD SVG 1.1//EN"
 "http://www.w3.org/Graphics/SVG/1.1/DTD/svg11.dtd">
<!-- Generated by graphviz version 2.43.0 (0)
 -->
<!-- Title: FastaRelated Pages: 1 -->
<svg width="429pt" height="509pt"
 viewBox="0.00 0.00 428.50 509.00" xmlns="http://www.w3.org/2000/svg" xmlns:xlink="http://www.w3.org/1999/xlink">
<g id="graph0" class="graph" transform="scale(1 1) rotate(0) translate(4 505)">
<title>FastaRelated</title>
<!-- Node1 -->
<g id="Node000001" class="node">
<title>Node1</title>
<g id="a_Node000001"><a xlink:title="Class inherited by all class related to FastaFiles.">
<polygon fill="#999999" stroke="transparent" points="309.5,-501 179.5,-501 179.5,-347 309.5,-347 309.5,-501"/>
<text text-anchor="start" x="212.5" y="-489" font-family="Helvetica,sans-Serif" font-size="10.00">FastaRelated</text>
<text text-anchor="start" x="186" y="-474" font-family="Helvetica,sans-Serif" font-size="10.00">&#45;</text>
<text text-anchor="start" x="196.5" y="-474" font-family="Helvetica,sans-Serif" font-size="10.00">legalMultiHeaderChar</text>
<text text-anchor="start" x="186" y="-459" font-family="Helvetica,sans-Serif" font-size="10.00">&#45;</text>
<text text-anchor="start" x="196.5" y="-459" font-family="Helvetica,sans-Serif" font-size="10.00">legalMonoHeaderChar</text>
<text text-anchor="start" x="186" y="-444" font-family="Helvetica,sans-Serif" font-size="10.00">&#45;</text>
<text text-anchor="start" x="196.5" y="-444" font-family="Helvetica,sans-Serif" font-size="10.00">legalCommentChar</text>
<text text-anchor="start" x="186" y="-429" font-family="Helvetica,sans-Serif" font-size="10.00">&#45;</text>
<text text-anchor="start" x="196.5" y="-429" font-family="Helvetica,sans-Serif" font-size="10.00">blankChar</text>
<text text-anchor="start" x="183.5" y="-414" font-family="Helvetica,sans-Serif" font-size="10.00">+</text>
<text text-anchor="start" x="196.5" y="-414" font-family="Helvetica,sans-Serif" font-size="10.00">isHeaderChar()</text>
<text text-anchor="start" x="183.5" y="-399" font-family="Helvetica,sans-Serif" font-size="10.00">+</text>
<text text-anchor="start" x="196.5" y="-399" font-family="Helvetica,sans-Serif" font-size="10.00">isMonoHeaderChar()</text>
<text text-anchor="start" x="183.5" y="-384" font-family="Helvetica,sans-Serif" font-size="10.00">+</text>
<text text-anchor="start" x="196.5" y="-384" font-family="Helvetica,sans-Serif" font-size="10.00">isMultiHeaderChar()</text>
<text text-anchor="start" x="183.5" y="-369" font-family="Helvetica,sans-Serif" font-size="10.00">+</text>
<text text-anchor="start" x="196.5" y="-369" font-family="Helvetica,sans-Serif" font-size="10.00">isCommentChar()</text>
<text text-anchor="start" x="183.5" y="-354" font-family="Helvetica,sans-Serif" font-size="10.00">+</text>
<text text-anchor="start" x="196.5" y="-354" font-family="Helvetica,sans-Serif" font-size="10.00">isBlankChar()</text>
<polygon fill="#666666" stroke="#666666" points="179.5,-484 179.5,-484 309.5,-484 309.5,-484 179.5,-484"/>
<polygon fill="#666666" stroke="#666666" points="179.5,-424 179.5,-424 194.5,-424 194.5,-424 179.5,-424"/>
<polygon fill="#666666" stroke="#666666" points="194.5,-424 194.5,-424 309.5,-424 309.5,-424 194.5,-424"/>
<polygon fill="none" stroke="#666666" points="179.5,-347 179.5,-501 309.5,-501 309.5,-347 179.5,-347"/>
</a>
</g>
</g>
<!-- Node2 -->
<g id="Node000002" class="node">
<title>Node2</title>
<g id="a_Node000002"><a xlink:href="class_fasta_header.html" target="_top" xlink:title="A header function that is supposed to be hubble to parse Header from Fasta file.">
<polygon fill="white" stroke="transparent" points="187,-311 0,-311 0,0 187,0 187,-311"/>
<text text-anchor="start" x="63.5" y="-298.5" font-family="Helvetica,sans-Serif" font-size="10.00">FastaHeader</text>
<text text-anchor="start" x="7" y="-283.5" font-family="Helvetica,sans-Serif" font-size="10.00">&#45;</text>
<text text-anchor="start" x="17.5" y="-283.5" font-family="Helvetica,sans-Serif" font-size="10.00">identifier_format</text>
<text text-anchor="start" x="7" y="-268.5" font-family="Helvetica,sans-Serif" font-size="10.00">&#45;</text>
<text text-anchor="start" x="17.5" y="-268.5" font-family="Helvetica,sans-Serif" font-size="10.00">identifier</text>
<text text-anchor="start" x="4.5" y="-253.5" font-family="Helvetica,sans-Serif" font-size="10.00">+</text>
<text text-anchor="start" x="17.5" y="-253.5" font-family="Helvetica,sans-Serif" font-size="10.00">FastaHeader()</text>
<text text-anchor="start" x="4.5" y="-238.5" font-family="Helvetica,sans-Serif" font-size="10.00">+</text>
<text text-anchor="start" x="17.5" y="-238.5" font-family="Helvetica,sans-Serif" font-size="10.00">FastaHeader()</text>
<text text-anchor="start" x="4.5" y="-223.5" font-family="Helvetica,sans-Serif" font-size="10.00">+</text>
<text text-anchor="start" x="17.5" y="-223.5" font-family="Helvetica,sans-Serif" font-size="10.00">load()</text>
<text text-anchor="start" x="4.5" y="-208.5" font-family="Helvetica,sans-Serif" font-size="10.00">+</text>
<text text-anchor="start" x="17.5" y="-208.5" font-family="Helvetica,sans-Serif" font-size="10.00">getIdentifiers()</text>
<text text-anchor="start" x="4.5" y="-193.5" font-family="Helvetica,sans-Serif" font-size="10.00">+</text>
<text text-anchor="start" x="17.5" y="-193.5" font-family="Helvetica,sans-Serif" font-size="10.00">getFormat()</text>
<text text-anchor="start" x="4.5" y="-178.5" font-family="Helvetica,sans-Serif" font-size="10.00">+</text>
<text text-anchor="start" x="17.5" y="-178.5" font-family="Helvetica,sans-Serif" font-size="10.00">findFirstWord()</text>
<text text-anchor="start" x="4.5" y="-163.5" font-family="Helvetica,sans-Serif" font-size="10.00">+</text>
<text text-anchor="start" x="17.5" y="-163.5" font-family="Helvetica,sans-Serif" font-size="10.00">clearRawHeader()</text>
<text text-anchor="start" x="4.5" y="-148.5" font-family="Helvetica,sans-Serif" font-size="10.00">+</text>
<text text-anchor="start" x="17.5" y="-148.5" font-family="Helvetica,sans-Serif" font-size="10.00">cutRawHeader()</text>
<text text-anchor="start" x="4.5" y="-133.5" font-family="Helvetica,sans-Serif" font-size="10.00">+</text>
<text text-anchor="start" x="17.5" y="-133.5" font-family="Helvetica,sans-Serif" font-size="10.00">parseRawHeader()</text>
<text text-anchor="start" x="4.5" y="-118.5" font-family="Helvetica,sans-Serif" font-size="10.00">+</text>
<text text-anchor="start" x="17.5" y="-118.5" font-family="Helvetica,sans-Serif" font-size="10.00">parseRawHeader()</text>
<text text-anchor="start" x="4.5" y="-103.5" font-family="Helvetica,sans-Serif" font-size="10.00">+</text>
<text text-anchor="start" x="17.5" y="-103.5" font-family="Helvetica,sans-Serif" font-size="10.00">intermediateMakeFormatFrom</text>
<text text-anchor="start" x="17.5" y="-92.5" font-family="Helvetica,sans-Serif" font-size="10.00">Vector()</text>
<text text-anchor="start" x="4.5" y="-77.5" font-family="Helvetica,sans-Serif" font-size="10.00">+</text>
<text text-anchor="start" x="17.5" y="-77.5" font-family="Helvetica,sans-Serif" font-size="10.00">makeGenInfoBackboneIdHeader()</text>
<text text-anchor="start" x="4.5" y="-62.5" font-family="Helvetica,sans-Serif" font-size="10.00">+</text>
<text text-anchor="start" x="17.5" y="-62.5" font-family="Helvetica,sans-Serif" font-size="10.00">parseGenInfoBackboneIdHeader()</text>
<text text-anchor="start" x="4.5" y="-47.5" font-family="Helvetica,sans-Serif" font-size="10.00">+</text>
<text text-anchor="start" x="17.5" y="-47.5" font-family="Helvetica,sans-Serif" font-size="10.00">parseGenInfoBackboneIdHeader()</text>
<text text-anchor="start" x="4.5" y="-32.5" font-family="Helvetica,sans-Serif" font-size="10.00">+</text>
<text text-anchor="start" x="17.5" y="-32.5" font-family="Helvetica,sans-Serif" font-size="10.00">makeGenInfoBackboneMoltype</text>
<text text-anchor="start" x="17.5" y="-21.5" font-family="Helvetica,sans-Serif" font-size="10.00">Header()</text>
<text text-anchor="start" x="17.5" y="-6.5" font-family="Helvetica,sans-Serif" font-size="10.00">and 59 more...</text>
<polygon fill="#666666" stroke="#666666" points="0.5,-293.5 0.5,-293.5 187.5,-293.5 187.5,-293.5 0.5,-293.5"/>
<polygon fill="#666666" stroke="#666666" points="0.5,-263.5 0.5,-263.5 15.5,-263.5 15.5,-263.5 0.5,-263.5"/>
<polygon fill="#666666" stroke="#666666" points="15.5,-263.5 15.5,-263.5 187.5,-263.5 187.5,-263.5 15.5,-263.5"/>
<polygon fill="none" stroke="#666666" points="0,0 0,-311 187,-311 187,0 0,0"/>
</a>
</g>
</g>
<!-- Node1&#45;&gt;Node2 -->
<g id="edge1_Node000001_Node000002" class="edge">
<title>Node1&#45;&gt;Node2</title>
<g id="a_edge1_Node000001_Node000002"><a xlink:title=" ">
<path fill="none" stroke="#63b8ff" d="M196.37,-338.05C191.44,-329.36 186.34,-320.35 181.16,-311.21"/>
<polygon fill="none" stroke="#63b8ff" points="193.46,-340.01 201.43,-346.99 199.55,-336.56 193.46,-340.01"/>
</a>
</g>
</g>
<!-- Node3 -->
<g id="Node000003" class="node">
<title>Node3</title>
<g id="a_Node000003"><a xlink:href="class_fasta_manager.html" target="_top" xlink:title="Class that should represent a Fasta File.">
<polygon fill="white" stroke="transparent" points="284,-187.5 205,-187.5 205,-123.5 284,-123.5 284,-187.5"/>
<text text-anchor="start" x="210.5" y="-175.5" font-family="Helvetica,sans-Serif" font-size="10.00">FastaManager</text>
<text text-anchor="start" x="243" y="-160.5" font-family="Helvetica,sans-Serif" font-size="10.00"> </text>
<text text-anchor="start" x="211.5" y="-145.5" font-family="Helvetica,sans-Serif" font-size="10.00">+</text>
<text text-anchor="start" x="226.5" y="-145.5" font-family="Helvetica,sans-Serif" font-size="10.00">loadFile()</text>
<text text-anchor="start" x="211.5" y="-130.5" font-family="Helvetica,sans-Serif" font-size="10.00">+</text>
<text text-anchor="start" x="226.5" y="-130.5" font-family="Helvetica,sans-Serif" font-size="10.00">loadText()</text>
<polygon fill="#666666" stroke="#666666" points="205.5,-170.5 205.5,-170.5 284.5,-170.5 284.5,-170.5 205.5,-170.5"/>
<polygon fill="#666666" stroke="#666666" points="205.5,-155.5 205.5,-155.5 284.5,-155.5 284.5,-155.5 205.5,-155.5"/>
<polygon fill="none" stroke="#666666" points="205,-123.5 205,-187.5 284,-187.5 284,-123.5 205,-123.5"/>
</a>
</g>
</g>
<!-- Node1&#45;&gt;Node3 -->
<g id="edge2_Node000001_Node000003" class="edge">
<title>Node1&#45;&gt;Node3</title>
<g id="a_edge2_Node000001_Node000003"><a xlink:title=" ">
<path fill="none" stroke="#8b1a1a" d="M244.5,-336.93C244.5,-285.89 244.5,-224.23 244.5,-187.81"/>
<polygon fill="none" stroke="#8b1a1a" points="241,-336.99 244.5,-346.99 248,-336.99 241,-336.99"/>
</a>
</g>
</g>
<!-- Node4 -->
<g id="Node000004" class="node">
<title>Node4</title>
<g id="a_Node000004"><a xlink:href="class_fasta_sequence.html" target="_top" xlink:title="Class that represent Sequence inside a fasta File. Can hold comment.">
<polygon fill="white" stroke="transparent" points="420.5,-247.5 302.5,-247.5 302.5,-63.5 420.5,-63.5 420.5,-247.5"/>
<text text-anchor="start" x="325" y="-235.5" font-family="Helvetica,sans-Serif" font-size="10.00">FastaSequence</text>
<text text-anchor="start" x="309" y="-220.5" font-family="Helvetica,sans-Serif" font-size="10.00">&#45;</text>
<text text-anchor="start" x="319.5" y="-220.5" font-family="Helvetica,sans-Serif" font-size="10.00">comments</text>
<text text-anchor="start" x="306.5" y="-205.5" font-family="Helvetica,sans-Serif" font-size="10.00">+</text>
<text text-anchor="start" x="319.5" y="-205.5" font-family="Helvetica,sans-Serif" font-size="10.00">getAllComment()</text>
<text text-anchor="start" x="306.5" y="-190.5" font-family="Helvetica,sans-Serif" font-size="10.00">+</text>
<text text-anchor="start" x="319.5" y="-190.5" font-family="Helvetica,sans-Serif" font-size="10.00">FastaSequence()</text>
<text text-anchor="start" x="306.5" y="-175.5" font-family="Helvetica,sans-Serif" font-size="10.00">+</text>
<text text-anchor="start" x="319.5" y="-175.5" font-family="Helvetica,sans-Serif" font-size="10.00">insert()</text>
<text text-anchor="start" x="306.5" y="-160.5" font-family="Helvetica,sans-Serif" font-size="10.00">+</text>
<text text-anchor="start" x="319.5" y="-160.5" font-family="Helvetica,sans-Serif" font-size="10.00">eraseSeq()</text>
<text text-anchor="start" x="306.5" y="-145.5" font-family="Helvetica,sans-Serif" font-size="10.00">+</text>
<text text-anchor="start" x="319.5" y="-145.5" font-family="Helvetica,sans-Serif" font-size="10.00">addComment()</text>
<text text-anchor="start" x="306.5" y="-130.5" font-family="Helvetica,sans-Serif" font-size="10.00">+</text>
<text text-anchor="start" x="319.5" y="-130.5" font-family="Helvetica,sans-Serif" font-size="10.00">loadComments()</text>
<text text-anchor="start" x="306.5" y="-115.5" font-family="Helvetica,sans-Serif" font-size="10.00">+</text>
<text text-anchor="start" x="319.5" y="-115.5" font-family="Helvetica,sans-Serif" font-size="10.00">removeComment()</text>
<text text-anchor="start" x="306.5" y="-100.5" font-family="Helvetica,sans-Serif" font-size="10.00">+</text>
<text text-anchor="start" x="319.5" y="-100.5" font-family="Helvetica,sans-Serif" font-size="10.00">displaceComment()</text>
<text text-anchor="start" x="306.5" y="-85.5" font-family="Helvetica,sans-Serif" font-size="10.00">+</text>
<text text-anchor="start" x="319.5" y="-85.5" font-family="Helvetica,sans-Serif" font-size="10.00">isCommentedPos()</text>
<text text-anchor="start" x="306.5" y="-70.5" font-family="Helvetica,sans-Serif" font-size="10.00">+</text>
<text text-anchor="start" x="319.5" y="-70.5" font-family="Helvetica,sans-Serif" font-size="10.00">getComment()</text>
<polygon fill="#666666" stroke="#666666" points="302.5,-230.5 302.5,-230.5 420.5,-230.5 420.5,-230.5 302.5,-230.5"/>
<polygon fill="#666666" stroke="#666666" points="302.5,-215.5 302.5,-215.5 317.5,-215.5 317.5,-215.5 302.5,-215.5"/>
<polygon fill="#666666" stroke="#666666" points="317.5,-215.5 317.5,-215.5 420.5,-215.5 420.5,-215.5 317.5,-215.5"/>
<polygon fill="none" stroke="#666666" points="302.5,-63.5 302.5,-247.5 420.5,-247.5 420.5,-63.5 302.5,-63.5"/>
</a>
</g>
</g>
<!-- Node1&#45;&gt;Node4 -->
<g id="edge3_Node000001_Node000004" class="edge">
<title>Node1&#45;&gt;Node4</title>
<g id="a_edge3_Node000001_Node000004"><a xlink:title=" ">
<path fill="none" stroke="#63b8ff" d="M281.91,-337.79C294.52,-309.07 308.64,-276.91 321.44,-247.74"/>
<polygon fill="none" stroke="#63b8ff" points="278.69,-336.43 277.87,-346.99 285.1,-339.24 278.69,-336.43"/>
</a>
</g>
</g>
</g>
</svg>
