<?xml version="1.0" encoding="UTF-8" standalone="no"?>
<!DOCTYPE svg PUBLIC "-//W3C//DTD SVG 1.1//EN"
 "http://www.w3.org/Graphics/SVG/1.1/DTD/svg11.dtd">
<!-- Generated by graphviz version 2.43.0 (0)
 -->
<!-- Title: Sequence::isDnaSpecificNucleotide Pages: 1 -->
<svg width="1251pt" height="156pt"
 viewBox="0.00 0.00 1251.00 156.00" xmlns="http://www.w3.org/2000/svg" xmlns:xlink="http://www.w3.org/1999/xlink">
<g id="graph0" class="graph" transform="scale(1 1) rotate(0) translate(4 152)">
<title>Sequence::isDnaSpecificNucleotide</title>
<!-- Node1 -->
<g id="Node000001" class="node">
<title>Node1</title>
<g id="a_Node000001"><a xlink:title="Say if a symbol can only be found in acid nucleic related to DNA.">
<polygon fill="#999999" stroke="#666666" points="188,-56 0,-56 0,-37 188,-37 188,-56"/>
<text text-anchor="middle" x="94" y="-44" font-family="Helvetica,sans-Serif" font-size="10.00">Sequence::isDnaSpecificNucleotide</text>
</a>
</g>
</g>
<!-- Node2 -->
<g id="Node000002" class="node">
<title>Node2</title>
<g id="a_Node000002"><a xlink:href="class_sequence.html#ad40777fd2f7ad3ae247fab02459e6759" target="_top" xlink:title="Retrieve the symbol at the position in the sequence.">
<polygon fill="white" stroke="#666666" points="446,-56 360,-56 360,-37 446,-37 446,-56"/>
<text text-anchor="middle" x="403" y="-44" font-family="Helvetica,sans-Serif" font-size="10.00">Sequence::get</text>
</a>
</g>
</g>
<!-- Node1&#45;&gt;Node2 -->
<g id="edge1_Node000001_Node000002" class="edge">
<title>Node1&#45;&gt;Node2</title>
<g id="a_edge1_Node000001_Node000002"><a xlink:title=" ">
<path fill="none" stroke="#63b8ff" d="M142.47,-56.02C188.85,-64.01 261.42,-73.01 324,-65.5 335.99,-64.06 348.79,-61.42 360.49,-58.56"/>
<polygon fill="#63b8ff" stroke="#63b8ff" points="361.62,-61.88 370.44,-56.01 359.88,-55.1 361.62,-61.88"/>
</a>
</g>
</g>
<!-- Node11 -->
<g id="Node000011" class="node">
<title>Node11</title>
<g id="a_Node000011"><a xlink:href="class_sequence.html#a14cf335c6053ca586d4e1694898575cf" target="_top" xlink:title="Say if a symbol can be an acid nucleic related to DNA.">
<polygon fill="white" stroke="#666666" points="324,-56 224,-56 224,-37 324,-37 324,-56"/>
<text text-anchor="middle" x="274" y="-44" font-family="Helvetica,sans-Serif" font-size="10.00">Sequence::isDNA</text>
</a>
</g>
</g>
<!-- Node1&#45;&gt;Node11 -->
<g id="edge14_Node000001_Node000011" class="edge">
<title>Node1&#45;&gt;Node11</title>
<g id="a_edge14_Node000001_Node000011"><a xlink:title=" ">
<path fill="none" stroke="#63b8ff" d="M188.17,-46.5C196.81,-46.5 205.39,-46.5 213.59,-46.5"/>
<polygon fill="#63b8ff" stroke="#63b8ff" points="213.76,-50 223.76,-46.5 213.76,-43 213.76,-50"/>
</a>
</g>
</g>
<!-- Node12 -->
<g id="Node000012" class="node">
<title>Node12</title>
<g id="a_Node000012"><a xlink:href="class_sequence.html#ad04d994668bcc5d29c6813fcbc28dfb6" target="_top" xlink:title="Say if a symbol can be an acid nucleic related to RNA.">
<polygon fill="white" stroke="#666666" points="323.5,-19 224.5,-19 224.5,0 323.5,0 323.5,-19"/>
<text text-anchor="middle" x="274" y="-7" font-family="Helvetica,sans-Serif" font-size="10.00">Sequence::isRNA</text>
</a>
</g>
</g>
<!-- Node1&#45;&gt;Node12 -->
<g id="edge16_Node000001_Node000012" class="edge">
<title>Node1&#45;&gt;Node12</title>
<g id="a_edge16_Node000001_Node000012"><a xlink:title=" ">
<path fill="none" stroke="#63b8ff" d="M140.84,-36.97C164.11,-32.14 192.57,-26.22 217.11,-21.12"/>
<polygon fill="#63b8ff" stroke="#63b8ff" points="217.93,-24.52 227.01,-19.06 216.5,-17.67 217.93,-24.52"/>
</a>
</g>
</g>
<!-- Node2&#45;&gt;Node2 -->
<g id="edge5_Node000002_Node000002" class="edge">
<title>Node2&#45;&gt;Node2</title>
<g id="a_edge5_Node000002_Node000002"><a xlink:title=" ">
<path fill="none" stroke="#63b8ff" d="M383.27,-56.08C373.67,-64.73 380.25,-74 403,-74 417.22,-74 425.12,-70.38 426.7,-65.55"/>
<polygon fill="#63b8ff" stroke="#63b8ff" points="429.83,-63.95 422.73,-56.08 423.37,-66.66 429.83,-63.95"/>
</a>
</g>
</g>
<!-- Node3 -->
<g id="Node000003" class="node">
<title>Node3</title>
<g id="a_Node000003"><a xlink:href="class_bit_vector.html#aebe159444eb9d619959b7325ac5dac2d" target="_top" xlink:title="Return the value of the bit at the position coord.">
<polygon fill="white" stroke="#666666" points="599.5,-130 516.5,-130 516.5,-111 599.5,-111 599.5,-130"/>
<text text-anchor="middle" x="558" y="-118" font-family="Helvetica,sans-Serif" font-size="10.00">BitVector::get</text>
</a>
</g>
</g>
<!-- Node2&#45;&gt;Node3 -->
<g id="edge2_Node000002_Node000003" class="edge">
<title>Node2&#45;&gt;Node3</title>
<g id="a_edge2_Node000002_Node000003"><a xlink:title=" ">
<path fill="none" stroke="#63b8ff" d="M414.76,-56.34C429.07,-68.9 455.62,-90.43 482,-102.5 489.7,-106.02 498.18,-108.91 506.57,-111.25"/>
<polygon fill="#63b8ff" stroke="#63b8ff" points="505.78,-114.66 516.34,-113.75 507.52,-107.88 505.78,-114.66"/>
</a>
</g>
</g>
<!-- Node5 -->
<g id="Node000005" class="node">
<title>Node5</title>
<g id="a_Node000005"><a xlink:href="class_sequence.html#a8181f024304b3fb5f55c7118f648cc61" target="_top" xlink:title="Return a char (same format as Sequence::getType()) that indicate which alphabet is used in the during...">
<polygon fill="white" stroke="#666666" points="634,-93 482,-93 482,-74 634,-74 634,-93"/>
<text text-anchor="middle" x="558" y="-81" font-family="Helvetica,sans-Serif" font-size="10.00">Sequence::getEncodingType</text>
</a>
</g>
</g>
<!-- Node2&#45;&gt;Node5 -->
<g id="edge6_Node000002_Node000005" class="edge">
<title>Node2&#45;&gt;Node5</title>
<g id="a_edge6_Node000002_Node000005"><a xlink:title=" ">
<path fill="none" stroke="#63b8ff" d="M443.27,-56.09C455.66,-59.11 469.4,-62.45 482,-65.5 490.23,-67.49 498.97,-69.6 507.47,-71.64"/>
<polygon fill="#63b8ff" stroke="#63b8ff" points="506.75,-75.06 517.29,-74 508.39,-68.26 506.75,-75.06"/>
</a>
</g>
</g>
<!-- Node6 -->
<g id="Node000006" class="node">
<title>Node6</title>
<g id="a_Node000006"><a xlink:href="class_sequence.html#a49a9126010c0332493c803ddca005394" target="_top" xlink:title="Give a map that compress / decompress char used by Sequence.">
<polygon fill="white" stroke="#666666" points="627.5,-56 488.5,-56 488.5,-37 627.5,-37 627.5,-56"/>
<text text-anchor="middle" x="558" y="-44" font-family="Helvetica,sans-Serif" font-size="10.00">Sequence::translationTab</text>
</a>
</g>
</g>
<!-- Node2&#45;&gt;Node6 -->
<g id="edge7_Node000002_Node000006" class="edge">
<title>Node2&#45;&gt;Node6</title>
<g id="a_edge7_Node000002_Node000006"><a xlink:title=" ">
<path fill="none" stroke="#63b8ff" d="M446.21,-40.39C456.24,-39.99 467.25,-39.78 478.32,-39.75"/>
<polygon fill="#63b8ff" stroke="#63b8ff" points="478.47,-43.25 488.48,-39.78 478.49,-36.25 478.47,-43.25"/>
</a>
</g>
</g>
<!-- Node3&#45;&gt;Node3 -->
<g id="edge3_Node000003_Node000003" class="edge">
<title>Node3&#45;&gt;Node3</title>
<g id="a_edge3_Node000003_Node000003"><a xlink:title=" ">
<path fill="none" stroke="#63b8ff" d="M534.26,-130.08C522.72,-138.73 530.63,-148 558,-148 575.96,-148 585.54,-144.01 586.75,-138.82"/>
<polygon fill="#63b8ff" stroke="#63b8ff" points="589.75,-137.02 581.74,-130.08 583.67,-140.5 589.75,-137.02"/>
</a>
</g>
</g>
<!-- Node4 -->
<g id="Node000004" class="node">
<title>Node4</title>
<g id="a_Node000004"><a xlink:href="class_bit_vector_1_1_coords.html#a2892f7f46c4af93f9733e312229d8ec1" target="_top" xlink:title="Get Coords::octet .">
<polygon fill="white" stroke="#666666" points="787.5,-135.5 680.5,-135.5 680.5,-105.5 787.5,-105.5 787.5,-135.5"/>
<text text-anchor="start" x="688.5" y="-123.5" font-family="Helvetica,sans-Serif" font-size="10.00">BitVector::Coords::</text>
<text text-anchor="middle" x="734" y="-112.5" font-family="Helvetica,sans-Serif" font-size="10.00">getOctet</text>
</a>
</g>
</g>
<!-- Node3&#45;&gt;Node4 -->
<g id="edge4_Node000003_Node000004" class="edge">
<title>Node3&#45;&gt;Node4</title>
<g id="a_edge4_Node000003_Node000004"><a xlink:title=" ">
<path fill="none" stroke="#63b8ff" d="M599.8,-120.5C620.71,-120.5 646.64,-120.5 670.05,-120.5"/>
<polygon fill="#63b8ff" stroke="#63b8ff" points="670.25,-124 680.25,-120.5 670.25,-117 670.25,-124"/>
</a>
</g>
</g>
<!-- Node6&#45;&gt;Node2 -->
<g id="edge13_Node000006_Node000002" class="edge">
<title>Node6&#45;&gt;Node2</title>
<g id="a_edge13_Node000006_Node000002"><a xlink:title=" ">
<path fill="none" stroke="#63b8ff" d="M488.48,-53.22C477.68,-53.31 466.67,-53.21 456.32,-52.94"/>
<polygon fill="#63b8ff" stroke="#63b8ff" points="456.32,-49.44 446.21,-52.61 456.09,-56.44 456.32,-49.44"/>
</a>
</g>
</g>
<!-- Node7 -->
<g id="Node000007" class="node">
<title>Node7</title>
<g id="a_Node000007"><a xlink:href="class_sequence.html#a555c6e58957c4d07028eb5c67b1732ac" target="_top" xlink:title="Function used by Sequence::translationTab to create their compression map.">
<polygon fill="white" stroke="#666666" points="798,-37 670,-37 670,-18 798,-18 798,-37"/>
<text text-anchor="middle" x="734" y="-25" font-family="Helvetica,sans-Serif" font-size="10.00">Sequence::fillCodeMap</text>
</a>
</g>
</g>
<!-- Node6&#45;&gt;Node7 -->
<g id="edge8_Node000006_Node000007" class="edge">
<title>Node6&#45;&gt;Node7</title>
<g id="a_edge8_Node000006_Node000007"><a xlink:title=" ">
<path fill="none" stroke="#63b8ff" d="M627.77,-38.99C638.28,-37.84 649.16,-36.65 659.76,-35.5"/>
<polygon fill="#63b8ff" stroke="#63b8ff" points="660.26,-38.96 669.82,-34.4 659.5,-32.01 660.26,-38.96"/>
</a>
</g>
</g>
<!-- Node7&#45;&gt;Node2 -->
<g id="edge9_Node000007_Node000002" class="edge">
<title>Node7&#45;&gt;Node2</title>
<g id="a_edge9_Node000007_Node000002"><a xlink:title=" ">
<path fill="none" stroke="#63b8ff" d="M669.83,-23.35C618.92,-21 545.6,-19.87 482,-27.5 470.01,-28.94 457.21,-31.58 445.51,-34.44"/>
<polygon fill="#63b8ff" stroke="#63b8ff" points="444.38,-31.12 435.56,-36.99 446.12,-37.9 444.38,-31.12"/>
</a>
</g>
</g>
<!-- Node8 -->
<g id="Node000008" class="node">
<title>Node8</title>
<g id="a_Node000008"><a xlink:href="class_sequence.html#acf21040958590f98163b3d11f19ea93e" target="_top" xlink:title="Give the number of element contained in this sequence.">
<polygon fill="white" stroke="#666666" points="923,-37 834,-37 834,-18 923,-18 923,-37"/>
<text text-anchor="middle" x="878.5" y="-25" font-family="Helvetica,sans-Serif" font-size="10.00">Sequence::size</text>
</a>
</g>
</g>
<!-- Node7&#45;&gt;Node8 -->
<g id="edge10_Node000007_Node000008" class="edge">
<title>Node7&#45;&gt;Node8</title>
<g id="a_edge10_Node000007_Node000008"><a xlink:title=" ">
<path fill="none" stroke="#63b8ff" d="M798.33,-27.5C806.8,-27.5 815.42,-27.5 823.7,-27.5"/>
<polygon fill="#63b8ff" stroke="#63b8ff" points="823.98,-31 833.98,-27.5 823.98,-24 823.98,-31"/>
</a>
</g>
</g>
<!-- Node9 -->
<g id="Node000009" class="node">
<title>Node9</title>
<g id="a_Node000009"><a xlink:href="class_bit_vector.html#ab30ea2b408107e4e6bc8095b5a64a1dd" target="_top" xlink:title="Number of element inside this object.">
<polygon fill="white" stroke="#666666" points="1045,-37 959,-37 959,-18 1045,-18 1045,-37"/>
<text text-anchor="middle" x="1002" y="-25" font-family="Helvetica,sans-Serif" font-size="10.00">BitVector::size</text>
</a>
</g>
</g>
<!-- Node8&#45;&gt;Node9 -->
<g id="edge11_Node000008_Node000009" class="edge">
<title>Node8&#45;&gt;Node9</title>
<g id="a_edge11_Node000008_Node000009"><a xlink:title=" ">
<path fill="none" stroke="#63b8ff" d="M923.02,-27.5C931.25,-27.5 939.94,-27.5 948.41,-27.5"/>
<polygon fill="#63b8ff" stroke="#63b8ff" points="948.6,-31 958.6,-27.5 948.6,-24 948.6,-31"/>
</a>
</g>
</g>
<!-- Node10 -->
<g id="Node000010" class="node">
<title>Node10</title>
<g id="a_Node000010"><a xlink:href="class_bit_vector.html#a5339660cfb315ab5de7f78bdf5af4ce1" target="_top" xlink:title="Get BitVector::_element_number.">
<polygon fill="white" stroke="#666666" points="1243,-37 1081,-37 1081,-18 1243,-18 1243,-37"/>
<text text-anchor="middle" x="1162" y="-25" font-family="Helvetica,sans-Serif" font-size="10.00">BitVector::getElementNumber</text>
</a>
</g>
</g>
<!-- Node9&#45;&gt;Node10 -->
<g id="edge12_Node000009_Node000010" class="edge">
<title>Node9&#45;&gt;Node10</title>
<g id="a_edge12_Node000009_Node000010"><a xlink:title=" ">
<path fill="none" stroke="#63b8ff" d="M1045.34,-27.5C1053.23,-27.5 1061.74,-27.5 1070.44,-27.5"/>
<polygon fill="#63b8ff" stroke="#63b8ff" points="1070.71,-31 1080.71,-27.5 1070.71,-24 1070.71,-31"/>
</a>
</g>
</g>
<!-- Node11&#45;&gt;Node2 -->
<g id="edge15_Node000011_Node000002" class="edge">
<title>Node11&#45;&gt;Node2</title>
<g id="a_edge15_Node000011_Node000002"><a xlink:title=" ">
<path fill="none" stroke="#63b8ff" d="M324.1,-46.5C332.44,-46.5 341.12,-46.5 349.54,-46.5"/>
<polygon fill="#63b8ff" stroke="#63b8ff" points="349.64,-50 359.64,-46.5 349.64,-43 349.64,-50"/>
</a>
</g>
</g>
<!-- Node12&#45;&gt;Node2 -->
<g id="edge17_Node000012_Node000002" class="edge">
<title>Node12&#45;&gt;Node2</title>
<g id="a_edge17_Node000012_Node000002"><a xlink:title=" ">
<path fill="none" stroke="#63b8ff" d="M307.71,-19.03C323.43,-23.61 342.49,-29.16 359.34,-34.07"/>
<polygon fill="#63b8ff" stroke="#63b8ff" points="358.38,-37.44 368.96,-36.88 360.34,-30.72 358.38,-37.44"/>
</a>
</g>
</g>
</g>
</svg>
