<?xml version="1.0" encoding="UTF-8" standalone="no"?>
<!DOCTYPE svg PUBLIC "-//W3C//DTD SVG 1.1//EN"
 "http://www.w3.org/Graphics/SVG/1.1/DTD/svg11.dtd">
<!-- Generated by graphviz version 2.43.0 (0)
 -->
<!-- Title: Sequence::get Pages: 1 -->
<svg width="891pt" height="138pt"
 viewBox="0.00 0.00 891.00 138.00" xmlns="http://www.w3.org/2000/svg" xmlns:xlink="http://www.w3.org/1999/xlink">
<g id="graph0" class="graph" transform="scale(1 1) rotate(0) translate(4 134)">
<title>Sequence::get</title>
<!-- Node1 -->
<g id="Node000001" class="node">
<title>Node1</title>
<g id="a_Node000001"><a xlink:title="Retrieve the symbol at the position in the sequence.">
<polygon fill="#999999" stroke="#666666" points="86,-38 0,-38 0,-19 86,-19 86,-38"/>
<text text-anchor="middle" x="43" y="-26" font-family="Helvetica,sans-Serif" font-size="10.00">Sequence::get</text>
</a>
</g>
</g>
<!-- Node1&#45;&gt;Node1 -->
<g id="edge4_Node000001_Node000001" class="edge">
<title>Node1&#45;&gt;Node1</title>
<g id="a_edge4_Node000001_Node000001"><a xlink:title=" ">
<path fill="none" stroke="#63b8ff" d="M19.26,-38.08C7.72,-46.73 15.63,-56 43,-56 60.96,-56 70.54,-52.01 71.75,-46.82"/>
<polygon fill="#63b8ff" stroke="#63b8ff" points="74.75,-45.02 66.74,-38.08 68.67,-48.5 74.75,-45.02"/>
</a>
</g>
</g>
<!-- Node2 -->
<g id="Node000002" class="node">
<title>Node2</title>
<g id="a_Node000002"><a xlink:href="class_bit_vector.html#aebe159444eb9d619959b7325ac5dac2d" target="_top" xlink:title="Return the value of the bit at the position coord.">
<polygon fill="white" stroke="#666666" points="239.5,-112 156.5,-112 156.5,-93 239.5,-93 239.5,-112"/>
<text text-anchor="middle" x="198" y="-100" font-family="Helvetica,sans-Serif" font-size="10.00">BitVector::get</text>
</a>
</g>
</g>
<!-- Node1&#45;&gt;Node2 -->
<g id="edge1_Node000001_Node000002" class="edge">
<title>Node1&#45;&gt;Node2</title>
<g id="a_edge1_Node000001_Node000002"><a xlink:title=" ">
<path fill="none" stroke="#63b8ff" d="M54.76,-38.34C69.07,-50.9 95.62,-72.43 122,-84.5 129.7,-88.02 138.18,-90.91 146.57,-93.25"/>
<polygon fill="#63b8ff" stroke="#63b8ff" points="145.78,-96.66 156.34,-95.75 147.52,-89.88 145.78,-96.66"/>
</a>
</g>
</g>
<!-- Node4 -->
<g id="Node000004" class="node">
<title>Node4</title>
<g id="a_Node000004"><a xlink:href="class_sequence.html#a8181f024304b3fb5f55c7118f648cc61" target="_top" xlink:title="Return a char (same format as Sequence::getType()) that indicate which alphabet is used in the during...">
<polygon fill="white" stroke="#666666" points="274,-75 122,-75 122,-56 274,-56 274,-75"/>
<text text-anchor="middle" x="198" y="-63" font-family="Helvetica,sans-Serif" font-size="10.00">Sequence::getEncodingType</text>
</a>
</g>
</g>
<!-- Node1&#45;&gt;Node4 -->
<g id="edge5_Node000001_Node000004" class="edge">
<title>Node1&#45;&gt;Node4</title>
<g id="a_edge5_Node000001_Node000004"><a xlink:title=" ">
<path fill="none" stroke="#63b8ff" d="M83.27,-38.09C95.66,-41.11 109.4,-44.45 122,-47.5 130.23,-49.49 138.97,-51.6 147.47,-53.64"/>
<polygon fill="#63b8ff" stroke="#63b8ff" points="146.75,-57.06 157.29,-56 148.39,-50.26 146.75,-57.06"/>
</a>
</g>
</g>
<!-- Node5 -->
<g id="Node000005" class="node">
<title>Node5</title>
<g id="a_Node000005"><a xlink:href="class_sequence.html#a49a9126010c0332493c803ddca005394" target="_top" xlink:title="Give a map that compress / decompress char used by Sequence.">
<polygon fill="white" stroke="#666666" points="267.5,-38 128.5,-38 128.5,-19 267.5,-19 267.5,-38"/>
<text text-anchor="middle" x="198" y="-26" font-family="Helvetica,sans-Serif" font-size="10.00">Sequence::translationTab</text>
</a>
</g>
</g>
<!-- Node1&#45;&gt;Node5 -->
<g id="edge6_Node000001_Node000005" class="edge">
<title>Node1&#45;&gt;Node5</title>
<g id="a_edge6_Node000001_Node000005"><a xlink:title=" ">
<path fill="none" stroke="#63b8ff" d="M86.21,-22.39C96.24,-21.99 107.25,-21.78 118.32,-21.75"/>
<polygon fill="#63b8ff" stroke="#63b8ff" points="118.47,-25.25 128.48,-21.78 118.49,-18.25 118.47,-25.25"/>
</a>
</g>
</g>
<!-- Node2&#45;&gt;Node2 -->
<g id="edge2_Node000002_Node000002" class="edge">
<title>Node2&#45;&gt;Node2</title>
<g id="a_edge2_Node000002_Node000002"><a xlink:title=" ">
<path fill="none" stroke="#63b8ff" d="M174.26,-112.08C162.72,-120.73 170.63,-130 198,-130 215.96,-130 225.54,-126.01 226.75,-120.82"/>
<polygon fill="#63b8ff" stroke="#63b8ff" points="229.75,-119.02 221.74,-112.08 223.67,-122.5 229.75,-119.02"/>
</a>
</g>
</g>
<!-- Node3 -->
<g id="Node000003" class="node">
<title>Node3</title>
<g id="a_Node000003"><a xlink:href="class_bit_vector_1_1_coords.html#a2892f7f46c4af93f9733e312229d8ec1" target="_top" xlink:title="Get Coords::octet .">
<polygon fill="white" stroke="#666666" points="427.5,-117.5 320.5,-117.5 320.5,-87.5 427.5,-87.5 427.5,-117.5"/>
<text text-anchor="start" x="328.5" y="-105.5" font-family="Helvetica,sans-Serif" font-size="10.00">BitVector::Coords::</text>
<text text-anchor="middle" x="374" y="-94.5" font-family="Helvetica,sans-Serif" font-size="10.00">getOctet</text>
</a>
</g>
</g>
<!-- Node2&#45;&gt;Node3 -->
<g id="edge3_Node000002_Node000003" class="edge">
<title>Node2&#45;&gt;Node3</title>
<g id="a_edge3_Node000002_Node000003"><a xlink:title=" ">
<path fill="none" stroke="#63b8ff" d="M239.8,-102.5C260.71,-102.5 286.64,-102.5 310.05,-102.5"/>
<polygon fill="#63b8ff" stroke="#63b8ff" points="310.25,-106 320.25,-102.5 310.25,-99 310.25,-106"/>
</a>
</g>
</g>
<!-- Node5&#45;&gt;Node1 -->
<g id="edge12_Node000005_Node000001" class="edge">
<title>Node5&#45;&gt;Node1</title>
<g id="a_edge12_Node000005_Node000001"><a xlink:title=" ">
<path fill="none" stroke="#63b8ff" d="M128.48,-35.22C117.68,-35.31 106.67,-35.21 96.32,-34.94"/>
<polygon fill="#63b8ff" stroke="#63b8ff" points="96.32,-31.44 86.21,-34.61 96.09,-38.44 96.32,-31.44"/>
</a>
</g>
</g>
<!-- Node6 -->
<g id="Node000006" class="node">
<title>Node6</title>
<g id="a_Node000006"><a xlink:href="class_sequence.html#a555c6e58957c4d07028eb5c67b1732ac" target="_top" xlink:title="Function used by Sequence::translationTab to create their compression map.">
<polygon fill="white" stroke="#666666" points="438,-19 310,-19 310,0 438,0 438,-19"/>
<text text-anchor="middle" x="374" y="-7" font-family="Helvetica,sans-Serif" font-size="10.00">Sequence::fillCodeMap</text>
</a>
</g>
</g>
<!-- Node5&#45;&gt;Node6 -->
<g id="edge7_Node000005_Node000006" class="edge">
<title>Node5&#45;&gt;Node6</title>
<g id="a_edge7_Node000005_Node000006"><a xlink:title=" ">
<path fill="none" stroke="#63b8ff" d="M267.77,-20.99C278.28,-19.84 289.16,-18.65 299.76,-17.5"/>
<polygon fill="#63b8ff" stroke="#63b8ff" points="300.26,-20.96 309.82,-16.4 299.5,-14.01 300.26,-20.96"/>
</a>
</g>
</g>
<!-- Node6&#45;&gt;Node1 -->
<g id="edge8_Node000006_Node000001" class="edge">
<title>Node6&#45;&gt;Node1</title>
<g id="a_edge8_Node000006_Node000001"><a xlink:title=" ">
<path fill="none" stroke="#63b8ff" d="M309.83,-5.35C258.92,-3 185.6,-1.87 122,-9.5 110.01,-10.94 97.21,-13.58 85.51,-16.44"/>
<polygon fill="#63b8ff" stroke="#63b8ff" points="84.38,-13.12 75.56,-18.99 86.12,-19.9 84.38,-13.12"/>
</a>
</g>
</g>
<!-- Node7 -->
<g id="Node000007" class="node">
<title>Node7</title>
<g id="a_Node000007"><a xlink:href="class_sequence.html#acf21040958590f98163b3d11f19ea93e" target="_top" xlink:title="Give the number of element contained in this sequence.">
<polygon fill="white" stroke="#666666" points="563,-19 474,-19 474,0 563,0 563,-19"/>
<text text-anchor="middle" x="518.5" y="-7" font-family="Helvetica,sans-Serif" font-size="10.00">Sequence::size</text>
</a>
</g>
</g>
<!-- Node6&#45;&gt;Node7 -->
<g id="edge9_Node000006_Node000007" class="edge">
<title>Node6&#45;&gt;Node7</title>
<g id="a_edge9_Node000006_Node000007"><a xlink:title=" ">
<path fill="none" stroke="#63b8ff" d="M438.33,-9.5C446.8,-9.5 455.42,-9.5 463.7,-9.5"/>
<polygon fill="#63b8ff" stroke="#63b8ff" points="463.98,-13 473.98,-9.5 463.98,-6 463.98,-13"/>
</a>
</g>
</g>
<!-- Node8 -->
<g id="Node000008" class="node">
<title>Node8</title>
<g id="a_Node000008"><a xlink:href="class_bit_vector.html#ab30ea2b408107e4e6bc8095b5a64a1dd" target="_top" xlink:title="Number of element inside this object.">
<polygon fill="white" stroke="#666666" points="685,-19 599,-19 599,0 685,0 685,-19"/>
<text text-anchor="middle" x="642" y="-7" font-family="Helvetica,sans-Serif" font-size="10.00">BitVector::size</text>
</a>
</g>
</g>
<!-- Node7&#45;&gt;Node8 -->
<g id="edge10_Node000007_Node000008" class="edge">
<title>Node7&#45;&gt;Node8</title>
<g id="a_edge10_Node000007_Node000008"><a xlink:title=" ">
<path fill="none" stroke="#63b8ff" d="M563.02,-9.5C571.25,-9.5 579.94,-9.5 588.41,-9.5"/>
<polygon fill="#63b8ff" stroke="#63b8ff" points="588.6,-13 598.6,-9.5 588.6,-6 588.6,-13"/>
</a>
</g>
</g>
<!-- Node9 -->
<g id="Node000009" class="node">
<title>Node9</title>
<g id="a_Node000009"><a xlink:href="class_bit_vector.html#a5339660cfb315ab5de7f78bdf5af4ce1" target="_top" xlink:title="Get BitVector::_element_number.">
<polygon fill="white" stroke="#666666" points="883,-19 721,-19 721,0 883,0 883,-19"/>
<text text-anchor="middle" x="802" y="-7" font-family="Helvetica,sans-Serif" font-size="10.00">BitVector::getElementNumber</text>
</a>
</g>
</g>
<!-- Node8&#45;&gt;Node9 -->
<g id="edge11_Node000008_Node000009" class="edge">
<title>Node8&#45;&gt;Node9</title>
<g id="a_edge11_Node000008_Node000009"><a xlink:title=" ">
<path fill="none" stroke="#63b8ff" d="M685.34,-9.5C693.23,-9.5 701.74,-9.5 710.44,-9.5"/>
<polygon fill="#63b8ff" stroke="#63b8ff" points="710.71,-13 720.71,-9.5 710.71,-6 710.71,-13"/>
</a>
</g>
</g>
</g>
</svg>
