<?xml version="1.0" encoding="UTF-8" standalone="no"?>
<!DOCTYPE svg PUBLIC "-//W3C//DTD SVG 1.1//EN"
 "http://www.w3.org/Graphics/SVG/1.1/DTD/svg11.dtd">
<!-- Generated by graphviz version 2.43.0 (0)
 -->
<!-- Title: Sequence::isLegalAmino Pages: 1 -->
<svg width="729pt" height="120pt"
 viewBox="0.00 0.00 729.00 120.00" xmlns="http://www.w3.org/2000/svg" xmlns:xlink="http://www.w3.org/1999/xlink">
<g id="graph0" class="graph" transform="scale(1 1) rotate(0) translate(4 116)">
<title>Sequence::isLegalAmino</title>
<!-- Node1 -->
<g id="Node000001" class="node">
<title>Node1</title>
<g id="a_Node000001"><a xlink:title="Say if a symbol can be an amino acid.">
<polygon fill="#999999" stroke="#666666" points="721,-37 585,-37 585,-18 721,-18 721,-37"/>
<text text-anchor="middle" x="653" y="-25" font-family="Helvetica,sans-Serif" font-size="10.00">Sequence::isLegalAmino</text>
</a>
</g>
</g>
<!-- Node2 -->
<g id="Node000002" class="node">
<title>Node2</title>
<g id="a_Node000002"><a xlink:href="class_sequence.html#a31e8f630c8d214e79ac9ef7d128e3c24" target="_top" xlink:title="Say if a symbol can be an amino acid.">
<polygon fill="white" stroke="#666666" points="533.5,-56 423.5,-56 423.5,-37 533.5,-37 533.5,-56"/>
<text text-anchor="middle" x="478.5" y="-44" font-family="Helvetica,sans-Serif" font-size="10.00">Sequence::isAmino</text>
</a>
</g>
</g>
<!-- Node1&#45;&gt;Node2 -->
<g id="edge1_Node000001_Node000002" class="edge">
<title>Node1&#45;&gt;Node2</title>
<g id="a_edge1_Node000001_Node000002"><a xlink:title=" ">
<path fill="none" stroke="#63b8ff" d="M574.79,-36C560.93,-37.53 546.75,-39.09 533.71,-40.53"/>
<polygon fill="#63b8ff" stroke="#63b8ff" points="575.26,-39.47 584.81,-34.9 574.49,-32.52 575.26,-39.47"/>
</a>
</g>
</g>
<!-- Node7 -->
<g id="Node000007" class="node">
<title>Node7</title>
<g id="a_Node000007"><a xlink:href="class_sequence.html#a7e6fdc8d243336e9e55e91dfd61eb43b" target="_top" xlink:title="Say if a symbol can be used in the a sequence.">
<polygon fill="white" stroke="#666666" points="549,-19 408,-19 408,0 549,0 549,-19"/>
<text text-anchor="middle" x="478.5" y="-7" font-family="Helvetica,sans-Serif" font-size="10.00">Sequence::isLegalSymbol</text>
</a>
</g>
</g>
<!-- Node1&#45;&gt;Node7 -->
<g id="edge7_Node000001_Node000007" class="edge">
<title>Node1&#45;&gt;Node7</title>
<g id="a_edge7_Node000001_Node000007"><a xlink:title=" ">
<path fill="none" stroke="#63b8ff" d="M574.82,-19.45C566.24,-18.55 557.54,-17.64 549.06,-16.76"/>
<polygon fill="#63b8ff" stroke="#63b8ff" points="574.5,-22.93 584.81,-20.49 575.23,-15.97 574.5,-22.93"/>
</a>
</g>
</g>
<!-- Node3 -->
<g id="Node000003" class="node">
<title>Node3</title>
<g id="a_Node000003"><a xlink:href="class_sequence.html#af4dfd329689bebc4131b422d7974ca4e" target="_top" xlink:title="Get the Sequence::SequenceSymbol object attached to a symbol.">
<polygon fill="white" stroke="#666666" points="372,-112 202,-112 202,-93 372,-93 372,-112"/>
<text text-anchor="middle" x="287" y="-100" font-family="Helvetica,sans-Serif" font-size="10.00">Sequence::getSequenceSymbol</text>
</a>
</g>
</g>
<!-- Node2&#45;&gt;Node3 -->
<g id="edge2_Node000002_Node000003" class="edge">
<title>Node2&#45;&gt;Node3</title>
<g id="a_edge2_Node000002_Node000003"><a xlink:title=" ">
<path fill="none" stroke="#63b8ff" d="M444.37,-59.73C423.77,-67.63 396.61,-77.47 372,-84.5 361.1,-87.62 349.27,-90.47 338.02,-92.94"/>
<polygon fill="#63b8ff" stroke="#63b8ff" points="445.86,-62.91 453.92,-56.03 443.33,-56.38 445.86,-62.91"/>
</a>
</g>
</g>
<!-- Node4 -->
<g id="Node000004" class="node">
<title>Node4</title>
<g id="a_Node000004"><a xlink:href="class_sequence.html#a14ee59cb34cf4d2087d1eabd3e4c6d4c" target="_top" xlink:title="Say if a symbol can only be found in acid nucleic related to amino acid.">
<polygon fill="white" stroke="#666666" points="360.5,-75 213.5,-75 213.5,-56 360.5,-56 360.5,-75"/>
<text text-anchor="middle" x="287" y="-63" font-family="Helvetica,sans-Serif" font-size="10.00">Sequence::isAminoSpecific</text>
</a>
</g>
</g>
<!-- Node2&#45;&gt;Node4 -->
<g id="edge3_Node000002_Node000004" class="edge">
<title>Node2&#45;&gt;Node4</title>
<g id="a_edge3_Node000002_Node000004"><a xlink:title=" ">
<path fill="none" stroke="#63b8ff" d="M413.12,-52.95C396.2,-54.65 377.83,-56.49 360.51,-58.23"/>
<polygon fill="#63b8ff" stroke="#63b8ff" points="413.85,-56.4 423.45,-51.92 413.15,-49.43 413.85,-56.4"/>
</a>
</g>
</g>
<!-- Node6 -->
<g id="Node000006" class="node">
<title>Node6</title>
<g id="a_Node000006"><a xlink:href="class_sequence.html#a7fb536cb5ce9b5de78634aa314623835" target="_top" xlink:title="Say if a symbol can only be found in acid nucleic related to nucleic acid.">
<polygon fill="white" stroke="#666666" points="363,-38 211,-38 211,-19 363,-19 363,-38"/>
<text text-anchor="middle" x="287" y="-26" font-family="Helvetica,sans-Serif" font-size="10.00">Sequence::isNucleicSpecific</text>
</a>
</g>
</g>
<!-- Node2&#45;&gt;Node6 -->
<g id="edge5_Node000002_Node000006" class="edge">
<title>Node2&#45;&gt;Node6</title>
<g id="a_edge5_Node000002_Node000006"><a xlink:title=" ">
<path fill="none" stroke="#63b8ff" d="M413.14,-40.39C397.12,-38.87 379.81,-37.22 363.32,-35.65"/>
<polygon fill="#63b8ff" stroke="#63b8ff" points="413.16,-43.9 423.45,-41.37 413.83,-36.94 413.16,-43.9"/>
</a>
</g>
</g>
<!-- Node5 -->
<g id="Node000005" class="node">
<title>Node5</title>
<g id="a_Node000005"><a xlink:href="class_sequence.html#a2163e89ff5b606d82ad4993c7e5eab4b" target="_top" xlink:title="Turn a symbol to a bool array.">
<polygon fill="white" stroke="#666666" points="166,-38 0,-38 0,-19 166,-19 166,-38"/>
<text text-anchor="middle" x="83" y="-26" font-family="Helvetica,sans-Serif" font-size="10.00">Sequence::identifySymbolType</text>
</a>
</g>
</g>
<!-- Node4&#45;&gt;Node5 -->
<g id="edge4_Node000004_Node000005" class="edge">
<title>Node4&#45;&gt;Node5</title>
<g id="a_edge4_Node000004_Node000005"><a xlink:title=" ">
<path fill="none" stroke="#63b8ff" d="M223.87,-54.12C195.79,-48.98 162.98,-42.97 136.19,-38.06"/>
<polygon fill="#63b8ff" stroke="#63b8ff" points="223.51,-57.61 233.98,-55.97 224.77,-50.73 223.51,-57.61"/>
</a>
</g>
</g>
<!-- Node6&#45;&gt;Node5 -->
<g id="edge6_Node000006_Node000005" class="edge">
<title>Node6&#45;&gt;Node5</title>
<g id="a_edge6_Node000006_Node000005"><a xlink:title=" ">
<path fill="none" stroke="#63b8ff" d="M200.77,-28.5C189.27,-28.5 177.5,-28.5 166.06,-28.5"/>
<polygon fill="#63b8ff" stroke="#63b8ff" points="200.78,-32 210.78,-28.5 200.78,-25 200.78,-32"/>
</a>
</g>
</g>
<!-- Node7&#45;&gt;Node5 -->
<g id="edge8_Node000007_Node000005" class="edge">
<title>Node7&#45;&gt;Node5</title>
<g id="a_edge8_Node000007_Node000005"><a xlink:title=" ">
<path fill="none" stroke="#63b8ff" d="M397.7,-6.14C342.62,-4.65 267.75,-4.24 202,-9.5 178.83,-11.35 153.35,-15.22 132.02,-18.99"/>
<polygon fill="#63b8ff" stroke="#63b8ff" points="397.65,-9.64 407.74,-6.43 397.85,-2.65 397.65,-9.64"/>
</a>
</g>
</g>
</g>
</svg>
