<?xml version="1.0" encoding="UTF-8" standalone="no"?>
<!DOCTYPE svg PUBLIC "-//W3C//DTD SVG 1.1//EN"
 "http://www.w3.org/Graphics/SVG/1.1/DTD/svg11.dtd">
<!-- Generated by graphviz version 2.43.0 (0)
 -->
<!-- Title: BitVector::set Pages: 1 -->
<svg width="575pt" height="261pt"
 viewBox="0.00 0.00 575.00 261.43" xmlns="http://www.w3.org/2000/svg" xmlns:xlink="http://www.w3.org/1999/xlink">
<g id="graph0" class="graph" transform="scale(1 1) rotate(0) translate(4 257.43)">
<title>BitVector::set</title>
<!-- Node1 -->
<g id="Node000001" class="node">
<title>Node1</title>
<g id="a_Node000001"><a xlink:title="Replace an element by another element. Can add an element to the list if index = BitVector::_element_...">
<polygon fill="#999999" stroke="#666666" points="567,-150 485,-150 485,-131 567,-131 567,-150"/>
<text text-anchor="middle" x="526" y="-138" font-family="Helvetica,sans-Serif" font-size="10.00">BitVector::set</text>
</a>
</g>
</g>
<!-- Node2 -->
<g id="Node000002" class="node">
<title>Node2</title>
<g id="a_Node000002"><a xlink:href="class_bit_vector.html#afbdbe8a5003f5941ffd5ab095cf87d88" target="_top" xlink:title="Add an element at the end of the vector.">
<polygon fill="white" stroke="#666666" points="448.5,-207 345.5,-207 345.5,-188 448.5,-188 448.5,-207"/>
<text text-anchor="middle" x="397" y="-195" font-family="Helvetica,sans-Serif" font-size="10.00">BitVector::append</text>
</a>
</g>
</g>
<!-- Node1&#45;&gt;Node2 -->
<g id="edge1_Node000001_Node000002" class="edge">
<title>Node1&#45;&gt;Node2</title>
<g id="a_edge1_Node000001_Node000002"><a xlink:title=" ">
<path fill="none" stroke="#63b8ff" d="M494.35,-154.26C471.14,-164.67 439.86,-178.71 419.33,-187.93"/>
<polygon fill="#63b8ff" stroke="#63b8ff" points="496.05,-157.33 503.74,-150.04 493.19,-150.94 496.05,-157.33"/>
</a>
</g>
</g>
<!-- Node3 -->
<g id="Node000003" class="node">
<title>Node3</title>
<g id="a_Node000003"><a xlink:href="class_bit_vector.html#a5547d55a697d61de026d0a94e743624b" target="_top" xlink:title="Construct a new Bit Vector object.">
<polygon fill="white" stroke="#666666" points="275.5,-226 164.5,-226 164.5,-207 275.5,-207 275.5,-226"/>
<text text-anchor="middle" x="220" y="-214" font-family="Helvetica,sans-Serif" font-size="10.00">BitVector::BitVector</text>
</a>
</g>
</g>
<!-- Node1&#45;&gt;Node3 -->
<g id="edge7_Node000001_Node000003" class="edge">
<title>Node1&#45;&gt;Node3</title>
<g id="a_edge7_Node000001_Node000003"><a xlink:title=" ">
<path fill="none" stroke="#63b8ff" d="M513.42,-158.56C500.34,-177.1 477.17,-204.83 449,-216.5 388.84,-241.42 311.85,-234.31 264.5,-226.05"/>
<polygon fill="#63b8ff" stroke="#63b8ff" points="516.45,-160.32 519.16,-150.07 510.66,-156.4 516.45,-160.32"/>
</a>
</g>
</g>
<!-- Node4 -->
<g id="Node000004" class="node">
<title>Node4</title>
<g id="a_Node000004"><a xlink:href="class_bit_vector.html#a686af396e4dff1536b7588213726c4cc" target="_top" xlink:title="Insert a number of blank position inside BitVector::_data.">
<polygon fill="white" stroke="#666666" points="309,-169 131,-169 131,-150 309,-150 309,-169"/>
<text text-anchor="middle" x="220" y="-157" font-family="Helvetica,sans-Serif" font-size="10.00">BitVector::makeRoomForElement</text>
</a>
</g>
</g>
<!-- Node1&#45;&gt;Node4 -->
<g id="edge10_Node000001_Node000004" class="edge">
<title>Node1&#45;&gt;Node4</title>
<g id="a_edge10_Node000001_Node000004"><a xlink:title=" ">
<path fill="none" stroke="#63b8ff" d="M474.86,-143.63C429.94,-146.44 363.03,-150.62 309.17,-153.99"/>
<polygon fill="#63b8ff" stroke="#63b8ff" points="475.18,-147.12 484.94,-143 474.75,-140.13 475.18,-147.12"/>
</a>
</g>
</g>
<!-- Node5 -->
<g id="Node000005" class="node">
<title>Node5</title>
<g id="a_Node000005"><a xlink:href="class_bit_vector.html#a9f86c96c013632abd9d18feafe78d72e" target="_top" xlink:title="Insert a number_of_elements inside the vector at the index pos .">
<polygon fill="white" stroke="#666666" points="95,-187 0,-187 0,-168 95,-168 95,-187"/>
<text text-anchor="middle" x="47.5" y="-175" font-family="Helvetica,sans-Serif" font-size="10.00">BitVector::insert</text>
</a>
</g>
</g>
<!-- Node1&#45;&gt;Node5 -->
<g id="edge8_Node000001_Node000005" class="edge">
<title>Node1&#45;&gt;Node5</title>
<g id="a_edge8_Node000001_Node000005"><a xlink:title=" ">
<path fill="none" stroke="#63b8ff" d="M516.83,-159.41C505.49,-182.96 482.52,-222.08 449,-238.5 417.29,-254.04 215.31,-262.82 131,-235.5 101.02,-225.78 72.41,-201.06 58.07,-187.23"/>
<polygon fill="#63b8ff" stroke="#63b8ff" points="520.11,-160.66 521.1,-150.11 513.75,-157.74 520.11,-160.66"/>
</a>
</g>
</g>
<!-- Node6 -->
<g id="Node000006" class="node">
<title>Node6</title>
<g id="a_Node000006"><a xlink:href="class_bit_vector.html#a915743b3f94c75c22317d160bfa741ff" target="_top" xlink:title="Insert a number_of_elements inside the vector at the index pos .">
<polygon fill="white" stroke="#666666" points="95,-150 0,-150 0,-131 95,-131 95,-150"/>
<text text-anchor="middle" x="47.5" y="-138" font-family="Helvetica,sans-Serif" font-size="10.00">BitVector::insert</text>
</a>
</g>
</g>
<!-- Node1&#45;&gt;Node6 -->
<g id="edge9_Node000001_Node000006" class="edge">
<title>Node1&#45;&gt;Node6</title>
<g id="a_edge9_Node000001_Node000006"><a xlink:title=" ">
<path fill="none" stroke="#63b8ff" d="M474.52,-140.5C381.62,-140.5 184.88,-140.5 95.03,-140.5"/>
<polygon fill="#63b8ff" stroke="#63b8ff" points="474.78,-144 484.78,-140.5 474.78,-137 474.78,-144"/>
</a>
</g>
</g>
<!-- Node7 -->
<g id="Node000007" class="node">
<title>Node7</title>
<g id="a_Node000007"><a xlink:href="class_bit_vector.html#a2af5c1a1a0050e2b52d06c38436280fd" target="_top" xlink:title="Add an element at the end of the vector.">
<polygon fill="white" stroke="#666666" points="448.5,-93 345.5,-93 345.5,-74 448.5,-74 448.5,-93"/>
<text text-anchor="middle" x="397" y="-81" font-family="Helvetica,sans-Serif" font-size="10.00">BitVector::append</text>
</a>
</g>
</g>
<!-- Node1&#45;&gt;Node7 -->
<g id="edge6_Node000001_Node000007" class="edge">
<title>Node1&#45;&gt;Node7</title>
<g id="a_edge6_Node000001_Node000007"><a xlink:title=" ">
<path fill="none" stroke="#63b8ff" d="M494.35,-126.74C471.14,-116.33 439.86,-102.29 419.33,-93.07"/>
<polygon fill="#63b8ff" stroke="#63b8ff" points="493.19,-130.06 503.74,-130.96 496.05,-123.67 493.19,-130.06"/>
</a>
</g>
</g>
<!-- Node8 -->
<g id="Node000008" class="node">
<title>Node8</title>
<g id="a_Node000008"><a xlink:href="class_bit_vector.html#a87f84edf5dd56606b26e8741ba6ced02" target="_top" xlink:title="Remove a number of element from the vector.">
<polygon fill="white" stroke="#666666" points="449,-56 345,-56 345,-37 449,-37 449,-56"/>
<text text-anchor="middle" x="397" y="-44" font-family="Helvetica,sans-Serif" font-size="10.00">BitVector::remove</text>
</a>
</g>
</g>
<!-- Node1&#45;&gt;Node8 -->
<g id="edge11_Node000001_Node000008" class="edge">
<title>Node1&#45;&gt;Node8</title>
<g id="a_edge11_Node000001_Node000008"><a xlink:title=" ">
<path fill="none" stroke="#63b8ff" d="M511.41,-122.93C497.41,-105.88 474.14,-80.34 449,-64.5 443.76,-61.2 437.83,-58.4 431.91,-56.07"/>
<polygon fill="#63b8ff" stroke="#63b8ff" points="508.86,-125.35 517.85,-130.97 514.33,-120.97 508.86,-125.35"/>
</a>
</g>
</g>
<!-- Node9 -->
<g id="Node000009" class="node">
<title>Node9</title>
<g id="a_Node000009"><a xlink:href="class_bit_vector.html#a38e8be69974c874857dd7cb6a52429ac" target="_top" xlink:title="Replace an element by another element. Can add an element to the list if index = BitVector::_element_...">
<polygon fill="white" stroke="#666666" points="438,-19 356,-19 356,0 438,0 438,-19"/>
<text text-anchor="middle" x="397" y="-7" font-family="Helvetica,sans-Serif" font-size="10.00">BitVector::set</text>
</a>
</g>
</g>
<!-- Node1&#45;&gt;Node9 -->
<g id="edge12_Node000001_Node000009" class="edge">
<title>Node1&#45;&gt;Node9</title>
<g id="a_edge12_Node000001_Node000009"><a xlink:title=" ">
<path fill="none" stroke="#63b8ff" d="M516.97,-121.66C505.42,-96.73 481.86,-52.95 449,-27.5 444.62,-24.11 439.55,-21.32 434.34,-19.05"/>
<polygon fill="#63b8ff" stroke="#63b8ff" points="513.77,-123.1 521.05,-130.8 520.17,-120.24 513.77,-123.1"/>
</a>
</g>
</g>
<!-- Node2&#45;&gt;Node3 -->
<g id="edge2_Node000002_Node000003" class="edge">
<title>Node2&#45;&gt;Node3</title>
<g id="a_edge2_Node000002_Node000003"><a xlink:title=" ">
<path fill="none" stroke="#63b8ff" d="M335.18,-204.1C315.87,-206.2 294.64,-208.5 275.79,-210.55"/>
<polygon fill="#63b8ff" stroke="#63b8ff" points="335.82,-207.55 345.38,-203 335.06,-200.6 335.82,-207.55"/>
</a>
</g>
</g>
<!-- Node2&#45;&gt;Node4 -->
<g id="edge3_Node000002_Node000004" class="edge">
<title>Node2&#45;&gt;Node4</title>
<g id="a_edge3_Node000002_Node000004"><a xlink:title=" ">
<path fill="none" stroke="#63b8ff" d="M341.88,-185.75C317.13,-180.37 288.2,-174.09 264.84,-169.02"/>
<polygon fill="#63b8ff" stroke="#63b8ff" points="341.33,-189.21 351.84,-187.91 342.81,-182.37 341.33,-189.21"/>
</a>
</g>
</g>
<!-- Node4&#45;&gt;Node5 -->
<g id="edge4_Node000004_Node000005" class="edge">
<title>Node4&#45;&gt;Node5</title>
<g id="a_edge4_Node000004_Node000005"><a xlink:title=" ">
<path fill="none" stroke="#63b8ff" d="M120.79,-169.87C112.02,-170.79 103.44,-171.7 95.43,-172.55"/>
<polygon fill="#63b8ff" stroke="#63b8ff" points="121.18,-173.35 130.75,-168.82 120.44,-166.39 121.18,-173.35"/>
</a>
</g>
</g>
<!-- Node4&#45;&gt;Node6 -->
<g id="edge5_Node000004_Node000006" class="edge">
<title>Node4&#45;&gt;Node6</title>
<g id="a_edge5_Node000004_Node000006"><a xlink:title=" ">
<path fill="none" stroke="#63b8ff" d="M123.14,-148.82C113.48,-147.74 104.01,-146.69 95.23,-145.71"/>
<polygon fill="#63b8ff" stroke="#63b8ff" points="122.92,-152.32 133.25,-149.94 123.7,-145.36 122.92,-152.32"/>
</a>
</g>
</g>
</g>
</svg>
