<?xml version="1.0" encoding="UTF-8" standalone="no"?>
<!DOCTYPE svg PUBLIC "-//W3C//DTD SVG 1.1//EN"
 "http://www.w3.org/Graphics/SVG/1.1/DTD/svg11.dtd">
<!-- Generated by graphviz version 2.43.0 (0)
 -->
<!-- Title: BitVector::maxElementSizeIsReached Pages: 1 -->
<svg width="1021pt" height="158pt"
 viewBox="0.00 0.00 1021.00 158.00" xmlns="http://www.w3.org/2000/svg" xmlns:xlink="http://www.w3.org/1999/xlink">
<g id="graph0" class="graph" transform="scale(1 1) rotate(0) translate(4 154)">
<title>BitVector::maxElementSizeIsReached</title>
<!-- Node1 -->
<g id="Node000001" class="node">
<title>Node1</title>
<g id="a_Node000001"><a xlink:title="Do maximum BitVector::_element_number is reached (With no possibility to push it further)">
<polygon fill="#999999" stroke="#666666" points="149,-64.5 0,-64.5 0,-34.5 149,-34.5 149,-64.5"/>
<text text-anchor="start" x="8" y="-52.5" font-family="Helvetica,sans-Serif" font-size="10.00">BitVector::maxElementSize</text>
<text text-anchor="middle" x="74.5" y="-41.5" font-family="Helvetica,sans-Serif" font-size="10.00">IsReached</text>
</a>
</g>
</g>
<!-- Node2 -->
<g id="Node000002" class="node">
<title>Node2</title>
<g id="a_Node000002"><a xlink:href="class_bit_vector.html#ad36e7d0b4b1417ca434414fa40c72eb8" target="_top" xlink:title="How many element can be contained in this object knowing BitVector::_element_size.">
<polygon fill="white" stroke="#666666" points="339,-59 185,-59 185,-40 339,-40 339,-59"/>
<text text-anchor="middle" x="262" y="-47" font-family="Helvetica,sans-Serif" font-size="10.00">BitVector::maxElementLimit</text>
</a>
</g>
</g>
<!-- Node1&#45;&gt;Node2 -->
<g id="edge1_Node000001_Node000002" class="edge">
<title>Node1&#45;&gt;Node2</title>
<g id="a_edge1_Node000001_Node000002"><a xlink:title=" ">
<path fill="none" stroke="#63b8ff" d="M149.08,-49.5C157.51,-49.5 166.17,-49.5 174.75,-49.5"/>
<polygon fill="#63b8ff" stroke="#63b8ff" points="174.77,-53 184.77,-49.5 174.77,-46 174.77,-53"/>
</a>
</g>
</g>
<!-- Node3 -->
<g id="Node000003" class="node">
<title>Node3</title>
<g id="a_Node000003"><a xlink:href="class_bit_vector.html#af68cda7444ec4459393bbfa423f0a7dd" target="_top" xlink:title="Get the Size_t value if a BitVector::CoordUnit.">
<polygon fill="white" stroke="#666666" points="517.5,-112.5 414.5,-112.5 414.5,-82.5 517.5,-82.5 517.5,-112.5"/>
<text text-anchor="start" x="422.5" y="-100.5" font-family="Helvetica,sans-Serif" font-size="10.00">BitVector::getSize</text>
<text text-anchor="middle" x="466" y="-89.5" font-family="Helvetica,sans-Serif" font-size="10.00">_tUnit</text>
</a>
</g>
</g>
<!-- Node2&#45;&gt;Node3 -->
<g id="edge2_Node000002_Node000003" class="edge">
<title>Node2&#45;&gt;Node3</title>
<g id="a_edge2_Node000002_Node000003"><a xlink:title=" ">
<path fill="none" stroke="#63b8ff" d="M303.39,-59.1C332.29,-65.97 371.7,-75.33 404.37,-83.09"/>
<polygon fill="#63b8ff" stroke="#63b8ff" points="403.73,-86.54 414.27,-85.45 405.35,-79.73 403.73,-86.54"/>
</a>
</g>
</g>
<!-- Node8 -->
<g id="Node000008" class="node">
<title>Node8</title>
<g id="a_Node000008"><a xlink:href="class_bit_vector.html#a68b14af0886039ddcf55c82a250deb4c" target="_top" xlink:title="How many element can be contained in this kind of object.">
<polygon fill="white" stroke="#666666" points="751,-64.5 593,-64.5 593,-34.5 751,-34.5 751,-64.5"/>
<text text-anchor="start" x="601" y="-52.5" font-family="Helvetica,sans-Serif" font-size="10.00">BitVector::maximumElement</text>
<text text-anchor="middle" x="672" y="-41.5" font-family="Helvetica,sans-Serif" font-size="10.00">Number</text>
</a>
</g>
</g>
<!-- Node2&#45;&gt;Node8 -->
<g id="edge8_Node000002_Node000008" class="edge">
<title>Node2&#45;&gt;Node8</title>
<g id="a_edge8_Node000002_Node000008"><a xlink:title=" ">
<path fill="none" stroke="#63b8ff" d="M339.26,-49.5C408.32,-49.5 510.06,-49.5 582.64,-49.5"/>
<polygon fill="#63b8ff" stroke="#63b8ff" points="582.68,-53 592.68,-49.5 582.68,-46 582.68,-53"/>
</a>
</g>
</g>
<!-- Node9 -->
<g id="Node000009" class="node">
<title>Node9</title>
<g id="a_Node000009"><a xlink:href="class_bit_vector.html#aa3228d2bacb1bb0f6072d73d43a49456" target="_top" xlink:title="How many octet can be contained in this kind of object.">
<polygon fill="white" stroke="#666666" points="557,-19 375,-19 375,0 557,0 557,-19"/>
<text text-anchor="middle" x="466" y="-7" font-family="Helvetica,sans-Serif" font-size="10.00">BitVector::maximumOctetNumber</text>
</a>
</g>
</g>
<!-- Node2&#45;&gt;Node9 -->
<g id="edge10_Node000002_Node000009" class="edge">
<title>Node2&#45;&gt;Node9</title>
<g id="a_edge10_Node000002_Node000009"><a xlink:title=" ">
<path fill="none" stroke="#63b8ff" d="M311.13,-39.97C339.85,-34.28 376.53,-27.02 406.87,-21.01"/>
<polygon fill="#63b8ff" stroke="#63b8ff" points="407.76,-24.4 416.89,-19.03 406.4,-17.54 407.76,-24.4"/>
</a>
</g>
</g>
<!-- Node4 -->
<g id="Node000004" class="node">
<title>Node4</title>
<g id="a_Node000004"><a xlink:href="class_bit_vector.html#a115789c8a9812eabb52f8843cd4e9965" target="_top" xlink:title="Give the a coord object that represent the size of 1 element inside BitVector::_data.">
<polygon fill="white" stroke="#666666" points="737.5,-150 606.5,-150 606.5,-131 737.5,-131 737.5,-150"/>
<text text-anchor="middle" x="672" y="-138" font-family="Helvetica,sans-Serif" font-size="10.00">BitVector::getCoordUnit</text>
</a>
</g>
</g>
<!-- Node3&#45;&gt;Node4 -->
<g id="edge3_Node000003_Node000004" class="edge">
<title>Node3&#45;&gt;Node4</title>
<g id="a_edge3_Node000003_Node000004"><a xlink:title=" ">
<path fill="none" stroke="#63b8ff" d="M517.69,-108.18C547.48,-114.46 585.17,-122.41 615.72,-128.85"/>
<polygon fill="#63b8ff" stroke="#63b8ff" points="615.28,-132.33 625.79,-130.97 616.72,-125.48 615.28,-132.33"/>
</a>
</g>
</g>
<!-- Node7 -->
<g id="Node000007" class="node">
<title>Node7</title>
<g id="a_Node000007"><a xlink:href="class_bit_vector_1_1_coords.html#a3a4fac9de925974af9c8a66a1d0179e6" target="_top" xlink:title="Translate octet and bit value inside a size_t. Allow easier mathematic computations.">
<polygon fill="white" stroke="#666666" points="725.5,-112.5 618.5,-112.5 618.5,-82.5 725.5,-82.5 725.5,-112.5"/>
<text text-anchor="start" x="626.5" y="-100.5" font-family="Helvetica,sans-Serif" font-size="10.00">BitVector::Coords::</text>
<text text-anchor="middle" x="672" y="-89.5" font-family="Helvetica,sans-Serif" font-size="10.00">toSize_t</text>
</a>
</g>
</g>
<!-- Node3&#45;&gt;Node7 -->
<g id="edge7_Node000003_Node000007" class="edge">
<title>Node3&#45;&gt;Node7</title>
<g id="a_edge7_Node000003_Node000007"><a xlink:title=" ">
<path fill="none" stroke="#63b8ff" d="M517.69,-97.5C545.13,-97.5 579.28,-97.5 608.38,-97.5"/>
<polygon fill="#63b8ff" stroke="#63b8ff" points="608.44,-101 618.44,-97.5 608.44,-94 608.44,-101"/>
</a>
</g>
</g>
<!-- Node5 -->
<g id="Node000005" class="node">
<title>Node5</title>
<g id="a_Node000005"><a xlink:href="class_bit_vector.html#aebe159444eb9d619959b7325ac5dac2d" target="_top" xlink:title="Return the value of the bit at the position coord.">
<polygon fill="white" stroke="#666666" points="870,-59 787,-59 787,-40 870,-40 870,-59"/>
<text text-anchor="middle" x="828.5" y="-47" font-family="Helvetica,sans-Serif" font-size="10.00">BitVector::get</text>
</a>
</g>
</g>
<!-- Node4&#45;&gt;Node5 -->
<g id="edge4_Node000004_Node000005" class="edge">
<title>Node4&#45;&gt;Node5</title>
<g id="a_edge4_Node000004_Node000005"><a xlink:title=" ">
<path fill="none" stroke="#63b8ff" d="M728.05,-130.9C736,-128.44 743.89,-125.35 751,-121.5 776.39,-107.73 799.65,-83.43 813.69,-66.91"/>
<polygon fill="#63b8ff" stroke="#63b8ff" points="816.49,-69.02 820.16,-59.08 811.09,-64.56 816.49,-69.02"/>
</a>
</g>
</g>
<!-- Node5&#45;&gt;Node5 -->
<g id="edge5_Node000005_Node000005" class="edge">
<title>Node5&#45;&gt;Node5</title>
<g id="a_edge5_Node000005_Node000005"><a xlink:title=" ">
<path fill="none" stroke="#63b8ff" d="M808.46,-59.08C798.72,-67.73 805.39,-77 828.5,-77 843.3,-77 851.36,-73.2 852.68,-68.19"/>
<polygon fill="#63b8ff" stroke="#63b8ff" points="855.86,-66.73 848.54,-59.08 849.49,-69.63 855.86,-66.73"/>
</a>
</g>
</g>
<!-- Node6 -->
<g id="Node000006" class="node">
<title>Node6</title>
<g id="a_Node000006"><a xlink:href="class_bit_vector_1_1_coords.html#a2892f7f46c4af93f9733e312229d8ec1" target="_top" xlink:title="Get Coords::octet .">
<polygon fill="white" stroke="#666666" points="1013,-64.5 906,-64.5 906,-34.5 1013,-34.5 1013,-64.5"/>
<text text-anchor="start" x="914" y="-52.5" font-family="Helvetica,sans-Serif" font-size="10.00">BitVector::Coords::</text>
<text text-anchor="middle" x="959.5" y="-41.5" font-family="Helvetica,sans-Serif" font-size="10.00">getOctet</text>
</a>
</g>
</g>
<!-- Node5&#45;&gt;Node6 -->
<g id="edge6_Node000005_Node000006" class="edge">
<title>Node5&#45;&gt;Node6</title>
<g id="a_edge6_Node000005_Node000006"><a xlink:title=" ">
<path fill="none" stroke="#63b8ff" d="M870.32,-49.5C878.38,-49.5 887.02,-49.5 895.62,-49.5"/>
<polygon fill="#63b8ff" stroke="#63b8ff" points="895.66,-53 905.66,-49.5 895.66,-46 895.66,-53"/>
</a>
</g>
</g>
<!-- Node8&#45;&gt;Node5 -->
<g id="edge9_Node000008_Node000005" class="edge">
<title>Node8&#45;&gt;Node5</title>
<g id="a_edge9_Node000008_Node000005"><a xlink:title=" ">
<path fill="none" stroke="#63b8ff" d="M751.16,-49.5C759.79,-49.5 768.4,-49.5 776.57,-49.5"/>
<polygon fill="#63b8ff" stroke="#63b8ff" points="776.65,-53 786.65,-49.5 776.65,-46 776.65,-53"/>
</a>
</g>
</g>
<!-- Node9&#45;&gt;Node5 -->
<g id="edge11_Node000009_Node000005" class="edge">
<title>Node9&#45;&gt;Node5</title>
<g id="a_edge11_Node000009_Node000005"><a xlink:title=" ">
<path fill="none" stroke="#63b8ff" d="M557.21,-8.9C613.37,-9.93 686.87,-13.82 751,-25.5 764.97,-28.04 779.95,-32.37 792.92,-36.66"/>
<polygon fill="#63b8ff" stroke="#63b8ff" points="791.8,-39.97 802.4,-39.89 794.07,-33.35 791.8,-39.97"/>
</a>
</g>
</g>
</g>
</svg>
