<?xml version="1.0" encoding="UTF-8" standalone="no"?>
<!DOCTYPE svg PUBLIC "-//W3C//DTD SVG 1.1//EN"
 "http://www.w3.org/Graphics/SVG/1.1/DTD/svg11.dtd">
<!-- Generated by graphviz version 2.43.0 (0)
 -->
<!-- Title: FastaHeader Pages: 1 -->
<!--zoomable 509 -->

<svg id="main" version="1.1" xmlns="http://www.w3.org/2000/svg" xmlns:xlink="http://www.w3.org/1999/xlink" xml:space="preserve" onload="init(evt)">
<style type="text/css"><![CDATA[
.node, .edge {opacity: 0.7;}
.node.selected, .edge.selected {opacity: 1;}
.edge:hover path { stroke: red; }
.edge:hover polygon { stroke: red; fill: red; }
]]></style>

<defs>
  <circle id="rim" cx="0" cy="0" r="7"/>
  <circle id="rim2" cx="0" cy="0" r="3.5"/>
  <g id="zoomPlus">
    <use xlink:href="#rim" fill="#404040"><set attributeName="fill" to="#808080" begin="zoomplus.mouseover" end="zoomplus.mouseout"/></use>
    <path d="M-4,0h8M0,-4v8" fill="none" stroke="white" stroke-width="1.5" pointer-events="none"/>
  </g>
  <g id="zoomMin">
    <use xlink:href="#rim" fill="#404040"><set attributeName="fill" to="#808080" begin="zoomminus.mouseover" end="zoomminus.mouseout"/></use>
    <path d="M-4,0h8" fill="none" stroke="white" stroke-width="1.5" pointer-events="none"/>
  </g>
  <g id="arrowUp" transform="translate(30 24)">
    <use xlink:href="#rim"/>
    <path pointer-events="none" fill="none" stroke="white" stroke-width="1.5" d="M0,-3.0v7 M-2.5,-0.5L0,-3.0L2.5,-0.5"/>
  </g>
  <g id="arrowRight" transform="rotate(90) translate(36 -43)">
    <use xlink:href="#rim"/>
    <path pointer-events="none" fill="none" stroke="white" stroke-width="1.5" d="M0,-3.0v7 M-2.5,-0.5L0,-3.0L2.5,-0.5"/>
  </g>
  <g id="arrowDown" transform="rotate(180) translate(-30 -48)">
    <use xlink:href="#rim"/>
    <path pointer-events="none" fill="none" stroke="white" stroke-width="1.5" d="M0,-3.0v7 M-2.5,-0.5L0,-3.0L2.5,-0.5"/>
  </g>
  <g id="arrowLeft" transform="rotate(270) translate(-36 17)">
    <use xlink:href="#rim"/>
    <path pointer-events="none" fill="none" stroke="white" stroke-width="1.5" d="M0,-3.0v7 M-2.5,-0.5L0,-3.0L2.5,-0.5"/>
  </g>
  <g id="resetDef">
    <use xlink:href="#rim2" fill="#404040"><set attributeName="fill" to="#808080" begin="reset.mouseover" end="reset.mouseout"/></use>
  </g>
</defs>
<script type="application/ecmascript">
var viewWidth = 250;
var viewHeight = 509;
var sectionId = 'dynsection-1';
</script>
<script type="application/ecmascript" xlink:href="svg.min.js"/>
<svg id="graph" class="graph">
<g id="viewport">
<title>FastaHeader</title>
<!-- Node1 -->
<g id="Node000001" class="node">
<title>Node1</title>
<g id="a_Node000001"><a xlink:title="A header function that is supposed to be hubble to parse Header from Fasta file.">
<polygon fill="#999999" stroke="transparent" points="223.5,-311 36.5,-311 36.5,0 223.5,0 223.5,-311"/>
<text text-anchor="start" x="100" y="-298.5" font-family="Helvetica,sans-Serif" font-size="10.00">FastaHeader</text>
<text text-anchor="start" x="43.5" y="-283.5" font-family="Helvetica,sans-Serif" font-size="10.00">&#45;</text>
<text text-anchor="start" x="54" y="-283.5" font-family="Helvetica,sans-Serif" font-size="10.00">identifier_format</text>
<text text-anchor="start" x="43.5" y="-268.5" font-family="Helvetica,sans-Serif" font-size="10.00">&#45;</text>
<text text-anchor="start" x="54" y="-268.5" font-family="Helvetica,sans-Serif" font-size="10.00">identifier</text>
<text text-anchor="start" x="41" y="-253.5" font-family="Helvetica,sans-Serif" font-size="10.00">+</text>
<text text-anchor="start" x="54" y="-253.5" font-family="Helvetica,sans-Serif" font-size="10.00">FastaHeader()</text>
<text text-anchor="start" x="41" y="-238.5" font-family="Helvetica,sans-Serif" font-size="10.00">+</text>
<text text-anchor="start" x="54" y="-238.5" font-family="Helvetica,sans-Serif" font-size="10.00">FastaHeader()</text>
<text text-anchor="start" x="41" y="-223.5" font-family="Helvetica,sans-Serif" font-size="10.00">+</text>
<text text-anchor="start" x="54" y="-223.5" font-family="Helvetica,sans-Serif" font-size="10.00">load()</text>
<text text-anchor="start" x="41" y="-208.5" font-family="Helvetica,sans-Serif" font-size="10.00">+</text>
<text text-anchor="start" x="54" y="-208.5" font-family="Helvetica,sans-Serif" font-size="10.00">getIdentifiers()</text>
<text text-anchor="start" x="41" y="-193.5" font-family="Helvetica,sans-Serif" font-size="10.00">+</text>
<text text-anchor="start" x="54" y="-193.5" font-family="Helvetica,sans-Serif" font-size="10.00">getFormat()</text>
<text text-anchor="start" x="41" y="-178.5" font-family="Helvetica,sans-Serif" font-size="10.00">+</text>
<text text-anchor="start" x="54" y="-178.5" font-family="Helvetica,sans-Serif" font-size="10.00">findFirstWord()</text>
<text text-anchor="start" x="41" y="-163.5" font-family="Helvetica,sans-Serif" font-size="10.00">+</text>
<text text-anchor="start" x="54" y="-163.5" font-family="Helvetica,sans-Serif" font-size="10.00">clearRawHeader()</text>
<text text-anchor="start" x="41" y="-148.5" font-family="Helvetica,sans-Serif" font-size="10.00">+</text>
<text text-anchor="start" x="54" y="-148.5" font-family="Helvetica,sans-Serif" font-size="10.00">cutRawHeader()</text>
<text text-anchor="start" x="41" y="-133.5" font-family="Helvetica,sans-Serif" font-size="10.00">+</text>
<text text-anchor="start" x="54" y="-133.5" font-family="Helvetica,sans-Serif" font-size="10.00">parseRawHeader()</text>
<text text-anchor="start" x="41" y="-118.5" font-family="Helvetica,sans-Serif" font-size="10.00">+</text>
<text text-anchor="start" x="54" y="-118.5" font-family="Helvetica,sans-Serif" font-size="10.00">parseRawHeader()</text>
<text text-anchor="start" x="41" y="-103.5" font-family="Helvetica,sans-Serif" font-size="10.00">+</text>
<text text-anchor="start" x="54" y="-103.5" font-family="Helvetica,sans-Serif" font-size="10.00">intermediateMakeFormatFrom</text>
<text text-anchor="start" x="54" y="-92.5" font-family="Helvetica,sans-Serif" font-size="10.00">Vector()</text>
<text text-anchor="start" x="41" y="-77.5" font-family="Helvetica,sans-Serif" font-size="10.00">+</text>
<text text-anchor="start" x="54" y="-77.5" font-family="Helvetica,sans-Serif" font-size="10.00">makeGenInfoBackboneIdHeader()</text>
<text text-anchor="start" x="41" y="-62.5" font-family="Helvetica,sans-Serif" font-size="10.00">+</text>
<text text-anchor="start" x="54" y="-62.5" font-family="Helvetica,sans-Serif" font-size="10.00">parseGenInfoBackboneIdHeader()</text>
<text text-anchor="start" x="41" y="-47.5" font-family="Helvetica,sans-Serif" font-size="10.00">+</text>
<text text-anchor="start" x="54" y="-47.5" font-family="Helvetica,sans-Serif" font-size="10.00">parseGenInfoBackboneIdHeader()</text>
<text text-anchor="start" x="41" y="-32.5" font-family="Helvetica,sans-Serif" font-size="10.00">+</text>
<text text-anchor="start" x="54" y="-32.5" font-family="Helvetica,sans-Serif" font-size="10.00">makeGenInfoBackboneMoltype</text>
<text text-anchor="start" x="54" y="-21.5" font-family="Helvetica,sans-Serif" font-size="10.00">Header()</text>
<text text-anchor="start" x="54" y="-6.5" font-family="Helvetica,sans-Serif" font-size="10.00">and 59 more...</text>
<polygon fill="#666666" stroke="#666666" points="37,-293.5 37,-293.5 224,-293.5 224,-293.5 37,-293.5"/>
<polygon fill="#666666" stroke="#666666" points="37,-263.5 37,-263.5 52,-263.5 52,-263.5 37,-263.5"/>
<polygon fill="#666666" stroke="#666666" points="52,-263.5 52,-263.5 224,-263.5 224,-263.5 52,-263.5"/>
<polygon fill="none" stroke="#666666" points="36.5,0 36.5,-311 223.5,-311 223.5,0 36.5,0"/>
</a>
</g>
</g>
<!-- Node2 -->
<g id="Node000002" class="node">
<title>Node2</title>
<g id="a_Node000002"><a xlink:href="class_fasta_related.html" target="_top" xlink:title="Class inherited by all class related to FastaFiles.">
<polygon fill="white" stroke="transparent" points="130,-501 0,-501 0,-347 130,-347 130,-501"/>
<text text-anchor="start" x="33" y="-489" font-family="Helvetica,sans-Serif" font-size="10.00">FastaRelated</text>
<text text-anchor="start" x="6.5" y="-474" font-family="Helvetica,sans-Serif" font-size="10.00">&#45;</text>
<text text-anchor="start" x="17" y="-474" font-family="Helvetica,sans-Serif" font-size="10.00">legalMultiHeaderChar</text>
<text text-anchor="start" x="6.5" y="-459" font-family="Helvetica,sans-Serif" font-size="10.00">&#45;</text>
<text text-anchor="start" x="17" y="-459" font-family="Helvetica,sans-Serif" font-size="10.00">legalMonoHeaderChar</text>
<text text-anchor="start" x="6.5" y="-444" font-family="Helvetica,sans-Serif" font-size="10.00">&#45;</text>
<text text-anchor="start" x="17" y="-444" font-family="Helvetica,sans-Serif" font-size="10.00">legalCommentChar</text>
<text text-anchor="start" x="6.5" y="-429" font-family="Helvetica,sans-Serif" font-size="10.00">&#45;</text>
<text text-anchor="start" x="17" y="-429" font-family="Helvetica,sans-Serif" font-size="10.00">blankChar</text>
<text text-anchor="start" x="4" y="-414" font-family="Helvetica,sans-Serif" font-size="10.00">+</text>
<text text-anchor="start" x="17" y="-414" font-family="Helvetica,sans-Serif" font-size="10.00">isHeaderChar()</text>
<text text-anchor="start" x="4" y="-399" font-family="Helvetica,sans-Serif" font-size="10.00">+</text>
<text text-anchor="start" x="17" y="-399" font-family="Helvetica,sans-Serif" font-size="10.00">isMonoHeaderChar()</text>
<text text-anchor="start" x="4" y="-384" font-family="Helvetica,sans-Serif" font-size="10.00">+</text>
<text text-anchor="start" x="17" y="-384" font-family="Helvetica,sans-Serif" font-size="10.00">isMultiHeaderChar()</text>
<text text-anchor="start" x="4" y="-369" font-family="Helvetica,sans-Serif" font-size="10.00">+</text>
<text text-anchor="start" x="17" y="-369" font-family="Helvetica,sans-Serif" font-size="10.00">isCommentChar()</text>
<text text-anchor="start" x="4" y="-354" font-family="Helvetica,sans-Serif" font-size="10.00">+</text>
<text text-anchor="start" x="17" y="-354" font-family="Helvetica,sans-Serif" font-size="10.00">isBlankChar()</text>
<polygon fill="#666666" stroke="#666666" points="0,-484 0,-484 130,-484 130,-484 0,-484"/>
<polygon fill="#666666" stroke="#666666" points="0,-424 0,-424 15,-424 15,-424 0,-424"/>
<polygon fill="#666666" stroke="#666666" points="15,-424 15,-424 130,-424 130,-424 15,-424"/>
<polygon fill="none" stroke="#666666" points="0,-347 0,-501 130,-501 130,-347 0,-347"/>
</a>
</g>
</g>
<!-- Node2&#45;&gt;Node1 -->
<g id="edge1_Node000001_Node000002" class="edge">
<title>Node2&#45;&gt;Node1</title>
<g id="a_edge1_Node000001_Node000002"><a xlink:title=" ">
<path fill="none" stroke="#63b8ff" d="M85.92,-337.23C87.98,-328.79 90.11,-320.06 92.27,-311.21"/>
<polygon fill="none" stroke="#63b8ff" points="82.51,-336.44 83.54,-346.99 89.31,-338.1 82.51,-336.44"/>
</a>
</g>
</g>
<!-- Node3 -->
<g id="Node000003" class="node">
<title>Node3</title>
<g id="a_Node000003"><a xlink:href="class_header.html" target="_top" xlink:title="Represent the header of a Fasta / FastQ file.">
<polygon fill="white" stroke="transparent" points="242,-478.5 148,-478.5 148,-369.5 242,-369.5 242,-478.5"/>
<text text-anchor="start" x="177" y="-466" font-family="Helvetica,sans-Serif" font-size="10.00">Header</text>
<text text-anchor="start" x="154.5" y="-451" font-family="Helvetica,sans-Serif" font-size="10.00">&#45;</text>
<text text-anchor="start" x="165" y="-451" font-family="Helvetica,sans-Serif" font-size="10.00">_comment</text>
<text text-anchor="start" x="154.5" y="-436" font-family="Helvetica,sans-Serif" font-size="10.00">&#45;</text>
<text text-anchor="start" x="165" y="-436" font-family="Helvetica,sans-Serif" font-size="10.00">_accession</text>
<text text-anchor="start" x="152" y="-421" font-family="Helvetica,sans-Serif" font-size="10.00">+</text>
<text text-anchor="start" x="165" y="-421" font-family="Helvetica,sans-Serif" font-size="10.00">getComment()</text>
<text text-anchor="start" x="152" y="-406" font-family="Helvetica,sans-Serif" font-size="10.00">+</text>
<text text-anchor="start" x="165" y="-406" font-family="Helvetica,sans-Serif" font-size="10.00">setComment()</text>
<text text-anchor="start" x="152" y="-391" font-family="Helvetica,sans-Serif" font-size="10.00">+</text>
<text text-anchor="start" x="165" y="-391" font-family="Helvetica,sans-Serif" font-size="10.00">getAccession()</text>
<text text-anchor="start" x="152" y="-376" font-family="Helvetica,sans-Serif" font-size="10.00">+</text>
<text text-anchor="start" x="165" y="-376" font-family="Helvetica,sans-Serif" font-size="10.00">setAccession()</text>
<polygon fill="#666666" stroke="#666666" points="148,-461 148,-461 242,-461 242,-461 148,-461"/>
<polygon fill="#666666" stroke="#666666" points="148,-431 148,-431 163,-431 163,-431 148,-431"/>
<polygon fill="#666666" stroke="#666666" points="163,-431 163,-431 242,-431 242,-431 163,-431"/>
<polygon fill="none" stroke="#666666" points="148,-369.5 148,-478.5 242,-478.5 242,-369.5 148,-369.5"/>
</a>
</g>
</g>
<!-- Node3&#45;&gt;Node1 -->
<g id="edge2_Node000001_Node000003" class="edge">
<title>Node3&#45;&gt;Node1</title>
<g id="a_edge2_Node000001_Node000003"><a xlink:title=" ">
<path fill="none" stroke="#63b8ff" d="M179.48,-359.36C175.85,-344.48 171.82,-327.98 167.69,-311.02"/>
<polygon fill="none" stroke="#63b8ff" points="176.15,-360.5 181.92,-369.39 182.96,-358.85 176.15,-360.5"/>
</a>
</g>
</g>
</g>
</svg>

<g id="navigator" transform="translate(0 0)" fill="#404254">
  <rect fill="#f2f5e9" fill-opacity="0.5" stroke="#606060" stroke-width=".5" x="0" y="0" width="60" height="60"/>
  <use id="zoomplus" xlink:href="#zoomPlus" x="17" y="9" onmousedown="handleZoom(evt,'in')"/>
  <use id="zoomminus" xlink:href="#zoomMin" x="42" y="9" onmousedown="handleZoom(evt,'out')"/>
  <use id="reset" xlink:href="#resetDef" x="30" y="36" onmousedown="handleReset()"/>
   <use id="arrowup" xlink:href="#arrowUp" x="0" y="0" onmousedown="handlePan(0,-1)"/>
  <use id="arrowright" xlink:href="#arrowRight" x="0" y="0" onmousedown="handlePan(1,0)"/>
  <use id="arrowdown" xlink:href="#arrowDown" x="0" y="0" onmousedown="handlePan(0,1)"/>
  <use id="arrowleft" xlink:href="#arrowLeft" x="0" y="0" onmousedown="handlePan(-1,0)"/>
</g>
<svg viewBox="0 0 15 15" width="100%" height="30px" preserveAspectRatio="xMaxYMin meet">
 <g id="arrow_out" transform="scale(0.3 0.3)">
  <a xlink:href="class_fasta_header__coll__graph_org.svg" target="_base">
   <rect id="button" ry="5" rx="5" y="6" x="6" height="38" width="38"
        fill="#f2f5e9" fill-opacity="0.5" stroke="#606060" stroke-width="1.0"/>
   <path id="arrow"
     d="M 11.500037,31.436501 C 11.940474,20.09759 22.043105,11.32322 32.158766,21.979434 L 37.068811,17.246167 C 37.068811,17.246167 37.088388,32 37.088388,32 L 22.160133,31.978069 C 22.160133,31.978069 26.997745,27.140456 26.997745,27.140456 C 18.528582,18.264221 13.291696,25.230495 11.500037,31.436501 z"
     style="fill:#404040;"/>
  </a>
 </g>
</svg>

<style type='text/css'>
<![CDATA[
[data-mouse-over-selected='false'] { opacity: 0.7; }
[data-mouse-over-selected='true']  { opacity: 1.0; }
]]>
</style>
<script type="application/ecmascript"><![CDATA[
document.addEventListener('DOMContentLoaded', (event) => {
  highlightEdges();
  highlightAdjacentNodes();
});
]]></script>
</svg>
