<?xml version="1.0" encoding="UTF-8" standalone="no"?>
<!DOCTYPE svg PUBLIC "-//W3C//DTD SVG 1.1//EN"
 "http://www.w3.org/Graphics/SVG/1.1/DTD/svg11.dtd">
<!-- Generated by graphviz version 2.43.0 (0)
 -->
<!-- Title: BitVector::maxDataSizeIsReached Pages: 1 -->
<!--zoomable 185 -->

<svg id="main" version="1.1" xmlns="http://www.w3.org/2000/svg" xmlns:xlink="http://www.w3.org/1999/xlink" xml:space="preserve" onload="init(evt)">
<style type="text/css"><![CDATA[
.node, .edge {opacity: 0.7;}
.node.selected, .edge.selected {opacity: 1;}
.edge:hover path { stroke: red; }
.edge:hover polygon { stroke: red; fill: red; }
]]></style>

<defs>
  <circle id="rim" cx="0" cy="0" r="7"/>
  <circle id="rim2" cx="0" cy="0" r="3.5"/>
  <g id="zoomPlus">
    <use xlink:href="#rim" fill="#404040"><set attributeName="fill" to="#808080" begin="zoomplus.mouseover" end="zoomplus.mouseout"/></use>
    <path d="M-4,0h8M0,-4v8" fill="none" stroke="white" stroke-width="1.5" pointer-events="none"/>
  </g>
  <g id="zoomMin">
    <use xlink:href="#rim" fill="#404040"><set attributeName="fill" to="#808080" begin="zoomminus.mouseover" end="zoomminus.mouseout"/></use>
    <path d="M-4,0h8" fill="none" stroke="white" stroke-width="1.5" pointer-events="none"/>
  </g>
  <g id="arrowUp" transform="translate(30 24)">
    <use xlink:href="#rim"/>
    <path pointer-events="none" fill="none" stroke="white" stroke-width="1.5" d="M0,-3.0v7 M-2.5,-0.5L0,-3.0L2.5,-0.5"/>
  </g>
  <g id="arrowRight" transform="rotate(90) translate(36 -43)">
    <use xlink:href="#rim"/>
    <path pointer-events="none" fill="none" stroke="white" stroke-width="1.5" d="M0,-3.0v7 M-2.5,-0.5L0,-3.0L2.5,-0.5"/>
  </g>
  <g id="arrowDown" transform="rotate(180) translate(-30 -48)">
    <use xlink:href="#rim"/>
    <path pointer-events="none" fill="none" stroke="white" stroke-width="1.5" d="M0,-3.0v7 M-2.5,-0.5L0,-3.0L2.5,-0.5"/>
  </g>
  <g id="arrowLeft" transform="rotate(270) translate(-36 17)">
    <use xlink:href="#rim"/>
    <path pointer-events="none" fill="none" stroke="white" stroke-width="1.5" d="M0,-3.0v7 M-2.5,-0.5L0,-3.0L2.5,-0.5"/>
  </g>
  <g id="resetDef">
    <use xlink:href="#rim2" fill="#404040"><set attributeName="fill" to="#808080" begin="reset.mouseover" end="reset.mouseout"/></use>
  </g>
</defs>
<script type="application/ecmascript">
var viewWidth = 1387;
var viewHeight = 185;
var sectionId = 'dynsection-40';
</script>
<script type="application/ecmascript" xlink:href="svg.min.js"/>
<svg id="graph" class="graph">
<g id="viewport">
<title>BitVector::maxDataSizeIsReached</title>
<!-- Node1 -->
<g id="Node000001" class="node">
<title>Node1</title>
<g id="a_Node000001"><a xlink:title="Do maximum BitVector::_data_size is reached (With no possibility to push it further)">
<polygon fill="#999999" stroke="#666666" points="140,-151.43 0,-151.43 0,-121.43 140,-121.43 140,-151.43"/>
<text text-anchor="start" x="8" y="-139.43" font-family="Helvetica,sans-Serif" font-size="10.00">BitVector::maxDataSizeIs</text>
<text text-anchor="middle" x="70" y="-128.43" font-family="Helvetica,sans-Serif" font-size="10.00">Reached</text>
</a>
</g>
</g>
<!-- Node2 -->
<g id="Node000002" class="node">
<title>Node2</title>
<g id="a_Node000002"><a xlink:href="class_bit_vector.html#acb362f03b29600195996f52c04940439" target="_top" xlink:title="How many octet can be contained in this object knowing BitVector::_element_size.">
<polygon fill="white" stroke="#666666" points="316,-145.93 176,-145.93 176,-126.93 316,-126.93 316,-145.93"/>
<text text-anchor="middle" x="246" y="-133.93" font-family="Helvetica,sans-Serif" font-size="10.00">BitVector::maxOctetLimit</text>
</a>
</g>
</g>
<!-- Node1&#45;&gt;Node2 -->
<g id="edge1_Node000001_Node000002" class="edge">
<title>Node1&#45;&gt;Node2</title>
<g id="a_edge1_Node000001_Node000002"><a xlink:title=" ">
<path fill="none" stroke="#63b8ff" d="M140.02,-136.43C148.48,-136.43 157.17,-136.43 165.76,-136.43"/>
<polygon fill="#63b8ff" stroke="#63b8ff" points="165.78,-139.93 175.78,-136.43 165.78,-132.93 165.78,-139.93"/>
</a>
</g>
</g>
<!-- Node3 -->
<g id="Node000003" class="node">
<title>Node3</title>
<g id="a_Node000003"><a xlink:href="class_bit_vector_1_1_coords.html#a2892f7f46c4af93f9733e312229d8ec1" target="_top" xlink:title="Get Coords::octet .">
<polygon fill="white" stroke="#666666" points="1379,-128.43 1272,-128.43 1272,-98.43 1379,-98.43 1379,-128.43"/>
<text text-anchor="start" x="1280" y="-116.43" font-family="Helvetica,sans-Serif" font-size="10.00">BitVector::Coords::</text>
<text text-anchor="middle" x="1325.5" y="-105.43" font-family="Helvetica,sans-Serif" font-size="10.00">getOctet</text>
</a>
</g>
</g>
<!-- Node2&#45;&gt;Node3 -->
<g id="edge2_Node000002_Node000003" class="edge">
<title>Node2&#45;&gt;Node3</title>
<g id="a_edge2_Node000002_Node000003"><a xlink:title=" ">
<path fill="none" stroke="#63b8ff" d="M300.92,-145.94C374.4,-158.05 510.22,-177.43 627,-177.43 627,-177.43 627,-177.43 1039,-177.43 1123.1,-177.43 1217.83,-150.66 1274.27,-131.75"/>
<polygon fill="#63b8ff" stroke="#63b8ff" points="1275.67,-134.97 1284.01,-128.44 1273.41,-128.34 1275.67,-134.97"/>
</a>
</g>
</g>
<!-- Node4 -->
<g id="Node000004" class="node">
<title>Node4</title>
<g id="a_Node000004"><a xlink:href="class_bit_vector.html#a214e556dd89acce2427a378c5520adbd" target="_top" xlink:title="Last acceptable coordinate knowing BitVector::_element_size.">
<polygon fill="white" stroke="#666666" points="515,-105.93 352,-105.93 352,-86.93 515,-86.93 515,-105.93"/>
<text text-anchor="middle" x="433.5" y="-93.93" font-family="Helvetica,sans-Serif" font-size="10.00">BitVector::MaximalCoordLimit</text>
</a>
</g>
</g>
<!-- Node2&#45;&gt;Node4 -->
<g id="edge3_Node000002_Node000004" class="edge">
<title>Node2&#45;&gt;Node4</title>
<g id="a_edge3_Node000002_Node000004"><a xlink:title=" ">
<path fill="none" stroke="#63b8ff" d="M291.43,-126.85C317.59,-121.21 350.86,-114.04 378.52,-108.07"/>
<polygon fill="#63b8ff" stroke="#63b8ff" points="379.39,-111.46 388.43,-105.93 377.92,-104.62 379.39,-111.46"/>
</a>
</g>
</g>
<!-- Node5 -->
<g id="Node000005" class="node">
<title>Node5</title>
<g id="a_Node000005"><a xlink:href="class_bit_vector.html#af68cda7444ec4459393bbfa423f0a7dd" target="_top" xlink:title="Get the Size_t value if a BitVector::CoordUnit.">
<polygon fill="white" stroke="#666666" points="883.5,-111.43 780.5,-111.43 780.5,-81.43 883.5,-81.43 883.5,-111.43"/>
<text text-anchor="start" x="788.5" y="-99.43" font-family="Helvetica,sans-Serif" font-size="10.00">BitVector::getSize</text>
<text text-anchor="middle" x="832" y="-88.43" font-family="Helvetica,sans-Serif" font-size="10.00">_tUnit</text>
</a>
</g>
</g>
<!-- Node4&#45;&gt;Node5 -->
<g id="edge4_Node000004_Node000005" class="edge">
<title>Node4&#45;&gt;Node5</title>
<g id="a_edge4_Node000004_Node000005"><a xlink:title=" ">
<path fill="none" stroke="#63b8ff" d="M515.22,-96.43C590.7,-96.43 701.77,-96.43 770.08,-96.43"/>
<polygon fill="#63b8ff" stroke="#63b8ff" points="770.25,-99.93 780.25,-96.43 770.25,-92.93 770.25,-99.93"/>
</a>
</g>
</g>
<!-- Node9 -->
<g id="Node000009" class="node">
<title>Node9</title>
<g id="a_Node000009"><a xlink:href="class_bit_vector.html#ad36e7d0b4b1417ca434414fa40c72eb8" target="_top" xlink:title="How many element can be contained in this object knowing BitVector::_element_size.">
<polygon fill="white" stroke="#666666" points="705,-62.93 551,-62.93 551,-43.93 705,-43.93 705,-62.93"/>
<text text-anchor="middle" x="628" y="-50.93" font-family="Helvetica,sans-Serif" font-size="10.00">BitVector::maxElementLimit</text>
</a>
</g>
</g>
<!-- Node4&#45;&gt;Node9 -->
<g id="edge10_Node000004_Node000009" class="edge">
<title>Node4&#45;&gt;Node9</title>
<g id="a_edge10_Node000004_Node000009"><a xlink:title=" ">
<path fill="none" stroke="#63b8ff" d="M477.22,-86.89C505.88,-80.49 543.83,-72.01 574.35,-65.19"/>
<polygon fill="#63b8ff" stroke="#63b8ff" points="575.4,-68.54 584.4,-62.95 573.87,-61.71 575.4,-68.54"/>
</a>
</g>
</g>
<!-- Node6 -->
<g id="Node000006" class="node">
<title>Node6</title>
<g id="a_Node000006"><a xlink:href="class_bit_vector.html#a115789c8a9812eabb52f8843cd4e9965" target="_top" xlink:title="Give the a coord object that represent the size of 1 element inside BitVector::_data.">
<polygon fill="white" stroke="#666666" points="1103.5,-148.93 972.5,-148.93 972.5,-129.93 1103.5,-129.93 1103.5,-148.93"/>
<text text-anchor="middle" x="1038" y="-136.93" font-family="Helvetica,sans-Serif" font-size="10.00">BitVector::getCoordUnit</text>
</a>
</g>
</g>
<!-- Node5&#45;&gt;Node6 -->
<g id="edge5_Node000005_Node000006" class="edge">
<title>Node5&#45;&gt;Node6</title>
<g id="a_edge5_Node000005_Node000006"><a xlink:title=" ">
<path fill="none" stroke="#63b8ff" d="M883.69,-107.11C913.48,-113.39 951.17,-121.34 981.72,-127.78"/>
<polygon fill="#63b8ff" stroke="#63b8ff" points="981.28,-131.26 991.79,-129.9 982.72,-124.41 981.28,-131.26"/>
</a>
</g>
</g>
<!-- Node8 -->
<g id="Node000008" class="node">
<title>Node8</title>
<g id="a_Node000008"><a xlink:href="class_bit_vector_1_1_coords.html#a3a4fac9de925974af9c8a66a1d0179e6" target="_top" xlink:title="Translate octet and bit value inside a size_t. Allow easier mathematic computations.">
<polygon fill="white" stroke="#666666" points="1091.5,-111.43 984.5,-111.43 984.5,-81.43 1091.5,-81.43 1091.5,-111.43"/>
<text text-anchor="start" x="992.5" y="-99.43" font-family="Helvetica,sans-Serif" font-size="10.00">BitVector::Coords::</text>
<text text-anchor="middle" x="1038" y="-88.43" font-family="Helvetica,sans-Serif" font-size="10.00">toSize_t</text>
</a>
</g>
</g>
<!-- Node5&#45;&gt;Node8 -->
<g id="edge9_Node000005_Node000008" class="edge">
<title>Node5&#45;&gt;Node8</title>
<g id="a_edge9_Node000005_Node000008"><a xlink:title=" ">
<path fill="none" stroke="#63b8ff" d="M883.69,-96.43C911.13,-96.43 945.28,-96.43 974.38,-96.43"/>
<polygon fill="#63b8ff" stroke="#63b8ff" points="974.44,-99.93 984.44,-96.43 974.44,-92.93 974.44,-99.93"/>
</a>
</g>
</g>
<!-- Node7 -->
<g id="Node000007" class="node">
<title>Node7</title>
<g id="a_Node000007"><a xlink:href="class_bit_vector.html#aebe159444eb9d619959b7325ac5dac2d" target="_top" xlink:title="Return the value of the bit at the position coord.">
<polygon fill="white" stroke="#666666" points="1236,-94.93 1153,-94.93 1153,-75.93 1236,-75.93 1236,-94.93"/>
<text text-anchor="middle" x="1194.5" y="-82.93" font-family="Helvetica,sans-Serif" font-size="10.00">BitVector::get</text>
</a>
</g>
</g>
<!-- Node6&#45;&gt;Node7 -->
<g id="edge6_Node000006_Node000007" class="edge">
<title>Node6&#45;&gt;Node7</title>
<g id="a_edge6_Node000006_Node000007"><a xlink:title=" ">
<path fill="none" stroke="#63b8ff" d="M1084.38,-129.92C1095.19,-127.23 1106.6,-124.04 1117,-120.43 1133.59,-114.67 1151.48,-106.6 1165.78,-99.66"/>
<polygon fill="#63b8ff" stroke="#63b8ff" points="1167.63,-102.65 1175.05,-95.08 1164.53,-96.37 1167.63,-102.65"/>
</a>
</g>
</g>
<!-- Node7&#45;&gt;Node3 -->
<g id="edge8_Node000007_Node000003" class="edge">
<title>Node7&#45;&gt;Node3</title>
<g id="a_edge8_Node000007_Node000003"><a xlink:title=" ">
<path fill="none" stroke="#63b8ff" d="M1236.32,-94.29C1244.38,-96.04 1253.02,-97.91 1261.62,-99.78"/>
<polygon fill="#63b8ff" stroke="#63b8ff" points="1261.14,-103.26 1271.66,-101.96 1262.63,-96.42 1261.14,-103.26"/>
</a>
</g>
</g>
<!-- Node7&#45;&gt;Node7 -->
<g id="edge7_Node000007_Node000007" class="edge">
<title>Node7&#45;&gt;Node7</title>
<g id="a_edge7_Node000007_Node000007"><a xlink:title=" ">
<path fill="none" stroke="#63b8ff" d="M1174.46,-95.01C1164.72,-103.66 1171.39,-112.93 1194.5,-112.93 1209.3,-112.93 1217.36,-109.13 1218.68,-104.12"/>
<polygon fill="#63b8ff" stroke="#63b8ff" points="1221.86,-102.66 1214.54,-95.01 1215.49,-105.56 1221.86,-102.66"/>
</a>
</g>
</g>
<!-- Node9&#45;&gt;Node5 -->
<g id="edge11_Node000009_Node000005" class="edge">
<title>Node9&#45;&gt;Node5</title>
<g id="a_edge11_Node000009_Node000005"><a xlink:title=" ">
<path fill="none" stroke="#63b8ff" d="M673.83,-62.97C702.25,-69.02 739.38,-76.93 770.41,-83.53"/>
<polygon fill="#63b8ff" stroke="#63b8ff" points="769.74,-86.97 780.25,-85.63 771.2,-80.12 769.74,-86.97"/>
</a>
</g>
</g>
<!-- Node10 -->
<g id="Node000010" class="node">
<title>Node10</title>
<g id="a_Node000010"><a xlink:href="class_bit_vector.html#a68b14af0886039ddcf55c82a250deb4c" target="_top" xlink:title="How many element can be contained in this kind of object.">
<polygon fill="white" stroke="#666666" points="1117,-63.43 959,-63.43 959,-33.43 1117,-33.43 1117,-63.43"/>
<text text-anchor="start" x="967" y="-51.43" font-family="Helvetica,sans-Serif" font-size="10.00">BitVector::maximumElement</text>
<text text-anchor="middle" x="1038" y="-40.43" font-family="Helvetica,sans-Serif" font-size="10.00">Number</text>
</a>
</g>
</g>
<!-- Node9&#45;&gt;Node10 -->
<g id="edge12_Node000009_Node000010" class="edge">
<title>Node9&#45;&gt;Node10</title>
<g id="a_edge12_Node000009_Node000010"><a xlink:title=" ">
<path fill="none" stroke="#63b8ff" d="M705.26,-52.5C774.32,-51.65 876.06,-50.4 948.64,-49.51"/>
<polygon fill="#63b8ff" stroke="#63b8ff" points="948.72,-53.01 958.68,-49.39 948.64,-46.01 948.72,-53.01"/>
</a>
</g>
</g>
<!-- Node11 -->
<g id="Node000011" class="node">
<title>Node11</title>
<g id="a_Node000011"><a xlink:href="class_bit_vector.html#aa3228d2bacb1bb0f6072d73d43a49456" target="_top" xlink:title="How many octet can be contained in this kind of object.">
<polygon fill="white" stroke="#666666" points="923,-19.93 741,-19.93 741,-0.93 923,-0.93 923,-19.93"/>
<text text-anchor="middle" x="832" y="-7.93" font-family="Helvetica,sans-Serif" font-size="10.00">BitVector::maximumOctetNumber</text>
</a>
</g>
</g>
<!-- Node9&#45;&gt;Node11 -->
<g id="edge14_Node000009_Node000011" class="edge">
<title>Node9&#45;&gt;Node11</title>
<g id="a_edge14_Node000009_Node000011"><a xlink:title=" ">
<path fill="none" stroke="#63b8ff" d="M673.83,-43.89C704.04,-37.46 744.07,-28.94 776.17,-22.1"/>
<polygon fill="#63b8ff" stroke="#63b8ff" points="777.24,-25.45 786.29,-19.95 775.79,-18.61 777.24,-25.45"/>
</a>
</g>
</g>
<!-- Node10&#45;&gt;Node7 -->
<g id="edge13_Node000010_Node000007" class="edge">
<title>Node10&#45;&gt;Node7</title>
<g id="a_edge13_Node000010_Node000007"><a xlink:title=" ">
<path fill="none" stroke="#63b8ff" d="M1101.84,-63.48C1115.82,-66.83 1130.45,-70.33 1143.82,-73.53"/>
<polygon fill="#63b8ff" stroke="#63b8ff" points="1143.22,-76.99 1153.76,-75.91 1144.85,-70.18 1143.22,-76.99"/>
</a>
</g>
</g>
<!-- Node11&#45;&gt;Node7 -->
<g id="edge15_Node000011_Node000007" class="edge">
<title>Node11&#45;&gt;Node7</title>
<g id="a_edge15_Node000011_Node000007"><a xlink:title=" ">
<path fill="none" stroke="#63b8ff" d="M923.18,-1C980.49,1.68 1055.23,-1.1 1117,-24.43 1141.4,-33.65 1164.06,-53.76 1178.28,-68.37"/>
<polygon fill="#63b8ff" stroke="#63b8ff" points="1175.87,-70.93 1185.27,-75.82 1180.98,-66.14 1175.87,-70.93"/>
</a>
</g>
</g>
</g>
</svg>

<g id="navigator" transform="translate(0 0)" fill="#404254">
  <rect fill="#f2f5e9" fill-opacity="0.5" stroke="#606060" stroke-width=".5" x="0" y="0" width="60" height="60"/>
  <use id="zoomplus" xlink:href="#zoomPlus" x="17" y="9" onmousedown="handleZoom(evt,'in')"/>
  <use id="zoomminus" xlink:href="#zoomMin" x="42" y="9" onmousedown="handleZoom(evt,'out')"/>
  <use id="reset" xlink:href="#resetDef" x="30" y="36" onmousedown="handleReset()"/>
   <use id="arrowup" xlink:href="#arrowUp" x="0" y="0" onmousedown="handlePan(0,-1)"/>
  <use id="arrowright" xlink:href="#arrowRight" x="0" y="0" onmousedown="handlePan(1,0)"/>
  <use id="arrowdown" xlink:href="#arrowDown" x="0" y="0" onmousedown="handlePan(0,1)"/>
  <use id="arrowleft" xlink:href="#arrowLeft" x="0" y="0" onmousedown="handlePan(-1,0)"/>
</g>
<svg viewBox="0 0 15 15" width="100%" height="30px" preserveAspectRatio="xMaxYMin meet">
 <g id="arrow_out" transform="scale(0.3 0.3)">
  <a xlink:href="class_bit_vector_a00aeec5e60b478d74e1540f34f46e37c_cgraph_org.svg" target="_base">
   <rect id="button" ry="5" rx="5" y="6" x="6" height="38" width="38"
        fill="#f2f5e9" fill-opacity="0.5" stroke="#606060" stroke-width="1.0"/>
   <path id="arrow"
     d="M 11.500037,31.436501 C 11.940474,20.09759 22.043105,11.32322 32.158766,21.979434 L 37.068811,17.246167 C 37.068811,17.246167 37.088388,32 37.088388,32 L 22.160133,31.978069 C 22.160133,31.978069 26.997745,27.140456 26.997745,27.140456 C 18.528582,18.264221 13.291696,25.230495 11.500037,31.436501 z"
     style="fill:#404040;"/>
  </a>
 </g>
</svg>

<style type='text/css'>
<![CDATA[
[data-mouse-over-selected='false'] { opacity: 0.7; }
[data-mouse-over-selected='true']  { opacity: 1.0; }
]]>
</style>
<script type="application/ecmascript"><![CDATA[
document.addEventListener('DOMContentLoaded', (event) => {
  highlightEdges();
  highlightAdjacentNodes();
});
]]></script>
</svg>
