<?xml version="1.0" encoding="UTF-8" standalone="no"?>
<!DOCTYPE svg PUBLIC "-//W3C//DTD SVG 1.1//EN"
 "http://www.w3.org/Graphics/SVG/1.1/DTD/svg11.dtd">
<!-- Generated by graphviz version 2.43.0 (0)
 -->
<!-- Title: BitVector::maxOctetLimit Pages: 1 -->
<svg width="1211pt" height="185pt"
 viewBox="0.00 0.00 1211.00 185.43" xmlns="http://www.w3.org/2000/svg" xmlns:xlink="http://www.w3.org/1999/xlink">
<g id="graph0" class="graph" transform="scale(1 1) rotate(0) translate(4 181.43)">
<title>BitVector::maxOctetLimit</title>
<!-- Node1 -->
<g id="Node000001" class="node">
<title>Node1</title>
<g id="a_Node000001"><a xlink:title="How many octet can be contained in this object knowing BitVector::_element_size.">
<polygon fill="#999999" stroke="#666666" points="140,-145.93 0,-145.93 0,-126.93 140,-126.93 140,-145.93"/>
<text text-anchor="middle" x="70" y="-133.93" font-family="Helvetica,sans-Serif" font-size="10.00">BitVector::maxOctetLimit</text>
</a>
</g>
</g>
<!-- Node2 -->
<g id="Node000002" class="node">
<title>Node2</title>
<g id="a_Node000002"><a xlink:href="class_bit_vector_1_1_coords.html#a2892f7f46c4af93f9733e312229d8ec1" target="_top" xlink:title="Get Coords::octet .">
<polygon fill="white" stroke="#666666" points="1203,-128.43 1096,-128.43 1096,-98.43 1203,-98.43 1203,-128.43"/>
<text text-anchor="start" x="1104" y="-116.43" font-family="Helvetica,sans-Serif" font-size="10.00">BitVector::Coords::</text>
<text text-anchor="middle" x="1149.5" y="-105.43" font-family="Helvetica,sans-Serif" font-size="10.00">getOctet</text>
</a>
</g>
</g>
<!-- Node1&#45;&gt;Node2 -->
<g id="edge1_Node000001_Node000002" class="edge">
<title>Node1&#45;&gt;Node2</title>
<g id="a_edge1_Node000001_Node000002"><a xlink:title=" ">
<path fill="none" stroke="#63b8ff" d="M124.92,-145.94C198.4,-158.05 334.22,-177.43 451,-177.43 451,-177.43 451,-177.43 863,-177.43 947.1,-177.43 1041.83,-150.66 1098.27,-131.75"/>
<polygon fill="#63b8ff" stroke="#63b8ff" points="1099.67,-134.97 1108.01,-128.44 1097.41,-128.34 1099.67,-134.97"/>
</a>
</g>
</g>
<!-- Node3 -->
<g id="Node000003" class="node">
<title>Node3</title>
<g id="a_Node000003"><a xlink:href="class_bit_vector.html#a214e556dd89acce2427a378c5520adbd" target="_top" xlink:title="Last acceptable coordinate knowing BitVector::_element_size.">
<polygon fill="white" stroke="#666666" points="339,-105.93 176,-105.93 176,-86.93 339,-86.93 339,-105.93"/>
<text text-anchor="middle" x="257.5" y="-93.93" font-family="Helvetica,sans-Serif" font-size="10.00">BitVector::MaximalCoordLimit</text>
</a>
</g>
</g>
<!-- Node1&#45;&gt;Node3 -->
<g id="edge2_Node000001_Node000003" class="edge">
<title>Node1&#45;&gt;Node3</title>
<g id="a_edge2_Node000001_Node000003"><a xlink:title=" ">
<path fill="none" stroke="#63b8ff" d="M115.43,-126.85C141.59,-121.21 174.86,-114.04 202.52,-108.07"/>
<polygon fill="#63b8ff" stroke="#63b8ff" points="203.39,-111.46 212.43,-105.93 201.92,-104.62 203.39,-111.46"/>
</a>
</g>
</g>
<!-- Node4 -->
<g id="Node000004" class="node">
<title>Node4</title>
<g id="a_Node000004"><a xlink:href="class_bit_vector.html#af68cda7444ec4459393bbfa423f0a7dd" target="_top" xlink:title="Get the Size_t value if a BitVector::CoordUnit.">
<polygon fill="white" stroke="#666666" points="707.5,-111.43 604.5,-111.43 604.5,-81.43 707.5,-81.43 707.5,-111.43"/>
<text text-anchor="start" x="612.5" y="-99.43" font-family="Helvetica,sans-Serif" font-size="10.00">BitVector::getSize</text>
<text text-anchor="middle" x="656" y="-88.43" font-family="Helvetica,sans-Serif" font-size="10.00">_tUnit</text>
</a>
</g>
</g>
<!-- Node3&#45;&gt;Node4 -->
<g id="edge3_Node000003_Node000004" class="edge">
<title>Node3&#45;&gt;Node4</title>
<g id="a_edge3_Node000003_Node000004"><a xlink:title=" ">
<path fill="none" stroke="#63b8ff" d="M339.22,-96.43C414.7,-96.43 525.77,-96.43 594.08,-96.43"/>
<polygon fill="#63b8ff" stroke="#63b8ff" points="594.25,-99.93 604.25,-96.43 594.25,-92.93 594.25,-99.93"/>
</a>
</g>
</g>
<!-- Node8 -->
<g id="Node000008" class="node">
<title>Node8</title>
<g id="a_Node000008"><a xlink:href="class_bit_vector.html#ad36e7d0b4b1417ca434414fa40c72eb8" target="_top" xlink:title="How many element can be contained in this object knowing BitVector::_element_size.">
<polygon fill="white" stroke="#666666" points="529,-62.93 375,-62.93 375,-43.93 529,-43.93 529,-62.93"/>
<text text-anchor="middle" x="452" y="-50.93" font-family="Helvetica,sans-Serif" font-size="10.00">BitVector::maxElementLimit</text>
</a>
</g>
</g>
<!-- Node3&#45;&gt;Node8 -->
<g id="edge9_Node000003_Node000008" class="edge">
<title>Node3&#45;&gt;Node8</title>
<g id="a_edge9_Node000003_Node000008"><a xlink:title=" ">
<path fill="none" stroke="#63b8ff" d="M301.22,-86.89C329.88,-80.49 367.83,-72.01 398.35,-65.19"/>
<polygon fill="#63b8ff" stroke="#63b8ff" points="399.4,-68.54 408.4,-62.95 397.87,-61.71 399.4,-68.54"/>
</a>
</g>
</g>
<!-- Node5 -->
<g id="Node000005" class="node">
<title>Node5</title>
<g id="a_Node000005"><a xlink:href="class_bit_vector.html#a115789c8a9812eabb52f8843cd4e9965" target="_top" xlink:title="Give the a coord object that represent the size of 1 element inside BitVector::_data.">
<polygon fill="white" stroke="#666666" points="927.5,-148.93 796.5,-148.93 796.5,-129.93 927.5,-129.93 927.5,-148.93"/>
<text text-anchor="middle" x="862" y="-136.93" font-family="Helvetica,sans-Serif" font-size="10.00">BitVector::getCoordUnit</text>
</a>
</g>
</g>
<!-- Node4&#45;&gt;Node5 -->
<g id="edge4_Node000004_Node000005" class="edge">
<title>Node4&#45;&gt;Node5</title>
<g id="a_edge4_Node000004_Node000005"><a xlink:title=" ">
<path fill="none" stroke="#63b8ff" d="M707.69,-107.11C737.48,-113.39 775.17,-121.34 805.72,-127.78"/>
<polygon fill="#63b8ff" stroke="#63b8ff" points="805.28,-131.26 815.79,-129.9 806.72,-124.41 805.28,-131.26"/>
</a>
</g>
</g>
<!-- Node7 -->
<g id="Node000007" class="node">
<title>Node7</title>
<g id="a_Node000007"><a xlink:href="class_bit_vector_1_1_coords.html#a3a4fac9de925974af9c8a66a1d0179e6" target="_top" xlink:title="Translate octet and bit value inside a size_t. Allow easier mathematic computations.">
<polygon fill="white" stroke="#666666" points="915.5,-111.43 808.5,-111.43 808.5,-81.43 915.5,-81.43 915.5,-111.43"/>
<text text-anchor="start" x="816.5" y="-99.43" font-family="Helvetica,sans-Serif" font-size="10.00">BitVector::Coords::</text>
<text text-anchor="middle" x="862" y="-88.43" font-family="Helvetica,sans-Serif" font-size="10.00">toSize_t</text>
</a>
</g>
</g>
<!-- Node4&#45;&gt;Node7 -->
<g id="edge8_Node000004_Node000007" class="edge">
<title>Node4&#45;&gt;Node7</title>
<g id="a_edge8_Node000004_Node000007"><a xlink:title=" ">
<path fill="none" stroke="#63b8ff" d="M707.69,-96.43C735.13,-96.43 769.28,-96.43 798.38,-96.43"/>
<polygon fill="#63b8ff" stroke="#63b8ff" points="798.44,-99.93 808.44,-96.43 798.44,-92.93 798.44,-99.93"/>
</a>
</g>
</g>
<!-- Node6 -->
<g id="Node000006" class="node">
<title>Node6</title>
<g id="a_Node000006"><a xlink:href="class_bit_vector.html#aebe159444eb9d619959b7325ac5dac2d" target="_top" xlink:title="Return the value of the bit at the position coord.">
<polygon fill="white" stroke="#666666" points="1060,-94.93 977,-94.93 977,-75.93 1060,-75.93 1060,-94.93"/>
<text text-anchor="middle" x="1018.5" y="-82.93" font-family="Helvetica,sans-Serif" font-size="10.00">BitVector::get</text>
</a>
</g>
</g>
<!-- Node5&#45;&gt;Node6 -->
<g id="edge5_Node000005_Node000006" class="edge">
<title>Node5&#45;&gt;Node6</title>
<g id="a_edge5_Node000005_Node000006"><a xlink:title=" ">
<path fill="none" stroke="#63b8ff" d="M908.38,-129.92C919.19,-127.23 930.6,-124.04 941,-120.43 957.59,-114.67 975.48,-106.6 989.78,-99.66"/>
<polygon fill="#63b8ff" stroke="#63b8ff" points="991.63,-102.65 999.05,-95.08 988.53,-96.37 991.63,-102.65"/>
</a>
</g>
</g>
<!-- Node6&#45;&gt;Node2 -->
<g id="edge7_Node000006_Node000002" class="edge">
<title>Node6&#45;&gt;Node2</title>
<g id="a_edge7_Node000006_Node000002"><a xlink:title=" ">
<path fill="none" stroke="#63b8ff" d="M1060.32,-94.29C1068.38,-96.04 1077.02,-97.91 1085.62,-99.78"/>
<polygon fill="#63b8ff" stroke="#63b8ff" points="1085.14,-103.26 1095.66,-101.96 1086.63,-96.42 1085.14,-103.26"/>
</a>
</g>
</g>
<!-- Node6&#45;&gt;Node6 -->
<g id="edge6_Node000006_Node000006" class="edge">
<title>Node6&#45;&gt;Node6</title>
<g id="a_edge6_Node000006_Node000006"><a xlink:title=" ">
<path fill="none" stroke="#63b8ff" d="M998.46,-95.01C988.72,-103.66 995.39,-112.93 1018.5,-112.93 1033.3,-112.93 1041.36,-109.13 1042.68,-104.12"/>
<polygon fill="#63b8ff" stroke="#63b8ff" points="1045.86,-102.66 1038.54,-95.01 1039.49,-105.56 1045.86,-102.66"/>
</a>
</g>
</g>
<!-- Node8&#45;&gt;Node4 -->
<g id="edge10_Node000008_Node000004" class="edge">
<title>Node8&#45;&gt;Node4</title>
<g id="a_edge10_Node000008_Node000004"><a xlink:title=" ">
<path fill="none" stroke="#63b8ff" d="M497.83,-62.97C526.25,-69.02 563.38,-76.93 594.41,-83.53"/>
<polygon fill="#63b8ff" stroke="#63b8ff" points="593.74,-86.97 604.25,-85.63 595.2,-80.12 593.74,-86.97"/>
</a>
</g>
</g>
<!-- Node9 -->
<g id="Node000009" class="node">
<title>Node9</title>
<g id="a_Node000009"><a xlink:href="class_bit_vector.html#a68b14af0886039ddcf55c82a250deb4c" target="_top" xlink:title="How many element can be contained in this kind of object.">
<polygon fill="white" stroke="#666666" points="941,-63.43 783,-63.43 783,-33.43 941,-33.43 941,-63.43"/>
<text text-anchor="start" x="791" y="-51.43" font-family="Helvetica,sans-Serif" font-size="10.00">BitVector::maximumElement</text>
<text text-anchor="middle" x="862" y="-40.43" font-family="Helvetica,sans-Serif" font-size="10.00">Number</text>
</a>
</g>
</g>
<!-- Node8&#45;&gt;Node9 -->
<g id="edge11_Node000008_Node000009" class="edge">
<title>Node8&#45;&gt;Node9</title>
<g id="a_edge11_Node000008_Node000009"><a xlink:title=" ">
<path fill="none" stroke="#63b8ff" d="M529.26,-52.5C598.32,-51.65 700.06,-50.4 772.64,-49.51"/>
<polygon fill="#63b8ff" stroke="#63b8ff" points="772.72,-53.01 782.68,-49.39 772.64,-46.01 772.72,-53.01"/>
</a>
</g>
</g>
<!-- Node10 -->
<g id="Node000010" class="node">
<title>Node10</title>
<g id="a_Node000010"><a xlink:href="class_bit_vector.html#aa3228d2bacb1bb0f6072d73d43a49456" target="_top" xlink:title="How many octet can be contained in this kind of object.">
<polygon fill="white" stroke="#666666" points="747,-19.93 565,-19.93 565,-0.93 747,-0.93 747,-19.93"/>
<text text-anchor="middle" x="656" y="-7.93" font-family="Helvetica,sans-Serif" font-size="10.00">BitVector::maximumOctetNumber</text>
</a>
</g>
</g>
<!-- Node8&#45;&gt;Node10 -->
<g id="edge13_Node000008_Node000010" class="edge">
<title>Node8&#45;&gt;Node10</title>
<g id="a_edge13_Node000008_Node000010"><a xlink:title=" ">
<path fill="none" stroke="#63b8ff" d="M497.83,-43.89C528.04,-37.46 568.07,-28.94 600.17,-22.1"/>
<polygon fill="#63b8ff" stroke="#63b8ff" points="601.24,-25.45 610.29,-19.95 599.79,-18.61 601.24,-25.45"/>
</a>
</g>
</g>
<!-- Node9&#45;&gt;Node6 -->
<g id="edge12_Node000009_Node000006" class="edge">
<title>Node9&#45;&gt;Node6</title>
<g id="a_edge12_Node000009_Node000006"><a xlink:title=" ">
<path fill="none" stroke="#63b8ff" d="M925.84,-63.48C939.82,-66.83 954.45,-70.33 967.82,-73.53"/>
<polygon fill="#63b8ff" stroke="#63b8ff" points="967.22,-76.99 977.76,-75.91 968.85,-70.18 967.22,-76.99"/>
</a>
</g>
</g>
<!-- Node10&#45;&gt;Node6 -->
<g id="edge14_Node000010_Node000006" class="edge">
<title>Node10&#45;&gt;Node6</title>
<g id="a_edge14_Node000010_Node000006"><a xlink:title=" ">
<path fill="none" stroke="#63b8ff" d="M747.18,-1C804.49,1.68 879.23,-1.1 941,-24.43 965.4,-33.65 988.06,-53.76 1002.28,-68.37"/>
<polygon fill="#63b8ff" stroke="#63b8ff" points="999.87,-70.93 1009.27,-75.82 1004.98,-66.14 999.87,-70.93"/>
</a>
</g>
</g>
</g>
</svg>
