<?xml version="1.0" encoding="UTF-8" standalone="no"?>
<!DOCTYPE svg PUBLIC "-//W3C//DTD SVG 1.1//EN"
 "http://www.w3.org/Graphics/SVG/1.1/DTD/svg11.dtd">
<!-- Generated by graphviz version 2.43.0 (0)
 -->
<!-- Title: BitVector::setElementNumber Pages: 1 -->
<svg width="1281pt" height="153pt"
 viewBox="0.00 0.00 1281.00 153.33" xmlns="http://www.w3.org/2000/svg" xmlns:xlink="http://www.w3.org/1999/xlink">
<g id="graph0" class="graph" transform="scale(1 1) rotate(0) translate(4 149.33)">
<title>BitVector::setElementNumber</title>
<!-- Node1 -->
<g id="Node000001" class="node">
<title>Node1</title>
<g id="a_Node000001"><a xlink:title="Modify the number of known element in this object.">
<polygon fill="#999999" stroke="#666666" points="161,-38.51 0,-38.51 0,-19.51 161,-19.51 161,-38.51"/>
<text text-anchor="middle" x="80.5" y="-26.51" font-family="Helvetica,sans-Serif" font-size="10.00">BitVector::setElementNumber</text>
</a>
</g>
</g>
<!-- Node2 -->
<g id="Node000002" class="node">
<title>Node2</title>
<g id="a_Node000002"><a xlink:href="class_bit_vector.html#ad64e921d07b9528a532477f282af135c" target="_top" xlink:title="How many element can fit in this vector without having to resize the vector ?">
<polygon fill="white" stroke="#666666" points="339,-66.01 197,-66.01 197,-36.01 339,-36.01 339,-66.01"/>
<text text-anchor="start" x="205" y="-54.01" font-family="Helvetica,sans-Serif" font-size="10.00">BitVector::currentElement</text>
<text text-anchor="middle" x="268" y="-43.01" font-family="Helvetica,sans-Serif" font-size="10.00">Capacity</text>
</a>
</g>
</g>
<!-- Node1&#45;&gt;Node2 -->
<g id="edge1_Node000001_Node000002" class="edge">
<title>Node1&#45;&gt;Node2</title>
<g id="a_edge1_Node000001_Node000002"><a xlink:title=" ">
<path fill="none" stroke="#63b8ff" d="M161.25,-38.46C169.79,-39.48 178.48,-40.51 187.02,-41.52"/>
<polygon fill="#63b8ff" stroke="#63b8ff" points="186.62,-45 196.96,-42.7 187.44,-38.05 186.62,-45"/>
</a>
</g>
</g>
<!-- Node4 -->
<g id="Node000004" class="node">
<title>Node4</title>
<g id="a_Node000004"><a xlink:href="class_bit_vector.html#aebe159444eb9d619959b7325ac5dac2d" target="_top" xlink:title="Return the value of the bit at the position coord.">
<polygon fill="white" stroke="#666666" points="1130,-121.51 1047,-121.51 1047,-102.51 1130,-102.51 1130,-121.51"/>
<text text-anchor="middle" x="1088.5" y="-109.51" font-family="Helvetica,sans-Serif" font-size="10.00">BitVector::get</text>
</a>
</g>
</g>
<!-- Node1&#45;&gt;Node4 -->
<g id="edge14_Node000001_Node000004" class="edge">
<title>Node1&#45;&gt;Node4</title>
<g id="a_edge14_Node000001_Node000004"><a xlink:title=" ">
<path fill="none" stroke="#63b8ff" d="M161.02,-21.47C235.11,-15.1 348.67,-7.01 447.5,-7.01 447.5,-7.01 447.5,-7.01 793.5,-7.01 890.53,-7.01 924.29,17.55 1011,-26.01 1040.91,-41.03 1064.42,-73.2 1077.11,-93.66"/>
<polygon fill="#63b8ff" stroke="#63b8ff" points="1074.18,-95.58 1082.31,-102.38 1080.2,-92 1074.18,-95.58"/>
</a>
</g>
</g>
<!-- Node3 -->
<g id="Node000003" class="node">
<title>Node3</title>
<g id="a_Node000003"><a xlink:href="class_bit_vector.html#a5af3c70f593aac387de23c7e6e5ae57e" target="_top" xlink:title="Find the element that correspond to coord .">
<polygon fill="white" stroke="#666666" points="522,-97.51 375,-97.51 375,-78.51 522,-78.51 522,-97.51"/>
<text text-anchor="middle" x="448.5" y="-85.51" font-family="Helvetica,sans-Serif" font-size="10.00">BitVector::indexCoordinate</text>
</a>
</g>
</g>
<!-- Node2&#45;&gt;Node3 -->
<g id="edge2_Node000002_Node000003" class="edge">
<title>Node2&#45;&gt;Node3</title>
<g id="a_edge2_Node000002_Node000003"><a xlink:title=" ">
<path fill="none" stroke="#63b8ff" d="M339.04,-65.52C356.43,-69.13 374.84,-72.94 391.46,-76.39"/>
<polygon fill="#63b8ff" stroke="#63b8ff" points="391.05,-79.88 401.55,-78.48 392.47,-73.02 391.05,-79.88"/>
</a>
</g>
</g>
<!-- Node10 -->
<g id="Node000010" class="node">
<title>Node10</title>
<g id="a_Node000010"><a xlink:href="class_bit_vector.html#ab4d98ce4b8d36ed6af1aa46e67810972" target="_top" xlink:title="Give the last coordinates thar can be contained inside BitVector::_data with the current BitVector::_...">
<polygon fill="white" stroke="#666666" points="497.5,-60.51 399.5,-60.51 399.5,-41.51 497.5,-41.51 497.5,-60.51"/>
<text text-anchor="middle" x="448.5" y="-48.51" font-family="Helvetica,sans-Serif" font-size="10.00">BitVector::lastBit</text>
</a>
</g>
</g>
<!-- Node2&#45;&gt;Node10 -->
<g id="edge13_Node000002_Node000010" class="edge">
<title>Node2&#45;&gt;Node10</title>
<g id="a_edge13_Node000002_Node000010"><a xlink:title=" ">
<path fill="none" stroke="#63b8ff" d="M339.04,-51.01C355.62,-51.01 373.14,-51.01 389.14,-51.01"/>
<polygon fill="#63b8ff" stroke="#63b8ff" points="389.41,-54.51 399.41,-51.01 389.41,-47.51 389.41,-54.51"/>
</a>
</g>
</g>
<!-- Node3&#45;&gt;Node4 -->
<g id="edge3_Node000003_Node000004" class="edge">
<title>Node3&#45;&gt;Node4</title>
<g id="a_edge3_Node000003_Node000004"><a xlink:title=" ">
<path fill="none" stroke="#63b8ff" d="M487.44,-97.62C508.17,-102.56 534.37,-108.31 558,-112.01 757.11,-143.15 811.12,-157.7 1011,-132.01 1023.34,-130.42 1036.53,-127.45 1048.42,-124.28"/>
<polygon fill="#63b8ff" stroke="#63b8ff" points="1049.37,-127.65 1058.06,-121.59 1047.48,-120.9 1049.37,-127.65"/>
</a>
</g>
</g>
<!-- Node6 -->
<g id="Node000006" class="node">
<title>Node6</title>
<g id="a_Node000006"><a xlink:href="class_bit_vector.html#a354c83853bc3622efa5d45efcae97286" target="_top" xlink:title="Give more detailed on BiteVector::indexCoordinate.">
<polygon fill="white" stroke="#666666" points="705,-103.01 558,-103.01 558,-73.01 705,-73.01 705,-103.01"/>
<text text-anchor="start" x="566" y="-91.01" font-family="Helvetica,sans-Serif" font-size="10.00">BitVector::indexCoordinate</text>
<text text-anchor="middle" x="631.5" y="-80.01" font-family="Helvetica,sans-Serif" font-size="10.00">Untreated</text>
</a>
</g>
</g>
<!-- Node3&#45;&gt;Node6 -->
<g id="edge6_Node000003_Node000006" class="edge">
<title>Node3&#45;&gt;Node6</title>
<g id="a_edge6_Node000003_Node000006"><a xlink:title=" ">
<path fill="none" stroke="#63b8ff" d="M522.08,-88.01C530.56,-88.01 539.26,-88.01 547.87,-88.01"/>
<polygon fill="#63b8ff" stroke="#63b8ff" points="547.91,-91.51 557.91,-88.01 547.91,-84.51 547.91,-91.51"/>
</a>
</g>
</g>
<!-- Node4&#45;&gt;Node4 -->
<g id="edge4_Node000004_Node000004" class="edge">
<title>Node4&#45;&gt;Node4</title>
<g id="a_edge4_Node000004_Node000004"><a xlink:title=" ">
<path fill="none" stroke="#63b8ff" d="M1068.46,-121.59C1058.72,-130.24 1065.39,-139.51 1088.5,-139.51 1103.3,-139.51 1111.36,-135.7 1112.68,-130.7"/>
<polygon fill="#63b8ff" stroke="#63b8ff" points="1115.86,-129.24 1108.54,-121.59 1109.49,-132.14 1115.86,-129.24"/>
</a>
</g>
</g>
<!-- Node5 -->
<g id="Node000005" class="node">
<title>Node5</title>
<g id="a_Node000005"><a xlink:href="class_bit_vector_1_1_coords.html#a2892f7f46c4af93f9733e312229d8ec1" target="_top" xlink:title="Get Coords::octet .">
<polygon fill="white" stroke="#666666" points="1273,-127.01 1166,-127.01 1166,-97.01 1273,-97.01 1273,-127.01"/>
<text text-anchor="start" x="1174" y="-115.01" font-family="Helvetica,sans-Serif" font-size="10.00">BitVector::Coords::</text>
<text text-anchor="middle" x="1219.5" y="-104.01" font-family="Helvetica,sans-Serif" font-size="10.00">getOctet</text>
</a>
</g>
</g>
<!-- Node4&#45;&gt;Node5 -->
<g id="edge5_Node000004_Node000005" class="edge">
<title>Node4&#45;&gt;Node5</title>
<g id="a_edge5_Node000004_Node000005"><a xlink:title=" ">
<path fill="none" stroke="#63b8ff" d="M1130.32,-112.01C1138.38,-112.01 1147.02,-112.01 1155.62,-112.01"/>
<polygon fill="#63b8ff" stroke="#63b8ff" points="1155.66,-115.51 1165.66,-112.01 1155.66,-108.51 1155.66,-115.51"/>
</a>
</g>
</g>
<!-- Node6&#45;&gt;Node4 -->
<g id="edge7_Node000006_Node000004" class="edge">
<title>Node6&#45;&gt;Node4</title>
<g id="a_edge7_Node000006_Node000004"><a xlink:title=" ">
<path fill="none" stroke="#63b8ff" d="M689.55,-103.06C706.03,-106.75 724.12,-110.16 741,-112.01 845.44,-123.42 968.66,-119.26 1036.42,-115.46"/>
<polygon fill="#63b8ff" stroke="#63b8ff" points="1037.02,-118.93 1046.8,-114.86 1036.62,-111.95 1037.02,-118.93"/>
</a>
</g>
</g>
<!-- Node7 -->
<g id="Node000007" class="node">
<title>Node7</title>
<g id="a_Node000007"><a xlink:href="class_bit_vector.html#af68cda7444ec4459393bbfa423f0a7dd" target="_top" xlink:title="Get the Size_t value if a BitVector::CoordUnit.">
<polygon fill="white" stroke="#666666" points="844,-103.01 741,-103.01 741,-73.01 844,-73.01 844,-103.01"/>
<text text-anchor="start" x="749" y="-91.01" font-family="Helvetica,sans-Serif" font-size="10.00">BitVector::getSize</text>
<text text-anchor="middle" x="792.5" y="-80.01" font-family="Helvetica,sans-Serif" font-size="10.00">_tUnit</text>
</a>
</g>
</g>
<!-- Node6&#45;&gt;Node7 -->
<g id="edge8_Node000006_Node000007" class="edge">
<title>Node6&#45;&gt;Node7</title>
<g id="a_edge8_Node000006_Node000007"><a xlink:title=" ">
<path fill="none" stroke="#63b8ff" d="M705.02,-88.01C713.64,-88.01 722.37,-88.01 730.8,-88.01"/>
<polygon fill="#63b8ff" stroke="#63b8ff" points="730.9,-91.51 740.9,-88.01 730.9,-84.51 730.9,-91.51"/>
</a>
</g>
</g>
<!-- Node9 -->
<g id="Node000009" class="node">
<title>Node9</title>
<g id="a_Node000009"><a xlink:href="class_bit_vector_1_1_coords.html#a3a4fac9de925974af9c8a66a1d0179e6" target="_top" xlink:title="Translate octet and bit value inside a size_t. Allow easier mathematic computations.">
<polygon fill="white" stroke="#666666" points="999,-65.01 892,-65.01 892,-35.01 999,-35.01 999,-65.01"/>
<text text-anchor="start" x="900" y="-53.01" font-family="Helvetica,sans-Serif" font-size="10.00">BitVector::Coords::</text>
<text text-anchor="middle" x="945.5" y="-42.01" font-family="Helvetica,sans-Serif" font-size="10.00">toSize_t</text>
</a>
</g>
</g>
<!-- Node6&#45;&gt;Node9 -->
<g id="edge12_Node000006_Node000009" class="edge">
<title>Node6&#45;&gt;Node9</title>
<g id="a_edge12_Node000006_Node000009"><a xlink:title=" ">
<path fill="none" stroke="#63b8ff" d="M693.03,-72.94C708.58,-69.54 725.34,-66.26 741,-64.01 787.92,-57.24 841.4,-53.72 881.76,-51.91"/>
<polygon fill="#63b8ff" stroke="#63b8ff" points="882.15,-55.39 891.99,-51.47 881.85,-48.4 882.15,-55.39"/>
</a>
</g>
</g>
<!-- Node8 -->
<g id="Node000008" class="node">
<title>Node8</title>
<g id="a_Node000008"><a xlink:href="class_bit_vector.html#a115789c8a9812eabb52f8843cd4e9965" target="_top" xlink:title="Give the a coord object that represent the size of 1 element inside BitVector::_data.">
<polygon fill="white" stroke="#666666" points="1011,-102.51 880,-102.51 880,-83.51 1011,-83.51 1011,-102.51"/>
<text text-anchor="middle" x="945.5" y="-90.51" font-family="Helvetica,sans-Serif" font-size="10.00">BitVector::getCoordUnit</text>
</a>
</g>
</g>
<!-- Node7&#45;&gt;Node8 -->
<g id="edge9_Node000007_Node000008" class="edge">
<title>Node7&#45;&gt;Node8</title>
<g id="a_edge9_Node000007_Node000008"><a xlink:title=" ">
<path fill="none" stroke="#63b8ff" d="M844.2,-89.68C852.45,-89.96 861.15,-90.25 869.83,-90.53"/>
<polygon fill="#63b8ff" stroke="#63b8ff" points="869.88,-94.04 879.99,-90.87 870.11,-87.04 869.88,-94.04"/>
</a>
</g>
</g>
<!-- Node7&#45;&gt;Node9 -->
<g id="edge11_Node000007_Node000009" class="edge">
<title>Node7&#45;&gt;Node9</title>
<g id="a_edge11_Node000007_Node000009"><a xlink:title=" ">
<path fill="none" stroke="#63b8ff" d="M844.2,-75.25C856.3,-72.2 869.36,-68.92 881.93,-65.75"/>
<polygon fill="#63b8ff" stroke="#63b8ff" points="883.03,-69.09 891.87,-63.25 881.32,-62.3 883.03,-69.09"/>
</a>
</g>
</g>
<!-- Node8&#45;&gt;Node4 -->
<g id="edge10_Node000008_Node000004" class="edge">
<title>Node8&#45;&gt;Node4</title>
<g id="a_edge10_Node000008_Node000004"><a xlink:title=" ">
<path fill="none" stroke="#63b8ff" d="M1011.22,-101.73C1019.87,-102.89 1028.63,-104.07 1036.99,-105.2"/>
<polygon fill="#63b8ff" stroke="#63b8ff" points="1036.56,-108.67 1046.94,-106.54 1037.5,-101.74 1036.56,-108.67"/>
</a>
</g>
</g>
</g>
</svg>
