<?xml version="1.0" encoding="UTF-8" standalone="no"?>
<!DOCTYPE svg PUBLIC "-//W3C//DTD SVG 1.1//EN"
 "http://www.w3.org/Graphics/SVG/1.1/DTD/svg11.dtd">
<!-- Generated by graphviz version 2.43.0 (0)
 -->
<!-- Title: BitVector::indexElement Pages: 1 -->
<!--zoomable 227 -->

<svg id="main" version="1.1" xmlns="http://www.w3.org/2000/svg" xmlns:xlink="http://www.w3.org/1999/xlink" xml:space="preserve" onload="init(evt)">
<style type="text/css"><![CDATA[
.node, .edge {opacity: 0.7;}
.node.selected, .edge.selected {opacity: 1;}
.edge:hover path { stroke: red; }
.edge:hover polygon { stroke: red; fill: red; }
]]></style>

<defs>
  <circle id="rim" cx="0" cy="0" r="7"/>
  <circle id="rim2" cx="0" cy="0" r="3.5"/>
  <g id="zoomPlus">
    <use xlink:href="#rim" fill="#404040"><set attributeName="fill" to="#808080" begin="zoomplus.mouseover" end="zoomplus.mouseout"/></use>
    <path d="M-4,0h8M0,-4v8" fill="none" stroke="white" stroke-width="1.5" pointer-events="none"/>
  </g>
  <g id="zoomMin">
    <use xlink:href="#rim" fill="#404040"><set attributeName="fill" to="#808080" begin="zoomminus.mouseover" end="zoomminus.mouseout"/></use>
    <path d="M-4,0h8" fill="none" stroke="white" stroke-width="1.5" pointer-events="none"/>
  </g>
  <g id="arrowUp" transform="translate(30 24)">
    <use xlink:href="#rim"/>
    <path pointer-events="none" fill="none" stroke="white" stroke-width="1.5" d="M0,-3.0v7 M-2.5,-0.5L0,-3.0L2.5,-0.5"/>
  </g>
  <g id="arrowRight" transform="rotate(90) translate(36 -43)">
    <use xlink:href="#rim"/>
    <path pointer-events="none" fill="none" stroke="white" stroke-width="1.5" d="M0,-3.0v7 M-2.5,-0.5L0,-3.0L2.5,-0.5"/>
  </g>
  <g id="arrowDown" transform="rotate(180) translate(-30 -48)">
    <use xlink:href="#rim"/>
    <path pointer-events="none" fill="none" stroke="white" stroke-width="1.5" d="M0,-3.0v7 M-2.5,-0.5L0,-3.0L2.5,-0.5"/>
  </g>
  <g id="arrowLeft" transform="rotate(270) translate(-36 17)">
    <use xlink:href="#rim"/>
    <path pointer-events="none" fill="none" stroke="white" stroke-width="1.5" d="M0,-3.0v7 M-2.5,-0.5L0,-3.0L2.5,-0.5"/>
  </g>
  <g id="resetDef">
    <use xlink:href="#rim2" fill="#404040"><set attributeName="fill" to="#808080" begin="reset.mouseover" end="reset.mouseout"/></use>
  </g>
</defs>
<script type="application/ecmascript">
var viewWidth = 1225;
var viewHeight = 227;
var sectionId = 'dynsection-29';
</script>
<script type="application/ecmascript" xlink:href="svg.min.js"/>
<svg id="graph" class="graph">
<g id="viewport">
<title>BitVector::indexElement</title>
<!-- Node1 -->
<g id="Node000001" class="node">
<title>Node1</title>
<g id="a_Node000001"><a xlink:title="Give the coords of the first bit of an element.">
<polygon fill="#999999" stroke="#666666" points="134,-190.51 0,-190.51 0,-171.51 134,-171.51 134,-190.51"/>
<text text-anchor="middle" x="67" y="-178.51" font-family="Helvetica,sans-Serif" font-size="10.00">BitVector::indexElement</text>
</a>
</g>
</g>
<!-- Node2 -->
<g id="Node000002" class="node">
<title>Node2</title>
<g id="a_Node000002"><a xlink:href="class_bit_vector.html#aebe159444eb9d619959b7325ac5dac2d" target="_top" xlink:title="Return the value of the bit at the position coord.">
<polygon fill="white" stroke="#666666" points="1074,-152.51 991,-152.51 991,-133.51 1074,-133.51 1074,-152.51"/>
<text text-anchor="middle" x="1032.5" y="-140.51" font-family="Helvetica,sans-Serif" font-size="10.00">BitVector::get</text>
</a>
</g>
</g>
<!-- Node1&#45;&gt;Node2 -->
<g id="edge1_Node000001_Node000002" class="edge">
<title>Node1&#45;&gt;Node2</title>
<g id="a_edge1_Node000001_Node000002"><a xlink:title=" ">
<path fill="none" stroke="#63b8ff" d="M129.37,-190.55C207.23,-201.81 345.74,-219.01 465,-219.01 465,-219.01 465,-219.01 671,-219.01 798.29,-219.01 833.42,-219.69 955,-182.01 973.57,-176.26 993.08,-166.24 1007.74,-157.8"/>
<polygon fill="#63b8ff" stroke="#63b8ff" points="1009.8,-160.65 1016.63,-152.54 1006.24,-154.63 1009.8,-160.65"/>
</a>
</g>
</g>
<!-- Node4 -->
<g id="Node000004" class="node">
<title>Node4</title>
<g id="a_Node000004"><a xlink:href="class_bit_vector.html#a04e6d0b67ee9b42ccec437b0176067fe" target="_top" xlink:title="Give A size_t that represent the coords of the first bit of an element.">
<polygon fill="white" stroke="#666666" points="353,-171.51 170,-171.51 170,-152.51 353,-152.51 353,-171.51"/>
<text text-anchor="middle" x="261.5" y="-159.51" font-family="Helvetica,sans-Serif" font-size="10.00">BitVector::indexElementUntreated</text>
</a>
</g>
</g>
<!-- Node1&#45;&gt;Node4 -->
<g id="edge4_Node000001_Node000004" class="edge">
<title>Node1&#45;&gt;Node4</title>
<g id="a_edge4_Node000001_Node000004"><a xlink:title=" ">
<path fill="none" stroke="#63b8ff" d="M134.25,-174.47C142.53,-173.65 151.15,-172.8 159.81,-171.95"/>
<polygon fill="#63b8ff" stroke="#63b8ff" points="160.38,-175.41 169.99,-170.94 159.69,-168.44 160.38,-175.41"/>
</a>
</g>
</g>
<!-- Node2&#45;&gt;Node2 -->
<g id="edge2_Node000002_Node000002" class="edge">
<title>Node2&#45;&gt;Node2</title>
<g id="a_edge2_Node000002_Node000002"><a xlink:title=" ">
<path fill="none" stroke="#63b8ff" d="M1012.46,-152.59C1002.72,-161.24 1009.39,-170.51 1032.5,-170.51 1047.3,-170.51 1055.36,-166.71 1056.68,-161.7"/>
<polygon fill="#63b8ff" stroke="#63b8ff" points="1059.86,-160.25 1052.54,-152.59 1053.49,-163.14 1059.86,-160.25"/>
</a>
</g>
</g>
<!-- Node3 -->
<g id="Node000003" class="node">
<title>Node3</title>
<g id="a_Node000003"><a xlink:href="class_bit_vector_1_1_coords.html#a2892f7f46c4af93f9733e312229d8ec1" target="_top" xlink:title="Get Coords::octet .">
<polygon fill="white" stroke="#666666" points="1217,-158.01 1110,-158.01 1110,-128.01 1217,-128.01 1217,-158.01"/>
<text text-anchor="start" x="1118" y="-146.01" font-family="Helvetica,sans-Serif" font-size="10.00">BitVector::Coords::</text>
<text text-anchor="middle" x="1163.5" y="-135.01" font-family="Helvetica,sans-Serif" font-size="10.00">getOctet</text>
</a>
</g>
</g>
<!-- Node2&#45;&gt;Node3 -->
<g id="edge3_Node000002_Node000003" class="edge">
<title>Node2&#45;&gt;Node3</title>
<g id="a_edge3_Node000002_Node000003"><a xlink:title=" ">
<path fill="none" stroke="#63b8ff" d="M1074.32,-143.01C1082.38,-143.01 1091.02,-143.01 1099.62,-143.01"/>
<polygon fill="#63b8ff" stroke="#63b8ff" points="1099.66,-146.51 1109.66,-143.01 1099.66,-139.51 1099.66,-146.51"/>
</a>
</g>
</g>
<!-- Node4&#45;&gt;Node2 -->
<g id="edge5_Node000004_Node000002" class="edge">
<title>Node4&#45;&gt;Node2</title>
<g id="a_edge5_Node000004_Node000002"><a xlink:title=" ">
<path fill="none" stroke="#63b8ff" d="M353.12,-168.99C485.81,-177.64 740.49,-188.25 955,-162.01 966.77,-160.57 979.33,-157.93 990.8,-155.07"/>
<polygon fill="#63b8ff" stroke="#63b8ff" points="991.77,-158.43 1000.56,-152.52 990,-151.66 991.77,-158.43"/>
</a>
</g>
</g>
<!-- Node5 -->
<g id="Node000005" class="node">
<title>Node5</title>
<g id="a_Node000005"><a xlink:href="class_bit_vector.html#af68cda7444ec4459393bbfa423f0a7dd" target="_top" xlink:title="Get the Size_t value if a BitVector::CoordUnit.">
<polygon fill="white" stroke="#666666" points="721.5,-135.01 618.5,-135.01 618.5,-105.01 721.5,-105.01 721.5,-135.01"/>
<text text-anchor="start" x="626.5" y="-123.01" font-family="Helvetica,sans-Serif" font-size="10.00">BitVector::getSize</text>
<text text-anchor="middle" x="670" y="-112.01" font-family="Helvetica,sans-Serif" font-size="10.00">_tUnit</text>
</a>
</g>
</g>
<!-- Node4&#45;&gt;Node5 -->
<g id="edge6_Node000004_Node000005" class="edge">
<title>Node4&#45;&gt;Node5</title>
<g id="a_edge6_Node000004_Node000005"><a xlink:title=" ">
<path fill="none" stroke="#63b8ff" d="M353.22,-152.64C431.01,-144.6 540.91,-133.25 608.43,-126.27"/>
<polygon fill="#63b8ff" stroke="#63b8ff" points="608.89,-129.74 618.48,-125.23 608.17,-122.78 608.89,-129.74"/>
</a>
</g>
</g>
<!-- Node8 -->
<g id="Node000008" class="node">
<title>Node8</title>
<g id="a_Node000008"><a xlink:href="class_bit_vector.html#ad36e7d0b4b1417ca434414fa40c72eb8" target="_top" xlink:title="How many element can be contained in this object knowing BitVector::_element_size.">
<polygon fill="white" stroke="#666666" points="543,-111.51 389,-111.51 389,-92.51 543,-92.51 543,-111.51"/>
<text text-anchor="middle" x="466" y="-99.51" font-family="Helvetica,sans-Serif" font-size="10.00">BitVector::maxElementLimit</text>
</a>
</g>
</g>
<!-- Node4&#45;&gt;Node8 -->
<g id="edge10_Node000004_Node000008" class="edge">
<title>Node4&#45;&gt;Node8</title>
<g id="a_edge10_Node000004_Node000008"><a xlink:title=" ">
<path fill="none" stroke="#63b8ff" d="M294.59,-152.5C329.29,-142.22 384.76,-125.78 422.94,-114.47"/>
<polygon fill="#63b8ff" stroke="#63b8ff" points="424.14,-117.77 432.73,-111.57 422.15,-111.06 424.14,-117.77"/>
</a>
</g>
</g>
<!-- Node6 -->
<g id="Node000006" class="node">
<title>Node6</title>
<g id="a_Node000006"><a xlink:href="class_bit_vector.html#a115789c8a9812eabb52f8843cd4e9965" target="_top" xlink:title="Give the a coord object that represent the size of 1 element inside BitVector::_data.">
<polygon fill="white" stroke="#666666" points="941.5,-152.51 810.5,-152.51 810.5,-133.51 941.5,-133.51 941.5,-152.51"/>
<text text-anchor="middle" x="876" y="-140.51" font-family="Helvetica,sans-Serif" font-size="10.00">BitVector::getCoordUnit</text>
</a>
</g>
</g>
<!-- Node5&#45;&gt;Node6 -->
<g id="edge7_Node000005_Node000006" class="edge">
<title>Node5&#45;&gt;Node6</title>
<g id="a_edge7_Node000005_Node000006"><a xlink:title=" ">
<path fill="none" stroke="#63b8ff" d="M721.69,-125.73C745.34,-128.39 773.96,-131.62 800.04,-134.56"/>
<polygon fill="#63b8ff" stroke="#63b8ff" points="799.94,-138.07 810.27,-135.71 800.73,-131.11 799.94,-138.07"/>
</a>
</g>
</g>
<!-- Node7 -->
<g id="Node000007" class="node">
<title>Node7</title>
<g id="a_Node000007"><a xlink:href="class_bit_vector_1_1_coords.html#a3a4fac9de925974af9c8a66a1d0179e6" target="_top" xlink:title="Translate octet and bit value inside a size_t. Allow easier mathematic computations.">
<polygon fill="white" stroke="#666666" points="929.5,-115.01 822.5,-115.01 822.5,-85.01 929.5,-85.01 929.5,-115.01"/>
<text text-anchor="start" x="830.5" y="-103.01" font-family="Helvetica,sans-Serif" font-size="10.00">BitVector::Coords::</text>
<text text-anchor="middle" x="876" y="-92.01" font-family="Helvetica,sans-Serif" font-size="10.00">toSize_t</text>
</a>
</g>
</g>
<!-- Node5&#45;&gt;Node7 -->
<g id="edge9_Node000005_Node000007" class="edge">
<title>Node5&#45;&gt;Node7</title>
<g id="a_edge9_Node000005_Node000007"><a xlink:title=" ">
<path fill="none" stroke="#63b8ff" d="M721.69,-115.04C749.13,-112.35 783.28,-109 812.38,-106.15"/>
<polygon fill="#63b8ff" stroke="#63b8ff" points="812.83,-109.62 822.44,-105.16 812.14,-102.66 812.83,-109.62"/>
</a>
</g>
</g>
<!-- Node6&#45;&gt;Node2 -->
<g id="edge8_Node000006_Node000002" class="edge">
<title>Node6&#45;&gt;Node2</title>
<g id="a_edge8_Node000006_Node000002"><a xlink:title=" ">
<path fill="none" stroke="#63b8ff" d="M941.63,-143.01C954.68,-143.01 968.22,-143.01 980.71,-143.01"/>
<polygon fill="#63b8ff" stroke="#63b8ff" points="980.93,-146.51 990.93,-143.01 980.93,-139.51 980.93,-146.51"/>
</a>
</g>
</g>
<!-- Node8&#45;&gt;Node5 -->
<g id="edge11_Node000008_Node000005" class="edge">
<title>Node8&#45;&gt;Node5</title>
<g id="a_edge11_Node000008_Node000005"><a xlink:title=" ">
<path fill="none" stroke="#63b8ff" d="M543.08,-108.79C564.61,-110.71 587.74,-112.77 608.24,-114.6"/>
<polygon fill="#63b8ff" stroke="#63b8ff" points="608.11,-118.1 618.38,-115.5 608.73,-111.13 608.11,-118.1"/>
</a>
</g>
</g>
<!-- Node9 -->
<g id="Node000009" class="node">
<title>Node9</title>
<g id="a_Node000009"><a xlink:href="class_bit_vector.html#a68b14af0886039ddcf55c82a250deb4c" target="_top" xlink:title="How many element can be contained in this kind of object.">
<polygon fill="white" stroke="#666666" points="955,-67.01 797,-67.01 797,-37.01 955,-37.01 955,-67.01"/>
<text text-anchor="start" x="805" y="-55.01" font-family="Helvetica,sans-Serif" font-size="10.00">BitVector::maximumElement</text>
<text text-anchor="middle" x="876" y="-44.01" font-family="Helvetica,sans-Serif" font-size="10.00">Number</text>
</a>
</g>
</g>
<!-- Node8&#45;&gt;Node9 -->
<g id="edge12_Node000008_Node000009" class="edge">
<title>Node8&#45;&gt;Node9</title>
<g id="a_edge12_Node000008_Node000009"><a xlink:title=" ">
<path fill="none" stroke="#63b8ff" d="M543.26,-92.66C612.32,-84.2 714.06,-71.73 786.64,-62.84"/>
<polygon fill="#63b8ff" stroke="#63b8ff" points="787.18,-66.3 796.68,-61.61 786.33,-59.35 787.18,-66.3"/>
</a>
</g>
</g>
<!-- Node10 -->
<g id="Node000010" class="node">
<title>Node10</title>
<g id="a_Node000010"><a xlink:href="class_bit_vector.html#aa3228d2bacb1bb0f6072d73d43a49456" target="_top" xlink:title="How many octet can be contained in this kind of object.">
<polygon fill="white" stroke="#666666" points="761,-33.51 579,-33.51 579,-14.51 761,-14.51 761,-33.51"/>
<text text-anchor="middle" x="670" y="-21.51" font-family="Helvetica,sans-Serif" font-size="10.00">BitVector::maximumOctetNumber</text>
</a>
</g>
</g>
<!-- Node8&#45;&gt;Node10 -->
<g id="edge14_Node000008_Node000010" class="edge">
<title>Node8&#45;&gt;Node10</title>
<g id="a_edge14_Node000008_Node000010"><a xlink:title=" ">
<path fill="none" stroke="#63b8ff" d="M485.26,-92.47C507.13,-81.3 545.07,-62.7 579,-50.01 592.48,-44.97 607.4,-40.3 621.15,-36.36"/>
<polygon fill="#63b8ff" stroke="#63b8ff" points="622.24,-39.69 630.92,-33.62 620.35,-32.95 622.24,-39.69"/>
</a>
</g>
</g>
<!-- Node9&#45;&gt;Node2 -->
<g id="edge13_Node000009_Node000002" class="edge">
<title>Node9&#45;&gt;Node2</title>
<g id="a_edge13_Node000009_Node000002"><a xlink:title=" ">
<path fill="none" stroke="#63b8ff" d="M935.63,-67.07C942.34,-69.66 948.94,-72.63 955,-76.01 978.68,-89.22 1001.47,-110.69 1015.93,-125.76"/>
<polygon fill="#63b8ff" stroke="#63b8ff" points="1013.67,-128.46 1023.05,-133.38 1018.78,-123.68 1013.67,-128.46"/>
</a>
</g>
</g>
<!-- Node10&#45;&gt;Node2 -->
<g id="edge15_Node000010_Node000002" class="edge">
<title>Node10&#45;&gt;Node2</title>
<g id="a_edge15_Node000010_Node000002"><a xlink:title=" ">
<path fill="none" stroke="#63b8ff" d="M706.85,-14.48C763.47,-1.52 875.33,15.4 955,-28.01 992.73,-48.57 1015.13,-96.7 1025.17,-123.73"/>
<polygon fill="#63b8ff" stroke="#63b8ff" points="1021.9,-124.99 1028.52,-133.26 1028.5,-122.66 1021.9,-124.99"/>
</a>
</g>
</g>
</g>
</svg>

<g id="navigator" transform="translate(0 0)" fill="#404254">
  <rect fill="#f2f5e9" fill-opacity="0.5" stroke="#606060" stroke-width=".5" x="0" y="0" width="60" height="60"/>
  <use id="zoomplus" xlink:href="#zoomPlus" x="17" y="9" onmousedown="handleZoom(evt,'in')"/>
  <use id="zoomminus" xlink:href="#zoomMin" x="42" y="9" onmousedown="handleZoom(evt,'out')"/>
  <use id="reset" xlink:href="#resetDef" x="30" y="36" onmousedown="handleReset()"/>
   <use id="arrowup" xlink:href="#arrowUp" x="0" y="0" onmousedown="handlePan(0,-1)"/>
  <use id="arrowright" xlink:href="#arrowRight" x="0" y="0" onmousedown="handlePan(1,0)"/>
  <use id="arrowdown" xlink:href="#arrowDown" x="0" y="0" onmousedown="handlePan(0,1)"/>
  <use id="arrowleft" xlink:href="#arrowLeft" x="0" y="0" onmousedown="handlePan(-1,0)"/>
</g>
<svg viewBox="0 0 15 15" width="100%" height="30px" preserveAspectRatio="xMaxYMin meet">
 <g id="arrow_out" transform="scale(0.3 0.3)">
  <a xlink:href="class_bit_vector_a93ab8bc2ec39bf299ae28ffcad504b41_cgraph_org.svg" target="_base">
   <rect id="button" ry="5" rx="5" y="6" x="6" height="38" width="38"
        fill="#f2f5e9" fill-opacity="0.5" stroke="#606060" stroke-width="1.0"/>
   <path id="arrow"
     d="M 11.500037,31.436501 C 11.940474,20.09759 22.043105,11.32322 32.158766,21.979434 L 37.068811,17.246167 C 37.068811,17.246167 37.088388,32 37.088388,32 L 22.160133,31.978069 C 22.160133,31.978069 26.997745,27.140456 26.997745,27.140456 C 18.528582,18.264221 13.291696,25.230495 11.500037,31.436501 z"
     style="fill:#404040;"/>
  </a>
 </g>
</svg>

<style type='text/css'>
<![CDATA[
[data-mouse-over-selected='false'] { opacity: 0.7; }
[data-mouse-over-selected='true']  { opacity: 1.0; }
]]>
</style>
<script type="application/ecmascript"><![CDATA[
document.addEventListener('DOMContentLoaded', (event) => {
  highlightEdges();
  highlightAdjacentNodes();
});
]]></script>
</svg>
