<?xml version="1.0" encoding="UTF-8" standalone="no"?>
<!DOCTYPE svg PUBLIC "-//W3C//DTD SVG 1.1//EN"
 "http://www.w3.org/Graphics/SVG/1.1/DTD/svg11.dtd">
<!-- Generated by graphviz version 2.43.0 (0)
 -->
<!-- Title: Sequence::SequenceSymbol::correspondTo Pages: 1 -->
<svg width="1081pt" height="138pt"
 viewBox="0.00 0.00 1081.00 138.00" xmlns="http://www.w3.org/2000/svg" xmlns:xlink="http://www.w3.org/1999/xlink">
<g id="graph0" class="graph" transform="scale(1 1) rotate(0) translate(4 134)">
<title>Sequence::SequenceSymbol::correspondTo</title>
<!-- Node1 -->
<g id="Node000001" class="node">
<title>Node1</title>
<g id="a_Node000001"><a xlink:title="Do this object correspond to another char ?">
<polygon fill="#999999" stroke="#666666" points="154,-43.5 0,-43.5 0,-13.5 154,-13.5 154,-43.5"/>
<text text-anchor="start" x="8" y="-31.5" font-family="Helvetica,sans-Serif" font-size="10.00">Sequence::SequenceSymbol</text>
<text text-anchor="middle" x="77" y="-20.5" font-family="Helvetica,sans-Serif" font-size="10.00">::correspondTo</text>
</a>
</g>
</g>
<!-- Node2 -->
<g id="Node000002" class="node">
<title>Node2</title>
<g id="a_Node000002"><a xlink:href="class_sequence.html#ad40777fd2f7ad3ae247fab02459e6759" target="_top" xlink:title="Retrieve the symbol at the position in the sequence.">
<polygon fill="white" stroke="#666666" points="276,-38 190,-38 190,-19 276,-19 276,-38"/>
<text text-anchor="middle" x="233" y="-26" font-family="Helvetica,sans-Serif" font-size="10.00">Sequence::get</text>
</a>
</g>
</g>
<!-- Node1&#45;&gt;Node2 -->
<g id="edge1_Node000001_Node000002" class="edge">
<title>Node1&#45;&gt;Node2</title>
<g id="a_edge1_Node000001_Node000002"><a xlink:title=" ">
<path fill="none" stroke="#63b8ff" d="M154.1,-28.5C162.73,-28.5 171.38,-28.5 179.6,-28.5"/>
<polygon fill="#63b8ff" stroke="#63b8ff" points="179.77,-32 189.77,-28.5 179.77,-25 179.77,-32"/>
</a>
</g>
</g>
<!-- Node2&#45;&gt;Node2 -->
<g id="edge5_Node000002_Node000002" class="edge">
<title>Node2&#45;&gt;Node2</title>
<g id="a_edge5_Node000002_Node000002"><a xlink:title=" ">
<path fill="none" stroke="#63b8ff" d="M209.26,-38.08C197.72,-46.73 205.63,-56 233,-56 250.96,-56 260.54,-52.01 261.75,-46.82"/>
<polygon fill="#63b8ff" stroke="#63b8ff" points="264.75,-45.02 256.74,-38.08 258.67,-48.5 264.75,-45.02"/>
</a>
</g>
</g>
<!-- Node3 -->
<g id="Node000003" class="node">
<title>Node3</title>
<g id="a_Node000003"><a xlink:href="class_bit_vector.html#aebe159444eb9d619959b7325ac5dac2d" target="_top" xlink:title="Return the value of the bit at the position coord.">
<polygon fill="white" stroke="#666666" points="429.5,-112 346.5,-112 346.5,-93 429.5,-93 429.5,-112"/>
<text text-anchor="middle" x="388" y="-100" font-family="Helvetica,sans-Serif" font-size="10.00">BitVector::get</text>
</a>
</g>
</g>
<!-- Node2&#45;&gt;Node3 -->
<g id="edge2_Node000002_Node000003" class="edge">
<title>Node2&#45;&gt;Node3</title>
<g id="a_edge2_Node000002_Node000003"><a xlink:title=" ">
<path fill="none" stroke="#63b8ff" d="M244.76,-38.34C259.07,-50.9 285.62,-72.43 312,-84.5 319.7,-88.02 328.18,-90.91 336.57,-93.25"/>
<polygon fill="#63b8ff" stroke="#63b8ff" points="335.78,-96.66 346.34,-95.75 337.52,-89.88 335.78,-96.66"/>
</a>
</g>
</g>
<!-- Node5 -->
<g id="Node000005" class="node">
<title>Node5</title>
<g id="a_Node000005"><a xlink:href="class_sequence.html#a8181f024304b3fb5f55c7118f648cc61" target="_top" xlink:title="Return a char (same format as Sequence::getType()) that indicate which alphabet is used in the during...">
<polygon fill="white" stroke="#666666" points="464,-75 312,-75 312,-56 464,-56 464,-75"/>
<text text-anchor="middle" x="388" y="-63" font-family="Helvetica,sans-Serif" font-size="10.00">Sequence::getEncodingType</text>
</a>
</g>
</g>
<!-- Node2&#45;&gt;Node5 -->
<g id="edge6_Node000002_Node000005" class="edge">
<title>Node2&#45;&gt;Node5</title>
<g id="a_edge6_Node000002_Node000005"><a xlink:title=" ">
<path fill="none" stroke="#63b8ff" d="M273.27,-38.09C285.66,-41.11 299.4,-44.45 312,-47.5 320.23,-49.49 328.97,-51.6 337.47,-53.64"/>
<polygon fill="#63b8ff" stroke="#63b8ff" points="336.75,-57.06 347.29,-56 338.39,-50.26 336.75,-57.06"/>
</a>
</g>
</g>
<!-- Node6 -->
<g id="Node000006" class="node">
<title>Node6</title>
<g id="a_Node000006"><a xlink:href="class_sequence.html#a49a9126010c0332493c803ddca005394" target="_top" xlink:title="Give a map that compress / decompress char used by Sequence.">
<polygon fill="white" stroke="#666666" points="457.5,-38 318.5,-38 318.5,-19 457.5,-19 457.5,-38"/>
<text text-anchor="middle" x="388" y="-26" font-family="Helvetica,sans-Serif" font-size="10.00">Sequence::translationTab</text>
</a>
</g>
</g>
<!-- Node2&#45;&gt;Node6 -->
<g id="edge7_Node000002_Node000006" class="edge">
<title>Node2&#45;&gt;Node6</title>
<g id="a_edge7_Node000002_Node000006"><a xlink:title=" ">
<path fill="none" stroke="#63b8ff" d="M276.21,-22.39C286.24,-21.99 297.25,-21.78 308.32,-21.75"/>
<polygon fill="#63b8ff" stroke="#63b8ff" points="308.47,-25.25 318.48,-21.78 308.49,-18.25 308.47,-25.25"/>
</a>
</g>
</g>
<!-- Node3&#45;&gt;Node3 -->
<g id="edge3_Node000003_Node000003" class="edge">
<title>Node3&#45;&gt;Node3</title>
<g id="a_edge3_Node000003_Node000003"><a xlink:title=" ">
<path fill="none" stroke="#63b8ff" d="M364.26,-112.08C352.72,-120.73 360.63,-130 388,-130 405.96,-130 415.54,-126.01 416.75,-120.82"/>
<polygon fill="#63b8ff" stroke="#63b8ff" points="419.75,-119.02 411.74,-112.08 413.67,-122.5 419.75,-119.02"/>
</a>
</g>
</g>
<!-- Node4 -->
<g id="Node000004" class="node">
<title>Node4</title>
<g id="a_Node000004"><a xlink:href="class_bit_vector_1_1_coords.html#a2892f7f46c4af93f9733e312229d8ec1" target="_top" xlink:title="Get Coords::octet .">
<polygon fill="white" stroke="#666666" points="617.5,-117.5 510.5,-117.5 510.5,-87.5 617.5,-87.5 617.5,-117.5"/>
<text text-anchor="start" x="518.5" y="-105.5" font-family="Helvetica,sans-Serif" font-size="10.00">BitVector::Coords::</text>
<text text-anchor="middle" x="564" y="-94.5" font-family="Helvetica,sans-Serif" font-size="10.00">getOctet</text>
</a>
</g>
</g>
<!-- Node3&#45;&gt;Node4 -->
<g id="edge4_Node000003_Node000004" class="edge">
<title>Node3&#45;&gt;Node4</title>
<g id="a_edge4_Node000003_Node000004"><a xlink:title=" ">
<path fill="none" stroke="#63b8ff" d="M429.8,-102.5C450.71,-102.5 476.64,-102.5 500.05,-102.5"/>
<polygon fill="#63b8ff" stroke="#63b8ff" points="500.25,-106 510.25,-102.5 500.25,-99 500.25,-106"/>
</a>
</g>
</g>
<!-- Node6&#45;&gt;Node2 -->
<g id="edge13_Node000006_Node000002" class="edge">
<title>Node6&#45;&gt;Node2</title>
<g id="a_edge13_Node000006_Node000002"><a xlink:title=" ">
<path fill="none" stroke="#63b8ff" d="M318.48,-35.22C307.68,-35.31 296.67,-35.21 286.32,-34.94"/>
<polygon fill="#63b8ff" stroke="#63b8ff" points="286.32,-31.44 276.21,-34.61 286.09,-38.44 286.32,-31.44"/>
</a>
</g>
</g>
<!-- Node7 -->
<g id="Node000007" class="node">
<title>Node7</title>
<g id="a_Node000007"><a xlink:href="class_sequence.html#a555c6e58957c4d07028eb5c67b1732ac" target="_top" xlink:title="Function used by Sequence::translationTab to create their compression map.">
<polygon fill="white" stroke="#666666" points="628,-19 500,-19 500,0 628,0 628,-19"/>
<text text-anchor="middle" x="564" y="-7" font-family="Helvetica,sans-Serif" font-size="10.00">Sequence::fillCodeMap</text>
</a>
</g>
</g>
<!-- Node6&#45;&gt;Node7 -->
<g id="edge8_Node000006_Node000007" class="edge">
<title>Node6&#45;&gt;Node7</title>
<g id="a_edge8_Node000006_Node000007"><a xlink:title=" ">
<path fill="none" stroke="#63b8ff" d="M457.77,-20.99C468.28,-19.84 479.16,-18.65 489.76,-17.5"/>
<polygon fill="#63b8ff" stroke="#63b8ff" points="490.26,-20.96 499.82,-16.4 489.5,-14.01 490.26,-20.96"/>
</a>
</g>
</g>
<!-- Node7&#45;&gt;Node2 -->
<g id="edge9_Node000007_Node000002" class="edge">
<title>Node7&#45;&gt;Node2</title>
<g id="a_edge9_Node000007_Node000002"><a xlink:title=" ">
<path fill="none" stroke="#63b8ff" d="M499.83,-5.35C448.92,-3 375.6,-1.87 312,-9.5 300.01,-10.94 287.21,-13.58 275.51,-16.44"/>
<polygon fill="#63b8ff" stroke="#63b8ff" points="274.38,-13.12 265.56,-18.99 276.12,-19.9 274.38,-13.12"/>
</a>
</g>
</g>
<!-- Node8 -->
<g id="Node000008" class="node">
<title>Node8</title>
<g id="a_Node000008"><a xlink:href="class_sequence.html#acf21040958590f98163b3d11f19ea93e" target="_top" xlink:title="Give the number of element contained in this sequence.">
<polygon fill="white" stroke="#666666" points="753,-19 664,-19 664,0 753,0 753,-19"/>
<text text-anchor="middle" x="708.5" y="-7" font-family="Helvetica,sans-Serif" font-size="10.00">Sequence::size</text>
</a>
</g>
</g>
<!-- Node7&#45;&gt;Node8 -->
<g id="edge10_Node000007_Node000008" class="edge">
<title>Node7&#45;&gt;Node8</title>
<g id="a_edge10_Node000007_Node000008"><a xlink:title=" ">
<path fill="none" stroke="#63b8ff" d="M628.33,-9.5C636.8,-9.5 645.42,-9.5 653.7,-9.5"/>
<polygon fill="#63b8ff" stroke="#63b8ff" points="653.98,-13 663.98,-9.5 653.98,-6 653.98,-13"/>
</a>
</g>
</g>
<!-- Node9 -->
<g id="Node000009" class="node">
<title>Node9</title>
<g id="a_Node000009"><a xlink:href="class_bit_vector.html#ab30ea2b408107e4e6bc8095b5a64a1dd" target="_top" xlink:title="Number of element inside this object.">
<polygon fill="white" stroke="#666666" points="875,-19 789,-19 789,0 875,0 875,-19"/>
<text text-anchor="middle" x="832" y="-7" font-family="Helvetica,sans-Serif" font-size="10.00">BitVector::size</text>
</a>
</g>
</g>
<!-- Node8&#45;&gt;Node9 -->
<g id="edge11_Node000008_Node000009" class="edge">
<title>Node8&#45;&gt;Node9</title>
<g id="a_edge11_Node000008_Node000009"><a xlink:title=" ">
<path fill="none" stroke="#63b8ff" d="M753.02,-9.5C761.25,-9.5 769.94,-9.5 778.41,-9.5"/>
<polygon fill="#63b8ff" stroke="#63b8ff" points="778.6,-13 788.6,-9.5 778.6,-6 778.6,-13"/>
</a>
</g>
</g>
<!-- Node10 -->
<g id="Node000010" class="node">
<title>Node10</title>
<g id="a_Node000010"><a xlink:href="class_bit_vector.html#a5339660cfb315ab5de7f78bdf5af4ce1" target="_top" xlink:title="Get BitVector::_element_number.">
<polygon fill="white" stroke="#666666" points="1073,-19 911,-19 911,0 1073,0 1073,-19"/>
<text text-anchor="middle" x="992" y="-7" font-family="Helvetica,sans-Serif" font-size="10.00">BitVector::getElementNumber</text>
</a>
</g>
</g>
<!-- Node9&#45;&gt;Node10 -->
<g id="edge12_Node000009_Node000010" class="edge">
<title>Node9&#45;&gt;Node10</title>
<g id="a_edge12_Node000009_Node000010"><a xlink:title=" ">
<path fill="none" stroke="#63b8ff" d="M875.34,-9.5C883.23,-9.5 891.74,-9.5 900.44,-9.5"/>
<polygon fill="#63b8ff" stroke="#63b8ff" points="900.71,-13 910.71,-9.5 900.71,-6 900.71,-13"/>
</a>
</g>
</g>
</g>
</svg>
