<?xml version="1.0" encoding="UTF-8" standalone="no"?>
<!DOCTYPE svg PUBLIC "-//W3C//DTD SVG 1.1//EN"
 "http://www.w3.org/Graphics/SVG/1.1/DTD/svg11.dtd">
<!-- Generated by graphviz version 2.43.0 (0)
 -->
<!-- Title: Sequence::insert Pages: 1 -->
<!--zoomable 749 -->

<svg id="main" version="1.1" xmlns="http://www.w3.org/2000/svg" xmlns:xlink="http://www.w3.org/1999/xlink" xml:space="preserve" onload="init(evt)">
<style type="text/css"><![CDATA[
.node, .edge {opacity: 0.7;}
.node.selected, .edge.selected {opacity: 1;}
.edge:hover path { stroke: red; }
.edge:hover polygon { stroke: red; fill: red; }
]]></style>

<defs>
  <circle id="rim" cx="0" cy="0" r="7"/>
  <circle id="rim2" cx="0" cy="0" r="3.5"/>
  <g id="zoomPlus">
    <use xlink:href="#rim" fill="#404040"><set attributeName="fill" to="#808080" begin="zoomplus.mouseover" end="zoomplus.mouseout"/></use>
    <path d="M-4,0h8M0,-4v8" fill="none" stroke="white" stroke-width="1.5" pointer-events="none"/>
  </g>
  <g id="zoomMin">
    <use xlink:href="#rim" fill="#404040"><set attributeName="fill" to="#808080" begin="zoomminus.mouseover" end="zoomminus.mouseout"/></use>
    <path d="M-4,0h8" fill="none" stroke="white" stroke-width="1.5" pointer-events="none"/>
  </g>
  <g id="arrowUp" transform="translate(30 24)">
    <use xlink:href="#rim"/>
    <path pointer-events="none" fill="none" stroke="white" stroke-width="1.5" d="M0,-3.0v7 M-2.5,-0.5L0,-3.0L2.5,-0.5"/>
  </g>
  <g id="arrowRight" transform="rotate(90) translate(36 -43)">
    <use xlink:href="#rim"/>
    <path pointer-events="none" fill="none" stroke="white" stroke-width="1.5" d="M0,-3.0v7 M-2.5,-0.5L0,-3.0L2.5,-0.5"/>
  </g>
  <g id="arrowDown" transform="rotate(180) translate(-30 -48)">
    <use xlink:href="#rim"/>
    <path pointer-events="none" fill="none" stroke="white" stroke-width="1.5" d="M0,-3.0v7 M-2.5,-0.5L0,-3.0L2.5,-0.5"/>
  </g>
  <g id="arrowLeft" transform="rotate(270) translate(-36 17)">
    <use xlink:href="#rim"/>
    <path pointer-events="none" fill="none" stroke="white" stroke-width="1.5" d="M0,-3.0v7 M-2.5,-0.5L0,-3.0L2.5,-0.5"/>
  </g>
  <g id="resetDef">
    <use xlink:href="#rim2" fill="#404040"><set attributeName="fill" to="#808080" begin="reset.mouseover" end="reset.mouseout"/></use>
  </g>
</defs>
<script type="application/ecmascript">
var viewWidth = 1974;
var viewHeight = 749;
var sectionId = 'dynsection-21';
</script>
<script type="application/ecmascript" xlink:href="svg.min.js"/>
<svg id="graph" class="graph">
<g id="viewport">
<title>Sequence::insert</title>
<!-- Node1 -->
<g id="Node000001" class="node">
<title>Node1</title>
<g id="a_Node000001"><a xlink:title="Insert a number of chars at the position position .">
<polygon fill="#999999" stroke="#666666" points="98,-529.44 0,-529.44 0,-510.44 98,-510.44 98,-529.44"/>
<text text-anchor="middle" x="49" y="-517.44" font-family="Helvetica,sans-Serif" font-size="10.00">Sequence::insert</text>
</a>
</g>
</g>
<!-- Node2 -->
<g id="Node000002" class="node">
<title>Node2</title>
<g id="a_Node000002"><a xlink:href="class_sequence.html#ad40777fd2f7ad3ae247fab02459e6759" target="_top" xlink:title="Retrieve the symbol at the position in the sequence.">
<polygon fill="white" stroke="#666666" points="266,-668.44 180,-668.44 180,-649.44 266,-649.44 266,-668.44"/>
<text text-anchor="middle" x="223" y="-656.44" font-family="Helvetica,sans-Serif" font-size="10.00">Sequence::get</text>
</a>
</g>
</g>
<!-- Node1&#45;&gt;Node2 -->
<g id="edge1_Node000001_Node000002" class="edge">
<title>Node1&#45;&gt;Node2</title>
<g id="a_edge1_Node000001_Node000002"><a xlink:title=" ">
<path fill="none" stroke="#63b8ff" d="M61.82,-529.49C90.91,-553 166.21,-613.85 202.23,-642.96"/>
<polygon fill="#63b8ff" stroke="#63b8ff" points="200.12,-645.75 210.1,-649.32 204.52,-640.31 200.12,-645.75"/>
</a>
</g>
</g>
<!-- Node6 -->
<g id="Node000006" class="node">
<title>Node6</title>
<g id="a_Node000006"><a xlink:href="class_sequence.html#a49a9126010c0332493c803ddca005394" target="_top" xlink:title="Give a map that compress / decompress char used by Sequence.">
<polygon fill="white" stroke="#666666" points="493.5,-739.44 354.5,-739.44 354.5,-720.44 493.5,-720.44 493.5,-739.44"/>
<text text-anchor="middle" x="424" y="-727.44" font-family="Helvetica,sans-Serif" font-size="10.00">Sequence::translationTab</text>
</a>
</g>
</g>
<!-- Node1&#45;&gt;Node6 -->
<g id="edge56_Node000001_Node000006" class="edge">
<title>Node1&#45;&gt;Node6</title>
<g id="a_edge56_Node000001_Node000006"><a xlink:title=" ">
<path fill="none" stroke="#63b8ff" d="M51.38,-529.55C56.25,-559.74 75.66,-653.12 134,-694.94 194.7,-738.45 281.62,-743.39 344.26,-739.79"/>
<polygon fill="#63b8ff" stroke="#63b8ff" points="344.74,-743.27 354.49,-739.12 344.28,-736.28 344.74,-743.27"/>
</a>
</g>
</g>
<!-- Node11 -->
<g id="Node000011" class="node">
<title>Node11</title>
<g id="a_Node000011"><a xlink:href="class_bit_vector.html#a686af396e4dff1536b7588213726c4cc" target="_top" xlink:title="Insert a number of blank position inside BitVector::_data.">
<polygon fill="white" stroke="#666666" points="312,-529.44 134,-529.44 134,-510.44 312,-510.44 312,-529.44"/>
<text text-anchor="middle" x="223" y="-517.44" font-family="Helvetica,sans-Serif" font-size="10.00">BitVector::makeRoomForElement</text>
</a>
</g>
</g>
<!-- Node1&#45;&gt;Node11 -->
<g id="edge14_Node000001_Node000011" class="edge">
<title>Node1&#45;&gt;Node11</title>
<g id="a_edge14_Node000001_Node000011"><a xlink:title=" ">
<path fill="none" stroke="#63b8ff" d="M98.37,-519.94C106.45,-519.94 115.09,-519.94 123.9,-519.94"/>
<polygon fill="#63b8ff" stroke="#63b8ff" points="123.91,-523.44 133.91,-519.94 123.91,-516.44 123.91,-523.44"/>
</a>
</g>
</g>
<!-- Node13 -->
<g id="Node000013" class="node">
<title>Node13</title>
<g id="a_Node000013"><a xlink:href="class_bit_vector.html#aca24053f655c825de0f06ec86fff1cec" target="_top" xlink:title="Replace an element by another element. Can add an element to the list if index = BitVector::_element_...">
<polygon fill="white" stroke="#666666" points="657.5,-409.44 575.5,-409.44 575.5,-390.44 657.5,-390.44 657.5,-409.44"/>
<text text-anchor="middle" x="616.5" y="-397.44" font-family="Helvetica,sans-Serif" font-size="10.00">BitVector::set</text>
</a>
</g>
</g>
<!-- Node1&#45;&gt;Node13 -->
<g id="edge55_Node000001_Node000013" class="edge">
<title>Node1&#45;&gt;Node13</title>
<g id="a_edge55_Node000001_Node000013"><a xlink:title=" ">
<path fill="none" stroke="#63b8ff" d="M82.84,-510.38C137.48,-494.71 250.71,-463.28 348,-442.94 423.26,-427.2 511.48,-414.03 565.42,-406.56"/>
<polygon fill="#63b8ff" stroke="#63b8ff" points="565.97,-410.02 575.4,-405.19 565.02,-403.08 565.97,-410.02"/>
</a>
</g>
</g>
<!-- Node26 -->
<g id="Node000026" class="node">
<title>Node26</title>
<g id="a_Node000026"><a xlink:href="class_bit_vector.html#a87f84edf5dd56606b26e8741ba6ced02" target="_top" xlink:title="Remove a number of element from the vector.">
<polygon fill="white" stroke="#666666" points="476,-255.44 372,-255.44 372,-236.44 476,-236.44 476,-255.44"/>
<text text-anchor="middle" x="424" y="-243.44" font-family="Helvetica,sans-Serif" font-size="10.00">BitVector::remove</text>
</a>
</g>
</g>
<!-- Node1&#45;&gt;Node26 -->
<g id="edge42_Node000001_Node000026" class="edge">
<title>Node1&#45;&gt;Node26</title>
<g id="a_edge42_Node000001_Node000026"><a xlink:title=" ">
<path fill="none" stroke="#63b8ff" d="M55.41,-510.18C67.34,-489.3 97.79,-439.64 134,-407.94 215,-337.02 332.05,-283.21 389.13,-259.39"/>
<polygon fill="#63b8ff" stroke="#63b8ff" points="390.5,-262.61 398.41,-255.56 387.83,-256.14 390.5,-262.61"/>
</a>
</g>
</g>
<!-- Node2&#45;&gt;Node2 -->
<g id="edge5_Node000002_Node000002" class="edge">
<title>Node2&#45;&gt;Node2</title>
<g id="a_edge5_Node000002_Node000002"><a xlink:title=" ">
<path fill="none" stroke="#63b8ff" d="M196.18,-668.52C183.13,-677.17 192.07,-686.44 223,-686.44 243.78,-686.44 254.63,-682.26 255.56,-676.89"/>
<polygon fill="#63b8ff" stroke="#63b8ff" points="258.36,-674.79 249.82,-668.52 252.59,-678.75 258.36,-674.79"/>
</a>
</g>
</g>
<!-- Node3 -->
<g id="Node000003" class="node">
<title>Node3</title>
<g id="a_Node000003"><a xlink:href="class_bit_vector.html#aebe159444eb9d619959b7325ac5dac2d" target="_top" xlink:title="Return the value of the bit at the position coord.">
<polygon fill="white" stroke="#666666" points="1823,-377.44 1740,-377.44 1740,-358.44 1823,-358.44 1823,-377.44"/>
<text text-anchor="middle" x="1781.5" y="-365.44" font-family="Helvetica,sans-Serif" font-size="10.00">BitVector::get</text>
</a>
</g>
</g>
<!-- Node2&#45;&gt;Node3 -->
<g id="edge2_Node000002_Node000003" class="edge">
<title>Node2&#45;&gt;Node3</title>
<g id="a_edge2_Node000002_Node000003"><a xlink:title=" ">
<path fill="none" stroke="#63b8ff" d="M266.26,-649.45C290.14,-644.42 320.61,-638.55 348,-634.94 466.17,-619.36 496.31,-615.94 615.5,-615.94 615.5,-615.94 615.5,-615.94 1420,-615.94 1547.8,-615.94 1604.93,-651.67 1704,-570.94 1761.64,-523.96 1775.88,-428.7 1779.37,-387.57"/>
<polygon fill="#63b8ff" stroke="#63b8ff" points="1782.87,-387.72 1780.1,-377.49 1775.89,-387.22 1782.87,-387.72"/>
</a>
</g>
</g>
<!-- Node5 -->
<g id="Node000005" class="node">
<title>Node5</title>
<g id="a_Node000005"><a xlink:href="class_sequence.html#a8181f024304b3fb5f55c7118f648cc61" target="_top" xlink:title="Return a char (same format as Sequence::getType()) that indicate which alphabet is used in the during...">
<polygon fill="white" stroke="#666666" points="500,-663.44 348,-663.44 348,-644.44 500,-644.44 500,-663.44"/>
<text text-anchor="middle" x="424" y="-651.44" font-family="Helvetica,sans-Serif" font-size="10.00">Sequence::getEncodingType</text>
</a>
</g>
</g>
<!-- Node2&#45;&gt;Node5 -->
<g id="edge6_Node000002_Node000005" class="edge">
<title>Node2&#45;&gt;Node5</title>
<g id="a_edge6_Node000002_Node000005"><a xlink:title=" ">
<path fill="none" stroke="#63b8ff" d="M266.2,-657.88C287.06,-657.35 313.01,-656.7 337.76,-656.08"/>
<polygon fill="#63b8ff" stroke="#63b8ff" points="338,-659.58 347.91,-655.83 337.82,-652.58 338,-659.58"/>
</a>
</g>
</g>
<!-- Node2&#45;&gt;Node6 -->
<g id="edge7_Node000002_Node000006" class="edge">
<title>Node2&#45;&gt;Node6</title>
<g id="a_edge7_Node000002_Node000006"><a xlink:title=" ">
<path fill="none" stroke="#63b8ff" d="M266.27,-667.66C290.15,-675.84 320.61,-687.37 348,-696.94 366.25,-703.31 387.21,-709.96 402.33,-716.16"/>
<polygon fill="#63b8ff" stroke="#63b8ff" points="401.2,-719.49 411.76,-720.37 404.05,-713.1 401.2,-719.49"/>
</a>
</g>
</g>
<!-- Node3&#45;&gt;Node3 -->
<g id="edge3_Node000003_Node000003" class="edge">
<title>Node3&#45;&gt;Node3</title>
<g id="a_edge3_Node000003_Node000003"><a xlink:title=" ">
<path fill="none" stroke="#63b8ff" d="M1761.46,-377.52C1751.72,-386.17 1758.39,-395.44 1781.5,-395.44 1796.3,-395.44 1804.36,-391.64 1805.68,-386.63"/>
<polygon fill="#63b8ff" stroke="#63b8ff" points="1808.86,-385.17 1801.54,-377.52 1802.49,-388.07 1808.86,-385.17"/>
</a>
</g>
</g>
<!-- Node4 -->
<g id="Node000004" class="node">
<title>Node4</title>
<g id="a_Node000004"><a xlink:href="class_bit_vector_1_1_coords.html#a2892f7f46c4af93f9733e312229d8ec1" target="_top" xlink:title="Get Coords::octet .">
<polygon fill="white" stroke="#666666" points="1966,-382.94 1859,-382.94 1859,-352.94 1966,-352.94 1966,-382.94"/>
<text text-anchor="start" x="1867" y="-370.94" font-family="Helvetica,sans-Serif" font-size="10.00">BitVector::Coords::</text>
<text text-anchor="middle" x="1912.5" y="-359.94" font-family="Helvetica,sans-Serif" font-size="10.00">getOctet</text>
</a>
</g>
</g>
<!-- Node3&#45;&gt;Node4 -->
<g id="edge4_Node000003_Node000004" class="edge">
<title>Node3&#45;&gt;Node4</title>
<g id="a_edge4_Node000003_Node000004"><a xlink:title=" ">
<path fill="none" stroke="#63b8ff" d="M1823.32,-367.94C1831.38,-367.94 1840.02,-367.94 1848.62,-367.94"/>
<polygon fill="#63b8ff" stroke="#63b8ff" points="1848.66,-371.44 1858.66,-367.94 1848.66,-364.44 1848.66,-371.44"/>
</a>
</g>
</g>
<!-- Node6&#45;&gt;Node2 -->
<g id="edge13_Node000006_Node000002" class="edge">
<title>Node6&#45;&gt;Node2</title>
<g id="a_edge13_Node000006_Node000002"><a xlink:title=" ">
<path fill="none" stroke="#63b8ff" d="M363.95,-720.33C358.54,-718.57 353.16,-716.74 348,-714.94 311.13,-702.06 268.68,-685.61 244.23,-673.36"/>
<polygon fill="#63b8ff" stroke="#63b8ff" points="245.68,-670.17 235.21,-668.56 242.39,-676.35 245.68,-670.17"/>
</a>
</g>
</g>
<!-- Node7 -->
<g id="Node000007" class="node">
<title>Node7</title>
<g id="a_Node000007"><a xlink:href="class_sequence.html#a555c6e58957c4d07028eb5c67b1732ac" target="_top" xlink:title="Function used by Sequence::translationTab to create their compression map.">
<polygon fill="white" stroke="#666666" points="680.5,-720.44 552.5,-720.44 552.5,-701.44 680.5,-701.44 680.5,-720.44"/>
<text text-anchor="middle" x="616.5" y="-708.44" font-family="Helvetica,sans-Serif" font-size="10.00">Sequence::fillCodeMap</text>
</a>
</g>
</g>
<!-- Node6&#45;&gt;Node7 -->
<g id="edge8_Node000006_Node000007" class="edge">
<title>Node6&#45;&gt;Node7</title>
<g id="a_edge8_Node000006_Node000007"><a xlink:title=" ">
<path fill="none" stroke="#63b8ff" d="M493.51,-723.11C509.26,-721.53 526.07,-719.86 542.02,-718.27"/>
<polygon fill="#63b8ff" stroke="#63b8ff" points="542.75,-721.71 552.36,-717.24 542.06,-714.75 542.75,-721.71"/>
</a>
</g>
</g>
<!-- Node7&#45;&gt;Node2 -->
<g id="edge9_Node000007_Node000002" class="edge">
<title>Node7&#45;&gt;Node2</title>
<g id="a_edge9_Node000007_Node000002"><a xlink:title=" ">
<path fill="none" stroke="#63b8ff" d="M552.49,-702.57C475.85,-692.39 347.89,-675.39 276.39,-665.9"/>
<polygon fill="#63b8ff" stroke="#63b8ff" points="276.64,-662.4 266.27,-664.55 275.72,-669.34 276.64,-662.4"/>
</a>
</g>
</g>
<!-- Node8 -->
<g id="Node000008" class="node">
<title>Node8</title>
<g id="a_Node000008"><a xlink:href="class_sequence.html#acf21040958590f98163b3d11f19ea93e" target="_top" xlink:title="Give the number of element contained in this sequence.">
<polygon fill="white" stroke="#666666" points="848.5,-720.44 759.5,-720.44 759.5,-701.44 848.5,-701.44 848.5,-720.44"/>
<text text-anchor="middle" x="804" y="-708.44" font-family="Helvetica,sans-Serif" font-size="10.00">Sequence::size</text>
</a>
</g>
</g>
<!-- Node7&#45;&gt;Node8 -->
<g id="edge10_Node000007_Node000008" class="edge">
<title>Node7&#45;&gt;Node8</title>
<g id="a_edge10_Node000007_Node000008"><a xlink:title=" ">
<path fill="none" stroke="#63b8ff" d="M680.56,-710.94C702.86,-710.94 727.71,-710.94 749.17,-710.94"/>
<polygon fill="#63b8ff" stroke="#63b8ff" points="749.4,-714.44 759.4,-710.94 749.4,-707.44 749.4,-714.44"/>
</a>
</g>
</g>
<!-- Node9 -->
<g id="Node000009" class="node">
<title>Node9</title>
<g id="a_Node000009"><a xlink:href="class_bit_vector.html#ab30ea2b408107e4e6bc8095b5a64a1dd" target="_top" xlink:title="Number of element inside this object.">
<polygon fill="white" stroke="#666666" points="1045.5,-720.44 959.5,-720.44 959.5,-701.44 1045.5,-701.44 1045.5,-720.44"/>
<text text-anchor="middle" x="1002.5" y="-708.44" font-family="Helvetica,sans-Serif" font-size="10.00">BitVector::size</text>
</a>
</g>
</g>
<!-- Node8&#45;&gt;Node9 -->
<g id="edge11_Node000008_Node000009" class="edge">
<title>Node8&#45;&gt;Node9</title>
<g id="a_edge11_Node000008_Node000009"><a xlink:title=" ">
<path fill="none" stroke="#63b8ff" d="M848.61,-710.94C878.27,-710.94 917.68,-710.94 949.05,-710.94"/>
<polygon fill="#63b8ff" stroke="#63b8ff" points="949.36,-714.44 959.36,-710.94 949.36,-707.44 949.36,-714.44"/>
</a>
</g>
</g>
<!-- Node10 -->
<g id="Node000010" class="node">
<title>Node10</title>
<g id="a_Node000010"><a xlink:href="class_bit_vector.html#a5339660cfb315ab5de7f78bdf5af4ce1" target="_top" xlink:title="Get BitVector::_element_number.">
<polygon fill="white" stroke="#666666" points="1292,-720.44 1130,-720.44 1130,-701.44 1292,-701.44 1292,-720.44"/>
<text text-anchor="middle" x="1211" y="-708.44" font-family="Helvetica,sans-Serif" font-size="10.00">BitVector::getElementNumber</text>
</a>
</g>
</g>
<!-- Node9&#45;&gt;Node10 -->
<g id="edge12_Node000009_Node000010" class="edge">
<title>Node9&#45;&gt;Node10</title>
<g id="a_edge12_Node000009_Node000010"><a xlink:title=" ">
<path fill="none" stroke="#63b8ff" d="M1045.54,-710.94C1066.88,-710.94 1093.68,-710.94 1119.42,-710.94"/>
<polygon fill="#63b8ff" stroke="#63b8ff" points="1119.6,-714.44 1129.6,-710.94 1119.6,-707.44 1119.6,-714.44"/>
</a>
</g>
</g>
<!-- Node11&#45;&gt;Node3 -->
<g id="edge39_Node000011_Node000003" class="edge">
<title>Node11&#45;&gt;Node3</title>
<g id="a_edge39_Node000011_Node000003"><a xlink:title=" ">
<path fill="none" stroke="#63b8ff" d="M261.23,-529.47C285.74,-535.47 318.62,-542.99 348,-547.94 465.97,-567.81 495.87,-577.94 615.5,-577.94 615.5,-577.94 615.5,-577.94 1420,-577.94 1548.01,-577.94 1601.98,-607.26 1704,-529.94 1750.99,-494.32 1770.34,-422.62 1777.21,-387.81"/>
<polygon fill="#63b8ff" stroke="#63b8ff" points="1780.74,-387.99 1779.09,-377.52 1773.85,-386.73 1780.74,-387.99"/>
</a>
</g>
</g>
<!-- Node12 -->
<g id="Node000012" class="node">
<title>Node12</title>
<g id="a_Node000012"><a xlink:href="class_bit_vector.html#afbdbe8a5003f5941ffd5ab095cf87d88" target="_top" xlink:title="Add an element at the end of the vector.">
<polygon fill="white" stroke="#666666" points="475.5,-471.44 372.5,-471.44 372.5,-452.44 475.5,-452.44 475.5,-471.44"/>
<text text-anchor="middle" x="424" y="-459.44" font-family="Helvetica,sans-Serif" font-size="10.00">BitVector::append</text>
</a>
</g>
</g>
<!-- Node11&#45;&gt;Node12 -->
<g id="edge15_Node000011_Node000012" class="edge">
<title>Node11&#45;&gt;Node12</title>
<g id="a_edge15_Node000011_Node000012"><a xlink:title=" ">
<path fill="none" stroke="#63b8ff" d="M256.86,-510.36C290.56,-500.54 343.14,-485.21 380.11,-474.44"/>
<polygon fill="#63b8ff" stroke="#63b8ff" points="381.47,-477.69 390.09,-471.53 379.51,-470.97 381.47,-477.69"/>
</a>
</g>
</g>
<!-- Node11&#45;&gt;Node13 -->
<g id="edge41_Node000011_Node000013" class="edge">
<title>Node11&#45;&gt;Node13</title>
<g id="a_edge41_Node000011_Node000013"><a xlink:title=" ">
<path fill="none" stroke="#63b8ff" d="M312.11,-517.46C367.65,-513.43 439.96,-503.56 500,-479.94 538.27,-464.88 576.24,-434.95 597.69,-416.27"/>
<polygon fill="#63b8ff" stroke="#63b8ff" points="600.18,-418.75 605.33,-409.49 595.53,-413.52 600.18,-418.75"/>
</a>
</g>
</g>
<!-- Node21 -->
<g id="Node000021" class="node">
<title>Node21</title>
<g id="a_Node000021"><a xlink:href="class_bit_vector.html#ad36e7d0b4b1417ca434414fa40c72eb8" target="_top" xlink:title="How many element can be contained in this object knowing BitVector::_element_size.">
<polygon fill="white" stroke="#666666" points="1288,-425.44 1134,-425.44 1134,-406.44 1288,-406.44 1288,-425.44"/>
<text text-anchor="middle" x="1211" y="-413.44" font-family="Helvetica,sans-Serif" font-size="10.00">BitVector::maxElementLimit</text>
</a>
</g>
</g>
<!-- Node11&#45;&gt;Node21 -->
<g id="edge40_Node000011_Node000021" class="edge">
<title>Node11&#45;&gt;Node21</title>
<g id="a_edge40_Node000011_Node000021"><a xlink:title=" ">
<path fill="none" stroke="#63b8ff" d="M312.17,-527.02C391.48,-532.77 511.2,-539.94 615.5,-539.94 615.5,-539.94 615.5,-539.94 805,-539.94 953.63,-539.94 1120.03,-462.64 1183.49,-430.1"/>
<polygon fill="#63b8ff" stroke="#63b8ff" points="1185.16,-433.18 1192.43,-425.46 1181.94,-426.96 1185.16,-433.18"/>
</a>
</g>
</g>
<!-- Node12&#45;&gt;Node13 -->
<g id="edge16_Node000012_Node000013" class="edge">
<title>Node12&#45;&gt;Node13</title>
<g id="a_edge16_Node000012_Node000013"><a xlink:title=" ">
<path fill="none" stroke="#63b8ff" d="M454.35,-452.39C487.07,-441.74 540.15,-424.46 576.38,-412.67"/>
<polygon fill="#63b8ff" stroke="#63b8ff" points="577.69,-415.92 586.12,-409.5 575.53,-409.27 577.69,-415.92"/>
</a>
</g>
</g>
<!-- Node13&#45;&gt;Node3 -->
<g id="edge20_Node000013_Node000003" class="edge">
<title>Node13&#45;&gt;Node3</title>
<g id="a_edge20_Node000013_Node000003"><a xlink:title=" ">
<path fill="none" stroke="#63b8ff" d="M642.43,-409.46C665.62,-418.06 701.27,-430.59 733,-438.94 810.89,-459.43 831.46,-460.27 911,-472.94 1174.58,-514.92 1243.22,-524.18 1510,-515.94 1596.35,-513.27 1630.81,-549.83 1704,-503.94 1746.31,-477.41 1767.36,-418.56 1775.82,-387.7"/>
<polygon fill="#63b8ff" stroke="#63b8ff" points="1779.29,-388.26 1778.39,-377.7 1772.51,-386.52 1779.29,-388.26"/>
</a>
</g>
</g>
<!-- Node14 -->
<g id="Node000014" class="node">
<title>Node14</title>
<g id="a_Node000014"><a xlink:href="class_bit_vector.html#a8c3c1f0faa0bbf35638c7217a841cbd8" target="_top" xlink:title=" ">
<polygon fill="white" stroke="#666666" points="858.5,-430.44 749.5,-430.44 749.5,-411.44 858.5,-411.44 858.5,-430.44"/>
<text text-anchor="middle" x="804" y="-418.44" font-family="Helvetica,sans-Serif" font-size="10.00">BitVector::copyBits</text>
</a>
</g>
</g>
<!-- Node13&#45;&gt;Node14 -->
<g id="edge17_Node000013_Node000014" class="edge">
<title>Node13&#45;&gt;Node14</title>
<g id="a_edge17_Node000013_Node000014"><a xlink:title=" ">
<path fill="none" stroke="#63b8ff" d="M657.75,-404.5C681.56,-407.19 712.25,-410.67 739.29,-413.73"/>
<polygon fill="#63b8ff" stroke="#63b8ff" points="739.12,-417.23 749.45,-414.88 739.9,-410.27 739.12,-417.23"/>
</a>
</g>
</g>
<!-- Node16 -->
<g id="Node000016" class="node">
<title>Node16</title>
<g id="a_Node000016"><a xlink:href="class_bit_vector.html#a115789c8a9812eabb52f8843cd4e9965" target="_top" xlink:title="Give the a coord object that represent the size of 1 element inside BitVector::_data.">
<polygon fill="white" stroke="#666666" points="1690.5,-285.44 1559.5,-285.44 1559.5,-266.44 1690.5,-266.44 1690.5,-285.44"/>
<text text-anchor="middle" x="1625" y="-273.44" font-family="Helvetica,sans-Serif" font-size="10.00">BitVector::getCoordUnit</text>
</a>
</g>
</g>
<!-- Node13&#45;&gt;Node16 -->
<g id="edge21_Node000013_Node000016" class="edge">
<title>Node13&#45;&gt;Node16</title>
<g id="a_edge21_Node000013_Node000016"><a xlink:title=" ">
<path fill="none" stroke="#63b8ff" d="M628.2,-390.3C671.41,-352.45 838.5,-215.94 1001.5,-215.94 1001.5,-215.94 1001.5,-215.94 1212,-215.94 1344.47,-215.94 1498.43,-246.69 1575.21,-264.16"/>
<polygon fill="#63b8ff" stroke="#63b8ff" points="1574.55,-267.6 1585.08,-266.43 1576.12,-260.78 1574.55,-267.6"/>
</a>
</g>
</g>
<!-- Node17 -->
<g id="Node000017" class="node">
<title>Node17</title>
<g id="a_Node000017"><a xlink:href="class_bit_vector.html#a93ab8bc2ec39bf299ae28ffcad504b41" target="_top" xlink:title="Give the coords of the first bit of an element.">
<polygon fill="white" stroke="#666666" points="871,-387.44 737,-387.44 737,-368.44 871,-368.44 871,-387.44"/>
<text text-anchor="middle" x="804" y="-375.44" font-family="Helvetica,sans-Serif" font-size="10.00">BitVector::indexElement</text>
</a>
</g>
</g>
<!-- Node13&#45;&gt;Node17 -->
<g id="edge23_Node000013_Node000017" class="edge">
<title>Node13&#45;&gt;Node17</title>
<g id="a_edge23_Node000013_Node000017"><a xlink:title=" ">
<path fill="none" stroke="#63b8ff" d="M657.75,-395.16C677.98,-392.77 703.19,-389.78 726.89,-386.97"/>
<polygon fill="#63b8ff" stroke="#63b8ff" points="727.42,-390.43 736.94,-385.77 726.59,-383.48 727.42,-390.43"/>
</a>
</g>
</g>
<!-- Node24 -->
<g id="Node000024" class="node">
<title>Node24</title>
<g id="a_Node000024"><a xlink:href="class_bit_vector.html#ab4d98ce4b8d36ed6af1aa46e67810972" target="_top" xlink:title="Give the last coordinates thar can be contained inside BitVector::_data with the current BitVector::_...">
<polygon fill="white" stroke="#666666" points="1051.5,-165.44 953.5,-165.44 953.5,-146.44 1051.5,-146.44 1051.5,-165.44"/>
<text text-anchor="middle" x="1002.5" y="-153.44" font-family="Helvetica,sans-Serif" font-size="10.00">BitVector::lastBit</text>
</a>
</g>
</g>
<!-- Node13&#45;&gt;Node24 -->
<g id="edge36_Node000013_Node000024" class="edge">
<title>Node13&#45;&gt;Node24</title>
<g id="a_edge36_Node000013_Node000024"><a xlink:title=" ">
<path fill="none" stroke="#63b8ff" d="M620.03,-390.08C629.01,-357.21 662.68,-250.69 733,-201.94 795.33,-158.73 884.94,-151.6 943.18,-152.31"/>
<polygon fill="#63b8ff" stroke="#63b8ff" points="943.26,-155.81 953.32,-152.52 943.4,-148.81 943.26,-155.81"/>
</a>
</g>
</g>
<!-- Node25 -->
<g id="Node000025" class="node">
<title>Node25</title>
<g id="a_Node000025"><a xlink:href="class_bit_vector.html#ab92cdd9780b949d9d762f58e1ee4a0ae" target="_top" xlink:title="Last postion of the vector.">
<polygon fill="white" stroke="#666666" points="1262,-266.44 1160,-266.44 1160,-247.44 1262,-247.44 1262,-266.44"/>
<text text-anchor="middle" x="1211" y="-254.44" font-family="Helvetica,sans-Serif" font-size="10.00">BitVector::lastPos</text>
</a>
</g>
</g>
<!-- Node13&#45;&gt;Node25 -->
<g id="edge37_Node000013_Node000025" class="edge">
<title>Node13&#45;&gt;Node25</title>
<g id="a_edge37_Node000013_Node000025"><a xlink:title=" ">
<path fill="none" stroke="#63b8ff" d="M641.54,-390.37C664.7,-381.4 700.86,-368.04 733,-358.94 880.85,-317.08 1058.74,-283.32 1149.82,-267.2"/>
<polygon fill="#63b8ff" stroke="#63b8ff" points="1150.45,-270.65 1159.69,-265.46 1149.23,-263.75 1150.45,-270.65"/>
</a>
</g>
</g>
<!-- Node14&#45;&gt;Node3 -->
<g id="edge18_Node000014_Node000003" class="edge">
<title>Node14&#45;&gt;Node3</title>
<g id="a_edge18_Node000014_Node000003"><a xlink:title=" ">
<path fill="none" stroke="#63b8ff" d="M840.05,-430.53C860.56,-435.73 887.06,-441.73 911,-444.94 1085.77,-468.38 1546.83,-552.89 1704,-472.94 1739.36,-454.95 1762.24,-412.12 1773.1,-387.07"/>
<polygon fill="#63b8ff" stroke="#63b8ff" points="1776.45,-388.13 1777.02,-377.55 1769.98,-385.46 1776.45,-388.13"/>
</a>
</g>
</g>
<!-- Node15 -->
<g id="Node000015" class="node">
<title>Node15</title>
<g id="a_Node000015"><a xlink:href="class_bit_vector_1_1_coords.html#a393207c752f8f9121aca38c938914154" target="_top" xlink:title="Get Coords::bit .">
<polygon fill="white" stroke="#666666" points="1056,-435.94 949,-435.94 949,-405.94 1056,-405.94 1056,-435.94"/>
<text text-anchor="start" x="957" y="-423.94" font-family="Helvetica,sans-Serif" font-size="10.00">BitVector::Coords::</text>
<text text-anchor="middle" x="1002.5" y="-412.94" font-family="Helvetica,sans-Serif" font-size="10.00">getBit</text>
</a>
</g>
</g>
<!-- Node14&#45;&gt;Node15 -->
<g id="edge19_Node000014_Node000015" class="edge">
<title>Node14&#45;&gt;Node15</title>
<g id="a_edge19_Node000014_Node000015"><a xlink:title=" ">
<path fill="none" stroke="#63b8ff" d="M858.69,-420.94C883.47,-420.94 913.05,-420.94 938.84,-420.94"/>
<polygon fill="#63b8ff" stroke="#63b8ff" points="938.89,-424.44 948.89,-420.94 938.89,-417.44 938.89,-424.44"/>
</a>
</g>
</g>
<!-- Node16&#45;&gt;Node3 -->
<g id="edge22_Node000016_Node000003" class="edge">
<title>Node16&#45;&gt;Node3</title>
<g id="a_edge22_Node000016_Node000003"><a xlink:title=" ">
<path fill="none" stroke="#63b8ff" d="M1646.24,-285.47C1662.21,-293.19 1684.89,-304.6 1704,-315.94 1723.28,-327.38 1744.28,-341.8 1759.39,-352.56"/>
<polygon fill="#63b8ff" stroke="#63b8ff" points="1757.39,-355.43 1767.55,-358.41 1761.47,-349.74 1757.39,-355.43"/>
</a>
</g>
</g>
<!-- Node17&#45;&gt;Node3 -->
<g id="edge24_Node000017_Node000003" class="edge">
<title>Node17&#45;&gt;Node3</title>
<g id="a_edge24_Node000017_Node000003"><a xlink:title=" ">
<path fill="none" stroke="#63b8ff" d="M871.28,-377.26C1054.65,-375.38 1565.93,-370.14 1729.49,-368.46"/>
<polygon fill="#63b8ff" stroke="#63b8ff" points="1729.79,-371.96 1739.75,-368.36 1729.71,-364.96 1729.79,-371.96"/>
</a>
</g>
</g>
<!-- Node18 -->
<g id="Node000018" class="node">
<title>Node18</title>
<g id="a_Node000018"><a xlink:href="class_bit_vector.html#a04e6d0b67ee9b42ccec437b0176067fe" target="_top" xlink:title="Give A size_t that represent the coords of the first bit of an element.">
<polygon fill="white" stroke="#666666" points="1094,-349.44 911,-349.44 911,-330.44 1094,-330.44 1094,-349.44"/>
<text text-anchor="middle" x="1002.5" y="-337.44" font-family="Helvetica,sans-Serif" font-size="10.00">BitVector::indexElementUntreated</text>
</a>
</g>
</g>
<!-- Node17&#45;&gt;Node18 -->
<g id="edge25_Node000017_Node000018" class="edge">
<title>Node17&#45;&gt;Node18</title>
<g id="a_edge25_Node000017_Node000018"><a xlink:title=" ">
<path fill="none" stroke="#63b8ff" d="M854.33,-368.4C880.96,-363.25 914.03,-356.85 942.07,-351.43"/>
<polygon fill="#63b8ff" stroke="#63b8ff" points="942.99,-354.82 952.15,-349.48 941.67,-347.94 942.99,-354.82"/>
</a>
</g>
</g>
<!-- Node18&#45;&gt;Node3 -->
<g id="edge26_Node000018_Node000003" class="edge">
<title>Node18&#45;&gt;Node3</title>
<g id="a_edge26_Node000018_Node000003"><a xlink:title=" ">
<path fill="none" stroke="#63b8ff" d="M1094.18,-337.11C1227.98,-333.98 1486,-331.96 1704,-353.94 1712.4,-354.79 1721.26,-356.05 1729.86,-357.49"/>
<polygon fill="#63b8ff" stroke="#63b8ff" points="1729.33,-360.95 1739.78,-359.23 1730.54,-354.05 1729.33,-360.95"/>
</a>
</g>
</g>
<!-- Node19 -->
<g id="Node000019" class="node">
<title>Node19</title>
<g id="a_Node000019"><a xlink:href="class_bit_vector.html#af68cda7444ec4459393bbfa423f0a7dd" target="_top" xlink:title="Get the Size_t value if a BitVector::CoordUnit.">
<polygon fill="white" stroke="#666666" points="1470.5,-311.94 1367.5,-311.94 1367.5,-281.94 1470.5,-281.94 1470.5,-311.94"/>
<text text-anchor="start" x="1375.5" y="-299.94" font-family="Helvetica,sans-Serif" font-size="10.00">BitVector::getSize</text>
<text text-anchor="middle" x="1419" y="-288.94" font-family="Helvetica,sans-Serif" font-size="10.00">_tUnit</text>
</a>
</g>
</g>
<!-- Node18&#45;&gt;Node19 -->
<g id="edge27_Node000018_Node000019" class="edge">
<title>Node18&#45;&gt;Node19</title>
<g id="a_edge27_Node000018_Node000019"><a xlink:title=" ">
<path fill="none" stroke="#63b8ff" d="M1088.54,-330.41C1102.4,-328.89 1116.6,-327.35 1130,-325.94 1208.38,-317.66 1298.81,-308.64 1357.12,-302.89"/>
<polygon fill="#63b8ff" stroke="#63b8ff" points="1357.65,-306.36 1367.26,-301.89 1356.97,-299.39 1357.65,-306.36"/>
</a>
</g>
</g>
<!-- Node18&#45;&gt;Node21 -->
<g id="edge30_Node000018_Node000021" class="edge">
<title>Node18&#45;&gt;Node21</title>
<g id="a_edge30_Node000018_Node000021"><a xlink:title=" ">
<path fill="none" stroke="#63b8ff" d="M1029.65,-349.56C1066.35,-363.07 1133.23,-387.68 1174.42,-402.85"/>
<polygon fill="#63b8ff" stroke="#63b8ff" points="1173.47,-406.22 1184.06,-406.39 1175.88,-399.65 1173.47,-406.22"/>
</a>
</g>
</g>
<!-- Node19&#45;&gt;Node16 -->
<g id="edge28_Node000019_Node000016" class="edge">
<title>Node19&#45;&gt;Node16</title>
<g id="a_edge28_Node000019_Node000016"><a xlink:title=" ">
<path fill="none" stroke="#63b8ff" d="M1470.69,-291.72C1494.34,-289.29 1522.96,-286.34 1549.04,-283.65"/>
<polygon fill="#63b8ff" stroke="#63b8ff" points="1549.69,-287.11 1559.27,-282.6 1548.97,-280.14 1549.69,-287.11"/>
</a>
</g>
</g>
<!-- Node20 -->
<g id="Node000020" class="node">
<title>Node20</title>
<g id="a_Node000020"><a xlink:href="class_bit_vector_1_1_coords.html#a3a4fac9de925974af9c8a66a1d0179e6" target="_top" xlink:title="Translate octet and bit value inside a size_t. Allow easier mathematic computations.">
<polygon fill="white" stroke="#666666" points="1678.5,-214.94 1571.5,-214.94 1571.5,-184.94 1678.5,-184.94 1678.5,-214.94"/>
<text text-anchor="start" x="1579.5" y="-202.94" font-family="Helvetica,sans-Serif" font-size="10.00">BitVector::Coords::</text>
<text text-anchor="middle" x="1625" y="-191.94" font-family="Helvetica,sans-Serif" font-size="10.00">toSize_t</text>
</a>
</g>
</g>
<!-- Node19&#45;&gt;Node20 -->
<g id="edge29_Node000019_Node000020" class="edge">
<title>Node19&#45;&gt;Node20</title>
<g id="a_edge29_Node000019_Node000020"><a xlink:title=" ">
<path fill="none" stroke="#63b8ff" d="M1451.88,-281.78C1487.21,-264.98 1544.29,-237.84 1582.94,-219.46"/>
<polygon fill="#63b8ff" stroke="#63b8ff" points="1584.82,-222.44 1592.35,-214.99 1581.81,-216.12 1584.82,-222.44"/>
</a>
</g>
</g>
<!-- Node21&#45;&gt;Node19 -->
<g id="edge31_Node000021_Node000019" class="edge">
<title>Node21&#45;&gt;Node19</title>
<g id="a_edge31_Node000021_Node000019"><a xlink:title=" ">
<path fill="none" stroke="#63b8ff" d="M1228.51,-406.4C1261.92,-387.1 1338.16,-343.06 1383.09,-317.11"/>
<polygon fill="#63b8ff" stroke="#63b8ff" points="1385,-320.05 1391.91,-312.01 1381.5,-313.98 1385,-320.05"/>
</a>
</g>
</g>
<!-- Node22 -->
<g id="Node000022" class="node">
<title>Node22</title>
<g id="a_Node000022"><a xlink:href="class_bit_vector.html#a68b14af0886039ddcf55c82a250deb4c" target="_top" xlink:title="How many element can be contained in this kind of object.">
<polygon fill="white" stroke="#666666" points="1704,-463.94 1546,-463.94 1546,-433.94 1704,-433.94 1704,-463.94"/>
<text text-anchor="start" x="1554" y="-451.94" font-family="Helvetica,sans-Serif" font-size="10.00">BitVector::maximumElement</text>
<text text-anchor="middle" x="1625" y="-440.94" font-family="Helvetica,sans-Serif" font-size="10.00">Number</text>
</a>
</g>
</g>
<!-- Node21&#45;&gt;Node22 -->
<g id="edge32_Node000021_Node000022" class="edge">
<title>Node21&#45;&gt;Node22</title>
<g id="a_edge32_Node000021_Node000022"><a xlink:title=" ">
<path fill="none" stroke="#63b8ff" d="M1265.85,-425.48C1285.37,-428.62 1307.63,-431.85 1328,-433.94 1397.68,-441.09 1476.95,-444.88 1535.91,-446.86"/>
<polygon fill="#63b8ff" stroke="#63b8ff" points="1535.82,-450.36 1545.93,-447.18 1536.05,-443.36 1535.82,-450.36"/>
</a>
</g>
</g>
<!-- Node23 -->
<g id="Node000023" class="node">
<title>Node23</title>
<g id="a_Node000023"><a xlink:href="class_bit_vector.html#aa3228d2bacb1bb0f6072d73d43a49456" target="_top" xlink:title="How many octet can be contained in this kind of object.">
<polygon fill="white" stroke="#666666" points="1510,-425.44 1328,-425.44 1328,-406.44 1510,-406.44 1510,-425.44"/>
<text text-anchor="middle" x="1419" y="-413.44" font-family="Helvetica,sans-Serif" font-size="10.00">BitVector::maximumOctetNumber</text>
</a>
</g>
</g>
<!-- Node21&#45;&gt;Node23 -->
<g id="edge34_Node000021_Node000023" class="edge">
<title>Node21&#45;&gt;Node23</title>
<g id="a_edge34_Node000021_Node000023"><a xlink:title=" ">
<path fill="none" stroke="#63b8ff" d="M1288.12,-415.94C1297.73,-415.94 1307.68,-415.94 1317.6,-415.94"/>
<polygon fill="#63b8ff" stroke="#63b8ff" points="1317.9,-419.44 1327.9,-415.94 1317.9,-412.44 1317.9,-419.44"/>
</a>
</g>
</g>
<!-- Node22&#45;&gt;Node3 -->
<g id="edge33_Node000022_Node000003" class="edge">
<title>Node22&#45;&gt;Node3</title>
<g id="a_edge33_Node000022_Node000003"><a xlink:title=" ">
<path fill="none" stroke="#63b8ff" d="M1672.17,-433.87C1682.83,-429.82 1693.99,-425.11 1704,-419.94 1724.16,-409.53 1745.37,-394.78 1760.33,-383.64"/>
<polygon fill="#63b8ff" stroke="#63b8ff" points="1762.49,-386.39 1768.36,-377.56 1758.27,-380.81 1762.49,-386.39"/>
</a>
</g>
</g>
<!-- Node23&#45;&gt;Node3 -->
<g id="edge35_Node000023_Node000003" class="edge">
<title>Node23&#45;&gt;Node3</title>
<g id="a_edge35_Node000023_Node000003"><a xlink:title=" ">
<path fill="none" stroke="#63b8ff" d="M1510.05,-406.6C1565.99,-400.44 1639.31,-391.72 1704,-381.94 1712.35,-380.68 1721.18,-379.2 1729.77,-377.68"/>
<polygon fill="#63b8ff" stroke="#63b8ff" points="1730.46,-381.11 1739.69,-375.89 1729.22,-374.22 1730.46,-381.11"/>
</a>
</g>
</g>
<!-- Node25&#45;&gt;Node16 -->
<g id="edge38_Node000025_Node000016" class="edge">
<title>Node25&#45;&gt;Node16</title>
<g id="a_edge38_Node000025_Node000016"><a xlink:title=" ">
<path fill="none" stroke="#63b8ff" d="M1262.11,-259.25C1333.75,-262.55 1465.97,-268.65 1549.21,-272.49"/>
<polygon fill="#63b8ff" stroke="#63b8ff" points="1549.22,-275.99 1559.37,-272.96 1549.54,-269 1549.22,-275.99"/>
</a>
</g>
</g>
<!-- Node26&#45;&gt;Node3 -->
<g id="edge43_Node000026_Node000003" class="edge">
<title>Node26&#45;&gt;Node3</title>
<g id="a_edge43_Node000026_Node000003"><a xlink:title=" ">
<path fill="none" stroke="#63b8ff" d="M450.51,-236.29C502.71,-217 625.8,-173.72 733,-152.94 944.85,-111.88 1529.34,-14.2 1704,-140.94 1771.96,-190.25 1780.31,-302.97 1780.8,-348.41"/>
<polygon fill="#63b8ff" stroke="#63b8ff" points="1777.3,-348.43 1780.79,-358.44 1784.3,-348.44 1777.3,-348.43"/>
</a>
</g>
</g>
<!-- Node26&#45;&gt;Node13 -->
<g id="edge44_Node000026_Node000013" class="edge">
<title>Node26&#45;&gt;Node13</title>
<g id="a_edge44_Node000026_Node000013"><a xlink:title=" ">
<path fill="none" stroke="#63b8ff" d="M436.92,-255.57C468.72,-281.28 555.88,-351.74 595.47,-383.74"/>
<polygon fill="#63b8ff" stroke="#63b8ff" points="593.61,-386.74 603.59,-390.31 598.01,-381.3 593.61,-386.74"/>
</a>
</g>
</g>
<!-- Node27 -->
<g id="Node000027" class="node">
<title>Node27</title>
<g id="a_Node000027"><a xlink:href="class_bit_vector.html#ad60f42244db2c82260326605916431d3" target="_top" xlink:title="Modify the number of known element in this object.">
<polygon fill="white" stroke="#666666" points="697,-77.44 536,-77.44 536,-58.44 697,-58.44 697,-77.44"/>
<text text-anchor="middle" x="616.5" y="-65.44" font-family="Helvetica,sans-Serif" font-size="10.00">BitVector::setElementNumber</text>
</a>
</g>
</g>
<!-- Node26&#45;&gt;Node27 -->
<g id="edge45_Node000026_Node000027" class="edge">
<title>Node26&#45;&gt;Node27</title>
<g id="a_edge45_Node000026_Node000027"><a xlink:title=" ">
<path fill="none" stroke="#63b8ff" d="M429.57,-236.41C442.54,-210.33 482.19,-137.02 536,-96.94 544.93,-90.29 555.54,-85.03 566.06,-80.93"/>
<polygon fill="#63b8ff" stroke="#63b8ff" points="567.41,-84.16 575.63,-77.48 565.04,-77.58 567.41,-84.16"/>
</a>
</g>
</g>
<!-- Node27&#45;&gt;Node3 -->
<g id="edge54_Node000027_Node000003" class="edge">
<title>Node27&#45;&gt;Node3</title>
<g id="a_edge54_Node000027_Node000003"><a xlink:title=" ">
<path fill="none" stroke="#63b8ff" d="M656.83,-58.4C679.06,-53.35 707.44,-47.48 733,-43.94 851.5,-27.51 881.87,-24.94 1001.5,-24.94 1001.5,-24.94 1001.5,-24.94 1420,-24.94 1546.42,-24.94 1607.2,40.37 1704,-40.94 1751.91,-81.18 1773.25,-283.77 1778.9,-348.22"/>
<polygon fill="#63b8ff" stroke="#63b8ff" points="1775.42,-348.6 1779.75,-358.27 1782.4,-348.01 1775.42,-348.6"/>
</a>
</g>
</g>
<!-- Node28 -->
<g id="Node000028" class="node">
<title>Node28</title>
<g id="a_Node000028"><a xlink:href="class_bit_vector.html#ad64e921d07b9528a532477f282af135c" target="_top" xlink:title="How many element can fit in this vector without having to resize the vector ?">
<polygon fill="white" stroke="#666666" points="875,-82.94 733,-82.94 733,-52.94 875,-52.94 875,-82.94"/>
<text text-anchor="start" x="741" y="-70.94" font-family="Helvetica,sans-Serif" font-size="10.00">BitVector::currentElement</text>
<text text-anchor="middle" x="804" y="-59.94" font-family="Helvetica,sans-Serif" font-size="10.00">Capacity</text>
</a>
</g>
</g>
<!-- Node27&#45;&gt;Node28 -->
<g id="edge46_Node000027_Node000028" class="edge">
<title>Node27&#45;&gt;Node28</title>
<g id="a_edge46_Node000027_Node000028"><a xlink:title=" ">
<path fill="none" stroke="#63b8ff" d="M697.25,-67.94C705.69,-67.94 714.29,-67.94 722.74,-67.94"/>
<polygon fill="#63b8ff" stroke="#63b8ff" points="722.96,-71.44 732.96,-67.94 722.96,-64.44 722.96,-71.44"/>
</a>
</g>
</g>
<!-- Node28&#45;&gt;Node24 -->
<g id="edge53_Node000028_Node000024" class="edge">
<title>Node28&#45;&gt;Node24</title>
<g id="a_edge53_Node000028_Node000024"><a xlink:title=" ">
<path fill="none" stroke="#63b8ff" d="M838.78,-83.07C875.89,-99.69 934.97,-126.15 970.81,-142.19"/>
<polygon fill="#63b8ff" stroke="#63b8ff" points="969.71,-145.53 980.26,-146.43 972.57,-139.15 969.71,-145.53"/>
</a>
</g>
</g>
<!-- Node29 -->
<g id="Node000029" class="node">
<title>Node29</title>
<g id="a_Node000029"><a xlink:href="class_bit_vector.html#a5af3c70f593aac387de23c7e6e5ae57e" target="_top" xlink:title="Find the element that correspond to coord .">
<polygon fill="white" stroke="#666666" points="1076,-77.44 929,-77.44 929,-58.44 1076,-58.44 1076,-77.44"/>
<text text-anchor="middle" x="1002.5" y="-65.44" font-family="Helvetica,sans-Serif" font-size="10.00">BitVector::indexCoordinate</text>
</a>
</g>
</g>
<!-- Node28&#45;&gt;Node29 -->
<g id="edge47_Node000028_Node000029" class="edge">
<title>Node28&#45;&gt;Node29</title>
<g id="a_edge47_Node000028_Node000029"><a xlink:title=" ">
<path fill="none" stroke="#63b8ff" d="M875.11,-67.94C889.12,-67.94 903.97,-67.94 918.37,-67.94"/>
<polygon fill="#63b8ff" stroke="#63b8ff" points="918.76,-71.44 928.76,-67.94 918.76,-64.44 918.76,-71.44"/>
</a>
</g>
</g>
<!-- Node29&#45;&gt;Node3 -->
<g id="edge48_Node000029_Node000003" class="edge">
<title>Node29&#45;&gt;Node3</title>
<g id="a_edge48_Node000029_Node000003"><a xlink:title=" ">
<path fill="none" stroke="#63b8ff" d="M1076.26,-59.53C1235.54,-42.76 1608.48,-12.83 1704,-87.94 1745.78,-120.79 1770.65,-289.61 1778.11,-348.02"/>
<polygon fill="#63b8ff" stroke="#63b8ff" points="1774.66,-348.66 1779.37,-358.16 1781.61,-347.8 1774.66,-348.66"/>
</a>
</g>
</g>
<!-- Node30 -->
<g id="Node000030" class="node">
<title>Node30</title>
<g id="a_Node000030"><a xlink:href="class_bit_vector.html#a354c83853bc3622efa5d45efcae97286" target="_top" xlink:title="Give more detailed on BiteVector::indexCoordinate.">
<polygon fill="white" stroke="#666666" points="1284.5,-175.94 1137.5,-175.94 1137.5,-145.94 1284.5,-145.94 1284.5,-175.94"/>
<text text-anchor="start" x="1145.5" y="-163.94" font-family="Helvetica,sans-Serif" font-size="10.00">BitVector::indexCoordinate</text>
<text text-anchor="middle" x="1211" y="-152.94" font-family="Helvetica,sans-Serif" font-size="10.00">Untreated</text>
</a>
</g>
</g>
<!-- Node29&#45;&gt;Node30 -->
<g id="edge49_Node000029_Node000030" class="edge">
<title>Node29&#45;&gt;Node30</title>
<g id="a_edge49_Node000029_Node000030"><a xlink:title=" ">
<path fill="none" stroke="#63b8ff" d="M1024.82,-77.54C1058.33,-92.63 1123.96,-122.19 1167.4,-141.75"/>
<polygon fill="#63b8ff" stroke="#63b8ff" points="1166.02,-144.97 1176.58,-145.89 1168.9,-138.59 1166.02,-144.97"/>
</a>
</g>
</g>
<!-- Node30&#45;&gt;Node3 -->
<g id="edge50_Node000030_Node000003" class="edge">
<title>Node30&#45;&gt;Node3</title>
<g id="a_edge50_Node000030_Node000003"><a xlink:title=" ">
<path fill="none" stroke="#63b8ff" d="M1284.76,-153.67C1405.02,-143.2 1638.51,-129.79 1704,-175.94 1761.52,-216.47 1775.81,-307.57 1779.34,-347.98"/>
<polygon fill="#63b8ff" stroke="#63b8ff" points="1775.87,-348.45 1780.09,-358.16 1782.85,-347.93 1775.87,-348.45"/>
</a>
</g>
</g>
<!-- Node30&#45;&gt;Node19 -->
<g id="edge51_Node000030_Node000019" class="edge">
<title>Node30&#45;&gt;Node19</title>
<g id="a_edge51_Node000030_Node000019"><a xlink:title=" ">
<path fill="none" stroke="#63b8ff" d="M1234.83,-176.01C1271.8,-200.42 1344.83,-248.63 1386.64,-276.23"/>
<polygon fill="#63b8ff" stroke="#63b8ff" points="1384.79,-279.21 1395.07,-281.8 1388.65,-273.37 1384.79,-279.21"/>
</a>
</g>
</g>
<!-- Node30&#45;&gt;Node20 -->
<g id="edge52_Node000030_Node000020" class="edge">
<title>Node30&#45;&gt;Node20</title>
<g id="a_edge52_Node000030_Node000020"><a xlink:title=" ">
<path fill="none" stroke="#63b8ff" d="M1284.71,-167.82C1363.14,-175.25 1486.76,-186.95 1561.14,-193.99"/>
<polygon fill="#63b8ff" stroke="#63b8ff" points="1561.01,-197.49 1571.3,-194.95 1561.67,-190.52 1561.01,-197.49"/>
</a>
</g>
</g>
</g>
</svg>

<g id="navigator" transform="translate(0 0)" fill="#404254">
  <rect fill="#f2f5e9" fill-opacity="0.5" stroke="#606060" stroke-width=".5" x="0" y="0" width="60" height="60"/>
  <use id="zoomplus" xlink:href="#zoomPlus" x="17" y="9" onmousedown="handleZoom(evt,'in')"/>
  <use id="zoomminus" xlink:href="#zoomMin" x="42" y="9" onmousedown="handleZoom(evt,'out')"/>
  <use id="reset" xlink:href="#resetDef" x="30" y="36" onmousedown="handleReset()"/>
   <use id="arrowup" xlink:href="#arrowUp" x="0" y="0" onmousedown="handlePan(0,-1)"/>
  <use id="arrowright" xlink:href="#arrowRight" x="0" y="0" onmousedown="handlePan(1,0)"/>
  <use id="arrowdown" xlink:href="#arrowDown" x="0" y="0" onmousedown="handlePan(0,1)"/>
  <use id="arrowleft" xlink:href="#arrowLeft" x="0" y="0" onmousedown="handlePan(-1,0)"/>
</g>
<svg viewBox="0 0 15 15" width="100%" height="30px" preserveAspectRatio="xMaxYMin meet">
 <g id="arrow_out" transform="scale(0.3 0.3)">
  <a xlink:href="class_sequence_aa48778c592160ac60319f780817f491c_cgraph_org.svg" target="_base">
   <rect id="button" ry="5" rx="5" y="6" x="6" height="38" width="38"
        fill="#f2f5e9" fill-opacity="0.5" stroke="#606060" stroke-width="1.0"/>
   <path id="arrow"
     d="M 11.500037,31.436501 C 11.940474,20.09759 22.043105,11.32322 32.158766,21.979434 L 37.068811,17.246167 C 37.068811,17.246167 37.088388,32 37.088388,32 L 22.160133,31.978069 C 22.160133,31.978069 26.997745,27.140456 26.997745,27.140456 C 18.528582,18.264221 13.291696,25.230495 11.500037,31.436501 z"
     style="fill:#404040;"/>
  </a>
 </g>
</svg>

<style type='text/css'>
<![CDATA[
[data-mouse-over-selected='false'] { opacity: 0.7; }
[data-mouse-over-selected='true']  { opacity: 1.0; }
]]>
</style>
<script type="application/ecmascript"><![CDATA[
document.addEventListener('DOMContentLoaded', (event) => {
  highlightEdges();
  highlightAdjacentNodes();
});
]]></script>
</svg>
