<?xml version="1.0" encoding="UTF-8" standalone="no"?>
<!DOCTYPE svg PUBLIC "-//W3C//DTD SVG 1.1//EN"
 "http://www.w3.org/Graphics/SVG/1.1/DTD/svg11.dtd">
<!-- Generated by graphviz version 2.43.0 (0)
 -->
<!-- Title: BitVector::maximumOctetNumber Pages: 1 -->
<!--zoomable 517 -->

<svg id="main" version="1.1" xmlns="http://www.w3.org/2000/svg" xmlns:xlink="http://www.w3.org/1999/xlink" xml:space="preserve" onload="init(evt)">
<style type="text/css"><![CDATA[
.node, .edge {opacity: 0.7;}
.node.selected, .edge.selected {opacity: 1;}
.edge:hover path { stroke: red; }
.edge:hover polygon { stroke: red; fill: red; }
]]></style>

<defs>
  <circle id="rim" cx="0" cy="0" r="7"/>
  <circle id="rim2" cx="0" cy="0" r="3.5"/>
  <g id="zoomPlus">
    <use xlink:href="#rim" fill="#404040"><set attributeName="fill" to="#808080" begin="zoomplus.mouseover" end="zoomplus.mouseout"/></use>
    <path d="M-4,0h8M0,-4v8" fill="none" stroke="white" stroke-width="1.5" pointer-events="none"/>
  </g>
  <g id="zoomMin">
    <use xlink:href="#rim" fill="#404040"><set attributeName="fill" to="#808080" begin="zoomminus.mouseover" end="zoomminus.mouseout"/></use>
    <path d="M-4,0h8" fill="none" stroke="white" stroke-width="1.5" pointer-events="none"/>
  </g>
  <g id="arrowUp" transform="translate(30 24)">
    <use xlink:href="#rim"/>
    <path pointer-events="none" fill="none" stroke="white" stroke-width="1.5" d="M0,-3.0v7 M-2.5,-0.5L0,-3.0L2.5,-0.5"/>
  </g>
  <g id="arrowRight" transform="rotate(90) translate(36 -43)">
    <use xlink:href="#rim"/>
    <path pointer-events="none" fill="none" stroke="white" stroke-width="1.5" d="M0,-3.0v7 M-2.5,-0.5L0,-3.0L2.5,-0.5"/>
  </g>
  <g id="arrowDown" transform="rotate(180) translate(-30 -48)">
    <use xlink:href="#rim"/>
    <path pointer-events="none" fill="none" stroke="white" stroke-width="1.5" d="M0,-3.0v7 M-2.5,-0.5L0,-3.0L2.5,-0.5"/>
  </g>
  <g id="arrowLeft" transform="rotate(270) translate(-36 17)">
    <use xlink:href="#rim"/>
    <path pointer-events="none" fill="none" stroke="white" stroke-width="1.5" d="M0,-3.0v7 M-2.5,-0.5L0,-3.0L2.5,-0.5"/>
  </g>
  <g id="resetDef">
    <use xlink:href="#rim2" fill="#404040"><set attributeName="fill" to="#808080" begin="reset.mouseover" end="reset.mouseout"/></use>
  </g>
</defs>
<script type="application/ecmascript">
var viewWidth = 1819;
var viewHeight = 517;
var sectionId = 'dynsection-51';
</script>
<script type="application/ecmascript" xlink:href="svg.min.js"/>
<svg id="graph" class="graph">
<g id="viewport">
<title>BitVector::maximumOctetNumber</title>
<!-- Node1 -->
<g id="Node000001" class="node">
<title>Node1</title>
<g id="a_Node000001"><a xlink:title="How many octet can be contained in this kind of object.">
<polygon fill="#999999" stroke="#666666" points="1811,-346 1629,-346 1629,-327 1811,-327 1811,-346"/>
<text text-anchor="middle" x="1720" y="-334" font-family="Helvetica,sans-Serif" font-size="10.00">BitVector::maximumOctetNumber</text>
</a>
</g>
</g>
<!-- Node2 -->
<g id="Node000002" class="node">
<title>Node2</title>
<g id="a_Node000002"><a xlink:href="class_bit_vector_1_1_coords.html#a9862c87ea93b2ab42ff2aa7b78868861" target="_top" xlink:title="Increment this coordinates by 1 bit. (Coord++)">
<polygon fill="white" stroke="#666666" points="1569.5,-483.5 1462.5,-483.5 1462.5,-453.5 1569.5,-453.5 1569.5,-483.5"/>
<text text-anchor="start" x="1470.5" y="-471.5" font-family="Helvetica,sans-Serif" font-size="10.00">BitVector::Coords::</text>
<text text-anchor="middle" x="1516" y="-460.5" font-family="Helvetica,sans-Serif" font-size="10.00">increment</text>
</a>
</g>
</g>
<!-- Node1&#45;&gt;Node2 -->
<g id="edge1_Node000001_Node000002" class="edge">
<title>Node1&#45;&gt;Node2</title>
<g id="a_edge1_Node000001_Node000002"><a xlink:title=" ">
<path fill="none" stroke="#63b8ff" d="M1702.12,-353.34C1679.12,-375.54 1635.87,-414.68 1593,-439.5 1583.83,-444.81 1573.52,-449.49 1563.51,-453.47"/>
<polygon fill="#63b8ff" stroke="#63b8ff" points="1704.67,-355.74 1709.38,-346.25 1699.78,-350.74 1704.67,-355.74"/>
</a>
</g>
</g>
<!-- Node3 -->
<g id="Node000003" class="node">
<title>Node3</title>
<g id="a_Node000003"><a xlink:href="class_bit_vector.html#ad36e7d0b4b1417ca434414fa40c72eb8" target="_top" xlink:title="How many element can be contained in this object knowing BitVector::_element_size.">
<polygon fill="white" stroke="#666666" points="1593,-368 1439,-368 1439,-349 1593,-349 1593,-368"/>
<text text-anchor="middle" x="1516" y="-356" font-family="Helvetica,sans-Serif" font-size="10.00">BitVector::maxElementLimit</text>
</a>
</g>
</g>
<!-- Node1&#45;&gt;Node3 -->
<g id="edge2_Node000001_Node000003" class="edge">
<title>Node1&#45;&gt;Node3</title>
<g id="a_edge2_Node000001_Node000003"><a xlink:title=" ">
<path fill="none" stroke="#63b8ff" d="M1621.33,-347.14C1611.86,-348.17 1602.36,-349.2 1593.14,-350.21"/>
<polygon fill="#63b8ff" stroke="#63b8ff" points="1622.01,-350.58 1631.57,-346.02 1621.25,-343.62 1622.01,-350.58"/>
</a>
</g>
</g>
<!-- Node7 -->
<g id="Node000007" class="node">
<title>Node7</title>
<g id="a_Node000007"><a xlink:href="class_bit_vector.html#a13856f33d2350c573cf2fbe587f03757" target="_top" xlink:title="Modify the length of BitVector::_data.">
<polygon fill="white" stroke="#666666" points="977,-435 881,-435 881,-416 977,-416 977,-435"/>
<text text-anchor="middle" x="929" y="-423" font-family="Helvetica,sans-Serif" font-size="10.00">BitVector::resize</text>
</a>
</g>
</g>
<!-- Node1&#45;&gt;Node7 -->
<g id="edge43_Node000001_Node000007" class="edge">
<title>Node1&#45;&gt;Node7</title>
<g id="a_edge43_Node000001_Node000007"><a xlink:title=" ">
<path fill="none" stroke="#63b8ff" d="M1683.87,-349.49C1658.85,-358.29 1624.25,-369.54 1593,-376.5 1366.56,-426.93 1086.98,-428.37 977.3,-426.67"/>
<polygon fill="#63b8ff" stroke="#63b8ff" points="1685.06,-352.79 1693.3,-346.13 1682.71,-346.19 1685.06,-352.79"/>
</a>
</g>
</g>
<!-- Node33 -->
<g id="Node000033" class="node">
<title>Node33</title>
<g id="a_Node000033"><a xlink:href="class_bit_vector_1_1_coords.html#a3a65d4174d8f88cc4f2faed6cfefdf74" target="_top" xlink:title="return the last octet position that can be hold by a Coords.">
<polygon fill="white" stroke="#666666" points="1582,-330.5 1450,-330.5 1450,-300.5 1582,-300.5 1582,-330.5"/>
<text text-anchor="start" x="1458" y="-318.5" font-family="Helvetica,sans-Serif" font-size="10.00">BitVector::Coords::</text>
<text text-anchor="middle" x="1516" y="-307.5" font-family="Helvetica,sans-Serif" font-size="10.00">maximumOctetNumber</text>
</a>
</g>
</g>
<!-- Node1&#45;&gt;Node33 -->
<g id="edge41_Node000001_Node000033" class="edge">
<title>Node1&#45;&gt;Node33</title>
<g id="a_edge41_Node000001_Node000033"><a xlink:title=" ">
<path fill="none" stroke="#63b8ff" d="M1618.91,-326.09C1606.39,-324.79 1593.86,-323.49 1582.07,-322.26"/>
<polygon fill="#63b8ff" stroke="#63b8ff" points="1618.62,-329.58 1628.93,-327.14 1619.34,-322.62 1618.62,-329.58"/>
</a>
</g>
</g>
<!-- Node34 -->
<g id="Node000034" class="node">
<title>Node34</title>
<g id="a_Node000034"><a xlink:href="class_bit_vector_1_1_coords.html#a2273bc2036bc18cdaaf62593bfde5324" target="_top" xlink:title="return the maximum Size_t value that can be returned by a Coords.">
<polygon fill="white" stroke="#666666" points="1569.5,-282.5 1462.5,-282.5 1462.5,-252.5 1569.5,-252.5 1569.5,-282.5"/>
<text text-anchor="start" x="1470.5" y="-270.5" font-family="Helvetica,sans-Serif" font-size="10.00">BitVector::Coords::</text>
<text text-anchor="middle" x="1516" y="-259.5" font-family="Helvetica,sans-Serif" font-size="10.00">maximumSize_t</text>
</a>
</g>
</g>
<!-- Node1&#45;&gt;Node34 -->
<g id="edge42_Node000001_Node000034" class="edge">
<title>Node1&#45;&gt;Node34</title>
<g id="a_edge42_Node000001_Node000034"><a xlink:title=" ">
<path fill="none" stroke="#63b8ff" d="M1683.54,-323.44C1658.36,-314.26 1623.71,-301.83 1593,-291.5 1584.21,-288.54 1574.82,-285.49 1565.74,-282.6"/>
<polygon fill="#63b8ff" stroke="#63b8ff" points="1682.44,-326.76 1693.04,-326.91 1684.84,-320.19 1682.44,-326.76"/>
</a>
</g>
</g>
<!-- Node35 -->
<g id="Node000035" class="node">
<title>Node35</title>
<g id="a_Node000035"><a xlink:href="class_bit_vector_1_1_coords.html#a19516be1a614f2078b9fa96d42724e2e" target="_top" xlink:title="Set Coords::octet value.">
<polygon fill="white" stroke="#666666" points="1569.5,-234.5 1462.5,-234.5 1462.5,-204.5 1569.5,-204.5 1569.5,-234.5"/>
<text text-anchor="start" x="1470.5" y="-222.5" font-family="Helvetica,sans-Serif" font-size="10.00">BitVector::Coords::</text>
<text text-anchor="middle" x="1516" y="-211.5" font-family="Helvetica,sans-Serif" font-size="10.00">setOctet</text>
</a>
</g>
</g>
<!-- Node1&#45;&gt;Node35 -->
<g id="edge44_Node000001_Node000035" class="edge">
<title>Node1&#45;&gt;Node35</title>
<g id="a_edge44_Node000001_Node000035"><a xlink:title=" ">
<path fill="none" stroke="#63b8ff" d="M1700.98,-320.16C1677.61,-299.72 1634.86,-264.81 1593,-243.5 1585.72,-239.8 1577.77,-236.53 1569.83,-233.68"/>
<polygon fill="#63b8ff" stroke="#63b8ff" points="1698.88,-322.97 1708.68,-326.99 1703.52,-317.73 1698.88,-322.97"/>
</a>
</g>
</g>
<!-- Node4 -->
<g id="Node000004" class="node">
<title>Node4</title>
<g id="a_Node000004"><a xlink:href="class_bit_vector.html#a04e6d0b67ee9b42ccec437b0176067fe" target="_top" xlink:title="Give A size_t that represent the coords of the first bit of an element.">
<polygon fill="white" stroke="#666666" points="1403,-359 1220,-359 1220,-340 1403,-340 1403,-359"/>
<text text-anchor="middle" x="1311.5" y="-347" font-family="Helvetica,sans-Serif" font-size="10.00">BitVector::indexElementUntreated</text>
</a>
</g>
</g>
<!-- Node3&#45;&gt;Node4 -->
<g id="edge3_Node000003_Node000004" class="edge">
<title>Node3&#45;&gt;Node4</title>
<g id="a_edge3_Node000003_Node000004"><a xlink:title=" ">
<path fill="none" stroke="#63b8ff" d="M1428.52,-354.66C1420.08,-354.28 1411.49,-353.9 1403.01,-353.52"/>
<polygon fill="#63b8ff" stroke="#63b8ff" points="1428.59,-358.16 1438.73,-355.11 1428.9,-351.17 1428.59,-358.16"/>
</a>
</g>
</g>
<!-- Node14 -->
<g id="Node000014" class="node">
<title>Node14</title>
<g id="a_Node000014"><a xlink:href="class_bit_vector.html#a686af396e4dff1536b7588213726c4cc" target="_top" xlink:title="Insert a number of blank position inside BitVector::_data.">
<polygon fill="white" stroke="#666666" points="628,-283 450,-283 450,-264 628,-264 628,-283"/>
<text text-anchor="middle" x="539" y="-271" font-family="Helvetica,sans-Serif" font-size="10.00">BitVector::makeRoomForElement</text>
</a>
</g>
</g>
<!-- Node3&#45;&gt;Node14 -->
<g id="edge33_Node000003_Node000014" class="edge">
<title>Node3&#45;&gt;Node14</title>
<g id="a_edge33_Node000003_Node000014"><a xlink:title=" ">
<path fill="none" stroke="#63b8ff" d="M1428.7,-368.28C1346.89,-376.7 1220.5,-387.5 1110.5,-387.5 1110.5,-387.5 1110.5,-387.5 928,-387.5 780.21,-387.5 613.13,-310.42 558.41,-283.02"/>
<polygon fill="#63b8ff" stroke="#63b8ff" points="1429.11,-371.76 1438.7,-367.24 1428.39,-364.79 1429.11,-371.76"/>
</a>
</g>
</g>
<!-- Node28 -->
<g id="Node000028" class="node">
<title>Node28</title>
<g id="a_Node000028"><a xlink:href="class_bit_vector.html#a346dbe2e158d2cfda20212e7f93e8402" target="_top" xlink:title="Do maximum BitVector::_element_number is reached (With no possibility to push it further)">
<polygon fill="white" stroke="#666666" points="1184,-167.5 1035,-167.5 1035,-137.5 1184,-137.5 1184,-167.5"/>
<text text-anchor="start" x="1043" y="-155.5" font-family="Helvetica,sans-Serif" font-size="10.00">BitVector::maxElementSize</text>
<text text-anchor="middle" x="1109.5" y="-144.5" font-family="Helvetica,sans-Serif" font-size="10.00">IsReached</text>
</a>
</g>
</g>
<!-- Node3&#45;&gt;Node28 -->
<g id="edge34_Node000003_Node000028" class="edge">
<title>Node3&#45;&gt;Node28</title>
<g id="a_edge34_Node000003_Node000028"><a xlink:title=" ">
<path fill="none" stroke="#63b8ff" d="M1448.99,-345C1445.51,-343.37 1442.15,-341.55 1439,-339.5 1417.23,-325.36 1424.62,-307.87 1403,-293.5 1332.79,-246.82 1294.78,-282.44 1220,-243.5 1181.41,-223.41 1144.13,-187.93 1124.59,-167.72"/>
<polygon fill="#63b8ff" stroke="#63b8ff" points="1447.85,-348.32 1458.43,-348.87 1450.51,-341.84 1447.85,-348.32"/>
</a>
</g>
</g>
<!-- Node30 -->
<g id="Node000030" class="node">
<title>Node30</title>
<g id="a_Node000030"><a xlink:href="class_bit_vector.html#a214e556dd89acce2427a378c5520adbd" target="_top" xlink:title="Last acceptable coordinate knowing BitVector::_element_size.">
<polygon fill="white" stroke="#666666" points="1393,-322 1230,-322 1230,-303 1393,-303 1393,-322"/>
<text text-anchor="middle" x="1311.5" y="-310" font-family="Helvetica,sans-Serif" font-size="10.00">BitVector::MaximalCoordLimit</text>
</a>
</g>
</g>
<!-- Node3&#45;&gt;Node30 -->
<g id="edge36_Node000003_Node000030" class="edge">
<title>Node3&#45;&gt;Node30</title>
<g id="a_edge36_Node000003_Node000030"><a xlink:title=" ">
<path fill="none" stroke="#63b8ff" d="M1466.79,-346.44C1436.55,-338.88 1403.21,-330.55 1403,-330.5 1390.03,-327.59 1375.95,-324.67 1362.85,-322.06"/>
<polygon fill="#63b8ff" stroke="#63b8ff" points="1466.33,-349.94 1476.88,-348.97 1468.03,-343.15 1466.33,-349.94"/>
</a>
</g>
</g>
<!-- Node5 -->
<g id="Node000005" class="node">
<title>Node5</title>
<g id="a_Node000005"><a xlink:href="class_bit_vector.html#a93ab8bc2ec39bf299ae28ffcad504b41" target="_top" xlink:title="Give the coords of the first bit of an element.">
<polygon fill="white" stroke="#666666" points="1176.5,-359 1042.5,-359 1042.5,-340 1176.5,-340 1176.5,-359"/>
<text text-anchor="middle" x="1109.5" y="-347" font-family="Helvetica,sans-Serif" font-size="10.00">BitVector::indexElement</text>
</a>
</g>
</g>
<!-- Node4&#45;&gt;Node5 -->
<g id="edge4_Node000004_Node000005" class="edge">
<title>Node4&#45;&gt;Node5</title>
<g id="a_edge4_Node000004_Node000005"><a xlink:title=" ">
<path fill="none" stroke="#63b8ff" d="M1209.59,-349.5C1198.39,-349.5 1187.2,-349.5 1176.59,-349.5"/>
<polygon fill="#63b8ff" stroke="#63b8ff" points="1209.86,-353 1219.86,-349.5 1209.86,-346 1209.86,-353"/>
</a>
</g>
</g>
<!-- Node6 -->
<g id="Node000006" class="node">
<title>Node6</title>
<g id="a_Node000006"><a xlink:href="class_bit_vector.html#a2d0fe43b80b63edbd64dc887fd87d915" target="_top" xlink:title="Return the element at the position index.">
<polygon fill="white" stroke="#666666" points="970.5,-209 887.5,-209 887.5,-190 970.5,-190 970.5,-209"/>
<text text-anchor="middle" x="929" y="-197" font-family="Helvetica,sans-Serif" font-size="10.00">BitVector::get</text>
</a>
</g>
</g>
<!-- Node5&#45;&gt;Node6 -->
<g id="edge5_Node000005_Node000006" class="edge">
<title>Node5&#45;&gt;Node6</title>
<g id="a_edge5_Node000005_Node000006"><a xlink:title=" ">
<path fill="none" stroke="#63b8ff" d="M1039.78,-334.48C1038.11,-333.25 1036.51,-331.93 1035,-330.5 996.71,-294.28 1037.25,-253.77 999,-217.5 991.27,-210.17 980.95,-205.74 970.65,-203.08"/>
<polygon fill="#63b8ff" stroke="#63b8ff" points="1038.34,-337.69 1048.72,-339.84 1041.95,-331.69 1038.34,-337.69"/>
</a>
</g>
</g>
<!-- Node5&#45;&gt;Node7 -->
<g id="edge6_Node000005_Node000007" class="edge">
<title>Node5&#45;&gt;Node7</title>
<g id="a_edge6_Node000005_Node000007"><a xlink:title=" ">
<path fill="none" stroke="#63b8ff" d="M1076.4,-363.17C1040.63,-378.4 983.71,-402.63 952.42,-415.95"/>
<polygon fill="#63b8ff" stroke="#63b8ff" points="1078.06,-366.26 1085.89,-359.13 1075.32,-359.82 1078.06,-366.26"/>
</a>
</g>
</g>
<!-- Node11 -->
<g id="Node000011" class="node">
<title>Node11</title>
<g id="a_Node000011"><a xlink:href="class_bit_vector.html#aca24053f655c825de0f06ec86fff1cec" target="_top" xlink:title="Replace an element by another element. Can add an element to the list if index = BitVector::_element_...">
<polygon fill="white" stroke="#666666" points="970,-246 888,-246 888,-227 970,-227 970,-246"/>
<text text-anchor="middle" x="929" y="-234" font-family="Helvetica,sans-Serif" font-size="10.00">BitVector::set</text>
</a>
</g>
</g>
<!-- Node5&#45;&gt;Node11 -->
<g id="edge10_Node000005_Node000011" class="edge">
<title>Node5&#45;&gt;Node11</title>
<g id="a_edge10_Node000005_Node000011"><a xlink:title=" ">
<path fill="none" stroke="#63b8ff" d="M1048.53,-336.6C1043.84,-334.81 1039.28,-332.79 1035,-330.5 992.94,-307.98 954.03,-265.23 937.88,-246.13"/>
<polygon fill="#63b8ff" stroke="#63b8ff" points="1047.66,-340.01 1058.26,-339.95 1049.94,-333.39 1047.66,-340.01"/>
</a>
</g>
</g>
<!-- Node8 -->
<g id="Node000008" class="node">
<title>Node8</title>
<g id="a_Node000008"><a xlink:href="class_bit_vector.html#a23c1685317944b2a5c6f149a5fccc6bd" target="_top" xlink:title="Construct a new Bit Vector object.">
<polygon fill="white" stroke="#666666" points="799,-435 688,-435 688,-416 799,-416 799,-435"/>
<text text-anchor="middle" x="743.5" y="-423" font-family="Helvetica,sans-Serif" font-size="10.00">BitVector::BitVector</text>
</a>
</g>
</g>
<!-- Node7&#45;&gt;Node8 -->
<g id="edge7_Node000007_Node000008" class="edge">
<title>Node7&#45;&gt;Node8</title>
<g id="a_edge7_Node000007_Node000008"><a xlink:title=" ">
<path fill="none" stroke="#63b8ff" d="M870.52,-425.5C847.71,-425.5 821.59,-425.5 799.07,-425.5"/>
<polygon fill="#63b8ff" stroke="#63b8ff" points="870.74,-429 880.74,-425.5 870.74,-422 870.74,-429"/>
</a>
</g>
</g>
<!-- Node9 -->
<g id="Node000009" class="node">
<title>Node9</title>
<g id="a_Node000009"><a xlink:href="class_bit_vector.html#a673b530bb6e520f7f7fa90070e0034db" target="_top" xlink:title="Free memory used by BitVector::_data.">
<polygon fill="white" stroke="#666666" points="789,-509 698,-509 698,-490 789,-490 789,-509"/>
<text text-anchor="middle" x="743.5" y="-497" font-family="Helvetica,sans-Serif" font-size="10.00">BitVector::clear</text>
</a>
</g>
</g>
<!-- Node7&#45;&gt;Node9 -->
<g id="edge8_Node000007_Node000009" class="edge">
<title>Node7&#45;&gt;Node9</title>
<g id="a_edge8_Node000007_Node000009"><a xlink:title=" ">
<path fill="none" stroke="#63b8ff" d="M903.77,-440.38C882.98,-452.61 851.89,-469.62 823,-480.5 812.24,-484.55 800.32,-487.96 789.08,-490.71"/>
<polygon fill="#63b8ff" stroke="#63b8ff" points="905.76,-443.27 912.55,-435.14 902.17,-437.26 905.76,-443.27"/>
</a>
</g>
</g>
<!-- Node10 -->
<g id="Node000010" class="node">
<title>Node10</title>
<g id="a_Node000010"><a xlink:href="class_bit_vector.html#a80a4aa212535129b881b4fb2623ce222" target="_top" xlink:title="Reduce the size of BitVector::_data to fit BitVector::_element_number.">
<polygon fill="white" stroke="#666666" points="792,-472 695,-472 695,-453 792,-453 792,-472"/>
<text text-anchor="middle" x="743.5" y="-460" font-family="Helvetica,sans-Serif" font-size="10.00">BitVector::shrink</text>
</a>
</g>
</g>
<!-- Node7&#45;&gt;Node10 -->
<g id="edge9_Node000007_Node000010" class="edge">
<title>Node7&#45;&gt;Node10</title>
<g id="a_edge9_Node000007_Node000010"><a xlink:title=" ">
<path fill="none" stroke="#63b8ff" d="M870.89,-437.02C845.53,-442.13 816.03,-448.08 791.91,-452.94"/>
<polygon fill="#63b8ff" stroke="#63b8ff" points="871.63,-440.44 880.74,-435.03 870.25,-433.57 871.63,-440.44"/>
</a>
</g>
</g>
<!-- Node12 -->
<g id="Node000012" class="node">
<title>Node12</title>
<g id="a_Node000012"><a xlink:href="class_bit_vector.html#afbdbe8a5003f5941ffd5ab095cf87d88" target="_top" xlink:title="Add an element at the end of the vector.">
<polygon fill="white" stroke="#666666" points="795,-209 692,-209 692,-190 795,-190 795,-209"/>
<text text-anchor="middle" x="743.5" y="-197" font-family="Helvetica,sans-Serif" font-size="10.00">BitVector::append</text>
</a>
</g>
</g>
<!-- Node11&#45;&gt;Node12 -->
<g id="edge11_Node000011_Node000012" class="edge">
<title>Node11&#45;&gt;Node12</title>
<g id="a_edge11_Node000011_Node000012"><a xlink:title=" ">
<path fill="none" stroke="#63b8ff" d="M877.78,-226.37C850.97,-220.97 818.17,-214.35 791.82,-209.04"/>
<polygon fill="#63b8ff" stroke="#63b8ff" points="877.24,-229.83 887.73,-228.38 878.62,-222.97 877.24,-229.83"/>
</a>
</g>
</g>
<!-- Node13 -->
<g id="Node000013" class="node">
<title>Node13</title>
<g id="a_Node000013"><a xlink:href="class_bit_vector.html#a5547d55a697d61de026d0a94e743624b" target="_top" xlink:title="Construct a new Bit Vector object.">
<polygon fill="white" stroke="#666666" points="594.5,-209 483.5,-209 483.5,-190 594.5,-190 594.5,-209"/>
<text text-anchor="middle" x="539" y="-197" font-family="Helvetica,sans-Serif" font-size="10.00">BitVector::BitVector</text>
</a>
</g>
</g>
<!-- Node11&#45;&gt;Node13 -->
<g id="edge24_Node000011_Node000013" class="edge">
<title>Node11&#45;&gt;Node13</title>
<g id="a_edge24_Node000011_Node000013"><a xlink:title=" ">
<path fill="none" stroke="#63b8ff" d="M878.1,-226.2C871.44,-223.85 864.89,-220.98 859,-217.5 839.25,-205.82 844.14,-189.43 823,-180.5 783.19,-163.69 664.96,-178.86 594.54,-190.06"/>
<polygon fill="#63b8ff" stroke="#63b8ff" points="877.27,-229.61 887.86,-229.29 879.38,-222.93 877.27,-229.61"/>
</a>
</g>
</g>
<!-- Node11&#45;&gt;Node14 -->
<g id="edge28_Node000011_Node000014" class="edge">
<title>Node11&#45;&gt;Node14</title>
<g id="a_edge28_Node000011_Node000014"><a xlink:title=" ">
<path fill="none" stroke="#63b8ff" d="M906.42,-251.81C886.03,-265.27 854.02,-283.87 823,-291.5 737.19,-312.61 632.58,-295.27 577.72,-283.02"/>
<polygon fill="#63b8ff" stroke="#63b8ff" points="908.61,-254.55 914.92,-246.05 904.68,-248.76 908.61,-254.55"/>
</a>
</g>
</g>
<!-- Node15 -->
<g id="Node000015" class="node">
<title>Node15</title>
<g id="a_Node000015"><a xlink:href="class_sequence.html#aa48778c592160ac60319f780817f491c" target="_top" xlink:title="Insert a number of chars at the position position .">
<polygon fill="white" stroke="#666666" points="414,-95 316,-95 316,-76 414,-76 414,-95"/>
<text text-anchor="middle" x="365" y="-83" font-family="Helvetica,sans-Serif" font-size="10.00">Sequence::insert</text>
</a>
</g>
</g>
<!-- Node11&#45;&gt;Node15 -->
<g id="edge25_Node000011_Node000015" class="edge">
<title>Node11&#45;&gt;Node15</title>
<g id="a_edge25_Node000011_Node000015"><a xlink:title=" ">
<path fill="none" stroke="#63b8ff" d="M877.88,-229.64C870.83,-226.82 864.22,-222.91 859,-217.5 811.07,-167.88 877.15,-109.26 823,-66.5 760.83,-17.41 518.02,-56.37 413.87,-75.96"/>
<polygon fill="#63b8ff" stroke="#63b8ff" points="877.08,-233.06 887.67,-232.85 879.26,-226.41 877.08,-233.06"/>
</a>
</g>
</g>
<!-- Node22 -->
<g id="Node000022" class="node">
<title>Node22</title>
<g id="a_Node000022"><a xlink:href="class_bit_vector.html#a9f86c96c013632abd9d18feafe78d72e" target="_top" xlink:title="Insert a number_of_elements inside the vector at the index pos .">
<polygon fill="white" stroke="#666666" points="412.5,-321 317.5,-321 317.5,-302 412.5,-302 412.5,-321"/>
<text text-anchor="middle" x="365" y="-309" font-family="Helvetica,sans-Serif" font-size="10.00">BitVector::insert</text>
</a>
</g>
</g>
<!-- Node11&#45;&gt;Node22 -->
<g id="edge26_Node000011_Node000022" class="edge">
<title>Node11&#45;&gt;Node22</title>
<g id="a_edge26_Node000011_Node000022"><a xlink:title=" ">
<path fill="none" stroke="#63b8ff" d="M911.36,-253.26C892.06,-271.41 858.33,-299.26 823,-310.5 679.35,-356.21 497.2,-334.62 412.82,-320.45"/>
<polygon fill="#63b8ff" stroke="#63b8ff" points="913.95,-255.62 918.71,-246.16 909.09,-250.59 913.95,-255.62"/>
</a>
</g>
</g>
<!-- Node23 -->
<g id="Node000023" class="node">
<title>Node23</title>
<g id="a_Node000023"><a xlink:href="class_bit_vector.html#a915743b3f94c75c22317d160bfa741ff" target="_top" xlink:title="Insert a number_of_elements inside the vector at the index pos .">
<polygon fill="white" stroke="#666666" points="412.5,-227 317.5,-227 317.5,-208 412.5,-208 412.5,-227"/>
<text text-anchor="middle" x="365" y="-215" font-family="Helvetica,sans-Serif" font-size="10.00">BitVector::insert</text>
</a>
</g>
</g>
<!-- Node11&#45;&gt;Node23 -->
<g id="edge27_Node000011_Node000023" class="edge">
<title>Node11&#45;&gt;Node23</title>
<g id="a_edge27_Node000011_Node000023"><a xlink:title=" ">
<path fill="none" stroke="#63b8ff" d="M877.91,-226.97C871.23,-224.5 864.73,-221.4 859,-217.5 836.96,-202.49 846.85,-181.43 823,-169.5 790.7,-153.35 464.62,-177.03 450,-180.5 425.5,-186.32 399.25,-199.05 382.74,-207.94"/>
<polygon fill="#63b8ff" stroke="#63b8ff" points="877.14,-230.4 887.73,-230.15 879.3,-223.74 877.14,-230.4"/>
</a>
</g>
</g>
<!-- Node24 -->
<g id="Node000024" class="node">
<title>Node24</title>
<g id="a_Node000024"><a xlink:href="class_bit_vector.html#a2af5c1a1a0050e2b52d06c38436280fd" target="_top" xlink:title="Add an element at the end of the vector.">
<polygon fill="white" stroke="#666666" points="795,-283 692,-283 692,-264 795,-264 795,-283"/>
<text text-anchor="middle" x="743.5" y="-271" font-family="Helvetica,sans-Serif" font-size="10.00">BitVector::append</text>
</a>
</g>
</g>
<!-- Node11&#45;&gt;Node24 -->
<g id="edge23_Node000011_Node000024" class="edge">
<title>Node11&#45;&gt;Node24</title>
<g id="a_edge23_Node000011_Node000024"><a xlink:title=" ">
<path fill="none" stroke="#63b8ff" d="M877.78,-246.63C850.97,-252.03 818.17,-258.65 791.82,-263.96"/>
<polygon fill="#63b8ff" stroke="#63b8ff" points="878.62,-250.03 887.73,-244.62 877.24,-243.17 878.62,-250.03"/>
</a>
</g>
</g>
<!-- Node25 -->
<g id="Node000025" class="node">
<title>Node25</title>
<g id="a_Node000025"><a xlink:href="class_bit_vector.html#a87f84edf5dd56606b26e8741ba6ced02" target="_top" xlink:title="Remove a number of element from the vector.">
<polygon fill="white" stroke="#666666" points="795.5,-95 691.5,-95 691.5,-76 795.5,-76 795.5,-95"/>
<text text-anchor="middle" x="743.5" y="-83" font-family="Helvetica,sans-Serif" font-size="10.00">BitVector::remove</text>
</a>
</g>
</g>
<!-- Node11&#45;&gt;Node25 -->
<g id="edge29_Node000011_Node000025" class="edge">
<title>Node11&#45;&gt;Node25</title>
<g id="a_edge29_Node000011_Node000025"><a xlink:title=" ">
<path fill="none" stroke="#63b8ff" d="M878.04,-229.14C871.03,-226.38 864.39,-222.61 859,-217.5 822.29,-182.68 859.22,-144.83 823,-109.5 815.45,-102.14 805.71,-97.03 795.67,-93.48"/>
<polygon fill="#63b8ff" stroke="#63b8ff" points="877.15,-232.53 887.75,-232.32 879.33,-225.88 877.15,-232.53"/>
</a>
</g>
</g>
<!-- Node27 -->
<g id="Node000027" class="node">
<title>Node27</title>
<g id="a_Node000027"><a xlink:href="class_bit_vector.html#a38e8be69974c874857dd7cb6a52429ac" target="_top" xlink:title="Replace an element by another element. Can add an element to the list if index = BitVector::_element_...">
<polygon fill="white" stroke="#666666" points="784.5,-246 702.5,-246 702.5,-227 784.5,-227 784.5,-246"/>
<text text-anchor="middle" x="743.5" y="-234" font-family="Helvetica,sans-Serif" font-size="10.00">BitVector::set</text>
</a>
</g>
</g>
<!-- Node11&#45;&gt;Node27 -->
<g id="edge32_Node000011_Node000027" class="edge">
<title>Node11&#45;&gt;Node27</title>
<g id="a_edge32_Node000011_Node000027"><a xlink:title=" ">
<path fill="none" stroke="#63b8ff" d="M877.7,-236.5C848.43,-236.5 812.02,-236.5 784.68,-236.5"/>
<polygon fill="#63b8ff" stroke="#63b8ff" points="877.73,-240 887.73,-236.5 877.73,-233 877.73,-240"/>
</a>
</g>
</g>
<!-- Node12&#45;&gt;Node13 -->
<g id="edge12_Node000012_Node000013" class="edge">
<title>Node12&#45;&gt;Node13</title>
<g id="a_edge12_Node000012_Node000013"><a xlink:title=" ">
<path fill="none" stroke="#63b8ff" d="M681.57,-199.5C653.89,-199.5 621.41,-199.5 594.54,-199.5"/>
<polygon fill="#63b8ff" stroke="#63b8ff" points="681.92,-203 691.92,-199.5 681.92,-196 681.92,-203"/>
</a>
</g>
</g>
<!-- Node12&#45;&gt;Node14 -->
<g id="edge13_Node000012_Node000014" class="edge">
<title>Node12&#45;&gt;Node14</title>
<g id="a_edge13_Node000012_Node000014"><a xlink:title=" ">
<path fill="none" stroke="#63b8ff" d="M684,-211.56C677.2,-213.36 670.41,-215.34 664,-217.5 625.05,-230.62 581.76,-251.77 558.03,-263.98"/>
<polygon fill="#63b8ff" stroke="#63b8ff" points="685.08,-214.89 693.92,-209.05 683.37,-208.1 685.08,-214.89"/>
</a>
</g>
</g>
<!-- Node14&#45;&gt;Node15 -->
<g id="edge14_Node000014_Node000015" class="edge">
<title>Node14&#45;&gt;Node15</title>
<g id="a_edge14_Node000014_Node000015"><a xlink:title=" ">
<path fill="none" stroke="#63b8ff" d="M508.66,-259.09C490.36,-249.13 467.12,-234.62 450,-217.5 411.01,-178.51 381.04,-118.35 370.3,-95.12"/>
<polygon fill="#63b8ff" stroke="#63b8ff" points="507.24,-262.3 517.72,-263.87 510.51,-256.11 507.24,-262.3"/>
</a>
</g>
</g>
<!-- Node14&#45;&gt;Node22 -->
<g id="edge21_Node000014_Node000022" class="edge">
<title>Node14&#45;&gt;Node22</title>
<g id="a_edge21_Node000014_Node000022"><a xlink:title=" ">
<path fill="none" stroke="#63b8ff" d="M484.8,-285.25C460.48,-290.63 432.05,-296.91 409.09,-301.98"/>
<polygon fill="#63b8ff" stroke="#63b8ff" points="485.59,-288.66 494.6,-283.09 484.08,-281.83 485.59,-288.66"/>
</a>
</g>
</g>
<!-- Node14&#45;&gt;Node23 -->
<g id="edge22_Node000014_Node000023" class="edge">
<title>Node14&#45;&gt;Node23</title>
<g id="a_edge22_Node000014_Node000023"><a xlink:title=" ">
<path fill="none" stroke="#63b8ff" d="M498.66,-260.69C467.14,-250.43 423.65,-236.27 395.18,-227"/>
<polygon fill="#63b8ff" stroke="#63b8ff" points="497.84,-264.11 508.43,-263.87 500.01,-257.45 497.84,-264.11"/>
</a>
</g>
</g>
<!-- Node16 -->
<g id="Node000016" class="node">
<title>Node16</title>
<g id="a_Node000016"><a xlink:href="class_sequence.html#a3cf6cf5e54782f4d1a2ee07ec519523c" target="_top" xlink:title="Insert a char at the position position .">
<polygon fill="white" stroke="#666666" points="268,-132 170,-132 170,-113 268,-113 268,-132"/>
<text text-anchor="middle" x="219" y="-120" font-family="Helvetica,sans-Serif" font-size="10.00">Sequence::insert</text>
</a>
</g>
</g>
<!-- Node15&#45;&gt;Node16 -->
<g id="edge15_Node000015_Node000016" class="edge">
<title>Node15&#45;&gt;Node16</title>
<g id="a_edge15_Node000015_Node000016"><a xlink:title=" ">
<path fill="none" stroke="#63b8ff" d="M317.09,-97.55C297.77,-102.52 275.68,-108.19 257.46,-112.88"/>
<polygon fill="#63b8ff" stroke="#63b8ff" points="318.1,-100.91 326.92,-95.03 316.36,-94.13 318.1,-100.91"/>
</a>
</g>
</g>
<!-- Node17 -->
<g id="Node000017" class="node">
<title>Node17</title>
<g id="a_Node000017"><a xlink:href="class_sequence.html#aa57fd5a7fdd173374e56006ce1c47bdc" target="_top" xlink:title="Insert a number of chars at the the back of the sequence position .">
<polygon fill="white" stroke="#666666" points="280,-95 158,-95 158,-76 280,-76 280,-95"/>
<text text-anchor="middle" x="219" y="-83" font-family="Helvetica,sans-Serif" font-size="10.00">Sequence::insertBack</text>
</a>
</g>
</g>
<!-- Node15&#45;&gt;Node17 -->
<g id="edge16_Node000015_Node000017" class="edge">
<title>Node15&#45;&gt;Node17</title>
<g id="a_edge16_Node000015_Node000017"><a xlink:title=" ">
<path fill="none" stroke="#63b8ff" d="M305.61,-85.5C297.25,-85.5 288.64,-85.5 280.25,-85.5"/>
<polygon fill="#63b8ff" stroke="#63b8ff" points="305.65,-89 315.65,-85.5 305.65,-82 305.65,-89"/>
</a>
</g>
</g>
<!-- Node18 -->
<g id="Node000018" class="node">
<title>Node18</title>
<g id="a_Node000018"><a xlink:href="class_sequence.html#a092f380b654de9aaa8a770ec0948c454" target="_top" xlink:title="Insert a number of chars at the the front of the sequence position .">
<polygon fill="white" stroke="#666666" points="280,-58 158,-58 158,-39 280,-39 280,-58"/>
<text text-anchor="middle" x="219" y="-46" font-family="Helvetica,sans-Serif" font-size="10.00">Sequence::insertFront</text>
</a>
</g>
</g>
<!-- Node15&#45;&gt;Node18 -->
<g id="edge17_Node000015_Node000018" class="edge">
<title>Node15&#45;&gt;Node18</title>
<g id="a_edge17_Node000015_Node000018"><a xlink:title=" ">
<path fill="none" stroke="#63b8ff" d="M317.09,-73.45C297.77,-68.48 275.68,-62.81 257.46,-58.12"/>
<polygon fill="#63b8ff" stroke="#63b8ff" points="316.36,-76.87 326.92,-75.97 318.1,-70.09 316.36,-76.87"/>
</a>
</g>
</g>
<!-- Node19 -->
<g id="Node000019" class="node">
<title>Node19</title>
<g id="a_Node000019"><a xlink:href="class_sequence.html#a16e70626e330194c1507ed339c9c629c" target="_top" xlink:title="Insert a char at the the back of the sequence position .">
<polygon fill="white" stroke="#666666" points="122,-95 0,-95 0,-76 122,-76 122,-95"/>
<text text-anchor="middle" x="61" y="-83" font-family="Helvetica,sans-Serif" font-size="10.00">Sequence::insertBack</text>
</a>
</g>
</g>
<!-- Node18&#45;&gt;Node19 -->
<g id="edge18_Node000018_Node000019" class="edge">
<title>Node18&#45;&gt;Node19</title>
<g id="a_edge18_Node000018_Node000019"><a xlink:title=" ">
<path fill="none" stroke="#63b8ff" d="M168.01,-60.36C146.78,-65.39 122.36,-71.18 102.31,-75.94"/>
<polygon fill="#63b8ff" stroke="#63b8ff" points="168.9,-63.74 177.83,-58.03 167.29,-56.93 168.9,-63.74"/>
</a>
</g>
</g>
<!-- Node20 -->
<g id="Node000020" class="node">
<title>Node20</title>
<g id="a_Node000020"><a xlink:href="class_sequence.html#a1fa6868ce587e1f3d779bb226cfda548" target="_top" xlink:title="Insert a char at the the front of the sequence position .">
<polygon fill="white" stroke="#666666" points="122,-58 0,-58 0,-39 122,-39 122,-58"/>
<text text-anchor="middle" x="61" y="-46" font-family="Helvetica,sans-Serif" font-size="10.00">Sequence::insertFront</text>
</a>
</g>
</g>
<!-- Node18&#45;&gt;Node20 -->
<g id="edge19_Node000018_Node000020" class="edge">
<title>Node18&#45;&gt;Node20</title>
<g id="a_edge19_Node000018_Node000020"><a xlink:title=" ">
<path fill="none" stroke="#63b8ff" d="M147.46,-48.5C139.01,-48.5 130.44,-48.5 122.15,-48.5"/>
<polygon fill="#63b8ff" stroke="#63b8ff" points="147.69,-52 157.69,-48.5 147.69,-45 147.69,-52"/>
</a>
</g>
</g>
<!-- Node21 -->
<g id="Node000021" class="node">
<title>Node21</title>
<g id="a_Node000021"><a xlink:href="class_sequence.html#ae293cd5124445b604bbcba3a5f01a48a" target="_top" xlink:title="Main Constructor. Construct a new Sequence object.">
<polygon fill="white" stroke="#666666" points="119.5,-21 2.5,-21 2.5,-2 119.5,-2 119.5,-21"/>
<text text-anchor="middle" x="61" y="-9" font-family="Helvetica,sans-Serif" font-size="10.00">Sequence::Sequence</text>
</a>
</g>
</g>
<!-- Node18&#45;&gt;Node21 -->
<g id="edge20_Node000018_Node000021" class="edge">
<title>Node18&#45;&gt;Node21</title>
<g id="a_edge20_Node000018_Node000021"><a xlink:title=" ">
<path fill="none" stroke="#63b8ff" d="M168.01,-36.64C146.78,-31.61 122.36,-25.82 102.31,-21.06"/>
<polygon fill="#63b8ff" stroke="#63b8ff" points="167.29,-40.07 177.83,-38.97 168.9,-33.26 167.29,-40.07"/>
</a>
</g>
</g>
<!-- Node25&#45;&gt;Node15 -->
<g id="edge31_Node000025_Node000015" class="edge">
<title>Node25&#45;&gt;Node15</title>
<g id="a_edge31_Node000025_Node000015"><a xlink:title=" ">
<path fill="none" stroke="#63b8ff" d="M681.14,-85.5C606.52,-85.5 482.12,-85.5 414.08,-85.5"/>
<polygon fill="#63b8ff" stroke="#63b8ff" points="681.33,-89 691.33,-85.5 681.33,-82 681.33,-89"/>
</a>
</g>
</g>
<!-- Node26 -->
<g id="Node000026" class="node">
<title>Node26</title>
<g id="a_Node000026"><a xlink:href="class_sequence.html#a20eb6bdd6f5cba62a251eff4387a525d" target="_top" xlink:title="Remove a portion of the sequence.">
<polygon fill="white" stroke="#666666" points="587.5,-133 490.5,-133 490.5,-114 587.5,-114 587.5,-133"/>
<text text-anchor="middle" x="539" y="-121" font-family="Helvetica,sans-Serif" font-size="10.00">Sequence::erase</text>
</a>
</g>
</g>
<!-- Node25&#45;&gt;Node26 -->
<g id="edge30_Node000025_Node000026" class="edge">
<title>Node25&#45;&gt;Node26</title>
<g id="a_edge30_Node000025_Node000026"><a xlink:title=" ">
<path fill="none" stroke="#63b8ff" d="M681.7,-96.91C651.6,-102.56 615.81,-109.27 587.73,-114.54"/>
<polygon fill="#63b8ff" stroke="#63b8ff" points="682.48,-100.32 691.66,-95.04 681.19,-93.44 682.48,-100.32"/>
</a>
</g>
</g>
<!-- Node29 -->
<g id="Node000029" class="node">
<title>Node29</title>
<g id="a_Node000029"><a xlink:href="class_bit_vector.html#a87e099aba27ebb0f67c07dd8314828e7" target="_top" xlink:title="Do maximum capacity is reached (With no possibility to push it further)">
<polygon fill="white" stroke="#666666" points="823,-19 664,-19 664,0 823,0 823,-19"/>
<text text-anchor="middle" x="743.5" y="-7" font-family="Helvetica,sans-Serif" font-size="10.00">BitVector::maxSizeIsReached</text>
</a>
</g>
</g>
<!-- Node28&#45;&gt;Node29 -->
<g id="edge35_Node000028_Node000029" class="edge">
<title>Node28&#45;&gt;Node29</title>
<g id="a_edge35_Node000028_Node000029"><a xlink:title=" ">
<path fill="none" stroke="#63b8ff" d="M1066.05,-133.24C1010.74,-108.5 910.72,-65.02 823,-33.5 808.52,-28.3 792.28,-23.21 778.35,-19.07"/>
<polygon fill="#63b8ff" stroke="#63b8ff" points="1064.96,-136.59 1075.52,-137.48 1067.83,-130.2 1064.96,-136.59"/>
</a>
</g>
</g>
<!-- Node31 -->
<g id="Node000031" class="node">
<title>Node31</title>
<g id="a_Node000031"><a xlink:href="class_bit_vector.html#acb362f03b29600195996f52c04940439" target="_top" xlink:title="How many octet can be contained in this object knowing BitVector::_element_size.">
<polygon fill="white" stroke="#666666" points="1179.5,-322 1039.5,-322 1039.5,-303 1179.5,-303 1179.5,-322"/>
<text text-anchor="middle" x="1109.5" y="-310" font-family="Helvetica,sans-Serif" font-size="10.00">BitVector::maxOctetLimit</text>
</a>
</g>
</g>
<!-- Node30&#45;&gt;Node31 -->
<g id="edge37_Node000030_Node000031" class="edge">
<title>Node30&#45;&gt;Node31</title>
<g id="a_edge37_Node000030_Node000031"><a xlink:title=" ">
<path fill="none" stroke="#63b8ff" d="M1219.55,-312.5C1206.15,-312.5 1192.54,-312.5 1179.69,-312.5"/>
<polygon fill="#63b8ff" stroke="#63b8ff" points="1219.73,-316 1229.73,-312.5 1219.73,-309 1219.73,-316"/>
</a>
</g>
</g>
<!-- Node31&#45;&gt;Node7 -->
<g id="edge40_Node000031_Node000007" class="edge">
<title>Node31&#45;&gt;Node7</title>
<g id="a_edge40_Node000031_Node000007"><a xlink:title=" ">
<path fill="none" stroke="#63b8ff" d="M1045.96,-325.49C1042.18,-326.98 1038.49,-328.65 1035,-330.5 992.65,-352.97 953.9,-396.33 937.83,-415.72"/>
<polygon fill="#63b8ff" stroke="#63b8ff" points="1047.27,-328.74 1055.52,-322.1 1044.93,-322.14 1047.27,-328.74"/>
</a>
</g>
</g>
<!-- Node32 -->
<g id="Node000032" class="node">
<title>Node32</title>
<g id="a_Node000032"><a xlink:href="class_bit_vector.html#a00aeec5e60b478d74e1540f34f46e37c" target="_top" xlink:title="Do maximum BitVector::_data_size is reached (With no possibility to push it further)">
<polygon fill="white" stroke="#666666" points="999,-145.5 859,-145.5 859,-115.5 999,-115.5 999,-145.5"/>
<text text-anchor="start" x="867" y="-133.5" font-family="Helvetica,sans-Serif" font-size="10.00">BitVector::maxDataSizeIs</text>
<text text-anchor="middle" x="929" y="-122.5" font-family="Helvetica,sans-Serif" font-size="10.00">Reached</text>
</a>
</g>
</g>
<!-- Node31&#45;&gt;Node32 -->
<g id="edge38_Node000031_Node000032" class="edge">
<title>Node31&#45;&gt;Node32</title>
<g id="a_edge38_Node000031_Node000032"><a xlink:title=" ">
<path fill="none" stroke="#63b8ff" d="M1095.84,-294.5C1076.66,-267.9 1038.27,-217.28 999,-180.5 985.07,-167.45 967.66,-154.86 953.81,-145.58"/>
<polygon fill="#63b8ff" stroke="#63b8ff" points="1093.14,-296.74 1101.8,-302.85 1098.84,-292.67 1093.14,-296.74"/>
</a>
</g>
</g>
<!-- Node32&#45;&gt;Node29 -->
<g id="edge39_Node000032_Node000029" class="edge">
<title>Node32&#45;&gt;Node29</title>
<g id="a_edge39_Node000032_Node000029"><a xlink:title=" ">
<path fill="none" stroke="#63b8ff" d="M909.09,-107.91C889.61,-85.98 857.31,-53.2 823,-33.5 812.37,-27.4 800.03,-22.69 788.31,-19.12"/>
<polygon fill="#63b8ff" stroke="#63b8ff" points="906.46,-110.22 915.67,-115.46 911.74,-105.62 906.46,-110.22"/>
</a>
</g>
</g>
<!-- Node36 -->
<g id="Node000036" class="node">
<title>Node36</title>
<g id="a_Node000036"><a xlink:href="class_bit_vector_1_1_coords.html#a4597c3633519643ceddf0f098317cf33" target="_top" xlink:title="Construct a new Coords object. Coords::octet = 0 and Coords::bit = 0.">
<polygon fill="white" stroke="#666666" points="1365,-234.5 1258,-234.5 1258,-204.5 1365,-204.5 1365,-234.5"/>
<text text-anchor="start" x="1266" y="-222.5" font-family="Helvetica,sans-Serif" font-size="10.00">BitVector::Coords::</text>
<text text-anchor="middle" x="1311.5" y="-211.5" font-family="Helvetica,sans-Serif" font-size="10.00">Coords</text>
</a>
</g>
</g>
<!-- Node35&#45;&gt;Node36 -->
<g id="edge45_Node000035_Node000036" class="edge">
<title>Node35&#45;&gt;Node36</title>
<g id="a_edge45_Node000035_Node000036"><a xlink:title=" ">
<path fill="none" stroke="#63b8ff" d="M1452.27,-219.5C1424.37,-219.5 1391.89,-219.5 1365.26,-219.5"/>
<polygon fill="#63b8ff" stroke="#63b8ff" points="1452.32,-223 1462.32,-219.5 1452.32,-216 1452.32,-223"/>
</a>
</g>
</g>
</g>
</svg>

<g id="navigator" transform="translate(0 0)" fill="#404254">
  <rect fill="#f2f5e9" fill-opacity="0.5" stroke="#606060" stroke-width=".5" x="0" y="0" width="60" height="60"/>
  <use id="zoomplus" xlink:href="#zoomPlus" x="17" y="9" onmousedown="handleZoom(evt,'in')"/>
  <use id="zoomminus" xlink:href="#zoomMin" x="42" y="9" onmousedown="handleZoom(evt,'out')"/>
  <use id="reset" xlink:href="#resetDef" x="30" y="36" onmousedown="handleReset()"/>
   <use id="arrowup" xlink:href="#arrowUp" x="0" y="0" onmousedown="handlePan(0,-1)"/>
  <use id="arrowright" xlink:href="#arrowRight" x="0" y="0" onmousedown="handlePan(1,0)"/>
  <use id="arrowdown" xlink:href="#arrowDown" x="0" y="0" onmousedown="handlePan(0,1)"/>
  <use id="arrowleft" xlink:href="#arrowLeft" x="0" y="0" onmousedown="handlePan(-1,0)"/>
</g>
<svg viewBox="0 0 15 15" width="100%" height="30px" preserveAspectRatio="xMaxYMin meet">
 <g id="arrow_out" transform="scale(0.3 0.3)">
  <a xlink:href="class_bit_vector_aa3228d2bacb1bb0f6072d73d43a49456_icgraph_org.svg" target="_base">
   <rect id="button" ry="5" rx="5" y="6" x="6" height="38" width="38"
        fill="#f2f5e9" fill-opacity="0.5" stroke="#606060" stroke-width="1.0"/>
   <path id="arrow"
     d="M 11.500037,31.436501 C 11.940474,20.09759 22.043105,11.32322 32.158766,21.979434 L 37.068811,17.246167 C 37.068811,17.246167 37.088388,32 37.088388,32 L 22.160133,31.978069 C 22.160133,31.978069 26.997745,27.140456 26.997745,27.140456 C 18.528582,18.264221 13.291696,25.230495 11.500037,31.436501 z"
     style="fill:#404040;"/>
  </a>
 </g>
</svg>

<style type='text/css'>
<![CDATA[
[data-mouse-over-selected='false'] { opacity: 0.7; }
[data-mouse-over-selected='true']  { opacity: 1.0; }
]]>
</style>
<script type="application/ecmascript"><![CDATA[
document.addEventListener('DOMContentLoaded', (event) => {
  highlightEdges();
  highlightAdjacentNodes();
});
]]></script>
</svg>
