<?xml version="1.0" encoding="UTF-8" standalone="no"?>
<!DOCTYPE svg PUBLIC "-//W3C//DTD SVG 1.1//EN"
 "http://www.w3.org/Graphics/SVG/1.1/DTD/svg11.dtd">
<!-- Generated by graphviz version 2.43.0 (0)
 -->
<!-- Title: BitVector::append Pages: 1 -->
<!--zoomable 421 -->

<svg id="main" version="1.1" xmlns="http://www.w3.org/2000/svg" xmlns:xlink="http://www.w3.org/1999/xlink" xml:space="preserve" onload="init(evt)">
<style type="text/css"><![CDATA[
.node, .edge {opacity: 0.7;}
.node.selected, .edge.selected {opacity: 1;}
.edge:hover path { stroke: red; }
.edge:hover polygon { stroke: red; fill: red; }
]]></style>

<defs>
  <circle id="rim" cx="0" cy="0" r="7"/>
  <circle id="rim2" cx="0" cy="0" r="3.5"/>
  <g id="zoomPlus">
    <use xlink:href="#rim" fill="#404040"><set attributeName="fill" to="#808080" begin="zoomplus.mouseover" end="zoomplus.mouseout"/></use>
    <path d="M-4,0h8M0,-4v8" fill="none" stroke="white" stroke-width="1.5" pointer-events="none"/>
  </g>
  <g id="zoomMin">
    <use xlink:href="#rim" fill="#404040"><set attributeName="fill" to="#808080" begin="zoomminus.mouseover" end="zoomminus.mouseout"/></use>
    <path d="M-4,0h8" fill="none" stroke="white" stroke-width="1.5" pointer-events="none"/>
  </g>
  <g id="arrowUp" transform="translate(30 24)">
    <use xlink:href="#rim"/>
    <path pointer-events="none" fill="none" stroke="white" stroke-width="1.5" d="M0,-3.0v7 M-2.5,-0.5L0,-3.0L2.5,-0.5"/>
  </g>
  <g id="arrowRight" transform="rotate(90) translate(36 -43)">
    <use xlink:href="#rim"/>
    <path pointer-events="none" fill="none" stroke="white" stroke-width="1.5" d="M0,-3.0v7 M-2.5,-0.5L0,-3.0L2.5,-0.5"/>
  </g>
  <g id="arrowDown" transform="rotate(180) translate(-30 -48)">
    <use xlink:href="#rim"/>
    <path pointer-events="none" fill="none" stroke="white" stroke-width="1.5" d="M0,-3.0v7 M-2.5,-0.5L0,-3.0L2.5,-0.5"/>
  </g>
  <g id="arrowLeft" transform="rotate(270) translate(-36 17)">
    <use xlink:href="#rim"/>
    <path pointer-events="none" fill="none" stroke="white" stroke-width="1.5" d="M0,-3.0v7 M-2.5,-0.5L0,-3.0L2.5,-0.5"/>
  </g>
  <g id="resetDef">
    <use xlink:href="#rim2" fill="#404040"><set attributeName="fill" to="#808080" begin="reset.mouseover" end="reset.mouseout"/></use>
  </g>
</defs>
<script type="application/ecmascript">
var viewWidth = 1482;
var viewHeight = 421;
var sectionId = 'dynsection-6';
</script>
<script type="application/ecmascript" xlink:href="svg.min.js"/>
<svg id="graph" class="graph">
<g id="viewport">
<title>BitVector::append</title>
<!-- Node1 -->
<g id="Node000001" class="node">
<title>Node1</title>
<g id="a_Node000001"><a xlink:title="Add an element at the end of the vector.">
<polygon fill="#999999" stroke="#666666" points="103,-140 0,-140 0,-121 103,-121 103,-140"/>
<text text-anchor="middle" x="51.5" y="-128" font-family="Helvetica,sans-Serif" font-size="10.00">BitVector::append</text>
</a>
</g>
</g>
<!-- Node2 -->
<g id="Node000002" class="node">
<title>Node2</title>
<g id="a_Node000002"><a xlink:href="class_bit_vector.html#aca24053f655c825de0f06ec86fff1cec" target="_top" xlink:title="Replace an element by another element. Can add an element to the list if index = BitVector::_element_...">
<polygon fill="white" stroke="#666666" points="221,-140 139,-140 139,-121 221,-121 221,-140"/>
<text text-anchor="middle" x="180" y="-128" font-family="Helvetica,sans-Serif" font-size="10.00">BitVector::set</text>
</a>
</g>
</g>
<!-- Node1&#45;&gt;Node2 -->
<g id="edge1_Node000001_Node000002" class="edge">
<title>Node1&#45;&gt;Node2</title>
<g id="a_edge1_Node000001_Node000002"><a xlink:title=" ">
<path fill="none" stroke="#63b8ff" d="M103.22,-130.5C111.63,-130.5 120.34,-130.5 128.74,-130.5"/>
<polygon fill="#63b8ff" stroke="#63b8ff" points="128.77,-134 138.77,-130.5 128.77,-127 128.77,-134"/>
</a>
</g>
</g>
<!-- Node3 -->
<g id="Node000003" class="node">
<title>Node3</title>
<g id="a_Node000003"><a xlink:href="class_bit_vector.html#a8c3c1f0faa0bbf35638c7217a841cbd8" target="_top" xlink:title=" ">
<polygon fill="white" stroke="#666666" points="378.5,-335 269.5,-335 269.5,-316 378.5,-316 378.5,-335"/>
<text text-anchor="middle" x="324" y="-323" font-family="Helvetica,sans-Serif" font-size="10.00">BitVector::copyBits</text>
</a>
</g>
</g>
<!-- Node2&#45;&gt;Node3 -->
<g id="edge2_Node000002_Node000003" class="edge">
<title>Node2&#45;&gt;Node3</title>
<g id="a_edge2_Node000002_Node000003"><a xlink:title=" ">
<path fill="none" stroke="#63b8ff" d="M188.04,-140.17C210.52,-171.03 280.77,-267.51 310.02,-307.68"/>
<polygon fill="#63b8ff" stroke="#63b8ff" points="307.2,-309.75 315.92,-315.77 312.86,-305.63 307.2,-309.75"/>
</a>
</g>
</g>
<!-- Node4 -->
<g id="Node000004" class="node">
<title>Node4</title>
<g id="a_Node000004"><a xlink:href="class_bit_vector.html#aebe159444eb9d619959b7325ac5dac2d" target="_top" xlink:title="Return the value of the bit at the position coord.">
<polygon fill="white" stroke="#666666" points="1331,-259 1248,-259 1248,-240 1331,-240 1331,-259"/>
<text text-anchor="middle" x="1289.5" y="-247" font-family="Helvetica,sans-Serif" font-size="10.00">BitVector::get</text>
</a>
</g>
</g>
<!-- Node2&#45;&gt;Node4 -->
<g id="edge7_Node000002_Node000004" class="edge">
<title>Node2&#45;&gt;Node4</title>
<g id="a_edge7_Node000002_Node000004"><a xlink:title=" ">
<path fill="none" stroke="#63b8ff" d="M181.43,-140.28C183.47,-173.96 194.83,-286.3 257,-344.5 344.28,-426.19 397.95,-411.5 517.5,-411.5 517.5,-411.5 517.5,-411.5 928,-411.5 1059.5,-411.5 1099.41,-396.44 1212,-328.5 1238.31,-312.63 1261.77,-285.49 1275.57,-267.52"/>
<polygon fill="#63b8ff" stroke="#63b8ff" points="1278.7,-269.18 1281.87,-259.07 1273.09,-265 1278.7,-269.18"/>
</a>
</g>
</g>
<!-- Node7 -->
<g id="Node000007" class="node">
<title>Node7</title>
<g id="a_Node000007"><a xlink:href="class_bit_vector.html#a115789c8a9812eabb52f8843cd4e9965" target="_top" xlink:title="Give the a coord object that represent the size of 1 element inside BitVector::_data.">
<polygon fill="white" stroke="#666666" points="1198.5,-87 1067.5,-87 1067.5,-68 1198.5,-68 1198.5,-87"/>
<text text-anchor="middle" x="1133" y="-75" font-family="Helvetica,sans-Serif" font-size="10.00">BitVector::getCoordUnit</text>
</a>
</g>
</g>
<!-- Node2&#45;&gt;Node7 -->
<g id="edge8_Node000002_Node000007" class="edge">
<title>Node2&#45;&gt;Node7</title>
<g id="a_edge8_Node000002_Node000007"><a xlink:title=" ">
<path fill="none" stroke="#63b8ff" d="M203.38,-120.98C256.71,-99.18 395.95,-47.5 517.5,-47.5 517.5,-47.5 517.5,-47.5 724,-47.5 840.64,-47.5 975.53,-59.85 1057.26,-68.7"/>
<polygon fill="#63b8ff" stroke="#63b8ff" points="1057.13,-72.2 1067.45,-69.81 1057.89,-65.25 1057.13,-72.2"/>
</a>
</g>
</g>
<!-- Node8 -->
<g id="Node000008" class="node">
<title>Node8</title>
<g id="a_Node000008"><a xlink:href="class_bit_vector.html#a93ab8bc2ec39bf299ae28ffcad504b41" target="_top" xlink:title="Give the coords of the first bit of an element.">
<polygon fill="white" stroke="#666666" points="391,-181 257,-181 257,-162 391,-162 391,-181"/>
<text text-anchor="middle" x="324" y="-169" font-family="Helvetica,sans-Serif" font-size="10.00">BitVector::indexElement</text>
</a>
</g>
</g>
<!-- Node2&#45;&gt;Node8 -->
<g id="edge10_Node000002_Node000008" class="edge">
<title>Node2&#45;&gt;Node8</title>
<g id="a_edge10_Node000002_Node000008"><a xlink:title=" ">
<path fill="none" stroke="#63b8ff" d="M213.93,-140.01C233.6,-145.69 258.79,-152.96 280.01,-159.09"/>
<polygon fill="#63b8ff" stroke="#63b8ff" points="279.17,-162.49 289.75,-161.9 281.12,-155.76 279.17,-162.49"/>
</a>
</g>
</g>
<!-- Node15 -->
<g id="Node000015" class="node">
<title>Node15</title>
<g id="a_Node000015"><a xlink:href="class_bit_vector.html#ab4d98ce4b8d36ed6af1aa46e67810972" target="_top" xlink:title="Give the last coordinates thar can be contained inside BitVector::_data with the current BitVector::_...">
<polygon fill="white" stroke="#666666" points="373,-19 275,-19 275,0 373,0 373,-19"/>
<text text-anchor="middle" x="324" y="-7" font-family="Helvetica,sans-Serif" font-size="10.00">BitVector::lastBit</text>
</a>
</g>
</g>
<!-- Node2&#45;&gt;Node15 -->
<g id="edge23_Node000002_Node000015" class="edge">
<title>Node2&#45;&gt;Node15</title>
<g id="a_edge23_Node000002_Node000015"><a xlink:title=" ">
<path fill="none" stroke="#63b8ff" d="M186.14,-120.77C196.81,-101.45 223.23,-57.99 257,-33.5 262.7,-29.36 269.19,-25.87 275.83,-22.94"/>
<polygon fill="#63b8ff" stroke="#63b8ff" points="277.58,-26.01 285.57,-19.05 274.99,-19.51 277.58,-26.01"/>
</a>
</g>
</g>
<!-- Node16 -->
<g id="Node000016" class="node">
<title>Node16</title>
<g id="a_Node000016"><a xlink:href="class_bit_vector.html#ab92cdd9780b949d9d762f58e1ee4a0ae" target="_top" xlink:title="Last postion of the vector.">
<polygon fill="white" stroke="#666666" points="774,-98 672,-98 672,-79 774,-79 774,-98"/>
<text text-anchor="middle" x="723" y="-86" font-family="Helvetica,sans-Serif" font-size="10.00">BitVector::lastPos</text>
</a>
</g>
</g>
<!-- Node2&#45;&gt;Node16 -->
<g id="edge24_Node000002_Node000016" class="edge">
<title>Node2&#45;&gt;Node16</title>
<g id="a_edge24_Node000002_Node000016"><a xlink:title=" ">
<path fill="none" stroke="#63b8ff" d="M221.22,-127.38C315.38,-120.07 550.53,-101.81 661.82,-93.17"/>
<polygon fill="#63b8ff" stroke="#63b8ff" points="662.17,-96.66 671.87,-92.39 661.63,-89.68 662.17,-96.66"/>
</a>
</g>
</g>
<!-- Node3&#45;&gt;Node4 -->
<g id="edge3_Node000003_Node000004" class="edge">
<title>Node3&#45;&gt;Node4</title>
<g id="a_edge3_Node000003_Node000004"><a xlink:title=" ">
<path fill="none" stroke="#63b8ff" d="M378.62,-325.5C454.9,-325.5 599.14,-325.5 722,-325.5 722,-325.5 722,-325.5 928,-325.5 1054.67,-325.5 1092.61,-343.82 1212,-301.5 1234.02,-293.7 1255.71,-277.97 1270.34,-265.85"/>
<polygon fill="#63b8ff" stroke="#63b8ff" points="1272.77,-268.38 1278.09,-259.21 1268.22,-263.06 1272.77,-268.38"/>
</a>
</g>
</g>
<!-- Node6 -->
<g id="Node000006" class="node">
<title>Node6</title>
<g id="a_Node000006"><a xlink:href="class_bit_vector_1_1_coords.html#a393207c752f8f9121aca38c938914154" target="_top" xlink:title="Get Coords::bit .">
<polygon fill="white" stroke="#666666" points="572,-383.5 465,-383.5 465,-353.5 572,-353.5 572,-383.5"/>
<text text-anchor="start" x="473" y="-371.5" font-family="Helvetica,sans-Serif" font-size="10.00">BitVector::Coords::</text>
<text text-anchor="middle" x="518.5" y="-360.5" font-family="Helvetica,sans-Serif" font-size="10.00">getBit</text>
</a>
</g>
</g>
<!-- Node3&#45;&gt;Node6 -->
<g id="edge6_Node000003_Node000006" class="edge">
<title>Node3&#45;&gt;Node6</title>
<g id="a_edge6_Node000003_Node000006"><a xlink:title=" ">
<path fill="none" stroke="#63b8ff" d="M367.72,-335.04C393.38,-340.78 426.49,-348.17 455.05,-354.55"/>
<polygon fill="#63b8ff" stroke="#63b8ff" points="454.42,-358 464.94,-356.76 455.95,-351.16 454.42,-358"/>
</a>
</g>
</g>
<!-- Node4&#45;&gt;Node4 -->
<g id="edge4_Node000004_Node000004" class="edge">
<title>Node4&#45;&gt;Node4</title>
<g id="a_edge4_Node000004_Node000004"><a xlink:title=" ">
<path fill="none" stroke="#63b8ff" d="M1269.46,-259.08C1259.72,-267.73 1266.39,-277 1289.5,-277 1304.3,-277 1312.36,-273.2 1313.68,-268.19"/>
<polygon fill="#63b8ff" stroke="#63b8ff" points="1316.86,-266.73 1309.54,-259.08 1310.49,-269.63 1316.86,-266.73"/>
</a>
</g>
</g>
<!-- Node5 -->
<g id="Node000005" class="node">
<title>Node5</title>
<g id="a_Node000005"><a xlink:href="class_bit_vector_1_1_coords.html#a2892f7f46c4af93f9733e312229d8ec1" target="_top" xlink:title="Get Coords::octet .">
<polygon fill="white" stroke="#666666" points="1474,-264.5 1367,-264.5 1367,-234.5 1474,-234.5 1474,-264.5"/>
<text text-anchor="start" x="1375" y="-252.5" font-family="Helvetica,sans-Serif" font-size="10.00">BitVector::Coords::</text>
<text text-anchor="middle" x="1420.5" y="-241.5" font-family="Helvetica,sans-Serif" font-size="10.00">getOctet</text>
</a>
</g>
</g>
<!-- Node4&#45;&gt;Node5 -->
<g id="edge5_Node000004_Node000005" class="edge">
<title>Node4&#45;&gt;Node5</title>
<g id="a_edge5_Node000004_Node000005"><a xlink:title=" ">
<path fill="none" stroke="#63b8ff" d="M1331.32,-249.5C1339.38,-249.5 1348.02,-249.5 1356.62,-249.5"/>
<polygon fill="#63b8ff" stroke="#63b8ff" points="1356.66,-253 1366.66,-249.5 1356.66,-246 1356.66,-253"/>
</a>
</g>
</g>
<!-- Node7&#45;&gt;Node4 -->
<g id="edge9_Node000007_Node000004" class="edge">
<title>Node7&#45;&gt;Node4</title>
<g id="a_edge9_Node000007_Node000004"><a xlink:title=" ">
<path fill="none" stroke="#63b8ff" d="M1196.01,-87.14C1201.75,-89.61 1207.2,-92.68 1212,-96.5 1255.41,-131.11 1276.22,-196.77 1284.28,-229.67"/>
<polygon fill="#63b8ff" stroke="#63b8ff" points="1280.97,-230.87 1286.62,-239.83 1287.79,-229.3 1280.97,-230.87"/>
</a>
</g>
</g>
<!-- Node8&#45;&gt;Node4 -->
<g id="edge11_Node000008_Node000004" class="edge">
<title>Node8&#45;&gt;Node4</title>
<g id="a_edge11_Node000008_Node000004"><a xlink:title=" ">
<path fill="none" stroke="#63b8ff" d="M343.84,-181.19C399.85,-209.07 570.85,-287.5 722,-287.5 722,-287.5 722,-287.5 928,-287.5 1038.89,-287.5 1167.92,-269.5 1237.58,-258.27"/>
<polygon fill="#63b8ff" stroke="#63b8ff" points="1238.52,-261.67 1247.83,-256.6 1237.4,-254.76 1238.52,-261.67"/>
</a>
</g>
</g>
<!-- Node9 -->
<g id="Node000009" class="node">
<title>Node9</title>
<g id="a_Node000009"><a xlink:href="class_bit_vector.html#a04e6d0b67ee9b42ccec437b0176067fe" target="_top" xlink:title="Give A size_t that represent the coords of the first bit of an element.">
<polygon fill="white" stroke="#666666" points="610,-181 427,-181 427,-162 610,-162 610,-181"/>
<text text-anchor="middle" x="518.5" y="-169" font-family="Helvetica,sans-Serif" font-size="10.00">BitVector::indexElementUntreated</text>
</a>
</g>
</g>
<!-- Node8&#45;&gt;Node9 -->
<g id="edge12_Node000008_Node000009" class="edge">
<title>Node8&#45;&gt;Node9</title>
<g id="a_edge12_Node000008_Node000009"><a xlink:title=" ">
<path fill="none" stroke="#63b8ff" d="M391.25,-171.5C399.53,-171.5 408.15,-171.5 416.81,-171.5"/>
<polygon fill="#63b8ff" stroke="#63b8ff" points="416.99,-175 426.99,-171.5 416.99,-168 416.99,-175"/>
</a>
</g>
</g>
<!-- Node9&#45;&gt;Node4 -->
<g id="edge13_Node000009_Node000004" class="edge">
<title>Node9&#45;&gt;Node4</title>
<g id="a_edge13_Node000009_Node000004"><a xlink:title=" ">
<path fill="none" stroke="#63b8ff" d="M579.27,-181.03C600.33,-184.24 624.19,-187.72 646,-190.5 865.59,-218.53 1129.04,-238.45 1237.77,-246.07"/>
<polygon fill="#63b8ff" stroke="#63b8ff" points="1237.58,-249.56 1247.8,-246.77 1238.07,-242.58 1237.58,-249.56"/>
</a>
</g>
</g>
<!-- Node10 -->
<g id="Node000010" class="node">
<title>Node10</title>
<g id="a_Node000010"><a xlink:href="class_bit_vector.html#af68cda7444ec4459393bbfa423f0a7dd" target="_top" xlink:title="Get the Size_t value if a BitVector::CoordUnit.">
<polygon fill="white" stroke="#666666" points="978.5,-143.5 875.5,-143.5 875.5,-113.5 978.5,-113.5 978.5,-143.5"/>
<text text-anchor="start" x="883.5" y="-131.5" font-family="Helvetica,sans-Serif" font-size="10.00">BitVector::getSize</text>
<text text-anchor="middle" x="927" y="-120.5" font-family="Helvetica,sans-Serif" font-size="10.00">_tUnit</text>
</a>
</g>
</g>
<!-- Node9&#45;&gt;Node10 -->
<g id="edge14_Node000009_Node000010" class="edge">
<title>Node9&#45;&gt;Node10</title>
<g id="a_edge14_Node000009_Node000010"><a xlink:title=" ">
<path fill="none" stroke="#63b8ff" d="M581.83,-161.97C602.25,-159.03 625.07,-155.92 646,-153.5 721.31,-144.79 808.31,-137.44 865.09,-133.01"/>
<polygon fill="#63b8ff" stroke="#63b8ff" points="865.64,-136.48 875.34,-132.22 865.1,-129.5 865.64,-136.48"/>
</a>
</g>
</g>
<!-- Node12 -->
<g id="Node000012" class="node">
<title>Node12</title>
<g id="a_Node000012"><a xlink:href="class_bit_vector.html#ad36e7d0b4b1417ca434414fa40c72eb8" target="_top" xlink:title="How many element can be contained in this object knowing BitVector::_element_size.">
<polygon fill="white" stroke="#666666" points="800,-181 646,-181 646,-162 800,-162 800,-181"/>
<text text-anchor="middle" x="723" y="-169" font-family="Helvetica,sans-Serif" font-size="10.00">BitVector::maxElementLimit</text>
</a>
</g>
</g>
<!-- Node9&#45;&gt;Node12 -->
<g id="edge17_Node000009_Node000012" class="edge">
<title>Node9&#45;&gt;Node12</title>
<g id="a_edge17_Node000009_Node000012"><a xlink:title=" ">
<path fill="none" stroke="#63b8ff" d="M610.09,-171.5C618.55,-171.5 627.11,-171.5 635.53,-171.5"/>
<polygon fill="#63b8ff" stroke="#63b8ff" points="635.72,-175 645.72,-171.5 635.72,-168 635.72,-175"/>
</a>
</g>
</g>
<!-- Node10&#45;&gt;Node7 -->
<g id="edge15_Node000010_Node000007" class="edge">
<title>Node10&#45;&gt;Node7</title>
<g id="a_edge15_Node000010_Node000007"><a xlink:title=" ">
<path fill="none" stroke="#63b8ff" d="M978.55,-115.54C1001.56,-109.67 1029.14,-102.68 1054,-96.5 1063.24,-94.2 1073.09,-91.78 1082.58,-89.46"/>
<polygon fill="#63b8ff" stroke="#63b8ff" points="1083.41,-92.86 1092.3,-87.09 1081.76,-86.06 1083.41,-92.86"/>
</a>
</g>
</g>
<!-- Node11 -->
<g id="Node000011" class="node">
<title>Node11</title>
<g id="a_Node000011"><a xlink:href="class_bit_vector_1_1_coords.html#a3a4fac9de925974af9c8a66a1d0179e6" target="_top" xlink:title="Translate octet and bit value inside a size_t. Allow easier mathematic computations.">
<polygon fill="white" stroke="#666666" points="1186.5,-135.5 1079.5,-135.5 1079.5,-105.5 1186.5,-105.5 1186.5,-135.5"/>
<text text-anchor="start" x="1087.5" y="-123.5" font-family="Helvetica,sans-Serif" font-size="10.00">BitVector::Coords::</text>
<text text-anchor="middle" x="1133" y="-112.5" font-family="Helvetica,sans-Serif" font-size="10.00">toSize_t</text>
</a>
</g>
</g>
<!-- Node10&#45;&gt;Node11 -->
<g id="edge16_Node000010_Node000011" class="edge">
<title>Node10&#45;&gt;Node11</title>
<g id="a_edge16_Node000010_Node000011"><a xlink:title=" ">
<path fill="none" stroke="#63b8ff" d="M978.69,-126.51C1006.13,-125.44 1040.28,-124.1 1069.38,-122.96"/>
<polygon fill="#63b8ff" stroke="#63b8ff" points="1069.58,-126.45 1079.44,-122.56 1069.31,-119.46 1069.58,-126.45"/>
</a>
</g>
</g>
<!-- Node12&#45;&gt;Node10 -->
<g id="edge18_Node000012_Node000010" class="edge">
<title>Node12&#45;&gt;Node10</title>
<g id="a_edge18_Node000012_Node000010"><a xlink:title=" ">
<path fill="none" stroke="#63b8ff" d="M768.83,-161.96C797.25,-155.91 834.38,-148 865.41,-141.4"/>
<polygon fill="#63b8ff" stroke="#63b8ff" points="866.2,-144.81 875.25,-139.3 864.74,-137.96 866.2,-144.81"/>
</a>
</g>
</g>
<!-- Node13 -->
<g id="Node000013" class="node">
<title>Node13</title>
<g id="a_Node000013"><a xlink:href="class_bit_vector.html#a68b14af0886039ddcf55c82a250deb4c" target="_top" xlink:title="How many element can be contained in this kind of object.">
<polygon fill="white" stroke="#666666" points="1212,-221.5 1054,-221.5 1054,-191.5 1212,-191.5 1212,-221.5"/>
<text text-anchor="start" x="1062" y="-209.5" font-family="Helvetica,sans-Serif" font-size="10.00">BitVector::maximumElement</text>
<text text-anchor="middle" x="1133" y="-198.5" font-family="Helvetica,sans-Serif" font-size="10.00">Number</text>
</a>
</g>
</g>
<!-- Node12&#45;&gt;Node13 -->
<g id="edge19_Node000012_Node000013" class="edge">
<title>Node12&#45;&gt;Node13</title>
<g id="a_edge19_Node000012_Node000013"><a xlink:title=" ">
<path fill="none" stroke="#63b8ff" d="M772.9,-181.04C792.45,-184.53 815.22,-188.18 836,-190.5 905.62,-198.26 984.9,-202.29 1043.87,-204.37"/>
<polygon fill="#63b8ff" stroke="#63b8ff" points="1043.78,-207.87 1053.9,-204.71 1044.02,-200.87 1043.78,-207.87"/>
</a>
</g>
</g>
<!-- Node14 -->
<g id="Node000014" class="node">
<title>Node14</title>
<g id="a_Node000014"><a xlink:href="class_bit_vector.html#aa3228d2bacb1bb0f6072d73d43a49456" target="_top" xlink:title="How many octet can be contained in this kind of object.">
<polygon fill="white" stroke="#666666" points="1018,-181 836,-181 836,-162 1018,-162 1018,-181"/>
<text text-anchor="middle" x="927" y="-169" font-family="Helvetica,sans-Serif" font-size="10.00">BitVector::maximumOctetNumber</text>
</a>
</g>
</g>
<!-- Node12&#45;&gt;Node14 -->
<g id="edge21_Node000012_Node000014" class="edge">
<title>Node12&#45;&gt;Node14</title>
<g id="a_edge21_Node000012_Node000014"><a xlink:title=" ">
<path fill="none" stroke="#63b8ff" d="M800.08,-171.5C808.44,-171.5 817.04,-171.5 825.64,-171.5"/>
<polygon fill="#63b8ff" stroke="#63b8ff" points="825.71,-175 835.71,-171.5 825.71,-168 825.71,-175"/>
</a>
</g>
</g>
<!-- Node13&#45;&gt;Node4 -->
<g id="edge20_Node000013_Node000004" class="edge">
<title>Node13&#45;&gt;Node4</title>
<g id="a_edge20_Node000013_Node000004"><a xlink:title=" ">
<path fill="none" stroke="#63b8ff" d="M1188.04,-221.54C1206.37,-226.64 1226.62,-232.28 1244.11,-237.15"/>
<polygon fill="#63b8ff" stroke="#63b8ff" points="1243.48,-240.6 1254.06,-239.91 1245.36,-233.86 1243.48,-240.6"/>
</a>
</g>
</g>
<!-- Node14&#45;&gt;Node4 -->
<g id="edge22_Node000014_Node000004" class="edge">
<title>Node14&#45;&gt;Node4</title>
<g id="a_edge22_Node000014_Node000004"><a xlink:title=" ">
<path fill="none" stroke="#63b8ff" d="M993.42,-161.99C1052.68,-156.12 1141.29,-154.34 1212,-182.5 1237.98,-192.85 1261.1,-216.04 1274.95,-232.22"/>
<polygon fill="#63b8ff" stroke="#63b8ff" points="1272.25,-234.45 1281.31,-239.94 1277.65,-229.99 1272.25,-234.45"/>
</a>
</g>
</g>
<!-- Node16&#45;&gt;Node7 -->
<g id="edge25_Node000016_Node000007" class="edge">
<title>Node16&#45;&gt;Node7</title>
<g id="a_edge25_Node000016_Node000007"><a xlink:title=" ">
<path fill="none" stroke="#63b8ff" d="M774.03,-87.15C844.91,-85.24 975.08,-81.73 1057.39,-79.51"/>
<polygon fill="#63b8ff" stroke="#63b8ff" points="1057.53,-83.01 1067.44,-79.24 1057.34,-76.01 1057.53,-83.01"/>
</a>
</g>
</g>
</g>
</svg>

<g id="navigator" transform="translate(0 0)" fill="#404254">
  <rect fill="#f2f5e9" fill-opacity="0.5" stroke="#606060" stroke-width=".5" x="0" y="0" width="60" height="60"/>
  <use id="zoomplus" xlink:href="#zoomPlus" x="17" y="9" onmousedown="handleZoom(evt,'in')"/>
  <use id="zoomminus" xlink:href="#zoomMin" x="42" y="9" onmousedown="handleZoom(evt,'out')"/>
  <use id="reset" xlink:href="#resetDef" x="30" y="36" onmousedown="handleReset()"/>
   <use id="arrowup" xlink:href="#arrowUp" x="0" y="0" onmousedown="handlePan(0,-1)"/>
  <use id="arrowright" xlink:href="#arrowRight" x="0" y="0" onmousedown="handlePan(1,0)"/>
  <use id="arrowdown" xlink:href="#arrowDown" x="0" y="0" onmousedown="handlePan(0,1)"/>
  <use id="arrowleft" xlink:href="#arrowLeft" x="0" y="0" onmousedown="handlePan(-1,0)"/>
</g>
<svg viewBox="0 0 15 15" width="100%" height="30px" preserveAspectRatio="xMaxYMin meet">
 <g id="arrow_out" transform="scale(0.3 0.3)">
  <a xlink:href="class_bit_vector_afbdbe8a5003f5941ffd5ab095cf87d88_cgraph_org.svg" target="_base">
   <rect id="button" ry="5" rx="5" y="6" x="6" height="38" width="38"
        fill="#f2f5e9" fill-opacity="0.5" stroke="#606060" stroke-width="1.0"/>
   <path id="arrow"
     d="M 11.500037,31.436501 C 11.940474,20.09759 22.043105,11.32322 32.158766,21.979434 L 37.068811,17.246167 C 37.068811,17.246167 37.088388,32 37.088388,32 L 22.160133,31.978069 C 22.160133,31.978069 26.997745,27.140456 26.997745,27.140456 C 18.528582,18.264221 13.291696,25.230495 11.500037,31.436501 z"
     style="fill:#404040;"/>
  </a>
 </g>
</svg>

<style type='text/css'>
<![CDATA[
[data-mouse-over-selected='false'] { opacity: 0.7; }
[data-mouse-over-selected='true']  { opacity: 1.0; }
]]>
</style>
<script type="application/ecmascript"><![CDATA[
document.addEventListener('DOMContentLoaded', (event) => {
  highlightEdges();
  highlightAdjacentNodes();
});
]]></script>
</svg>
