<?xml version="1.0" encoding="UTF-8" standalone="no"?>
<!DOCTYPE svg PUBLIC "-//W3C//DTD SVG 1.1//EN"
 "http://www.w3.org/Graphics/SVG/1.1/DTD/svg11.dtd">
<!-- Generated by graphviz version 2.43.0 (0)
 -->
<!-- Title: Sequence::insertFront Pages: 1 -->
<!--zoomable 735 -->

<svg id="main" version="1.1" xmlns="http://www.w3.org/2000/svg" xmlns:xlink="http://www.w3.org/1999/xlink" xml:space="preserve" onload="init(evt)">
<style type="text/css"><![CDATA[
.node, .edge {opacity: 0.7;}
.node.selected, .edge.selected {opacity: 1;}
.edge:hover path { stroke: red; }
.edge:hover polygon { stroke: red; fill: red; }
]]></style>

<defs>
  <circle id="rim" cx="0" cy="0" r="7"/>
  <circle id="rim2" cx="0" cy="0" r="3.5"/>
  <g id="zoomPlus">
    <use xlink:href="#rim" fill="#404040"><set attributeName="fill" to="#808080" begin="zoomplus.mouseover" end="zoomplus.mouseout"/></use>
    <path d="M-4,0h8M0,-4v8" fill="none" stroke="white" stroke-width="1.5" pointer-events="none"/>
  </g>
  <g id="zoomMin">
    <use xlink:href="#rim" fill="#404040"><set attributeName="fill" to="#808080" begin="zoomminus.mouseover" end="zoomminus.mouseout"/></use>
    <path d="M-4,0h8" fill="none" stroke="white" stroke-width="1.5" pointer-events="none"/>
  </g>
  <g id="arrowUp" transform="translate(30 24)">
    <use xlink:href="#rim"/>
    <path pointer-events="none" fill="none" stroke="white" stroke-width="1.5" d="M0,-3.0v7 M-2.5,-0.5L0,-3.0L2.5,-0.5"/>
  </g>
  <g id="arrowRight" transform="rotate(90) translate(36 -43)">
    <use xlink:href="#rim"/>
    <path pointer-events="none" fill="none" stroke="white" stroke-width="1.5" d="M0,-3.0v7 M-2.5,-0.5L0,-3.0L2.5,-0.5"/>
  </g>
  <g id="arrowDown" transform="rotate(180) translate(-30 -48)">
    <use xlink:href="#rim"/>
    <path pointer-events="none" fill="none" stroke="white" stroke-width="1.5" d="M0,-3.0v7 M-2.5,-0.5L0,-3.0L2.5,-0.5"/>
  </g>
  <g id="arrowLeft" transform="rotate(270) translate(-36 17)">
    <use xlink:href="#rim"/>
    <path pointer-events="none" fill="none" stroke="white" stroke-width="1.5" d="M0,-3.0v7 M-2.5,-0.5L0,-3.0L2.5,-0.5"/>
  </g>
  <g id="resetDef">
    <use xlink:href="#rim2" fill="#404040"><set attributeName="fill" to="#808080" begin="reset.mouseover" end="reset.mouseout"/></use>
  </g>
</defs>
<script type="application/ecmascript">
var viewWidth = 2290;
var viewHeight = 735;
var sectionId = 'dynsection-25';
</script>
<script type="application/ecmascript" xlink:href="svg.min.js"/>
<svg id="graph" class="graph">
<g id="viewport">
<title>Sequence::insertFront</title>
<!-- Node1 -->
<g id="Node000001" class="node">
<title>Node1</title>
<g id="a_Node000001"><a xlink:title="Insert a char at the the front of the sequence position .">
<polygon fill="#999999" stroke="#666666" points="122,-622.33 0,-622.33 0,-603.33 122,-603.33 122,-622.33"/>
<text text-anchor="middle" x="61" y="-610.33" font-family="Helvetica,sans-Serif" font-size="10.00">Sequence::insertFront</text>
</a>
</g>
</g>
<!-- Node2 -->
<g id="Node000002" class="node">
<title>Node2</title>
<g id="a_Node000002"><a xlink:href="class_sequence.html#ad40777fd2f7ad3ae247fab02459e6759" target="_top" xlink:title="Retrieve the symbol at the position in the sequence.">
<polygon fill="white" stroke="#666666" points="582,-603.33 496,-603.33 496,-584.33 582,-584.33 582,-603.33"/>
<text text-anchor="middle" x="539" y="-591.33" font-family="Helvetica,sans-Serif" font-size="10.00">Sequence::get</text>
</a>
</g>
</g>
<!-- Node1&#45;&gt;Node2 -->
<g id="edge1_Node000001_Node000002" class="edge">
<title>Node1&#45;&gt;Node2</title>
<g id="a_edge1_Node000001_Node000002"><a xlink:title=" ">
<path fill="none" stroke="#63b8ff" d="M122.29,-610.42C216.38,-606.67 396.56,-599.48 485.58,-595.92"/>
<polygon fill="#63b8ff" stroke="#63b8ff" points="485.86,-599.41 495.71,-595.52 485.58,-592.42 485.86,-599.41"/>
</a>
</g>
</g>
<!-- Node11 -->
<g id="Node000011" class="node">
<title>Node11</title>
<g id="a_Node000011"><a xlink:href="class_sequence.html#a092f380b654de9aaa8a770ec0948c454" target="_top" xlink:title="Insert a number of chars at the the front of the sequence position .">
<polygon fill="white" stroke="#666666" points="280,-641.33 158,-641.33 158,-622.33 280,-622.33 280,-641.33"/>
<text text-anchor="middle" x="219" y="-629.33" font-family="Helvetica,sans-Serif" font-size="10.00">Sequence::insertFront</text>
</a>
</g>
</g>
<!-- Node1&#45;&gt;Node11 -->
<g id="edge14_Node000001_Node000011" class="edge">
<title>Node1&#45;&gt;Node11</title>
<g id="a_edge14_Node000001_Node000011"><a xlink:title=" ">
<path fill="none" stroke="#63b8ff" d="M122.31,-620.18C130.69,-621.2 139.36,-622.25 147.9,-623.29"/>
<polygon fill="#63b8ff" stroke="#63b8ff" points="147.5,-626.77 157.85,-624.5 148.34,-619.82 147.5,-626.77"/>
</a>
</g>
</g>
<!-- Node2&#45;&gt;Node2 -->
<g id="edge5_Node000002_Node000002" class="edge">
<title>Node2&#45;&gt;Node2</title>
<g id="a_edge5_Node000002_Node000002"><a xlink:title=" ">
<path fill="none" stroke="#63b8ff" d="M512.18,-603.41C499.13,-612.06 508.07,-621.33 539,-621.33 559.78,-621.33 570.63,-617.15 571.56,-611.78"/>
<polygon fill="#63b8ff" stroke="#63b8ff" points="574.36,-609.68 565.82,-603.41 568.59,-613.64 574.36,-609.68"/>
</a>
</g>
</g>
<!-- Node3 -->
<g id="Node000003" class="node">
<title>Node3</title>
<g id="a_Node000003"><a xlink:href="class_bit_vector.html#aebe159444eb9d619959b7325ac5dac2d" target="_top" xlink:title="Return the value of the bit at the position coord.">
<polygon fill="white" stroke="#666666" points="2139,-384.33 2056,-384.33 2056,-365.33 2139,-365.33 2139,-384.33"/>
<text text-anchor="middle" x="2097.5" y="-372.33" font-family="Helvetica,sans-Serif" font-size="10.00">BitVector::get</text>
</a>
</g>
</g>
<!-- Node2&#45;&gt;Node3 -->
<g id="edge2_Node000002_Node000003" class="edge">
<title>Node2&#45;&gt;Node3</title>
<g id="a_edge2_Node000002_Node000003"><a xlink:title=" ">
<path fill="none" stroke="#63b8ff" d="M582.26,-597.23C654.01,-602.69 804.25,-612.83 931.5,-612.83 931.5,-612.83 931.5,-612.83 1736,-612.83 1862.92,-612.83 1919.87,-660.83 2020,-582.83 2080.06,-536.05 2092.98,-437.33 2095.75,-394.9"/>
<polygon fill="#63b8ff" stroke="#63b8ff" points="2099.25,-394.91 2096.28,-384.74 2092.26,-394.54 2099.25,-394.91"/>
</a>
</g>
</g>
<!-- Node5 -->
<g id="Node000005" class="node">
<title>Node5</title>
<g id="a_Node000005"><a xlink:href="class_sequence.html#a8181f024304b3fb5f55c7118f648cc61" target="_top" xlink:title="Return a char (same format as Sequence::getType()) that indicate which alphabet is used in the during...">
<polygon fill="white" stroke="#666666" points="816,-698.33 664,-698.33 664,-679.33 816,-679.33 816,-698.33"/>
<text text-anchor="middle" x="740" y="-686.33" font-family="Helvetica,sans-Serif" font-size="10.00">Sequence::getEncodingType</text>
</a>
</g>
</g>
<!-- Node2&#45;&gt;Node5 -->
<g id="edge6_Node000002_Node000005" class="edge">
<title>Node2&#45;&gt;Node5</title>
<g id="a_edge6_Node000002_Node000005"><a xlink:title=" ">
<path fill="none" stroke="#63b8ff" d="M554.36,-603.39C576.94,-618.11 622.45,-646.53 664,-664.83 673.67,-669.09 684.34,-672.96 694.52,-676.3"/>
<polygon fill="#63b8ff" stroke="#63b8ff" points="693.5,-679.65 704.09,-679.33 695.61,-672.97 693.5,-679.65"/>
</a>
</g>
</g>
<!-- Node6 -->
<g id="Node000006" class="node">
<title>Node6</title>
<g id="a_Node000006"><a xlink:href="class_sequence.html#a49a9126010c0332493c803ddca005394" target="_top" xlink:title="Give a map that compress / decompress char used by Sequence.">
<polygon fill="white" stroke="#666666" points="809.5,-584.33 670.5,-584.33 670.5,-565.33 809.5,-565.33 809.5,-584.33"/>
<text text-anchor="middle" x="740" y="-572.33" font-family="Helvetica,sans-Serif" font-size="10.00">Sequence::translationTab</text>
</a>
</g>
</g>
<!-- Node2&#45;&gt;Node6 -->
<g id="edge7_Node000002_Node000006" class="edge">
<title>Node2&#45;&gt;Node6</title>
<g id="a_edge7_Node000002_Node000006"><a xlink:title=" ">
<path fill="none" stroke="#63b8ff" d="M581.23,-584.3C604.05,-581.09 633.17,-577.97 660.17,-575.74"/>
<polygon fill="#63b8ff" stroke="#63b8ff" points="660.71,-579.21 670.4,-574.93 660.15,-572.23 660.71,-579.21"/>
</a>
</g>
</g>
<!-- Node3&#45;&gt;Node3 -->
<g id="edge3_Node000003_Node000003" class="edge">
<title>Node3&#45;&gt;Node3</title>
<g id="a_edge3_Node000003_Node000003"><a xlink:title=" ">
<path fill="none" stroke="#63b8ff" d="M2077.46,-384.41C2067.72,-393.06 2074.39,-402.33 2097.5,-402.33 2112.3,-402.33 2120.36,-398.53 2121.68,-393.52"/>
<polygon fill="#63b8ff" stroke="#63b8ff" points="2124.86,-392.06 2117.54,-384.41 2118.49,-394.96 2124.86,-392.06"/>
</a>
</g>
</g>
<!-- Node4 -->
<g id="Node000004" class="node">
<title>Node4</title>
<g id="a_Node000004"><a xlink:href="class_bit_vector_1_1_coords.html#a2892f7f46c4af93f9733e312229d8ec1" target="_top" xlink:title="Get Coords::octet .">
<polygon fill="white" stroke="#666666" points="2282,-389.83 2175,-389.83 2175,-359.83 2282,-359.83 2282,-389.83"/>
<text text-anchor="start" x="2183" y="-377.83" font-family="Helvetica,sans-Serif" font-size="10.00">BitVector::Coords::</text>
<text text-anchor="middle" x="2228.5" y="-366.83" font-family="Helvetica,sans-Serif" font-size="10.00">getOctet</text>
</a>
</g>
</g>
<!-- Node3&#45;&gt;Node4 -->
<g id="edge4_Node000003_Node000004" class="edge">
<title>Node3&#45;&gt;Node4</title>
<g id="a_edge4_Node000003_Node000004"><a xlink:title=" ">
<path fill="none" stroke="#63b8ff" d="M2139.32,-374.83C2147.38,-374.83 2156.02,-374.83 2164.62,-374.83"/>
<polygon fill="#63b8ff" stroke="#63b8ff" points="2164.66,-378.33 2174.66,-374.83 2164.66,-371.33 2164.66,-378.33"/>
</a>
</g>
</g>
<!-- Node6&#45;&gt;Node2 -->
<g id="edge13_Node000006_Node000002" class="edge">
<title>Node6&#45;&gt;Node2</title>
<g id="a_edge13_Node000006_Node000002"><a xlink:title=" ">
<path fill="none" stroke="#63b8ff" d="M697.88,-584.34C667.36,-588.64 625.51,-592.79 592.56,-594.84"/>
<polygon fill="#63b8ff" stroke="#63b8ff" points="591.99,-591.37 582.2,-595.44 592.39,-598.36 591.99,-591.37"/>
</a>
</g>
</g>
<!-- Node7 -->
<g id="Node000007" class="node">
<title>Node7</title>
<g id="a_Node000007"><a xlink:href="class_sequence.html#a555c6e58957c4d07028eb5c67b1732ac" target="_top" xlink:title="Function used by Sequence::translationTab to create their compression map.">
<polygon fill="white" stroke="#666666" points="996.5,-660.33 868.5,-660.33 868.5,-641.33 996.5,-641.33 996.5,-660.33"/>
<text text-anchor="middle" x="932.5" y="-648.33" font-family="Helvetica,sans-Serif" font-size="10.00">Sequence::fillCodeMap</text>
</a>
</g>
</g>
<!-- Node6&#45;&gt;Node7 -->
<g id="edge8_Node000006_Node000007" class="edge">
<title>Node6&#45;&gt;Node7</title>
<g id="a_edge8_Node000006_Node000007"><a xlink:title=" ">
<path fill="none" stroke="#63b8ff" d="M765.13,-584.46C798.76,-597.87 859.9,-622.26 897.95,-637.45"/>
<polygon fill="#63b8ff" stroke="#63b8ff" points="896.98,-640.83 907.57,-641.28 899.58,-634.33 896.98,-640.83"/>
</a>
</g>
</g>
<!-- Node7&#45;&gt;Node2 -->
<g id="edge9_Node000007_Node000002" class="edge">
<title>Node7&#45;&gt;Node2</title>
<g id="a_edge9_Node000007_Node000002"><a xlink:title=" ">
<path fill="none" stroke="#63b8ff" d="M868.4,-648.21C813.94,-645.22 733.33,-639.07 664,-626.83 635.49,-621.8 603.98,-613.37 579.86,-606.29"/>
<polygon fill="#63b8ff" stroke="#63b8ff" points="580.58,-602.86 570,-603.36 578.58,-609.57 580.58,-602.86"/>
</a>
</g>
</g>
<!-- Node8 -->
<g id="Node000008" class="node">
<title>Node8</title>
<g id="a_Node000008"><a xlink:href="class_sequence.html#acf21040958590f98163b3d11f19ea93e" target="_top" xlink:title="Give the number of element contained in this sequence.">
<polygon fill="white" stroke="#666666" points="1164.5,-698.33 1075.5,-698.33 1075.5,-679.33 1164.5,-679.33 1164.5,-698.33"/>
<text text-anchor="middle" x="1120" y="-686.33" font-family="Helvetica,sans-Serif" font-size="10.00">Sequence::size</text>
</a>
</g>
</g>
<!-- Node7&#45;&gt;Node8 -->
<g id="edge10_Node000007_Node000008" class="edge">
<title>Node7&#45;&gt;Node8</title>
<g id="a_edge10_Node000007_Node000008"><a xlink:title=" ">
<path fill="none" stroke="#63b8ff" d="M980.31,-660.42C1006.2,-665.72 1038.47,-672.33 1065.37,-677.84"/>
<polygon fill="#63b8ff" stroke="#63b8ff" points="1064.89,-681.32 1075.39,-679.9 1066.3,-674.46 1064.89,-681.32"/>
</a>
</g>
</g>
<!-- Node9 -->
<g id="Node000009" class="node">
<title>Node9</title>
<g id="a_Node000009"><a xlink:href="class_bit_vector.html#ab30ea2b408107e4e6bc8095b5a64a1dd" target="_top" xlink:title="Number of element inside this object.">
<polygon fill="white" stroke="#666666" points="1361.5,-698.33 1275.5,-698.33 1275.5,-679.33 1361.5,-679.33 1361.5,-698.33"/>
<text text-anchor="middle" x="1318.5" y="-686.33" font-family="Helvetica,sans-Serif" font-size="10.00">BitVector::size</text>
</a>
</g>
</g>
<!-- Node8&#45;&gt;Node9 -->
<g id="edge11_Node000008_Node000009" class="edge">
<title>Node8&#45;&gt;Node9</title>
<g id="a_edge11_Node000008_Node000009"><a xlink:title=" ">
<path fill="none" stroke="#63b8ff" d="M1164.61,-688.83C1194.27,-688.83 1233.68,-688.83 1265.05,-688.83"/>
<polygon fill="#63b8ff" stroke="#63b8ff" points="1265.36,-692.33 1275.36,-688.83 1265.36,-685.33 1265.36,-692.33"/>
</a>
</g>
</g>
<!-- Node10 -->
<g id="Node000010" class="node">
<title>Node10</title>
<g id="a_Node000010"><a xlink:href="class_bit_vector.html#a5339660cfb315ab5de7f78bdf5af4ce1" target="_top" xlink:title="Get BitVector::_element_number.">
<polygon fill="white" stroke="#666666" points="1608,-698.33 1446,-698.33 1446,-679.33 1608,-679.33 1608,-698.33"/>
<text text-anchor="middle" x="1527" y="-686.33" font-family="Helvetica,sans-Serif" font-size="10.00">BitVector::getElementNumber</text>
</a>
</g>
</g>
<!-- Node9&#45;&gt;Node10 -->
<g id="edge12_Node000009_Node000010" class="edge">
<title>Node9&#45;&gt;Node10</title>
<g id="a_edge12_Node000009_Node000010"><a xlink:title=" ">
<path fill="none" stroke="#63b8ff" d="M1361.54,-688.83C1382.88,-688.83 1409.68,-688.83 1435.42,-688.83"/>
<polygon fill="#63b8ff" stroke="#63b8ff" points="1435.6,-692.33 1445.6,-688.83 1435.6,-685.33 1435.6,-692.33"/>
</a>
</g>
</g>
<!-- Node11&#45;&gt;Node8 -->
<g id="edge60_Node000011_Node000008" class="edge">
<title>Node11&#45;&gt;Node8</title>
<g id="a_edge60_Node000011_Node000008"><a xlink:title=" ">
<path fill="none" stroke="#63b8ff" d="M238.42,-641.46C286.37,-665.61 419.59,-726.83 538,-726.83 538,-726.83 538,-726.83 741,-726.83 857.22,-726.83 992.54,-708.83 1065.6,-697.6"/>
<polygon fill="#63b8ff" stroke="#63b8ff" points="1066.14,-701.06 1075.49,-696.07 1065.07,-694.14 1066.14,-701.06"/>
</a>
</g>
</g>
<!-- Node12 -->
<g id="Node000012" class="node">
<title>Node12</title>
<g id="a_Node000012"><a xlink:href="class_sequence.html#aa48778c592160ac60319f780817f491c" target="_top" xlink:title="Insert a number of chars at the position position .">
<polygon fill="white" stroke="#666666" points="414,-541.33 316,-541.33 316,-522.33 414,-522.33 414,-541.33"/>
<text text-anchor="middle" x="365" y="-529.33" font-family="Helvetica,sans-Serif" font-size="10.00">Sequence::insert</text>
</a>
</g>
</g>
<!-- Node11&#45;&gt;Node12 -->
<g id="edge15_Node000011_Node000012" class="edge">
<title>Node11&#45;&gt;Node12</title>
<g id="a_edge15_Node000011_Node000012"><a xlink:title=" ">
<path fill="none" stroke="#63b8ff" d="M233.81,-622.24C258.69,-604.96 311.26,-568.46 341.43,-547.5"/>
<polygon fill="#63b8ff" stroke="#63b8ff" points="343.81,-550.11 350.02,-541.54 339.81,-544.37 343.81,-550.11"/>
</a>
</g>
</g>
<!-- Node12&#45;&gt;Node2 -->
<g id="edge16_Node000012_Node000002" class="edge">
<title>Node12&#45;&gt;Node2</title>
<g id="a_edge16_Node000012_Node000002"><a xlink:title=" ">
<path fill="none" stroke="#63b8ff" d="M389.4,-541.43C406.18,-548.21 429.37,-557.38 450,-564.83 465.64,-570.47 482.99,-576.29 498.13,-581.21"/>
<polygon fill="#63b8ff" stroke="#63b8ff" points="497.13,-584.57 507.72,-584.31 499.28,-577.91 497.13,-584.57"/>
</a>
</g>
</g>
<!-- Node12&#45;&gt;Node6 -->
<g id="edge59_Node000012_Node000006" class="edge">
<title>Node12&#45;&gt;Node6</title>
<g id="a_edge59_Node000012_Node000006"><a xlink:title=" ">
<path fill="none" stroke="#63b8ff" d="M414.38,-537.41C476.7,-544.59 585.82,-557.17 660.18,-565.74"/>
<polygon fill="#63b8ff" stroke="#63b8ff" points="660.1,-569.26 670.44,-566.93 660.91,-562.3 660.1,-569.26"/>
</a>
</g>
</g>
<!-- Node13 -->
<g id="Node000013" class="node">
<title>Node13</title>
<g id="a_Node000013"><a xlink:href="class_bit_vector.html#a686af396e4dff1536b7588213726c4cc" target="_top" xlink:title="Insert a number of blank position inside BitVector::_data.">
<polygon fill="white" stroke="#666666" points="628,-498.33 450,-498.33 450,-479.33 628,-479.33 628,-498.33"/>
<text text-anchor="middle" x="539" y="-486.33" font-family="Helvetica,sans-Serif" font-size="10.00">BitVector::makeRoomForElement</text>
</a>
</g>
</g>
<!-- Node12&#45;&gt;Node13 -->
<g id="edge17_Node000012_Node000013" class="edge">
<title>Node12&#45;&gt;Node13</title>
<g id="a_edge17_Node000012_Node000013"><a xlink:title=" ">
<path fill="none" stroke="#63b8ff" d="M404.17,-522.29C429.45,-515.97 462.8,-507.63 489.89,-500.86"/>
<polygon fill="#63b8ff" stroke="#63b8ff" points="491.08,-504.17 499.93,-498.35 489.38,-497.38 491.08,-504.17"/>
</a>
</g>
</g>
<!-- Node15 -->
<g id="Node000015" class="node">
<title>Node15</title>
<g id="a_Node000015"><a xlink:href="class_bit_vector.html#aca24053f655c825de0f06ec86fff1cec" target="_top" xlink:title="Replace an element by another element. Can add an element to the list if index = BitVector::_element_...">
<polygon fill="white" stroke="#666666" points="973.5,-327.33 891.5,-327.33 891.5,-308.33 973.5,-308.33 973.5,-327.33"/>
<text text-anchor="middle" x="932.5" y="-315.33" font-family="Helvetica,sans-Serif" font-size="10.00">BitVector::set</text>
</a>
</g>
</g>
<!-- Node12&#45;&gt;Node15 -->
<g id="edge58_Node000012_Node000015" class="edge">
<title>Node12&#45;&gt;Node15</title>
<g id="a_edge58_Node000012_Node000015"><a xlink:title=" ">
<path fill="none" stroke="#63b8ff" d="M377.79,-522.26C393.65,-509.63 422.98,-487.1 450,-470.83 540.75,-416.17 563.33,-398.84 664,-365.83 737.5,-341.73 826.56,-328.81 881.11,-322.64"/>
<polygon fill="#63b8ff" stroke="#63b8ff" points="881.66,-326.1 891.22,-321.53 880.89,-319.14 881.66,-326.1"/>
</a>
</g>
</g>
<!-- Node28 -->
<g id="Node000028" class="node">
<title>Node28</title>
<g id="a_Node000028"><a xlink:href="class_bit_vector.html#a87f84edf5dd56606b26e8741ba6ced02" target="_top" xlink:title="Remove a number of element from the vector.">
<polygon fill="white" stroke="#666666" points="792,-154.33 688,-154.33 688,-135.33 792,-135.33 792,-154.33"/>
<text text-anchor="middle" x="740" y="-142.33" font-family="Helvetica,sans-Serif" font-size="10.00">BitVector::remove</text>
</a>
</g>
</g>
<!-- Node12&#45;&gt;Node28 -->
<g id="edge45_Node000012_Node000028" class="edge">
<title>Node12&#45;&gt;Node28</title>
<g id="a_edge45_Node000012_Node000028"><a xlink:title=" ">
<path fill="none" stroke="#63b8ff" d="M367.53,-522.21C373.07,-489.96 394.8,-384.07 450,-318.83 520.42,-235.61 641.22,-181.42 701.91,-158.04"/>
<polygon fill="#63b8ff" stroke="#63b8ff" points="703.36,-161.23 711.47,-154.42 700.88,-154.69 703.36,-161.23"/>
</a>
</g>
</g>
<!-- Node13&#45;&gt;Node3 -->
<g id="edge42_Node000013_Node000003" class="edge">
<title>Node13&#45;&gt;Node3</title>
<g id="a_edge42_Node000013_Node000003"><a xlink:title=" ">
<path fill="none" stroke="#63b8ff" d="M616.98,-498.35C632.53,-500.04 648.77,-501.63 664,-502.83 814.32,-514.63 1894.33,-639.15 2020,-555.83 2075.38,-519.11 2090.77,-433.49 2094.97,-394.64"/>
<polygon fill="#63b8ff" stroke="#63b8ff" points="2098.46,-394.87 2095.91,-384.59 2091.49,-394.22 2098.46,-394.87"/>
</a>
</g>
</g>
<!-- Node14 -->
<g id="Node000014" class="node">
<title>Node14</title>
<g id="a_Node000014"><a xlink:href="class_bit_vector.html#afbdbe8a5003f5941ffd5ab095cf87d88" target="_top" xlink:title="Add an element at the end of the vector.">
<polygon fill="white" stroke="#666666" points="791.5,-394.33 688.5,-394.33 688.5,-375.33 791.5,-375.33 791.5,-394.33"/>
<text text-anchor="middle" x="740" y="-382.33" font-family="Helvetica,sans-Serif" font-size="10.00">BitVector::append</text>
</a>
</g>
</g>
<!-- Node13&#45;&gt;Node14 -->
<g id="edge18_Node000013_Node000014" class="edge">
<title>Node13&#45;&gt;Node14</title>
<g id="a_edge18_Node000013_Node000014"><a xlink:title=" ">
<path fill="none" stroke="#63b8ff" d="M558.36,-479.23C593.54,-460.85 670.55,-420.6 711.74,-399.07"/>
<polygon fill="#63b8ff" stroke="#63b8ff" points="713.44,-402.14 720.68,-394.4 710.2,-395.93 713.44,-402.14"/>
</a>
</g>
</g>
<!-- Node13&#45;&gt;Node15 -->
<g id="edge44_Node000013_Node000015" class="edge">
<title>Node13&#45;&gt;Node15</title>
<g id="a_edge44_Node000013_Node000015"><a xlink:title=" ">
<path fill="none" stroke="#63b8ff" d="M586.74,-479.27C643.14,-466.63 739.86,-441.34 816,-402.83 853.46,-383.88 891.68,-353.02 913.41,-334.16"/>
<polygon fill="#63b8ff" stroke="#63b8ff" points="915.96,-336.57 921.15,-327.34 911.33,-331.32 915.96,-336.57"/>
</a>
</g>
</g>
<!-- Node23 -->
<g id="Node000023" class="node">
<title>Node23</title>
<g id="a_Node000023"><a xlink:href="class_bit_vector.html#ad36e7d0b4b1417ca434414fa40c72eb8" target="_top" xlink:title="How many element can be contained in this object knowing BitVector::_element_size.">
<polygon fill="white" stroke="#666666" points="1604,-498.33 1450,-498.33 1450,-479.33 1604,-479.33 1604,-498.33"/>
<text text-anchor="middle" x="1527" y="-486.33" font-family="Helvetica,sans-Serif" font-size="10.00">BitVector::maxElementLimit</text>
</a>
</g>
</g>
<!-- Node13&#45;&gt;Node23 -->
<g id="edge43_Node000013_Node000023" class="edge">
<title>Node13&#45;&gt;Node23</title>
<g id="a_edge43_Node000013_Node000023"><a xlink:title=" ">
<path fill="none" stroke="#63b8ff" d="M628.24,-488.83C707.59,-488.83 827.34,-488.83 931.5,-488.83 931.5,-488.83 931.5,-488.83 1121,-488.83 1231.02,-488.83 1357.85,-488.83 1439.84,-488.83"/>
<polygon fill="#63b8ff" stroke="#63b8ff" points="1439.86,-492.33 1449.86,-488.83 1439.86,-485.33 1439.86,-492.33"/>
</a>
</g>
</g>
<!-- Node14&#45;&gt;Node15 -->
<g id="edge19_Node000014_Node000015" class="edge">
<title>Node14&#45;&gt;Node15</title>
<g id="a_edge19_Node000014_Node000015"><a xlink:title=" ">
<path fill="none" stroke="#63b8ff" d="M768.29,-375.23C801.4,-363.59 857.35,-343.91 894.36,-330.89"/>
<polygon fill="#63b8ff" stroke="#63b8ff" points="895.98,-334.03 904.26,-327.41 893.66,-327.43 895.98,-334.03"/>
</a>
</g>
</g>
<!-- Node15&#45;&gt;Node3 -->
<g id="edge23_Node000015_Node000003" class="edge">
<title>Node15&#45;&gt;Node3</title>
<g id="a_edge23_Node000015_Node000003"><a xlink:title=" ">
<path fill="none" stroke="#63b8ff" d="M948.92,-327.39C999.62,-357.89 1166.52,-450.83 1317.5,-450.83 1317.5,-450.83 1317.5,-450.83 1736,-450.83 1863.6,-450.83 1897.46,-444.4 2020,-408.83 2037.01,-403.89 2055.16,-395.95 2069.52,-388.98"/>
<polygon fill="#63b8ff" stroke="#63b8ff" points="2071.39,-391.96 2078.78,-384.36 2068.27,-385.69 2071.39,-391.96"/>
</a>
</g>
</g>
<!-- Node16 -->
<g id="Node000016" class="node">
<title>Node16</title>
<g id="a_Node000016"><a xlink:href="class_bit_vector.html#a8c3c1f0faa0bbf35638c7217a841cbd8" target="_top" xlink:title=" ">
<polygon fill="white" stroke="#666666" points="1174.5,-226.33 1065.5,-226.33 1065.5,-207.33 1174.5,-207.33 1174.5,-226.33"/>
<text text-anchor="middle" x="1120" y="-214.33" font-family="Helvetica,sans-Serif" font-size="10.00">BitVector::copyBits</text>
</a>
</g>
</g>
<!-- Node15&#45;&gt;Node16 -->
<g id="edge20_Node000015_Node000016" class="edge">
<title>Node15&#45;&gt;Node16</title>
<g id="a_edge20_Node000015_Node000016"><a xlink:title=" ">
<path fill="none" stroke="#63b8ff" d="M947.29,-308.19C968.51,-293.59 1010.76,-265.5 1049,-245.83 1059.95,-240.2 1072.25,-234.81 1083.44,-230.24"/>
<polygon fill="#63b8ff" stroke="#63b8ff" points="1084.95,-233.4 1092.94,-226.44 1082.36,-226.9 1084.95,-233.4"/>
</a>
</g>
</g>
<!-- Node18 -->
<g id="Node000018" class="node">
<title>Node18</title>
<g id="a_Node000018"><a xlink:href="class_bit_vector.html#a115789c8a9812eabb52f8843cd4e9965" target="_top" xlink:title="Give the a coord object that represent the size of 1 element inside BitVector::_data.">
<polygon fill="white" stroke="#666666" points="2006.5,-319.33 1875.5,-319.33 1875.5,-300.33 2006.5,-300.33 2006.5,-319.33"/>
<text text-anchor="middle" x="1941" y="-307.33" font-family="Helvetica,sans-Serif" font-size="10.00">BitVector::getCoordUnit</text>
</a>
</g>
</g>
<!-- Node15&#45;&gt;Node18 -->
<g id="edge24_Node000015_Node000018" class="edge">
<title>Node15&#45;&gt;Node18</title>
<g id="a_edge24_Node000015_Node000018"><a xlink:title=" ">
<path fill="none" stroke="#63b8ff" d="M973.56,-317.07C1081.71,-315.06 1388.65,-309.63 1644,-307.83 1724.89,-307.26 1745.11,-307.12 1826,-307.83 1838.65,-307.94 1852.09,-308.12 1865.14,-308.33"/>
<polygon fill="#63b8ff" stroke="#63b8ff" points="1865.44,-311.83 1875.49,-308.5 1865.55,-304.84 1865.44,-311.83"/>
</a>
</g>
</g>
<!-- Node19 -->
<g id="Node000019" class="node">
<title>Node19</title>
<g id="a_Node000019"><a xlink:href="class_bit_vector.html#a93ab8bc2ec39bf299ae28ffcad504b41" target="_top" xlink:title="Give the coords of the first bit of an element.">
<polygon fill="white" stroke="#666666" points="1187,-346.33 1053,-346.33 1053,-327.33 1187,-327.33 1187,-346.33"/>
<text text-anchor="middle" x="1120" y="-334.33" font-family="Helvetica,sans-Serif" font-size="10.00">BitVector::indexElement</text>
</a>
</g>
</g>
<!-- Node15&#45;&gt;Node19 -->
<g id="edge26_Node000015_Node000019" class="edge">
<title>Node15&#45;&gt;Node19</title>
<g id="a_edge26_Node000015_Node000019"><a xlink:title=" ">
<path fill="none" stroke="#63b8ff" d="M973.75,-321.95C993.98,-324.02 1019.19,-326.61 1042.89,-329.03"/>
<polygon fill="#63b8ff" stroke="#63b8ff" points="1042.63,-332.53 1052.94,-330.06 1043.35,-325.56 1042.63,-332.53"/>
</a>
</g>
</g>
<!-- Node26 -->
<g id="Node000026" class="node">
<title>Node26</title>
<g id="a_Node000026"><a xlink:href="class_bit_vector.html#ab4d98ce4b8d36ed6af1aa46e67810972" target="_top" xlink:title="Give the last coordinates thar can be contained inside BitVector::_data with the current BitVector::_...">
<polygon fill="white" stroke="#666666" points="1367.5,-145.33 1269.5,-145.33 1269.5,-126.33 1367.5,-126.33 1367.5,-145.33"/>
<text text-anchor="middle" x="1318.5" y="-133.33" font-family="Helvetica,sans-Serif" font-size="10.00">BitVector::lastBit</text>
</a>
</g>
</g>
<!-- Node15&#45;&gt;Node26 -->
<g id="edge39_Node000015_Node000026" class="edge">
<title>Node15&#45;&gt;Node26</title>
<g id="a_edge39_Node000015_Node000026"><a xlink:title=" ">
<path fill="none" stroke="#63b8ff" d="M939.74,-308.25C955.23,-285.27 997.94,-226.78 1049,-197.83 1115.02,-160.4 1202.31,-145.55 1259.17,-139.67"/>
<polygon fill="#63b8ff" stroke="#63b8ff" points="1259.8,-143.13 1269.42,-138.67 1259.13,-136.16 1259.8,-143.13"/>
</a>
</g>
</g>
<!-- Node27 -->
<g id="Node000027" class="node">
<title>Node27</title>
<g id="a_Node000027"><a xlink:href="class_bit_vector.html#ab92cdd9780b949d9d762f58e1ee4a0ae" target="_top" xlink:title="Last postion of the vector.">
<polygon fill="white" stroke="#666666" points="1578,-262.33 1476,-262.33 1476,-243.33 1578,-243.33 1578,-262.33"/>
<text text-anchor="middle" x="1527" y="-250.33" font-family="Helvetica,sans-Serif" font-size="10.00">BitVector::lastPos</text>
</a>
</g>
</g>
<!-- Node15&#45;&gt;Node27 -->
<g id="edge40_Node000015_Node000027" class="edge">
<title>Node15&#45;&gt;Node27</title>
<g id="a_edge40_Node000015_Node000027"><a xlink:title=" ">
<path fill="none" stroke="#63b8ff" d="M959.71,-308.3C982.86,-300.33 1017.72,-289.38 1049,-283.83 1197.11,-257.55 1374.62,-252.94 1465.65,-252.49"/>
<polygon fill="#63b8ff" stroke="#63b8ff" points="1465.79,-255.99 1475.78,-252.46 1465.77,-248.99 1465.79,-255.99"/>
</a>
</g>
</g>
<!-- Node16&#45;&gt;Node3 -->
<g id="edge21_Node000016_Node000003" class="edge">
<title>Node16&#45;&gt;Node3</title>
<g id="a_edge21_Node000016_Node000003"><a xlink:title=" ">
<path fill="none" stroke="#63b8ff" d="M1157.05,-207.23C1177.43,-202.16 1203.48,-196.29 1227,-192.83 1401.41,-167.17 1876.94,-67.82 2020,-170.83 2080.73,-214.56 2093.28,-312.55 2095.85,-354.81"/>
<polygon fill="#63b8ff" stroke="#63b8ff" points="2092.36,-355.12 2096.34,-364.94 2099.36,-354.79 2092.36,-355.12"/>
</a>
</g>
</g>
<!-- Node17 -->
<g id="Node000017" class="node">
<title>Node17</title>
<g id="a_Node000017"><a xlink:href="class_bit_vector_1_1_coords.html#a393207c752f8f9121aca38c938914154" target="_top" xlink:title="Get Coords::bit .">
<polygon fill="white" stroke="#666666" points="1372,-231.83 1265,-231.83 1265,-201.83 1372,-201.83 1372,-231.83"/>
<text text-anchor="start" x="1273" y="-219.83" font-family="Helvetica,sans-Serif" font-size="10.00">BitVector::Coords::</text>
<text text-anchor="middle" x="1318.5" y="-208.83" font-family="Helvetica,sans-Serif" font-size="10.00">getBit</text>
</a>
</g>
</g>
<!-- Node16&#45;&gt;Node17 -->
<g id="edge22_Node000016_Node000017" class="edge">
<title>Node16&#45;&gt;Node17</title>
<g id="a_edge22_Node000016_Node000017"><a xlink:title=" ">
<path fill="none" stroke="#63b8ff" d="M1174.69,-216.83C1199.47,-216.83 1229.05,-216.83 1254.84,-216.83"/>
<polygon fill="#63b8ff" stroke="#63b8ff" points="1254.89,-220.33 1264.89,-216.83 1254.89,-213.33 1254.89,-220.33"/>
</a>
</g>
</g>
<!-- Node18&#45;&gt;Node3 -->
<g id="edge25_Node000018_Node000003" class="edge">
<title>Node18&#45;&gt;Node3</title>
<g id="a_edge25_Node000018_Node000003"><a xlink:title=" ">
<path fill="none" stroke="#63b8ff" d="M1964.8,-319.42C1991.12,-330.49 2034.59,-348.79 2064.34,-361.3"/>
<polygon fill="#63b8ff" stroke="#63b8ff" points="2063.29,-364.65 2073.86,-365.31 2066,-358.2 2063.29,-364.65"/>
</a>
</g>
</g>
<!-- Node19&#45;&gt;Node3 -->
<g id="edge27_Node000019_Node000003" class="edge">
<title>Node19&#45;&gt;Node3</title>
<g id="a_edge27_Node000019_Node000003"><a xlink:title=" ">
<path fill="none" stroke="#63b8ff" d="M1187.28,-339.41C1370.65,-346.55 1881.93,-366.47 2045.49,-372.84"/>
<polygon fill="#63b8ff" stroke="#63b8ff" points="2045.62,-376.35 2055.75,-373.24 2045.89,-369.36 2045.62,-376.35"/>
</a>
</g>
</g>
<!-- Node20 -->
<g id="Node000020" class="node">
<title>Node20</title>
<g id="a_Node000020"><a xlink:href="class_bit_vector.html#a04e6d0b67ee9b42ccec437b0176067fe" target="_top" xlink:title="Give A size_t that represent the coords of the first bit of an element.">
<polygon fill="white" stroke="#666666" points="1410,-403.33 1227,-403.33 1227,-384.33 1410,-384.33 1410,-403.33"/>
<text text-anchor="middle" x="1318.5" y="-391.33" font-family="Helvetica,sans-Serif" font-size="10.00">BitVector::indexElementUntreated</text>
</a>
</g>
</g>
<!-- Node19&#45;&gt;Node20 -->
<g id="edge28_Node000019_Node000020" class="edge">
<title>Node19&#45;&gt;Node20</title>
<g id="a_edge28_Node000019_Node000020"><a xlink:title=" ">
<path fill="none" stroke="#63b8ff" d="M1153.89,-346.37C1187.05,-355.99 1238.38,-370.88 1274.69,-381.41"/>
<polygon fill="#63b8ff" stroke="#63b8ff" points="1273.92,-384.83 1284.5,-384.26 1275.87,-378.11 1273.92,-384.83"/>
</a>
</g>
</g>
<!-- Node20&#45;&gt;Node3 -->
<g id="edge29_Node000020_Node000003" class="edge">
<title>Node20&#45;&gt;Node3</title>
<g id="a_edge29_Node000020_Node000003"><a xlink:title=" ">
<path fill="none" stroke="#63b8ff" d="M1410.15,-398.2C1543.92,-403.5 1801.9,-409.41 2020,-388.83 2028.41,-388.04 2037.27,-386.8 2045.87,-385.37"/>
<polygon fill="#63b8ff" stroke="#63b8ff" points="2046.54,-388.81 2055.79,-383.64 2045.34,-381.91 2046.54,-388.81"/>
</a>
</g>
</g>
<!-- Node21 -->
<g id="Node000021" class="node">
<title>Node21</title>
<g id="a_Node000021"><a xlink:href="class_bit_vector.html#af68cda7444ec4459393bbfa423f0a7dd" target="_top" xlink:title="Get the Size_t value if a BitVector::CoordUnit.">
<polygon fill="white" stroke="#666666" points="1786.5,-346.83 1683.5,-346.83 1683.5,-316.83 1786.5,-316.83 1786.5,-346.83"/>
<text text-anchor="start" x="1691.5" y="-334.83" font-family="Helvetica,sans-Serif" font-size="10.00">BitVector::getSize</text>
<text text-anchor="middle" x="1735" y="-323.83" font-family="Helvetica,sans-Serif" font-size="10.00">_tUnit</text>
</a>
</g>
</g>
<!-- Node20&#45;&gt;Node21 -->
<g id="edge30_Node000020_Node000021" class="edge">
<title>Node20&#45;&gt;Node21</title>
<g id="a_edge30_Node000020_Node000021"><a xlink:title=" ">
<path fill="none" stroke="#63b8ff" d="M1383.36,-384.28C1462.36,-372.46 1595.88,-352.49 1673.36,-340.9"/>
<polygon fill="#63b8ff" stroke="#63b8ff" points="1674.08,-344.33 1683.45,-339.39 1673.04,-337.41 1674.08,-344.33"/>
</a>
</g>
</g>
<!-- Node20&#45;&gt;Node23 -->
<g id="edge33_Node000020_Node000023" class="edge">
<title>Node20&#45;&gt;Node23</title>
<g id="a_edge33_Node000020_Node000023"><a xlink:title=" ">
<path fill="none" stroke="#63b8ff" d="M1340.44,-403.46C1377.25,-420.4 1453.68,-455.56 1496.07,-475.06"/>
<polygon fill="#63b8ff" stroke="#63b8ff" points="1494.77,-478.31 1505.31,-479.31 1497.69,-471.95 1494.77,-478.31"/>
</a>
</g>
</g>
<!-- Node21&#45;&gt;Node18 -->
<g id="edge31_Node000021_Node000018" class="edge">
<title>Node21&#45;&gt;Node18</title>
<g id="a_edge31_Node000021_Node000018"><a xlink:title=" ">
<path fill="none" stroke="#63b8ff" d="M1786.69,-326.36C1810.34,-323.81 1838.96,-320.73 1865.04,-317.91"/>
<polygon fill="#63b8ff" stroke="#63b8ff" points="1865.71,-321.36 1875.27,-316.81 1864.96,-314.4 1865.71,-321.36"/>
</a>
</g>
</g>
<!-- Node22 -->
<g id="Node000022" class="node">
<title>Node22</title>
<g id="a_Node000022"><a xlink:href="class_bit_vector_1_1_coords.html#a3a4fac9de925974af9c8a66a1d0179e6" target="_top" xlink:title="Translate octet and bit value inside a size_t. Allow easier mathematic computations.">
<polygon fill="white" stroke="#666666" points="1994.5,-267.83 1887.5,-267.83 1887.5,-237.83 1994.5,-237.83 1994.5,-267.83"/>
<text text-anchor="start" x="1895.5" y="-255.83" font-family="Helvetica,sans-Serif" font-size="10.00">BitVector::Coords::</text>
<text text-anchor="middle" x="1941" y="-244.83" font-family="Helvetica,sans-Serif" font-size="10.00">toSize_t</text>
</a>
</g>
</g>
<!-- Node21&#45;&gt;Node22 -->
<g id="edge32_Node000021_Node000022" class="edge">
<title>Node21&#45;&gt;Node22</title>
<g id="a_edge32_Node000021_Node000022"><a xlink:title=" ">
<path fill="none" stroke="#63b8ff" d="M1774.85,-316.78C1807.93,-303.98 1855.6,-285.51 1891.24,-271.71"/>
<polygon fill="#63b8ff" stroke="#63b8ff" points="1892.89,-274.83 1900.95,-267.95 1890.36,-268.3 1892.89,-274.83"/>
</a>
</g>
</g>
<!-- Node23&#45;&gt;Node21 -->
<g id="edge34_Node000023_Node000021" class="edge">
<title>Node23&#45;&gt;Node21</title>
<g id="a_edge34_Node000023_Node000021"><a xlink:title=" ">
<path fill="none" stroke="#63b8ff" d="M1540.58,-479.25C1573.07,-454.48 1660.47,-387.87 1705.82,-353.31"/>
<polygon fill="#63b8ff" stroke="#63b8ff" points="1708.21,-355.89 1714.04,-347.04 1703.97,-350.32 1708.21,-355.89"/>
</a>
</g>
</g>
<!-- Node24 -->
<g id="Node000024" class="node">
<title>Node24</title>
<g id="a_Node000024"><a xlink:href="class_bit_vector.html#a68b14af0886039ddcf55c82a250deb4c" target="_top" xlink:title="How many element can be contained in this kind of object.">
<polygon fill="white" stroke="#666666" points="2020,-546.83 1862,-546.83 1862,-516.83 2020,-516.83 2020,-546.83"/>
<text text-anchor="start" x="1870" y="-534.83" font-family="Helvetica,sans-Serif" font-size="10.00">BitVector::maximumElement</text>
<text text-anchor="middle" x="1941" y="-523.83" font-family="Helvetica,sans-Serif" font-size="10.00">Number</text>
</a>
</g>
</g>
<!-- Node23&#45;&gt;Node24 -->
<g id="edge35_Node000023_Node000024" class="edge">
<title>Node23&#45;&gt;Node24</title>
<g id="a_edge35_Node000023_Node000024"><a xlink:title=" ">
<path fill="none" stroke="#63b8ff" d="M1580.42,-498.34C1600.28,-501.71 1623.14,-505.28 1644,-507.83 1713.66,-516.34 1792.93,-522.59 1851.9,-526.57"/>
<polygon fill="#63b8ff" stroke="#63b8ff" points="1851.71,-530.07 1861.92,-527.24 1852.18,-523.08 1851.71,-530.07"/>
</a>
</g>
</g>
<!-- Node25 -->
<g id="Node000025" class="node">
<title>Node25</title>
<g id="a_Node000025"><a xlink:href="class_bit_vector.html#aa3228d2bacb1bb0f6072d73d43a49456" target="_top" xlink:title="How many octet can be contained in this kind of object.">
<polygon fill="white" stroke="#666666" points="1826,-498.33 1644,-498.33 1644,-479.33 1826,-479.33 1826,-498.33"/>
<text text-anchor="middle" x="1735" y="-486.33" font-family="Helvetica,sans-Serif" font-size="10.00">BitVector::maximumOctetNumber</text>
</a>
</g>
</g>
<!-- Node23&#45;&gt;Node25 -->
<g id="edge37_Node000023_Node000025" class="edge">
<title>Node23&#45;&gt;Node25</title>
<g id="a_edge37_Node000023_Node000025"><a xlink:title=" ">
<path fill="none" stroke="#63b8ff" d="M1604.12,-488.83C1613.73,-488.83 1623.68,-488.83 1633.6,-488.83"/>
<polygon fill="#63b8ff" stroke="#63b8ff" points="1633.9,-492.33 1643.9,-488.83 1633.9,-485.33 1633.9,-492.33"/>
</a>
</g>
</g>
<!-- Node24&#45;&gt;Node3 -->
<g id="edge36_Node000024_Node000003" class="edge">
<title>Node24&#45;&gt;Node3</title>
<g id="a_edge36_Node000024_Node000003"><a xlink:title=" ">
<path fill="none" stroke="#63b8ff" d="M1997.03,-516.8C2005.25,-513.06 2013.23,-508.47 2020,-502.83 2055.84,-473.01 2079.11,-421.8 2089.76,-394.05"/>
<polygon fill="#63b8ff" stroke="#63b8ff" points="2093.17,-394.94 2093.34,-384.35 2086.6,-392.52 2093.17,-394.94"/>
</a>
</g>
</g>
<!-- Node25&#45;&gt;Node3 -->
<g id="edge38_Node000025_Node000003" class="edge">
<title>Node25&#45;&gt;Node3</title>
<g id="a_edge38_Node000025_Node000003"><a xlink:title=" ">
<path fill="none" stroke="#63b8ff" d="M1826.23,-498.29C1884.59,-500.42 1960.49,-495.45 2020,-464.83 2050.83,-448.96 2074.31,-414.79 2086.7,-393.41"/>
<polygon fill="#63b8ff" stroke="#63b8ff" points="2089.79,-395.05 2091.6,-384.61 2083.68,-391.65 2089.79,-395.05"/>
</a>
</g>
</g>
<!-- Node27&#45;&gt;Node18 -->
<g id="edge41_Node000027_Node000018" class="edge">
<title>Node27&#45;&gt;Node18</title>
<g id="a_edge41_Node000027_Node000018"><a xlink:title=" ">
<path fill="none" stroke="#63b8ff" d="M1578,-253.11C1637.57,-254.23 1739.84,-258.63 1826,-274.83 1853,-279.9 1882.63,-289.12 1904.92,-296.82"/>
<polygon fill="#63b8ff" stroke="#63b8ff" points="1904.01,-300.21 1914.61,-300.23 1906.34,-293.61 1904.01,-300.21"/>
</a>
</g>
</g>
<!-- Node28&#45;&gt;Node3 -->
<g id="edge46_Node000028_Node000003" class="edge">
<title>Node28&#45;&gt;Node3</title>
<g id="a_edge46_Node000028_Node000003"><a xlink:title=" ">
<path fill="none" stroke="#63b8ff" d="M757.71,-135.26C809.52,-106.5 972.81,-22.83 1119,-22.83 1119,-22.83 1119,-22.83 1736,-22.83 1862.53,-22.83 1923.82,39.39 2020,-42.83 2068.25,-84.07 2089.36,-289.5 2094.93,-354.84"/>
<polygon fill="#63b8ff" stroke="#63b8ff" points="2091.46,-355.35 2095.77,-365.03 2098.44,-354.77 2091.46,-355.35"/>
</a>
</g>
</g>
<!-- Node28&#45;&gt;Node15 -->
<g id="edge47_Node000028_Node000015" class="edge">
<title>Node28&#45;&gt;Node15</title>
<g id="a_edge47_Node000028_Node000015"><a xlink:title=" ">
<path fill="none" stroke="#63b8ff" d="M751.51,-154.38C782.54,-182.55 873.96,-265.58 913.24,-301.24"/>
<polygon fill="#63b8ff" stroke="#63b8ff" points="911.03,-303.97 920.78,-308.1 915.73,-298.78 911.03,-303.97"/>
</a>
</g>
</g>
<!-- Node29 -->
<g id="Node000029" class="node">
<title>Node29</title>
<g id="a_Node000029"><a xlink:href="class_bit_vector.html#ad60f42244db2c82260326605916431d3" target="_top" xlink:title="Modify the number of known element in this object.">
<polygon fill="white" stroke="#666666" points="1013,-121.33 852,-121.33 852,-102.33 1013,-102.33 1013,-121.33"/>
<text text-anchor="middle" x="932.5" y="-109.33" font-family="Helvetica,sans-Serif" font-size="10.00">BitVector::setElementNumber</text>
</a>
</g>
</g>
<!-- Node28&#45;&gt;Node29 -->
<g id="edge48_Node000028_Node000029" class="edge">
<title>Node28&#45;&gt;Node29</title>
<g id="a_edge48_Node000028_Node000029"><a xlink:title=" ">
<path fill="none" stroke="#63b8ff" d="M792.05,-135.99C815.01,-132.01 842.37,-127.27 866.75,-123.05"/>
<polygon fill="#63b8ff" stroke="#63b8ff" points="867.38,-126.49 876.63,-121.33 866.18,-119.59 867.38,-126.49"/>
</a>
</g>
</g>
<!-- Node29&#45;&gt;Node3 -->
<g id="edge57_Node000029_Node000003" class="edge">
<title>Node29&#45;&gt;Node3</title>
<g id="a_edge57_Node000029_Node000003"><a xlink:title=" ">
<path fill="none" stroke="#63b8ff" d="M974.2,-102.29C996.24,-97.39 1024,-91.67 1049,-87.83 1167.54,-69.6 1197.56,-60.83 1317.5,-60.83 1317.5,-60.83 1317.5,-60.83 1736,-60.83 1863.12,-60.83 1923.73,-11.81 2020,-94.83 2060.25,-129.54 2086.11,-297.15 2093.96,-355.08"/>
<polygon fill="#63b8ff" stroke="#63b8ff" points="2090.51,-355.68 2095.3,-365.14 2097.45,-354.76 2090.51,-355.68"/>
</a>
</g>
</g>
<!-- Node30 -->
<g id="Node000030" class="node">
<title>Node30</title>
<g id="a_Node000030"><a xlink:href="class_bit_vector.html#ad64e921d07b9528a532477f282af135c" target="_top" xlink:title="How many element can fit in this vector without having to resize the vector ?">
<polygon fill="white" stroke="#666666" points="1191,-126.83 1049,-126.83 1049,-96.83 1191,-96.83 1191,-126.83"/>
<text text-anchor="start" x="1057" y="-114.83" font-family="Helvetica,sans-Serif" font-size="10.00">BitVector::currentElement</text>
<text text-anchor="middle" x="1120" y="-103.83" font-family="Helvetica,sans-Serif" font-size="10.00">Capacity</text>
</a>
</g>
</g>
<!-- Node29&#45;&gt;Node30 -->
<g id="edge49_Node000029_Node000030" class="edge">
<title>Node29&#45;&gt;Node30</title>
<g id="a_edge49_Node000029_Node000030"><a xlink:title=" ">
<path fill="none" stroke="#63b8ff" d="M1013.25,-111.83C1021.69,-111.83 1030.29,-111.83 1038.74,-111.83"/>
<polygon fill="#63b8ff" stroke="#63b8ff" points="1038.96,-115.33 1048.96,-111.83 1038.96,-108.33 1038.96,-115.33"/>
</a>
</g>
</g>
<!-- Node30&#45;&gt;Node26 -->
<g id="edge56_Node000030_Node000026" class="edge">
<title>Node30&#45;&gt;Node26</title>
<g id="a_edge56_Node000030_Node000026"><a xlink:title=" ">
<path fill="none" stroke="#63b8ff" d="M1191.11,-120.39C1213.37,-123.11 1237.73,-126.09 1259.08,-128.69"/>
<polygon fill="#63b8ff" stroke="#63b8ff" points="1258.94,-132.2 1269.29,-129.94 1259.79,-125.25 1258.94,-132.2"/>
</a>
</g>
</g>
<!-- Node31 -->
<g id="Node000031" class="node">
<title>Node31</title>
<g id="a_Node000031"><a xlink:href="class_bit_vector.html#a5af3c70f593aac387de23c7e6e5ae57e" target="_top" xlink:title="Find the element that correspond to coord .">
<polygon fill="white" stroke="#666666" points="1392,-108.33 1245,-108.33 1245,-89.33 1392,-89.33 1392,-108.33"/>
<text text-anchor="middle" x="1318.5" y="-96.33" font-family="Helvetica,sans-Serif" font-size="10.00">BitVector::indexCoordinate</text>
</a>
</g>
</g>
<!-- Node30&#45;&gt;Node31 -->
<g id="edge50_Node000030_Node000031" class="edge">
<title>Node30&#45;&gt;Node31</title>
<g id="a_edge50_Node000030_Node000031"><a xlink:title=" ">
<path fill="none" stroke="#63b8ff" d="M1191.11,-107.19C1205.12,-106.26 1219.97,-105.28 1234.37,-104.33"/>
<polygon fill="#63b8ff" stroke="#63b8ff" points="1235.02,-107.79 1244.76,-103.64 1234.55,-100.81 1235.02,-107.79"/>
</a>
</g>
</g>
<!-- Node31&#45;&gt;Node3 -->
<g id="edge51_Node000031_Node000003" class="edge">
<title>Node31&#45;&gt;Node3</title>
<g id="a_edge51_Node000031_Node000003"><a xlink:title=" ">
<path fill="none" stroke="#63b8ff" d="M1392.09,-96.62C1561.28,-92.12 1971.15,-85.3 2020,-122.83 2057.82,-151.89 2084.81,-300.99 2093.5,-355.14"/>
<polygon fill="#63b8ff" stroke="#63b8ff" points="2090.07,-355.84 2095.07,-365.18 2096.98,-354.76 2090.07,-355.84"/>
</a>
</g>
</g>
<!-- Node32 -->
<g id="Node000032" class="node">
<title>Node32</title>
<g id="a_Node000032"><a xlink:href="class_bit_vector.html#a354c83853bc3622efa5d45efcae97286" target="_top" xlink:title="Give more detailed on BiteVector::indexCoordinate.">
<polygon fill="white" stroke="#666666" points="1600.5,-217.83 1453.5,-217.83 1453.5,-187.83 1600.5,-187.83 1600.5,-217.83"/>
<text text-anchor="start" x="1461.5" y="-205.83" font-family="Helvetica,sans-Serif" font-size="10.00">BitVector::indexCoordinate</text>
<text text-anchor="middle" x="1527" y="-194.83" font-family="Helvetica,sans-Serif" font-size="10.00">Untreated</text>
</a>
</g>
</g>
<!-- Node31&#45;&gt;Node32 -->
<g id="edge52_Node000031_Node000032" class="edge">
<title>Node31&#45;&gt;Node32</title>
<g id="a_edge52_Node000031_Node000032"><a xlink:title=" ">
<path fill="none" stroke="#63b8ff" d="M1385.33,-108.35C1393.81,-110.6 1402.24,-113.39 1410,-116.83 1445.72,-132.66 1480.95,-161.09 1503.04,-180.91"/>
<polygon fill="#63b8ff" stroke="#63b8ff" points="1500.81,-183.62 1510.56,-187.79 1505.54,-178.46 1500.81,-183.62"/>
</a>
</g>
</g>
<!-- Node32&#45;&gt;Node3 -->
<g id="edge53_Node000032_Node000003" class="edge">
<title>Node32&#45;&gt;Node3</title>
<g id="a_edge53_Node000032_Node000003"><a xlink:title=" ">
<path fill="none" stroke="#63b8ff" d="M1588.89,-187.8C1688.29,-166.97 1887.56,-141.07 2020,-228.83 2064.6,-258.38 2084.86,-322.64 2092.54,-355.15"/>
<polygon fill="#63b8ff" stroke="#63b8ff" points="2089.19,-356.2 2094.75,-365.21 2096.02,-354.7 2089.19,-356.2"/>
</a>
</g>
</g>
<!-- Node32&#45;&gt;Node21 -->
<g id="edge54_Node000032_Node000021" class="edge">
<title>Node32&#45;&gt;Node21</title>
<g id="a_edge54_Node000032_Node000021"><a xlink:title=" ">
<path fill="none" stroke="#63b8ff" d="M1573.91,-217.98C1585.35,-222.47 1597.37,-227.81 1608,-233.83 1646.35,-255.55 1685.67,-288.1 1709.96,-309.65"/>
<polygon fill="#63b8ff" stroke="#63b8ff" points="1707.82,-312.43 1717.6,-316.5 1712.5,-307.22 1707.82,-312.43"/>
</a>
</g>
</g>
<!-- Node32&#45;&gt;Node22 -->
<g id="edge55_Node000032_Node000022" class="edge">
<title>Node32&#45;&gt;Node22</title>
<g id="a_edge55_Node000032_Node000022"><a xlink:title=" ">
<path fill="none" stroke="#63b8ff" d="M1600.63,-210.59C1661.01,-217.16 1749.16,-227.06 1826,-236.83 1842.58,-238.94 1860.5,-241.38 1877.11,-243.71"/>
<polygon fill="#63b8ff" stroke="#63b8ff" points="1876.86,-247.21 1887.25,-245.14 1877.84,-240.27 1876.86,-247.21"/>
</a>
</g>
</g>
</g>
</svg>

<g id="navigator" transform="translate(0 0)" fill="#404254">
  <rect fill="#f2f5e9" fill-opacity="0.5" stroke="#606060" stroke-width=".5" x="0" y="0" width="60" height="60"/>
  <use id="zoomplus" xlink:href="#zoomPlus" x="17" y="9" onmousedown="handleZoom(evt,'in')"/>
  <use id="zoomminus" xlink:href="#zoomMin" x="42" y="9" onmousedown="handleZoom(evt,'out')"/>
  <use id="reset" xlink:href="#resetDef" x="30" y="36" onmousedown="handleReset()"/>
   <use id="arrowup" xlink:href="#arrowUp" x="0" y="0" onmousedown="handlePan(0,-1)"/>
  <use id="arrowright" xlink:href="#arrowRight" x="0" y="0" onmousedown="handlePan(1,0)"/>
  <use id="arrowdown" xlink:href="#arrowDown" x="0" y="0" onmousedown="handlePan(0,1)"/>
  <use id="arrowleft" xlink:href="#arrowLeft" x="0" y="0" onmousedown="handlePan(-1,0)"/>
</g>
<svg viewBox="0 0 15 15" width="100%" height="30px" preserveAspectRatio="xMaxYMin meet">
 <g id="arrow_out" transform="scale(0.3 0.3)">
  <a xlink:href="class_sequence_a1fa6868ce587e1f3d779bb226cfda548_cgraph_org.svg" target="_base">
   <rect id="button" ry="5" rx="5" y="6" x="6" height="38" width="38"
        fill="#f2f5e9" fill-opacity="0.5" stroke="#606060" stroke-width="1.0"/>
   <path id="arrow"
     d="M 11.500037,31.436501 C 11.940474,20.09759 22.043105,11.32322 32.158766,21.979434 L 37.068811,17.246167 C 37.068811,17.246167 37.088388,32 37.088388,32 L 22.160133,31.978069 C 22.160133,31.978069 26.997745,27.140456 26.997745,27.140456 C 18.528582,18.264221 13.291696,25.230495 11.500037,31.436501 z"
     style="fill:#404040;"/>
  </a>
 </g>
</svg>

<style type='text/css'>
<![CDATA[
[data-mouse-over-selected='false'] { opacity: 0.7; }
[data-mouse-over-selected='true']  { opacity: 1.0; }
]]>
</style>
<script type="application/ecmascript"><![CDATA[
document.addEventListener('DOMContentLoaded', (event) => {
  highlightEdges();
  highlightAdjacentNodes();
});
]]></script>
</svg>
