<?xml version="1.0" encoding="UTF-8" standalone="no"?>
<!DOCTYPE svg PUBLIC "-//W3C//DTD SVG 1.1//EN"
 "http://www.w3.org/Graphics/SVG/1.1/DTD/svg11.dtd">
<!-- Generated by graphviz version 2.43.0 (0)
 -->
<!-- Title: BitVector::indexCoordinateUntreated Pages: 1 -->
<svg width="723pt" height="115pt"
 viewBox="0.00 0.00 723.00 114.50" xmlns="http://www.w3.org/2000/svg" xmlns:xlink="http://www.w3.org/1999/xlink">
<g id="graph0" class="graph" transform="scale(1 1) rotate(0) translate(4 110.5)">
<title>BitVector::indexCoordinateUntreated</title>
<!-- Node1 -->
<g id="Node000001" class="node">
<title>Node1</title>
<g id="a_Node000001"><a xlink:title="Give more detailed on BiteVector::indexCoordinate.">
<polygon fill="#999999" stroke="#666666" points="147,-71 0,-71 0,-41 147,-41 147,-71"/>
<text text-anchor="start" x="8" y="-59" font-family="Helvetica,sans-Serif" font-size="10.00">BitVector::indexCoordinate</text>
<text text-anchor="middle" x="73.5" y="-48" font-family="Helvetica,sans-Serif" font-size="10.00">Untreated</text>
</a>
</g>
</g>
<!-- Node2 -->
<g id="Node000002" class="node">
<title>Node2</title>
<g id="a_Node000002"><a xlink:href="class_bit_vector.html#aebe159444eb9d619959b7325ac5dac2d" target="_top" xlink:title="Return the value of the bit at the position coord.">
<polygon fill="white" stroke="#666666" points="572,-88.5 489,-88.5 489,-69.5 572,-69.5 572,-88.5"/>
<text text-anchor="middle" x="530.5" y="-76.5" font-family="Helvetica,sans-Serif" font-size="10.00">BitVector::get</text>
</a>
</g>
</g>
<!-- Node1&#45;&gt;Node2 -->
<g id="edge1_Node000001_Node000002" class="edge">
<title>Node1&#45;&gt;Node2</title>
<g id="a_edge1_Node000001_Node000002"><a xlink:title=" ">
<path fill="none" stroke="#63b8ff" d="M131.55,-71.06C148.03,-74.74 166.12,-78.16 183,-80 287.45,-91.41 410.66,-86.79 478.42,-82.7"/>
<polygon fill="#63b8ff" stroke="#63b8ff" points="479.04,-86.16 488.8,-82.05 478.6,-79.18 479.04,-86.16"/>
</a>
</g>
</g>
<!-- Node4 -->
<g id="Node000004" class="node">
<title>Node4</title>
<g id="a_Node000004"><a xlink:href="class_bit_vector.html#af68cda7444ec4459393bbfa423f0a7dd" target="_top" xlink:title="Get the Size_t value if a BitVector::CoordUnit.">
<polygon fill="white" stroke="#666666" points="286,-71 183,-71 183,-41 286,-41 286,-71"/>
<text text-anchor="start" x="191" y="-59" font-family="Helvetica,sans-Serif" font-size="10.00">BitVector::getSize</text>
<text text-anchor="middle" x="234.5" y="-48" font-family="Helvetica,sans-Serif" font-size="10.00">_tUnit</text>
</a>
</g>
</g>
<!-- Node1&#45;&gt;Node4 -->
<g id="edge4_Node000001_Node000004" class="edge">
<title>Node1&#45;&gt;Node4</title>
<g id="a_edge4_Node000001_Node000004"><a xlink:title=" ">
<path fill="none" stroke="#63b8ff" d="M147.02,-56C155.64,-56 164.37,-56 172.8,-56"/>
<polygon fill="#63b8ff" stroke="#63b8ff" points="172.9,-59.5 182.9,-56 172.9,-52.5 172.9,-59.5"/>
</a>
</g>
</g>
<!-- Node6 -->
<g id="Node000006" class="node">
<title>Node6</title>
<g id="a_Node000006"><a xlink:href="class_bit_vector_1_1_coords.html#a3a4fac9de925974af9c8a66a1d0179e6" target="_top" xlink:title="Translate octet and bit value inside a size_t. Allow easier mathematic computations.">
<polygon fill="white" stroke="#666666" points="441,-30 334,-30 334,0 441,0 441,-30"/>
<text text-anchor="start" x="342" y="-18" font-family="Helvetica,sans-Serif" font-size="10.00">BitVector::Coords::</text>
<text text-anchor="middle" x="387.5" y="-7" font-family="Helvetica,sans-Serif" font-size="10.00">toSize_t</text>
</a>
</g>
</g>
<!-- Node1&#45;&gt;Node6 -->
<g id="edge8_Node000001_Node000006" class="edge">
<title>Node1&#45;&gt;Node6</title>
<g id="a_edge8_Node000001_Node000006"><a xlink:title=" ">
<path fill="none" stroke="#63b8ff" d="M135.63,-40.97C151.01,-37.61 167.55,-34.34 183,-32 229.92,-24.88 283.4,-20.56 323.76,-18.06"/>
<polygon fill="#63b8ff" stroke="#63b8ff" points="324.22,-21.54 333.99,-17.44 323.8,-14.55 324.22,-21.54"/>
</a>
</g>
</g>
<!-- Node2&#45;&gt;Node2 -->
<g id="edge2_Node000002_Node000002" class="edge">
<title>Node2&#45;&gt;Node2</title>
<g id="a_edge2_Node000002_Node000002"><a xlink:title=" ">
<path fill="none" stroke="#63b8ff" d="M510.46,-88.58C500.72,-97.23 507.39,-106.5 530.5,-106.5 545.3,-106.5 553.36,-102.7 554.68,-97.69"/>
<polygon fill="#63b8ff" stroke="#63b8ff" points="557.86,-96.23 550.54,-88.58 551.49,-99.13 557.86,-96.23"/>
</a>
</g>
</g>
<!-- Node3 -->
<g id="Node000003" class="node">
<title>Node3</title>
<g id="a_Node000003"><a xlink:href="class_bit_vector_1_1_coords.html#a2892f7f46c4af93f9733e312229d8ec1" target="_top" xlink:title="Get Coords::octet .">
<polygon fill="white" stroke="#666666" points="715,-94 608,-94 608,-64 715,-64 715,-94"/>
<text text-anchor="start" x="616" y="-82" font-family="Helvetica,sans-Serif" font-size="10.00">BitVector::Coords::</text>
<text text-anchor="middle" x="661.5" y="-71" font-family="Helvetica,sans-Serif" font-size="10.00">getOctet</text>
</a>
</g>
</g>
<!-- Node2&#45;&gt;Node3 -->
<g id="edge3_Node000002_Node000003" class="edge">
<title>Node2&#45;&gt;Node3</title>
<g id="a_edge3_Node000002_Node000003"><a xlink:title=" ">
<path fill="none" stroke="#63b8ff" d="M572.32,-79C580.38,-79 589.02,-79 597.62,-79"/>
<polygon fill="#63b8ff" stroke="#63b8ff" points="597.66,-82.5 607.66,-79 597.66,-75.5 597.66,-82.5"/>
</a>
</g>
</g>
<!-- Node5 -->
<g id="Node000005" class="node">
<title>Node5</title>
<g id="a_Node000005"><a xlink:href="class_bit_vector.html#a115789c8a9812eabb52f8843cd4e9965" target="_top" xlink:title="Give the a coord object that represent the size of 1 element inside BitVector::_data.">
<polygon fill="white" stroke="#666666" points="453,-69.5 322,-69.5 322,-50.5 453,-50.5 453,-69.5"/>
<text text-anchor="middle" x="387.5" y="-57.5" font-family="Helvetica,sans-Serif" font-size="10.00">BitVector::getCoordUnit</text>
</a>
</g>
</g>
<!-- Node4&#45;&gt;Node5 -->
<g id="edge5_Node000004_Node000005" class="edge">
<title>Node4&#45;&gt;Node5</title>
<g id="a_edge5_Node000004_Node000005"><a xlink:title=" ">
<path fill="none" stroke="#63b8ff" d="M286.2,-57.34C294.45,-57.56 303.15,-57.79 311.83,-58.02"/>
<polygon fill="#63b8ff" stroke="#63b8ff" points="311.9,-61.52 321.99,-58.29 312.08,-54.53 311.9,-61.52"/>
</a>
</g>
</g>
<!-- Node4&#45;&gt;Node6 -->
<g id="edge7_Node000004_Node000006" class="edge">
<title>Node4&#45;&gt;Node6</title>
<g id="a_edge7_Node000004_Node000006"><a xlink:title=" ">
<path fill="none" stroke="#63b8ff" d="M286.2,-42.23C298.3,-38.95 311.36,-35.4 323.93,-31.99"/>
<polygon fill="#63b8ff" stroke="#63b8ff" points="325.14,-35.29 333.87,-29.29 323.3,-28.53 325.14,-35.29"/>
</a>
</g>
</g>
<!-- Node5&#45;&gt;Node2 -->
<g id="edge6_Node000005_Node000002" class="edge">
<title>Node5&#45;&gt;Node2</title>
<g id="a_edge6_Node000005_Node000002"><a xlink:title=" ">
<path fill="none" stroke="#63b8ff" d="M453.22,-68.72C461.87,-69.89 470.63,-71.07 478.99,-72.19"/>
<polygon fill="#63b8ff" stroke="#63b8ff" points="478.56,-75.67 488.94,-73.53 479.5,-68.73 478.56,-75.67"/>
</a>
</g>
</g>
</g>
</svg>
