<?xml version="1.0" encoding="UTF-8" standalone="no"?>
<!DOCTYPE svg PUBLIC "-//W3C//DTD SVG 1.1//EN"
 "http://www.w3.org/Graphics/SVG/1.1/DTD/svg11.dtd">
<!-- Generated by graphviz version 2.43.0 (0)
 -->
<!-- Title: Sequence::SequenceSymbol::SequenceSymbol Pages: 1 -->
<svg width="1293pt" height="138pt"
 viewBox="0.00 0.00 1293.00 138.00" xmlns="http://www.w3.org/2000/svg" xmlns:xlink="http://www.w3.org/1999/xlink">
<g id="graph0" class="graph" transform="scale(1 1) rotate(0) translate(4 134)">
<title>Sequence::SequenceSymbol::SequenceSymbol</title>
<!-- Node1 -->
<g id="Node000001" class="node">
<title>Node1</title>
<g id="a_Node000001"><a xlink:title="Construct a new Sequence Symbol object.">
<polygon fill="#999999" stroke="#666666" points="154,-43.5 0,-43.5 0,-13.5 154,-13.5 154,-43.5"/>
<text text-anchor="start" x="8" y="-31.5" font-family="Helvetica,sans-Serif" font-size="10.00">Sequence::SequenceSymbol</text>
<text text-anchor="middle" x="77" y="-20.5" font-family="Helvetica,sans-Serif" font-size="10.00">::SequenceSymbol</text>
</a>
</g>
</g>
<!-- Node2 -->
<g id="Node000002" class="node">
<title>Node2</title>
<g id="a_Node000002"><a xlink:href="class_sequence_1_1_sequence_symbol.html#a6ce75fca5a3983dadece17f1812d618a" target="_top" xlink:title="Get the value of this SequenceSymbol in a precise iupac alphabet.">
<polygon fill="white" stroke="#666666" points="366,-38 190,-38 190,-19 366,-19 366,-38"/>
<text text-anchor="middle" x="278" y="-26" font-family="Helvetica,sans-Serif" font-size="10.00">Sequence::SequenceSymbol::get</text>
</a>
</g>
</g>
<!-- Node1&#45;&gt;Node2 -->
<g id="edge1_Node000001_Node000002" class="edge">
<title>Node1&#45;&gt;Node2</title>
<g id="a_edge1_Node000001_Node000002"><a xlink:title=" ">
<path fill="none" stroke="#63b8ff" d="M154.09,-28.5C162.52,-28.5 171.2,-28.5 179.85,-28.5"/>
<polygon fill="#63b8ff" stroke="#63b8ff" points="179.98,-32 189.98,-28.5 179.98,-25 179.98,-32"/>
</a>
</g>
</g>
<!-- Node3 -->
<g id="Node000003" class="node">
<title>Node3</title>
<g id="a_Node000003"><a xlink:href="class_sequence.html#ad40777fd2f7ad3ae247fab02459e6759" target="_top" xlink:title="Retrieve the symbol at the position in the sequence.">
<polygon fill="white" stroke="#666666" points="488,-38 402,-38 402,-19 488,-19 488,-38"/>
<text text-anchor="middle" x="445" y="-26" font-family="Helvetica,sans-Serif" font-size="10.00">Sequence::get</text>
</a>
</g>
</g>
<!-- Node2&#45;&gt;Node3 -->
<g id="edge2_Node000002_Node000003" class="edge">
<title>Node2&#45;&gt;Node3</title>
<g id="a_edge2_Node000002_Node000003"><a xlink:title=" ">
<path fill="none" stroke="#63b8ff" d="M366.33,-28.5C375.03,-28.5 383.65,-28.5 391.82,-28.5"/>
<polygon fill="#63b8ff" stroke="#63b8ff" points="391.88,-32 401.88,-28.5 391.88,-25 391.88,-32"/>
</a>
</g>
</g>
<!-- Node3&#45;&gt;Node3 -->
<g id="edge6_Node000003_Node000003" class="edge">
<title>Node3&#45;&gt;Node3</title>
<g id="a_edge6_Node000003_Node000003"><a xlink:title=" ">
<path fill="none" stroke="#63b8ff" d="M421.26,-38.08C409.72,-46.73 417.63,-56 445,-56 462.96,-56 472.54,-52.01 473.75,-46.82"/>
<polygon fill="#63b8ff" stroke="#63b8ff" points="476.75,-45.02 468.74,-38.08 470.67,-48.5 476.75,-45.02"/>
</a>
</g>
</g>
<!-- Node4 -->
<g id="Node000004" class="node">
<title>Node4</title>
<g id="a_Node000004"><a xlink:href="class_bit_vector.html#aebe159444eb9d619959b7325ac5dac2d" target="_top" xlink:title="Return the value of the bit at the position coord.">
<polygon fill="white" stroke="#666666" points="641.5,-112 558.5,-112 558.5,-93 641.5,-93 641.5,-112"/>
<text text-anchor="middle" x="600" y="-100" font-family="Helvetica,sans-Serif" font-size="10.00">BitVector::get</text>
</a>
</g>
</g>
<!-- Node3&#45;&gt;Node4 -->
<g id="edge3_Node000003_Node000004" class="edge">
<title>Node3&#45;&gt;Node4</title>
<g id="a_edge3_Node000003_Node000004"><a xlink:title=" ">
<path fill="none" stroke="#63b8ff" d="M456.76,-38.34C471.07,-50.9 497.62,-72.43 524,-84.5 531.7,-88.02 540.18,-90.91 548.57,-93.25"/>
<polygon fill="#63b8ff" stroke="#63b8ff" points="547.78,-96.66 558.34,-95.75 549.52,-89.88 547.78,-96.66"/>
</a>
</g>
</g>
<!-- Node6 -->
<g id="Node000006" class="node">
<title>Node6</title>
<g id="a_Node000006"><a xlink:href="class_sequence.html#a8181f024304b3fb5f55c7118f648cc61" target="_top" xlink:title="Return a char (same format as Sequence::getType()) that indicate which alphabet is used in the during...">
<polygon fill="white" stroke="#666666" points="676,-75 524,-75 524,-56 676,-56 676,-75"/>
<text text-anchor="middle" x="600" y="-63" font-family="Helvetica,sans-Serif" font-size="10.00">Sequence::getEncodingType</text>
</a>
</g>
</g>
<!-- Node3&#45;&gt;Node6 -->
<g id="edge7_Node000003_Node000006" class="edge">
<title>Node3&#45;&gt;Node6</title>
<g id="a_edge7_Node000003_Node000006"><a xlink:title=" ">
<path fill="none" stroke="#63b8ff" d="M485.27,-38.09C497.66,-41.11 511.4,-44.45 524,-47.5 532.23,-49.49 540.97,-51.6 549.47,-53.64"/>
<polygon fill="#63b8ff" stroke="#63b8ff" points="548.75,-57.06 559.29,-56 550.39,-50.26 548.75,-57.06"/>
</a>
</g>
</g>
<!-- Node7 -->
<g id="Node000007" class="node">
<title>Node7</title>
<g id="a_Node000007"><a xlink:href="class_sequence.html#a49a9126010c0332493c803ddca005394" target="_top" xlink:title="Give a map that compress / decompress char used by Sequence.">
<polygon fill="white" stroke="#666666" points="669.5,-38 530.5,-38 530.5,-19 669.5,-19 669.5,-38"/>
<text text-anchor="middle" x="600" y="-26" font-family="Helvetica,sans-Serif" font-size="10.00">Sequence::translationTab</text>
</a>
</g>
</g>
<!-- Node3&#45;&gt;Node7 -->
<g id="edge8_Node000003_Node000007" class="edge">
<title>Node3&#45;&gt;Node7</title>
<g id="a_edge8_Node000003_Node000007"><a xlink:title=" ">
<path fill="none" stroke="#63b8ff" d="M488.21,-22.39C498.24,-21.99 509.25,-21.78 520.32,-21.75"/>
<polygon fill="#63b8ff" stroke="#63b8ff" points="520.47,-25.25 530.48,-21.78 520.49,-18.25 520.47,-25.25"/>
</a>
</g>
</g>
<!-- Node4&#45;&gt;Node4 -->
<g id="edge4_Node000004_Node000004" class="edge">
<title>Node4&#45;&gt;Node4</title>
<g id="a_edge4_Node000004_Node000004"><a xlink:title=" ">
<path fill="none" stroke="#63b8ff" d="M576.26,-112.08C564.72,-120.73 572.63,-130 600,-130 617.96,-130 627.54,-126.01 628.75,-120.82"/>
<polygon fill="#63b8ff" stroke="#63b8ff" points="631.75,-119.02 623.74,-112.08 625.67,-122.5 631.75,-119.02"/>
</a>
</g>
</g>
<!-- Node5 -->
<g id="Node000005" class="node">
<title>Node5</title>
<g id="a_Node000005"><a xlink:href="class_bit_vector_1_1_coords.html#a2892f7f46c4af93f9733e312229d8ec1" target="_top" xlink:title="Get Coords::octet .">
<polygon fill="white" stroke="#666666" points="829.5,-117.5 722.5,-117.5 722.5,-87.5 829.5,-87.5 829.5,-117.5"/>
<text text-anchor="start" x="730.5" y="-105.5" font-family="Helvetica,sans-Serif" font-size="10.00">BitVector::Coords::</text>
<text text-anchor="middle" x="776" y="-94.5" font-family="Helvetica,sans-Serif" font-size="10.00">getOctet</text>
</a>
</g>
</g>
<!-- Node4&#45;&gt;Node5 -->
<g id="edge5_Node000004_Node000005" class="edge">
<title>Node4&#45;&gt;Node5</title>
<g id="a_edge5_Node000004_Node000005"><a xlink:title=" ">
<path fill="none" stroke="#63b8ff" d="M641.8,-102.5C662.71,-102.5 688.64,-102.5 712.05,-102.5"/>
<polygon fill="#63b8ff" stroke="#63b8ff" points="712.25,-106 722.25,-102.5 712.25,-99 712.25,-106"/>
</a>
</g>
</g>
<!-- Node7&#45;&gt;Node3 -->
<g id="edge14_Node000007_Node000003" class="edge">
<title>Node7&#45;&gt;Node3</title>
<g id="a_edge14_Node000007_Node000003"><a xlink:title=" ">
<path fill="none" stroke="#63b8ff" d="M530.48,-35.22C519.68,-35.31 508.67,-35.21 498.32,-34.94"/>
<polygon fill="#63b8ff" stroke="#63b8ff" points="498.32,-31.44 488.21,-34.61 498.09,-38.44 498.32,-31.44"/>
</a>
</g>
</g>
<!-- Node8 -->
<g id="Node000008" class="node">
<title>Node8</title>
<g id="a_Node000008"><a xlink:href="class_sequence.html#a555c6e58957c4d07028eb5c67b1732ac" target="_top" xlink:title="Function used by Sequence::translationTab to create their compression map.">
<polygon fill="white" stroke="#666666" points="840,-19 712,-19 712,0 840,0 840,-19"/>
<text text-anchor="middle" x="776" y="-7" font-family="Helvetica,sans-Serif" font-size="10.00">Sequence::fillCodeMap</text>
</a>
</g>
</g>
<!-- Node7&#45;&gt;Node8 -->
<g id="edge9_Node000007_Node000008" class="edge">
<title>Node7&#45;&gt;Node8</title>
<g id="a_edge9_Node000007_Node000008"><a xlink:title=" ">
<path fill="none" stroke="#63b8ff" d="M669.77,-20.99C680.28,-19.84 691.16,-18.65 701.76,-17.5"/>
<polygon fill="#63b8ff" stroke="#63b8ff" points="702.26,-20.96 711.82,-16.4 701.5,-14.01 702.26,-20.96"/>
</a>
</g>
</g>
<!-- Node8&#45;&gt;Node3 -->
<g id="edge10_Node000008_Node000003" class="edge">
<title>Node8&#45;&gt;Node3</title>
<g id="a_edge10_Node000008_Node000003"><a xlink:title=" ">
<path fill="none" stroke="#63b8ff" d="M711.83,-5.35C660.92,-3 587.6,-1.87 524,-9.5 512.01,-10.94 499.21,-13.58 487.51,-16.44"/>
<polygon fill="#63b8ff" stroke="#63b8ff" points="486.38,-13.12 477.56,-18.99 488.12,-19.9 486.38,-13.12"/>
</a>
</g>
</g>
<!-- Node9 -->
<g id="Node000009" class="node">
<title>Node9</title>
<g id="a_Node000009"><a xlink:href="class_sequence.html#acf21040958590f98163b3d11f19ea93e" target="_top" xlink:title="Give the number of element contained in this sequence.">
<polygon fill="white" stroke="#666666" points="965,-19 876,-19 876,0 965,0 965,-19"/>
<text text-anchor="middle" x="920.5" y="-7" font-family="Helvetica,sans-Serif" font-size="10.00">Sequence::size</text>
</a>
</g>
</g>
<!-- Node8&#45;&gt;Node9 -->
<g id="edge11_Node000008_Node000009" class="edge">
<title>Node8&#45;&gt;Node9</title>
<g id="a_edge11_Node000008_Node000009"><a xlink:title=" ">
<path fill="none" stroke="#63b8ff" d="M840.33,-9.5C848.8,-9.5 857.42,-9.5 865.7,-9.5"/>
<polygon fill="#63b8ff" stroke="#63b8ff" points="865.98,-13 875.98,-9.5 865.98,-6 865.98,-13"/>
</a>
</g>
</g>
<!-- Node10 -->
<g id="Node000010" class="node">
<title>Node10</title>
<g id="a_Node000010"><a xlink:href="class_bit_vector.html#ab30ea2b408107e4e6bc8095b5a64a1dd" target="_top" xlink:title="Number of element inside this object.">
<polygon fill="white" stroke="#666666" points="1087,-19 1001,-19 1001,0 1087,0 1087,-19"/>
<text text-anchor="middle" x="1044" y="-7" font-family="Helvetica,sans-Serif" font-size="10.00">BitVector::size</text>
</a>
</g>
</g>
<!-- Node9&#45;&gt;Node10 -->
<g id="edge12_Node000009_Node000010" class="edge">
<title>Node9&#45;&gt;Node10</title>
<g id="a_edge12_Node000009_Node000010"><a xlink:title=" ">
<path fill="none" stroke="#63b8ff" d="M965.02,-9.5C973.25,-9.5 981.94,-9.5 990.41,-9.5"/>
<polygon fill="#63b8ff" stroke="#63b8ff" points="990.6,-13 1000.6,-9.5 990.6,-6 990.6,-13"/>
</a>
</g>
</g>
<!-- Node11 -->
<g id="Node000011" class="node">
<title>Node11</title>
<g id="a_Node000011"><a xlink:href="class_bit_vector.html#a5339660cfb315ab5de7f78bdf5af4ce1" target="_top" xlink:title="Get BitVector::_element_number.">
<polygon fill="white" stroke="#666666" points="1285,-19 1123,-19 1123,0 1285,0 1285,-19"/>
<text text-anchor="middle" x="1204" y="-7" font-family="Helvetica,sans-Serif" font-size="10.00">BitVector::getElementNumber</text>
</a>
</g>
</g>
<!-- Node10&#45;&gt;Node11 -->
<g id="edge13_Node000010_Node000011" class="edge">
<title>Node10&#45;&gt;Node11</title>
<g id="a_edge13_Node000010_Node000011"><a xlink:title=" ">
<path fill="none" stroke="#63b8ff" d="M1087.34,-9.5C1095.23,-9.5 1103.74,-9.5 1112.44,-9.5"/>
<polygon fill="#63b8ff" stroke="#63b8ff" points="1112.71,-13 1122.71,-9.5 1112.71,-6 1112.71,-13"/>
</a>
</g>
</g>
</g>
</svg>
