<?xml version="1.0" encoding="UTF-8" standalone="no"?>
<!DOCTYPE svg PUBLIC "-//W3C//DTD SVG 1.1//EN"
 "http://www.w3.org/Graphics/SVG/1.1/DTD/svg11.dtd">
<!-- Generated by graphviz version 2.43.0 (0)
 -->
<!-- Title: Sequence::isNucleicSpecific Pages: 1 -->
<svg width="1401pt" height="213pt"
 viewBox="0.00 0.00 1401.00 213.00" xmlns="http://www.w3.org/2000/svg" xmlns:xlink="http://www.w3.org/1999/xlink">
<g id="graph0" class="graph" transform="scale(1 1) rotate(0) translate(4 209)">
<title>Sequence::isNucleicSpecific</title>
<!-- Node1 -->
<g id="Node000001" class="node">
<title>Node1</title>
<g id="a_Node000001"><a xlink:title="Say if a symbol can only be found in acid nucleic related to nucleic acid.">
<polygon fill="#999999" stroke="#666666" points="152,-151 0,-151 0,-132 152,-132 152,-151"/>
<text text-anchor="middle" x="76" y="-139" font-family="Helvetica,sans-Serif" font-size="10.00">Sequence::isNucleicSpecific</text>
</a>
</g>
</g>
<!-- Node2 -->
<g id="Node000002" class="node">
<title>Node2</title>
<g id="a_Node000002"><a xlink:href="class_sequence.html#ad40777fd2f7ad3ae247fab02459e6759" target="_top" xlink:title="Retrieve the symbol at the position in the sequence.">
<polygon fill="white" stroke="#666666" points="596,-113 510,-113 510,-94 596,-94 596,-113"/>
<text text-anchor="middle" x="553" y="-101" font-family="Helvetica,sans-Serif" font-size="10.00">Sequence::get</text>
</a>
</g>
</g>
<!-- Node1&#45;&gt;Node2 -->
<g id="edge1_Node000001_Node000002" class="edge">
<title>Node1&#45;&gt;Node2</title>
<g id="a_edge1_Node000001_Node000002"><a xlink:title=" ">
<path fill="none" stroke="#63b8ff" d="M111.01,-151.06C181.02,-169.04 345.43,-202.47 474,-160.5 498.22,-152.6 521.15,-134.01 535.8,-120.2"/>
<polygon fill="#63b8ff" stroke="#63b8ff" points="538.34,-122.61 543.05,-113.11 533.45,-117.6 538.34,-122.61"/>
</a>
</g>
</g>
<!-- Node11 -->
<g id="Node000011" class="node">
<title>Node11</title>
<g id="a_Node000011"><a xlink:href="class_sequence.html#a31e8f630c8d214e79ac9ef7d128e3c24" target="_top" xlink:title="Say if a symbol can be an amino acid.">
<polygon fill="white" stroke="#666666" points="300,-151 190,-151 190,-132 300,-132 300,-151"/>
<text text-anchor="middle" x="245" y="-139" font-family="Helvetica,sans-Serif" font-size="10.00">Sequence::isAmino</text>
</a>
</g>
</g>
<!-- Node1&#45;&gt;Node11 -->
<g id="edge14_Node000001_Node000011" class="edge">
<title>Node1&#45;&gt;Node11</title>
<g id="a_edge14_Node000001_Node000011"><a xlink:title=" ">
<path fill="none" stroke="#63b8ff" d="M152.19,-141.5C161.38,-141.5 170.7,-141.5 179.7,-141.5"/>
<polygon fill="#63b8ff" stroke="#63b8ff" points="179.71,-145 189.71,-141.5 179.71,-138 179.71,-145"/>
</a>
</g>
</g>
<!-- Node13 -->
<g id="Node000013" class="node">
<title>Node13</title>
<g id="a_Node000013"><a xlink:href="class_sequence.html#ab351491ae27a3b4daa4d6af021ae0af2" target="_top" xlink:title="Say if a symbol can be an acid nucleic.">
<polygon fill="white" stroke="#666666" points="302,-75 188,-75 188,-56 302,-56 302,-75"/>
<text text-anchor="middle" x="245" y="-63" font-family="Helvetica,sans-Serif" font-size="10.00">Sequence::isNucleic</text>
</a>
</g>
</g>
<!-- Node1&#45;&gt;Node13 -->
<g id="edge18_Node000001_Node000013" class="edge">
<title>Node1&#45;&gt;Node13</title>
<g id="a_edge18_Node000001_Node000013"><a xlink:title=" ">
<path fill="none" stroke="#63b8ff" d="M98.15,-131.87C127.39,-118.57 180.32,-94.48 213.74,-79.27"/>
<polygon fill="#63b8ff" stroke="#63b8ff" points="215.37,-82.38 223.02,-75.05 212.47,-76 215.37,-82.38"/>
</a>
</g>
</g>
<!-- Node2&#45;&gt;Node2 -->
<g id="edge5_Node000002_Node000002" class="edge">
<title>Node2&#45;&gt;Node2</title>
<g id="a_edge5_Node000002_Node000002"><a xlink:title=" ">
<path fill="none" stroke="#63b8ff" d="M530.5,-113.08C519.55,-121.73 527.05,-131 553,-131 569.62,-131 578.68,-127.2 580.16,-122.19"/>
<polygon fill="#63b8ff" stroke="#63b8ff" points="583.17,-120.39 575.5,-113.08 576.94,-123.58 583.17,-120.39"/>
</a>
</g>
</g>
<!-- Node3 -->
<g id="Node000003" class="node">
<title>Node3</title>
<g id="a_Node000003"><a xlink:href="class_bit_vector.html#aebe159444eb9d619959b7325ac5dac2d" target="_top" xlink:title="Return the value of the bit at the position coord.">
<polygon fill="white" stroke="#666666" points="749.5,-187 666.5,-187 666.5,-168 749.5,-168 749.5,-187"/>
<text text-anchor="middle" x="708" y="-175" font-family="Helvetica,sans-Serif" font-size="10.00">BitVector::get</text>
</a>
</g>
</g>
<!-- Node2&#45;&gt;Node3 -->
<g id="edge2_Node000002_Node000003" class="edge">
<title>Node2&#45;&gt;Node3</title>
<g id="a_edge2_Node000002_Node000003"><a xlink:title=" ">
<path fill="none" stroke="#63b8ff" d="M564.76,-113.34C579.07,-125.9 605.62,-147.43 632,-159.5 639.7,-163.02 648.18,-165.91 656.57,-168.25"/>
<polygon fill="#63b8ff" stroke="#63b8ff" points="655.78,-171.66 666.34,-170.75 657.52,-164.88 655.78,-171.66"/>
</a>
</g>
</g>
<!-- Node5 -->
<g id="Node000005" class="node">
<title>Node5</title>
<g id="a_Node000005"><a xlink:href="class_sequence.html#a8181f024304b3fb5f55c7118f648cc61" target="_top" xlink:title="Return a char (same format as Sequence::getType()) that indicate which alphabet is used in the during...">
<polygon fill="white" stroke="#666666" points="784,-150 632,-150 632,-131 784,-131 784,-150"/>
<text text-anchor="middle" x="708" y="-138" font-family="Helvetica,sans-Serif" font-size="10.00">Sequence::getEncodingType</text>
</a>
</g>
</g>
<!-- Node2&#45;&gt;Node5 -->
<g id="edge6_Node000002_Node000005" class="edge">
<title>Node2&#45;&gt;Node5</title>
<g id="a_edge6_Node000002_Node000005"><a xlink:title=" ">
<path fill="none" stroke="#63b8ff" d="M593.27,-113.09C605.66,-116.11 619.4,-119.45 632,-122.5 640.23,-124.49 648.97,-126.6 657.47,-128.64"/>
<polygon fill="#63b8ff" stroke="#63b8ff" points="656.75,-132.06 667.29,-131 658.39,-125.26 656.75,-132.06"/>
</a>
</g>
</g>
<!-- Node6 -->
<g id="Node000006" class="node">
<title>Node6</title>
<g id="a_Node000006"><a xlink:href="class_sequence.html#a49a9126010c0332493c803ddca005394" target="_top" xlink:title="Give a map that compress / decompress char used by Sequence.">
<polygon fill="white" stroke="#666666" points="777.5,-113 638.5,-113 638.5,-94 777.5,-94 777.5,-113"/>
<text text-anchor="middle" x="708" y="-101" font-family="Helvetica,sans-Serif" font-size="10.00">Sequence::translationTab</text>
</a>
</g>
</g>
<!-- Node2&#45;&gt;Node6 -->
<g id="edge7_Node000002_Node000006" class="edge">
<title>Node2&#45;&gt;Node6</title>
<g id="a_edge7_Node000002_Node000006"><a xlink:title=" ">
<path fill="none" stroke="#63b8ff" d="M596.21,-97.39C606.24,-96.99 617.25,-96.78 628.32,-96.75"/>
<polygon fill="#63b8ff" stroke="#63b8ff" points="628.47,-100.25 638.48,-96.78 628.49,-93.25 628.47,-100.25"/>
</a>
</g>
</g>
<!-- Node3&#45;&gt;Node3 -->
<g id="edge3_Node000003_Node000003" class="edge">
<title>Node3&#45;&gt;Node3</title>
<g id="a_edge3_Node000003_Node000003"><a xlink:title=" ">
<path fill="none" stroke="#63b8ff" d="M684.26,-187.08C672.72,-195.73 680.63,-205 708,-205 725.96,-205 735.54,-201.01 736.75,-195.82"/>
<polygon fill="#63b8ff" stroke="#63b8ff" points="739.75,-194.02 731.74,-187.08 733.67,-197.5 739.75,-194.02"/>
</a>
</g>
</g>
<!-- Node4 -->
<g id="Node000004" class="node">
<title>Node4</title>
<g id="a_Node000004"><a xlink:href="class_bit_vector_1_1_coords.html#a2892f7f46c4af93f9733e312229d8ec1" target="_top" xlink:title="Get Coords::octet .">
<polygon fill="white" stroke="#666666" points="937.5,-192.5 830.5,-192.5 830.5,-162.5 937.5,-162.5 937.5,-192.5"/>
<text text-anchor="start" x="838.5" y="-180.5" font-family="Helvetica,sans-Serif" font-size="10.00">BitVector::Coords::</text>
<text text-anchor="middle" x="884" y="-169.5" font-family="Helvetica,sans-Serif" font-size="10.00">getOctet</text>
</a>
</g>
</g>
<!-- Node3&#45;&gt;Node4 -->
<g id="edge4_Node000003_Node000004" class="edge">
<title>Node3&#45;&gt;Node4</title>
<g id="a_edge4_Node000003_Node000004"><a xlink:title=" ">
<path fill="none" stroke="#63b8ff" d="M749.8,-177.5C770.71,-177.5 796.64,-177.5 820.05,-177.5"/>
<polygon fill="#63b8ff" stroke="#63b8ff" points="820.25,-181 830.25,-177.5 820.25,-174 820.25,-181"/>
</a>
</g>
</g>
<!-- Node6&#45;&gt;Node2 -->
<g id="edge13_Node000006_Node000002" class="edge">
<title>Node6&#45;&gt;Node2</title>
<g id="a_edge13_Node000006_Node000002"><a xlink:title=" ">
<path fill="none" stroke="#63b8ff" d="M638.48,-110.22C627.68,-110.31 616.67,-110.21 606.32,-109.94"/>
<polygon fill="#63b8ff" stroke="#63b8ff" points="606.32,-106.44 596.21,-109.61 606.09,-113.44 606.32,-106.44"/>
</a>
</g>
</g>
<!-- Node7 -->
<g id="Node000007" class="node">
<title>Node7</title>
<g id="a_Node000007"><a xlink:href="class_sequence.html#a555c6e58957c4d07028eb5c67b1732ac" target="_top" xlink:title="Function used by Sequence::translationTab to create their compression map.">
<polygon fill="white" stroke="#666666" points="948,-94 820,-94 820,-75 948,-75 948,-94"/>
<text text-anchor="middle" x="884" y="-82" font-family="Helvetica,sans-Serif" font-size="10.00">Sequence::fillCodeMap</text>
</a>
</g>
</g>
<!-- Node6&#45;&gt;Node7 -->
<g id="edge8_Node000006_Node000007" class="edge">
<title>Node6&#45;&gt;Node7</title>
<g id="a_edge8_Node000006_Node000007"><a xlink:title=" ">
<path fill="none" stroke="#63b8ff" d="M777.77,-95.99C788.28,-94.84 799.16,-93.65 809.76,-92.5"/>
<polygon fill="#63b8ff" stroke="#63b8ff" points="810.26,-95.96 819.82,-91.4 809.5,-89.01 810.26,-95.96"/>
</a>
</g>
</g>
<!-- Node7&#45;&gt;Node2 -->
<g id="edge9_Node000007_Node000002" class="edge">
<title>Node7&#45;&gt;Node2</title>
<g id="a_edge9_Node000007_Node000002"><a xlink:title=" ">
<path fill="none" stroke="#63b8ff" d="M819.85,-80.88C768.95,-78.89 695.63,-78.12 632,-85.5 620.8,-86.8 608.86,-89.08 597.77,-91.6"/>
<polygon fill="#63b8ff" stroke="#63b8ff" points="596.8,-88.23 587.88,-93.95 598.42,-95.04 596.8,-88.23"/>
</a>
</g>
</g>
<!-- Node8 -->
<g id="Node000008" class="node">
<title>Node8</title>
<g id="a_Node000008"><a xlink:href="class_sequence.html#acf21040958590f98163b3d11f19ea93e" target="_top" xlink:title="Give the number of element contained in this sequence.">
<polygon fill="white" stroke="#666666" points="1073,-94 984,-94 984,-75 1073,-75 1073,-94"/>
<text text-anchor="middle" x="1028.5" y="-82" font-family="Helvetica,sans-Serif" font-size="10.00">Sequence::size</text>
</a>
</g>
</g>
<!-- Node7&#45;&gt;Node8 -->
<g id="edge10_Node000007_Node000008" class="edge">
<title>Node7&#45;&gt;Node8</title>
<g id="a_edge10_Node000007_Node000008"><a xlink:title=" ">
<path fill="none" stroke="#63b8ff" d="M948.33,-84.5C956.8,-84.5 965.42,-84.5 973.7,-84.5"/>
<polygon fill="#63b8ff" stroke="#63b8ff" points="973.98,-88 983.98,-84.5 973.98,-81 973.98,-88"/>
</a>
</g>
</g>
<!-- Node9 -->
<g id="Node000009" class="node">
<title>Node9</title>
<g id="a_Node000009"><a xlink:href="class_bit_vector.html#ab30ea2b408107e4e6bc8095b5a64a1dd" target="_top" xlink:title="Number of element inside this object.">
<polygon fill="white" stroke="#666666" points="1195,-94 1109,-94 1109,-75 1195,-75 1195,-94"/>
<text text-anchor="middle" x="1152" y="-82" font-family="Helvetica,sans-Serif" font-size="10.00">BitVector::size</text>
</a>
</g>
</g>
<!-- Node8&#45;&gt;Node9 -->
<g id="edge11_Node000008_Node000009" class="edge">
<title>Node8&#45;&gt;Node9</title>
<g id="a_edge11_Node000008_Node000009"><a xlink:title=" ">
<path fill="none" stroke="#63b8ff" d="M1073.02,-84.5C1081.25,-84.5 1089.94,-84.5 1098.41,-84.5"/>
<polygon fill="#63b8ff" stroke="#63b8ff" points="1098.6,-88 1108.6,-84.5 1098.6,-81 1098.6,-88"/>
</a>
</g>
</g>
<!-- Node10 -->
<g id="Node000010" class="node">
<title>Node10</title>
<g id="a_Node000010"><a xlink:href="class_bit_vector.html#a5339660cfb315ab5de7f78bdf5af4ce1" target="_top" xlink:title="Get BitVector::_element_number.">
<polygon fill="white" stroke="#666666" points="1393,-94 1231,-94 1231,-75 1393,-75 1393,-94"/>
<text text-anchor="middle" x="1312" y="-82" font-family="Helvetica,sans-Serif" font-size="10.00">BitVector::getElementNumber</text>
</a>
</g>
</g>
<!-- Node9&#45;&gt;Node10 -->
<g id="edge12_Node000009_Node000010" class="edge">
<title>Node9&#45;&gt;Node10</title>
<g id="a_edge12_Node000009_Node000010"><a xlink:title=" ">
<path fill="none" stroke="#63b8ff" d="M1195.34,-84.5C1203.23,-84.5 1211.74,-84.5 1220.44,-84.5"/>
<polygon fill="#63b8ff" stroke="#63b8ff" points="1220.71,-88 1230.71,-84.5 1220.71,-81 1220.71,-88"/>
</a>
</g>
</g>
<!-- Node11&#45;&gt;Node2 -->
<g id="edge15_Node000011_Node000002" class="edge">
<title>Node11&#45;&gt;Node2</title>
<g id="a_edge15_Node000011_Node000002"><a xlink:title=" ">
<path fill="none" stroke="#63b8ff" d="M300.21,-148.28C346.9,-152.52 415.76,-154.93 474,-141.5 493.57,-136.99 513.91,-126.87 528.91,-118.21"/>
<polygon fill="#63b8ff" stroke="#63b8ff" points="530.73,-121.2 537.51,-113.06 527.13,-115.19 530.73,-121.2"/>
</a>
</g>
</g>
<!-- Node12 -->
<g id="Node000012" class="node">
<title>Node12</title>
<g id="a_Node000012"><a xlink:href="class_sequence.html#a1c338fe40d1251531461f2a737f235cd" target="_top" xlink:title="Say if a symbol can be an amino acid.">
<polygon fill="white" stroke="#666666" points="474,-132 338,-132 338,-113 474,-113 474,-132"/>
<text text-anchor="middle" x="406" y="-120" font-family="Helvetica,sans-Serif" font-size="10.00">Sequence::isLegalAmino</text>
</a>
</g>
</g>
<!-- Node11&#45;&gt;Node12 -->
<g id="edge16_Node000011_Node000012" class="edge">
<title>Node11&#45;&gt;Node12</title>
<g id="a_edge16_Node000011_Node000012"><a xlink:title=" ">
<path fill="none" stroke="#63b8ff" d="M300.27,-135.01C309.13,-133.96 318.45,-132.84 327.72,-131.73"/>
<polygon fill="#63b8ff" stroke="#63b8ff" points="328.24,-135.2 337.75,-130.54 327.41,-128.25 328.24,-135.2"/>
</a>
</g>
</g>
<!-- Node12&#45;&gt;Node2 -->
<g id="edge17_Node000012_Node000002" class="edge">
<title>Node12&#45;&gt;Node2</title>
<g id="a_edge17_Node000012_Node000002"><a xlink:title=" ">
<path fill="none" stroke="#63b8ff" d="M474.41,-113.67C483.03,-112.54 491.75,-111.4 500.07,-110.3"/>
<polygon fill="#63b8ff" stroke="#63b8ff" points="500.54,-113.77 510,-109 499.63,-106.83 500.54,-113.77"/>
</a>
</g>
</g>
<!-- Node13&#45;&gt;Node2 -->
<g id="edge19_Node000013_Node000002" class="edge">
<title>Node13&#45;&gt;Node2</title>
<g id="a_edge19_Node000013_Node000002"><a xlink:title=" ">
<path fill="none" stroke="#63b8ff" d="M302.13,-72.47C358.53,-79.47 444.78,-90.19 499.77,-97.01"/>
<polygon fill="#63b8ff" stroke="#63b8ff" points="499.64,-100.52 509.99,-98.28 500.5,-93.58 499.64,-100.52"/>
</a>
</g>
</g>
<!-- Node14 -->
<g id="Node000014" class="node">
<title>Node14</title>
<g id="a_Node000014"><a xlink:href="class_sequence.html#a14cf335c6053ca586d4e1694898575cf" target="_top" xlink:title="Say if a symbol can be an acid nucleic related to DNA.">
<polygon fill="white" stroke="#666666" points="456,-56 356,-56 356,-37 456,-37 456,-56"/>
<text text-anchor="middle" x="406" y="-44" font-family="Helvetica,sans-Serif" font-size="10.00">Sequence::isDNA</text>
</a>
</g>
</g>
<!-- Node13&#45;&gt;Node14 -->
<g id="edge20_Node000013_Node000014" class="edge">
<title>Node13&#45;&gt;Node14</title>
<g id="a_edge20_Node000013_Node000014"><a xlink:title=" ">
<path fill="none" stroke="#63b8ff" d="M302.06,-58.8C316.16,-57.12 331.34,-55.3 345.6,-53.6"/>
<polygon fill="#63b8ff" stroke="#63b8ff" points="346.28,-57.04 355.79,-52.38 345.45,-50.09 346.28,-57.04"/>
</a>
</g>
</g>
<!-- Node15 -->
<g id="Node000015" class="node">
<title>Node15</title>
<g id="a_Node000015"><a xlink:href="class_sequence.html#ad04d994668bcc5d29c6813fcbc28dfb6" target="_top" xlink:title="Say if a symbol can be an acid nucleic related to RNA.">
<polygon fill="white" stroke="#666666" points="455.5,-19 356.5,-19 356.5,0 455.5,0 455.5,-19"/>
<text text-anchor="middle" x="406" y="-7" font-family="Helvetica,sans-Serif" font-size="10.00">Sequence::isRNA</text>
</a>
</g>
</g>
<!-- Node13&#45;&gt;Node15 -->
<g id="edge22_Node000013_Node000015" class="edge">
<title>Node13&#45;&gt;Node15</title>
<g id="a_edge22_Node000013_Node000015"><a xlink:title=" ">
<path fill="none" stroke="#63b8ff" d="M266.9,-55.96C285.36,-47.75 313.13,-35.94 338,-27.5 343.91,-25.49 350.18,-23.56 356.41,-21.76"/>
<polygon fill="#63b8ff" stroke="#63b8ff" points="357.44,-25.1 366.13,-19.03 355.55,-18.36 357.44,-25.1"/>
</a>
</g>
</g>
<!-- Node14&#45;&gt;Node2 -->
<g id="edge21_Node000014_Node000002" class="edge">
<title>Node14&#45;&gt;Node2</title>
<g id="a_edge21_Node000014_Node000002"><a xlink:title=" ">
<path fill="none" stroke="#63b8ff" d="M434.84,-56.08C446.93,-60.34 461.22,-65.51 474,-70.5 489.58,-76.58 506.72,-83.77 520.95,-89.89"/>
<polygon fill="#63b8ff" stroke="#63b8ff" points="519.71,-93.17 530.28,-93.92 522.49,-86.74 519.71,-93.17"/>
</a>
</g>
</g>
<!-- Node15&#45;&gt;Node2 -->
<g id="edge23_Node000015_Node000002" class="edge">
<title>Node15&#45;&gt;Node2</title>
<g id="a_edge23_Node000015_Node000002"><a xlink:title=" ">
<path fill="none" stroke="#63b8ff" d="M454.7,-19.06C461.4,-21.33 468.03,-24.1 474,-27.5 500.31,-42.47 524.21,-68.44 538.44,-85.8"/>
<polygon fill="#63b8ff" stroke="#63b8ff" points="535.99,-88.34 544.95,-93.98 541.46,-83.98 535.99,-88.34"/>
</a>
</g>
</g>
</g>
</svg>
