<?xml version="1.0" encoding="UTF-8" standalone="no"?>
<!DOCTYPE svg PUBLIC "-//W3C//DTD SVG 1.1//EN"
 "http://www.w3.org/Graphics/SVG/1.1/DTD/svg11.dtd">
<!-- Generated by graphviz version 2.43.0 (0)
 -->
<!-- Title: Sequence::operator bool Pages: 1 -->
<svg width="1062pt" height="138pt"
 viewBox="0.00 0.00 1062.00 138.00" xmlns="http://www.w3.org/2000/svg" xmlns:xlink="http://www.w3.org/1999/xlink">
<g id="graph0" class="graph" transform="scale(1 1) rotate(0) translate(4 134)">
<title>Sequence::operator bool</title>
<!-- Node1 -->
<g id="Node000001" class="node">
<title>Node1</title>
<g id="a_Node000001"><a xlink:title="Do this sequence contain at least one symbol ?">
<polygon fill="#999999" stroke="#666666" points="135,-38 0,-38 0,-19 135,-19 135,-38"/>
<text text-anchor="middle" x="67.5" y="-26" font-family="Helvetica,sans-Serif" font-size="10.00">Sequence::operator bool</text>
</a>
</g>
</g>
<!-- Node2 -->
<g id="Node000002" class="node">
<title>Node2</title>
<g id="a_Node000002"><a xlink:href="class_sequence.html#ad40777fd2f7ad3ae247fab02459e6759" target="_top" xlink:title="Retrieve the symbol at the position in the sequence.">
<polygon fill="white" stroke="#666666" points="257,-38 171,-38 171,-19 257,-19 257,-38"/>
<text text-anchor="middle" x="214" y="-26" font-family="Helvetica,sans-Serif" font-size="10.00">Sequence::get</text>
</a>
</g>
</g>
<!-- Node1&#45;&gt;Node2 -->
<g id="edge1_Node000001_Node000002" class="edge">
<title>Node1&#45;&gt;Node2</title>
<g id="a_edge1_Node000001_Node000002"><a xlink:title=" ">
<path fill="none" stroke="#63b8ff" d="M135.25,-28.5C143.78,-28.5 152.41,-28.5 160.66,-28.5"/>
<polygon fill="#63b8ff" stroke="#63b8ff" points="160.88,-32 170.88,-28.5 160.88,-25 160.88,-32"/>
</a>
</g>
</g>
<!-- Node2&#45;&gt;Node2 -->
<g id="edge5_Node000002_Node000002" class="edge">
<title>Node2&#45;&gt;Node2</title>
<g id="a_edge5_Node000002_Node000002"><a xlink:title=" ">
<path fill="none" stroke="#63b8ff" d="M191.5,-38.08C180.55,-46.73 188.05,-56 214,-56 230.62,-56 239.68,-52.2 241.16,-47.19"/>
<polygon fill="#63b8ff" stroke="#63b8ff" points="244.17,-45.39 236.5,-38.08 237.94,-48.58 244.17,-45.39"/>
</a>
</g>
</g>
<!-- Node3 -->
<g id="Node000003" class="node">
<title>Node3</title>
<g id="a_Node000003"><a xlink:href="class_bit_vector.html#aebe159444eb9d619959b7325ac5dac2d" target="_top" xlink:title="Return the value of the bit at the position coord.">
<polygon fill="white" stroke="#666666" points="410.5,-112 327.5,-112 327.5,-93 410.5,-93 410.5,-112"/>
<text text-anchor="middle" x="369" y="-100" font-family="Helvetica,sans-Serif" font-size="10.00">BitVector::get</text>
</a>
</g>
</g>
<!-- Node2&#45;&gt;Node3 -->
<g id="edge2_Node000002_Node000003" class="edge">
<title>Node2&#45;&gt;Node3</title>
<g id="a_edge2_Node000002_Node000003"><a xlink:title=" ">
<path fill="none" stroke="#63b8ff" d="M225.76,-38.34C240.07,-50.9 266.62,-72.43 293,-84.5 300.7,-88.02 309.18,-90.91 317.57,-93.25"/>
<polygon fill="#63b8ff" stroke="#63b8ff" points="316.78,-96.66 327.34,-95.75 318.52,-89.88 316.78,-96.66"/>
</a>
</g>
</g>
<!-- Node5 -->
<g id="Node000005" class="node">
<title>Node5</title>
<g id="a_Node000005"><a xlink:href="class_sequence.html#a8181f024304b3fb5f55c7118f648cc61" target="_top" xlink:title="Return a char (same format as Sequence::getType()) that indicate which alphabet is used in the during...">
<polygon fill="white" stroke="#666666" points="445,-75 293,-75 293,-56 445,-56 445,-75"/>
<text text-anchor="middle" x="369" y="-63" font-family="Helvetica,sans-Serif" font-size="10.00">Sequence::getEncodingType</text>
</a>
</g>
</g>
<!-- Node2&#45;&gt;Node5 -->
<g id="edge6_Node000002_Node000005" class="edge">
<title>Node2&#45;&gt;Node5</title>
<g id="a_edge6_Node000002_Node000005"><a xlink:title=" ">
<path fill="none" stroke="#63b8ff" d="M254.27,-38.09C266.66,-41.11 280.4,-44.45 293,-47.5 301.23,-49.49 309.97,-51.6 318.47,-53.64"/>
<polygon fill="#63b8ff" stroke="#63b8ff" points="317.75,-57.06 328.29,-56 319.39,-50.26 317.75,-57.06"/>
</a>
</g>
</g>
<!-- Node6 -->
<g id="Node000006" class="node">
<title>Node6</title>
<g id="a_Node000006"><a xlink:href="class_sequence.html#a49a9126010c0332493c803ddca005394" target="_top" xlink:title="Give a map that compress / decompress char used by Sequence.">
<polygon fill="white" stroke="#666666" points="438.5,-38 299.5,-38 299.5,-19 438.5,-19 438.5,-38"/>
<text text-anchor="middle" x="369" y="-26" font-family="Helvetica,sans-Serif" font-size="10.00">Sequence::translationTab</text>
</a>
</g>
</g>
<!-- Node2&#45;&gt;Node6 -->
<g id="edge7_Node000002_Node000006" class="edge">
<title>Node2&#45;&gt;Node6</title>
<g id="a_edge7_Node000002_Node000006"><a xlink:title=" ">
<path fill="none" stroke="#63b8ff" d="M257.21,-22.39C267.24,-21.99 278.25,-21.78 289.32,-21.75"/>
<polygon fill="#63b8ff" stroke="#63b8ff" points="289.47,-25.25 299.48,-21.78 289.49,-18.25 289.47,-25.25"/>
</a>
</g>
</g>
<!-- Node3&#45;&gt;Node3 -->
<g id="edge3_Node000003_Node000003" class="edge">
<title>Node3&#45;&gt;Node3</title>
<g id="a_edge3_Node000003_Node000003"><a xlink:title=" ">
<path fill="none" stroke="#63b8ff" d="M345.26,-112.08C333.72,-120.73 341.63,-130 369,-130 386.96,-130 396.54,-126.01 397.75,-120.82"/>
<polygon fill="#63b8ff" stroke="#63b8ff" points="400.75,-119.02 392.74,-112.08 394.67,-122.5 400.75,-119.02"/>
</a>
</g>
</g>
<!-- Node4 -->
<g id="Node000004" class="node">
<title>Node4</title>
<g id="a_Node000004"><a xlink:href="class_bit_vector_1_1_coords.html#a2892f7f46c4af93f9733e312229d8ec1" target="_top" xlink:title="Get Coords::octet .">
<polygon fill="white" stroke="#666666" points="598.5,-117.5 491.5,-117.5 491.5,-87.5 598.5,-87.5 598.5,-117.5"/>
<text text-anchor="start" x="499.5" y="-105.5" font-family="Helvetica,sans-Serif" font-size="10.00">BitVector::Coords::</text>
<text text-anchor="middle" x="545" y="-94.5" font-family="Helvetica,sans-Serif" font-size="10.00">getOctet</text>
</a>
</g>
</g>
<!-- Node3&#45;&gt;Node4 -->
<g id="edge4_Node000003_Node000004" class="edge">
<title>Node3&#45;&gt;Node4</title>
<g id="a_edge4_Node000003_Node000004"><a xlink:title=" ">
<path fill="none" stroke="#63b8ff" d="M410.8,-102.5C431.71,-102.5 457.64,-102.5 481.05,-102.5"/>
<polygon fill="#63b8ff" stroke="#63b8ff" points="481.25,-106 491.25,-102.5 481.25,-99 481.25,-106"/>
</a>
</g>
</g>
<!-- Node6&#45;&gt;Node2 -->
<g id="edge13_Node000006_Node000002" class="edge">
<title>Node6&#45;&gt;Node2</title>
<g id="a_edge13_Node000006_Node000002"><a xlink:title=" ">
<path fill="none" stroke="#63b8ff" d="M299.48,-35.22C288.68,-35.31 277.67,-35.21 267.32,-34.94"/>
<polygon fill="#63b8ff" stroke="#63b8ff" points="267.32,-31.44 257.21,-34.61 267.09,-38.44 267.32,-31.44"/>
</a>
</g>
</g>
<!-- Node7 -->
<g id="Node000007" class="node">
<title>Node7</title>
<g id="a_Node000007"><a xlink:href="class_sequence.html#a555c6e58957c4d07028eb5c67b1732ac" target="_top" xlink:title="Function used by Sequence::translationTab to create their compression map.">
<polygon fill="white" stroke="#666666" points="609,-19 481,-19 481,0 609,0 609,-19"/>
<text text-anchor="middle" x="545" y="-7" font-family="Helvetica,sans-Serif" font-size="10.00">Sequence::fillCodeMap</text>
</a>
</g>
</g>
<!-- Node6&#45;&gt;Node7 -->
<g id="edge8_Node000006_Node000007" class="edge">
<title>Node6&#45;&gt;Node7</title>
<g id="a_edge8_Node000006_Node000007"><a xlink:title=" ">
<path fill="none" stroke="#63b8ff" d="M438.77,-20.99C449.28,-19.84 460.16,-18.65 470.76,-17.5"/>
<polygon fill="#63b8ff" stroke="#63b8ff" points="471.26,-20.96 480.82,-16.4 470.5,-14.01 471.26,-20.96"/>
</a>
</g>
</g>
<!-- Node7&#45;&gt;Node2 -->
<g id="edge9_Node000007_Node000002" class="edge">
<title>Node7&#45;&gt;Node2</title>
<g id="a_edge9_Node000007_Node000002"><a xlink:title=" ">
<path fill="none" stroke="#63b8ff" d="M480.83,-5.35C429.92,-3 356.6,-1.87 293,-9.5 281.01,-10.94 268.21,-13.58 256.51,-16.44"/>
<polygon fill="#63b8ff" stroke="#63b8ff" points="255.38,-13.12 246.56,-18.99 257.12,-19.9 255.38,-13.12"/>
</a>
</g>
</g>
<!-- Node8 -->
<g id="Node000008" class="node">
<title>Node8</title>
<g id="a_Node000008"><a xlink:href="class_sequence.html#acf21040958590f98163b3d11f19ea93e" target="_top" xlink:title="Give the number of element contained in this sequence.">
<polygon fill="white" stroke="#666666" points="734,-19 645,-19 645,0 734,0 734,-19"/>
<text text-anchor="middle" x="689.5" y="-7" font-family="Helvetica,sans-Serif" font-size="10.00">Sequence::size</text>
</a>
</g>
</g>
<!-- Node7&#45;&gt;Node8 -->
<g id="edge10_Node000007_Node000008" class="edge">
<title>Node7&#45;&gt;Node8</title>
<g id="a_edge10_Node000007_Node000008"><a xlink:title=" ">
<path fill="none" stroke="#63b8ff" d="M609.33,-9.5C617.8,-9.5 626.42,-9.5 634.7,-9.5"/>
<polygon fill="#63b8ff" stroke="#63b8ff" points="634.98,-13 644.98,-9.5 634.98,-6 634.98,-13"/>
</a>
</g>
</g>
<!-- Node9 -->
<g id="Node000009" class="node">
<title>Node9</title>
<g id="a_Node000009"><a xlink:href="class_bit_vector.html#ab30ea2b408107e4e6bc8095b5a64a1dd" target="_top" xlink:title="Number of element inside this object.">
<polygon fill="white" stroke="#666666" points="856,-19 770,-19 770,0 856,0 856,-19"/>
<text text-anchor="middle" x="813" y="-7" font-family="Helvetica,sans-Serif" font-size="10.00">BitVector::size</text>
</a>
</g>
</g>
<!-- Node8&#45;&gt;Node9 -->
<g id="edge11_Node000008_Node000009" class="edge">
<title>Node8&#45;&gt;Node9</title>
<g id="a_edge11_Node000008_Node000009"><a xlink:title=" ">
<path fill="none" stroke="#63b8ff" d="M734.02,-9.5C742.25,-9.5 750.94,-9.5 759.41,-9.5"/>
<polygon fill="#63b8ff" stroke="#63b8ff" points="759.6,-13 769.6,-9.5 759.6,-6 759.6,-13"/>
</a>
</g>
</g>
<!-- Node10 -->
<g id="Node000010" class="node">
<title>Node10</title>
<g id="a_Node000010"><a xlink:href="class_bit_vector.html#a5339660cfb315ab5de7f78bdf5af4ce1" target="_top" xlink:title="Get BitVector::_element_number.">
<polygon fill="white" stroke="#666666" points="1054,-19 892,-19 892,0 1054,0 1054,-19"/>
<text text-anchor="middle" x="973" y="-7" font-family="Helvetica,sans-Serif" font-size="10.00">BitVector::getElementNumber</text>
</a>
</g>
</g>
<!-- Node9&#45;&gt;Node10 -->
<g id="edge12_Node000009_Node000010" class="edge">
<title>Node9&#45;&gt;Node10</title>
<g id="a_edge12_Node000009_Node000010"><a xlink:title=" ">
<path fill="none" stroke="#63b8ff" d="M856.34,-9.5C864.23,-9.5 872.74,-9.5 881.44,-9.5"/>
<polygon fill="#63b8ff" stroke="#63b8ff" points="881.71,-13 891.71,-9.5 881.71,-6 881.71,-13"/>
</a>
</g>
</g>
</g>
</svg>
