<?xml version="1.0" encoding="UTF-8" standalone="no"?>
<!DOCTYPE svg PUBLIC "-//W3C//DTD SVG 1.1//EN"
 "http://www.w3.org/Graphics/SVG/1.1/DTD/svg11.dtd">
<!-- Generated by graphviz version 2.43.0 (0)
 -->
<!-- Title: BitVector::maxElementLimit Pages: 1 -->
<svg width="836pt" height="158pt"
 viewBox="0.00 0.00 836.00 158.00" xmlns="http://www.w3.org/2000/svg" xmlns:xlink="http://www.w3.org/1999/xlink">
<g id="graph0" class="graph" transform="scale(1 1) rotate(0) translate(4 154)">
<title>BitVector::maxElementLimit</title>
<!-- Node1 -->
<g id="Node000001" class="node">
<title>Node1</title>
<g id="a_Node000001"><a xlink:title="How many element can be contained in this object knowing BitVector::_element_size.">
<polygon fill="#999999" stroke="#666666" points="154,-59 0,-59 0,-40 154,-40 154,-59"/>
<text text-anchor="middle" x="77" y="-47" font-family="Helvetica,sans-Serif" font-size="10.00">BitVector::maxElementLimit</text>
</a>
</g>
</g>
<!-- Node2 -->
<g id="Node000002" class="node">
<title>Node2</title>
<g id="a_Node000002"><a xlink:href="class_bit_vector.html#af68cda7444ec4459393bbfa423f0a7dd" target="_top" xlink:title="Get the Size_t value if a BitVector::CoordUnit.">
<polygon fill="white" stroke="#666666" points="332.5,-112.5 229.5,-112.5 229.5,-82.5 332.5,-82.5 332.5,-112.5"/>
<text text-anchor="start" x="237.5" y="-100.5" font-family="Helvetica,sans-Serif" font-size="10.00">BitVector::getSize</text>
<text text-anchor="middle" x="281" y="-89.5" font-family="Helvetica,sans-Serif" font-size="10.00">_tUnit</text>
</a>
</g>
</g>
<!-- Node1&#45;&gt;Node2 -->
<g id="edge1_Node000001_Node000002" class="edge">
<title>Node1&#45;&gt;Node2</title>
<g id="a_edge1_Node000001_Node000002"><a xlink:title=" ">
<path fill="none" stroke="#63b8ff" d="M118.39,-59.1C147.29,-65.97 186.7,-75.33 219.37,-83.09"/>
<polygon fill="#63b8ff" stroke="#63b8ff" points="218.73,-86.54 229.27,-85.45 220.35,-79.73 218.73,-86.54"/>
</a>
</g>
</g>
<!-- Node7 -->
<g id="Node000007" class="node">
<title>Node7</title>
<g id="a_Node000007"><a xlink:href="class_bit_vector.html#a68b14af0886039ddcf55c82a250deb4c" target="_top" xlink:title="How many element can be contained in this kind of object.">
<polygon fill="white" stroke="#666666" points="566,-64.5 408,-64.5 408,-34.5 566,-34.5 566,-64.5"/>
<text text-anchor="start" x="416" y="-52.5" font-family="Helvetica,sans-Serif" font-size="10.00">BitVector::maximumElement</text>
<text text-anchor="middle" x="487" y="-41.5" font-family="Helvetica,sans-Serif" font-size="10.00">Number</text>
</a>
</g>
</g>
<!-- Node1&#45;&gt;Node7 -->
<g id="edge7_Node000001_Node000007" class="edge">
<title>Node1&#45;&gt;Node7</title>
<g id="a_edge7_Node000001_Node000007"><a xlink:title=" ">
<path fill="none" stroke="#63b8ff" d="M154.26,-49.5C223.32,-49.5 325.06,-49.5 397.64,-49.5"/>
<polygon fill="#63b8ff" stroke="#63b8ff" points="397.68,-53 407.68,-49.5 397.68,-46 397.68,-53"/>
</a>
</g>
</g>
<!-- Node8 -->
<g id="Node000008" class="node">
<title>Node8</title>
<g id="a_Node000008"><a xlink:href="class_bit_vector.html#aa3228d2bacb1bb0f6072d73d43a49456" target="_top" xlink:title="How many octet can be contained in this kind of object.">
<polygon fill="white" stroke="#666666" points="372,-19 190,-19 190,0 372,0 372,-19"/>
<text text-anchor="middle" x="281" y="-7" font-family="Helvetica,sans-Serif" font-size="10.00">BitVector::maximumOctetNumber</text>
</a>
</g>
</g>
<!-- Node1&#45;&gt;Node8 -->
<g id="edge9_Node000001_Node000008" class="edge">
<title>Node1&#45;&gt;Node8</title>
<g id="a_edge9_Node000001_Node000008"><a xlink:title=" ">
<path fill="none" stroke="#63b8ff" d="M126.13,-39.97C154.85,-34.28 191.53,-27.02 221.87,-21.01"/>
<polygon fill="#63b8ff" stroke="#63b8ff" points="222.76,-24.4 231.89,-19.03 221.4,-17.54 222.76,-24.4"/>
</a>
</g>
</g>
<!-- Node3 -->
<g id="Node000003" class="node">
<title>Node3</title>
<g id="a_Node000003"><a xlink:href="class_bit_vector.html#a115789c8a9812eabb52f8843cd4e9965" target="_top" xlink:title="Give the a coord object that represent the size of 1 element inside BitVector::_data.">
<polygon fill="white" stroke="#666666" points="552.5,-150 421.5,-150 421.5,-131 552.5,-131 552.5,-150"/>
<text text-anchor="middle" x="487" y="-138" font-family="Helvetica,sans-Serif" font-size="10.00">BitVector::getCoordUnit</text>
</a>
</g>
</g>
<!-- Node2&#45;&gt;Node3 -->
<g id="edge2_Node000002_Node000003" class="edge">
<title>Node2&#45;&gt;Node3</title>
<g id="a_edge2_Node000002_Node000003"><a xlink:title=" ">
<path fill="none" stroke="#63b8ff" d="M332.69,-108.18C362.48,-114.46 400.17,-122.41 430.72,-128.85"/>
<polygon fill="#63b8ff" stroke="#63b8ff" points="430.28,-132.33 440.79,-130.97 431.72,-125.48 430.28,-132.33"/>
</a>
</g>
</g>
<!-- Node6 -->
<g id="Node000006" class="node">
<title>Node6</title>
<g id="a_Node000006"><a xlink:href="class_bit_vector_1_1_coords.html#a3a4fac9de925974af9c8a66a1d0179e6" target="_top" xlink:title="Translate octet and bit value inside a size_t. Allow easier mathematic computations.">
<polygon fill="white" stroke="#666666" points="540.5,-112.5 433.5,-112.5 433.5,-82.5 540.5,-82.5 540.5,-112.5"/>
<text text-anchor="start" x="441.5" y="-100.5" font-family="Helvetica,sans-Serif" font-size="10.00">BitVector::Coords::</text>
<text text-anchor="middle" x="487" y="-89.5" font-family="Helvetica,sans-Serif" font-size="10.00">toSize_t</text>
</a>
</g>
</g>
<!-- Node2&#45;&gt;Node6 -->
<g id="edge6_Node000002_Node000006" class="edge">
<title>Node2&#45;&gt;Node6</title>
<g id="a_edge6_Node000002_Node000006"><a xlink:title=" ">
<path fill="none" stroke="#63b8ff" d="M332.69,-97.5C360.13,-97.5 394.28,-97.5 423.38,-97.5"/>
<polygon fill="#63b8ff" stroke="#63b8ff" points="423.44,-101 433.44,-97.5 423.44,-94 423.44,-101"/>
</a>
</g>
</g>
<!-- Node4 -->
<g id="Node000004" class="node">
<title>Node4</title>
<g id="a_Node000004"><a xlink:href="class_bit_vector.html#aebe159444eb9d619959b7325ac5dac2d" target="_top" xlink:title="Return the value of the bit at the position coord.">
<polygon fill="white" stroke="#666666" points="685,-59 602,-59 602,-40 685,-40 685,-59"/>
<text text-anchor="middle" x="643.5" y="-47" font-family="Helvetica,sans-Serif" font-size="10.00">BitVector::get</text>
</a>
</g>
</g>
<!-- Node3&#45;&gt;Node4 -->
<g id="edge3_Node000003_Node000004" class="edge">
<title>Node3&#45;&gt;Node4</title>
<g id="a_edge3_Node000003_Node000004"><a xlink:title=" ">
<path fill="none" stroke="#63b8ff" d="M543.05,-130.9C551,-128.44 558.89,-125.35 566,-121.5 591.39,-107.73 614.65,-83.43 628.69,-66.91"/>
<polygon fill="#63b8ff" stroke="#63b8ff" points="631.49,-69.02 635.16,-59.08 626.09,-64.56 631.49,-69.02"/>
</a>
</g>
</g>
<!-- Node4&#45;&gt;Node4 -->
<g id="edge4_Node000004_Node000004" class="edge">
<title>Node4&#45;&gt;Node4</title>
<g id="a_edge4_Node000004_Node000004"><a xlink:title=" ">
<path fill="none" stroke="#63b8ff" d="M623.46,-59.08C613.72,-67.73 620.39,-77 643.5,-77 658.3,-77 666.36,-73.2 667.68,-68.19"/>
<polygon fill="#63b8ff" stroke="#63b8ff" points="670.86,-66.73 663.54,-59.08 664.49,-69.63 670.86,-66.73"/>
</a>
</g>
</g>
<!-- Node5 -->
<g id="Node000005" class="node">
<title>Node5</title>
<g id="a_Node000005"><a xlink:href="class_bit_vector_1_1_coords.html#a2892f7f46c4af93f9733e312229d8ec1" target="_top" xlink:title="Get Coords::octet .">
<polygon fill="white" stroke="#666666" points="828,-64.5 721,-64.5 721,-34.5 828,-34.5 828,-64.5"/>
<text text-anchor="start" x="729" y="-52.5" font-family="Helvetica,sans-Serif" font-size="10.00">BitVector::Coords::</text>
<text text-anchor="middle" x="774.5" y="-41.5" font-family="Helvetica,sans-Serif" font-size="10.00">getOctet</text>
</a>
</g>
</g>
<!-- Node4&#45;&gt;Node5 -->
<g id="edge5_Node000004_Node000005" class="edge">
<title>Node4&#45;&gt;Node5</title>
<g id="a_edge5_Node000004_Node000005"><a xlink:title=" ">
<path fill="none" stroke="#63b8ff" d="M685.32,-49.5C693.38,-49.5 702.02,-49.5 710.62,-49.5"/>
<polygon fill="#63b8ff" stroke="#63b8ff" points="710.66,-53 720.66,-49.5 710.66,-46 710.66,-53"/>
</a>
</g>
</g>
<!-- Node7&#45;&gt;Node4 -->
<g id="edge8_Node000007_Node000004" class="edge">
<title>Node7&#45;&gt;Node4</title>
<g id="a_edge8_Node000007_Node000004"><a xlink:title=" ">
<path fill="none" stroke="#63b8ff" d="M566.16,-49.5C574.79,-49.5 583.4,-49.5 591.57,-49.5"/>
<polygon fill="#63b8ff" stroke="#63b8ff" points="591.65,-53 601.65,-49.5 591.65,-46 591.65,-53"/>
</a>
</g>
</g>
<!-- Node8&#45;&gt;Node4 -->
<g id="edge10_Node000008_Node000004" class="edge">
<title>Node8&#45;&gt;Node4</title>
<g id="a_edge10_Node000008_Node000004"><a xlink:title=" ">
<path fill="none" stroke="#63b8ff" d="M372.21,-8.9C428.37,-9.93 501.87,-13.82 566,-25.5 579.97,-28.04 594.95,-32.37 607.92,-36.66"/>
<polygon fill="#63b8ff" stroke="#63b8ff" points="606.8,-39.97 617.4,-39.89 609.07,-33.35 606.8,-39.97"/>
</a>
</g>
</g>
</g>
</svg>
