<?xml version="1.0" encoding="UTF-8" standalone="no"?>
<!DOCTYPE svg PUBLIC "-//W3C//DTD SVG 1.1//EN"
 "http://www.w3.org/Graphics/SVG/1.1/DTD/svg11.dtd">
<!-- Generated by graphviz version 2.43.0 (0)
 -->
<!-- Title: Sequence::isAmino Pages: 1 -->
<svg width="526pt" height="101pt"
 viewBox="0.00 0.00 526.00 101.00" xmlns="http://www.w3.org/2000/svg" xmlns:xlink="http://www.w3.org/1999/xlink">
<g id="graph0" class="graph" transform="scale(1 1) rotate(0) translate(4 97)">
<title>Sequence::isAmino</title>
<!-- Node1 -->
<g id="Node000001" class="node">
<title>Node1</title>
<g id="a_Node000001"><a xlink:title="Say if a symbol can be an amino acid.">
<polygon fill="#999999" stroke="#666666" points="518,-56 408,-56 408,-37 518,-37 518,-56"/>
<text text-anchor="middle" x="463" y="-44" font-family="Helvetica,sans-Serif" font-size="10.00">Sequence::isAmino</text>
</a>
</g>
</g>
<!-- Node2 -->
<g id="Node000002" class="node">
<title>Node2</title>
<g id="a_Node000002"><a xlink:href="class_sequence.html#af4dfd329689bebc4131b422d7974ca4e" target="_top" xlink:title="Get the Sequence::SequenceSymbol object attached to a symbol.">
<polygon fill="white" stroke="#666666" points="372,-93 202,-93 202,-74 372,-74 372,-93"/>
<text text-anchor="middle" x="287" y="-81" font-family="Helvetica,sans-Serif" font-size="10.00">Sequence::getSequenceSymbol</text>
</a>
</g>
</g>
<!-- Node1&#45;&gt;Node2 -->
<g id="edge1_Node000001_Node000002" class="edge">
<title>Node1&#45;&gt;Node2</title>
<g id="a_edge1_Node000001_Node000002"><a xlink:title=" ">
<path fill="none" stroke="#63b8ff" d="M407.2,-58.15C383.3,-63.23 355.63,-69.12 332.96,-73.94"/>
<polygon fill="#63b8ff" stroke="#63b8ff" points="408.14,-61.53 417.19,-56.03 406.68,-54.68 408.14,-61.53"/>
</a>
</g>
</g>
<!-- Node3 -->
<g id="Node000003" class="node">
<title>Node3</title>
<g id="a_Node000003"><a xlink:href="class_sequence.html#a14ee59cb34cf4d2087d1eabd3e4c6d4c" target="_top" xlink:title="Say if a symbol can only be found in acid nucleic related to amino acid.">
<polygon fill="white" stroke="#666666" points="360.5,-56 213.5,-56 213.5,-37 360.5,-37 360.5,-56"/>
<text text-anchor="middle" x="287" y="-44" font-family="Helvetica,sans-Serif" font-size="10.00">Sequence::isAminoSpecific</text>
</a>
</g>
</g>
<!-- Node1&#45;&gt;Node3 -->
<g id="edge2_Node000001_Node000003" class="edge">
<title>Node1&#45;&gt;Node3</title>
<g id="a_edge2_Node000001_Node000003"><a xlink:title=" ">
<path fill="none" stroke="#63b8ff" d="M397.88,-46.5C385.75,-46.5 372.98,-46.5 360.61,-46.5"/>
<polygon fill="#63b8ff" stroke="#63b8ff" points="397.9,-50 407.9,-46.5 397.9,-43 397.9,-50"/>
</a>
</g>
</g>
<!-- Node5 -->
<g id="Node000005" class="node">
<title>Node5</title>
<g id="a_Node000005"><a xlink:href="class_sequence.html#a7fb536cb5ce9b5de78634aa314623835" target="_top" xlink:title="Say if a symbol can only be found in acid nucleic related to nucleic acid.">
<polygon fill="white" stroke="#666666" points="363,-19 211,-19 211,0 363,0 363,-19"/>
<text text-anchor="middle" x="287" y="-7" font-family="Helvetica,sans-Serif" font-size="10.00">Sequence::isNucleicSpecific</text>
</a>
</g>
</g>
<!-- Node1&#45;&gt;Node5 -->
<g id="edge4_Node000001_Node000005" class="edge">
<title>Node1&#45;&gt;Node5</title>
<g id="a_edge4_Node000001_Node000005"><a xlink:title=" ">
<path fill="none" stroke="#63b8ff" d="M407.2,-34.85C383.3,-29.77 355.63,-23.88 332.96,-19.06"/>
<polygon fill="#63b8ff" stroke="#63b8ff" points="406.68,-38.32 417.19,-36.97 408.14,-31.47 406.68,-38.32"/>
</a>
</g>
</g>
<!-- Node4 -->
<g id="Node000004" class="node">
<title>Node4</title>
<g id="a_Node000004"><a xlink:href="class_sequence.html#a2163e89ff5b606d82ad4993c7e5eab4b" target="_top" xlink:title="Turn a symbol to a bool array.">
<polygon fill="white" stroke="#666666" points="166,-37 0,-37 0,-18 166,-18 166,-37"/>
<text text-anchor="middle" x="83" y="-25" font-family="Helvetica,sans-Serif" font-size="10.00">Sequence::identifySymbolType</text>
</a>
</g>
</g>
<!-- Node3&#45;&gt;Node4 -->
<g id="edge3_Node000003_Node000004" class="edge">
<title>Node3&#45;&gt;Node4</title>
<g id="a_edge3_Node000003_Node000004"><a xlink:title=" ">
<path fill="none" stroke="#63b8ff" d="M203.22,-38.71C191.03,-37.57 178.47,-36.39 166.28,-35.24"/>
<polygon fill="#63b8ff" stroke="#63b8ff" points="203.07,-42.22 213.36,-39.67 203.73,-35.25 203.07,-42.22"/>
</a>
</g>
</g>
<!-- Node5&#45;&gt;Node4 -->
<g id="edge5_Node000005_Node000004" class="edge">
<title>Node5&#45;&gt;Node4</title>
<g id="a_edge5_Node000005_Node000004"><a xlink:title=" ">
<path fill="none" stroke="#63b8ff" d="M200.77,-17.09C189.27,-18.12 177.5,-19.17 166.06,-20.19"/>
<polygon fill="#63b8ff" stroke="#63b8ff" points="201.13,-20.58 210.78,-16.2 200.51,-13.6 201.13,-20.58"/>
</a>
</g>
</g>
</g>
</svg>
