<?xml version="1.0" encoding="UTF-8" standalone="no"?>
<!DOCTYPE svg PUBLIC "-//W3C//DTD SVG 1.1//EN"
 "http://www.w3.org/Graphics/SVG/1.1/DTD/svg11.dtd">
<!-- Generated by graphviz version 2.43.0 (0)
 -->
<!-- Title: Sequence::getType Pages: 1 -->
<svg width="1211pt" height="138pt"
 viewBox="0.00 0.00 1211.00 138.00" xmlns="http://www.w3.org/2000/svg" xmlns:xlink="http://www.w3.org/1999/xlink">
<g id="graph0" class="graph" transform="scale(1 1) rotate(0) translate(4 134)">
<title>Sequence::getType</title>
<!-- Node1 -->
<g id="Node000001" class="node">
<title>Node1</title>
<g id="a_Node000001"><a xlink:title="Get a char that represent sequence type.">
<polygon fill="#999999" stroke="#666666" points="108,-56 0,-56 0,-37 108,-37 108,-56"/>
<text text-anchor="middle" x="54" y="-44" font-family="Helvetica,sans-Serif" font-size="10.00">Sequence::getType</text>
</a>
</g>
</g>
<!-- Node2 -->
<g id="Node000002" class="node">
<title>Node2</title>
<g id="a_Node000002"><a xlink:href="class_sequence.html#a45d6ea76048e61012cbfcdb3a623fd65" target="_top" xlink:title="Get the Type Array object.">
<polygon fill="white" stroke="#666666" points="281,-75 147,-75 147,-56 281,-56 281,-75"/>
<text text-anchor="middle" x="214" y="-63" font-family="Helvetica,sans-Serif" font-size="10.00">Sequence::getTypeArray</text>
</a>
</g>
</g>
<!-- Node1&#45;&gt;Node2 -->
<g id="edge1_Node000001_Node000002" class="edge">
<title>Node1&#45;&gt;Node2</title>
<g id="a_edge1_Node000001_Node000002"><a xlink:title=" ">
<path fill="none" stroke="#63b8ff" d="M108.05,-52.88C117.3,-53.99 127.08,-55.17 136.81,-56.34"/>
<polygon fill="#63b8ff" stroke="#63b8ff" points="136.55,-59.83 146.9,-57.55 137.39,-52.88 136.55,-59.83"/>
</a>
</g>
</g>
<!-- Node3 -->
<g id="Node000003" class="node">
<title>Node3</title>
<g id="a_Node000003"><a xlink:href="class_sequence.html#a1cb6372d1b0784cbf6531b5be803cb79" target="_top" xlink:title="Convert a bool array that represent type into a char.">
<polygon fill="white" stroke="#666666" points="284,-38 144,-38 144,-19 284,-19 284,-38"/>
<text text-anchor="middle" x="214" y="-26" font-family="Helvetica,sans-Serif" font-size="10.00">Sequence::readTypeArray</text>
</a>
</g>
</g>
<!-- Node1&#45;&gt;Node3 -->
<g id="edge2_Node000001_Node000003" class="edge">
<title>Node1&#45;&gt;Node3</title>
<g id="a_edge2_Node000001_Node000003"><a xlink:title=" ">
<path fill="none" stroke="#63b8ff" d="M108.05,-40.46C116.3,-39.52 124.97,-38.53 133.65,-37.54"/>
<polygon fill="#63b8ff" stroke="#63b8ff" points="134.27,-40.99 143.81,-36.38 133.48,-34.04 134.27,-40.99"/>
</a>
</g>
</g>
<!-- Node4 -->
<g id="Node000004" class="node">
<title>Node4</title>
<g id="a_Node000004"><a xlink:href="class_sequence.html#ad40777fd2f7ad3ae247fab02459e6759" target="_top" xlink:title="Retrieve the symbol at the position in the sequence.">
<polygon fill="white" stroke="#666666" points="406,-38 320,-38 320,-19 406,-19 406,-38"/>
<text text-anchor="middle" x="363" y="-26" font-family="Helvetica,sans-Serif" font-size="10.00">Sequence::get</text>
</a>
</g>
</g>
<!-- Node3&#45;&gt;Node4 -->
<g id="edge3_Node000003_Node000004" class="edge">
<title>Node3&#45;&gt;Node4</title>
<g id="a_edge3_Node000003_Node000004"><a xlink:title=" ">
<path fill="none" stroke="#63b8ff" d="M284.2,-28.5C292.78,-28.5 301.45,-28.5 309.72,-28.5"/>
<polygon fill="#63b8ff" stroke="#63b8ff" points="309.96,-32 319.96,-28.5 309.96,-25 309.96,-32"/>
</a>
</g>
</g>
<!-- Node4&#45;&gt;Node4 -->
<g id="edge7_Node000004_Node000004" class="edge">
<title>Node4&#45;&gt;Node4</title>
<g id="a_edge7_Node000004_Node000004"><a xlink:title=" ">
<path fill="none" stroke="#63b8ff" d="M340.19,-38.08C329.09,-46.73 336.7,-56 363,-56 379.85,-56 389.03,-52.2 390.53,-47.19"/>
<polygon fill="#63b8ff" stroke="#63b8ff" points="393.52,-45.35 385.81,-38.08 387.3,-48.57 393.52,-45.35"/>
</a>
</g>
</g>
<!-- Node5 -->
<g id="Node000005" class="node">
<title>Node5</title>
<g id="a_Node000005"><a xlink:href="class_bit_vector.html#aebe159444eb9d619959b7325ac5dac2d" target="_top" xlink:title="Return the value of the bit at the position coord.">
<polygon fill="white" stroke="#666666" points="559.5,-112 476.5,-112 476.5,-93 559.5,-93 559.5,-112"/>
<text text-anchor="middle" x="518" y="-100" font-family="Helvetica,sans-Serif" font-size="10.00">BitVector::get</text>
</a>
</g>
</g>
<!-- Node4&#45;&gt;Node5 -->
<g id="edge4_Node000004_Node000005" class="edge">
<title>Node4&#45;&gt;Node5</title>
<g id="a_edge4_Node000004_Node000005"><a xlink:title=" ">
<path fill="none" stroke="#63b8ff" d="M374.76,-38.34C389.07,-50.9 415.62,-72.43 442,-84.5 449.7,-88.02 458.18,-90.91 466.57,-93.25"/>
<polygon fill="#63b8ff" stroke="#63b8ff" points="465.78,-96.66 476.34,-95.75 467.52,-89.88 465.78,-96.66"/>
</a>
</g>
</g>
<!-- Node7 -->
<g id="Node000007" class="node">
<title>Node7</title>
<g id="a_Node000007"><a xlink:href="class_sequence.html#a8181f024304b3fb5f55c7118f648cc61" target="_top" xlink:title="Return a char (same format as Sequence::getType()) that indicate which alphabet is used in the during...">
<polygon fill="white" stroke="#666666" points="594,-75 442,-75 442,-56 594,-56 594,-75"/>
<text text-anchor="middle" x="518" y="-63" font-family="Helvetica,sans-Serif" font-size="10.00">Sequence::getEncodingType</text>
</a>
</g>
</g>
<!-- Node4&#45;&gt;Node7 -->
<g id="edge8_Node000004_Node000007" class="edge">
<title>Node4&#45;&gt;Node7</title>
<g id="a_edge8_Node000004_Node000007"><a xlink:title=" ">
<path fill="none" stroke="#63b8ff" d="M403.27,-38.09C415.66,-41.11 429.4,-44.45 442,-47.5 450.23,-49.49 458.97,-51.6 467.47,-53.64"/>
<polygon fill="#63b8ff" stroke="#63b8ff" points="466.75,-57.06 477.29,-56 468.39,-50.26 466.75,-57.06"/>
</a>
</g>
</g>
<!-- Node8 -->
<g id="Node000008" class="node">
<title>Node8</title>
<g id="a_Node000008"><a xlink:href="class_sequence.html#a49a9126010c0332493c803ddca005394" target="_top" xlink:title="Give a map that compress / decompress char used by Sequence.">
<polygon fill="white" stroke="#666666" points="587.5,-38 448.5,-38 448.5,-19 587.5,-19 587.5,-38"/>
<text text-anchor="middle" x="518" y="-26" font-family="Helvetica,sans-Serif" font-size="10.00">Sequence::translationTab</text>
</a>
</g>
</g>
<!-- Node4&#45;&gt;Node8 -->
<g id="edge9_Node000004_Node000008" class="edge">
<title>Node4&#45;&gt;Node8</title>
<g id="a_edge9_Node000004_Node000008"><a xlink:title=" ">
<path fill="none" stroke="#63b8ff" d="M406.21,-22.39C416.24,-21.99 427.25,-21.78 438.32,-21.75"/>
<polygon fill="#63b8ff" stroke="#63b8ff" points="438.47,-25.25 448.48,-21.78 438.49,-18.25 438.47,-25.25"/>
</a>
</g>
</g>
<!-- Node5&#45;&gt;Node5 -->
<g id="edge5_Node000005_Node000005" class="edge">
<title>Node5&#45;&gt;Node5</title>
<g id="a_edge5_Node000005_Node000005"><a xlink:title=" ">
<path fill="none" stroke="#63b8ff" d="M494.26,-112.08C482.72,-120.73 490.63,-130 518,-130 535.96,-130 545.54,-126.01 546.75,-120.82"/>
<polygon fill="#63b8ff" stroke="#63b8ff" points="549.75,-119.02 541.74,-112.08 543.67,-122.5 549.75,-119.02"/>
</a>
</g>
</g>
<!-- Node6 -->
<g id="Node000006" class="node">
<title>Node6</title>
<g id="a_Node000006"><a xlink:href="class_bit_vector_1_1_coords.html#a2892f7f46c4af93f9733e312229d8ec1" target="_top" xlink:title="Get Coords::octet .">
<polygon fill="white" stroke="#666666" points="747.5,-117.5 640.5,-117.5 640.5,-87.5 747.5,-87.5 747.5,-117.5"/>
<text text-anchor="start" x="648.5" y="-105.5" font-family="Helvetica,sans-Serif" font-size="10.00">BitVector::Coords::</text>
<text text-anchor="middle" x="694" y="-94.5" font-family="Helvetica,sans-Serif" font-size="10.00">getOctet</text>
</a>
</g>
</g>
<!-- Node5&#45;&gt;Node6 -->
<g id="edge6_Node000005_Node000006" class="edge">
<title>Node5&#45;&gt;Node6</title>
<g id="a_edge6_Node000005_Node000006"><a xlink:title=" ">
<path fill="none" stroke="#63b8ff" d="M559.8,-102.5C580.71,-102.5 606.64,-102.5 630.05,-102.5"/>
<polygon fill="#63b8ff" stroke="#63b8ff" points="630.25,-106 640.25,-102.5 630.25,-99 630.25,-106"/>
</a>
</g>
</g>
<!-- Node8&#45;&gt;Node4 -->
<g id="edge15_Node000008_Node000004" class="edge">
<title>Node8&#45;&gt;Node4</title>
<g id="a_edge15_Node000008_Node000004"><a xlink:title=" ">
<path fill="none" stroke="#63b8ff" d="M448.48,-35.22C437.68,-35.31 426.67,-35.21 416.32,-34.94"/>
<polygon fill="#63b8ff" stroke="#63b8ff" points="416.32,-31.44 406.21,-34.61 416.09,-38.44 416.32,-31.44"/>
</a>
</g>
</g>
<!-- Node9 -->
<g id="Node000009" class="node">
<title>Node9</title>
<g id="a_Node000009"><a xlink:href="class_sequence.html#a555c6e58957c4d07028eb5c67b1732ac" target="_top" xlink:title="Function used by Sequence::translationTab to create their compression map.">
<polygon fill="white" stroke="#666666" points="758,-19 630,-19 630,0 758,0 758,-19"/>
<text text-anchor="middle" x="694" y="-7" font-family="Helvetica,sans-Serif" font-size="10.00">Sequence::fillCodeMap</text>
</a>
</g>
</g>
<!-- Node8&#45;&gt;Node9 -->
<g id="edge10_Node000008_Node000009" class="edge">
<title>Node8&#45;&gt;Node9</title>
<g id="a_edge10_Node000008_Node000009"><a xlink:title=" ">
<path fill="none" stroke="#63b8ff" d="M587.77,-20.99C598.28,-19.84 609.16,-18.65 619.76,-17.5"/>
<polygon fill="#63b8ff" stroke="#63b8ff" points="620.26,-20.96 629.82,-16.4 619.5,-14.01 620.26,-20.96"/>
</a>
</g>
</g>
<!-- Node9&#45;&gt;Node4 -->
<g id="edge11_Node000009_Node000004" class="edge">
<title>Node9&#45;&gt;Node4</title>
<g id="a_edge11_Node000009_Node000004"><a xlink:title=" ">
<path fill="none" stroke="#63b8ff" d="M629.83,-5.35C578.92,-3 505.6,-1.87 442,-9.5 430.01,-10.94 417.21,-13.58 405.51,-16.44"/>
<polygon fill="#63b8ff" stroke="#63b8ff" points="404.38,-13.12 395.56,-18.99 406.12,-19.9 404.38,-13.12"/>
</a>
</g>
</g>
<!-- Node10 -->
<g id="Node000010" class="node">
<title>Node10</title>
<g id="a_Node000010"><a xlink:href="class_sequence.html#acf21040958590f98163b3d11f19ea93e" target="_top" xlink:title="Give the number of element contained in this sequence.">
<polygon fill="white" stroke="#666666" points="883,-19 794,-19 794,0 883,0 883,-19"/>
<text text-anchor="middle" x="838.5" y="-7" font-family="Helvetica,sans-Serif" font-size="10.00">Sequence::size</text>
</a>
</g>
</g>
<!-- Node9&#45;&gt;Node10 -->
<g id="edge12_Node000009_Node000010" class="edge">
<title>Node9&#45;&gt;Node10</title>
<g id="a_edge12_Node000009_Node000010"><a xlink:title=" ">
<path fill="none" stroke="#63b8ff" d="M758.33,-9.5C766.8,-9.5 775.42,-9.5 783.7,-9.5"/>
<polygon fill="#63b8ff" stroke="#63b8ff" points="783.98,-13 793.98,-9.5 783.98,-6 783.98,-13"/>
</a>
</g>
</g>
<!-- Node11 -->
<g id="Node000011" class="node">
<title>Node11</title>
<g id="a_Node000011"><a xlink:href="class_bit_vector.html#ab30ea2b408107e4e6bc8095b5a64a1dd" target="_top" xlink:title="Number of element inside this object.">
<polygon fill="white" stroke="#666666" points="1005,-19 919,-19 919,0 1005,0 1005,-19"/>
<text text-anchor="middle" x="962" y="-7" font-family="Helvetica,sans-Serif" font-size="10.00">BitVector::size</text>
</a>
</g>
</g>
<!-- Node10&#45;&gt;Node11 -->
<g id="edge13_Node000010_Node000011" class="edge">
<title>Node10&#45;&gt;Node11</title>
<g id="a_edge13_Node000010_Node000011"><a xlink:title=" ">
<path fill="none" stroke="#63b8ff" d="M883.02,-9.5C891.25,-9.5 899.94,-9.5 908.41,-9.5"/>
<polygon fill="#63b8ff" stroke="#63b8ff" points="908.6,-13 918.6,-9.5 908.6,-6 908.6,-13"/>
</a>
</g>
</g>
<!-- Node12 -->
<g id="Node000012" class="node">
<title>Node12</title>
<g id="a_Node000012"><a xlink:href="class_bit_vector.html#a5339660cfb315ab5de7f78bdf5af4ce1" target="_top" xlink:title="Get BitVector::_element_number.">
<polygon fill="white" stroke="#666666" points="1203,-19 1041,-19 1041,0 1203,0 1203,-19"/>
<text text-anchor="middle" x="1122" y="-7" font-family="Helvetica,sans-Serif" font-size="10.00">BitVector::getElementNumber</text>
</a>
</g>
</g>
<!-- Node11&#45;&gt;Node12 -->
<g id="edge14_Node000011_Node000012" class="edge">
<title>Node11&#45;&gt;Node12</title>
<g id="a_edge14_Node000011_Node000012"><a xlink:title=" ">
<path fill="none" stroke="#63b8ff" d="M1005.34,-9.5C1013.23,-9.5 1021.74,-9.5 1030.44,-9.5"/>
<polygon fill="#63b8ff" stroke="#63b8ff" points="1030.71,-13 1040.71,-9.5 1030.71,-6 1030.71,-13"/>
</a>
</g>
</g>
</g>
</svg>
