<?xml version="1.0" encoding="UTF-8" standalone="no"?>
<!DOCTYPE svg PUBLIC "-//W3C//DTD SVG 1.1//EN"
 "http://www.w3.org/Graphics/SVG/1.1/DTD/svg11.dtd">
<!-- Generated by graphviz version 2.43.0 (0)
 -->
<!-- Title: BitVector::copyBits Pages: 1 -->
<svg width="721pt" height="264pt"
 viewBox="0.00 0.00 721.00 264.29" xmlns="http://www.w3.org/2000/svg" xmlns:xlink="http://www.w3.org/1999/xlink">
<g id="graph0" class="graph" transform="scale(1 1) rotate(0) translate(4 260.29)">
<title>BitVector::copyBits</title>
<!-- Node1 -->
<g id="Node000001" class="node">
<title>Node1</title>
<g id="a_Node000001"><a xlink:title=" ">
<polygon fill="#999999" stroke="#666666" points="713,-168 604,-168 604,-149 713,-149 713,-168"/>
<text text-anchor="middle" x="658.5" y="-156" font-family="Helvetica,sans-Serif" font-size="10.00">BitVector::copyBits</text>
</a>
</g>
</g>
<!-- Node2 -->
<g id="Node000002" class="node">
<title>Node2</title>
<g id="a_Node000002"><a xlink:href="class_bit_vector.html#a2d0fe43b80b63edbd64dc887fd87d915" target="_top" xlink:title="Return the element at the position index.">
<polygon fill="white" stroke="#666666" points="568,-187 485,-187 485,-168 568,-168 568,-187"/>
<text text-anchor="middle" x="526.5" y="-175" font-family="Helvetica,sans-Serif" font-size="10.00">BitVector::get</text>
</a>
</g>
</g>
<!-- Node1&#45;&gt;Node2 -->
<g id="edge1_Node000001_Node000002" class="edge">
<title>Node1&#45;&gt;Node2</title>
<g id="a_edge1_Node000001_Node000002"><a xlink:title=" ">
<path fill="none" stroke="#63b8ff" d="M593.75,-167.82C585.09,-169.08 576.4,-170.35 568.29,-171.54"/>
<polygon fill="#63b8ff" stroke="#63b8ff" points="594.48,-171.25 603.87,-166.34 593.47,-164.32 594.48,-171.25"/>
</a>
</g>
</g>
<!-- Node3 -->
<g id="Node000003" class="node">
<title>Node3</title>
<g id="a_Node000003"><a xlink:href="class_bit_vector.html#aca24053f655c825de0f06ec86fff1cec" target="_top" xlink:title="Replace an element by another element. Can add an element to the list if index = BitVector::_element_...">
<polygon fill="white" stroke="#666666" points="567.5,-150 485.5,-150 485.5,-131 567.5,-131 567.5,-150"/>
<text text-anchor="middle" x="526.5" y="-138" font-family="Helvetica,sans-Serif" font-size="10.00">BitVector::set</text>
</a>
</g>
</g>
<!-- Node1&#45;&gt;Node3 -->
<g id="edge2_Node000001_Node000003" class="edge">
<title>Node1&#45;&gt;Node3</title>
<g id="a_edge2_Node000001_Node000003"><a xlink:title=" ">
<path fill="none" stroke="#63b8ff" d="M593.92,-149.7C585.06,-148.47 576.16,-147.24 567.89,-146.09"/>
<polygon fill="#63b8ff" stroke="#63b8ff" points="593.49,-153.17 603.87,-151.07 594.45,-146.24 593.49,-153.17"/>
</a>
</g>
</g>
<!-- Node4 -->
<g id="Node000004" class="node">
<title>Node4</title>
<g id="a_Node000004"><a xlink:href="class_bit_vector.html#afbdbe8a5003f5941ffd5ab095cf87d88" target="_top" xlink:title="Add an element at the end of the vector.">
<polygon fill="white" stroke="#666666" points="448.5,-207 345.5,-207 345.5,-188 448.5,-188 448.5,-207"/>
<text text-anchor="middle" x="397" y="-195" font-family="Helvetica,sans-Serif" font-size="10.00">BitVector::append</text>
</a>
</g>
</g>
<!-- Node3&#45;&gt;Node4 -->
<g id="edge3_Node000003_Node000004" class="edge">
<title>Node3&#45;&gt;Node4</title>
<g id="a_edge3_Node000003_Node000004"><a xlink:title=" ">
<path fill="none" stroke="#63b8ff" d="M494.73,-154.26C471.43,-164.67 440.03,-178.71 419.41,-187.93"/>
<polygon fill="#63b8ff" stroke="#63b8ff" points="496.46,-157.32 504.16,-150.04 493.6,-150.93 496.46,-157.32"/>
</a>
</g>
</g>
<!-- Node5 -->
<g id="Node000005" class="node">
<title>Node5</title>
<g id="a_Node000005"><a xlink:href="class_bit_vector.html#a5547d55a697d61de026d0a94e743624b" target="_top" xlink:title="Construct a new Bit Vector object.">
<polygon fill="white" stroke="#666666" points="275.5,-226 164.5,-226 164.5,-207 275.5,-207 275.5,-226"/>
<text text-anchor="middle" x="220" y="-214" font-family="Helvetica,sans-Serif" font-size="10.00">BitVector::BitVector</text>
</a>
</g>
</g>
<!-- Node3&#45;&gt;Node5 -->
<g id="edge9_Node000003_Node000005" class="edge">
<title>Node3&#45;&gt;Node5</title>
<g id="a_edge9_Node000003_Node000005"><a xlink:title=" ">
<path fill="none" stroke="#63b8ff" d="M490.47,-155.27C488.55,-156.59 486.7,-158 485,-159.5 462.53,-179.33 475.24,-202.04 449,-216.5 387.47,-250.42 301.65,-237.3 254.81,-226.07"/>
<polygon fill="#63b8ff" stroke="#63b8ff" points="492.45,-158.18 499.31,-150.1 488.91,-152.14 492.45,-158.18"/>
</a>
</g>
</g>
<!-- Node6 -->
<g id="Node000006" class="node">
<title>Node6</title>
<g id="a_Node000006"><a xlink:href="class_bit_vector.html#a686af396e4dff1536b7588213726c4cc" target="_top" xlink:title="Insert a number of blank position inside BitVector::_data.">
<polygon fill="white" stroke="#666666" points="309,-169 131,-169 131,-150 309,-150 309,-169"/>
<text text-anchor="middle" x="220" y="-157" font-family="Helvetica,sans-Serif" font-size="10.00">BitVector::makeRoomForElement</text>
</a>
</g>
</g>
<!-- Node3&#45;&gt;Node6 -->
<g id="edge12_Node000003_Node000006" class="edge">
<title>Node3&#45;&gt;Node6</title>
<g id="a_edge12_Node000003_Node000006"><a xlink:title=" ">
<path fill="none" stroke="#63b8ff" d="M475.26,-143.63C430.18,-146.45 362.99,-150.64 309,-154.01"/>
<polygon fill="#63b8ff" stroke="#63b8ff" points="475.62,-147.12 485.38,-143 475.18,-140.13 475.62,-147.12"/>
</a>
</g>
</g>
<!-- Node7 -->
<g id="Node000007" class="node">
<title>Node7</title>
<g id="a_Node000007"><a xlink:href="class_bit_vector.html#a9f86c96c013632abd9d18feafe78d72e" target="_top" xlink:title="Insert a number_of_elements inside the vector at the index pos .">
<polygon fill="white" stroke="#666666" points="95,-187 0,-187 0,-168 95,-168 95,-187"/>
<text text-anchor="middle" x="47.5" y="-175" font-family="Helvetica,sans-Serif" font-size="10.00">BitVector::insert</text>
</a>
</g>
</g>
<!-- Node3&#45;&gt;Node7 -->
<g id="edge10_Node000003_Node000007" class="edge">
<title>Node3&#45;&gt;Node7</title>
<g id="a_edge10_Node000003_Node000007"><a xlink:title=" ">
<path fill="none" stroke="#63b8ff" d="M489.5,-155.53C487.9,-156.76 486.39,-158.09 485,-159.5 457.43,-187.64 482.03,-219.03 449,-240.5 420.7,-258.89 222.44,-265.61 131,-235.5 101.07,-225.64 72.44,-200.97 58.08,-187.19"/>
<polygon fill="#63b8ff" stroke="#63b8ff" points="491.48,-158.41 498.03,-150.09 487.72,-152.51 491.48,-158.41"/>
</a>
</g>
</g>
<!-- Node8 -->
<g id="Node000008" class="node">
<title>Node8</title>
<g id="a_Node000008"><a xlink:href="class_bit_vector.html#a915743b3f94c75c22317d160bfa741ff" target="_top" xlink:title="Insert a number_of_elements inside the vector at the index pos .">
<polygon fill="white" stroke="#666666" points="95,-150 0,-150 0,-131 95,-131 95,-150"/>
<text text-anchor="middle" x="47.5" y="-138" font-family="Helvetica,sans-Serif" font-size="10.00">BitVector::insert</text>
</a>
</g>
</g>
<!-- Node3&#45;&gt;Node8 -->
<g id="edge11_Node000003_Node000008" class="edge">
<title>Node3&#45;&gt;Node8</title>
<g id="a_edge11_Node000003_Node000008"><a xlink:title=" ">
<path fill="none" stroke="#63b8ff" d="M474.97,-140.5C381.97,-140.5 185.03,-140.5 95.08,-140.5"/>
<polygon fill="#63b8ff" stroke="#63b8ff" points="475.24,-144 485.24,-140.5 475.24,-137 475.24,-144"/>
</a>
</g>
</g>
<!-- Node9 -->
<g id="Node000009" class="node">
<title>Node9</title>
<g id="a_Node000009"><a xlink:href="class_bit_vector.html#a2af5c1a1a0050e2b52d06c38436280fd" target="_top" xlink:title="Add an element at the end of the vector.">
<polygon fill="white" stroke="#666666" points="448.5,-93 345.5,-93 345.5,-74 448.5,-74 448.5,-93"/>
<text text-anchor="middle" x="397" y="-81" font-family="Helvetica,sans-Serif" font-size="10.00">BitVector::append</text>
</a>
</g>
</g>
<!-- Node3&#45;&gt;Node9 -->
<g id="edge8_Node000003_Node000009" class="edge">
<title>Node3&#45;&gt;Node9</title>
<g id="a_edge8_Node000003_Node000009"><a xlink:title=" ">
<path fill="none" stroke="#63b8ff" d="M494.73,-126.74C471.43,-116.33 440.03,-102.29 419.41,-93.07"/>
<polygon fill="#63b8ff" stroke="#63b8ff" points="493.6,-130.07 504.16,-130.96 496.46,-123.68 493.6,-130.07"/>
</a>
</g>
</g>
<!-- Node10 -->
<g id="Node000010" class="node">
<title>Node10</title>
<g id="a_Node000010"><a xlink:href="class_bit_vector.html#a87f84edf5dd56606b26e8741ba6ced02" target="_top" xlink:title="Remove a number of element from the vector.">
<polygon fill="white" stroke="#666666" points="449,-56 345,-56 345,-37 449,-37 449,-56"/>
<text text-anchor="middle" x="397" y="-44" font-family="Helvetica,sans-Serif" font-size="10.00">BitVector::remove</text>
</a>
</g>
</g>
<!-- Node3&#45;&gt;Node10 -->
<g id="edge13_Node000003_Node000010" class="edge">
<title>Node3&#45;&gt;Node10</title>
<g id="a_edge13_Node000003_Node000010"><a xlink:title=" ">
<path fill="none" stroke="#63b8ff" d="M511.8,-122.93C497.69,-105.89 474.25,-80.35 449,-64.5 443.75,-61.2 437.82,-58.41 431.91,-56.08"/>
<polygon fill="#63b8ff" stroke="#63b8ff" points="509.28,-125.39 518.28,-130.97 514.73,-120.99 509.28,-125.39"/>
</a>
</g>
</g>
<!-- Node11 -->
<g id="Node000011" class="node">
<title>Node11</title>
<g id="a_Node000011"><a xlink:href="class_bit_vector.html#a38e8be69974c874857dd7cb6a52429ac" target="_top" xlink:title="Replace an element by another element. Can add an element to the list if index = BitVector::_element_...">
<polygon fill="white" stroke="#666666" points="438,-19 356,-19 356,0 438,0 438,-19"/>
<text text-anchor="middle" x="397" y="-7" font-family="Helvetica,sans-Serif" font-size="10.00">BitVector::set</text>
</a>
</g>
</g>
<!-- Node3&#45;&gt;Node11 -->
<g id="edge14_Node000003_Node000011" class="edge">
<title>Node3&#45;&gt;Node11</title>
<g id="a_edge14_Node000003_Node000011"><a xlink:title=" ">
<path fill="none" stroke="#63b8ff" d="M517.38,-121.66C505.73,-96.73 481.96,-52.95 449,-27.5 444.62,-24.11 439.54,-21.33 434.33,-19.06"/>
<polygon fill="#63b8ff" stroke="#63b8ff" points="514.2,-123.12 521.5,-130.8 520.58,-120.25 514.2,-123.12"/>
</a>
</g>
</g>
<!-- Node4&#45;&gt;Node5 -->
<g id="edge4_Node000004_Node000005" class="edge">
<title>Node4&#45;&gt;Node5</title>
<g id="a_edge4_Node000004_Node000005"><a xlink:title=" ">
<path fill="none" stroke="#63b8ff" d="M335.18,-204.1C315.87,-206.2 294.64,-208.5 275.79,-210.55"/>
<polygon fill="#63b8ff" stroke="#63b8ff" points="335.82,-207.55 345.38,-203 335.06,-200.6 335.82,-207.55"/>
</a>
</g>
</g>
<!-- Node4&#45;&gt;Node6 -->
<g id="edge5_Node000004_Node000006" class="edge">
<title>Node4&#45;&gt;Node6</title>
<g id="a_edge5_Node000004_Node000006"><a xlink:title=" ">
<path fill="none" stroke="#63b8ff" d="M341.88,-185.75C317.13,-180.37 288.2,-174.09 264.84,-169.02"/>
<polygon fill="#63b8ff" stroke="#63b8ff" points="341.33,-189.21 351.84,-187.91 342.81,-182.37 341.33,-189.21"/>
</a>
</g>
</g>
<!-- Node6&#45;&gt;Node7 -->
<g id="edge6_Node000006_Node000007" class="edge">
<title>Node6&#45;&gt;Node7</title>
<g id="a_edge6_Node000006_Node000007"><a xlink:title=" ">
<path fill="none" stroke="#63b8ff" d="M120.79,-169.87C112.02,-170.79 103.44,-171.7 95.43,-172.55"/>
<polygon fill="#63b8ff" stroke="#63b8ff" points="121.18,-173.35 130.75,-168.82 120.44,-166.39 121.18,-173.35"/>
</a>
</g>
</g>
<!-- Node6&#45;&gt;Node8 -->
<g id="edge7_Node000006_Node000008" class="edge">
<title>Node6&#45;&gt;Node8</title>
<g id="a_edge7_Node000006_Node000008"><a xlink:title=" ">
<path fill="none" stroke="#63b8ff" d="M123.14,-148.82C113.48,-147.74 104.01,-146.69 95.23,-145.71"/>
<polygon fill="#63b8ff" stroke="#63b8ff" points="122.92,-152.32 133.25,-149.94 123.7,-145.36 122.92,-152.32"/>
</a>
</g>
</g>
</g>
</svg>
