<?xml version="1.0" encoding="UTF-8" standalone="no"?>
<!DOCTYPE svg PUBLIC "-//W3C//DTD SVG 1.1//EN"
 "http://www.w3.org/Graphics/SVG/1.1/DTD/svg11.dtd">
<!-- Generated by graphviz version 2.43.0 (0)
 -->
<!-- Title: Sequence::getSequenceSymbol Pages: 1 -->
<!--zoomable 289 -->

<svg id="main" version="1.1" xmlns="http://www.w3.org/2000/svg" xmlns:xlink="http://www.w3.org/1999/xlink" xml:space="preserve" onload="init(evt)">
<style type="text/css"><![CDATA[
.node, .edge {opacity: 0.7;}
.node.selected, .edge.selected {opacity: 1;}
.edge:hover path { stroke: red; }
.edge:hover polygon { stroke: red; fill: red; }
]]></style>

<defs>
  <circle id="rim" cx="0" cy="0" r="7"/>
  <circle id="rim2" cx="0" cy="0" r="3.5"/>
  <g id="zoomPlus">
    <use xlink:href="#rim" fill="#404040"><set attributeName="fill" to="#808080" begin="zoomplus.mouseover" end="zoomplus.mouseout"/></use>
    <path d="M-4,0h8M0,-4v8" fill="none" stroke="white" stroke-width="1.5" pointer-events="none"/>
  </g>
  <g id="zoomMin">
    <use xlink:href="#rim" fill="#404040"><set attributeName="fill" to="#808080" begin="zoomminus.mouseover" end="zoomminus.mouseout"/></use>
    <path d="M-4,0h8" fill="none" stroke="white" stroke-width="1.5" pointer-events="none"/>
  </g>
  <g id="arrowUp" transform="translate(30 24)">
    <use xlink:href="#rim"/>
    <path pointer-events="none" fill="none" stroke="white" stroke-width="1.5" d="M0,-3.0v7 M-2.5,-0.5L0,-3.0L2.5,-0.5"/>
  </g>
  <g id="arrowRight" transform="rotate(90) translate(36 -43)">
    <use xlink:href="#rim"/>
    <path pointer-events="none" fill="none" stroke="white" stroke-width="1.5" d="M0,-3.0v7 M-2.5,-0.5L0,-3.0L2.5,-0.5"/>
  </g>
  <g id="arrowDown" transform="rotate(180) translate(-30 -48)">
    <use xlink:href="#rim"/>
    <path pointer-events="none" fill="none" stroke="white" stroke-width="1.5" d="M0,-3.0v7 M-2.5,-0.5L0,-3.0L2.5,-0.5"/>
  </g>
  <g id="arrowLeft" transform="rotate(270) translate(-36 17)">
    <use xlink:href="#rim"/>
    <path pointer-events="none" fill="none" stroke="white" stroke-width="1.5" d="M0,-3.0v7 M-2.5,-0.5L0,-3.0L2.5,-0.5"/>
  </g>
  <g id="resetDef">
    <use xlink:href="#rim2" fill="#404040"><set attributeName="fill" to="#808080" begin="reset.mouseover" end="reset.mouseout"/></use>
  </g>
</defs>
<script type="application/ecmascript">
var viewWidth = 1436;
var viewHeight = 289;
var sectionId = 'dynsection-15';
</script>
<script type="application/ecmascript" xlink:href="svg.min.js"/>
<svg id="graph" class="graph">
<g id="viewport">
<title>Sequence::getSequenceSymbol</title>
<!-- Node1 -->
<g id="Node000001" class="node">
<title>Node1</title>
<g id="a_Node000001"><a xlink:title="Get the Sequence::SequenceSymbol object attached to a symbol.">
<polygon fill="#999999" stroke="#666666" points="170,-169 0,-169 0,-150 170,-150 170,-169"/>
<text text-anchor="middle" x="85" y="-157" font-family="Helvetica,sans-Serif" font-size="10.00">Sequence::getSequenceSymbol</text>
</a>
</g>
</g>
<!-- Node2 -->
<g id="Node000002" class="node">
<title>Node2</title>
<g id="a_Node000002"><a xlink:href="class_sequence.html#aed78263d09b41984aed4eb4a3a570591" target="_top" xlink:title="Say if a symbol can represent amino acids.">
<polygon fill="white" stroke="#666666" points="337,-281 206,-281 206,-262 337,-262 337,-281"/>
<text text-anchor="middle" x="271.5" y="-269" font-family="Helvetica,sans-Serif" font-size="10.00">Sequence::canBeAmino</text>
</a>
</g>
</g>
<!-- Node1&#45;&gt;Node2 -->
<g id="edge1_Node000001_Node000002" class="edge">
<title>Node1&#45;&gt;Node2</title>
<g id="a_edge1_Node000001_Node000002"><a xlink:title=" ">
<path fill="none" stroke="#63b8ff" d="M95.35,-169C114.43,-187.86 159.95,-230.21 206,-253.5 209.73,-255.39 213.69,-257.1 217.74,-258.65"/>
<polygon fill="#63b8ff" stroke="#63b8ff" points="216.69,-261.99 227.28,-261.98 218.99,-255.38 216.69,-261.99"/>
</a>
</g>
</g>
<!-- Node3 -->
<g id="Node000003" class="node">
<title>Node3</title>
<g id="a_Node000003"><a xlink:href="class_sequence.html#a276e60abf2a497596ceb563687922342" target="_top" xlink:title="Say if a symbol can represent DNA.">
<polygon fill="white" stroke="#666666" points="331,-244 212,-244 212,-225 331,-225 331,-244"/>
<text text-anchor="middle" x="271.5" y="-232" font-family="Helvetica,sans-Serif" font-size="10.00">Sequence::canBeDna</text>
</a>
</g>
</g>
<!-- Node1&#45;&gt;Node3 -->
<g id="edge2_Node000001_Node000003" class="edge">
<title>Node1&#45;&gt;Node3</title>
<g id="a_edge2_Node000001_Node000003"><a xlink:title=" ">
<path fill="none" stroke="#63b8ff" d="M103.88,-169.18C126.96,-181.41 168.63,-202.53 206,-216.5 211.17,-218.43 216.65,-220.27 222.13,-221.98"/>
<polygon fill="#63b8ff" stroke="#63b8ff" points="221.37,-225.4 231.95,-224.91 223.37,-218.69 221.37,-225.4"/>
</a>
</g>
</g>
<!-- Node4 -->
<g id="Node000004" class="node">
<title>Node4</title>
<g id="a_Node000004"><a xlink:href="class_sequence.html#a0e01b31e21a06c7a2fd17d6c050c739a" target="_top" xlink:title="Say if a symbol can represent RNA.">
<polygon fill="white" stroke="#666666" points="331,-207 212,-207 212,-188 331,-188 331,-207"/>
<text text-anchor="middle" x="271.5" y="-195" font-family="Helvetica,sans-Serif" font-size="10.00">Sequence::canBeRna</text>
</a>
</g>
</g>
<!-- Node1&#45;&gt;Node4 -->
<g id="edge3_Node000001_Node000004" class="edge">
<title>Node1&#45;&gt;Node4</title>
<g id="a_edge3_Node000001_Node000004"><a xlink:title=" ">
<path fill="none" stroke="#63b8ff" d="M132.56,-169.09C157.34,-174.19 188.02,-180.51 214.14,-185.89"/>
<polygon fill="#63b8ff" stroke="#63b8ff" points="213.78,-189.39 224.28,-187.98 215.19,-182.53 213.78,-189.39"/>
</a>
</g>
</g>
<!-- Node5 -->
<g id="Node000005" class="node">
<title>Node5</title>
<g id="a_Node000005"><a xlink:href="class_sequence.html#ad40777fd2f7ad3ae247fab02459e6759" target="_top" xlink:title="Retrieve the symbol at the position in the sequence.">
<polygon fill="white" stroke="#666666" points="631,-93 545,-93 545,-74 631,-74 631,-93"/>
<text text-anchor="middle" x="588" y="-81" font-family="Helvetica,sans-Serif" font-size="10.00">Sequence::get</text>
</a>
</g>
</g>
<!-- Node1&#45;&gt;Node5 -->
<g id="edge4_Node000001_Node000005" class="edge">
<title>Node1&#45;&gt;Node5</title>
<g id="a_edge4_Node000001_Node000005"><a xlink:title=" ">
<path fill="none" stroke="#63b8ff" d="M170.09,-162.14C256.78,-162.62 394.99,-157.05 509,-123.5 528.47,-117.77 548.81,-107.16 563.84,-98.31"/>
<polygon fill="#63b8ff" stroke="#63b8ff" points="565.72,-101.26 572.46,-93.08 562.09,-95.27 565.72,-101.26"/>
</a>
</g>
</g>
<!-- Node14 -->
<g id="Node000014" class="node">
<title>Node14</title>
<g id="a_Node000014"><a xlink:href="class_sequence.html#a31e8f630c8d214e79ac9ef7d128e3c24" target="_top" xlink:title="Say if a symbol can be an amino acid.">
<polygon fill="white" stroke="#666666" points="326.5,-131 216.5,-131 216.5,-112 326.5,-112 326.5,-131"/>
<text text-anchor="middle" x="271.5" y="-119" font-family="Helvetica,sans-Serif" font-size="10.00">Sequence::isAmino</text>
</a>
</g>
</g>
<!-- Node1&#45;&gt;Node14 -->
<g id="edge17_Node000001_Node000014" class="edge">
<title>Node1&#45;&gt;Node14</title>
<g id="a_edge17_Node000001_Node000014"><a xlink:title=" ">
<path fill="none" stroke="#63b8ff" d="M132.56,-149.91C157.34,-144.81 188.02,-138.49 214.14,-133.11"/>
<polygon fill="#63b8ff" stroke="#63b8ff" points="215.19,-136.47 224.28,-131.02 213.78,-129.61 215.19,-136.47"/>
</a>
</g>
</g>
<!-- Node16 -->
<g id="Node000016" class="node">
<title>Node16</title>
<g id="a_Node000016"><a xlink:href="class_sequence.html#a14cf335c6053ca586d4e1694898575cf" target="_top" xlink:title="Say if a symbol can be an acid nucleic related to DNA.">
<polygon fill="white" stroke="#666666" points="491,-56 391,-56 391,-37 491,-37 491,-56"/>
<text text-anchor="middle" x="441" y="-44" font-family="Helvetica,sans-Serif" font-size="10.00">Sequence::isDNA</text>
</a>
</g>
</g>
<!-- Node1&#45;&gt;Node16 -->
<g id="edge21_Node000001_Node000016" class="edge">
<title>Node1&#45;&gt;Node16</title>
<g id="a_edge21_Node000001_Node000016"><a xlink:title=" ">
<path fill="none" stroke="#63b8ff" d="M103.83,-149.81C126.87,-137.62 168.47,-116.68 206,-103.5 264.19,-83.06 333.01,-67.25 380.89,-57.52"/>
<polygon fill="#63b8ff" stroke="#63b8ff" points="381.67,-60.94 390.78,-55.54 380.29,-54.07 381.67,-60.94"/>
</a>
</g>
</g>
<!-- Node17 -->
<g id="Node000017" class="node">
<title>Node17</title>
<g id="a_Node000017"><a xlink:href="class_sequence.html#ad04d994668bcc5d29c6813fcbc28dfb6" target="_top" xlink:title="Say if a symbol can be an acid nucleic related to RNA.">
<polygon fill="white" stroke="#666666" points="490.5,-19 391.5,-19 391.5,0 490.5,0 490.5,-19"/>
<text text-anchor="middle" x="441" y="-7" font-family="Helvetica,sans-Serif" font-size="10.00">Sequence::isRNA</text>
</a>
</g>
</g>
<!-- Node1&#45;&gt;Node17 -->
<g id="edge23_Node000001_Node000017" class="edge">
<title>Node1&#45;&gt;Node17</title>
<g id="a_edge23_Node000001_Node000017"><a xlink:title=" ">
<path fill="none" stroke="#63b8ff" d="M94.93,-149.91C113.59,-130.45 158.93,-86.28 206,-63.5 262.06,-36.37 332.37,-22.51 381.21,-15.68"/>
<polygon fill="#63b8ff" stroke="#63b8ff" points="381.85,-19.13 391.29,-14.33 380.92,-12.19 381.85,-19.13"/>
</a>
</g>
</g>
<!-- Node5&#45;&gt;Node5 -->
<g id="edge8_Node000005_Node000005" class="edge">
<title>Node5&#45;&gt;Node5</title>
<g id="a_edge8_Node000005_Node000005"><a xlink:title=" ">
<path fill="none" stroke="#63b8ff" d="M565.5,-93.08C554.55,-101.73 562.05,-111 588,-111 604.62,-111 613.68,-107.2 615.16,-102.19"/>
<polygon fill="#63b8ff" stroke="#63b8ff" points="618.17,-100.39 610.5,-93.08 611.94,-103.58 618.17,-100.39"/>
</a>
</g>
</g>
<!-- Node6 -->
<g id="Node000006" class="node">
<title>Node6</title>
<g id="a_Node000006"><a xlink:href="class_bit_vector.html#aebe159444eb9d619959b7325ac5dac2d" target="_top" xlink:title="Return the value of the bit at the position coord.">
<polygon fill="white" stroke="#666666" points="784.5,-167 701.5,-167 701.5,-148 784.5,-148 784.5,-167"/>
<text text-anchor="middle" x="743" y="-155" font-family="Helvetica,sans-Serif" font-size="10.00">BitVector::get</text>
</a>
</g>
</g>
<!-- Node5&#45;&gt;Node6 -->
<g id="edge5_Node000005_Node000006" class="edge">
<title>Node5&#45;&gt;Node6</title>
<g id="a_edge5_Node000005_Node000006"><a xlink:title=" ">
<path fill="none" stroke="#63b8ff" d="M599.76,-93.34C614.07,-105.9 640.62,-127.43 667,-139.5 674.7,-143.02 683.18,-145.91 691.57,-148.25"/>
<polygon fill="#63b8ff" stroke="#63b8ff" points="690.78,-151.66 701.34,-150.75 692.52,-144.88 690.78,-151.66"/>
</a>
</g>
</g>
<!-- Node8 -->
<g id="Node000008" class="node">
<title>Node8</title>
<g id="a_Node000008"><a xlink:href="class_sequence.html#a8181f024304b3fb5f55c7118f648cc61" target="_top" xlink:title="Return a char (same format as Sequence::getType()) that indicate which alphabet is used in the during...">
<polygon fill="white" stroke="#666666" points="819,-130 667,-130 667,-111 819,-111 819,-130"/>
<text text-anchor="middle" x="743" y="-118" font-family="Helvetica,sans-Serif" font-size="10.00">Sequence::getEncodingType</text>
</a>
</g>
</g>
<!-- Node5&#45;&gt;Node8 -->
<g id="edge9_Node000005_Node000008" class="edge">
<title>Node5&#45;&gt;Node8</title>
<g id="a_edge9_Node000005_Node000008"><a xlink:title=" ">
<path fill="none" stroke="#63b8ff" d="M628.27,-93.09C640.66,-96.11 654.4,-99.45 667,-102.5 675.23,-104.49 683.97,-106.6 692.47,-108.64"/>
<polygon fill="#63b8ff" stroke="#63b8ff" points="691.75,-112.06 702.29,-111 693.39,-105.26 691.75,-112.06"/>
</a>
</g>
</g>
<!-- Node9 -->
<g id="Node000009" class="node">
<title>Node9</title>
<g id="a_Node000009"><a xlink:href="class_sequence.html#a49a9126010c0332493c803ddca005394" target="_top" xlink:title="Give a map that compress / decompress char used by Sequence.">
<polygon fill="white" stroke="#666666" points="812.5,-93 673.5,-93 673.5,-74 812.5,-74 812.5,-93"/>
<text text-anchor="middle" x="743" y="-81" font-family="Helvetica,sans-Serif" font-size="10.00">Sequence::translationTab</text>
</a>
</g>
</g>
<!-- Node5&#45;&gt;Node9 -->
<g id="edge10_Node000005_Node000009" class="edge">
<title>Node5&#45;&gt;Node9</title>
<g id="a_edge10_Node000005_Node000009"><a xlink:title=" ">
<path fill="none" stroke="#63b8ff" d="M631.21,-77.39C641.24,-76.99 652.25,-76.78 663.32,-76.75"/>
<polygon fill="#63b8ff" stroke="#63b8ff" points="663.47,-80.25 673.48,-76.78 663.49,-73.25 663.47,-80.25"/>
</a>
</g>
</g>
<!-- Node6&#45;&gt;Node6 -->
<g id="edge6_Node000006_Node000006" class="edge">
<title>Node6&#45;&gt;Node6</title>
<g id="a_edge6_Node000006_Node000006"><a xlink:title=" ">
<path fill="none" stroke="#63b8ff" d="M719.26,-167.08C707.72,-175.73 715.63,-185 743,-185 760.96,-185 770.54,-181.01 771.75,-175.82"/>
<polygon fill="#63b8ff" stroke="#63b8ff" points="774.75,-174.02 766.74,-167.08 768.67,-177.5 774.75,-174.02"/>
</a>
</g>
</g>
<!-- Node7 -->
<g id="Node000007" class="node">
<title>Node7</title>
<g id="a_Node000007"><a xlink:href="class_bit_vector_1_1_coords.html#a2892f7f46c4af93f9733e312229d8ec1" target="_top" xlink:title="Get Coords::octet .">
<polygon fill="white" stroke="#666666" points="972.5,-172.5 865.5,-172.5 865.5,-142.5 972.5,-142.5 972.5,-172.5"/>
<text text-anchor="start" x="873.5" y="-160.5" font-family="Helvetica,sans-Serif" font-size="10.00">BitVector::Coords::</text>
<text text-anchor="middle" x="919" y="-149.5" font-family="Helvetica,sans-Serif" font-size="10.00">getOctet</text>
</a>
</g>
</g>
<!-- Node6&#45;&gt;Node7 -->
<g id="edge7_Node000006_Node000007" class="edge">
<title>Node6&#45;&gt;Node7</title>
<g id="a_edge7_Node000006_Node000007"><a xlink:title=" ">
<path fill="none" stroke="#63b8ff" d="M784.8,-157.5C805.71,-157.5 831.64,-157.5 855.05,-157.5"/>
<polygon fill="#63b8ff" stroke="#63b8ff" points="855.25,-161 865.25,-157.5 855.25,-154 855.25,-161"/>
</a>
</g>
</g>
<!-- Node9&#45;&gt;Node5 -->
<g id="edge16_Node000009_Node000005" class="edge">
<title>Node9&#45;&gt;Node5</title>
<g id="a_edge16_Node000009_Node000005"><a xlink:title=" ">
<path fill="none" stroke="#63b8ff" d="M673.48,-90.22C662.68,-90.31 651.67,-90.21 641.32,-89.94"/>
<polygon fill="#63b8ff" stroke="#63b8ff" points="641.32,-86.44 631.21,-89.61 641.09,-93.44 641.32,-86.44"/>
</a>
</g>
</g>
<!-- Node10 -->
<g id="Node000010" class="node">
<title>Node10</title>
<g id="a_Node000010"><a xlink:href="class_sequence.html#a555c6e58957c4d07028eb5c67b1732ac" target="_top" xlink:title="Function used by Sequence::translationTab to create their compression map.">
<polygon fill="white" stroke="#666666" points="983,-74 855,-74 855,-55 983,-55 983,-74"/>
<text text-anchor="middle" x="919" y="-62" font-family="Helvetica,sans-Serif" font-size="10.00">Sequence::fillCodeMap</text>
</a>
</g>
</g>
<!-- Node9&#45;&gt;Node10 -->
<g id="edge11_Node000009_Node000010" class="edge">
<title>Node9&#45;&gt;Node10</title>
<g id="a_edge11_Node000009_Node000010"><a xlink:title=" ">
<path fill="none" stroke="#63b8ff" d="M812.77,-75.99C823.28,-74.84 834.16,-73.65 844.76,-72.5"/>
<polygon fill="#63b8ff" stroke="#63b8ff" points="845.26,-75.96 854.82,-71.4 844.5,-69.01 845.26,-75.96"/>
</a>
</g>
</g>
<!-- Node10&#45;&gt;Node5 -->
<g id="edge12_Node000010_Node000005" class="edge">
<title>Node10&#45;&gt;Node5</title>
<g id="a_edge12_Node000010_Node000005"><a xlink:title=" ">
<path fill="none" stroke="#63b8ff" d="M854.85,-60.88C803.95,-58.89 730.63,-58.12 667,-65.5 655.8,-66.8 643.86,-69.08 632.77,-71.6"/>
<polygon fill="#63b8ff" stroke="#63b8ff" points="631.8,-68.23 622.88,-73.95 633.42,-75.04 631.8,-68.23"/>
</a>
</g>
</g>
<!-- Node11 -->
<g id="Node000011" class="node">
<title>Node11</title>
<g id="a_Node000011"><a xlink:href="class_sequence.html#acf21040958590f98163b3d11f19ea93e" target="_top" xlink:title="Give the number of element contained in this sequence.">
<polygon fill="white" stroke="#666666" points="1108,-74 1019,-74 1019,-55 1108,-55 1108,-74"/>
<text text-anchor="middle" x="1063.5" y="-62" font-family="Helvetica,sans-Serif" font-size="10.00">Sequence::size</text>
</a>
</g>
</g>
<!-- Node10&#45;&gt;Node11 -->
<g id="edge13_Node000010_Node000011" class="edge">
<title>Node10&#45;&gt;Node11</title>
<g id="a_edge13_Node000010_Node000011"><a xlink:title=" ">
<path fill="none" stroke="#63b8ff" d="M983.33,-64.5C991.8,-64.5 1000.42,-64.5 1008.7,-64.5"/>
<polygon fill="#63b8ff" stroke="#63b8ff" points="1008.98,-68 1018.98,-64.5 1008.98,-61 1008.98,-68"/>
</a>
</g>
</g>
<!-- Node12 -->
<g id="Node000012" class="node">
<title>Node12</title>
<g id="a_Node000012"><a xlink:href="class_bit_vector.html#ab30ea2b408107e4e6bc8095b5a64a1dd" target="_top" xlink:title="Number of element inside this object.">
<polygon fill="white" stroke="#666666" points="1230,-74 1144,-74 1144,-55 1230,-55 1230,-74"/>
<text text-anchor="middle" x="1187" y="-62" font-family="Helvetica,sans-Serif" font-size="10.00">BitVector::size</text>
</a>
</g>
</g>
<!-- Node11&#45;&gt;Node12 -->
<g id="edge14_Node000011_Node000012" class="edge">
<title>Node11&#45;&gt;Node12</title>
<g id="a_edge14_Node000011_Node000012"><a xlink:title=" ">
<path fill="none" stroke="#63b8ff" d="M1108.02,-64.5C1116.25,-64.5 1124.94,-64.5 1133.41,-64.5"/>
<polygon fill="#63b8ff" stroke="#63b8ff" points="1133.6,-68 1143.6,-64.5 1133.6,-61 1133.6,-68"/>
</a>
</g>
</g>
<!-- Node13 -->
<g id="Node000013" class="node">
<title>Node13</title>
<g id="a_Node000013"><a xlink:href="class_bit_vector.html#a5339660cfb315ab5de7f78bdf5af4ce1" target="_top" xlink:title="Get BitVector::_element_number.">
<polygon fill="white" stroke="#666666" points="1428,-74 1266,-74 1266,-55 1428,-55 1428,-74"/>
<text text-anchor="middle" x="1347" y="-62" font-family="Helvetica,sans-Serif" font-size="10.00">BitVector::getElementNumber</text>
</a>
</g>
</g>
<!-- Node12&#45;&gt;Node13 -->
<g id="edge15_Node000012_Node000013" class="edge">
<title>Node12&#45;&gt;Node13</title>
<g id="a_edge15_Node000012_Node000013"><a xlink:title=" ">
<path fill="none" stroke="#63b8ff" d="M1230.34,-64.5C1238.23,-64.5 1246.74,-64.5 1255.44,-64.5"/>
<polygon fill="#63b8ff" stroke="#63b8ff" points="1255.71,-68 1265.71,-64.5 1255.71,-61 1255.71,-68"/>
</a>
</g>
</g>
<!-- Node14&#45;&gt;Node5 -->
<g id="edge18_Node000014_Node000005" class="edge">
<title>Node14&#45;&gt;Node5</title>
<g id="a_edge18_Node000014_Node000005"><a xlink:title=" ">
<path fill="none" stroke="#63b8ff" d="M326.8,-119.59C374.93,-117.31 446.98,-112.48 509,-102.5 520.17,-100.7 532.09,-98.14 543.17,-95.47"/>
<polygon fill="#63b8ff" stroke="#63b8ff" points="544.21,-98.82 553.07,-93.01 542.52,-92.02 544.21,-98.82"/>
</a>
</g>
</g>
<!-- Node15 -->
<g id="Node000015" class="node">
<title>Node15</title>
<g id="a_Node000015"><a xlink:href="class_sequence.html#a1c338fe40d1251531461f2a737f235cd" target="_top" xlink:title="Say if a symbol can be an amino acid.">
<polygon fill="white" stroke="#666666" points="509,-93 373,-93 373,-74 509,-74 509,-93"/>
<text text-anchor="middle" x="441" y="-81" font-family="Helvetica,sans-Serif" font-size="10.00">Sequence::isLegalAmino</text>
</a>
</g>
</g>
<!-- Node14&#45;&gt;Node15 -->
<g id="edge19_Node000014_Node000015" class="edge">
<title>Node14&#45;&gt;Node15</title>
<g id="a_edge19_Node000014_Node000015"><a xlink:title=" ">
<path fill="none" stroke="#63b8ff" d="M314.77,-111.91C337.07,-106.85 364.62,-100.6 388.2,-95.25"/>
<polygon fill="#63b8ff" stroke="#63b8ff" points="389.06,-98.65 398.04,-93.02 387.51,-91.82 389.06,-98.65"/>
</a>
</g>
</g>
<!-- Node15&#45;&gt;Node5 -->
<g id="edge20_Node000015_Node000005" class="edge">
<title>Node15&#45;&gt;Node5</title>
<g id="a_edge20_Node000015_Node000005"><a xlink:title=" ">
<path fill="none" stroke="#63b8ff" d="M509.41,-83.5C517.93,-83.5 526.56,-83.5 534.8,-83.5"/>
<polygon fill="#63b8ff" stroke="#63b8ff" points="535,-87 545,-83.5 535,-80 535,-87"/>
</a>
</g>
</g>
<!-- Node16&#45;&gt;Node5 -->
<g id="edge22_Node000016_Node000005" class="edge">
<title>Node16&#45;&gt;Node5</title>
<g id="a_edge22_Node000016_Node000005"><a xlink:title=" ">
<path fill="none" stroke="#63b8ff" d="M479.34,-56.03C497.71,-60.71 520.04,-66.41 539.6,-71.4"/>
<polygon fill="#63b8ff" stroke="#63b8ff" points="538.98,-74.86 549.53,-73.94 540.71,-68.08 538.98,-74.86"/>
</a>
</g>
</g>
<!-- Node17&#45;&gt;Node5 -->
<g id="edge24_Node000017_Node000005" class="edge">
<title>Node17&#45;&gt;Node5</title>
<g id="a_edge24_Node000017_Node000005"><a xlink:title=" ">
<path fill="none" stroke="#63b8ff" d="M486.42,-19.01C494.12,-21.34 501.93,-24.15 509,-27.5 531.04,-37.94 553.36,-54.74 568.44,-67.21"/>
<polygon fill="#63b8ff" stroke="#63b8ff" points="566.54,-70.19 576.43,-73.98 571.06,-64.85 566.54,-70.19"/>
</a>
</g>
</g>
</g>
</svg>

<g id="navigator" transform="translate(0 0)" fill="#404254">
  <rect fill="#f2f5e9" fill-opacity="0.5" stroke="#606060" stroke-width=".5" x="0" y="0" width="60" height="60"/>
  <use id="zoomplus" xlink:href="#zoomPlus" x="17" y="9" onmousedown="handleZoom(evt,'in')"/>
  <use id="zoomminus" xlink:href="#zoomMin" x="42" y="9" onmousedown="handleZoom(evt,'out')"/>
  <use id="reset" xlink:href="#resetDef" x="30" y="36" onmousedown="handleReset()"/>
   <use id="arrowup" xlink:href="#arrowUp" x="0" y="0" onmousedown="handlePan(0,-1)"/>
  <use id="arrowright" xlink:href="#arrowRight" x="0" y="0" onmousedown="handlePan(1,0)"/>
  <use id="arrowdown" xlink:href="#arrowDown" x="0" y="0" onmousedown="handlePan(0,1)"/>
  <use id="arrowleft" xlink:href="#arrowLeft" x="0" y="0" onmousedown="handlePan(-1,0)"/>
</g>
<svg viewBox="0 0 15 15" width="100%" height="30px" preserveAspectRatio="xMaxYMin meet">
 <g id="arrow_out" transform="scale(0.3 0.3)">
  <a xlink:href="class_sequence_af4dfd329689bebc4131b422d7974ca4e_cgraph_org.svg" target="_base">
   <rect id="button" ry="5" rx="5" y="6" x="6" height="38" width="38"
        fill="#f2f5e9" fill-opacity="0.5" stroke="#606060" stroke-width="1.0"/>
   <path id="arrow"
     d="M 11.500037,31.436501 C 11.940474,20.09759 22.043105,11.32322 32.158766,21.979434 L 37.068811,17.246167 C 37.068811,17.246167 37.088388,32 37.088388,32 L 22.160133,31.978069 C 22.160133,31.978069 26.997745,27.140456 26.997745,27.140456 C 18.528582,18.264221 13.291696,25.230495 11.500037,31.436501 z"
     style="fill:#404040;"/>
  </a>
 </g>
</svg>

<style type='text/css'>
<![CDATA[
[data-mouse-over-selected='false'] { opacity: 0.7; }
[data-mouse-over-selected='true']  { opacity: 1.0; }
]]>
</style>
<script type="application/ecmascript"><![CDATA[
document.addEventListener('DOMContentLoaded', (event) => {
  highlightEdges();
  highlightAdjacentNodes();
});
]]></script>
</svg>
