<?xml version="1.0" encoding="UTF-8" standalone="no"?>
<!DOCTYPE svg PUBLIC "-//W3C//DTD SVG 1.1//EN"
 "http://www.w3.org/Graphics/SVG/1.1/DTD/svg11.dtd">
<!-- Generated by graphviz version 2.43.0 (0)
 -->
<!-- Title: Sequence::isNucleic Pages: 1 -->
<svg width="1177pt" height="156pt"
 viewBox="0.00 0.00 1177.00 156.00" xmlns="http://www.w3.org/2000/svg" xmlns:xlink="http://www.w3.org/1999/xlink">
<g id="graph0" class="graph" transform="scale(1 1) rotate(0) translate(4 152)">
<title>Sequence::isNucleic</title>
<!-- Node1 -->
<g id="Node000001" class="node">
<title>Node1</title>
<g id="a_Node000001"><a xlink:title="Say if a symbol can be an acid nucleic.">
<polygon fill="#999999" stroke="#666666" points="114,-56 0,-56 0,-37 114,-37 114,-56"/>
<text text-anchor="middle" x="57" y="-44" font-family="Helvetica,sans-Serif" font-size="10.00">Sequence::isNucleic</text>
</a>
</g>
</g>
<!-- Node2 -->
<g id="Node000002" class="node">
<title>Node2</title>
<g id="a_Node000002"><a xlink:href="class_sequence.html#ad40777fd2f7ad3ae247fab02459e6759" target="_top" xlink:title="Retrieve the symbol at the position in the sequence.">
<polygon fill="white" stroke="#666666" points="372,-56 286,-56 286,-37 372,-37 372,-56"/>
<text text-anchor="middle" x="329" y="-44" font-family="Helvetica,sans-Serif" font-size="10.00">Sequence::get</text>
</a>
</g>
</g>
<!-- Node1&#45;&gt;Node2 -->
<g id="edge1_Node000001_Node000002" class="edge">
<title>Node1&#45;&gt;Node2</title>
<g id="a_edge1_Node000001_Node000002"><a xlink:title=" ">
<path fill="none" stroke="#63b8ff" d="M95.33,-56.01C111.95,-59.77 131.83,-63.64 150,-65.5 194.21,-70.02 205.87,-70.8 250,-65.5 261.99,-64.06 274.79,-61.42 286.49,-58.56"/>
<polygon fill="#63b8ff" stroke="#63b8ff" points="287.62,-61.88 296.44,-56.01 285.88,-55.1 287.62,-61.88"/>
</a>
</g>
</g>
<!-- Node11 -->
<g id="Node000011" class="node">
<title>Node11</title>
<g id="a_Node000011"><a xlink:href="class_sequence.html#a14cf335c6053ca586d4e1694898575cf" target="_top" xlink:title="Say if a symbol can be an acid nucleic related to DNA.">
<polygon fill="white" stroke="#666666" points="250,-56 150,-56 150,-37 250,-37 250,-56"/>
<text text-anchor="middle" x="200" y="-44" font-family="Helvetica,sans-Serif" font-size="10.00">Sequence::isDNA</text>
</a>
</g>
</g>
<!-- Node1&#45;&gt;Node11 -->
<g id="edge14_Node000001_Node000011" class="edge">
<title>Node1&#45;&gt;Node11</title>
<g id="a_edge14_Node000001_Node000011"><a xlink:title=" ">
<path fill="none" stroke="#63b8ff" d="M114.13,-46.5C122.54,-46.5 131.23,-46.5 139.7,-46.5"/>
<polygon fill="#63b8ff" stroke="#63b8ff" points="139.89,-50 149.89,-46.5 139.89,-43 139.89,-50"/>
</a>
</g>
</g>
<!-- Node12 -->
<g id="Node000012" class="node">
<title>Node12</title>
<g id="a_Node000012"><a xlink:href="class_sequence.html#ad04d994668bcc5d29c6813fcbc28dfb6" target="_top" xlink:title="Say if a symbol can be an acid nucleic related to RNA.">
<polygon fill="white" stroke="#666666" points="249.5,-19 150.5,-19 150.5,0 249.5,0 249.5,-19"/>
<text text-anchor="middle" x="200" y="-7" font-family="Helvetica,sans-Serif" font-size="10.00">Sequence::isRNA</text>
</a>
</g>
</g>
<!-- Node1&#45;&gt;Node12 -->
<g id="edge16_Node000001_Node000012" class="edge">
<title>Node1&#45;&gt;Node12</title>
<g id="a_edge16_Node000001_Node000012"><a xlink:title=" ">
<path fill="none" stroke="#63b8ff" d="M94.31,-36.97C112.02,-32.33 133.52,-26.68 152.42,-21.72"/>
<polygon fill="#63b8ff" stroke="#63b8ff" points="153.54,-25.05 162.32,-19.12 151.76,-18.28 153.54,-25.05"/>
</a>
</g>
</g>
<!-- Node2&#45;&gt;Node2 -->
<g id="edge5_Node000002_Node000002" class="edge">
<title>Node2&#45;&gt;Node2</title>
<g id="a_edge5_Node000002_Node000002"><a xlink:title=" ">
<path fill="none" stroke="#63b8ff" d="M309.27,-56.08C299.67,-64.73 306.25,-74 329,-74 343.22,-74 351.12,-70.38 352.7,-65.55"/>
<polygon fill="#63b8ff" stroke="#63b8ff" points="355.83,-63.95 348.73,-56.08 349.37,-66.66 355.83,-63.95"/>
</a>
</g>
</g>
<!-- Node3 -->
<g id="Node000003" class="node">
<title>Node3</title>
<g id="a_Node000003"><a xlink:href="class_bit_vector.html#aebe159444eb9d619959b7325ac5dac2d" target="_top" xlink:title="Return the value of the bit at the position coord.">
<polygon fill="white" stroke="#666666" points="525.5,-130 442.5,-130 442.5,-111 525.5,-111 525.5,-130"/>
<text text-anchor="middle" x="484" y="-118" font-family="Helvetica,sans-Serif" font-size="10.00">BitVector::get</text>
</a>
</g>
</g>
<!-- Node2&#45;&gt;Node3 -->
<g id="edge2_Node000002_Node000003" class="edge">
<title>Node2&#45;&gt;Node3</title>
<g id="a_edge2_Node000002_Node000003"><a xlink:title=" ">
<path fill="none" stroke="#63b8ff" d="M340.76,-56.34C355.07,-68.9 381.62,-90.43 408,-102.5 415.7,-106.02 424.18,-108.91 432.57,-111.25"/>
<polygon fill="#63b8ff" stroke="#63b8ff" points="431.78,-114.66 442.34,-113.75 433.52,-107.88 431.78,-114.66"/>
</a>
</g>
</g>
<!-- Node5 -->
<g id="Node000005" class="node">
<title>Node5</title>
<g id="a_Node000005"><a xlink:href="class_sequence.html#a8181f024304b3fb5f55c7118f648cc61" target="_top" xlink:title="Return a char (same format as Sequence::getType()) that indicate which alphabet is used in the during...">
<polygon fill="white" stroke="#666666" points="560,-93 408,-93 408,-74 560,-74 560,-93"/>
<text text-anchor="middle" x="484" y="-81" font-family="Helvetica,sans-Serif" font-size="10.00">Sequence::getEncodingType</text>
</a>
</g>
</g>
<!-- Node2&#45;&gt;Node5 -->
<g id="edge6_Node000002_Node000005" class="edge">
<title>Node2&#45;&gt;Node5</title>
<g id="a_edge6_Node000002_Node000005"><a xlink:title=" ">
<path fill="none" stroke="#63b8ff" d="M369.27,-56.09C381.66,-59.11 395.4,-62.45 408,-65.5 416.23,-67.49 424.97,-69.6 433.47,-71.64"/>
<polygon fill="#63b8ff" stroke="#63b8ff" points="432.75,-75.06 443.29,-74 434.39,-68.26 432.75,-75.06"/>
</a>
</g>
</g>
<!-- Node6 -->
<g id="Node000006" class="node">
<title>Node6</title>
<g id="a_Node000006"><a xlink:href="class_sequence.html#a49a9126010c0332493c803ddca005394" target="_top" xlink:title="Give a map that compress / decompress char used by Sequence.">
<polygon fill="white" stroke="#666666" points="553.5,-56 414.5,-56 414.5,-37 553.5,-37 553.5,-56"/>
<text text-anchor="middle" x="484" y="-44" font-family="Helvetica,sans-Serif" font-size="10.00">Sequence::translationTab</text>
</a>
</g>
</g>
<!-- Node2&#45;&gt;Node6 -->
<g id="edge7_Node000002_Node000006" class="edge">
<title>Node2&#45;&gt;Node6</title>
<g id="a_edge7_Node000002_Node000006"><a xlink:title=" ">
<path fill="none" stroke="#63b8ff" d="M372.21,-40.39C382.24,-39.99 393.25,-39.78 404.32,-39.75"/>
<polygon fill="#63b8ff" stroke="#63b8ff" points="404.47,-43.25 414.48,-39.78 404.49,-36.25 404.47,-43.25"/>
</a>
</g>
</g>
<!-- Node3&#45;&gt;Node3 -->
<g id="edge3_Node000003_Node000003" class="edge">
<title>Node3&#45;&gt;Node3</title>
<g id="a_edge3_Node000003_Node000003"><a xlink:title=" ">
<path fill="none" stroke="#63b8ff" d="M460.26,-130.08C448.72,-138.73 456.63,-148 484,-148 501.96,-148 511.54,-144.01 512.75,-138.82"/>
<polygon fill="#63b8ff" stroke="#63b8ff" points="515.75,-137.02 507.74,-130.08 509.67,-140.5 515.75,-137.02"/>
</a>
</g>
</g>
<!-- Node4 -->
<g id="Node000004" class="node">
<title>Node4</title>
<g id="a_Node000004"><a xlink:href="class_bit_vector_1_1_coords.html#a2892f7f46c4af93f9733e312229d8ec1" target="_top" xlink:title="Get Coords::octet .">
<polygon fill="white" stroke="#666666" points="713.5,-135.5 606.5,-135.5 606.5,-105.5 713.5,-105.5 713.5,-135.5"/>
<text text-anchor="start" x="614.5" y="-123.5" font-family="Helvetica,sans-Serif" font-size="10.00">BitVector::Coords::</text>
<text text-anchor="middle" x="660" y="-112.5" font-family="Helvetica,sans-Serif" font-size="10.00">getOctet</text>
</a>
</g>
</g>
<!-- Node3&#45;&gt;Node4 -->
<g id="edge4_Node000003_Node000004" class="edge">
<title>Node3&#45;&gt;Node4</title>
<g id="a_edge4_Node000003_Node000004"><a xlink:title=" ">
<path fill="none" stroke="#63b8ff" d="M525.8,-120.5C546.71,-120.5 572.64,-120.5 596.05,-120.5"/>
<polygon fill="#63b8ff" stroke="#63b8ff" points="596.25,-124 606.25,-120.5 596.25,-117 596.25,-124"/>
</a>
</g>
</g>
<!-- Node6&#45;&gt;Node2 -->
<g id="edge13_Node000006_Node000002" class="edge">
<title>Node6&#45;&gt;Node2</title>
<g id="a_edge13_Node000006_Node000002"><a xlink:title=" ">
<path fill="none" stroke="#63b8ff" d="M414.48,-53.22C403.68,-53.31 392.67,-53.21 382.32,-52.94"/>
<polygon fill="#63b8ff" stroke="#63b8ff" points="382.32,-49.44 372.21,-52.61 382.09,-56.44 382.32,-49.44"/>
</a>
</g>
</g>
<!-- Node7 -->
<g id="Node000007" class="node">
<title>Node7</title>
<g id="a_Node000007"><a xlink:href="class_sequence.html#a555c6e58957c4d07028eb5c67b1732ac" target="_top" xlink:title="Function used by Sequence::translationTab to create their compression map.">
<polygon fill="white" stroke="#666666" points="724,-37 596,-37 596,-18 724,-18 724,-37"/>
<text text-anchor="middle" x="660" y="-25" font-family="Helvetica,sans-Serif" font-size="10.00">Sequence::fillCodeMap</text>
</a>
</g>
</g>
<!-- Node6&#45;&gt;Node7 -->
<g id="edge8_Node000006_Node000007" class="edge">
<title>Node6&#45;&gt;Node7</title>
<g id="a_edge8_Node000006_Node000007"><a xlink:title=" ">
<path fill="none" stroke="#63b8ff" d="M553.77,-38.99C564.28,-37.84 575.16,-36.65 585.76,-35.5"/>
<polygon fill="#63b8ff" stroke="#63b8ff" points="586.26,-38.96 595.82,-34.4 585.5,-32.01 586.26,-38.96"/>
</a>
</g>
</g>
<!-- Node7&#45;&gt;Node2 -->
<g id="edge9_Node000007_Node000002" class="edge">
<title>Node7&#45;&gt;Node2</title>
<g id="a_edge9_Node000007_Node000002"><a xlink:title=" ">
<path fill="none" stroke="#63b8ff" d="M595.83,-23.35C544.92,-21 471.6,-19.87 408,-27.5 396.01,-28.94 383.21,-31.58 371.51,-34.44"/>
<polygon fill="#63b8ff" stroke="#63b8ff" points="370.38,-31.12 361.56,-36.99 372.12,-37.9 370.38,-31.12"/>
</a>
</g>
</g>
<!-- Node8 -->
<g id="Node000008" class="node">
<title>Node8</title>
<g id="a_Node000008"><a xlink:href="class_sequence.html#acf21040958590f98163b3d11f19ea93e" target="_top" xlink:title="Give the number of element contained in this sequence.">
<polygon fill="white" stroke="#666666" points="849,-37 760,-37 760,-18 849,-18 849,-37"/>
<text text-anchor="middle" x="804.5" y="-25" font-family="Helvetica,sans-Serif" font-size="10.00">Sequence::size</text>
</a>
</g>
</g>
<!-- Node7&#45;&gt;Node8 -->
<g id="edge10_Node000007_Node000008" class="edge">
<title>Node7&#45;&gt;Node8</title>
<g id="a_edge10_Node000007_Node000008"><a xlink:title=" ">
<path fill="none" stroke="#63b8ff" d="M724.33,-27.5C732.8,-27.5 741.42,-27.5 749.7,-27.5"/>
<polygon fill="#63b8ff" stroke="#63b8ff" points="749.98,-31 759.98,-27.5 749.98,-24 749.98,-31"/>
</a>
</g>
</g>
<!-- Node9 -->
<g id="Node000009" class="node">
<title>Node9</title>
<g id="a_Node000009"><a xlink:href="class_bit_vector.html#ab30ea2b408107e4e6bc8095b5a64a1dd" target="_top" xlink:title="Number of element inside this object.">
<polygon fill="white" stroke="#666666" points="971,-37 885,-37 885,-18 971,-18 971,-37"/>
<text text-anchor="middle" x="928" y="-25" font-family="Helvetica,sans-Serif" font-size="10.00">BitVector::size</text>
</a>
</g>
</g>
<!-- Node8&#45;&gt;Node9 -->
<g id="edge11_Node000008_Node000009" class="edge">
<title>Node8&#45;&gt;Node9</title>
<g id="a_edge11_Node000008_Node000009"><a xlink:title=" ">
<path fill="none" stroke="#63b8ff" d="M849.02,-27.5C857.25,-27.5 865.94,-27.5 874.41,-27.5"/>
<polygon fill="#63b8ff" stroke="#63b8ff" points="874.6,-31 884.6,-27.5 874.6,-24 874.6,-31"/>
</a>
</g>
</g>
<!-- Node10 -->
<g id="Node000010" class="node">
<title>Node10</title>
<g id="a_Node000010"><a xlink:href="class_bit_vector.html#a5339660cfb315ab5de7f78bdf5af4ce1" target="_top" xlink:title="Get BitVector::_element_number.">
<polygon fill="white" stroke="#666666" points="1169,-37 1007,-37 1007,-18 1169,-18 1169,-37"/>
<text text-anchor="middle" x="1088" y="-25" font-family="Helvetica,sans-Serif" font-size="10.00">BitVector::getElementNumber</text>
</a>
</g>
</g>
<!-- Node9&#45;&gt;Node10 -->
<g id="edge12_Node000009_Node000010" class="edge">
<title>Node9&#45;&gt;Node10</title>
<g id="a_edge12_Node000009_Node000010"><a xlink:title=" ">
<path fill="none" stroke="#63b8ff" d="M971.34,-27.5C979.23,-27.5 987.74,-27.5 996.44,-27.5"/>
<polygon fill="#63b8ff" stroke="#63b8ff" points="996.71,-31 1006.71,-27.5 996.71,-24 996.71,-31"/>
</a>
</g>
</g>
<!-- Node11&#45;&gt;Node2 -->
<g id="edge15_Node000011_Node000002" class="edge">
<title>Node11&#45;&gt;Node2</title>
<g id="a_edge15_Node000011_Node000002"><a xlink:title=" ">
<path fill="none" stroke="#63b8ff" d="M250.1,-46.5C258.44,-46.5 267.12,-46.5 275.54,-46.5"/>
<polygon fill="#63b8ff" stroke="#63b8ff" points="275.64,-50 285.64,-46.5 275.64,-43 275.64,-50"/>
</a>
</g>
</g>
<!-- Node12&#45;&gt;Node2 -->
<g id="edge17_Node000012_Node000002" class="edge">
<title>Node12&#45;&gt;Node2</title>
<g id="a_edge17_Node000012_Node000002"><a xlink:title=" ">
<path fill="none" stroke="#63b8ff" d="M233.71,-19.03C249.43,-23.61 268.49,-29.16 285.34,-34.07"/>
<polygon fill="#63b8ff" stroke="#63b8ff" points="284.38,-37.44 294.96,-36.88 286.34,-30.72 284.38,-37.44"/>
</a>
</g>
</g>
</g>
</svg>
