<?xml version="1.0" encoding="UTF-8" standalone="no"?>
<!DOCTYPE svg PUBLIC "-//W3C//DTD SVG 1.1//EN"
 "http://www.w3.org/Graphics/SVG/1.1/DTD/svg11.dtd">
<!-- Generated by graphviz version 2.43.0 (0)
 -->
<!-- Title: BitVector::currentElementCapacity Pages: 1 -->
<svg width="487pt" height="38pt"
 viewBox="0.00 0.00 487.00 38.00" xmlns="http://www.w3.org/2000/svg" xmlns:xlink="http://www.w3.org/1999/xlink">
<g id="graph0" class="graph" transform="scale(1 1) rotate(0) translate(4 34)">
<title>BitVector::currentElementCapacity</title>
<!-- Node1 -->
<g id="Node000001" class="node">
<title>Node1</title>
<g id="a_Node000001"><a xlink:title="How many element can fit in this vector without having to resize the vector ?">
<polygon fill="#999999" stroke="#666666" points="479,-30 337,-30 337,0 479,0 479,-30"/>
<text text-anchor="start" x="345" y="-18" font-family="Helvetica,sans-Serif" font-size="10.00">BitVector::currentElement</text>
<text text-anchor="middle" x="408" y="-7" font-family="Helvetica,sans-Serif" font-size="10.00">Capacity</text>
</a>
</g>
</g>
<!-- Node2 -->
<g id="Node000002" class="node">
<title>Node2</title>
<g id="a_Node000002"><a xlink:href="class_bit_vector.html#ad60f42244db2c82260326605916431d3" target="_top" xlink:title="Modify the number of known element in this object.">
<polygon fill="white" stroke="#666666" points="301,-24.5 140,-24.5 140,-5.5 301,-5.5 301,-24.5"/>
<text text-anchor="middle" x="220.5" y="-12.5" font-family="Helvetica,sans-Serif" font-size="10.00">BitVector::setElementNumber</text>
</a>
</g>
</g>
<!-- Node1&#45;&gt;Node2 -->
<g id="edge1_Node000001_Node000002" class="edge">
<title>Node1&#45;&gt;Node2</title>
<g id="a_edge1_Node000001_Node000002"><a xlink:title=" ">
<path fill="none" stroke="#63b8ff" d="M326.62,-15C318.14,-15 309.52,-15 301.06,-15"/>
<polygon fill="#63b8ff" stroke="#63b8ff" points="326.87,-18.5 336.87,-15 326.87,-11.5 326.87,-18.5"/>
</a>
</g>
</g>
<!-- Node3 -->
<g id="Node000003" class="node">
<title>Node3</title>
<g id="a_Node000003"><a xlink:href="class_bit_vector.html#a87f84edf5dd56606b26e8741ba6ced02" target="_top" xlink:title="Remove a number of element from the vector.">
<polygon fill="white" stroke="#666666" points="104,-24.5 0,-24.5 0,-5.5 104,-5.5 104,-24.5"/>
<text text-anchor="middle" x="52" y="-12.5" font-family="Helvetica,sans-Serif" font-size="10.00">BitVector::remove</text>
</a>
</g>
</g>
<!-- Node2&#45;&gt;Node3 -->
<g id="edge2_Node000002_Node000003" class="edge">
<title>Node2&#45;&gt;Node3</title>
<g id="a_edge2_Node000002_Node000003"><a xlink:title=" ">
<path fill="none" stroke="#63b8ff" d="M129.52,-15C120.9,-15 112.38,-15 104.33,-15"/>
<polygon fill="#63b8ff" stroke="#63b8ff" points="129.66,-18.5 139.66,-15 129.66,-11.5 129.66,-18.5"/>
</a>
</g>
</g>
</g>
</svg>
