<?xml version="1.0" encoding="UTF-8" standalone="no"?>
<!DOCTYPE svg PUBLIC "-//W3C//DTD SVG 1.1//EN"
 "http://www.w3.org/Graphics/SVG/1.1/DTD/svg11.dtd">
<!-- Generated by graphviz version 2.43.0 (0)
 -->
<!-- Title: BitVector::getSize_tUnit Pages: 1 -->
<!--zoomable 566 -->

<svg id="main" version="1.1" xmlns="http://www.w3.org/2000/svg" xmlns:xlink="http://www.w3.org/1999/xlink" xml:space="preserve" onload="init(evt)">
<style type="text/css"><![CDATA[
.node, .edge {opacity: 0.7;}
.node.selected, .edge.selected {opacity: 1;}
.edge:hover path { stroke: red; }
.edge:hover polygon { stroke: red; fill: red; }
]]></style>

<defs>
  <circle id="rim" cx="0" cy="0" r="7"/>
  <circle id="rim2" cx="0" cy="0" r="3.5"/>
  <g id="zoomPlus">
    <use xlink:href="#rim" fill="#404040"><set attributeName="fill" to="#808080" begin="zoomplus.mouseover" end="zoomplus.mouseout"/></use>
    <path d="M-4,0h8M0,-4v8" fill="none" stroke="white" stroke-width="1.5" pointer-events="none"/>
  </g>
  <g id="zoomMin">
    <use xlink:href="#rim" fill="#404040"><set attributeName="fill" to="#808080" begin="zoomminus.mouseover" end="zoomminus.mouseout"/></use>
    <path d="M-4,0h8" fill="none" stroke="white" stroke-width="1.5" pointer-events="none"/>
  </g>
  <g id="arrowUp" transform="translate(30 24)">
    <use xlink:href="#rim"/>
    <path pointer-events="none" fill="none" stroke="white" stroke-width="1.5" d="M0,-3.0v7 M-2.5,-0.5L0,-3.0L2.5,-0.5"/>
  </g>
  <g id="arrowRight" transform="rotate(90) translate(36 -43)">
    <use xlink:href="#rim"/>
    <path pointer-events="none" fill="none" stroke="white" stroke-width="1.5" d="M0,-3.0v7 M-2.5,-0.5L0,-3.0L2.5,-0.5"/>
  </g>
  <g id="arrowDown" transform="rotate(180) translate(-30 -48)">
    <use xlink:href="#rim"/>
    <path pointer-events="none" fill="none" stroke="white" stroke-width="1.5" d="M0,-3.0v7 M-2.5,-0.5L0,-3.0L2.5,-0.5"/>
  </g>
  <g id="arrowLeft" transform="rotate(270) translate(-36 17)">
    <use xlink:href="#rim"/>
    <path pointer-events="none" fill="none" stroke="white" stroke-width="1.5" d="M0,-3.0v7 M-2.5,-0.5L0,-3.0L2.5,-0.5"/>
  </g>
  <g id="resetDef">
    <use xlink:href="#rim2" fill="#404040"><set attributeName="fill" to="#808080" begin="reset.mouseover" end="reset.mouseout"/></use>
  </g>
</defs>
<script type="application/ecmascript">
var viewWidth = 1756;
var viewHeight = 566;
var sectionId = 'dynsection-24';
</script>
<script type="application/ecmascript" xlink:href="svg.min.js"/>
<svg id="graph" class="graph">
<g id="viewport">
<title>BitVector::getSize_tUnit</title>
<!-- Node1 -->
<g id="Node000001" class="node">
<title>Node1</title>
<g id="a_Node000001"><a xlink:title="Get the Size_t value if a BitVector::CoordUnit.">
<polygon fill="#999999" stroke="#666666" points="1748,-122.5 1645,-122.5 1645,-92.5 1748,-92.5 1748,-122.5"/>
<text text-anchor="start" x="1653" y="-110.5" font-family="Helvetica,sans-Serif" font-size="10.00">BitVector::getSize</text>
<text text-anchor="middle" x="1696.5" y="-99.5" font-family="Helvetica,sans-Serif" font-size="10.00">_tUnit</text>
</a>
</g>
</g>
<!-- Node2 -->
<g id="Node000002" class="node">
<title>Node2</title>
<g id="a_Node000002"><a xlink:href="class_bit_vector.html#a354c83853bc3622efa5d45efcae97286" target="_top" xlink:title="Give more detailed on BiteVector::indexCoordinate.">
<polygon fill="white" stroke="#666666" points="1605.5,-255.5 1458.5,-255.5 1458.5,-225.5 1605.5,-225.5 1605.5,-255.5"/>
<text text-anchor="start" x="1466.5" y="-243.5" font-family="Helvetica,sans-Serif" font-size="10.00">BitVector::indexCoordinate</text>
<text text-anchor="middle" x="1532" y="-232.5" font-family="Helvetica,sans-Serif" font-size="10.00">Untreated</text>
</a>
</g>
</g>
<!-- Node1&#45;&gt;Node2 -->
<g id="edge1_Node000001_Node000002" class="edge">
<title>Node1&#45;&gt;Node2</title>
<g id="a_edge1_Node000001_Node000002"><a xlink:title=" ">
<path fill="none" stroke="#63b8ff" d="M1677.53,-130.89C1661.21,-151.07 1635.66,-180.1 1609,-200.5 1596.33,-210.19 1580.97,-218.77 1567.39,-225.47"/>
<polygon fill="#63b8ff" stroke="#63b8ff" points="1680.45,-132.84 1683.94,-122.84 1674.98,-128.48 1680.45,-132.84"/>
</a>
</g>
</g>
<!-- Node16 -->
<g id="Node000016" class="node">
<title>Node16</title>
<g id="a_Node000016"><a xlink:href="class_bit_vector.html#a04e6d0b67ee9b42ccec437b0176067fe" target="_top" xlink:title="Give A size_t that represent the coords of the first bit of an element.">
<polygon fill="white" stroke="#666666" points="1419,-218 1236,-218 1236,-199 1419,-199 1419,-218"/>
<text text-anchor="middle" x="1327.5" y="-206" font-family="Helvetica,sans-Serif" font-size="10.00">BitVector::indexElementUntreated</text>
</a>
</g>
</g>
<!-- Node1&#45;&gt;Node16 -->
<g id="edge15_Node000001_Node000016" class="edge">
<title>Node1&#45;&gt;Node16</title>
<g id="a_edge15_Node000001_Node000016"><a xlink:title=" ">
<path fill="none" stroke="#63b8ff" d="M1656.8,-127C1642.1,-133.86 1625.03,-141.18 1609,-146.5 1534.57,-171.21 1445.74,-188.96 1388.29,-198.97"/>
<polygon fill="#63b8ff" stroke="#63b8ff" points="1658.55,-130.04 1666.08,-122.59 1655.55,-123.72 1658.55,-130.04"/>
</a>
</g>
</g>
<!-- Node19 -->
<g id="Node000019" class="node">
<title>Node19</title>
<g id="a_Node000019"><a xlink:href="class_bit_vector.html#a13856f33d2350c573cf2fbe587f03757" target="_top" xlink:title="Modify the length of BitVector::_data.">
<polygon fill="white" stroke="#666666" points="987.5,-56 891.5,-56 891.5,-37 987.5,-37 987.5,-56"/>
<text text-anchor="middle" x="939.5" y="-44" font-family="Helvetica,sans-Serif" font-size="10.00">BitVector::resize</text>
</a>
</g>
</g>
<!-- Node1&#45;&gt;Node19 -->
<g id="edge48_Node000001_Node000019" class="edge">
<title>Node1&#45;&gt;Node19</title>
<g id="a_edge48_Node000001_Node000019"><a xlink:title=" ">
<path fill="none" stroke="#63b8ff" d="M1634.81,-94.24C1626.17,-92.53 1617.37,-90.9 1609,-89.5 1378.43,-51.01 1097.82,-46.45 987.88,-46.27"/>
<polygon fill="#63b8ff" stroke="#63b8ff" points="1634.36,-97.72 1644.86,-96.26 1635.74,-90.85 1634.36,-97.72"/>
</a>
</g>
</g>
<!-- Node22 -->
<g id="Node000022" class="node">
<title>Node22</title>
<g id="a_Node000022"><a xlink:href="class_bit_vector.html#a80a4aa212535129b881b4fb2623ce222" target="_top" xlink:title="Reduce the size of BitVector::_data to fit BitVector::_element_number.">
<polygon fill="white" stroke="#666666" points="792,-19 695,-19 695,0 792,0 792,-19"/>
<text text-anchor="middle" x="743.5" y="-7" font-family="Helvetica,sans-Serif" font-size="10.00">BitVector::shrink</text>
</a>
</g>
</g>
<!-- Node1&#45;&gt;Node22 -->
<g id="edge49_Node000001_Node000022" class="edge">
<title>Node1&#45;&gt;Node22</title>
<g id="a_edge49_Node000001_Node000022"><a xlink:title=" ">
<path fill="none" stroke="#63b8ff" d="M1659.87,-87.69C1644.58,-79.86 1626.29,-71.35 1609,-65.5 1488.5,-24.73 1455.71,-8.5 1328.5,-8.5 1328.5,-8.5 1328.5,-8.5 1127,-8.5 1006.47,-8.5 864.58,-9 792.21,-9.3"/>
<polygon fill="#63b8ff" stroke="#63b8ff" points="1658.49,-90.92 1668.97,-92.45 1661.73,-84.72 1658.49,-90.92"/>
</a>
</g>
</g>
<!-- Node31 -->
<g id="Node000031" class="node">
<title>Node31</title>
<g id="a_Node000031"><a xlink:href="class_bit_vector.html#ad36e7d0b4b1417ca434414fa40c72eb8" target="_top" xlink:title="How many element can be contained in this object knowing BitVector::_element_size.">
<polygon fill="white" stroke="#666666" points="1609,-137 1455,-137 1455,-118 1609,-118 1609,-137"/>
<text text-anchor="middle" x="1532" y="-125" font-family="Helvetica,sans-Serif" font-size="10.00">BitVector::maxElementLimit</text>
</a>
</g>
</g>
<!-- Node1&#45;&gt;Node31 -->
<g id="edge37_Node000001_Node000031" class="edge">
<title>Node1&#45;&gt;Node31</title>
<g id="a_edge37_Node000001_Node000031"><a xlink:title=" ">
<path fill="none" stroke="#63b8ff" d="M1634.91,-114.96C1626.51,-115.99 1617.79,-117.06 1609.15,-118.13"/>
<polygon fill="#63b8ff" stroke="#63b8ff" points="1635.48,-118.41 1644.97,-113.72 1634.62,-111.47 1635.48,-118.41"/>
</a>
</g>
</g>
<!-- Node34 -->
<g id="Node000034" class="node">
<title>Node34</title>
<g id="a_Node000034"><a xlink:href="class_bit_vector.html#a214e556dd89acce2427a378c5520adbd" target="_top" xlink:title="Last acceptable coordinate knowing BitVector::_element_size.">
<polygon fill="white" stroke="#666666" points="1409,-94 1246,-94 1246,-75 1409,-75 1409,-94"/>
<text text-anchor="middle" x="1327.5" y="-82" font-family="Helvetica,sans-Serif" font-size="10.00">BitVector::MaximalCoordLimit</text>
</a>
</g>
</g>
<!-- Node1&#45;&gt;Node34 -->
<g id="edge47_Node000001_Node000034" class="edge">
<title>Node1&#45;&gt;Node34</title>
<g id="a_edge47_Node000001_Node000034"><a xlink:title=" ">
<path fill="none" stroke="#63b8ff" d="M1634.51,-103.68C1572.84,-99.81 1477.19,-93.82 1409.25,-89.56"/>
<polygon fill="#63b8ff" stroke="#63b8ff" points="1634.66,-107.19 1644.86,-104.33 1635.09,-100.21 1634.66,-107.19"/>
</a>
</g>
</g>
<!-- Node3 -->
<g id="Node000003" class="node">
<title>Node3</title>
<g id="a_Node000003"><a xlink:href="class_bit_vector.html#a5af3c70f593aac387de23c7e6e5ae57e" target="_top" xlink:title="Find the element that correspond to coord .">
<polygon fill="white" stroke="#666666" points="1401,-352 1254,-352 1254,-333 1401,-333 1401,-352"/>
<text text-anchor="middle" x="1327.5" y="-340" font-family="Helvetica,sans-Serif" font-size="10.00">BitVector::indexCoordinate</text>
</a>
</g>
</g>
<!-- Node2&#45;&gt;Node3 -->
<g id="edge2_Node000002_Node000003" class="edge">
<title>Node2&#45;&gt;Node3</title>
<g id="a_edge2_Node000002_Node000003"><a xlink:title=" ">
<path fill="none" stroke="#63b8ff" d="M1492.01,-260.14C1448.68,-281.97 1380.48,-316.32 1347.55,-332.9"/>
<polygon fill="#63b8ff" stroke="#63b8ff" points="1493.76,-263.17 1501.12,-255.55 1490.61,-256.92 1493.76,-263.17"/>
</a>
</g>
</g>
<!-- Node4 -->
<g id="Node000004" class="node">
<title>Node4</title>
<g id="a_Node000004"><a xlink:href="class_bit_vector.html#aed5c03f3a6a9a2e5f3c58fb14768b0b4" target="_top" xlink:title="Say how many items can be hold inside this object with the current BitVector::_data_size:">
<polygon fill="white" stroke="#666666" points="1200,-395 1056,-395 1056,-376 1200,-376 1200,-395"/>
<text text-anchor="middle" x="1128" y="-383" font-family="Helvetica,sans-Serif" font-size="10.00">BitVector::currentCapacity</text>
</a>
</g>
</g>
<!-- Node3&#45;&gt;Node4 -->
<g id="edge3_Node000003_Node000004" class="edge">
<title>Node3&#45;&gt;Node4</title>
<g id="a_edge3_Node000003_Node000004"><a xlink:title=" ">
<path fill="none" stroke="#63b8ff" d="M1272.76,-354.2C1241.35,-361.04 1202.22,-369.56 1172.71,-375.98"/>
<polygon fill="#63b8ff" stroke="#63b8ff" points="1273.64,-357.59 1282.67,-352.04 1272.15,-350.75 1273.64,-357.59"/>
</a>
</g>
</g>
<!-- Node5 -->
<g id="Node000005" class="node">
<title>Node5</title>
<g id="a_Node000005"><a xlink:href="class_bit_vector.html#ad64e921d07b9528a532477f282af135c" target="_top" xlink:title="How many element can fit in this vector without having to resize the vector ?">
<polygon fill="white" stroke="#666666" points="1199,-357.5 1057,-357.5 1057,-327.5 1199,-327.5 1199,-357.5"/>
<text text-anchor="start" x="1065" y="-345.5" font-family="Helvetica,sans-Serif" font-size="10.00">BitVector::currentElement</text>
<text text-anchor="middle" x="1128" y="-334.5" font-family="Helvetica,sans-Serif" font-size="10.00">Capacity</text>
</a>
</g>
</g>
<!-- Node3&#45;&gt;Node5 -->
<g id="edge4_Node000003_Node000005" class="edge">
<title>Node3&#45;&gt;Node5</title>
<g id="a_edge4_Node000003_Node000005"><a xlink:title=" ">
<path fill="none" stroke="#63b8ff" d="M1243.67,-342.5C1228.89,-342.5 1213.63,-342.5 1199.24,-342.5"/>
<polygon fill="#63b8ff" stroke="#63b8ff" points="1243.8,-346 1253.8,-342.5 1243.8,-339 1243.8,-346"/>
</a>
</g>
</g>
<!-- Node6 -->
<g id="Node000006" class="node">
<title>Node6</title>
<g id="a_Node000006"><a xlink:href="class_bit_vector.html#ad60f42244db2c82260326605916431d3" target="_top" xlink:title="Modify the number of known element in this object.">
<polygon fill="white" stroke="#666666" points="1020,-462 859,-462 859,-443 1020,-443 1020,-462"/>
<text text-anchor="middle" x="939.5" y="-450" font-family="Helvetica,sans-Serif" font-size="10.00">BitVector::setElementNumber</text>
</a>
</g>
</g>
<!-- Node5&#45;&gt;Node6 -->
<g id="edge5_Node000005_Node000006" class="edge">
<title>Node5&#45;&gt;Node6</title>
<g id="a_edge5_Node000005_Node000006"><a xlink:title=" ">
<path fill="none" stroke="#63b8ff" d="M1068.54,-361.5C1064.23,-363.38 1060.01,-365.38 1056,-367.5 1014.18,-389.62 970.82,-425.73 951.23,-442.87"/>
<polygon fill="#63b8ff" stroke="#63b8ff" points="1070.15,-364.62 1078.06,-357.58 1067.48,-358.15 1070.15,-364.62"/>
</a>
</g>
</g>
<!-- Node7 -->
<g id="Node000007" class="node">
<title>Node7</title>
<g id="a_Node000007"><a xlink:href="class_bit_vector.html#a87f84edf5dd56606b26e8741ba6ced02" target="_top" xlink:title="Remove a number of element from the vector.">
<polygon fill="white" stroke="#666666" points="795.5,-520 691.5,-520 691.5,-501 795.5,-501 795.5,-520"/>
<text text-anchor="middle" x="743.5" y="-508" font-family="Helvetica,sans-Serif" font-size="10.00">BitVector::remove</text>
</a>
</g>
</g>
<!-- Node6&#45;&gt;Node7 -->
<g id="edge6_Node000006_Node000007" class="edge">
<title>Node6&#45;&gt;Node7</title>
<g id="a_edge6_Node000006_Node000007"><a xlink:title=" ">
<path fill="none" stroke="#63b8ff" d="M896.74,-464.99C860.72,-475.75 809.46,-491.08 776.58,-500.91"/>
<polygon fill="#63b8ff" stroke="#63b8ff" points="897.89,-468.3 906.46,-462.08 895.88,-461.59 897.89,-468.3"/>
</a>
</g>
</g>
<!-- Node8 -->
<g id="Node000008" class="node">
<title>Node8</title>
<g id="a_Node000008"><a xlink:href="class_sequence.html#a20eb6bdd6f5cba62a251eff4387a525d" target="_top" xlink:title="Remove a portion of the sequence.">
<polygon fill="white" stroke="#666666" points="587.5,-558 490.5,-558 490.5,-539 587.5,-539 587.5,-558"/>
<text text-anchor="middle" x="539" y="-546" font-family="Helvetica,sans-Serif" font-size="10.00">Sequence::erase</text>
</a>
</g>
</g>
<!-- Node7&#45;&gt;Node8 -->
<g id="edge7_Node000007_Node000008" class="edge">
<title>Node7&#45;&gt;Node8</title>
<g id="a_edge7_Node000007_Node000008"><a xlink:title=" ">
<path fill="none" stroke="#63b8ff" d="M681.7,-521.91C651.6,-527.56 615.81,-534.27 587.73,-539.54"/>
<polygon fill="#63b8ff" stroke="#63b8ff" points="682.48,-525.32 691.66,-520.04 681.19,-518.44 682.48,-525.32"/>
</a>
</g>
</g>
<!-- Node9 -->
<g id="Node000009" class="node">
<title>Node9</title>
<g id="a_Node000009"><a xlink:href="class_sequence.html#aa48778c592160ac60319f780817f491c" target="_top" xlink:title="Insert a number of chars at the position position .">
<polygon fill="white" stroke="#666666" points="414,-482 316,-482 316,-463 414,-463 414,-482"/>
<text text-anchor="middle" x="365" y="-470" font-family="Helvetica,sans-Serif" font-size="10.00">Sequence::insert</text>
</a>
</g>
</g>
<!-- Node7&#45;&gt;Node9 -->
<g id="edge8_Node000007_Node000009" class="edge">
<title>Node7&#45;&gt;Node9</title>
<g id="a_edge8_Node000007_Node000009"><a xlink:title=" ">
<path fill="none" stroke="#63b8ff" d="M681.06,-506.95C621.77,-503.18 529.54,-496.37 450,-486.5 438.41,-485.06 425.97,-483.18 414.32,-481.26"/>
<polygon fill="#63b8ff" stroke="#63b8ff" points="681.18,-510.47 691.38,-507.6 681.62,-503.48 681.18,-510.47"/>
</a>
</g>
</g>
<!-- Node10 -->
<g id="Node000010" class="node">
<title>Node10</title>
<g id="a_Node000010"><a xlink:href="class_sequence.html#a3cf6cf5e54782f4d1a2ee07ec519523c" target="_top" xlink:title="Insert a char at the position position .">
<polygon fill="white" stroke="#666666" points="268,-519 170,-519 170,-500 268,-500 268,-519"/>
<text text-anchor="middle" x="219" y="-507" font-family="Helvetica,sans-Serif" font-size="10.00">Sequence::insert</text>
</a>
</g>
</g>
<!-- Node9&#45;&gt;Node10 -->
<g id="edge9_Node000009_Node000010" class="edge">
<title>Node9&#45;&gt;Node10</title>
<g id="a_edge9_Node000009_Node000010"><a xlink:title=" ">
<path fill="none" stroke="#63b8ff" d="M317.09,-484.55C297.77,-489.52 275.68,-495.19 257.46,-499.88"/>
<polygon fill="#63b8ff" stroke="#63b8ff" points="318.1,-487.91 326.92,-482.03 316.36,-481.13 318.1,-487.91"/>
</a>
</g>
</g>
<!-- Node11 -->
<g id="Node000011" class="node">
<title>Node11</title>
<g id="a_Node000011"><a xlink:href="class_sequence.html#aa57fd5a7fdd173374e56006ce1c47bdc" target="_top" xlink:title="Insert a number of chars at the the back of the sequence position .">
<polygon fill="white" stroke="#666666" points="280,-482 158,-482 158,-463 280,-463 280,-482"/>
<text text-anchor="middle" x="219" y="-470" font-family="Helvetica,sans-Serif" font-size="10.00">Sequence::insertBack</text>
</a>
</g>
</g>
<!-- Node9&#45;&gt;Node11 -->
<g id="edge10_Node000009_Node000011" class="edge">
<title>Node9&#45;&gt;Node11</title>
<g id="a_edge10_Node000009_Node000011"><a xlink:title=" ">
<path fill="none" stroke="#63b8ff" d="M305.61,-472.5C297.25,-472.5 288.64,-472.5 280.25,-472.5"/>
<polygon fill="#63b8ff" stroke="#63b8ff" points="305.65,-476 315.65,-472.5 305.65,-469 305.65,-476"/>
</a>
</g>
</g>
<!-- Node12 -->
<g id="Node000012" class="node">
<title>Node12</title>
<g id="a_Node000012"><a xlink:href="class_sequence.html#a092f380b654de9aaa8a770ec0948c454" target="_top" xlink:title="Insert a number of chars at the the front of the sequence position .">
<polygon fill="white" stroke="#666666" points="280,-445 158,-445 158,-426 280,-426 280,-445"/>
<text text-anchor="middle" x="219" y="-433" font-family="Helvetica,sans-Serif" font-size="10.00">Sequence::insertFront</text>
</a>
</g>
</g>
<!-- Node9&#45;&gt;Node12 -->
<g id="edge11_Node000009_Node000012" class="edge">
<title>Node9&#45;&gt;Node12</title>
<g id="a_edge11_Node000009_Node000012"><a xlink:title=" ">
<path fill="none" stroke="#63b8ff" d="M317.09,-460.45C297.77,-455.48 275.68,-449.81 257.46,-445.12"/>
<polygon fill="#63b8ff" stroke="#63b8ff" points="316.36,-463.87 326.92,-462.97 318.1,-457.09 316.36,-463.87"/>
</a>
</g>
</g>
<!-- Node13 -->
<g id="Node000013" class="node">
<title>Node13</title>
<g id="a_Node000013"><a xlink:href="class_sequence.html#a16e70626e330194c1507ed339c9c629c" target="_top" xlink:title="Insert a char at the the back of the sequence position .">
<polygon fill="white" stroke="#666666" points="122,-482 0,-482 0,-463 122,-463 122,-482"/>
<text text-anchor="middle" x="61" y="-470" font-family="Helvetica,sans-Serif" font-size="10.00">Sequence::insertBack</text>
</a>
</g>
</g>
<!-- Node12&#45;&gt;Node13 -->
<g id="edge12_Node000012_Node000013" class="edge">
<title>Node12&#45;&gt;Node13</title>
<g id="a_edge12_Node000012_Node000013"><a xlink:title=" ">
<path fill="none" stroke="#63b8ff" d="M168.01,-447.36C146.78,-452.39 122.36,-458.18 102.31,-462.94"/>
<polygon fill="#63b8ff" stroke="#63b8ff" points="168.9,-450.74 177.83,-445.03 167.29,-443.93 168.9,-450.74"/>
</a>
</g>
</g>
<!-- Node14 -->
<g id="Node000014" class="node">
<title>Node14</title>
<g id="a_Node000014"><a xlink:href="class_sequence.html#a1fa6868ce587e1f3d779bb226cfda548" target="_top" xlink:title="Insert a char at the the front of the sequence position .">
<polygon fill="white" stroke="#666666" points="122,-445 0,-445 0,-426 122,-426 122,-445"/>
<text text-anchor="middle" x="61" y="-433" font-family="Helvetica,sans-Serif" font-size="10.00">Sequence::insertFront</text>
</a>
</g>
</g>
<!-- Node12&#45;&gt;Node14 -->
<g id="edge13_Node000012_Node000014" class="edge">
<title>Node12&#45;&gt;Node14</title>
<g id="a_edge13_Node000012_Node000014"><a xlink:title=" ">
<path fill="none" stroke="#63b8ff" d="M147.46,-435.5C139.01,-435.5 130.44,-435.5 122.15,-435.5"/>
<polygon fill="#63b8ff" stroke="#63b8ff" points="147.69,-439 157.69,-435.5 147.69,-432 147.69,-439"/>
</a>
</g>
</g>
<!-- Node15 -->
<g id="Node000015" class="node">
<title>Node15</title>
<g id="a_Node000015"><a xlink:href="class_sequence.html#ae293cd5124445b604bbcba3a5f01a48a" target="_top" xlink:title="Main Constructor. Construct a new Sequence object.">
<polygon fill="white" stroke="#666666" points="119.5,-408 2.5,-408 2.5,-389 119.5,-389 119.5,-408"/>
<text text-anchor="middle" x="61" y="-396" font-family="Helvetica,sans-Serif" font-size="10.00">Sequence::Sequence</text>
</a>
</g>
</g>
<!-- Node12&#45;&gt;Node15 -->
<g id="edge14_Node000012_Node000015" class="edge">
<title>Node12&#45;&gt;Node15</title>
<g id="a_edge14_Node000012_Node000015"><a xlink:title=" ">
<path fill="none" stroke="#63b8ff" d="M168.01,-423.64C146.78,-418.61 122.36,-412.82 102.31,-408.06"/>
<polygon fill="#63b8ff" stroke="#63b8ff" points="167.29,-427.07 177.83,-425.97 168.9,-420.26 167.29,-427.07"/>
</a>
</g>
</g>
<!-- Node17 -->
<g id="Node000017" class="node">
<title>Node17</title>
<g id="a_Node000017"><a xlink:href="class_bit_vector.html#a93ab8bc2ec39bf299ae28ffcad504b41" target="_top" xlink:title="Give the coords of the first bit of an element.">
<polygon fill="white" stroke="#666666" points="1195,-218 1061,-218 1061,-199 1195,-199 1195,-218"/>
<text text-anchor="middle" x="1128" y="-206" font-family="Helvetica,sans-Serif" font-size="10.00">BitVector::indexElement</text>
</a>
</g>
</g>
<!-- Node16&#45;&gt;Node17 -->
<g id="edge16_Node000016_Node000017" class="edge">
<title>Node16&#45;&gt;Node17</title>
<g id="a_edge16_Node000016_Node000017"><a xlink:title=" ">
<path fill="none" stroke="#63b8ff" d="M1225.55,-208.5C1215.26,-208.5 1204.99,-208.5 1195.21,-208.5"/>
<polygon fill="#63b8ff" stroke="#63b8ff" points="1225.84,-212 1235.84,-208.5 1225.84,-205 1225.84,-212"/>
</a>
</g>
</g>
<!-- Node18 -->
<g id="Node000018" class="node">
<title>Node18</title>
<g id="a_Node000018"><a xlink:href="class_bit_vector.html#a2d0fe43b80b63edbd64dc887fd87d915" target="_top" xlink:title="Return the element at the position index.">
<polygon fill="white" stroke="#666666" points="981,-218 898,-218 898,-199 981,-199 981,-218"/>
<text text-anchor="middle" x="939.5" y="-206" font-family="Helvetica,sans-Serif" font-size="10.00">BitVector::get</text>
</a>
</g>
</g>
<!-- Node17&#45;&gt;Node18 -->
<g id="edge17_Node000017_Node000018" class="edge">
<title>Node17&#45;&gt;Node18</title>
<g id="a_edge17_Node000017_Node000018"><a xlink:title=" ">
<path fill="none" stroke="#63b8ff" d="M1050.87,-208.5C1027.01,-208.5 1001.59,-208.5 981.17,-208.5"/>
<polygon fill="#63b8ff" stroke="#63b8ff" points="1050.98,-212 1060.98,-208.5 1050.98,-205 1050.98,-212"/>
</a>
</g>
</g>
<!-- Node17&#45;&gt;Node19 -->
<g id="edge18_Node000017_Node000019" class="edge">
<title>Node17&#45;&gt;Node19</title>
<g id="a_edge18_Node000017_Node000019"><a xlink:title=" ">
<path fill="none" stroke="#63b8ff" d="M1115.56,-190.19C1093.51,-155.46 1045.1,-82 1020,-65.5 1010.39,-59.19 998.91,-54.97 987.69,-52.15"/>
<polygon fill="#63b8ff" stroke="#63b8ff" points="1112.74,-192.29 1121.04,-198.88 1118.67,-188.55 1112.74,-192.29"/>
</a>
</g>
</g>
<!-- Node23 -->
<g id="Node000023" class="node">
<title>Node23</title>
<g id="a_Node000023"><a xlink:href="class_bit_vector.html#aca24053f655c825de0f06ec86fff1cec" target="_top" xlink:title="Replace an element by another element. Can add an element to the list if index = BitVector::_element_...">
<polygon fill="white" stroke="#666666" points="980.5,-349 898.5,-349 898.5,-330 980.5,-330 980.5,-349"/>
<text text-anchor="middle" x="939.5" y="-337" font-family="Helvetica,sans-Serif" font-size="10.00">BitVector::set</text>
</a>
</g>
</g>
<!-- Node17&#45;&gt;Node23 -->
<g id="edge22_Node000017_Node000023" class="edge">
<title>Node17&#45;&gt;Node23</title>
<g id="a_edge22_Node000017_Node000023"><a xlink:title=" ">
<path fill="none" stroke="#63b8ff" d="M1104.73,-224.14C1065.74,-251.53 986.18,-307.41 954.23,-329.85"/>
<polygon fill="#63b8ff" stroke="#63b8ff" points="1107.11,-226.74 1113.29,-218.13 1103.09,-221.02 1107.11,-226.74"/>
</a>
</g>
</g>
<!-- Node20 -->
<g id="Node000020" class="node">
<title>Node20</title>
<g id="a_Node000020"><a xlink:href="class_bit_vector.html#a23c1685317944b2a5c6f149a5fccc6bd" target="_top" xlink:title="Construct a new Bit Vector object.">
<polygon fill="white" stroke="#666666" points="799,-56 688,-56 688,-37 799,-37 799,-56"/>
<text text-anchor="middle" x="743.5" y="-44" font-family="Helvetica,sans-Serif" font-size="10.00">BitVector::BitVector</text>
</a>
</g>
</g>
<!-- Node19&#45;&gt;Node20 -->
<g id="edge19_Node000019_Node000020" class="edge">
<title>Node19&#45;&gt;Node20</title>
<g id="a_edge19_Node000019_Node000020"><a xlink:title=" ">
<path fill="none" stroke="#63b8ff" d="M880.98,-46.5C855.05,-46.5 824.58,-46.5 799.02,-46.5"/>
<polygon fill="#63b8ff" stroke="#63b8ff" points="881.04,-50 891.04,-46.5 881.04,-43 881.04,-50"/>
</a>
</g>
</g>
<!-- Node21 -->
<g id="Node000021" class="node">
<title>Node21</title>
<g id="a_Node000021"><a xlink:href="class_bit_vector.html#a673b530bb6e520f7f7fa90070e0034db" target="_top" xlink:title="Free memory used by BitVector::_data.">
<polygon fill="white" stroke="#666666" points="789,-93 698,-93 698,-74 789,-74 789,-93"/>
<text text-anchor="middle" x="743.5" y="-81" font-family="Helvetica,sans-Serif" font-size="10.00">BitVector::clear</text>
</a>
</g>
</g>
<!-- Node19&#45;&gt;Node21 -->
<g id="edge20_Node000019_Node000021" class="edge">
<title>Node19&#45;&gt;Node21</title>
<g id="a_edge20_Node000019_Node000021"><a xlink:title=" ">
<path fill="none" stroke="#63b8ff" d="M880.92,-57.48C851.57,-63.08 816.41,-69.79 789.14,-74.99"/>
<polygon fill="#63b8ff" stroke="#63b8ff" points="881.88,-60.86 891.04,-55.55 880.56,-53.99 881.88,-60.86"/>
</a>
</g>
</g>
<!-- Node19&#45;&gt;Node22 -->
<g id="edge21_Node000019_Node000022" class="edge">
<title>Node19&#45;&gt;Node22</title>
<g id="a_edge21_Node000019_Node000022"><a xlink:title=" ">
<path fill="none" stroke="#63b8ff" d="M880.89,-35.51C852.61,-30.12 818.95,-23.7 792.14,-18.59"/>
<polygon fill="#63b8ff" stroke="#63b8ff" points="880.56,-39.01 891.04,-37.45 881.88,-32.14 880.56,-39.01"/>
</a>
</g>
</g>
<!-- Node23&#45;&gt;Node7 -->
<g id="edge35_Node000023_Node000007" class="edge">
<title>Node23&#45;&gt;Node7</title>
<g id="a_edge35_Node000023_Node000007"><a xlink:title=" ">
<path fill="none" stroke="#63b8ff" d="M923.07,-356.95C906.68,-375.72 880.25,-406.61 859,-434.5 841.96,-456.86 845.7,-469.92 823,-486.5 814.37,-492.81 804.06,-497.48 793.79,-500.93"/>
<polygon fill="#63b8ff" stroke="#63b8ff" points="925.87,-359.07 929.84,-349.24 920.61,-354.45 925.87,-359.07"/>
</a>
</g>
</g>
<!-- Node23&#45;&gt;Node9 -->
<g id="edge31_Node000023_Node000009" class="edge">
<title>Node23&#45;&gt;Node9</title>
<g id="a_edge31_Node000023_Node000009"><a xlink:title=" ">
<path fill="none" stroke="#63b8ff" d="M922.35,-356.36C901.54,-376.89 863.22,-410.76 823,-426.5 682.28,-481.56 499.48,-480.31 414,-475.95"/>
<polygon fill="#63b8ff" stroke="#63b8ff" points="924.88,-358.78 929.44,-349.21 919.91,-353.85 924.88,-358.78"/>
</a>
</g>
</g>
<!-- Node24 -->
<g id="Node000024" class="node">
<title>Node24</title>
<g id="a_Node000024"><a xlink:href="class_bit_vector.html#afbdbe8a5003f5941ffd5ab095cf87d88" target="_top" xlink:title="Add an element at the end of the vector.">
<polygon fill="white" stroke="#666666" points="795,-368 692,-368 692,-349 795,-349 795,-368"/>
<text text-anchor="middle" x="743.5" y="-356" font-family="Helvetica,sans-Serif" font-size="10.00">BitVector::append</text>
</a>
</g>
</g>
<!-- Node23&#45;&gt;Node24 -->
<g id="edge23_Node000023_Node000024" class="edge">
<title>Node23&#45;&gt;Node24</title>
<g id="a_edge23_Node000023_Node000024"><a xlink:title=" ">
<path fill="none" stroke="#63b8ff" d="M888.1,-344.44C859.45,-347.24 823.68,-350.74 795.02,-353.55"/>
<polygon fill="#63b8ff" stroke="#63b8ff" points="888.69,-347.89 898.3,-343.44 888.01,-340.93 888.69,-347.89"/>
</a>
</g>
</g>
<!-- Node25 -->
<g id="Node000025" class="node">
<title>Node25</title>
<g id="a_Node000025"><a xlink:href="class_bit_vector.html#a5547d55a697d61de026d0a94e743624b" target="_top" xlink:title="Construct a new Bit Vector object.">
<polygon fill="white" stroke="#666666" points="594.5,-387 483.5,-387 483.5,-368 594.5,-368 594.5,-387"/>
<text text-anchor="middle" x="539" y="-375" font-family="Helvetica,sans-Serif" font-size="10.00">BitVector::BitVector</text>
</a>
</g>
</g>
<!-- Node23&#45;&gt;Node25 -->
<g id="edge30_Node000023_Node000025" class="edge">
<title>Node23&#45;&gt;Node25</title>
<g id="a_edge30_Node000023_Node000025"><a xlink:title=" ">
<path fill="none" stroke="#63b8ff" d="M906.94,-352.91C884.1,-361.86 852.23,-372.81 823,-377.5 744.41,-390.1 651.96,-386.75 594.66,-382.59"/>
<polygon fill="#63b8ff" stroke="#63b8ff" points="908.47,-356.06 916.45,-349.09 905.87,-349.57 908.47,-356.06"/>
</a>
</g>
</g>
<!-- Node26 -->
<g id="Node000026" class="node">
<title>Node26</title>
<g id="a_Node000026"><a xlink:href="class_bit_vector.html#a686af396e4dff1536b7588213726c4cc" target="_top" xlink:title="Insert a number of blank position inside BitVector::_data.">
<polygon fill="white" stroke="#666666" points="628,-303 450,-303 450,-284 628,-284 628,-303"/>
<text text-anchor="middle" x="539" y="-291" font-family="Helvetica,sans-Serif" font-size="10.00">BitVector::makeRoomForElement</text>
</a>
</g>
</g>
<!-- Node23&#45;&gt;Node26 -->
<g id="edge34_Node000023_Node000026" class="edge">
<title>Node23&#45;&gt;Node26</title>
<g id="a_edge34_Node000023_Node000026"><a xlink:title=" ">
<path fill="none" stroke="#63b8ff" d="M920.41,-323.4C898.94,-305.47 861.22,-277.57 823,-266.5 732.69,-240.35 620.08,-268.07 568.36,-283.97"/>
<polygon fill="#63b8ff" stroke="#63b8ff" points="918.19,-326.1 928.06,-329.94 922.74,-320.78 918.19,-326.1"/>
</a>
</g>
</g>
<!-- Node27 -->
<g id="Node000027" class="node">
<title>Node27</title>
<g id="a_Node000027"><a xlink:href="class_bit_vector.html#a9f86c96c013632abd9d18feafe78d72e" target="_top" xlink:title="Insert a number_of_elements inside the vector at the index pos .">
<polygon fill="white" stroke="#666666" points="412.5,-321 317.5,-321 317.5,-302 412.5,-302 412.5,-321"/>
<text text-anchor="middle" x="365" y="-309" font-family="Helvetica,sans-Serif" font-size="10.00">BitVector::insert</text>
</a>
</g>
</g>
<!-- Node23&#45;&gt;Node27 -->
<g id="edge32_Node000023_Node000027" class="edge">
<title>Node23&#45;&gt;Node27</title>
<g id="a_edge32_Node000023_Node000027"><a xlink:title=" ">
<path fill="none" stroke="#63b8ff" d="M915.47,-354.51C892.95,-368.23 857.15,-387.57 823,-395.5 661.52,-433.02 602.97,-460.39 450,-396.5 412.67,-380.91 383.47,-339.75 371.68,-321.02"/>
<polygon fill="#63b8ff" stroke="#63b8ff" points="917.35,-357.46 923.98,-349.2 913.65,-351.52 917.35,-357.46"/>
</a>
</g>
</g>
<!-- Node28 -->
<g id="Node000028" class="node">
<title>Node28</title>
<g id="a_Node000028"><a xlink:href="class_bit_vector.html#a915743b3f94c75c22317d160bfa741ff" target="_top" xlink:title="Insert a number_of_elements inside the vector at the index pos .">
<polygon fill="white" stroke="#666666" points="412.5,-284 317.5,-284 317.5,-265 412.5,-265 412.5,-284"/>
<text text-anchor="middle" x="365" y="-272" font-family="Helvetica,sans-Serif" font-size="10.00">BitVector::insert</text>
</a>
</g>
</g>
<!-- Node23&#45;&gt;Node28 -->
<g id="edge33_Node000023_Node000028" class="edge">
<title>Node23&#45;&gt;Node28</title>
<g id="a_edge33_Node000023_Node000028"><a xlink:title=" ">
<path fill="none" stroke="#63b8ff" d="M923.26,-322.44C902.89,-301.06 864.51,-265.51 823,-251.5 671.15,-200.24 474.81,-244.06 398.41,-264.93"/>
<polygon fill="#63b8ff" stroke="#63b8ff" points="920.79,-324.92 930.16,-329.87 925.92,-320.16 920.79,-324.92"/>
</a>
</g>
</g>
<!-- Node29 -->
<g id="Node000029" class="node">
<title>Node29</title>
<g id="a_Node000029"><a xlink:href="class_bit_vector.html#a2af5c1a1a0050e2b52d06c38436280fd" target="_top" xlink:title="Add an element at the end of the vector.">
<polygon fill="white" stroke="#666666" points="795,-331 692,-331 692,-312 795,-312 795,-331"/>
<text text-anchor="middle" x="743.5" y="-319" font-family="Helvetica,sans-Serif" font-size="10.00">BitVector::append</text>
</a>
</g>
</g>
<!-- Node23&#45;&gt;Node29 -->
<g id="edge29_Node000023_Node000029" class="edge">
<title>Node23&#45;&gt;Node29</title>
<g id="a_edge29_Node000023_Node000029"><a xlink:title=" ">
<path fill="none" stroke="#63b8ff" d="M888.1,-334.82C859.45,-332.17 823.68,-328.85 795.02,-326.19"/>
<polygon fill="#63b8ff" stroke="#63b8ff" points="888.02,-338.33 898.3,-335.77 888.67,-331.36 888.02,-338.33"/>
</a>
</g>
</g>
<!-- Node30 -->
<g id="Node000030" class="node">
<title>Node30</title>
<g id="a_Node000030"><a xlink:href="class_bit_vector.html#a38e8be69974c874857dd7cb6a52429ac" target="_top" xlink:title="Replace an element by another element. Can add an element to the list if index = BitVector::_element_...">
<polygon fill="white" stroke="#666666" points="784.5,-294 702.5,-294 702.5,-275 784.5,-275 784.5,-294"/>
<text text-anchor="middle" x="743.5" y="-282" font-family="Helvetica,sans-Serif" font-size="10.00">BitVector::set</text>
</a>
</g>
</g>
<!-- Node23&#45;&gt;Node30 -->
<g id="edge36_Node000023_Node000030" class="edge">
<title>Node23&#45;&gt;Node30</title>
<g id="a_edge36_Node000023_Node000030"><a xlink:title=" ">
<path fill="none" stroke="#63b8ff" d="M899.91,-326.79C877.55,-319.59 848.81,-310.64 823,-303.5 810.57,-300.06 796.93,-296.64 784.56,-293.67"/>
<polygon fill="#63b8ff" stroke="#63b8ff" points="899.11,-330.21 909.7,-329.95 901.26,-323.55 899.11,-330.21"/>
</a>
</g>
</g>
<!-- Node24&#45;&gt;Node25 -->
<g id="edge24_Node000024_Node000025" class="edge">
<title>Node24&#45;&gt;Node25</title>
<g id="a_edge24_Node000024_Node000025"><a xlink:title=" ">
<path fill="none" stroke="#63b8ff" d="M681.94,-364.18C654.18,-366.79 621.53,-369.85 594.54,-372.38"/>
<polygon fill="#63b8ff" stroke="#63b8ff" points="682.29,-367.66 691.92,-363.25 681.64,-360.7 682.29,-367.66"/>
</a>
</g>
</g>
<!-- Node24&#45;&gt;Node26 -->
<g id="edge25_Node000024_Node000026" class="edge">
<title>Node24&#45;&gt;Node26</title>
<g id="a_edge25_Node000024_Node000026"><a xlink:title=" ">
<path fill="none" stroke="#63b8ff" d="M686.31,-346.6C678.77,-344.72 671.17,-342.67 664,-340.5 627.86,-329.56 587.14,-313.35 562.53,-303.11"/>
<polygon fill="#63b8ff" stroke="#63b8ff" points="685.61,-350.03 696.15,-348.98 687.25,-343.23 685.61,-350.03"/>
</a>
</g>
</g>
<!-- Node26&#45;&gt;Node9 -->
<g id="edge26_Node000026_Node000009" class="edge">
<title>Node26&#45;&gt;Node9</title>
<g id="a_edge26_Node000026_Node000009"><a xlink:title=" ">
<path fill="none" stroke="#63b8ff" d="M514.15,-308.62C495.56,-321.03 469.69,-339.73 450,-359.5 416.02,-393.62 384.59,-442.15 371.91,-462.7"/>
<polygon fill="#63b8ff" stroke="#63b8ff" points="516.19,-311.46 522.63,-303.05 512.35,-305.61 516.19,-311.46"/>
</a>
</g>
</g>
<!-- Node26&#45;&gt;Node27 -->
<g id="edge27_Node000026_Node000027" class="edge">
<title>Node26&#45;&gt;Node27</title>
<g id="a_edge27_Node000026_Node000027"><a xlink:title=" ">
<path fill="none" stroke="#63b8ff" d="M439.74,-303.78C430.36,-304.76 421.17,-305.73 412.64,-306.62"/>
<polygon fill="#63b8ff" stroke="#63b8ff" points="440.4,-307.23 449.98,-302.71 439.67,-300.27 440.4,-307.23"/>
</a>
</g>
</g>
<!-- Node26&#45;&gt;Node28 -->
<g id="edge28_Node000026_Node000028" class="edge">
<title>Node26&#45;&gt;Node28</title>
<g id="a_edge28_Node000026_Node000028"><a xlink:title=" ">
<path fill="none" stroke="#63b8ff" d="M441.71,-282.86C431.72,-281.76 421.91,-280.68 412.84,-279.67"/>
<polygon fill="#63b8ff" stroke="#63b8ff" points="441.42,-286.35 451.75,-283.97 442.19,-279.4 441.42,-286.35"/>
</a>
</g>
</g>
<!-- Node31&#45;&gt;Node16 -->
<g id="edge38_Node000031_Node000016" class="edge">
<title>Node31&#45;&gt;Node16</title>
<g id="a_edge38_Node000031_Node000016"><a xlink:title=" ">
<path fill="none" stroke="#63b8ff" d="M1506.01,-142.16C1483.77,-154.73 1450.03,-172.64 1419,-184.5 1403.97,-190.24 1387.03,-195.13 1371.9,-198.97"/>
<polygon fill="#63b8ff" stroke="#63b8ff" points="1507.86,-145.13 1514.8,-137.13 1504.39,-139.05 1507.86,-145.13"/>
</a>
</g>
</g>
<!-- Node31&#45;&gt;Node26 -->
<g id="edge39_Node000031_Node000026" class="edge">
<title>Node31&#45;&gt;Node26</title>
<g id="a_edge39_Node000031_Node000026"><a xlink:title=" ">
<path fill="none" stroke="#63b8ff" d="M1470.54,-139.15C1465.28,-140.25 1460.04,-141.37 1455,-142.5 1438.9,-146.1 1435.29,-148.95 1419,-151.5 1291.39,-171.47 1258.17,-170.5 1129,-170.5 1129,-170.5 1129,-170.5 938.5,-170.5 785,-170.5 612.45,-254.85 557.67,-283.85"/>
<polygon fill="#63b8ff" stroke="#63b8ff" points="1471.55,-142.51 1480.64,-137.07 1470.14,-135.66 1471.55,-142.51"/>
</a>
</g>
</g>
<!-- Node32 -->
<g id="Node000032" class="node">
<title>Node32</title>
<g id="a_Node000032"><a xlink:href="class_bit_vector.html#a346dbe2e158d2cfda20212e7f93e8402" target="_top" xlink:title="Do maximum BitVector::_element_number is reached (With no possibility to push it further)">
<polygon fill="white" stroke="#666666" points="1402,-142.5 1253,-142.5 1253,-112.5 1402,-112.5 1402,-142.5"/>
<text text-anchor="start" x="1261" y="-130.5" font-family="Helvetica,sans-Serif" font-size="10.00">BitVector::maxElementSize</text>
<text text-anchor="middle" x="1327.5" y="-119.5" font-family="Helvetica,sans-Serif" font-size="10.00">IsReached</text>
</a>
</g>
</g>
<!-- Node31&#45;&gt;Node32 -->
<g id="edge40_Node000031_Node000032" class="edge">
<title>Node31&#45;&gt;Node32</title>
<g id="a_edge40_Node000031_Node000032"><a xlink:title=" ">
<path fill="none" stroke="#63b8ff" d="M1444.51,-127.5C1430.36,-127.5 1415.82,-127.5 1402.02,-127.5"/>
<polygon fill="#63b8ff" stroke="#63b8ff" points="1444.73,-131 1454.73,-127.5 1444.73,-124 1444.73,-131"/>
</a>
</g>
</g>
<!-- Node31&#45;&gt;Node34 -->
<g id="edge42_Node000031_Node000034" class="edge">
<title>Node31&#45;&gt;Node34</title>
<g id="a_edge42_Node000031_Node000034"><a xlink:title=" ">
<path fill="none" stroke="#63b8ff" d="M1476.91,-115.86C1458.53,-111.92 1437.88,-107.5 1419,-103.5 1404.39,-100.4 1388.46,-97.05 1374.08,-94.03"/>
<polygon fill="#63b8ff" stroke="#63b8ff" points="1476.35,-119.32 1486.86,-118 1477.81,-112.48 1476.35,-119.32"/>
</a>
</g>
</g>
<!-- Node33 -->
<g id="Node000033" class="node">
<title>Node33</title>
<g id="a_Node000033"><a xlink:href="class_bit_vector.html#a87e099aba27ebb0f67c07dd8314828e7" target="_top" xlink:title="Do maximum capacity is reached (With no possibility to push it further)">
<polygon fill="white" stroke="#666666" points="823,-136 664,-136 664,-117 823,-117 823,-136"/>
<text text-anchor="middle" x="743.5" y="-124" font-family="Helvetica,sans-Serif" font-size="10.00">BitVector::maxSizeIsReached</text>
</a>
</g>
</g>
<!-- Node32&#45;&gt;Node33 -->
<g id="edge41_Node000032_Node000033" class="edge">
<title>Node32&#45;&gt;Node33</title>
<g id="a_edge41_Node000032_Node000033"><a xlink:title=" ">
<path fill="none" stroke="#63b8ff" d="M1242.53,-127.36C1130.25,-127.16 932.7,-126.82 823.18,-126.64"/>
<polygon fill="#63b8ff" stroke="#63b8ff" points="1242.78,-130.86 1252.79,-127.37 1242.8,-123.86 1242.78,-130.86"/>
</a>
</g>
</g>
<!-- Node35 -->
<g id="Node000035" class="node">
<title>Node35</title>
<g id="a_Node000035"><a xlink:href="class_bit_vector.html#acb362f03b29600195996f52c04940439" target="_top" xlink:title="How many octet can be contained in this object knowing BitVector::_element_size.">
<polygon fill="white" stroke="#666666" points="1198,-94 1058,-94 1058,-75 1198,-75 1198,-94"/>
<text text-anchor="middle" x="1128" y="-82" font-family="Helvetica,sans-Serif" font-size="10.00">BitVector::maxOctetLimit</text>
</a>
</g>
</g>
<!-- Node34&#45;&gt;Node35 -->
<g id="edge43_Node000034_Node000035" class="edge">
<title>Node34&#45;&gt;Node35</title>
<g id="a_edge43_Node000034_Node000035"><a xlink:title=" ">
<path fill="none" stroke="#63b8ff" d="M1235.83,-84.5C1223.22,-84.5 1210.43,-84.5 1198.29,-84.5"/>
<polygon fill="#63b8ff" stroke="#63b8ff" points="1235.88,-88 1245.88,-84.5 1235.88,-81 1235.88,-88"/>
</a>
</g>
</g>
<!-- Node35&#45;&gt;Node19 -->
<g id="edge46_Node000035_Node000019" class="edge">
<title>Node35&#45;&gt;Node19</title>
<g id="a_edge46_Node000035_Node000019"><a xlink:title=" ">
<path fill="none" stroke="#63b8ff" d="M1070.02,-72.89C1043.5,-67.49 1012.33,-61.14 987.22,-56.02"/>
<polygon fill="#63b8ff" stroke="#63b8ff" points="1069.44,-76.34 1079.94,-74.91 1070.84,-69.48 1069.44,-76.34"/>
</a>
</g>
</g>
<!-- Node36 -->
<g id="Node000036" class="node">
<title>Node36</title>
<g id="a_Node000036"><a xlink:href="class_bit_vector.html#a00aeec5e60b478d74e1540f34f46e37c" target="_top" xlink:title="Do maximum BitVector::_data_size is reached (With no possibility to push it further)">
<polygon fill="white" stroke="#666666" points="1009.5,-104.5 869.5,-104.5 869.5,-74.5 1009.5,-74.5 1009.5,-104.5"/>
<text text-anchor="start" x="877.5" y="-92.5" font-family="Helvetica,sans-Serif" font-size="10.00">BitVector::maxDataSizeIs</text>
<text text-anchor="middle" x="939.5" y="-81.5" font-family="Helvetica,sans-Serif" font-size="10.00">Reached</text>
</a>
</g>
</g>
<!-- Node35&#45;&gt;Node36 -->
<g id="edge44_Node000035_Node000036" class="edge">
<title>Node35&#45;&gt;Node36</title>
<g id="a_edge44_Node000035_Node000036"><a xlink:title=" ">
<path fill="none" stroke="#63b8ff" d="M1047.74,-86.63C1035.04,-86.97 1022,-87.32 1009.57,-87.65"/>
<polygon fill="#63b8ff" stroke="#63b8ff" points="1047.92,-90.12 1057.82,-86.35 1047.73,-83.12 1047.92,-90.12"/>
</a>
</g>
</g>
<!-- Node36&#45;&gt;Node33 -->
<g id="edge45_Node000036_Node000033" class="edge">
<title>Node36&#45;&gt;Node33</title>
<g id="a_edge45_Node000036_Node000033"><a xlink:title=" ">
<path fill="none" stroke="#63b8ff" d="M859.32,-104.6C837.4,-108.78 814.23,-113.2 794.49,-116.97"/>
<polygon fill="#63b8ff" stroke="#63b8ff" points="860.12,-108.01 869.28,-102.7 858.8,-101.14 860.12,-108.01"/>
</a>
</g>
</g>
</g>
</svg>

<g id="navigator" transform="translate(0 0)" fill="#404254">
  <rect fill="#f2f5e9" fill-opacity="0.5" stroke="#606060" stroke-width=".5" x="0" y="0" width="60" height="60"/>
  <use id="zoomplus" xlink:href="#zoomPlus" x="17" y="9" onmousedown="handleZoom(evt,'in')"/>
  <use id="zoomminus" xlink:href="#zoomMin" x="42" y="9" onmousedown="handleZoom(evt,'out')"/>
  <use id="reset" xlink:href="#resetDef" x="30" y="36" onmousedown="handleReset()"/>
   <use id="arrowup" xlink:href="#arrowUp" x="0" y="0" onmousedown="handlePan(0,-1)"/>
  <use id="arrowright" xlink:href="#arrowRight" x="0" y="0" onmousedown="handlePan(1,0)"/>
  <use id="arrowdown" xlink:href="#arrowDown" x="0" y="0" onmousedown="handlePan(0,1)"/>
  <use id="arrowleft" xlink:href="#arrowLeft" x="0" y="0" onmousedown="handlePan(-1,0)"/>
</g>
<svg viewBox="0 0 15 15" width="100%" height="30px" preserveAspectRatio="xMaxYMin meet">
 <g id="arrow_out" transform="scale(0.3 0.3)">
  <a xlink:href="class_bit_vector_af68cda7444ec4459393bbfa423f0a7dd_icgraph_org.svg" target="_base">
   <rect id="button" ry="5" rx="5" y="6" x="6" height="38" width="38"
        fill="#f2f5e9" fill-opacity="0.5" stroke="#606060" stroke-width="1.0"/>
   <path id="arrow"
     d="M 11.500037,31.436501 C 11.940474,20.09759 22.043105,11.32322 32.158766,21.979434 L 37.068811,17.246167 C 37.068811,17.246167 37.088388,32 37.088388,32 L 22.160133,31.978069 C 22.160133,31.978069 26.997745,27.140456 26.997745,27.140456 C 18.528582,18.264221 13.291696,25.230495 11.500037,31.436501 z"
     style="fill:#404040;"/>
  </a>
 </g>
</svg>

<style type='text/css'>
<![CDATA[
[data-mouse-over-selected='false'] { opacity: 0.7; }
[data-mouse-over-selected='true']  { opacity: 1.0; }
]]>
</style>
<script type="application/ecmascript"><![CDATA[
document.addEventListener('DOMContentLoaded', (event) => {
  highlightEdges();
  highlightAdjacentNodes();
});
]]></script>
</svg>
