<?xml version="1.0" encoding="UTF-8" standalone="no"?>
<!DOCTYPE svg PUBLIC "-//W3C//DTD SVG 1.1//EN"
 "http://www.w3.org/Graphics/SVG/1.1/DTD/svg11.dtd">
<!-- Generated by graphviz version 2.43.0 (0)
 -->
<!-- Title: BitVector::MaximalCoordLimit Pages: 1 -->
<!--zoomable 157 -->

<svg id="main" version="1.1" xmlns="http://www.w3.org/2000/svg" xmlns:xlink="http://www.w3.org/1999/xlink" xml:space="preserve" onload="init(evt)">
<style type="text/css"><![CDATA[
.node, .edge {opacity: 0.7;}
.node.selected, .edge.selected {opacity: 1;}
.edge:hover path { stroke: red; }
.edge:hover polygon { stroke: red; fill: red; }
]]></style>

<defs>
  <circle id="rim" cx="0" cy="0" r="7"/>
  <circle id="rim2" cx="0" cy="0" r="3.5"/>
  <g id="zoomPlus">
    <use xlink:href="#rim" fill="#404040"><set attributeName="fill" to="#808080" begin="zoomplus.mouseover" end="zoomplus.mouseout"/></use>
    <path d="M-4,0h8M0,-4v8" fill="none" stroke="white" stroke-width="1.5" pointer-events="none"/>
  </g>
  <g id="zoomMin">
    <use xlink:href="#rim" fill="#404040"><set attributeName="fill" to="#808080" begin="zoomminus.mouseover" end="zoomminus.mouseout"/></use>
    <path d="M-4,0h8" fill="none" stroke="white" stroke-width="1.5" pointer-events="none"/>
  </g>
  <g id="arrowUp" transform="translate(30 24)">
    <use xlink:href="#rim"/>
    <path pointer-events="none" fill="none" stroke="white" stroke-width="1.5" d="M0,-3.0v7 M-2.5,-0.5L0,-3.0L2.5,-0.5"/>
  </g>
  <g id="arrowRight" transform="rotate(90) translate(36 -43)">
    <use xlink:href="#rim"/>
    <path pointer-events="none" fill="none" stroke="white" stroke-width="1.5" d="M0,-3.0v7 M-2.5,-0.5L0,-3.0L2.5,-0.5"/>
  </g>
  <g id="arrowDown" transform="rotate(180) translate(-30 -48)">
    <use xlink:href="#rim"/>
    <path pointer-events="none" fill="none" stroke="white" stroke-width="1.5" d="M0,-3.0v7 M-2.5,-0.5L0,-3.0L2.5,-0.5"/>
  </g>
  <g id="arrowLeft" transform="rotate(270) translate(-36 17)">
    <use xlink:href="#rim"/>
    <path pointer-events="none" fill="none" stroke="white" stroke-width="1.5" d="M0,-3.0v7 M-2.5,-0.5L0,-3.0L2.5,-0.5"/>
  </g>
  <g id="resetDef">
    <use xlink:href="#rim2" fill="#404040"><set attributeName="fill" to="#808080" begin="reset.mouseover" end="reset.mouseout"/></use>
  </g>
</defs>
<script type="application/ecmascript">
var viewWidth = 1035;
var viewHeight = 157;
var sectionId = 'dynsection-46';
</script>
<script type="application/ecmascript" xlink:href="svg.min.js"/>
<svg id="graph" class="graph">
<g id="viewport">
<title>BitVector::MaximalCoordLimit</title>
<!-- Node1 -->
<g id="Node000001" class="node">
<title>Node1</title>
<g id="a_Node000001"><a xlink:title="Last acceptable coordinate knowing BitVector::_element_size.">
<polygon fill="#999999" stroke="#666666" points="163,-80 0,-80 0,-61 163,-61 163,-80"/>
<text text-anchor="middle" x="81.5" y="-68" font-family="Helvetica,sans-Serif" font-size="10.00">BitVector::MaximalCoordLimit</text>
</a>
</g>
</g>
<!-- Node2 -->
<g id="Node000002" class="node">
<title>Node2</title>
<g id="a_Node000002"><a xlink:href="class_bit_vector.html#af68cda7444ec4459393bbfa423f0a7dd" target="_top" xlink:title="Get the Size_t value if a BitVector::CoordUnit.">
<polygon fill="white" stroke="#666666" points="531.5,-109.5 428.5,-109.5 428.5,-79.5 531.5,-79.5 531.5,-109.5"/>
<text text-anchor="start" x="436.5" y="-97.5" font-family="Helvetica,sans-Serif" font-size="10.00">BitVector::getSize</text>
<text text-anchor="middle" x="480" y="-86.5" font-family="Helvetica,sans-Serif" font-size="10.00">_tUnit</text>
</a>
</g>
</g>
<!-- Node1&#45;&gt;Node2 -->
<g id="edge1_Node000001_Node000002" class="edge">
<title>Node1&#45;&gt;Node2</title>
<g id="a_edge1_Node000001_Node000002"><a xlink:title=" ">
<path fill="none" stroke="#63b8ff" d="M163.22,-75.39C238.7,-79.95 349.77,-86.68 418.08,-90.81"/>
<polygon fill="#63b8ff" stroke="#63b8ff" points="418.06,-94.32 428.25,-91.43 418.48,-87.33 418.06,-94.32"/>
</a>
</g>
</g>
<!-- Node7 -->
<g id="Node000007" class="node">
<title>Node7</title>
<g id="a_Node000007"><a xlink:href="class_bit_vector.html#ad36e7d0b4b1417ca434414fa40c72eb8" target="_top" xlink:title="How many element can be contained in this object knowing BitVector::_element_size.">
<polygon fill="white" stroke="#666666" points="353,-61 199,-61 199,-42 353,-42 353,-61"/>
<text text-anchor="middle" x="276" y="-49" font-family="Helvetica,sans-Serif" font-size="10.00">BitVector::maxElementLimit</text>
</a>
</g>
</g>
<!-- Node1&#45;&gt;Node7 -->
<g id="edge7_Node000001_Node000007" class="edge">
<title>Node1&#45;&gt;Node7</title>
<g id="a_edge7_Node000001_Node000007"><a xlink:title=" ">
<path fill="none" stroke="#63b8ff" d="M163.02,-62.55C171.54,-61.71 180.22,-60.85 188.8,-60.01"/>
<polygon fill="#63b8ff" stroke="#63b8ff" points="189.19,-63.49 198.8,-59.02 188.51,-56.52 189.19,-63.49"/>
</a>
</g>
</g>
<!-- Node3 -->
<g id="Node000003" class="node">
<title>Node3</title>
<g id="a_Node000003"><a xlink:href="class_bit_vector.html#a115789c8a9812eabb52f8843cd4e9965" target="_top" xlink:title="Give the a coord object that represent the size of 1 element inside BitVector::_data.">
<polygon fill="white" stroke="#666666" points="751.5,-149 620.5,-149 620.5,-130 751.5,-130 751.5,-149"/>
<text text-anchor="middle" x="686" y="-137" font-family="Helvetica,sans-Serif" font-size="10.00">BitVector::getCoordUnit</text>
</a>
</g>
</g>
<!-- Node2&#45;&gt;Node3 -->
<g id="edge2_Node000002_Node000003" class="edge">
<title>Node2&#45;&gt;Node3</title>
<g id="a_edge2_Node000002_Node000003"><a xlink:title=" ">
<path fill="none" stroke="#63b8ff" d="M531.69,-105.68C562.12,-112.39 600.78,-120.92 631.67,-127.74"/>
<polygon fill="#63b8ff" stroke="#63b8ff" points="631.3,-131.24 641.82,-129.98 632.81,-124.4 631.3,-131.24"/>
</a>
</g>
</g>
<!-- Node6 -->
<g id="Node000006" class="node">
<title>Node6</title>
<g id="a_Node000006"><a xlink:href="class_bit_vector_1_1_coords.html#a3a4fac9de925974af9c8a66a1d0179e6" target="_top" xlink:title="Translate octet and bit value inside a size_t. Allow easier mathematic computations.">
<polygon fill="white" stroke="#666666" points="739.5,-111.5 632.5,-111.5 632.5,-81.5 739.5,-81.5 739.5,-111.5"/>
<text text-anchor="start" x="640.5" y="-99.5" font-family="Helvetica,sans-Serif" font-size="10.00">BitVector::Coords::</text>
<text text-anchor="middle" x="686" y="-88.5" font-family="Helvetica,sans-Serif" font-size="10.00">toSize_t</text>
</a>
</g>
</g>
<!-- Node2&#45;&gt;Node6 -->
<g id="edge6_Node000002_Node000006" class="edge">
<title>Node2&#45;&gt;Node6</title>
<g id="a_edge6_Node000002_Node000006"><a xlink:title=" ">
<path fill="none" stroke="#63b8ff" d="M531.69,-95C559.13,-95.27 593.28,-95.6 622.38,-95.89"/>
<polygon fill="#63b8ff" stroke="#63b8ff" points="622.4,-99.39 632.44,-95.98 622.47,-92.39 622.4,-99.39"/>
</a>
</g>
</g>
<!-- Node4 -->
<g id="Node000004" class="node">
<title>Node4</title>
<g id="a_Node000004"><a xlink:href="class_bit_vector.html#aebe159444eb9d619959b7325ac5dac2d" target="_top" xlink:title="Return the value of the bit at the position coord.">
<polygon fill="white" stroke="#666666" points="884,-58 801,-58 801,-39 884,-39 884,-58"/>
<text text-anchor="middle" x="842.5" y="-46" font-family="Helvetica,sans-Serif" font-size="10.00">BitVector::get</text>
</a>
</g>
</g>
<!-- Node3&#45;&gt;Node4 -->
<g id="edge3_Node000003_Node000004" class="edge">
<title>Node3&#45;&gt;Node4</title>
<g id="a_edge3_Node000003_Node000004"><a xlink:title=" ">
<path fill="none" stroke="#63b8ff" d="M742.05,-129.9C750,-127.44 757.89,-124.35 765,-120.5 790.39,-106.73 813.65,-82.43 827.69,-65.91"/>
<polygon fill="#63b8ff" stroke="#63b8ff" points="830.49,-68.02 834.16,-58.08 825.09,-63.56 830.49,-68.02"/>
</a>
</g>
</g>
<!-- Node4&#45;&gt;Node4 -->
<g id="edge4_Node000004_Node000004" class="edge">
<title>Node4&#45;&gt;Node4</title>
<g id="a_edge4_Node000004_Node000004"><a xlink:title=" ">
<path fill="none" stroke="#63b8ff" d="M822.46,-58.08C812.72,-66.73 819.39,-76 842.5,-76 857.3,-76 865.36,-72.2 866.68,-67.19"/>
<polygon fill="#63b8ff" stroke="#63b8ff" points="869.86,-65.73 862.54,-58.08 863.49,-68.63 869.86,-65.73"/>
</a>
</g>
</g>
<!-- Node5 -->
<g id="Node000005" class="node">
<title>Node5</title>
<g id="a_Node000005"><a xlink:href="class_bit_vector_1_1_coords.html#a2892f7f46c4af93f9733e312229d8ec1" target="_top" xlink:title="Get Coords::octet .">
<polygon fill="white" stroke="#666666" points="1027,-63.5 920,-63.5 920,-33.5 1027,-33.5 1027,-63.5"/>
<text text-anchor="start" x="928" y="-51.5" font-family="Helvetica,sans-Serif" font-size="10.00">BitVector::Coords::</text>
<text text-anchor="middle" x="973.5" y="-40.5" font-family="Helvetica,sans-Serif" font-size="10.00">getOctet</text>
</a>
</g>
</g>
<!-- Node4&#45;&gt;Node5 -->
<g id="edge5_Node000004_Node000005" class="edge">
<title>Node4&#45;&gt;Node5</title>
<g id="a_edge5_Node000004_Node000005"><a xlink:title=" ">
<path fill="none" stroke="#63b8ff" d="M884.32,-48.5C892.38,-48.5 901.02,-48.5 909.62,-48.5"/>
<polygon fill="#63b8ff" stroke="#63b8ff" points="909.66,-52 919.66,-48.5 909.66,-45 909.66,-52"/>
</a>
</g>
</g>
<!-- Node7&#45;&gt;Node2 -->
<g id="edge8_Node000007_Node000002" class="edge">
<title>Node7&#45;&gt;Node2</title>
<g id="a_edge8_Node000007_Node000002"><a xlink:title=" ">
<path fill="none" stroke="#63b8ff" d="M321.83,-61.04C350.25,-67.09 387.38,-75 418.41,-81.6"/>
<polygon fill="#63b8ff" stroke="#63b8ff" points="417.74,-85.04 428.25,-83.7 419.2,-78.19 417.74,-85.04"/>
</a>
</g>
</g>
<!-- Node8 -->
<g id="Node000008" class="node">
<title>Node8</title>
<g id="a_Node000008"><a xlink:href="class_bit_vector.html#a68b14af0886039ddcf55c82a250deb4c" target="_top" xlink:title="How many element can be contained in this kind of object.">
<polygon fill="white" stroke="#666666" points="765,-63.5 607,-63.5 607,-33.5 765,-33.5 765,-63.5"/>
<text text-anchor="start" x="615" y="-51.5" font-family="Helvetica,sans-Serif" font-size="10.00">BitVector::maximumElement</text>
<text text-anchor="middle" x="686" y="-40.5" font-family="Helvetica,sans-Serif" font-size="10.00">Number</text>
</a>
</g>
</g>
<!-- Node7&#45;&gt;Node8 -->
<g id="edge9_Node000007_Node000008" class="edge">
<title>Node7&#45;&gt;Node8</title>
<g id="a_edge9_Node000007_Node000008"><a xlink:title=" ">
<path fill="none" stroke="#63b8ff" d="M353.26,-50.94C422.32,-50.43 524.06,-49.68 596.64,-49.15"/>
<polygon fill="#63b8ff" stroke="#63b8ff" points="596.71,-52.65 606.68,-49.08 596.65,-45.65 596.71,-52.65"/>
</a>
</g>
</g>
<!-- Node9 -->
<g id="Node000009" class="node">
<title>Node9</title>
<g id="a_Node000009"><a xlink:href="class_bit_vector.html#aa3228d2bacb1bb0f6072d73d43a49456" target="_top" xlink:title="How many octet can be contained in this kind of object.">
<polygon fill="white" stroke="#666666" points="571,-19 389,-19 389,0 571,0 571,-19"/>
<text text-anchor="middle" x="480" y="-7" font-family="Helvetica,sans-Serif" font-size="10.00">BitVector::maximumOctetNumber</text>
</a>
</g>
</g>
<!-- Node7&#45;&gt;Node9 -->
<g id="edge11_Node000007_Node000009" class="edge">
<title>Node7&#45;&gt;Node9</title>
<g id="a_edge11_Node000007_Node000009"><a xlink:title=" ">
<path fill="none" stroke="#63b8ff" d="M322.84,-41.97C352.56,-35.79 391.48,-27.7 423.03,-21.14"/>
<polygon fill="#63b8ff" stroke="#63b8ff" points="423.92,-24.53 433,-19.07 422.49,-17.67 423.92,-24.53"/>
</a>
</g>
</g>
<!-- Node8&#45;&gt;Node4 -->
<g id="edge10_Node000008_Node000004" class="edge">
<title>Node8&#45;&gt;Node4</title>
<g id="a_edge10_Node000008_Node000004"><a xlink:title=" ">
<path fill="none" stroke="#63b8ff" d="M765.16,-48.5C773.79,-48.5 782.4,-48.5 790.57,-48.5"/>
<polygon fill="#63b8ff" stroke="#63b8ff" points="790.65,-52 800.65,-48.5 790.65,-45 790.65,-52"/>
</a>
</g>
</g>
<!-- Node9&#45;&gt;Node4 -->
<g id="edge12_Node000009_Node000004" class="edge">
<title>Node9&#45;&gt;Node4</title>
<g id="a_edge12_Node000009_Node000004"><a xlink:title=" ">
<path fill="none" stroke="#63b8ff" d="M571.2,-8.51C627.36,-9.31 700.86,-12.94 765,-24.5 779.08,-27.04 794.19,-31.41 807.23,-35.73"/>
<polygon fill="#63b8ff" stroke="#63b8ff" points="806.15,-39.06 816.75,-38.99 808.42,-32.44 806.15,-39.06"/>
</a>
</g>
</g>
</g>
</svg>

<g id="navigator" transform="translate(0 0)" fill="#404254">
  <rect fill="#f2f5e9" fill-opacity="0.5" stroke="#606060" stroke-width=".5" x="0" y="0" width="60" height="60"/>
  <use id="zoomplus" xlink:href="#zoomPlus" x="17" y="9" onmousedown="handleZoom(evt,'in')"/>
  <use id="zoomminus" xlink:href="#zoomMin" x="42" y="9" onmousedown="handleZoom(evt,'out')"/>
  <use id="reset" xlink:href="#resetDef" x="30" y="36" onmousedown="handleReset()"/>
   <use id="arrowup" xlink:href="#arrowUp" x="0" y="0" onmousedown="handlePan(0,-1)"/>
  <use id="arrowright" xlink:href="#arrowRight" x="0" y="0" onmousedown="handlePan(1,0)"/>
  <use id="arrowdown" xlink:href="#arrowDown" x="0" y="0" onmousedown="handlePan(0,1)"/>
  <use id="arrowleft" xlink:href="#arrowLeft" x="0" y="0" onmousedown="handlePan(-1,0)"/>
</g>
<svg viewBox="0 0 15 15" width="100%" height="30px" preserveAspectRatio="xMaxYMin meet">
 <g id="arrow_out" transform="scale(0.3 0.3)">
  <a xlink:href="class_bit_vector_a214e556dd89acce2427a378c5520adbd_cgraph_org.svg" target="_base">
   <rect id="button" ry="5" rx="5" y="6" x="6" height="38" width="38"
        fill="#f2f5e9" fill-opacity="0.5" stroke="#606060" stroke-width="1.0"/>
   <path id="arrow"
     d="M 11.500037,31.436501 C 11.940474,20.09759 22.043105,11.32322 32.158766,21.979434 L 37.068811,17.246167 C 37.068811,17.246167 37.088388,32 37.088388,32 L 22.160133,31.978069 C 22.160133,31.978069 26.997745,27.140456 26.997745,27.140456 C 18.528582,18.264221 13.291696,25.230495 11.500037,31.436501 z"
     style="fill:#404040;"/>
  </a>
 </g>
</svg>

<style type='text/css'>
<![CDATA[
[data-mouse-over-selected='false'] { opacity: 0.7; }
[data-mouse-over-selected='true']  { opacity: 1.0; }
]]>
</style>
<script type="application/ecmascript"><![CDATA[
document.addEventListener('DOMContentLoaded', (event) => {
  highlightEdges();
  highlightAdjacentNodes();
});
]]></script>
</svg>
