<?xml version="1.0" encoding="UTF-8" standalone="no"?>
<!DOCTYPE svg PUBLIC "-//W3C//DTD SVG 1.1//EN"
 "http://www.w3.org/Graphics/SVG/1.1/DTD/svg11.dtd">
<!-- Generated by graphviz version 2.43.0 (0)
 -->
<!-- Title: BitVector::set Pages: 1 -->
<!--zoomable 352 -->

<svg id="main" version="1.1" xmlns="http://www.w3.org/2000/svg" xmlns:xlink="http://www.w3.org/1999/xlink" xml:space="preserve" onload="init(evt)">
<style type="text/css"><![CDATA[
.node, .edge {opacity: 0.7;}
.node.selected, .edge.selected {opacity: 1;}
.edge:hover path { stroke: red; }
.edge:hover polygon { stroke: red; fill: red; }
]]></style>

<defs>
  <circle id="rim" cx="0" cy="0" r="7"/>
  <circle id="rim2" cx="0" cy="0" r="3.5"/>
  <g id="zoomPlus">
    <use xlink:href="#rim" fill="#404040"><set attributeName="fill" to="#808080" begin="zoomplus.mouseover" end="zoomplus.mouseout"/></use>
    <path d="M-4,0h8M0,-4v8" fill="none" stroke="white" stroke-width="1.5" pointer-events="none"/>
  </g>
  <g id="zoomMin">
    <use xlink:href="#rim" fill="#404040"><set attributeName="fill" to="#808080" begin="zoomminus.mouseover" end="zoomminus.mouseout"/></use>
    <path d="M-4,0h8" fill="none" stroke="white" stroke-width="1.5" pointer-events="none"/>
  </g>
  <g id="arrowUp" transform="translate(30 24)">
    <use xlink:href="#rim"/>
    <path pointer-events="none" fill="none" stroke="white" stroke-width="1.5" d="M0,-3.0v7 M-2.5,-0.5L0,-3.0L2.5,-0.5"/>
  </g>
  <g id="arrowRight" transform="rotate(90) translate(36 -43)">
    <use xlink:href="#rim"/>
    <path pointer-events="none" fill="none" stroke="white" stroke-width="1.5" d="M0,-3.0v7 M-2.5,-0.5L0,-3.0L2.5,-0.5"/>
  </g>
  <g id="arrowDown" transform="rotate(180) translate(-30 -48)">
    <use xlink:href="#rim"/>
    <path pointer-events="none" fill="none" stroke="white" stroke-width="1.5" d="M0,-3.0v7 M-2.5,-0.5L0,-3.0L2.5,-0.5"/>
  </g>
  <g id="arrowLeft" transform="rotate(270) translate(-36 17)">
    <use xlink:href="#rim"/>
    <path pointer-events="none" fill="none" stroke="white" stroke-width="1.5" d="M0,-3.0v7 M-2.5,-0.5L0,-3.0L2.5,-0.5"/>
  </g>
  <g id="resetDef">
    <use xlink:href="#rim2" fill="#404040"><set attributeName="fill" to="#808080" begin="reset.mouseover" end="reset.mouseout"/></use>
  </g>
</defs>
<script type="application/ecmascript">
var viewWidth = 894;
var viewHeight = 352;
var sectionId = 'dynsection-63';
</script>
<script type="application/ecmascript" xlink:href="svg.min.js"/>
<svg id="graph" class="graph">
<g id="viewport">
<title>BitVector::set</title>
<!-- Node1 -->
<g id="Node000001" class="node">
<title>Node1</title>
<g id="a_Node000001"><a xlink:title="Replace an element by another element. Can add an element to the list if index = BitVector::_element_...">
<polygon fill="#999999" stroke="#666666" points="886,-170 804,-170 804,-151 886,-151 886,-170"/>
<text text-anchor="middle" x="845" y="-158" font-family="Helvetica,sans-Serif" font-size="10.00">BitVector::set</text>
</a>
</g>
</g>
<!-- Node2 -->
<g id="Node000002" class="node">
<title>Node2</title>
<g id="a_Node000002"><a xlink:href="class_bit_vector.html#afbdbe8a5003f5941ffd5ab095cf87d88" target="_top" xlink:title="Add an element at the end of the vector.">
<polygon fill="white" stroke="#666666" points="767.5,-208 664.5,-208 664.5,-189 767.5,-189 767.5,-208"/>
<text text-anchor="middle" x="716" y="-196" font-family="Helvetica,sans-Serif" font-size="10.00">BitVector::append</text>
</a>
</g>
</g>
<!-- Node1&#45;&gt;Node2 -->
<g id="edge1_Node000001_Node000002" class="edge">
<title>Node1&#45;&gt;Node2</title>
<g id="a_edge1_Node000001_Node000002"><a xlink:title=" ">
<path fill="none" stroke="#63b8ff" d="M802.11,-173.04C784.83,-178.2 765.13,-184.1 749.04,-188.91"/>
<polygon fill="#63b8ff" stroke="#63b8ff" points="803.38,-176.31 811.95,-170.09 801.37,-169.6 803.38,-176.31"/>
</a>
</g>
</g>
<!-- Node3 -->
<g id="Node000003" class="node">
<title>Node3</title>
<g id="a_Node000003"><a xlink:href="class_bit_vector.html#a5547d55a697d61de026d0a94e743624b" target="_top" xlink:title="Construct a new Bit Vector object.">
<polygon fill="white" stroke="#666666" points="594.5,-227 483.5,-227 483.5,-208 594.5,-208 594.5,-227"/>
<text text-anchor="middle" x="539" y="-215" font-family="Helvetica,sans-Serif" font-size="10.00">BitVector::BitVector</text>
</a>
</g>
</g>
<!-- Node1&#45;&gt;Node3 -->
<g id="edge14_Node000001_Node000003" class="edge">
<title>Node1&#45;&gt;Node3</title>
<g id="a_edge14_Node000001_Node000003"><a xlink:title=" ">
<path fill="none" stroke="#63b8ff" d="M827.91,-177.57C813.67,-191.34 791.54,-209.65 768,-217.5 711.11,-236.46 641.7,-232.98 594.52,-226.98"/>
<polygon fill="#63b8ff" stroke="#63b8ff" points="830.76,-179.67 835.33,-170.11 825.8,-174.73 830.76,-179.67"/>
</a>
</g>
</g>
<!-- Node4 -->
<g id="Node000004" class="node">
<title>Node4</title>
<g id="a_Node000004"><a xlink:href="class_bit_vector.html#a686af396e4dff1536b7588213726c4cc" target="_top" xlink:title="Insert a number of blank position inside BitVector::_data.">
<polygon fill="white" stroke="#666666" points="628,-170 450,-170 450,-151 628,-151 628,-170"/>
<text text-anchor="middle" x="539" y="-158" font-family="Helvetica,sans-Serif" font-size="10.00">BitVector::makeRoomForElement</text>
</a>
</g>
</g>
<!-- Node1&#45;&gt;Node4 -->
<g id="edge18_Node000001_Node000004" class="edge">
<title>Node1&#45;&gt;Node4</title>
<g id="a_edge18_Node000001_Node000004"><a xlink:title=" ">
<path fill="none" stroke="#63b8ff" d="M793.86,-160.5C748.94,-160.5 682.03,-160.5 628.17,-160.5"/>
<polygon fill="#63b8ff" stroke="#63b8ff" points="793.94,-164 803.94,-160.5 793.94,-157 793.94,-164"/>
</a>
</g>
</g>
<!-- Node5 -->
<g id="Node000005" class="node">
<title>Node5</title>
<g id="a_Node000005"><a xlink:href="class_sequence.html#aa48778c592160ac60319f780817f491c" target="_top" xlink:title="Insert a number of chars at the position position .">
<polygon fill="white" stroke="#666666" points="414,-284 316,-284 316,-265 414,-265 414,-284"/>
<text text-anchor="middle" x="365" y="-272" font-family="Helvetica,sans-Serif" font-size="10.00">Sequence::insert</text>
</a>
</g>
</g>
<!-- Node1&#45;&gt;Node5 -->
<g id="edge15_Node000001_Node000005" class="edge">
<title>Node1&#45;&gt;Node5</title>
<g id="a_edge15_Node000001_Node000005"><a xlink:title=" ">
<path fill="none" stroke="#63b8ff" d="M832.31,-178.53C819.15,-197.13 795.9,-225.23 768,-238.5 650.77,-294.24 492.7,-288.16 414.28,-280.54"/>
<polygon fill="#63b8ff" stroke="#63b8ff" points="835.36,-180.27 838.1,-170.03 829.58,-176.33 835.36,-180.27"/>
</a>
</g>
</g>
<!-- Node12 -->
<g id="Node000012" class="node">
<title>Node12</title>
<g id="a_Node000012"><a xlink:href="class_bit_vector.html#a9f86c96c013632abd9d18feafe78d72e" target="_top" xlink:title="Insert a number_of_elements inside the vector at the index pos .">
<polygon fill="white" stroke="#666666" points="412.5,-151 317.5,-151 317.5,-132 412.5,-132 412.5,-151"/>
<text text-anchor="middle" x="365" y="-139" font-family="Helvetica,sans-Serif" font-size="10.00">BitVector::insert</text>
</a>
</g>
</g>
<!-- Node1&#45;&gt;Node12 -->
<g id="edge16_Node000001_Node000012" class="edge">
<title>Node1&#45;&gt;Node12</title>
<g id="a_edge16_Node000001_Node000012"><a xlink:title=" ">
<path fill="none" stroke="#63b8ff" d="M793.76,-155.18C750.03,-150.82 684.9,-144.98 628,-142.5 552.79,-139.23 465.32,-139.77 412.88,-140.56"/>
<polygon fill="#63b8ff" stroke="#63b8ff" points="793.55,-158.67 803.85,-156.2 794.25,-151.71 793.55,-158.67"/>
</a>
</g>
</g>
<!-- Node13 -->
<g id="Node000013" class="node">
<title>Node13</title>
<g id="a_Node000013"><a xlink:href="class_bit_vector.html#a915743b3f94c75c22317d160bfa741ff" target="_top" xlink:title="Insert a number_of_elements inside the vector at the index pos .">
<polygon fill="white" stroke="#666666" points="412.5,-114 317.5,-114 317.5,-95 412.5,-95 412.5,-114"/>
<text text-anchor="middle" x="365" y="-102" font-family="Helvetica,sans-Serif" font-size="10.00">BitVector::insert</text>
</a>
</g>
</g>
<!-- Node1&#45;&gt;Node13 -->
<g id="edge17_Node000001_Node000013" class="edge">
<title>Node1&#45;&gt;Node13</title>
<g id="a_edge17_Node000001_Node000013"><a xlink:title=" ">
<path fill="none" stroke="#63b8ff" d="M802.55,-148.25C791.42,-145.32 779.32,-142.48 768,-140.5 640.66,-118.21 488.06,-109.35 412.76,-106.14"/>
<polygon fill="#63b8ff" stroke="#63b8ff" points="801.89,-151.69 812.46,-150.93 803.72,-144.94 801.89,-151.69"/>
</a>
</g>
</g>
<!-- Node14 -->
<g id="Node000014" class="node">
<title>Node14</title>
<g id="a_Node000014"><a xlink:href="class_bit_vector.html#a2af5c1a1a0050e2b52d06c38436280fd" target="_top" xlink:title="Add an element at the end of the vector.">
<polygon fill="white" stroke="#666666" points="767.5,-56 664.5,-56 664.5,-37 767.5,-37 767.5,-56"/>
<text text-anchor="middle" x="716" y="-44" font-family="Helvetica,sans-Serif" font-size="10.00">BitVector::append</text>
</a>
</g>
</g>
<!-- Node1&#45;&gt;Node14 -->
<g id="edge13_Node000001_Node000014" class="edge">
<title>Node1&#45;&gt;Node14</title>
<g id="a_edge13_Node000001_Node000014"><a xlink:title=" ">
<path fill="none" stroke="#63b8ff" d="M832.35,-142.53C818.82,-122.78 794.89,-91.14 768,-70.5 760.47,-64.72 751.32,-59.87 742.87,-56.09"/>
<polygon fill="#63b8ff" stroke="#63b8ff" points="829.5,-144.56 837.97,-150.92 835.31,-140.66 829.5,-144.56"/>
</a>
</g>
</g>
<!-- Node15 -->
<g id="Node000015" class="node">
<title>Node15</title>
<g id="a_Node000015"><a xlink:href="class_bit_vector.html#a87f84edf5dd56606b26e8741ba6ced02" target="_top" xlink:title="Remove a number of element from the vector.">
<polygon fill="white" stroke="#666666" points="768,-322 664,-322 664,-303 768,-303 768,-322"/>
<text text-anchor="middle" x="716" y="-310" font-family="Helvetica,sans-Serif" font-size="10.00">BitVector::remove</text>
</a>
</g>
</g>
<!-- Node1&#45;&gt;Node15 -->
<g id="edge19_Node000001_Node000015" class="edge">
<title>Node1&#45;&gt;Node15</title>
<g id="a_edge19_Node000001_Node000015"><a xlink:title=" ">
<path fill="none" stroke="#63b8ff" d="M836.84,-179.74C825.81,-207.09 802.28,-257.36 768,-288.5 761.41,-294.49 753.06,-299.25 745.03,-302.9"/>
<polygon fill="#63b8ff" stroke="#63b8ff" points="840.21,-180.74 840.57,-170.15 833.68,-178.2 840.21,-180.74"/>
</a>
</g>
</g>
<!-- Node17 -->
<g id="Node000017" class="node">
<title>Node17</title>
<g id="a_Node000017"><a xlink:href="class_bit_vector.html#a38e8be69974c874857dd7cb6a52429ac" target="_top" xlink:title="Replace an element by another element. Can add an element to the list if index = BitVector::_element_...">
<polygon fill="white" stroke="#666666" points="757,-19 675,-19 675,0 757,0 757,-19"/>
<text text-anchor="middle" x="716" y="-7" font-family="Helvetica,sans-Serif" font-size="10.00">BitVector::set</text>
</a>
</g>
</g>
<!-- Node1&#45;&gt;Node17 -->
<g id="edge22_Node000001_Node000017" class="edge">
<title>Node1&#45;&gt;Node17</title>
<g id="a_edge22_Node000001_Node000017"><a xlink:title=" ">
<path fill="none" stroke="#63b8ff" d="M837.9,-141.25C827.84,-112.52 805.11,-58.48 768,-27.5 763.89,-24.07 759.08,-21.28 754.09,-19"/>
<polygon fill="#63b8ff" stroke="#63b8ff" points="834.64,-142.56 841.14,-150.93 841.28,-140.33 834.64,-142.56"/>
</a>
</g>
</g>
<!-- Node2&#45;&gt;Node3 -->
<g id="edge2_Node000002_Node000003" class="edge">
<title>Node2&#45;&gt;Node3</title>
<g id="a_edge2_Node000002_Node000003"><a xlink:title=" ">
<path fill="none" stroke="#63b8ff" d="M654.18,-205.1C634.87,-207.2 613.64,-209.5 594.79,-211.55"/>
<polygon fill="#63b8ff" stroke="#63b8ff" points="654.82,-208.55 664.38,-204 654.06,-201.6 654.82,-208.55"/>
</a>
</g>
</g>
<!-- Node2&#45;&gt;Node4 -->
<g id="edge3_Node000002_Node000004" class="edge">
<title>Node2&#45;&gt;Node4</title>
<g id="a_edge3_Node000002_Node000004"><a xlink:title=" ">
<path fill="none" stroke="#63b8ff" d="M660.88,-186.75C636.13,-181.37 607.2,-175.09 583.84,-170.02"/>
<polygon fill="#63b8ff" stroke="#63b8ff" points="660.33,-190.21 670.84,-188.91 661.81,-183.37 660.33,-190.21"/>
</a>
</g>
</g>
<!-- Node4&#45;&gt;Node5 -->
<g id="edge4_Node000004_Node000005" class="edge">
<title>Node4&#45;&gt;Node5</title>
<g id="a_edge4_Node000004_Node000005"><a xlink:title=" ">
<path fill="none" stroke="#63b8ff" d="M500.99,-173.89C484.75,-180.52 465.81,-189.3 450,-199.5 419.77,-219 389.6,-249.22 375.02,-264.67"/>
<polygon fill="#63b8ff" stroke="#63b8ff" points="502.7,-176.98 510.71,-170.05 500.12,-170.48 502.7,-176.98"/>
</a>
</g>
</g>
<!-- Node4&#45;&gt;Node12 -->
<g id="edge11_Node000004_Node000012" class="edge">
<title>Node4&#45;&gt;Node12</title>
<g id="a_edge11_Node000004_Node000012"><a xlink:title=" ">
<path fill="none" stroke="#63b8ff" d="M441.71,-149.86C431.72,-148.76 421.91,-147.68 412.84,-146.67"/>
<polygon fill="#63b8ff" stroke="#63b8ff" points="441.42,-153.35 451.75,-150.97 442.19,-146.4 441.42,-153.35"/>
</a>
</g>
</g>
<!-- Node4&#45;&gt;Node13 -->
<g id="edge12_Node000004_Node000013" class="edge">
<title>Node4&#45;&gt;Node13</title>
<g id="a_edge12_Node000004_Node000013"><a xlink:title=" ">
<path fill="none" stroke="#63b8ff" d="M498.66,-147.69C467.14,-137.43 423.65,-123.27 395.18,-114"/>
<polygon fill="#63b8ff" stroke="#63b8ff" points="497.84,-151.11 508.43,-150.87 500.01,-144.45 497.84,-151.11"/>
</a>
</g>
</g>
<!-- Node6 -->
<g id="Node000006" class="node">
<title>Node6</title>
<g id="a_Node000006"><a xlink:href="class_sequence.html#a3cf6cf5e54782f4d1a2ee07ec519523c" target="_top" xlink:title="Insert a char at the position position .">
<polygon fill="white" stroke="#666666" points="268,-321 170,-321 170,-302 268,-302 268,-321"/>
<text text-anchor="middle" x="219" y="-309" font-family="Helvetica,sans-Serif" font-size="10.00">Sequence::insert</text>
</a>
</g>
</g>
<!-- Node5&#45;&gt;Node6 -->
<g id="edge5_Node000005_Node000006" class="edge">
<title>Node5&#45;&gt;Node6</title>
<g id="a_edge5_Node000005_Node000006"><a xlink:title=" ">
<path fill="none" stroke="#63b8ff" d="M317.09,-286.55C297.77,-291.52 275.68,-297.19 257.46,-301.88"/>
<polygon fill="#63b8ff" stroke="#63b8ff" points="318.1,-289.91 326.92,-284.03 316.36,-283.13 318.1,-289.91"/>
</a>
</g>
</g>
<!-- Node7 -->
<g id="Node000007" class="node">
<title>Node7</title>
<g id="a_Node000007"><a xlink:href="class_sequence.html#aa57fd5a7fdd173374e56006ce1c47bdc" target="_top" xlink:title="Insert a number of chars at the the back of the sequence position .">
<polygon fill="white" stroke="#666666" points="280,-284 158,-284 158,-265 280,-265 280,-284"/>
<text text-anchor="middle" x="219" y="-272" font-family="Helvetica,sans-Serif" font-size="10.00">Sequence::insertBack</text>
</a>
</g>
</g>
<!-- Node5&#45;&gt;Node7 -->
<g id="edge6_Node000005_Node000007" class="edge">
<title>Node5&#45;&gt;Node7</title>
<g id="a_edge6_Node000005_Node000007"><a xlink:title=" ">
<path fill="none" stroke="#63b8ff" d="M305.61,-274.5C297.25,-274.5 288.64,-274.5 280.25,-274.5"/>
<polygon fill="#63b8ff" stroke="#63b8ff" points="305.65,-278 315.65,-274.5 305.65,-271 305.65,-278"/>
</a>
</g>
</g>
<!-- Node8 -->
<g id="Node000008" class="node">
<title>Node8</title>
<g id="a_Node000008"><a xlink:href="class_sequence.html#a092f380b654de9aaa8a770ec0948c454" target="_top" xlink:title="Insert a number of chars at the the front of the sequence position .">
<polygon fill="white" stroke="#666666" points="280,-247 158,-247 158,-228 280,-228 280,-247"/>
<text text-anchor="middle" x="219" y="-235" font-family="Helvetica,sans-Serif" font-size="10.00">Sequence::insertFront</text>
</a>
</g>
</g>
<!-- Node5&#45;&gt;Node8 -->
<g id="edge7_Node000005_Node000008" class="edge">
<title>Node5&#45;&gt;Node8</title>
<g id="a_edge7_Node000005_Node000008"><a xlink:title=" ">
<path fill="none" stroke="#63b8ff" d="M317.09,-262.45C297.77,-257.48 275.68,-251.81 257.46,-247.12"/>
<polygon fill="#63b8ff" stroke="#63b8ff" points="316.36,-265.87 326.92,-264.97 318.1,-259.09 316.36,-265.87"/>
</a>
</g>
</g>
<!-- Node9 -->
<g id="Node000009" class="node">
<title>Node9</title>
<g id="a_Node000009"><a xlink:href="class_sequence.html#a16e70626e330194c1507ed339c9c629c" target="_top" xlink:title="Insert a char at the the back of the sequence position .">
<polygon fill="white" stroke="#666666" points="122,-284 0,-284 0,-265 122,-265 122,-284"/>
<text text-anchor="middle" x="61" y="-272" font-family="Helvetica,sans-Serif" font-size="10.00">Sequence::insertBack</text>
</a>
</g>
</g>
<!-- Node8&#45;&gt;Node9 -->
<g id="edge8_Node000008_Node000009" class="edge">
<title>Node8&#45;&gt;Node9</title>
<g id="a_edge8_Node000008_Node000009"><a xlink:title=" ">
<path fill="none" stroke="#63b8ff" d="M168.01,-249.36C146.78,-254.39 122.36,-260.18 102.31,-264.94"/>
<polygon fill="#63b8ff" stroke="#63b8ff" points="168.9,-252.74 177.83,-247.03 167.29,-245.93 168.9,-252.74"/>
</a>
</g>
</g>
<!-- Node10 -->
<g id="Node000010" class="node">
<title>Node10</title>
<g id="a_Node000010"><a xlink:href="class_sequence.html#a1fa6868ce587e1f3d779bb226cfda548" target="_top" xlink:title="Insert a char at the the front of the sequence position .">
<polygon fill="white" stroke="#666666" points="122,-247 0,-247 0,-228 122,-228 122,-247"/>
<text text-anchor="middle" x="61" y="-235" font-family="Helvetica,sans-Serif" font-size="10.00">Sequence::insertFront</text>
</a>
</g>
</g>
<!-- Node8&#45;&gt;Node10 -->
<g id="edge9_Node000008_Node000010" class="edge">
<title>Node8&#45;&gt;Node10</title>
<g id="a_edge9_Node000008_Node000010"><a xlink:title=" ">
<path fill="none" stroke="#63b8ff" d="M147.46,-237.5C139.01,-237.5 130.44,-237.5 122.15,-237.5"/>
<polygon fill="#63b8ff" stroke="#63b8ff" points="147.69,-241 157.69,-237.5 147.69,-234 147.69,-241"/>
</a>
</g>
</g>
<!-- Node11 -->
<g id="Node000011" class="node">
<title>Node11</title>
<g id="a_Node000011"><a xlink:href="class_sequence.html#ae293cd5124445b604bbcba3a5f01a48a" target="_top" xlink:title="Main Constructor. Construct a new Sequence object.">
<polygon fill="white" stroke="#666666" points="119.5,-210 2.5,-210 2.5,-191 119.5,-191 119.5,-210"/>
<text text-anchor="middle" x="61" y="-198" font-family="Helvetica,sans-Serif" font-size="10.00">Sequence::Sequence</text>
</a>
</g>
</g>
<!-- Node8&#45;&gt;Node11 -->
<g id="edge10_Node000008_Node000011" class="edge">
<title>Node8&#45;&gt;Node11</title>
<g id="a_edge10_Node000008_Node000011"><a xlink:title=" ">
<path fill="none" stroke="#63b8ff" d="M168.01,-225.64C146.78,-220.61 122.36,-214.82 102.31,-210.06"/>
<polygon fill="#63b8ff" stroke="#63b8ff" points="167.29,-229.07 177.83,-227.97 168.9,-222.26 167.29,-229.07"/>
</a>
</g>
</g>
<!-- Node15&#45;&gt;Node5 -->
<g id="edge21_Node000015_Node000005" class="edge">
<title>Node15&#45;&gt;Node5</title>
<g id="a_edge21_Node000015_Node000005"><a xlink:title=" ">
<path fill="none" stroke="#63b8ff" d="M673.42,-324.62C620.33,-338.05 526.22,-354.92 450,-331.5 419.68,-322.18 390.47,-297.79 375.8,-284.12"/>
<polygon fill="#63b8ff" stroke="#63b8ff" points="674.37,-327.99 683.16,-322.08 672.6,-321.22 674.37,-327.99"/>
</a>
</g>
</g>
<!-- Node16 -->
<g id="Node000016" class="node">
<title>Node16</title>
<g id="a_Node000016"><a xlink:href="class_sequence.html#a20eb6bdd6f5cba62a251eff4387a525d" target="_top" xlink:title="Remove a portion of the sequence.">
<polygon fill="white" stroke="#666666" points="587.5,-322 490.5,-322 490.5,-303 587.5,-303 587.5,-322"/>
<text text-anchor="middle" x="539" y="-310" font-family="Helvetica,sans-Serif" font-size="10.00">Sequence::erase</text>
</a>
</g>
</g>
<!-- Node15&#45;&gt;Node16 -->
<g id="edge20_Node000015_Node000016" class="edge">
<title>Node15&#45;&gt;Node16</title>
<g id="a_edge20_Node000015_Node000016"><a xlink:title=" ">
<path fill="none" stroke="#63b8ff" d="M653.8,-312.5C632.07,-312.5 607.97,-312.5 587.55,-312.5"/>
<polygon fill="#63b8ff" stroke="#63b8ff" points="653.91,-316 663.91,-312.5 653.91,-309 653.91,-316"/>
</a>
</g>
</g>
</g>
</svg>

<g id="navigator" transform="translate(0 0)" fill="#404254">
  <rect fill="#f2f5e9" fill-opacity="0.5" stroke="#606060" stroke-width=".5" x="0" y="0" width="60" height="60"/>
  <use id="zoomplus" xlink:href="#zoomPlus" x="17" y="9" onmousedown="handleZoom(evt,'in')"/>
  <use id="zoomminus" xlink:href="#zoomMin" x="42" y="9" onmousedown="handleZoom(evt,'out')"/>
  <use id="reset" xlink:href="#resetDef" x="30" y="36" onmousedown="handleReset()"/>
   <use id="arrowup" xlink:href="#arrowUp" x="0" y="0" onmousedown="handlePan(0,-1)"/>
  <use id="arrowright" xlink:href="#arrowRight" x="0" y="0" onmousedown="handlePan(1,0)"/>
  <use id="arrowdown" xlink:href="#arrowDown" x="0" y="0" onmousedown="handlePan(0,1)"/>
  <use id="arrowleft" xlink:href="#arrowLeft" x="0" y="0" onmousedown="handlePan(-1,0)"/>
</g>
<svg viewBox="0 0 15 15" width="100%" height="30px" preserveAspectRatio="xMaxYMin meet">
 <g id="arrow_out" transform="scale(0.3 0.3)">
  <a xlink:href="class_bit_vector_aca24053f655c825de0f06ec86fff1cec_icgraph_org.svg" target="_base">
   <rect id="button" ry="5" rx="5" y="6" x="6" height="38" width="38"
        fill="#f2f5e9" fill-opacity="0.5" stroke="#606060" stroke-width="1.0"/>
   <path id="arrow"
     d="M 11.500037,31.436501 C 11.940474,20.09759 22.043105,11.32322 32.158766,21.979434 L 37.068811,17.246167 C 37.068811,17.246167 37.088388,32 37.088388,32 L 22.160133,31.978069 C 22.160133,31.978069 26.997745,27.140456 26.997745,27.140456 C 18.528582,18.264221 13.291696,25.230495 11.500037,31.436501 z"
     style="fill:#404040;"/>
  </a>
 </g>
</svg>

<style type='text/css'>
<![CDATA[
[data-mouse-over-selected='false'] { opacity: 0.7; }
[data-mouse-over-selected='true']  { opacity: 1.0; }
]]>
</style>
<script type="application/ecmascript"><![CDATA[
document.addEventListener('DOMContentLoaded', (event) => {
  highlightEdges();
  highlightAdjacentNodes();
});
]]></script>
</svg>
