<?xml version="1.0" encoding="UTF-8" standalone="no"?>
<!DOCTYPE svg PUBLIC "-//W3C//DTD SVG 1.1//EN"
 "http://www.w3.org/Graphics/SVG/1.1/DTD/svg11.dtd">
<!-- Generated by graphviz version 2.43.0 (0)
 -->
<!-- Title: BitVector::getSize_tUnit Pages: 1 -->
<!--zoomable 490 -->

<svg id="main" version="1.1" xmlns="http://www.w3.org/2000/svg" xmlns:xlink="http://www.w3.org/1999/xlink" xml:space="preserve" onload="init(evt)">
<style type="text/css"><![CDATA[
.node, .edge {opacity: 0.7;}
.node.selected, .edge.selected {opacity: 1;}
.edge:hover path { stroke: red; }
.edge:hover polygon { stroke: red; fill: red; }
]]></style>

<defs>
  <circle id="rim" cx="0" cy="0" r="7"/>
  <circle id="rim2" cx="0" cy="0" r="3.5"/>
  <g id="zoomPlus">
    <use xlink:href="#rim" fill="#404040"><set attributeName="fill" to="#808080" begin="zoomplus.mouseover" end="zoomplus.mouseout"/></use>
    <path d="M-4,0h8M0,-4v8" fill="none" stroke="white" stroke-width="1.5" pointer-events="none"/>
  </g>
  <g id="zoomMin">
    <use xlink:href="#rim" fill="#404040"><set attributeName="fill" to="#808080" begin="zoomminus.mouseover" end="zoomminus.mouseout"/></use>
    <path d="M-4,0h8" fill="none" stroke="white" stroke-width="1.5" pointer-events="none"/>
  </g>
  <g id="arrowUp" transform="translate(30 24)">
    <use xlink:href="#rim"/>
    <path pointer-events="none" fill="none" stroke="white" stroke-width="1.5" d="M0,-3.0v7 M-2.5,-0.5L0,-3.0L2.5,-0.5"/>
  </g>
  <g id="arrowRight" transform="rotate(90) translate(36 -43)">
    <use xlink:href="#rim"/>
    <path pointer-events="none" fill="none" stroke="white" stroke-width="1.5" d="M0,-3.0v7 M-2.5,-0.5L0,-3.0L2.5,-0.5"/>
  </g>
  <g id="arrowDown" transform="rotate(180) translate(-30 -48)">
    <use xlink:href="#rim"/>
    <path pointer-events="none" fill="none" stroke="white" stroke-width="1.5" d="M0,-3.0v7 M-2.5,-0.5L0,-3.0L2.5,-0.5"/>
  </g>
  <g id="arrowLeft" transform="rotate(270) translate(-36 17)">
    <use xlink:href="#rim"/>
    <path pointer-events="none" fill="none" stroke="white" stroke-width="1.5" d="M0,-3.0v7 M-2.5,-0.5L0,-3.0L2.5,-0.5"/>
  </g>
  <g id="resetDef">
    <use xlink:href="#rim2" fill="#404040"><set attributeName="fill" to="#808080" begin="reset.mouseover" end="reset.mouseout"/></use>
  </g>
</defs>
<script type="application/ecmascript">
var viewWidth = 1437;
var viewHeight = 490;
var sectionId = 'dynsection-24';
</script>
<script type="application/ecmascript" xlink:href="svg.min.js"/>
<svg id="graph" class="graph">
<g id="viewport">
<title>BitVector::getSize_tUnit</title>
<!-- Node1 -->
<g id="Node000001" class="node">
<title>Node1</title>
<g id="a_Node000001"><a xlink:title="Get the Size_t value if a BitVector::CoordUnit.">
<polygon fill="#999999" stroke="#666666" points="1429,-122.5 1326,-122.5 1326,-92.5 1429,-92.5 1429,-122.5"/>
<text text-anchor="start" x="1334" y="-110.5" font-family="Helvetica,sans-Serif" font-size="10.00">BitVector::getSize</text>
<text text-anchor="middle" x="1377.5" y="-99.5" font-family="Helvetica,sans-Serif" font-size="10.00">_tUnit</text>
</a>
</g>
</g>
<!-- Node2 -->
<g id="Node000002" class="node">
<title>Node2</title>
<g id="a_Node000002"><a xlink:href="class_bit_vector.html#a354c83853bc3622efa5d45efcae97286" target="_top" xlink:title="Give more detailed on BiteVector::indexCoordinate.">
<polygon fill="white" stroke="#666666" points="1286.5,-255.5 1139.5,-255.5 1139.5,-225.5 1286.5,-225.5 1286.5,-255.5"/>
<text text-anchor="start" x="1147.5" y="-243.5" font-family="Helvetica,sans-Serif" font-size="10.00">BitVector::indexCoordinate</text>
<text text-anchor="middle" x="1213" y="-232.5" font-family="Helvetica,sans-Serif" font-size="10.00">Untreated</text>
</a>
</g>
</g>
<!-- Node1&#45;&gt;Node2 -->
<g id="edge1_Node000001_Node000002" class="edge">
<title>Node1&#45;&gt;Node2</title>
<g id="a_edge1_Node000001_Node000002"><a xlink:title=" ">
<path fill="none" stroke="#63b8ff" d="M1358.53,-130.89C1342.21,-151.07 1316.66,-180.1 1290,-200.5 1277.33,-210.19 1261.97,-218.77 1248.39,-225.47"/>
<polygon fill="#63b8ff" stroke="#63b8ff" points="1361.45,-132.84 1364.94,-122.84 1355.98,-128.48 1361.45,-132.84"/>
</a>
</g>
</g>
<!-- Node8 -->
<g id="Node000008" class="node">
<title>Node8</title>
<g id="a_Node000008"><a xlink:href="class_bit_vector.html#a04e6d0b67ee9b42ccec437b0176067fe" target="_top" xlink:title="Give A size_t that represent the coords of the first bit of an element.">
<polygon fill="white" stroke="#666666" points="1100,-218 917,-218 917,-199 1100,-199 1100,-218"/>
<text text-anchor="middle" x="1008.5" y="-206" font-family="Helvetica,sans-Serif" font-size="10.00">BitVector::indexElementUntreated</text>
</a>
</g>
</g>
<!-- Node1&#45;&gt;Node8 -->
<g id="edge7_Node000001_Node000008" class="edge">
<title>Node1&#45;&gt;Node8</title>
<g id="a_edge7_Node000001_Node000008"><a xlink:title=" ">
<path fill="none" stroke="#63b8ff" d="M1337.8,-127C1323.1,-133.86 1306.03,-141.18 1290,-146.5 1215.57,-171.21 1126.74,-188.96 1069.29,-198.97"/>
<polygon fill="#63b8ff" stroke="#63b8ff" points="1339.55,-130.04 1347.08,-122.59 1336.55,-123.72 1339.55,-130.04"/>
</a>
</g>
</g>
<!-- Node11 -->
<g id="Node000011" class="node">
<title>Node11</title>
<g id="a_Node000011"><a xlink:href="class_bit_vector.html#a13856f33d2350c573cf2fbe587f03757" target="_top" xlink:title="Modify the length of BitVector::_data.">
<polygon fill="white" stroke="#666666" points="668.5,-56 572.5,-56 572.5,-37 668.5,-37 668.5,-56"/>
<text text-anchor="middle" x="620.5" y="-44" font-family="Helvetica,sans-Serif" font-size="10.00">BitVector::resize</text>
</a>
</g>
</g>
<!-- Node1&#45;&gt;Node11 -->
<g id="edge38_Node000001_Node000011" class="edge">
<title>Node1&#45;&gt;Node11</title>
<g id="a_edge38_Node000001_Node000011"><a xlink:title=" ">
<path fill="none" stroke="#63b8ff" d="M1315.81,-94.24C1307.17,-92.53 1298.37,-90.9 1290,-89.5 1059.43,-51.01 778.82,-46.45 668.88,-46.27"/>
<polygon fill="#63b8ff" stroke="#63b8ff" points="1315.36,-97.72 1325.86,-96.26 1316.74,-90.85 1315.36,-97.72"/>
</a>
</g>
</g>
<!-- Node14 -->
<g id="Node000014" class="node">
<title>Node14</title>
<g id="a_Node000014"><a xlink:href="class_bit_vector.html#a80a4aa212535129b881b4fb2623ce222" target="_top" xlink:title="Reduce the size of BitVector::_data to fit BitVector::_element_number.">
<polygon fill="white" stroke="#666666" points="473,-19 376,-19 376,0 473,0 473,-19"/>
<text text-anchor="middle" x="424.5" y="-7" font-family="Helvetica,sans-Serif" font-size="10.00">BitVector::shrink</text>
</a>
</g>
</g>
<!-- Node1&#45;&gt;Node14 -->
<g id="edge39_Node000001_Node000014" class="edge">
<title>Node1&#45;&gt;Node14</title>
<g id="a_edge39_Node000001_Node000014"><a xlink:title=" ">
<path fill="none" stroke="#63b8ff" d="M1340.87,-87.69C1325.58,-79.86 1307.29,-71.35 1290,-65.5 1169.5,-24.73 1136.71,-8.5 1009.5,-8.5 1009.5,-8.5 1009.5,-8.5 808,-8.5 687.47,-8.5 545.58,-9 473.21,-9.3"/>
<polygon fill="#63b8ff" stroke="#63b8ff" points="1339.49,-90.92 1349.97,-92.45 1342.73,-84.72 1339.49,-90.92"/>
</a>
</g>
</g>
<!-- Node23 -->
<g id="Node000023" class="node">
<title>Node23</title>
<g id="a_Node000023"><a xlink:href="class_bit_vector.html#ad36e7d0b4b1417ca434414fa40c72eb8" target="_top" xlink:title="How many element can be contained in this object knowing BitVector::_element_size.">
<polygon fill="white" stroke="#666666" points="1290,-137 1136,-137 1136,-118 1290,-118 1290,-137"/>
<text text-anchor="middle" x="1213" y="-125" font-family="Helvetica,sans-Serif" font-size="10.00">BitVector::maxElementLimit</text>
</a>
</g>
</g>
<!-- Node1&#45;&gt;Node23 -->
<g id="edge27_Node000001_Node000023" class="edge">
<title>Node1&#45;&gt;Node23</title>
<g id="a_edge27_Node000001_Node000023"><a xlink:title=" ">
<path fill="none" stroke="#63b8ff" d="M1315.91,-114.96C1307.51,-115.99 1298.79,-117.06 1290.15,-118.13"/>
<polygon fill="#63b8ff" stroke="#63b8ff" points="1316.48,-118.41 1325.97,-113.72 1315.62,-111.47 1316.48,-118.41"/>
</a>
</g>
</g>
<!-- Node26 -->
<g id="Node000026" class="node">
<title>Node26</title>
<g id="a_Node000026"><a xlink:href="class_bit_vector.html#a214e556dd89acce2427a378c5520adbd" target="_top" xlink:title="Last acceptable coordinate knowing BitVector::_element_size.">
<polygon fill="white" stroke="#666666" points="1090,-94 927,-94 927,-75 1090,-75 1090,-94"/>
<text text-anchor="middle" x="1008.5" y="-82" font-family="Helvetica,sans-Serif" font-size="10.00">BitVector::MaximalCoordLimit</text>
</a>
</g>
</g>
<!-- Node1&#45;&gt;Node26 -->
<g id="edge37_Node000001_Node000026" class="edge">
<title>Node1&#45;&gt;Node26</title>
<g id="a_edge37_Node000001_Node000026"><a xlink:title=" ">
<path fill="none" stroke="#63b8ff" d="M1315.51,-103.68C1253.84,-99.81 1158.19,-93.82 1090.25,-89.56"/>
<polygon fill="#63b8ff" stroke="#63b8ff" points="1315.66,-107.19 1325.86,-104.33 1316.09,-100.21 1315.66,-107.19"/>
</a>
</g>
</g>
<!-- Node3 -->
<g id="Node000003" class="node">
<title>Node3</title>
<g id="a_Node000003"><a xlink:href="class_bit_vector.html#a5af3c70f593aac387de23c7e6e5ae57e" target="_top" xlink:title="Find the element that correspond to coord .">
<polygon fill="white" stroke="#666666" points="1082,-343 935,-343 935,-324 1082,-324 1082,-343"/>
<text text-anchor="middle" x="1008.5" y="-331" font-family="Helvetica,sans-Serif" font-size="10.00">BitVector::indexCoordinate</text>
</a>
</g>
</g>
<!-- Node2&#45;&gt;Node3 -->
<g id="edge2_Node000002_Node000003" class="edge">
<title>Node2&#45;&gt;Node3</title>
<g id="a_edge2_Node000002_Node000003"><a xlink:title=" ">
<path fill="none" stroke="#63b8ff" d="M1169.74,-259.91C1127.13,-279.48 1063.11,-308.88 1030.39,-323.91"/>
<polygon fill="#63b8ff" stroke="#63b8ff" points="1171.39,-263 1179.01,-255.65 1168.47,-256.64 1171.39,-263"/>
</a>
</g>
</g>
<!-- Node4 -->
<g id="Node000004" class="node">
<title>Node4</title>
<g id="a_Node000004"><a xlink:href="class_bit_vector.html#aed5c03f3a6a9a2e5f3c58fb14768b0b4" target="_top" xlink:title="Say how many items can be hold inside this object with the current BitVector::_data_size:">
<polygon fill="white" stroke="#666666" points="881,-386 737,-386 737,-367 881,-367 881,-386"/>
<text text-anchor="middle" x="809" y="-374" font-family="Helvetica,sans-Serif" font-size="10.00">BitVector::currentCapacity</text>
</a>
</g>
</g>
<!-- Node3&#45;&gt;Node4 -->
<g id="edge3_Node000003_Node000004" class="edge">
<title>Node3&#45;&gt;Node4</title>
<g id="a_edge3_Node000003_Node000004"><a xlink:title=" ">
<path fill="none" stroke="#63b8ff" d="M953.76,-345.2C922.35,-352.04 883.22,-360.56 853.71,-366.98"/>
<polygon fill="#63b8ff" stroke="#63b8ff" points="954.64,-348.59 963.67,-343.04 953.15,-341.75 954.64,-348.59"/>
</a>
</g>
</g>
<!-- Node5 -->
<g id="Node000005" class="node">
<title>Node5</title>
<g id="a_Node000005"><a xlink:href="class_bit_vector.html#ad64e921d07b9528a532477f282af135c" target="_top" xlink:title="How many element can fit in this vector without having to resize the vector ?">
<polygon fill="white" stroke="#666666" points="880,-348.5 738,-348.5 738,-318.5 880,-318.5 880,-348.5"/>
<text text-anchor="start" x="746" y="-336.5" font-family="Helvetica,sans-Serif" font-size="10.00">BitVector::currentElement</text>
<text text-anchor="middle" x="809" y="-325.5" font-family="Helvetica,sans-Serif" font-size="10.00">Capacity</text>
</a>
</g>
</g>
<!-- Node3&#45;&gt;Node5 -->
<g id="edge4_Node000003_Node000005" class="edge">
<title>Node3&#45;&gt;Node5</title>
<g id="a_edge4_Node000003_Node000005"><a xlink:title=" ">
<path fill="none" stroke="#63b8ff" d="M924.67,-333.5C909.89,-333.5 894.63,-333.5 880.24,-333.5"/>
<polygon fill="#63b8ff" stroke="#63b8ff" points="924.8,-337 934.8,-333.5 924.8,-330 924.8,-337"/>
</a>
</g>
</g>
<!-- Node6 -->
<g id="Node000006" class="node">
<title>Node6</title>
<g id="a_Node000006"><a xlink:href="class_bit_vector.html#ad60f42244db2c82260326605916431d3" target="_top" xlink:title="Modify the number of known element in this object.">
<polygon fill="white" stroke="#666666" points="701,-425 540,-425 540,-406 701,-406 701,-425"/>
<text text-anchor="middle" x="620.5" y="-413" font-family="Helvetica,sans-Serif" font-size="10.00">BitVector::setElementNumber</text>
</a>
</g>
</g>
<!-- Node5&#45;&gt;Node6 -->
<g id="edge5_Node000005_Node000006" class="edge">
<title>Node5&#45;&gt;Node6</title>
<g id="a_edge5_Node000005_Node000006"><a xlink:title=" ">
<path fill="none" stroke="#63b8ff" d="M752.9,-352.16C747.49,-354.22 742.12,-356.34 737,-358.5 701.55,-373.42 661.6,-394.02 639.2,-405.94"/>
<polygon fill="#63b8ff" stroke="#63b8ff" points="754.46,-355.32 762.62,-348.57 752.03,-348.76 754.46,-355.32"/>
</a>
</g>
</g>
<!-- Node7 -->
<g id="Node000007" class="node">
<title>Node7</title>
<g id="a_Node000007"><a xlink:href="class_bit_vector.html#a87f84edf5dd56606b26e8741ba6ced02" target="_top" xlink:title="Remove a number of element from the vector.">
<polygon fill="white" stroke="#666666" points="476.5,-482 372.5,-482 372.5,-463 476.5,-463 476.5,-482"/>
<text text-anchor="middle" x="424.5" y="-470" font-family="Helvetica,sans-Serif" font-size="10.00">BitVector::remove</text>
</a>
</g>
</g>
<!-- Node6&#45;&gt;Node7 -->
<g id="edge6_Node000006_Node000007" class="edge">
<title>Node6&#45;&gt;Node7</title>
<g id="a_edge6_Node000006_Node000007"><a xlink:title=" ">
<path fill="none" stroke="#63b8ff" d="M577.35,-427.88C541.53,-438.41 490.85,-453.3 458.08,-462.93"/>
<polygon fill="#63b8ff" stroke="#63b8ff" points="578.42,-431.22 587.03,-425.04 576.45,-424.5 578.42,-431.22"/>
</a>
</g>
</g>
<!-- Node9 -->
<g id="Node000009" class="node">
<title>Node9</title>
<g id="a_Node000009"><a xlink:href="class_bit_vector.html#a93ab8bc2ec39bf299ae28ffcad504b41" target="_top" xlink:title="Give the coords of the first bit of an element.">
<polygon fill="white" stroke="#666666" points="876,-218 742,-218 742,-199 876,-199 876,-218"/>
<text text-anchor="middle" x="809" y="-206" font-family="Helvetica,sans-Serif" font-size="10.00">BitVector::indexElement</text>
</a>
</g>
</g>
<!-- Node8&#45;&gt;Node9 -->
<g id="edge8_Node000008_Node000009" class="edge">
<title>Node8&#45;&gt;Node9</title>
<g id="a_edge8_Node000008_Node000009"><a xlink:title=" ">
<path fill="none" stroke="#63b8ff" d="M906.55,-208.5C896.26,-208.5 885.99,-208.5 876.21,-208.5"/>
<polygon fill="#63b8ff" stroke="#63b8ff" points="906.84,-212 916.84,-208.5 906.84,-205 906.84,-212"/>
</a>
</g>
</g>
<!-- Node10 -->
<g id="Node000010" class="node">
<title>Node10</title>
<g id="a_Node000010"><a xlink:href="class_bit_vector.html#a2d0fe43b80b63edbd64dc887fd87d915" target="_top" xlink:title="Return the element at the position index.">
<polygon fill="white" stroke="#666666" points="662,-218 579,-218 579,-199 662,-199 662,-218"/>
<text text-anchor="middle" x="620.5" y="-206" font-family="Helvetica,sans-Serif" font-size="10.00">BitVector::get</text>
</a>
</g>
</g>
<!-- Node9&#45;&gt;Node10 -->
<g id="edge9_Node000009_Node000010" class="edge">
<title>Node9&#45;&gt;Node10</title>
<g id="a_edge9_Node000009_Node000010"><a xlink:title=" ">
<path fill="none" stroke="#63b8ff" d="M731.87,-208.5C708.01,-208.5 682.59,-208.5 662.17,-208.5"/>
<polygon fill="#63b8ff" stroke="#63b8ff" points="731.98,-212 741.98,-208.5 731.98,-205 731.98,-212"/>
</a>
</g>
</g>
<!-- Node9&#45;&gt;Node11 -->
<g id="edge10_Node000009_Node000011" class="edge">
<title>Node9&#45;&gt;Node11</title>
<g id="a_edge10_Node000009_Node000011"><a xlink:title=" ">
<path fill="none" stroke="#63b8ff" d="M796.56,-190.19C774.51,-155.46 726.1,-82 701,-65.5 691.39,-59.19 679.91,-54.97 668.69,-52.15"/>
<polygon fill="#63b8ff" stroke="#63b8ff" points="793.74,-192.29 802.04,-198.88 799.67,-188.55 793.74,-192.29"/>
</a>
</g>
</g>
<!-- Node15 -->
<g id="Node000015" class="node">
<title>Node15</title>
<g id="a_Node000015"><a xlink:href="class_bit_vector.html#aca24053f655c825de0f06ec86fff1cec" target="_top" xlink:title="Replace an element by another element. Can add an element to the list if index = BitVector::_element_...">
<polygon fill="white" stroke="#666666" points="661.5,-331 579.5,-331 579.5,-312 661.5,-312 661.5,-331"/>
<text text-anchor="middle" x="620.5" y="-319" font-family="Helvetica,sans-Serif" font-size="10.00">BitVector::set</text>
</a>
</g>
</g>
<!-- Node9&#45;&gt;Node15 -->
<g id="edge14_Node000009_Node000015" class="edge">
<title>Node9&#45;&gt;Node15</title>
<g id="a_edge14_Node000009_Node000015"><a xlink:title=" ">
<path fill="none" stroke="#63b8ff" d="M783.48,-223.35C744.62,-246.9 669.95,-292.15 637.36,-311.89"/>
<polygon fill="#63b8ff" stroke="#63b8ff" points="785.36,-226.31 792.1,-218.13 781.73,-220.32 785.36,-226.31"/>
</a>
</g>
</g>
<!-- Node12 -->
<g id="Node000012" class="node">
<title>Node12</title>
<g id="a_Node000012"><a xlink:href="class_bit_vector.html#a23c1685317944b2a5c6f149a5fccc6bd" target="_top" xlink:title="Construct a new Bit Vector object.">
<polygon fill="white" stroke="#666666" points="480,-93 369,-93 369,-74 480,-74 480,-93"/>
<text text-anchor="middle" x="424.5" y="-81" font-family="Helvetica,sans-Serif" font-size="10.00">BitVector::BitVector</text>
</a>
</g>
</g>
<!-- Node11&#45;&gt;Node12 -->
<g id="edge11_Node000011_Node000012" class="edge">
<title>Node11&#45;&gt;Node12</title>
<g id="a_edge11_Node000011_Node000012"><a xlink:title=" ">
<path fill="none" stroke="#63b8ff" d="M562.16,-57.44C534.65,-62.68 502,-68.91 475.52,-73.96"/>
<polygon fill="#63b8ff" stroke="#63b8ff" points="562.88,-60.86 572.04,-55.55 561.56,-53.99 562.88,-60.86"/>
</a>
</g>
</g>
<!-- Node13 -->
<g id="Node000013" class="node">
<title>Node13</title>
<g id="a_Node000013"><a xlink:href="class_bit_vector.html#a673b530bb6e520f7f7fa90070e0034db" target="_top" xlink:title="Free memory used by BitVector::_data.">
<polygon fill="white" stroke="#666666" points="470,-56 379,-56 379,-37 470,-37 470,-56"/>
<text text-anchor="middle" x="424.5" y="-44" font-family="Helvetica,sans-Serif" font-size="10.00">BitVector::clear</text>
</a>
</g>
</g>
<!-- Node11&#45;&gt;Node13 -->
<g id="edge12_Node000011_Node000013" class="edge">
<title>Node11&#45;&gt;Node13</title>
<g id="a_edge12_Node000011_Node000013"><a xlink:title=" ">
<path fill="none" stroke="#63b8ff" d="M561.92,-46.5C532.57,-46.5 497.41,-46.5 470.14,-46.5"/>
<polygon fill="#63b8ff" stroke="#63b8ff" points="562.04,-50 572.04,-46.5 562.04,-43 562.04,-50"/>
</a>
</g>
</g>
<!-- Node11&#45;&gt;Node14 -->
<g id="edge13_Node000011_Node000014" class="edge">
<title>Node11&#45;&gt;Node14</title>
<g id="a_edge13_Node000011_Node000014"><a xlink:title=" ">
<path fill="none" stroke="#63b8ff" d="M561.89,-35.51C533.61,-30.12 499.95,-23.7 473.14,-18.59"/>
<polygon fill="#63b8ff" stroke="#63b8ff" points="561.56,-39.01 572.04,-37.45 562.88,-32.14 561.56,-39.01"/>
</a>
</g>
</g>
<!-- Node15&#45;&gt;Node7 -->
<g id="edge25_Node000015_Node000007" class="edge">
<title>Node15&#45;&gt;Node7</title>
<g id="a_edge25_Node000015_Node000007"><a xlink:title=" ">
<path fill="none" stroke="#63b8ff" d="M600.5,-337.77C583.73,-352.55 559.07,-375.37 540,-397.5 521.89,-418.52 526.48,-432.23 504,-448.5 495.34,-454.77 485.02,-459.42 474.75,-462.87"/>
<polygon fill="#63b8ff" stroke="#63b8ff" points="602.8,-340.41 608.04,-331.2 598.2,-335.13 602.8,-340.41"/>
</a>
</g>
</g>
<!-- Node16 -->
<g id="Node000016" class="node">
<title>Node16</title>
<g id="a_Node000016"><a xlink:href="class_bit_vector.html#afbdbe8a5003f5941ffd5ab095cf87d88" target="_top" xlink:title="Add an element at the end of the vector.">
<polygon fill="white" stroke="#666666" points="476,-294 373,-294 373,-275 476,-275 476,-294"/>
<text text-anchor="middle" x="424.5" y="-282" font-family="Helvetica,sans-Serif" font-size="10.00">BitVector::append</text>
</a>
</g>
</g>
<!-- Node15&#45;&gt;Node16 -->
<g id="edge15_Node000015_Node000016" class="edge">
<title>Node15&#45;&gt;Node16</title>
<g id="a_edge15_Node000015_Node000016"><a xlink:title=" ">
<path fill="none" stroke="#63b8ff" d="M569.44,-311.95C540.61,-306.45 504.5,-299.57 475.66,-294.07"/>
<polygon fill="#63b8ff" stroke="#63b8ff" points="568.82,-315.4 579.3,-313.83 570.14,-308.52 568.82,-315.4"/>
</a>
</g>
</g>
<!-- Node17 -->
<g id="Node000017" class="node">
<title>Node17</title>
<g id="a_Node000017"><a xlink:href="class_bit_vector.html#a5547d55a697d61de026d0a94e743624b" target="_top" xlink:title="Construct a new Bit Vector object.">
<polygon fill="white" stroke="#666666" points="275.5,-350 164.5,-350 164.5,-331 275.5,-331 275.5,-350"/>
<text text-anchor="middle" x="220" y="-338" font-family="Helvetica,sans-Serif" font-size="10.00">BitVector::BitVector</text>
</a>
</g>
</g>
<!-- Node15&#45;&gt;Node17 -->
<g id="edge21_Node000015_Node000017" class="edge">
<title>Node15&#45;&gt;Node17</title>
<g id="a_edge21_Node000015_Node000017"><a xlink:title=" ">
<path fill="none" stroke="#63b8ff" d="M596.85,-336.32C574.36,-350.08 538.36,-369.61 504,-377.5 435.13,-393.32 414.93,-387.71 345,-377.5 309.43,-372.31 269.89,-359.15 245.23,-350.02"/>
<polygon fill="#63b8ff" stroke="#63b8ff" points="598.73,-339.28 605.34,-331 595.01,-333.34 598.73,-339.28"/>
</a>
</g>
</g>
<!-- Node18 -->
<g id="Node000018" class="node">
<title>Node18</title>
<g id="a_Node000018"><a xlink:href="class_bit_vector.html#a686af396e4dff1536b7588213726c4cc" target="_top" xlink:title="Insert a number of blank position inside BitVector::_data.">
<polygon fill="white" stroke="#666666" points="309,-256 131,-256 131,-237 309,-237 309,-256"/>
<text text-anchor="middle" x="220" y="-244" font-family="Helvetica,sans-Serif" font-size="10.00">BitVector::makeRoomForElement</text>
</a>
</g>
</g>
<!-- Node15&#45;&gt;Node18 -->
<g id="edge24_Node000015_Node000018" class="edge">
<title>Node15&#45;&gt;Node18</title>
<g id="a_edge24_Node000015_Node000018"><a xlink:title=" ">
<path fill="none" stroke="#63b8ff" d="M595.24,-306.63C572.55,-293.55 537.26,-275.26 504,-266.5 440.17,-249.69 365.63,-245 309.07,-244.35"/>
<polygon fill="#63b8ff" stroke="#63b8ff" points="593.76,-309.82 604.15,-311.88 597.31,-303.79 593.76,-309.82"/>
</a>
</g>
</g>
<!-- Node19 -->
<g id="Node000019" class="node">
<title>Node19</title>
<g id="a_Node000019"><a xlink:href="class_bit_vector.html#a9f86c96c013632abd9d18feafe78d72e" target="_top" xlink:title="Insert a number_of_elements inside the vector at the index pos .">
<polygon fill="white" stroke="#666666" points="95,-237 0,-237 0,-218 95,-218 95,-237"/>
<text text-anchor="middle" x="47.5" y="-225" font-family="Helvetica,sans-Serif" font-size="10.00">BitVector::insert</text>
</a>
</g>
</g>
<!-- Node15&#45;&gt;Node19 -->
<g id="edge22_Node000015_Node000019" class="edge">
<title>Node15&#45;&gt;Node19</title>
<g id="a_edge22_Node000015_Node000019"><a xlink:title=" ">
<path fill="none" stroke="#63b8ff" d="M602.22,-304.94C581.01,-285.79 543.03,-255.14 504,-241.5 361.9,-191.85 179.44,-208.26 95.09,-219.97"/>
<polygon fill="#63b8ff" stroke="#63b8ff" points="600.02,-307.68 609.74,-311.9 604.78,-302.54 600.02,-307.68"/>
</a>
</g>
</g>
<!-- Node20 -->
<g id="Node000020" class="node">
<title>Node20</title>
<g id="a_Node000020"><a xlink:href="class_bit_vector.html#a915743b3f94c75c22317d160bfa741ff" target="_top" xlink:title="Insert a number_of_elements inside the vector at the index pos .">
<polygon fill="white" stroke="#666666" points="95,-274 0,-274 0,-255 95,-255 95,-274"/>
<text text-anchor="middle" x="47.5" y="-262" font-family="Helvetica,sans-Serif" font-size="10.00">BitVector::insert</text>
</a>
</g>
</g>
<!-- Node15&#45;&gt;Node20 -->
<g id="edge23_Node000015_Node000020" class="edge">
<title>Node15&#45;&gt;Node20</title>
<g id="a_edge23_Node000015_Node000020"><a xlink:title=" ">
<path fill="none" stroke="#63b8ff" d="M601.45,-337.82C580.02,-355.99 542.34,-384.27 504,-395.5 436.18,-415.36 415.42,-401.38 345,-395.5 248.89,-387.47 215.12,-406.68 131,-359.5 93.66,-338.55 65.14,-293.99 53.82,-274.26"/>
<polygon fill="#63b8ff" stroke="#63b8ff" points="603.83,-340.38 609.09,-331.18 599.24,-335.1 603.83,-340.38"/>
</a>
</g>
</g>
<!-- Node21 -->
<g id="Node000021" class="node">
<title>Node21</title>
<g id="a_Node000021"><a xlink:href="class_bit_vector.html#a2af5c1a1a0050e2b52d06c38436280fd" target="_top" xlink:title="Add an element at the end of the vector.">
<polygon fill="white" stroke="#666666" points="476,-368 373,-368 373,-349 476,-349 476,-368"/>
<text text-anchor="middle" x="424.5" y="-356" font-family="Helvetica,sans-Serif" font-size="10.00">BitVector::append</text>
</a>
</g>
</g>
<!-- Node15&#45;&gt;Node21 -->
<g id="edge20_Node000015_Node000021" class="edge">
<title>Node15&#45;&gt;Node21</title>
<g id="a_edge20_Node000015_Node000021"><a xlink:title=" ">
<path fill="none" stroke="#63b8ff" d="M569.44,-331.05C540.61,-336.55 504.5,-343.43 475.66,-348.93"/>
<polygon fill="#63b8ff" stroke="#63b8ff" points="570.14,-334.48 579.3,-329.17 568.82,-327.6 570.14,-334.48"/>
</a>
</g>
</g>
<!-- Node22 -->
<g id="Node000022" class="node">
<title>Node22</title>
<g id="a_Node000022"><a xlink:href="class_bit_vector.html#a38e8be69974c874857dd7cb6a52429ac" target="_top" xlink:title="Replace an element by another element. Can add an element to the list if index = BitVector::_element_...">
<polygon fill="white" stroke="#666666" points="465.5,-331 383.5,-331 383.5,-312 465.5,-312 465.5,-331"/>
<text text-anchor="middle" x="424.5" y="-319" font-family="Helvetica,sans-Serif" font-size="10.00">BitVector::set</text>
</a>
</g>
</g>
<!-- Node15&#45;&gt;Node22 -->
<g id="edge26_Node000015_Node000022" class="edge">
<title>Node15&#45;&gt;Node22</title>
<g id="a_edge26_Node000015_Node000022"><a xlink:title=" ">
<path fill="none" stroke="#63b8ff" d="M569.18,-321.5C536.94,-321.5 495.68,-321.5 465.65,-321.5"/>
<polygon fill="#63b8ff" stroke="#63b8ff" points="569.3,-325 579.3,-321.5 569.3,-318 569.3,-325"/>
</a>
</g>
</g>
<!-- Node16&#45;&gt;Node17 -->
<g id="edge16_Node000016_Node000017" class="edge">
<title>Node16&#45;&gt;Node17</title>
<g id="a_edge16_Node000016_Node000017"><a xlink:title=" ">
<path fill="none" stroke="#63b8ff" d="M372.46,-296.44C363.29,-298.7 353.85,-301.11 345,-303.5 312.9,-312.17 276.47,-323.18 251.45,-330.93"/>
<polygon fill="#63b8ff" stroke="#63b8ff" points="373.36,-299.82 382.25,-294.05 371.7,-293.02 373.36,-299.82"/>
</a>
</g>
</g>
<!-- Node16&#45;&gt;Node18 -->
<g id="edge17_Node000016_Node000018" class="edge">
<title>Node16&#45;&gt;Node18</title>
<g id="a_edge17_Node000016_Node000018"><a xlink:title=" ">
<path fill="none" stroke="#63b8ff" d="M362.87,-273.12C333.77,-267.66 299.31,-261.19 271.63,-256"/>
<polygon fill="#63b8ff" stroke="#63b8ff" points="362.45,-276.6 372.92,-275.01 363.74,-269.72 362.45,-276.6"/>
</a>
</g>
</g>
<!-- Node18&#45;&gt;Node19 -->
<g id="edge18_Node000018_Node000019" class="edge">
<title>Node18&#45;&gt;Node19</title>
<g id="a_edge18_Node000018_Node000019"><a xlink:title=" ">
<path fill="none" stroke="#63b8ff" d="M123.14,-235.82C113.48,-234.74 104.01,-233.69 95.23,-232.71"/>
<polygon fill="#63b8ff" stroke="#63b8ff" points="122.92,-239.32 133.25,-236.94 123.7,-232.36 122.92,-239.32"/>
</a>
</g>
</g>
<!-- Node18&#45;&gt;Node20 -->
<g id="edge19_Node000018_Node000020" class="edge">
<title>Node18&#45;&gt;Node20</title>
<g id="a_edge19_Node000018_Node000020"><a xlink:title=" ">
<path fill="none" stroke="#63b8ff" d="M120.79,-256.87C112.02,-257.79 103.44,-258.7 95.43,-259.55"/>
<polygon fill="#63b8ff" stroke="#63b8ff" points="121.18,-260.35 130.75,-255.82 120.44,-253.39 121.18,-260.35"/>
</a>
</g>
</g>
<!-- Node23&#45;&gt;Node8 -->
<g id="edge28_Node000023_Node000008" class="edge">
<title>Node23&#45;&gt;Node8</title>
<g id="a_edge28_Node000023_Node000008"><a xlink:title=" ">
<path fill="none" stroke="#63b8ff" d="M1187.01,-142.16C1164.77,-154.73 1131.03,-172.64 1100,-184.5 1084.97,-190.24 1068.03,-195.13 1052.9,-198.97"/>
<polygon fill="#63b8ff" stroke="#63b8ff" points="1188.86,-145.13 1195.8,-137.13 1185.39,-139.05 1188.86,-145.13"/>
</a>
</g>
</g>
<!-- Node23&#45;&gt;Node18 -->
<g id="edge29_Node000023_Node000018" class="edge">
<title>Node23&#45;&gt;Node18</title>
<g id="a_edge29_Node000023_Node000018"><a xlink:title=" ">
<path fill="none" stroke="#63b8ff" d="M1151.54,-139.15C1146.28,-140.25 1141.04,-141.37 1136,-142.5 1119.9,-146.1 1116.29,-148.95 1100,-151.5 972.39,-171.47 939.17,-170.5 810,-170.5 810,-170.5 810,-170.5 619.5,-170.5 479.34,-170.5 316.29,-216.42 250.63,-236.87"/>
<polygon fill="#63b8ff" stroke="#63b8ff" points="1152.55,-142.51 1161.64,-137.07 1151.14,-135.66 1152.55,-142.51"/>
</a>
</g>
</g>
<!-- Node24 -->
<g id="Node000024" class="node">
<title>Node24</title>
<g id="a_Node000024"><a xlink:href="class_bit_vector.html#a346dbe2e158d2cfda20212e7f93e8402" target="_top" xlink:title="Do maximum BitVector::_element_number is reached (With no possibility to push it further)">
<polygon fill="white" stroke="#666666" points="1083,-142.5 934,-142.5 934,-112.5 1083,-112.5 1083,-142.5"/>
<text text-anchor="start" x="942" y="-130.5" font-family="Helvetica,sans-Serif" font-size="10.00">BitVector::maxElementSize</text>
<text text-anchor="middle" x="1008.5" y="-119.5" font-family="Helvetica,sans-Serif" font-size="10.00">IsReached</text>
</a>
</g>
</g>
<!-- Node23&#45;&gt;Node24 -->
<g id="edge30_Node000023_Node000024" class="edge">
<title>Node23&#45;&gt;Node24</title>
<g id="a_edge30_Node000023_Node000024"><a xlink:title=" ">
<path fill="none" stroke="#63b8ff" d="M1125.51,-127.5C1111.36,-127.5 1096.82,-127.5 1083.02,-127.5"/>
<polygon fill="#63b8ff" stroke="#63b8ff" points="1125.73,-131 1135.73,-127.5 1125.73,-124 1125.73,-131"/>
</a>
</g>
</g>
<!-- Node23&#45;&gt;Node26 -->
<g id="edge32_Node000023_Node000026" class="edge">
<title>Node23&#45;&gt;Node26</title>
<g id="a_edge32_Node000023_Node000026"><a xlink:title=" ">
<path fill="none" stroke="#63b8ff" d="M1157.91,-115.86C1139.53,-111.92 1118.88,-107.5 1100,-103.5 1085.39,-100.4 1069.46,-97.05 1055.08,-94.03"/>
<polygon fill="#63b8ff" stroke="#63b8ff" points="1157.35,-119.32 1167.86,-118 1158.81,-112.48 1157.35,-119.32"/>
</a>
</g>
</g>
<!-- Node25 -->
<g id="Node000025" class="node">
<title>Node25</title>
<g id="a_Node000025"><a xlink:href="class_bit_vector.html#a87e099aba27ebb0f67c07dd8314828e7" target="_top" xlink:title="Do maximum capacity is reached (With no possibility to push it further)">
<polygon fill="white" stroke="#666666" points="504,-136 345,-136 345,-117 504,-117 504,-136"/>
<text text-anchor="middle" x="424.5" y="-124" font-family="Helvetica,sans-Serif" font-size="10.00">BitVector::maxSizeIsReached</text>
</a>
</g>
</g>
<!-- Node24&#45;&gt;Node25 -->
<g id="edge31_Node000024_Node000025" class="edge">
<title>Node24&#45;&gt;Node25</title>
<g id="a_edge31_Node000024_Node000025"><a xlink:title=" ">
<path fill="none" stroke="#63b8ff" d="M923.53,-127.36C811.25,-127.16 613.7,-126.82 504.18,-126.64"/>
<polygon fill="#63b8ff" stroke="#63b8ff" points="923.78,-130.86 933.79,-127.37 923.8,-123.86 923.78,-130.86"/>
</a>
</g>
</g>
<!-- Node27 -->
<g id="Node000027" class="node">
<title>Node27</title>
<g id="a_Node000027"><a xlink:href="class_bit_vector.html#acb362f03b29600195996f52c04940439" target="_top" xlink:title="How many octet can be contained in this object knowing BitVector::_element_size.">
<polygon fill="white" stroke="#666666" points="879,-94 739,-94 739,-75 879,-75 879,-94"/>
<text text-anchor="middle" x="809" y="-82" font-family="Helvetica,sans-Serif" font-size="10.00">BitVector::maxOctetLimit</text>
</a>
</g>
</g>
<!-- Node26&#45;&gt;Node27 -->
<g id="edge33_Node000026_Node000027" class="edge">
<title>Node26&#45;&gt;Node27</title>
<g id="a_edge33_Node000026_Node000027"><a xlink:title=" ">
<path fill="none" stroke="#63b8ff" d="M916.83,-84.5C904.22,-84.5 891.43,-84.5 879.29,-84.5"/>
<polygon fill="#63b8ff" stroke="#63b8ff" points="916.88,-88 926.88,-84.5 916.88,-81 916.88,-88"/>
</a>
</g>
</g>
<!-- Node27&#45;&gt;Node11 -->
<g id="edge36_Node000027_Node000011" class="edge">
<title>Node27&#45;&gt;Node11</title>
<g id="a_edge36_Node000027_Node000011"><a xlink:title=" ">
<path fill="none" stroke="#63b8ff" d="M751.02,-72.89C724.5,-67.49 693.33,-61.14 668.22,-56.02"/>
<polygon fill="#63b8ff" stroke="#63b8ff" points="750.44,-76.34 760.94,-74.91 751.84,-69.48 750.44,-76.34"/>
</a>
</g>
</g>
<!-- Node28 -->
<g id="Node000028" class="node">
<title>Node28</title>
<g id="a_Node000028"><a xlink:href="class_bit_vector.html#a00aeec5e60b478d74e1540f34f46e37c" target="_top" xlink:title="Do maximum BitVector::_data_size is reached (With no possibility to push it further)">
<polygon fill="white" stroke="#666666" points="690.5,-104.5 550.5,-104.5 550.5,-74.5 690.5,-74.5 690.5,-104.5"/>
<text text-anchor="start" x="558.5" y="-92.5" font-family="Helvetica,sans-Serif" font-size="10.00">BitVector::maxDataSizeIs</text>
<text text-anchor="middle" x="620.5" y="-81.5" font-family="Helvetica,sans-Serif" font-size="10.00">Reached</text>
</a>
</g>
</g>
<!-- Node27&#45;&gt;Node28 -->
<g id="edge34_Node000027_Node000028" class="edge">
<title>Node27&#45;&gt;Node28</title>
<g id="a_edge34_Node000027_Node000028"><a xlink:title=" ">
<path fill="none" stroke="#63b8ff" d="M728.74,-86.63C716.04,-86.97 703,-87.32 690.57,-87.65"/>
<polygon fill="#63b8ff" stroke="#63b8ff" points="728.92,-90.12 738.82,-86.35 728.73,-83.12 728.92,-90.12"/>
</a>
</g>
</g>
<!-- Node28&#45;&gt;Node25 -->
<g id="edge35_Node000028_Node000025" class="edge">
<title>Node28&#45;&gt;Node25</title>
<g id="a_edge35_Node000028_Node000025"><a xlink:title=" ">
<path fill="none" stroke="#63b8ff" d="M540.32,-104.6C518.4,-108.78 495.23,-113.2 475.49,-116.97"/>
<polygon fill="#63b8ff" stroke="#63b8ff" points="541.12,-108.01 550.28,-102.7 539.8,-101.14 541.12,-108.01"/>
</a>
</g>
</g>
</g>
</svg>

<g id="navigator" transform="translate(0 0)" fill="#404254">
  <rect fill="#f2f5e9" fill-opacity="0.5" stroke="#606060" stroke-width=".5" x="0" y="0" width="60" height="60"/>
  <use id="zoomplus" xlink:href="#zoomPlus" x="17" y="9" onmousedown="handleZoom(evt,'in')"/>
  <use id="zoomminus" xlink:href="#zoomMin" x="42" y="9" onmousedown="handleZoom(evt,'out')"/>
  <use id="reset" xlink:href="#resetDef" x="30" y="36" onmousedown="handleReset()"/>
   <use id="arrowup" xlink:href="#arrowUp" x="0" y="0" onmousedown="handlePan(0,-1)"/>
  <use id="arrowright" xlink:href="#arrowRight" x="0" y="0" onmousedown="handlePan(1,0)"/>
  <use id="arrowdown" xlink:href="#arrowDown" x="0" y="0" onmousedown="handlePan(0,1)"/>
  <use id="arrowleft" xlink:href="#arrowLeft" x="0" y="0" onmousedown="handlePan(-1,0)"/>
</g>
<svg viewBox="0 0 15 15" width="100%" height="30px" preserveAspectRatio="xMaxYMin meet">
 <g id="arrow_out" transform="scale(0.3 0.3)">
  <a xlink:href="class_bit_vector_af68cda7444ec4459393bbfa423f0a7dd_icgraph_org.svg" target="_base">
   <rect id="button" ry="5" rx="5" y="6" x="6" height="38" width="38"
        fill="#f2f5e9" fill-opacity="0.5" stroke="#606060" stroke-width="1.0"/>
   <path id="arrow"
     d="M 11.500037,31.436501 C 11.940474,20.09759 22.043105,11.32322 32.158766,21.979434 L 37.068811,17.246167 C 37.068811,17.246167 37.088388,32 37.088388,32 L 22.160133,31.978069 C 22.160133,31.978069 26.997745,27.140456 26.997745,27.140456 C 18.528582,18.264221 13.291696,25.230495 11.500037,31.436501 z"
     style="fill:#404040;"/>
  </a>
 </g>
</svg>

<style type='text/css'>
<![CDATA[
[data-mouse-over-selected='false'] { opacity: 0.7; }
[data-mouse-over-selected='true']  { opacity: 1.0; }
]]>
</style>
<script type="application/ecmascript"><![CDATA[
document.addEventListener('DOMContentLoaded', (event) => {
  highlightEdges();
  highlightAdjacentNodes();
});
]]></script>
</svg>
