<?xml version="1.0" encoding="UTF-8" standalone="no"?>
<!DOCTYPE svg PUBLIC "-//W3C//DTD SVG 1.1//EN"
 "http://www.w3.org/Graphics/SVG/1.1/DTD/svg11.dtd">
<!-- Generated by graphviz version 2.43.0 (0)
 -->
<!-- Title: Sequence::identifySymbolType Pages: 1 -->
<!--zoomable 435 -->

<svg id="main" version="1.1" xmlns="http://www.w3.org/2000/svg" xmlns:xlink="http://www.w3.org/1999/xlink" xml:space="preserve" onload="init(evt)">
<style type="text/css"><![CDATA[
.node, .edge {opacity: 0.7;}
.node.selected, .edge.selected {opacity: 1;}
.edge:hover path { stroke: red; }
.edge:hover polygon { stroke: red; fill: red; }
]]></style>

<defs>
  <circle id="rim" cx="0" cy="0" r="7"/>
  <circle id="rim2" cx="0" cy="0" r="3.5"/>
  <g id="zoomPlus">
    <use xlink:href="#rim" fill="#404040"><set attributeName="fill" to="#808080" begin="zoomplus.mouseover" end="zoomplus.mouseout"/></use>
    <path d="M-4,0h8M0,-4v8" fill="none" stroke="white" stroke-width="1.5" pointer-events="none"/>
  </g>
  <g id="zoomMin">
    <use xlink:href="#rim" fill="#404040"><set attributeName="fill" to="#808080" begin="zoomminus.mouseover" end="zoomminus.mouseout"/></use>
    <path d="M-4,0h8" fill="none" stroke="white" stroke-width="1.5" pointer-events="none"/>
  </g>
  <g id="arrowUp" transform="translate(30 24)">
    <use xlink:href="#rim"/>
    <path pointer-events="none" fill="none" stroke="white" stroke-width="1.5" d="M0,-3.0v7 M-2.5,-0.5L0,-3.0L2.5,-0.5"/>
  </g>
  <g id="arrowRight" transform="rotate(90) translate(36 -43)">
    <use xlink:href="#rim"/>
    <path pointer-events="none" fill="none" stroke="white" stroke-width="1.5" d="M0,-3.0v7 M-2.5,-0.5L0,-3.0L2.5,-0.5"/>
  </g>
  <g id="arrowDown" transform="rotate(180) translate(-30 -48)">
    <use xlink:href="#rim"/>
    <path pointer-events="none" fill="none" stroke="white" stroke-width="1.5" d="M0,-3.0v7 M-2.5,-0.5L0,-3.0L2.5,-0.5"/>
  </g>
  <g id="arrowLeft" transform="rotate(270) translate(-36 17)">
    <use xlink:href="#rim"/>
    <path pointer-events="none" fill="none" stroke="white" stroke-width="1.5" d="M0,-3.0v7 M-2.5,-0.5L0,-3.0L2.5,-0.5"/>
  </g>
  <g id="resetDef">
    <use xlink:href="#rim2" fill="#404040"><set attributeName="fill" to="#808080" begin="reset.mouseover" end="reset.mouseout"/></use>
  </g>
</defs>
<script type="application/ecmascript">
var viewWidth = 1677;
var viewHeight = 435;
var sectionId = 'dynsection-19';
</script>
<script type="application/ecmascript" xlink:href="svg.min.js"/>
<svg id="graph" class="graph">
<g id="viewport">
<title>Sequence::identifySymbolType</title>
<!-- Node1 -->
<g id="Node000001" class="node">
<title>Node1</title>
<g id="a_Node000001"><a xlink:title="Turn a symbol to a bool array.">
<polygon fill="#999999" stroke="#666666" points="166,-204.68 0,-204.68 0,-185.68 166,-185.68 166,-204.68"/>
<text text-anchor="middle" x="83" y="-192.68" font-family="Helvetica,sans-Serif" font-size="10.00">Sequence::identifySymbolType</text>
</a>
</g>
</g>
<!-- Node2 -->
<g id="Node000002" class="node">
<title>Node2</title>
<g id="a_Node000002"><a xlink:href="class_sequence.html#ad40777fd2f7ad3ae247fab02459e6759" target="_top" xlink:title="Retrieve the symbol at the position in the sequence.">
<polygon fill="white" stroke="#666666" points="872,-205.68 786,-205.68 786,-186.68 872,-186.68 872,-205.68"/>
<text text-anchor="middle" x="829" y="-193.68" font-family="Helvetica,sans-Serif" font-size="10.00">Sequence::get</text>
</a>
</g>
</g>
<!-- Node1&#45;&gt;Node2 -->
<g id="edge1_Node000001_Node000002" class="edge">
<title>Node1&#45;&gt;Node2</title>
<g id="a_edge1_Node000001_Node000002"><a xlink:title=" ">
<path fill="none" stroke="#63b8ff" d="M91.87,-204.96C109.53,-226.34 154.46,-277.75 202,-308.18 277.63,-356.59 301.78,-365.44 390,-382.18 547.21,-412 617.45,-467.81 750,-378.18 805.47,-340.67 821.68,-254.88 826.27,-215.99"/>
<polygon fill="#63b8ff" stroke="#63b8ff" points="829.76,-216.25 827.31,-205.94 822.8,-215.52 829.76,-216.25"/>
</a>
</g>
</g>
<!-- Node11 -->
<g id="Node000011" class="node">
<title>Node11</title>
<g id="a_Node000011"><a xlink:href="class_sequence.html#a14ee59cb34cf4d2087d1eabd3e4c6d4c" target="_top" xlink:title="Say if a symbol can only be found in acid nucleic related to amino acid.">
<polygon fill="white" stroke="#666666" points="351.5,-299.68 204.5,-299.68 204.5,-280.68 351.5,-280.68 351.5,-299.68"/>
<text text-anchor="middle" x="278" y="-287.68" font-family="Helvetica,sans-Serif" font-size="10.00">Sequence::isAminoSpecific</text>
</a>
</g>
</g>
<!-- Node1&#45;&gt;Node11 -->
<g id="edge14_Node000001_Node000011" class="edge">
<title>Node1&#45;&gt;Node11</title>
<g id="a_edge14_Node000001_Node000011"><a xlink:title=" ">
<path fill="none" stroke="#63b8ff" d="M103.57,-204.81C137.83,-221.67 208.81,-256.61 248.52,-276.16"/>
<polygon fill="#63b8ff" stroke="#63b8ff" points="247.15,-279.38 257.67,-280.66 250.24,-273.1 247.15,-279.38"/>
</a>
</g>
</g>
<!-- Node17 -->
<g id="Node000017" class="node">
<title>Node17</title>
<g id="a_Node000017"><a xlink:href="class_sequence.html#a375a7807541e86995fc0eb92258f1414" target="_top" xlink:title="Say if a symbol can only be found in acid nucleic related to DNA.">
<polygon fill="white" stroke="#666666" points="578,-110.68 390,-110.68 390,-91.68 578,-91.68 578,-110.68"/>
<text text-anchor="middle" x="484" y="-98.68" font-family="Helvetica,sans-Serif" font-size="10.00">Sequence::isDnaSpecificNucleotide</text>
</a>
</g>
</g>
<!-- Node1&#45;&gt;Node17 -->
<g id="edge26_Node000001_Node000017" class="edge">
<title>Node1&#45;&gt;Node17</title>
<g id="a_edge26_Node000001_Node000017"><a xlink:title=" ">
<path fill="none" stroke="#63b8ff" d="M110.93,-185.55C134.68,-177.29 170.35,-165.44 202,-157.18 284.48,-135.63 306.38,-135.72 390,-119.18 400.75,-117.05 412.2,-114.81 423.26,-112.66"/>
<polygon fill="#63b8ff" stroke="#63b8ff" points="424.12,-116.06 433.27,-110.72 422.79,-109.19 424.12,-116.06"/>
</a>
</g>
</g>
<!-- Node18 -->
<g id="Node000018" class="node">
<title>Node18</title>
<g id="a_Node000018"><a xlink:href="class_sequence.html#a7e6fdc8d243336e9e55e91dfd61eb43b" target="_top" xlink:title="Say if a symbol can be used in the a sequence.">
<polygon fill="white" stroke="#666666" points="348.5,-185.68 207.5,-185.68 207.5,-166.68 348.5,-166.68 348.5,-185.68"/>
<text text-anchor="middle" x="278" y="-173.68" font-family="Helvetica,sans-Serif" font-size="10.00">Sequence::isLegalSymbol</text>
</a>
</g>
</g>
<!-- Node1&#45;&gt;Node18 -->
<g id="edge30_Node000001_Node000018" class="edge">
<title>Node1&#45;&gt;Node18</title>
<g id="a_edge30_Node000001_Node000018"><a xlink:title=" ">
<path fill="none" stroke="#63b8ff" d="M166.13,-187.09C176.44,-186.08 186.98,-185.04 197.25,-184.03"/>
<polygon fill="#63b8ff" stroke="#63b8ff" points="197.81,-187.49 207.42,-183.03 197.12,-180.52 197.81,-187.49"/>
</a>
</g>
</g>
<!-- Node20 -->
<g id="Node000020" class="node">
<title>Node20</title>
<g id="a_Node000020"><a xlink:href="class_sequence.html#a7fb536cb5ce9b5de78634aa314623835" target="_top" xlink:title="Say if a symbol can only be found in acid nucleic related to nucleic acid.">
<polygon fill="white" stroke="#666666" points="354,-242.68 202,-242.68 202,-223.68 354,-223.68 354,-242.68"/>
<text text-anchor="middle" x="278" y="-230.68" font-family="Helvetica,sans-Serif" font-size="10.00">Sequence::isNucleicSpecific</text>
</a>
</g>
</g>
<!-- Node1&#45;&gt;Node20 -->
<g id="edge37_Node000001_Node000020" class="edge">
<title>Node1&#45;&gt;Node20</title>
<g id="a_edge37_Node000001_Node000020"><a xlink:title=" ">
<path fill="none" stroke="#63b8ff" d="M132.7,-204.77C158.86,-209.92 191.28,-216.3 218.77,-221.71"/>
<polygon fill="#63b8ff" stroke="#63b8ff" points="218.16,-225.16 228.65,-223.66 219.51,-218.29 218.16,-225.16"/>
</a>
</g>
</g>
<!-- Node21 -->
<g id="Node000021" class="node">
<title>Node21</title>
<g id="a_Node000021"><a xlink:href="class_sequence.html#a43936ff8f097e07421ae7a2389bd9cc0" target="_top" xlink:title="Say if a symbol can only be found in acid nucleic related to RNA.">
<polygon fill="white" stroke="#666666" points="577.5,-73.68 390.5,-73.68 390.5,-54.68 577.5,-54.68 577.5,-73.68"/>
<text text-anchor="middle" x="484" y="-61.68" font-family="Helvetica,sans-Serif" font-size="10.00">Sequence::isRnaSpecificNucleotide</text>
</a>
</g>
</g>
<!-- Node1&#45;&gt;Node21 -->
<g id="edge41_Node000001_Node000021" class="edge">
<title>Node1&#45;&gt;Node21</title>
<g id="a_edge41_Node000001_Node000021"><a xlink:title=" ">
<path fill="none" stroke="#63b8ff" d="M96.69,-185.45C117.52,-169.94 160.79,-139.7 202,-123.18 262.78,-98.81 335.17,-83.91 391.26,-75.19"/>
<polygon fill="#63b8ff" stroke="#63b8ff" points="391.81,-78.64 401.18,-73.68 390.76,-71.72 391.81,-78.64"/>
</a>
</g>
</g>
<!-- Node2&#45;&gt;Node2 -->
<g id="edge5_Node000002_Node000002" class="edge">
<title>Node2&#45;&gt;Node2</title>
<g id="a_edge5_Node000002_Node000002"><a xlink:title=" ">
<path fill="none" stroke="#63b8ff" d="M806.5,-205.76C795.55,-214.41 803.05,-223.68 829,-223.68 845.62,-223.68 854.68,-219.87 856.16,-214.87"/>
<polygon fill="#63b8ff" stroke="#63b8ff" points="859.17,-213.07 851.5,-205.76 852.94,-216.26 859.17,-213.07"/>
</a>
</g>
</g>
<!-- Node3 -->
<g id="Node000003" class="node">
<title>Node3</title>
<g id="a_Node000003"><a xlink:href="class_bit_vector.html#aebe159444eb9d619959b7325ac5dac2d" target="_top" xlink:title="Return the value of the bit at the position coord.">
<polygon fill="white" stroke="#666666" points="1025.5,-279.68 942.5,-279.68 942.5,-260.68 1025.5,-260.68 1025.5,-279.68"/>
<text text-anchor="middle" x="984" y="-267.68" font-family="Helvetica,sans-Serif" font-size="10.00">BitVector::get</text>
</a>
</g>
</g>
<!-- Node2&#45;&gt;Node3 -->
<g id="edge2_Node000002_Node000003" class="edge">
<title>Node2&#45;&gt;Node3</title>
<g id="a_edge2_Node000002_Node000003"><a xlink:title=" ">
<path fill="none" stroke="#63b8ff" d="M840.82,-205.78C855.19,-218.05 881.81,-239.13 908,-251.18 915.72,-254.73 924.2,-257.68 932.6,-260.12"/>
<polygon fill="#63b8ff" stroke="#63b8ff" points="931.8,-263.53 942.37,-262.75 933.62,-256.77 931.8,-263.53"/>
</a>
</g>
</g>
<!-- Node5 -->
<g id="Node000005" class="node">
<title>Node5</title>
<g id="a_Node000005"><a xlink:href="class_sequence.html#a8181f024304b3fb5f55c7118f648cc61" target="_top" xlink:title="Return a char (same format as Sequence::getType()) that indicate which alphabet is used in the during...">
<polygon fill="white" stroke="#666666" points="1060,-242.68 908,-242.68 908,-223.68 1060,-223.68 1060,-242.68"/>
<text text-anchor="middle" x="984" y="-230.68" font-family="Helvetica,sans-Serif" font-size="10.00">Sequence::getEncodingType</text>
</a>
</g>
</g>
<!-- Node2&#45;&gt;Node5 -->
<g id="edge6_Node000002_Node000005" class="edge">
<title>Node2&#45;&gt;Node5</title>
<g id="a_edge6_Node000002_Node000005"><a xlink:title=" ">
<path fill="none" stroke="#63b8ff" d="M869.4,-205.71C888.96,-210.43 912.78,-216.2 933.55,-221.22"/>
<polygon fill="#63b8ff" stroke="#63b8ff" points="932.92,-224.67 943.47,-223.62 934.57,-217.86 932.92,-224.67"/>
</a>
</g>
</g>
<!-- Node6 -->
<g id="Node000006" class="node">
<title>Node6</title>
<g id="a_Node000006"><a xlink:href="class_sequence.html#a49a9126010c0332493c803ddca005394" target="_top" xlink:title="Give a map that compress / decompress char used by Sequence.">
<polygon fill="white" stroke="#666666" points="1053.5,-205.68 914.5,-205.68 914.5,-186.68 1053.5,-186.68 1053.5,-205.68"/>
<text text-anchor="middle" x="984" y="-193.68" font-family="Helvetica,sans-Serif" font-size="10.00">Sequence::translationTab</text>
</a>
</g>
</g>
<!-- Node2&#45;&gt;Node6 -->
<g id="edge7_Node000002_Node000006" class="edge">
<title>Node2&#45;&gt;Node6</title>
<g id="a_edge7_Node000002_Node000006"><a xlink:title=" ">
<path fill="none" stroke="#63b8ff" d="M872.21,-190.07C882.24,-189.67 893.25,-189.45 904.32,-189.43"/>
<polygon fill="#63b8ff" stroke="#63b8ff" points="904.47,-192.93 914.48,-189.46 904.49,-185.93 904.47,-192.93"/>
</a>
</g>
</g>
<!-- Node3&#45;&gt;Node3 -->
<g id="edge3_Node000003_Node000003" class="edge">
<title>Node3&#45;&gt;Node3</title>
<g id="a_edge3_Node000003_Node000003"><a xlink:title=" ">
<path fill="none" stroke="#63b8ff" d="M960.26,-279.76C948.72,-288.41 956.63,-297.68 984,-297.68 1001.96,-297.68 1011.54,-293.69 1012.75,-288.5"/>
<polygon fill="#63b8ff" stroke="#63b8ff" points="1015.75,-286.69 1007.74,-279.76 1009.67,-290.18 1015.75,-286.69"/>
</a>
</g>
</g>
<!-- Node4 -->
<g id="Node000004" class="node">
<title>Node4</title>
<g id="a_Node000004"><a xlink:href="class_bit_vector_1_1_coords.html#a2892f7f46c4af93f9733e312229d8ec1" target="_top" xlink:title="Get Coords::octet .">
<polygon fill="white" stroke="#666666" points="1213.5,-285.18 1106.5,-285.18 1106.5,-255.18 1213.5,-255.18 1213.5,-285.18"/>
<text text-anchor="start" x="1114.5" y="-273.18" font-family="Helvetica,sans-Serif" font-size="10.00">BitVector::Coords::</text>
<text text-anchor="middle" x="1160" y="-262.18" font-family="Helvetica,sans-Serif" font-size="10.00">getOctet</text>
</a>
</g>
</g>
<!-- Node3&#45;&gt;Node4 -->
<g id="edge4_Node000003_Node000004" class="edge">
<title>Node3&#45;&gt;Node4</title>
<g id="a_edge4_Node000003_Node000004"><a xlink:title=" ">
<path fill="none" stroke="#63b8ff" d="M1025.8,-270.18C1046.71,-270.18 1072.64,-270.18 1096.05,-270.18"/>
<polygon fill="#63b8ff" stroke="#63b8ff" points="1096.25,-273.68 1106.25,-270.18 1096.25,-266.68 1096.25,-273.68"/>
</a>
</g>
</g>
<!-- Node6&#45;&gt;Node2 -->
<g id="edge13_Node000006_Node000002" class="edge">
<title>Node6&#45;&gt;Node2</title>
<g id="a_edge13_Node000006_Node000002"><a xlink:title=" ">
<path fill="none" stroke="#63b8ff" d="M914.48,-202.89C903.68,-202.98 892.67,-202.89 882.32,-202.62"/>
<polygon fill="#63b8ff" stroke="#63b8ff" points="882.32,-199.12 872.21,-202.28 882.09,-206.11 882.32,-199.12"/>
</a>
</g>
</g>
<!-- Node7 -->
<g id="Node000007" class="node">
<title>Node7</title>
<g id="a_Node000007"><a xlink:href="class_sequence.html#a555c6e58957c4d07028eb5c67b1732ac" target="_top" xlink:title="Function used by Sequence::translationTab to create their compression map.">
<polygon fill="white" stroke="#666666" points="1224,-186.68 1096,-186.68 1096,-167.68 1224,-167.68 1224,-186.68"/>
<text text-anchor="middle" x="1160" y="-174.68" font-family="Helvetica,sans-Serif" font-size="10.00">Sequence::fillCodeMap</text>
</a>
</g>
</g>
<!-- Node6&#45;&gt;Node7 -->
<g id="edge8_Node000006_Node000007" class="edge">
<title>Node6&#45;&gt;Node7</title>
<g id="a_edge8_Node000006_Node000007"><a xlink:title=" ">
<path fill="none" stroke="#63b8ff" d="M1053.77,-188.67C1064.28,-187.52 1075.16,-186.33 1085.76,-185.17"/>
<polygon fill="#63b8ff" stroke="#63b8ff" points="1086.26,-188.64 1095.82,-184.08 1085.5,-181.68 1086.26,-188.64"/>
</a>
</g>
</g>
<!-- Node7&#45;&gt;Node2 -->
<g id="edge9_Node000007_Node000002" class="edge">
<title>Node7&#45;&gt;Node2</title>
<g id="a_edge9_Node000007_Node000002"><a xlink:title=" ">
<path fill="none" stroke="#63b8ff" d="M1095.83,-173.02C1044.92,-170.68 971.6,-169.54 908,-177.18 896.01,-178.62 883.21,-181.26 871.51,-184.12"/>
<polygon fill="#63b8ff" stroke="#63b8ff" points="870.38,-180.8 861.56,-186.67 872.12,-187.58 870.38,-180.8"/>
</a>
</g>
</g>
<!-- Node8 -->
<g id="Node000008" class="node">
<title>Node8</title>
<g id="a_Node000008"><a xlink:href="class_sequence.html#acf21040958590f98163b3d11f19ea93e" target="_top" xlink:title="Give the number of element contained in this sequence.">
<polygon fill="white" stroke="#666666" points="1349,-186.68 1260,-186.68 1260,-167.68 1349,-167.68 1349,-186.68"/>
<text text-anchor="middle" x="1304.5" y="-174.68" font-family="Helvetica,sans-Serif" font-size="10.00">Sequence::size</text>
</a>
</g>
</g>
<!-- Node7&#45;&gt;Node8 -->
<g id="edge10_Node000007_Node000008" class="edge">
<title>Node7&#45;&gt;Node8</title>
<g id="a_edge10_Node000007_Node000008"><a xlink:title=" ">
<path fill="none" stroke="#63b8ff" d="M1224.33,-177.18C1232.8,-177.18 1241.42,-177.18 1249.7,-177.18"/>
<polygon fill="#63b8ff" stroke="#63b8ff" points="1249.98,-180.68 1259.98,-177.18 1249.98,-173.68 1249.98,-180.68"/>
</a>
</g>
</g>
<!-- Node9 -->
<g id="Node000009" class="node">
<title>Node9</title>
<g id="a_Node000009"><a xlink:href="class_bit_vector.html#ab30ea2b408107e4e6bc8095b5a64a1dd" target="_top" xlink:title="Number of element inside this object.">
<polygon fill="white" stroke="#666666" points="1471,-186.68 1385,-186.68 1385,-167.68 1471,-167.68 1471,-186.68"/>
<text text-anchor="middle" x="1428" y="-174.68" font-family="Helvetica,sans-Serif" font-size="10.00">BitVector::size</text>
</a>
</g>
</g>
<!-- Node8&#45;&gt;Node9 -->
<g id="edge11_Node000008_Node000009" class="edge">
<title>Node8&#45;&gt;Node9</title>
<g id="a_edge11_Node000008_Node000009"><a xlink:title=" ">
<path fill="none" stroke="#63b8ff" d="M1349.02,-177.18C1357.25,-177.18 1365.94,-177.18 1374.41,-177.18"/>
<polygon fill="#63b8ff" stroke="#63b8ff" points="1374.6,-180.68 1384.6,-177.18 1374.6,-173.68 1374.6,-180.68"/>
</a>
</g>
</g>
<!-- Node10 -->
<g id="Node000010" class="node">
<title>Node10</title>
<g id="a_Node000010"><a xlink:href="class_bit_vector.html#a5339660cfb315ab5de7f78bdf5af4ce1" target="_top" xlink:title="Get BitVector::_element_number.">
<polygon fill="white" stroke="#666666" points="1669,-186.68 1507,-186.68 1507,-167.68 1669,-167.68 1669,-186.68"/>
<text text-anchor="middle" x="1588" y="-174.68" font-family="Helvetica,sans-Serif" font-size="10.00">BitVector::getElementNumber</text>
</a>
</g>
</g>
<!-- Node9&#45;&gt;Node10 -->
<g id="edge12_Node000009_Node000010" class="edge">
<title>Node9&#45;&gt;Node10</title>
<g id="a_edge12_Node000009_Node000010"><a xlink:title=" ">
<path fill="none" stroke="#63b8ff" d="M1471.34,-177.18C1479.23,-177.18 1487.74,-177.18 1496.44,-177.18"/>
<polygon fill="#63b8ff" stroke="#63b8ff" points="1496.71,-180.68 1506.71,-177.18 1496.71,-173.68 1496.71,-180.68"/>
</a>
</g>
</g>
<!-- Node11&#45;&gt;Node2 -->
<g id="edge15_Node000011_Node000002" class="edge">
<title>Node11&#45;&gt;Node2</title>
<g id="a_edge15_Node000011_Node000002"><a xlink:title=" ">
<path fill="none" stroke="#63b8ff" d="M292.88,-299.9C313.12,-313.42 352.41,-337.23 390,-346.18 545.68,-383.22 614.08,-423.65 750,-339.18 794.9,-311.27 815.82,-247.86 823.84,-215.68"/>
<polygon fill="#63b8ff" stroke="#63b8ff" points="827.3,-216.25 826.15,-205.71 820.48,-214.66 827.3,-216.25"/>
</a>
</g>
</g>
<!-- Node12 -->
<g id="Node000012" class="node">
<title>Node12</title>
<g id="a_Node000012"><a xlink:href="class_sequence.html#a31e8f630c8d214e79ac9ef7d128e3c24" target="_top" xlink:title="Say if a symbol can be an amino acid.">
<polygon fill="white" stroke="#666666" points="539,-337.68 429,-337.68 429,-318.68 539,-318.68 539,-337.68"/>
<text text-anchor="middle" x="484" y="-325.68" font-family="Helvetica,sans-Serif" font-size="10.00">Sequence::isAmino</text>
</a>
</g>
</g>
<!-- Node11&#45;&gt;Node12 -->
<g id="edge16_Node000011_Node000012" class="edge">
<title>Node11&#45;&gt;Node12</title>
<g id="a_edge16_Node000011_Node000012"><a xlink:title=" ">
<path fill="none" stroke="#63b8ff" d="M330.21,-299.72C357.98,-304.89 392.49,-311.32 421.68,-316.75"/>
<polygon fill="#63b8ff" stroke="#63b8ff" points="421.29,-320.24 431.76,-318.63 422.57,-313.36 421.29,-320.24"/>
</a>
</g>
</g>
<!-- Node14 -->
<g id="Node000014" class="node">
<title>Node14</title>
<g id="a_Node000014"><a xlink:href="class_sequence.html#ab351491ae27a3b4daa4d6af021ae0af2" target="_top" xlink:title="Say if a symbol can be an acid nucleic.">
<polygon fill="white" stroke="#666666" points="541,-223.68 427,-223.68 427,-204.68 541,-204.68 541,-223.68"/>
<text text-anchor="middle" x="484" y="-211.68" font-family="Helvetica,sans-Serif" font-size="10.00">Sequence::isNucleic</text>
</a>
</g>
</g>
<!-- Node11&#45;&gt;Node14 -->
<g id="edge20_Node000011_Node000014" class="edge">
<title>Node11&#45;&gt;Node14</title>
<g id="a_edge20_Node000011_Node000014"><a xlink:title=" ">
<path fill="none" stroke="#63b8ff" d="M304.84,-280.55C341.09,-267.05 407.16,-242.43 447.86,-227.27"/>
<polygon fill="#63b8ff" stroke="#63b8ff" points="449.22,-230.5 457.37,-223.72 446.78,-223.94 449.22,-230.5"/>
</a>
</g>
</g>
<!-- Node12&#45;&gt;Node2 -->
<g id="edge17_Node000012_Node000002" class="edge">
<title>Node12&#45;&gt;Node2</title>
<g id="a_edge17_Node000012_Node000002"><a xlink:title=" ">
<path fill="none" stroke="#63b8ff" d="M539.18,-337.31C595.69,-343.99 684.92,-346.36 750,-309.18 786.75,-288.18 810.04,-241.96 820.87,-215.6"/>
<polygon fill="#63b8ff" stroke="#63b8ff" points="824.26,-216.54 824.63,-205.95 817.74,-213.99 824.26,-216.54"/>
</a>
</g>
</g>
<!-- Node13 -->
<g id="Node000013" class="node">
<title>Node13</title>
<g id="a_Node000013"><a xlink:href="class_sequence.html#a1c338fe40d1251531461f2a737f235cd" target="_top" xlink:title="Say if a symbol can be an amino acid.">
<polygon fill="white" stroke="#666666" points="750,-300.68 614,-300.68 614,-281.68 750,-281.68 750,-300.68"/>
<text text-anchor="middle" x="682" y="-288.68" font-family="Helvetica,sans-Serif" font-size="10.00">Sequence::isLegalAmino</text>
</a>
</g>
</g>
<!-- Node12&#45;&gt;Node13 -->
<g id="edge18_Node000012_Node000013" class="edge">
<title>Node12&#45;&gt;Node13</title>
<g id="a_edge18_Node000012_Node000013"><a xlink:title=" ">
<path fill="none" stroke="#63b8ff" d="M535.47,-318.65C561.32,-313.77 592.99,-307.79 620.18,-302.66"/>
<polygon fill="#63b8ff" stroke="#63b8ff" points="621.18,-306.03 630.36,-300.74 619.88,-299.15 621.18,-306.03"/>
</a>
</g>
</g>
<!-- Node13&#45;&gt;Node2 -->
<g id="edge19_Node000013_Node000002" class="edge">
<title>Node13&#45;&gt;Node2</title>
<g id="a_edge19_Node000013_Node000002"><a xlink:title=" ">
<path fill="none" stroke="#63b8ff" d="M717.92,-281.58C728.62,-277.88 740.15,-273.1 750,-267.18 774.59,-252.4 798.3,-229.11 812.99,-213.27"/>
<polygon fill="#63b8ff" stroke="#63b8ff" points="815.69,-215.51 819.81,-205.75 810.5,-210.8 815.69,-215.51"/>
</a>
</g>
</g>
<!-- Node14&#45;&gt;Node2 -->
<g id="edge21_Node000014_Node000002" class="edge">
<title>Node14&#45;&gt;Node2</title>
<g id="a_edge21_Node000014_Node000002"><a xlink:title=" ">
<path fill="none" stroke="#63b8ff" d="M541.26,-211.22C606.25,-207.81 712.34,-202.25 775.63,-198.93"/>
<polygon fill="#63b8ff" stroke="#63b8ff" points="775.99,-202.41 785.79,-198.39 775.62,-195.42 775.99,-202.41"/>
</a>
</g>
</g>
<!-- Node15 -->
<g id="Node000015" class="node">
<title>Node15</title>
<g id="a_Node000015"><a xlink:href="class_sequence.html#a14cf335c6053ca586d4e1694898575cf" target="_top" xlink:title="Say if a symbol can be an acid nucleic related to DNA.">
<polygon fill="white" stroke="#666666" points="732,-110.68 632,-110.68 632,-91.68 732,-91.68 732,-110.68"/>
<text text-anchor="middle" x="682" y="-98.68" font-family="Helvetica,sans-Serif" font-size="10.00">Sequence::isDNA</text>
</a>
</g>
</g>
<!-- Node14&#45;&gt;Node15 -->
<g id="edge22_Node000014_Node000015" class="edge">
<title>Node14&#45;&gt;Node15</title>
<g id="a_edge22_Node000014_Node000015"><a xlink:title=" ">
<path fill="none" stroke="#63b8ff" d="M501.71,-204.54C536.06,-184.74 614.8,-139.34 655.54,-115.85"/>
<polygon fill="#63b8ff" stroke="#63b8ff" points="657.42,-118.81 664.33,-110.79 653.92,-112.75 657.42,-118.81"/>
</a>
</g>
</g>
<!-- Node16 -->
<g id="Node000016" class="node">
<title>Node16</title>
<g id="a_Node000016"><a xlink:href="class_sequence.html#ad04d994668bcc5d29c6813fcbc28dfb6" target="_top" xlink:title="Say if a symbol can be an acid nucleic related to RNA.">
<polygon fill="white" stroke="#666666" points="731.5,-73.68 632.5,-73.68 632.5,-54.68 731.5,-54.68 731.5,-73.68"/>
<text text-anchor="middle" x="682" y="-61.68" font-family="Helvetica,sans-Serif" font-size="10.00">Sequence::isRNA</text>
</a>
</g>
</g>
<!-- Node14&#45;&gt;Node16 -->
<g id="edge24_Node000014_Node000016" class="edge">
<title>Node14&#45;&gt;Node16</title>
<g id="a_edge24_Node000014_Node000016"><a xlink:title=" ">
<path fill="none" stroke="#63b8ff" d="M507.39,-204.64C527.95,-194.95 558.14,-178.24 578,-156.18 602.47,-129 585.8,-105.46 614,-82.18 616.78,-79.88 619.82,-77.88 623.03,-76.13"/>
<polygon fill="#63b8ff" stroke="#63b8ff" points="624.78,-79.18 632.43,-71.84 621.88,-72.81 624.78,-79.18"/>
</a>
</g>
</g>
<!-- Node15&#45;&gt;Node2 -->
<g id="edge23_Node000015_Node000002" class="edge">
<title>Node15&#45;&gt;Node2</title>
<g id="a_edge23_Node000015_Node000002"><a xlink:title=" ">
<path fill="none" stroke="#63b8ff" d="M717.92,-110.78C728.62,-114.47 740.15,-119.26 750,-125.18 774.59,-139.96 798.3,-163.24 812.99,-179.09"/>
<polygon fill="#63b8ff" stroke="#63b8ff" points="810.5,-181.55 819.81,-186.61 815.69,-176.85 810.5,-181.55"/>
</a>
</g>
</g>
<!-- Node16&#45;&gt;Node2 -->
<g id="edge25_Node000016_Node000002" class="edge">
<title>Node16&#45;&gt;Node2</title>
<g id="a_edge25_Node000016_Node000002"><a xlink:title=" ">
<path fill="none" stroke="#63b8ff" d="M731.71,-72.83C738.2,-75.22 744.5,-78.28 750,-82.18 784.56,-106.68 808.57,-151.65 820.13,-177.17"/>
<polygon fill="#63b8ff" stroke="#63b8ff" points="816.99,-178.74 824.19,-186.51 823.41,-175.95 816.99,-178.74"/>
</a>
</g>
</g>
<!-- Node17&#45;&gt;Node2 -->
<g id="edge27_Node000017_Node000002" class="edge">
<title>Node17&#45;&gt;Node2</title>
<g id="a_edge27_Node000017_Node000002"><a xlink:title=" ">
<path fill="none" stroke="#63b8ff" d="M555.19,-91.6C563.13,-89.14 570.91,-86.05 578,-82.18 598.13,-71.17 592.86,-54.1 614,-45.18 669.68,-21.66 698.37,-13.74 750,-45.18 797.55,-74.13 817.38,-142.43 824.52,-176.35"/>
<polygon fill="#63b8ff" stroke="#63b8ff" points="821.13,-177.28 826.48,-186.42 828.01,-175.94 821.13,-177.28"/>
</a>
</g>
</g>
<!-- Node17&#45;&gt;Node15 -->
<g id="edge28_Node000017_Node000015" class="edge">
<title>Node17&#45;&gt;Node15</title>
<g id="a_edge28_Node000017_Node000015"><a xlink:title=" ">
<path fill="none" stroke="#63b8ff" d="M578.12,-101.18C592.92,-101.18 607.86,-101.18 621.6,-101.18"/>
<polygon fill="#63b8ff" stroke="#63b8ff" points="621.86,-104.68 631.86,-101.18 621.86,-97.68 621.86,-104.68"/>
</a>
</g>
</g>
<!-- Node17&#45;&gt;Node16 -->
<g id="edge29_Node000017_Node000016" class="edge">
<title>Node17&#45;&gt;Node16</title>
<g id="a_edge29_Node000017_Node000016"><a xlink:title=" ">
<path fill="none" stroke="#63b8ff" d="M535.47,-91.65C562.04,-86.63 594.76,-80.46 622.44,-75.23"/>
<polygon fill="#63b8ff" stroke="#63b8ff" points="623.21,-78.65 632.39,-73.35 621.91,-71.77 623.21,-78.65"/>
</a>
</g>
</g>
<!-- Node18&#45;&gt;Node2 -->
<g id="edge31_Node000018_Node000002" class="edge">
<title>Node18&#45;&gt;Node2</title>
<g id="a_edge31_Node000018_Node000002"><a xlink:title=" ">
<path fill="none" stroke="#63b8ff" d="M348.53,-178.71C460,-182.77 676.23,-190.65 775.67,-194.27"/>
<polygon fill="#63b8ff" stroke="#63b8ff" points="775.65,-197.77 785.78,-194.64 775.91,-190.78 775.65,-197.77"/>
</a>
</g>
</g>
<!-- Node18&#45;&gt;Node13 -->
<g id="edge32_Node000018_Node000013" class="edge">
<title>Node18&#45;&gt;Node13</title>
<g id="a_edge32_Node000018_Node000013"><a xlink:title=" ">
<path fill="none" stroke="#63b8ff" d="M298.08,-185.84C329.5,-201.76 388.8,-231.76 390,-232.18 460.45,-256.59 544.18,-272.25 603.7,-281.26"/>
<polygon fill="#63b8ff" stroke="#63b8ff" points="603.37,-284.75 613.78,-282.75 604.4,-277.82 603.37,-284.75"/>
</a>
</g>
</g>
<!-- Node19 -->
<g id="Node000019" class="node">
<title>Node19</title>
<g id="a_Node000019"><a xlink:href="class_sequence.html#a2f4c93c744fc524b81c91843c81d31be" target="_top" xlink:title="Say if a symbol can be an acid nucleic.">
<polygon fill="white" stroke="#666666" points="554,-147.68 414,-147.68 414,-128.68 554,-128.68 554,-147.68"/>
<text text-anchor="middle" x="484" y="-135.68" font-family="Helvetica,sans-Serif" font-size="10.00">Sequence::isLegalNucleic</text>
</a>
</g>
</g>
<!-- Node18&#45;&gt;Node19 -->
<g id="edge33_Node000018_Node000019" class="edge">
<title>Node18&#45;&gt;Node19</title>
<g id="a_edge33_Node000018_Node000019"><a xlink:title=" ">
<path fill="none" stroke="#63b8ff" d="M330.21,-166.64C357.98,-161.46 392.49,-155.04 421.68,-149.6"/>
<polygon fill="#63b8ff" stroke="#63b8ff" points="422.57,-152.99 431.76,-147.72 421.29,-146.11 422.57,-152.99"/>
</a>
</g>
</g>
<!-- Node19&#45;&gt;Node2 -->
<g id="edge34_Node000019_Node000002" class="edge">
<title>Node19&#45;&gt;Node2</title>
<g id="a_edge34_Node000019_Node000002"><a xlink:title=" ">
<path fill="none" stroke="#63b8ff" d="M554.06,-138.94C608.12,-140.9 684.81,-146.73 750,-163.18 767.54,-167.6 786.24,-175.4 800.93,-182.3"/>
<polygon fill="#63b8ff" stroke="#63b8ff" points="799.43,-185.46 809.96,-186.66 802.48,-179.16 799.43,-185.46"/>
</a>
</g>
</g>
<!-- Node19&#45;&gt;Node15 -->
<g id="edge35_Node000019_Node000015" class="edge">
<title>Node19&#45;&gt;Node15</title>
<g id="a_edge35_Node000019_Node000015"><a xlink:title=" ">
<path fill="none" stroke="#63b8ff" d="M535.47,-128.65C561.84,-123.67 594.26,-117.55 621.81,-112.35"/>
<polygon fill="#63b8ff" stroke="#63b8ff" points="622.54,-115.78 631.71,-110.48 621.24,-108.9 622.54,-115.78"/>
</a>
</g>
</g>
<!-- Node19&#45;&gt;Node16 -->
<g id="edge36_Node000019_Node000016" class="edge">
<title>Node19&#45;&gt;Node16</title>
<g id="a_edge36_Node000019_Node000016"><a xlink:title=" ">
<path fill="none" stroke="#63b8ff" d="M554.21,-128.89C562.5,-126.39 570.63,-123.21 578,-119.18 598.13,-108.17 594.21,-93.79 614,-82.18 617,-80.42 620.17,-78.82 623.45,-77.38"/>
<polygon fill="#63b8ff" stroke="#63b8ff" points="624.82,-80.61 632.87,-73.72 622.28,-74.08 624.82,-80.61"/>
</a>
</g>
</g>
<!-- Node20&#45;&gt;Node2 -->
<g id="edge38_Node000020_Node000002" class="edge">
<title>Node20&#45;&gt;Node2</title>
<g id="a_edge38_Node000020_Node000002"><a xlink:title=" ">
<path fill="none" stroke="#63b8ff" d="M354.35,-237.49C447.94,-241.32 612.11,-242.99 750,-218.18 763,-215.84 776.96,-212.25 789.42,-208.65"/>
<polygon fill="#63b8ff" stroke="#63b8ff" points="790.47,-212 799.05,-205.79 788.47,-205.29 790.47,-212"/>
</a>
</g>
</g>
<!-- Node20&#45;&gt;Node12 -->
<g id="edge39_Node000020_Node000012" class="edge">
<title>Node20&#45;&gt;Node12</title>
<g id="a_edge39_Node000020_Node000012"><a xlink:title=" ">
<path fill="none" stroke="#63b8ff" d="M301.89,-242.8C317.23,-249.71 337.56,-259.8 354,-271.18 371.85,-283.53 370.92,-293.82 390,-304.18 399,-309.06 409.02,-312.98 419.07,-316.12"/>
<polygon fill="#63b8ff" stroke="#63b8ff" points="418.1,-319.48 428.68,-318.9 420.05,-312.76 418.1,-319.48"/>
</a>
</g>
</g>
<!-- Node20&#45;&gt;Node14 -->
<g id="edge40_Node000020_Node000014" class="edge">
<title>Node20&#45;&gt;Node14</title>
<g id="a_edge40_Node000020_Node000014"><a xlink:title=" ">
<path fill="none" stroke="#63b8ff" d="M354.09,-226.18C374.7,-224.26 396.88,-222.2 416.93,-220.33"/>
<polygon fill="#63b8ff" stroke="#63b8ff" points="417.27,-223.81 426.9,-219.4 416.62,-216.84 417.27,-223.81"/>
</a>
</g>
</g>
<!-- Node21&#45;&gt;Node2 -->
<g id="edge42_Node000021_Node000002" class="edge">
<title>Node21&#45;&gt;Node2</title>
<g id="a_edge42_Node000021_Node000002"><a xlink:title=" ">
<path fill="none" stroke="#63b8ff" d="M500.88,-54.64C544.56,-29.77 668.68,31.61 750,-21.18 803.86,-56.14 820.84,-137.87 825.94,-175.97"/>
<polygon fill="#63b8ff" stroke="#63b8ff" points="822.51,-176.77 827.17,-186.29 829.46,-175.95 822.51,-176.77"/>
</a>
</g>
</g>
<!-- Node21&#45;&gt;Node15 -->
<g id="edge43_Node000021_Node000015" class="edge">
<title>Node21&#45;&gt;Node15</title>
<g id="a_edge43_Node000021_Node000015"><a xlink:title=" ">
<path fill="none" stroke="#63b8ff" d="M535.47,-73.71C561.84,-78.68 594.26,-84.8 621.81,-90"/>
<polygon fill="#63b8ff" stroke="#63b8ff" points="621.24,-93.46 631.71,-91.87 622.54,-86.58 621.24,-93.46"/>
</a>
</g>
</g>
<!-- Node21&#45;&gt;Node16 -->
<g id="edge44_Node000021_Node000016" class="edge">
<title>Node21&#45;&gt;Node16</title>
<g id="a_edge44_Node000021_Node000016"><a xlink:title=" ">
<path fill="none" stroke="#63b8ff" d="M577.55,-64.18C592.78,-64.18 608.19,-64.18 622.3,-64.18"/>
<polygon fill="#63b8ff" stroke="#63b8ff" points="622.32,-67.68 632.32,-64.18 622.32,-60.68 622.32,-67.68"/>
</a>
</g>
</g>
</g>
</svg>

<g id="navigator" transform="translate(0 0)" fill="#404254">
  <rect fill="#f2f5e9" fill-opacity="0.5" stroke="#606060" stroke-width=".5" x="0" y="0" width="60" height="60"/>
  <use id="zoomplus" xlink:href="#zoomPlus" x="17" y="9" onmousedown="handleZoom(evt,'in')"/>
  <use id="zoomminus" xlink:href="#zoomMin" x="42" y="9" onmousedown="handleZoom(evt,'out')"/>
  <use id="reset" xlink:href="#resetDef" x="30" y="36" onmousedown="handleReset()"/>
   <use id="arrowup" xlink:href="#arrowUp" x="0" y="0" onmousedown="handlePan(0,-1)"/>
  <use id="arrowright" xlink:href="#arrowRight" x="0" y="0" onmousedown="handlePan(1,0)"/>
  <use id="arrowdown" xlink:href="#arrowDown" x="0" y="0" onmousedown="handlePan(0,1)"/>
  <use id="arrowleft" xlink:href="#arrowLeft" x="0" y="0" onmousedown="handlePan(-1,0)"/>
</g>
<svg viewBox="0 0 15 15" width="100%" height="30px" preserveAspectRatio="xMaxYMin meet">
 <g id="arrow_out" transform="scale(0.3 0.3)">
  <a xlink:href="class_sequence_a2163e89ff5b606d82ad4993c7e5eab4b_cgraph_org.svg" target="_base">
   <rect id="button" ry="5" rx="5" y="6" x="6" height="38" width="38"
        fill="#f2f5e9" fill-opacity="0.5" stroke="#606060" stroke-width="1.0"/>
   <path id="arrow"
     d="M 11.500037,31.436501 C 11.940474,20.09759 22.043105,11.32322 32.158766,21.979434 L 37.068811,17.246167 C 37.068811,17.246167 37.088388,32 37.088388,32 L 22.160133,31.978069 C 22.160133,31.978069 26.997745,27.140456 26.997745,27.140456 C 18.528582,18.264221 13.291696,25.230495 11.500037,31.436501 z"
     style="fill:#404040;"/>
  </a>
 </g>
</svg>

<style type='text/css'>
<![CDATA[
[data-mouse-over-selected='false'] { opacity: 0.7; }
[data-mouse-over-selected='true']  { opacity: 1.0; }
]]>
</style>
<script type="application/ecmascript"><![CDATA[
document.addEventListener('DOMContentLoaded', (event) => {
  highlightEdges();
  highlightAdjacentNodes();
});
]]></script>
</svg>
