<?xml version="1.0" encoding="UTF-8" standalone="no"?>
<!DOCTYPE svg PUBLIC "-//W3C//DTD SVG 1.1//EN"
 "http://www.w3.org/Graphics/SVG/1.1/DTD/svg11.dtd">
<!-- Generated by graphviz version 2.43.0 (0)
 -->
<!-- Title: Sequence::erase Pages: 1 -->
<svg width="1703pt" height="751pt"
 viewBox="0.00 0.00 1703.00 750.56" xmlns="http://www.w3.org/2000/svg" xmlns:xlink="http://www.w3.org/1999/xlink">
<g id="graph0" class="graph" transform="scale(1 1) rotate(0) translate(4 746.56)">
<title>Sequence::erase</title>
<!-- Node1 -->
<g id="Node000001" class="node">
<title>Node1</title>
<g id="a_Node000001"><a xlink:title="Remove a portion of the sequence.">
<polygon fill="#999999" stroke="#666666" points="97,-76.06 0,-76.06 0,-57.06 97,-57.06 97,-76.06"/>
<text text-anchor="middle" x="48.5" y="-64.06" font-family="Helvetica,sans-Serif" font-size="10.00">Sequence::erase</text>
</a>
</g>
</g>
<!-- Node2 -->
<g id="Node000002" class="node">
<title>Node2</title>
<g id="a_Node000002"><a xlink:href="class_sequence.html#ad40777fd2f7ad3ae247fab02459e6759" target="_top" xlink:title="Retrieve the symbol at the position in the sequence.">
<polygon fill="white" stroke="#666666" points="228,-76.06 142,-76.06 142,-57.06 228,-57.06 228,-76.06"/>
<text text-anchor="middle" x="185" y="-64.06" font-family="Helvetica,sans-Serif" font-size="10.00">Sequence::get</text>
</a>
</g>
</g>
<!-- Node1&#45;&gt;Node2 -->
<g id="edge1_Node000001_Node000002" class="edge">
<title>Node1&#45;&gt;Node2</title>
<g id="a_edge1_Node000001_Node000002"><a xlink:title=" ">
<path fill="none" stroke="#63b8ff" d="M97.3,-66.56C108.4,-66.56 120.27,-66.56 131.56,-66.56"/>
<polygon fill="#63b8ff" stroke="#63b8ff" points="131.72,-70.06 141.72,-66.56 131.72,-63.06 131.72,-70.06"/>
</a>
</g>
</g>
<!-- Node8 -->
<g id="Node000008" class="node">
<title>Node8</title>
<g id="a_Node000008"><a xlink:href="class_sequence.html#acf21040958590f98163b3d11f19ea93e" target="_top" xlink:title="Give the number of element contained in this sequence.">
<polygon fill="white" stroke="#666666" points="784,-20.06 695,-20.06 695,-1.06 784,-1.06 784,-20.06"/>
<text text-anchor="middle" x="739.5" y="-8.06" font-family="Helvetica,sans-Serif" font-size="10.00">Sequence::size</text>
</a>
</g>
</g>
<!-- Node1&#45;&gt;Node8 -->
<g id="edge49_Node000001_Node000008" class="edge">
<title>Node1&#45;&gt;Node8</title>
<g id="a_edge49_Node000001_Node000008"><a xlink:title=" ">
<path fill="none" stroke="#63b8ff" d="M78.73,-56.98C121.02,-43.68 202,-20.25 273,-11.56 421.2,6.57 597.92,-0.95 684.82,-6.54"/>
<polygon fill="#63b8ff" stroke="#63b8ff" points="684.76,-10.04 694.97,-7.21 685.22,-3.06 684.76,-10.04"/>
</a>
</g>
</g>
<!-- Node11 -->
<g id="Node000011" class="node">
<title>Node11</title>
<g id="a_Node000011"><a xlink:href="class_bit_vector.html#a87f84edf5dd56606b26e8741ba6ced02" target="_top" xlink:title="Remove a number of element from the vector.">
<polygon fill="white" stroke="#666666" points="237,-209.06 133,-209.06 133,-190.06 237,-190.06 237,-209.06"/>
<text text-anchor="middle" x="185" y="-197.06" font-family="Helvetica,sans-Serif" font-size="10.00">BitVector::remove</text>
</a>
</g>
</g>
<!-- Node1&#45;&gt;Node11 -->
<g id="edge14_Node000001_Node000011" class="edge">
<title>Node1&#45;&gt;Node11</title>
<g id="a_edge14_Node000001_Node000011"><a xlink:title=" ">
<path fill="none" stroke="#63b8ff" d="M59.17,-76.13C81.75,-98.45 138.15,-154.23 166.77,-182.52"/>
<polygon fill="#63b8ff" stroke="#63b8ff" points="164.48,-185.18 174.05,-189.72 169.4,-180.2 164.48,-185.18"/>
</a>
</g>
</g>
<!-- Node2&#45;&gt;Node2 -->
<g id="edge5_Node000002_Node000002" class="edge">
<title>Node2&#45;&gt;Node2</title>
<g id="a_edge5_Node000002_Node000002"><a xlink:title=" ">
<path fill="none" stroke="#63b8ff" d="M164.04,-76.14C153.84,-84.8 160.83,-94.06 185,-94.06 200.49,-94.06 208.92,-90.26 210.3,-85.25"/>
<polygon fill="#63b8ff" stroke="#63b8ff" points="213.42,-83.67 205.96,-76.14 207.1,-86.68 213.42,-83.67"/>
</a>
</g>
</g>
<!-- Node3 -->
<g id="Node000003" class="node">
<title>Node3</title>
<g id="a_Node000003"><a xlink:href="class_bit_vector.html#aebe159444eb9d619959b7325ac5dac2d" target="_top" xlink:title="Return the value of the bit at the position coord.">
<polygon fill="white" stroke="#666666" points="1552,-447.06 1469,-447.06 1469,-428.06 1552,-428.06 1552,-447.06"/>
<text text-anchor="middle" x="1510.5" y="-435.06" font-family="Helvetica,sans-Serif" font-size="10.00">BitVector::get</text>
</a>
</g>
</g>
<!-- Node2&#45;&gt;Node3 -->
<g id="edge2_Node000002_Node000003" class="edge">
<title>Node2&#45;&gt;Node3</title>
<g id="a_edge2_Node000002_Node000003"><a xlink:title=" ">
<path fill="none" stroke="#63b8ff" d="M204.5,-76.09C221.78,-84.57 248.51,-96.69 273,-103.56 388.47,-135.96 420.07,-142.56 540,-142.56 540,-142.56 540,-142.56 1149,-142.56 1275.38,-142.56 1334.51,-77.38 1433,-156.56 1474.56,-189.97 1499.57,-359.1 1507.09,-417.61"/>
<polygon fill="#63b8ff" stroke="#63b8ff" points="1503.64,-418.28 1508.36,-427.77 1510.59,-417.41 1503.64,-418.28"/>
</a>
</g>
</g>
<!-- Node5 -->
<g id="Node000005" class="node">
<title>Node5</title>
<g id="a_Node000005"><a xlink:href="class_sequence.html#a8181f024304b3fb5f55c7118f648cc61" target="_top" xlink:title="Return a char (same format as Sequence::getType()) that indicate which alphabet is used in the during...">
<polygon fill="white" stroke="#666666" points="429.5,-76.06 277.5,-76.06 277.5,-57.06 429.5,-57.06 429.5,-76.06"/>
<text text-anchor="middle" x="353.5" y="-64.06" font-family="Helvetica,sans-Serif" font-size="10.00">Sequence::getEncodingType</text>
</a>
</g>
</g>
<!-- Node2&#45;&gt;Node5 -->
<g id="edge6_Node000002_Node000005" class="edge">
<title>Node2&#45;&gt;Node5</title>
<g id="a_edge6_Node000002_Node000005"><a xlink:title=" ">
<path fill="none" stroke="#63b8ff" d="M228.01,-66.56C239.99,-66.56 253.49,-66.56 267.07,-66.56"/>
<polygon fill="#63b8ff" stroke="#63b8ff" points="267.44,-70.06 277.44,-66.56 267.44,-63.06 267.44,-70.06"/>
</a>
</g>
</g>
<!-- Node6 -->
<g id="Node000006" class="node">
<title>Node6</title>
<g id="a_Node000006"><a xlink:href="class_sequence.html#a49a9126010c0332493c803ddca005394" target="_top" xlink:title="Give a map that compress / decompress char used by Sequence.">
<polygon fill="white" stroke="#666666" points="423,-39.06 284,-39.06 284,-20.06 423,-20.06 423,-39.06"/>
<text text-anchor="middle" x="353.5" y="-27.06" font-family="Helvetica,sans-Serif" font-size="10.00">Sequence::translationTab</text>
</a>
</g>
</g>
<!-- Node2&#45;&gt;Node6 -->
<g id="edge7_Node000002_Node000006" class="edge">
<title>Node2&#45;&gt;Node6</title>
<g id="a_edge7_Node000002_Node000006"><a xlink:title=" ">
<path fill="none" stroke="#63b8ff" d="M207.77,-56.99C224.81,-51.77 249.62,-45.58 273.91,-40.29"/>
<polygon fill="#63b8ff" stroke="#63b8ff" points="274.84,-43.66 283.89,-38.15 273.38,-36.82 274.84,-43.66"/>
</a>
</g>
</g>
<!-- Node3&#45;&gt;Node3 -->
<g id="edge3_Node000003_Node000003" class="edge">
<title>Node3&#45;&gt;Node3</title>
<g id="a_edge3_Node000003_Node000003"><a xlink:title=" ">
<path fill="none" stroke="#63b8ff" d="M1490.46,-447.14C1480.72,-455.8 1487.39,-465.06 1510.5,-465.06 1525.3,-465.06 1533.36,-461.26 1534.68,-456.25"/>
<polygon fill="#63b8ff" stroke="#63b8ff" points="1537.86,-454.8 1530.54,-447.14 1531.49,-457.7 1537.86,-454.8"/>
</a>
</g>
</g>
<!-- Node4 -->
<g id="Node000004" class="node">
<title>Node4</title>
<g id="a_Node000004"><a xlink:href="class_bit_vector_1_1_coords.html#a2892f7f46c4af93f9733e312229d8ec1" target="_top" xlink:title="Get Coords::octet .">
<polygon fill="white" stroke="#666666" points="1695,-452.56 1588,-452.56 1588,-422.56 1695,-422.56 1695,-452.56"/>
<text text-anchor="start" x="1596" y="-440.56" font-family="Helvetica,sans-Serif" font-size="10.00">BitVector::Coords::</text>
<text text-anchor="middle" x="1641.5" y="-429.56" font-family="Helvetica,sans-Serif" font-size="10.00">getOctet</text>
</a>
</g>
</g>
<!-- Node3&#45;&gt;Node4 -->
<g id="edge4_Node000003_Node000004" class="edge">
<title>Node3&#45;&gt;Node4</title>
<g id="a_edge4_Node000003_Node000004"><a xlink:title=" ">
<path fill="none" stroke="#63b8ff" d="M1552.32,-437.56C1560.38,-437.56 1569.02,-437.56 1577.62,-437.56"/>
<polygon fill="#63b8ff" stroke="#63b8ff" points="1577.66,-441.06 1587.66,-437.56 1577.66,-434.06 1577.66,-441.06"/>
</a>
</g>
</g>
<!-- Node6&#45;&gt;Node2 -->
<g id="edge13_Node000006_Node000002" class="edge">
<title>Node6&#45;&gt;Node2</title>
<g id="a_edge13_Node000006_Node000002"><a xlink:title=" ">
<path fill="none" stroke="#63b8ff" d="M330.88,-39.08C307.45,-46.28 269.22,-55.3 237.91,-61.33"/>
<polygon fill="#63b8ff" stroke="#63b8ff" points="237.2,-57.9 228.01,-63.18 238.49,-64.78 237.2,-57.9"/>
</a>
</g>
</g>
<!-- Node7 -->
<g id="Node000007" class="node">
<title>Node7</title>
<g id="a_Node000007"><a xlink:href="class_sequence.html#a555c6e58957c4d07028eb5c67b1732ac" target="_top" xlink:title="Function used by Sequence::translationTab to create their compression map.">
<polygon fill="white" stroke="#666666" points="605,-39.06 477,-39.06 477,-20.06 605,-20.06 605,-39.06"/>
<text text-anchor="middle" x="541" y="-27.06" font-family="Helvetica,sans-Serif" font-size="10.00">Sequence::fillCodeMap</text>
</a>
</g>
</g>
<!-- Node6&#45;&gt;Node7 -->
<g id="edge8_Node000006_Node000007" class="edge">
<title>Node6&#45;&gt;Node7</title>
<g id="a_edge8_Node000006_Node000007"><a xlink:title=" ">
<path fill="none" stroke="#63b8ff" d="M423.05,-29.56C437.25,-29.56 452.26,-29.56 466.63,-29.56"/>
<polygon fill="#63b8ff" stroke="#63b8ff" points="466.95,-33.06 476.95,-29.56 466.95,-26.06 466.95,-33.06"/>
</a>
</g>
</g>
<!-- Node7&#45;&gt;Node2 -->
<g id="edge9_Node000007_Node000002" class="edge">
<title>Node7&#45;&gt;Node2</title>
<g id="a_edge9_Node000007_Node000002"><a xlink:title=" ">
<path fill="none" stroke="#63b8ff" d="M526.81,-39.28C507.58,-52.79 470.16,-76.6 434,-85.56 364.6,-102.77 281.21,-89.76 230.98,-78.43"/>
<polygon fill="#63b8ff" stroke="#63b8ff" points="231.61,-74.99 221.08,-76.13 230.02,-81.81 231.61,-74.99"/>
</a>
</g>
</g>
<!-- Node7&#45;&gt;Node8 -->
<g id="edge10_Node000007_Node000008" class="edge">
<title>Node7&#45;&gt;Node8</title>
<g id="a_edge10_Node000007_Node000008"><a xlink:title=" ">
<path fill="none" stroke="#63b8ff" d="M605.26,-23.45C630.88,-20.97 660.15,-18.14 684.72,-15.76"/>
<polygon fill="#63b8ff" stroke="#63b8ff" points="685.33,-19.22 694.94,-14.77 684.65,-12.25 685.33,-19.22"/>
</a>
</g>
</g>
<!-- Node9 -->
<g id="Node000009" class="node">
<title>Node9</title>
<g id="a_Node000009"><a xlink:href="class_bit_vector.html#ab30ea2b408107e4e6bc8095b5a64a1dd" target="_top" xlink:title="Number of element inside this object.">
<polygon fill="white" stroke="#666666" points="987,-20.06 901,-20.06 901,-1.06 987,-1.06 987,-20.06"/>
<text text-anchor="middle" x="944" y="-8.06" font-family="Helvetica,sans-Serif" font-size="10.00">BitVector::size</text>
</a>
</g>
</g>
<!-- Node8&#45;&gt;Node9 -->
<g id="edge11_Node000008_Node000009" class="edge">
<title>Node8&#45;&gt;Node9</title>
<g id="a_edge11_Node000008_Node000009"><a xlink:title=" ">
<path fill="none" stroke="#63b8ff" d="M784.44,-10.56C815.61,-10.56 857.59,-10.56 890.53,-10.56"/>
<polygon fill="#63b8ff" stroke="#63b8ff" points="890.88,-14.06 900.88,-10.56 890.88,-7.06 890.88,-14.06"/>
</a>
</g>
</g>
<!-- Node10 -->
<g id="Node000010" class="node">
<title>Node10</title>
<g id="a_Node000010"><a xlink:href="class_bit_vector.html#a5339660cfb315ab5de7f78bdf5af4ce1" target="_top" xlink:title="Get BitVector::_element_number.">
<polygon fill="white" stroke="#666666" points="1229,-20.06 1067,-20.06 1067,-1.06 1229,-1.06 1229,-20.06"/>
<text text-anchor="middle" x="1148" y="-8.06" font-family="Helvetica,sans-Serif" font-size="10.00">BitVector::getElementNumber</text>
</a>
</g>
</g>
<!-- Node9&#45;&gt;Node10 -->
<g id="edge12_Node000009_Node000010" class="edge">
<title>Node9&#45;&gt;Node10</title>
<g id="a_edge12_Node000009_Node000010"><a xlink:title=" ">
<path fill="none" stroke="#63b8ff" d="M987.35,-10.56C1007.49,-10.56 1032.4,-10.56 1056.5,-10.56"/>
<polygon fill="#63b8ff" stroke="#63b8ff" points="1056.76,-14.06 1066.76,-10.56 1056.76,-7.06 1056.76,-14.06"/>
</a>
</g>
</g>
<!-- Node11&#45;&gt;Node3 -->
<g id="edge15_Node000011_Node000003" class="edge">
<title>Node11&#45;&gt;Node3</title>
<g id="a_edge15_Node000011_Node000003"><a xlink:title=" ">
<path fill="none" stroke="#63b8ff" d="M237.25,-195.08C306.06,-189.47 432.14,-180.56 540,-180.56 540,-180.56 540,-180.56 1149,-180.56 1275.42,-180.56 1333.12,-119.06 1433,-196.56 1503.33,-251.13 1510.24,-370.46 1510.07,-417.72"/>
<polygon fill="#63b8ff" stroke="#63b8ff" points="1506.57,-417.81 1509.92,-427.86 1513.57,-417.92 1506.57,-417.81"/>
</a>
</g>
</g>
<!-- Node12 -->
<g id="Node000012" class="node">
<title>Node12</title>
<g id="a_Node000012"><a xlink:href="class_bit_vector.html#aca24053f655c825de0f06ec86fff1cec" target="_top" xlink:title="Replace an element by another element. Can add an element to the list if index = BitVector::_element_...">
<polygon fill="white" stroke="#666666" points="394.5,-418.06 312.5,-418.06 312.5,-399.06 394.5,-399.06 394.5,-418.06"/>
<text text-anchor="middle" x="353.5" y="-406.06" font-family="Helvetica,sans-Serif" font-size="10.00">BitVector::set</text>
</a>
</g>
</g>
<!-- Node11&#45;&gt;Node12 -->
<g id="edge16_Node000011_Node000012" class="edge">
<title>Node11&#45;&gt;Node12</title>
<g id="a_edge16_Node000011_Node000012"><a xlink:title=" ">
<path fill="none" stroke="#63b8ff" d="M193.59,-209.08C219.48,-241.59 304.64,-348.49 338.47,-390.95"/>
<polygon fill="#63b8ff" stroke="#63b8ff" points="335.9,-393.34 344.87,-398.98 341.38,-388.98 335.9,-393.34"/>
</a>
</g>
</g>
<!-- Node25 -->
<g id="Node000025" class="node">
<title>Node25</title>
<g id="a_Node000025"><a xlink:href="class_bit_vector.html#ad60f42244db2c82260326605916431d3" target="_top" xlink:title="Modify the number of known element in this object.">
<polygon fill="white" stroke="#666666" points="434,-228.06 273,-228.06 273,-209.06 434,-209.06 434,-228.06"/>
<text text-anchor="middle" x="353.5" y="-216.06" font-family="Helvetica,sans-Serif" font-size="10.00">BitVector::setElementNumber</text>
</a>
</g>
</g>
<!-- Node11&#45;&gt;Node25 -->
<g id="edge39_Node000011_Node000025" class="edge">
<title>Node11&#45;&gt;Node25</title>
<g id="a_edge39_Node000011_Node000025"><a xlink:title=" ">
<path fill="none" stroke="#63b8ff" d="M237.31,-205.42C245.42,-206.34 254,-207.32 262.67,-208.31"/>
<polygon fill="#63b8ff" stroke="#63b8ff" points="262.55,-211.82 272.88,-209.48 263.34,-204.86 262.55,-211.82"/>
</a>
</g>
</g>
<!-- Node12&#45;&gt;Node3 -->
<g id="edge20_Node000012_Node000003" class="edge">
<title>Node12&#45;&gt;Node3</title>
<g id="a_edge20_Node000012_Node000003"><a xlink:title=" ">
<path fill="none" stroke="#63b8ff" d="M362.27,-418.19C399.13,-462.71 562.03,-646.56 738.5,-646.56 738.5,-646.56 738.5,-646.56 1149,-646.56 1276.07,-646.56 1330.94,-689.27 1433,-613.56 1484.65,-575.25 1501.91,-494.65 1507.27,-457.31"/>
<polygon fill="#63b8ff" stroke="#63b8ff" points="1510.76,-457.58 1508.57,-447.21 1503.82,-456.68 1510.76,-457.58"/>
</a>
</g>
</g>
<!-- Node13 -->
<g id="Node000013" class="node">
<title>Node13</title>
<g id="a_Node000013"><a xlink:href="class_bit_vector.html#a8c3c1f0faa0bbf35638c7217a841cbd8" target="_top" xlink:title=" ">
<polygon fill="white" stroke="#666666" points="595.5,-694.06 486.5,-694.06 486.5,-675.06 595.5,-675.06 595.5,-694.06"/>
<text text-anchor="middle" x="541" y="-682.06" font-family="Helvetica,sans-Serif" font-size="10.00">BitVector::copyBits</text>
</a>
</g>
</g>
<!-- Node12&#45;&gt;Node13 -->
<g id="edge17_Node000012_Node000013" class="edge">
<title>Node12&#45;&gt;Node13</title>
<g id="a_edge17_Node000012_Node000013"><a xlink:title=" ">
<path fill="none" stroke="#63b8ff" d="M356.1,-418.15C362.75,-455.08 391.68,-589.67 470,-660.56 474.45,-664.59 479.62,-667.95 485.08,-670.75"/>
<polygon fill="#63b8ff" stroke="#63b8ff" points="483.93,-674.07 494.49,-674.95 486.78,-667.68 483.93,-674.07"/>
</a>
</g>
</g>
<!-- Node15 -->
<g id="Node000015" class="node">
<title>Node15</title>
<g id="a_Node000015"><a xlink:href="class_bit_vector.html#a115789c8a9812eabb52f8843cd4e9965" target="_top" xlink:title="Give the a coord object that represent the size of 1 element inside BitVector::_data.">
<polygon fill="white" stroke="#666666" points="1419.5,-423.06 1288.5,-423.06 1288.5,-404.06 1419.5,-404.06 1419.5,-423.06"/>
<text text-anchor="middle" x="1354" y="-411.06" font-family="Helvetica,sans-Serif" font-size="10.00">BitVector::getCoordUnit</text>
</a>
</g>
</g>
<!-- Node12&#45;&gt;Node15 -->
<g id="edge21_Node000012_Node000015" class="edge">
<title>Node12&#45;&gt;Node15</title>
<g id="a_edge21_Node000012_Node000015"><a xlink:title=" ">
<path fill="none" stroke="#63b8ff" d="M394.73,-401.94C464.5,-391.06 612.55,-370.56 738.5,-370.56 738.5,-370.56 738.5,-370.56 945,-370.56 1066.58,-370.56 1207.43,-389.68 1287.79,-402.42"/>
<polygon fill="#63b8ff" stroke="#63b8ff" points="1287.33,-405.89 1297.76,-404.02 1288.44,-398.98 1287.33,-405.89"/>
</a>
</g>
</g>
<!-- Node16 -->
<g id="Node000016" class="node">
<title>Node16</title>
<g id="a_Node000016"><a xlink:href="class_bit_vector.html#a93ab8bc2ec39bf299ae28ffcad504b41" target="_top" xlink:title="Give the coords of the first bit of an element.">
<polygon fill="white" stroke="#666666" points="608,-504.06 474,-504.06 474,-485.06 608,-485.06 608,-504.06"/>
<text text-anchor="middle" x="541" y="-492.06" font-family="Helvetica,sans-Serif" font-size="10.00">BitVector::indexElement</text>
</a>
</g>
</g>
<!-- Node12&#45;&gt;Node16 -->
<g id="edge23_Node000012_Node000016" class="edge">
<title>Node12&#45;&gt;Node16</title>
<g id="a_edge23_Node000012_Node000016"><a xlink:title=" ">
<path fill="none" stroke="#63b8ff" d="M375.06,-418.09C407.79,-433.27 471.92,-463 509.85,-480.58"/>
<polygon fill="#63b8ff" stroke="#63b8ff" points="508.8,-483.96 519.35,-484.99 511.75,-477.61 508.8,-483.96"/>
</a>
</g>
</g>
<!-- Node23 -->
<g id="Node000023" class="node">
<title>Node23</title>
<g id="a_Node000023"><a xlink:href="class_bit_vector.html#ab4d98ce4b8d36ed6af1aa46e67810972" target="_top" xlink:title="Give the last coordinates thar can be contained inside BitVector::_data with the current BitVector::_...">
<polygon fill="white" stroke="#666666" points="788.5,-321.06 690.5,-321.06 690.5,-302.06 788.5,-302.06 788.5,-321.06"/>
<text text-anchor="middle" x="739.5" y="-309.06" font-family="Helvetica,sans-Serif" font-size="10.00">BitVector::lastBit</text>
</a>
</g>
</g>
<!-- Node12&#45;&gt;Node23 -->
<g id="edge36_Node000012_Node000023" class="edge">
<title>Node12&#45;&gt;Node23</title>
<g id="a_edge36_Node000012_Node000023"><a xlink:title=" ">
<path fill="none" stroke="#63b8ff" d="M371.95,-398.99C394.11,-387.24 433.81,-367.54 470,-356.56 540.53,-335.16 624.77,-323.14 679.84,-317"/>
<polygon fill="#63b8ff" stroke="#63b8ff" points="680.55,-320.45 690.12,-315.89 679.8,-313.49 680.55,-320.45"/>
</a>
</g>
</g>
<!-- Node24 -->
<g id="Node000024" class="node">
<title>Node24</title>
<g id="a_Node000024"><a xlink:href="class_bit_vector.html#ab92cdd9780b949d9d762f58e1ee4a0ae" target="_top" xlink:title="Last postion of the vector.">
<polygon fill="white" stroke="#666666" points="995,-418.06 893,-418.06 893,-399.06 995,-399.06 995,-418.06"/>
<text text-anchor="middle" x="944" y="-406.06" font-family="Helvetica,sans-Serif" font-size="10.00">BitVector::lastPos</text>
</a>
</g>
</g>
<!-- Node12&#45;&gt;Node24 -->
<g id="edge37_Node000012_Node000024" class="edge">
<title>Node12&#45;&gt;Node24</title>
<g id="a_edge37_Node000012_Node000024"><a xlink:title=" ">
<path fill="none" stroke="#63b8ff" d="M394.95,-408.56C496.51,-408.56 762.7,-408.56 882.75,-408.56"/>
<polygon fill="#63b8ff" stroke="#63b8ff" points="882.86,-412.06 892.86,-408.56 882.86,-405.06 882.86,-412.06"/>
</a>
</g>
</g>
<!-- Node13&#45;&gt;Node3 -->
<g id="edge18_Node000013_Node000003" class="edge">
<title>Node13&#45;&gt;Node3</title>
<g id="a_edge18_Node000013_Node000003"><a xlink:title=" ">
<path fill="none" stroke="#63b8ff" d="M595.51,-684.56C672.39,-684.56 818.56,-684.56 943,-684.56 943,-684.56 943,-684.56 1149,-684.56 1275.67,-684.56 1333.11,-738.46 1433,-660.56 1497.73,-610.09 1507.99,-501.84 1509.4,-457.32"/>
<polygon fill="#63b8ff" stroke="#63b8ff" points="1512.9,-457.28 1509.59,-447.22 1505.9,-457.15 1512.9,-457.28"/>
</a>
</g>
</g>
<!-- Node14 -->
<g id="Node000014" class="node">
<title>Node14</title>
<g id="a_Node000014"><a xlink:href="class_bit_vector_1_1_coords.html#a393207c752f8f9121aca38c938914154" target="_top" xlink:title="Get Coords::bit .">
<polygon fill="white" stroke="#666666" points="793,-742.56 686,-742.56 686,-712.56 793,-712.56 793,-742.56"/>
<text text-anchor="start" x="694" y="-730.56" font-family="Helvetica,sans-Serif" font-size="10.00">BitVector::Coords::</text>
<text text-anchor="middle" x="739.5" y="-719.56" font-family="Helvetica,sans-Serif" font-size="10.00">getBit</text>
</a>
</g>
</g>
<!-- Node13&#45;&gt;Node14 -->
<g id="edge19_Node000013_Node000014" class="edge">
<title>Node13&#45;&gt;Node14</title>
<g id="a_edge19_Node000013_Node000014"><a xlink:title=" ">
<path fill="none" stroke="#63b8ff" d="M585.61,-694.1C612.22,-699.93 646.68,-707.47 676.15,-713.92"/>
<polygon fill="#63b8ff" stroke="#63b8ff" points="675.41,-717.34 685.93,-716.06 676.91,-710.5 675.41,-717.34"/>
</a>
</g>
</g>
<!-- Node15&#45;&gt;Node3 -->
<g id="edge22_Node000015_Node000003" class="edge">
<title>Node15&#45;&gt;Node3</title>
<g id="a_edge22_Node000015_Node000003"><a xlink:title=" ">
<path fill="none" stroke="#63b8ff" d="M1416.51,-423.12C1430.45,-425.28 1445.12,-427.56 1458.57,-429.65"/>
<polygon fill="#63b8ff" stroke="#63b8ff" points="1458.17,-433.13 1468.59,-431.21 1459.25,-426.21 1458.17,-433.13"/>
</a>
</g>
</g>
<!-- Node16&#45;&gt;Node3 -->
<g id="edge24_Node000016_Node000003" class="edge">
<title>Node16&#45;&gt;Node3</title>
<g id="a_edge24_Node000016_Node000003"><a xlink:title=" ">
<path fill="none" stroke="#63b8ff" d="M561.06,-504.08C617.72,-531.48 790.65,-608.56 943,-608.56 943,-608.56 943,-608.56 1149,-608.56 1275.88,-608.56 1327.52,-650.07 1433,-579.56 1476.32,-550.61 1497.08,-488.73 1505.19,-457.08"/>
<polygon fill="#63b8ff" stroke="#63b8ff" points="1508.62,-457.79 1507.55,-447.25 1501.81,-456.16 1508.62,-457.79"/>
</a>
</g>
</g>
<!-- Node17 -->
<g id="Node000017" class="node">
<title>Node17</title>
<g id="a_Node000017"><a xlink:href="class_bit_vector.html#a04e6d0b67ee9b42ccec437b0176067fe" target="_top" xlink:title="Give A size_t that represent the coords of the first bit of an element.">
<polygon fill="white" stroke="#666666" points="831,-504.06 648,-504.06 648,-485.06 831,-485.06 831,-504.06"/>
<text text-anchor="middle" x="739.5" y="-492.06" font-family="Helvetica,sans-Serif" font-size="10.00">BitVector::indexElementUntreated</text>
</a>
</g>
</g>
<!-- Node16&#45;&gt;Node17 -->
<g id="edge25_Node000016_Node000017" class="edge">
<title>Node16&#45;&gt;Node17</title>
<g id="a_edge25_Node000016_Node000017"><a xlink:title=" ">
<path fill="none" stroke="#63b8ff" d="M608.25,-494.56C617.78,-494.56 627.76,-494.56 637.77,-494.56"/>
<polygon fill="#63b8ff" stroke="#63b8ff" points="637.77,-498.06 647.77,-494.56 637.77,-491.06 637.77,-498.06"/>
</a>
</g>
</g>
<!-- Node17&#45;&gt;Node3 -->
<g id="edge26_Node000017_Node000003" class="edge">
<title>Node17&#45;&gt;Node3</title>
<g id="a_edge26_Node000017_Node000003"><a xlink:title=" ">
<path fill="none" stroke="#63b8ff" d="M763.4,-504.15C854.33,-540.64 1196.42,-662.91 1433,-542.56 1468.36,-524.58 1491.24,-481.74 1502.1,-456.7"/>
<polygon fill="#63b8ff" stroke="#63b8ff" points="1505.45,-457.75 1506.02,-447.17 1498.98,-455.09 1505.45,-457.75"/>
</a>
</g>
</g>
<!-- Node18 -->
<g id="Node000018" class="node">
<title>Node18</title>
<g id="a_Node000018"><a xlink:href="class_bit_vector.html#af68cda7444ec4459393bbfa423f0a7dd" target="_top" xlink:title="Get the Size_t value if a BitVector::CoordUnit.">
<polygon fill="white" stroke="#666666" points="1199.5,-466.56 1096.5,-466.56 1096.5,-436.56 1199.5,-436.56 1199.5,-466.56"/>
<text text-anchor="start" x="1104.5" y="-454.56" font-family="Helvetica,sans-Serif" font-size="10.00">BitVector::getSize</text>
<text text-anchor="middle" x="1148" y="-443.56" font-family="Helvetica,sans-Serif" font-size="10.00">_tUnit</text>
</a>
</g>
</g>
<!-- Node17&#45;&gt;Node18 -->
<g id="edge27_Node000017_Node000018" class="edge">
<title>Node17&#45;&gt;Node18</title>
<g id="a_edge27_Node000017_Node000018"><a xlink:title=" ">
<path fill="none" stroke="#63b8ff" d="M802.83,-485.03C823.25,-482.09 846.07,-478.98 867,-476.56 942.31,-467.85 1029.31,-460.5 1086.09,-456.08"/>
<polygon fill="#63b8ff" stroke="#63b8ff" points="1086.64,-459.55 1096.34,-455.28 1086.1,-452.57 1086.64,-459.55"/>
</a>
</g>
</g>
<!-- Node20 -->
<g id="Node000020" class="node">
<title>Node20</title>
<g id="a_Node000020"><a xlink:href="class_bit_vector.html#ad36e7d0b4b1417ca434414fa40c72eb8" target="_top" xlink:title="How many element can be contained in this object knowing BitVector::_element_size.">
<polygon fill="white" stroke="#666666" points="1021,-504.06 867,-504.06 867,-485.06 1021,-485.06 1021,-504.06"/>
<text text-anchor="middle" x="944" y="-492.06" font-family="Helvetica,sans-Serif" font-size="10.00">BitVector::maxElementLimit</text>
</a>
</g>
</g>
<!-- Node17&#45;&gt;Node20 -->
<g id="edge30_Node000017_Node000020" class="edge">
<title>Node17&#45;&gt;Node20</title>
<g id="a_edge30_Node000017_Node000020"><a xlink:title=" ">
<path fill="none" stroke="#63b8ff" d="M831.09,-494.56C839.55,-494.56 848.11,-494.56 856.53,-494.56"/>
<polygon fill="#63b8ff" stroke="#63b8ff" points="856.72,-498.06 866.72,-494.56 856.72,-491.06 856.72,-498.06"/>
</a>
</g>
</g>
<!-- Node18&#45;&gt;Node15 -->
<g id="edge28_Node000018_Node000015" class="edge">
<title>Node18&#45;&gt;Node15</title>
<g id="a_edge28_Node000018_Node000015"><a xlink:title=" ">
<path fill="none" stroke="#63b8ff" d="M1199.69,-442.12C1227.56,-436.93 1262.33,-430.45 1291.72,-424.98"/>
<polygon fill="#63b8ff" stroke="#63b8ff" points="1292.67,-428.36 1301.86,-423.09 1291.39,-421.48 1292.67,-428.36"/>
</a>
</g>
</g>
<!-- Node19 -->
<g id="Node000019" class="node">
<title>Node19</title>
<g id="a_Node000019"><a xlink:href="class_bit_vector_1_1_coords.html#a3a4fac9de925974af9c8a66a1d0179e6" target="_top" xlink:title="Translate octet and bit value inside a size_t. Allow easier mathematic computations.">
<polygon fill="white" stroke="#666666" points="1407.5,-371.56 1300.5,-371.56 1300.5,-341.56 1407.5,-341.56 1407.5,-371.56"/>
<text text-anchor="start" x="1308.5" y="-359.56" font-family="Helvetica,sans-Serif" font-size="10.00">BitVector::Coords::</text>
<text text-anchor="middle" x="1354" y="-348.56" font-family="Helvetica,sans-Serif" font-size="10.00">toSize_t</text>
</a>
</g>
</g>
<!-- Node18&#45;&gt;Node19 -->
<g id="edge29_Node000018_Node000019" class="edge">
<title>Node18&#45;&gt;Node19</title>
<g id="a_edge29_Node000018_Node000019"><a xlink:title=" ">
<path fill="none" stroke="#63b8ff" d="M1181.32,-436.51C1216.44,-420.16 1272.64,-393.98 1311.11,-376.07"/>
<polygon fill="#63b8ff" stroke="#63b8ff" points="1312.9,-379.1 1320.49,-371.7 1309.95,-372.75 1312.9,-379.1"/>
</a>
</g>
</g>
<!-- Node20&#45;&gt;Node18 -->
<g id="edge31_Node000020_Node000018" class="edge">
<title>Node20&#45;&gt;Node18</title>
<g id="a_edge31_Node000020_Node000018"><a xlink:title=" ">
<path fill="none" stroke="#63b8ff" d="M989.83,-485.02C1018.25,-478.97 1055.38,-471.07 1086.41,-464.46"/>
<polygon fill="#63b8ff" stroke="#63b8ff" points="1087.2,-467.87 1096.25,-462.36 1085.74,-461.02 1087.2,-467.87"/>
</a>
</g>
</g>
<!-- Node21 -->
<g id="Node000021" class="node">
<title>Node21</title>
<g id="a_Node000021"><a xlink:href="class_bit_vector.html#a68b14af0886039ddcf55c82a250deb4c" target="_top" xlink:title="How many element can be contained in this kind of object.">
<polygon fill="white" stroke="#666666" points="1433,-533.56 1275,-533.56 1275,-503.56 1433,-503.56 1433,-533.56"/>
<text text-anchor="start" x="1283" y="-521.56" font-family="Helvetica,sans-Serif" font-size="10.00">BitVector::maximumElement</text>
<text text-anchor="middle" x="1354" y="-510.56" font-family="Helvetica,sans-Serif" font-size="10.00">Number</text>
</a>
</g>
</g>
<!-- Node20&#45;&gt;Node21 -->
<g id="edge32_Node000020_Node000021" class="edge">
<title>Node20&#45;&gt;Node21</title>
<g id="a_edge32_Node000020_Node000021"><a xlink:title=" ">
<path fill="none" stroke="#63b8ff" d="M991.66,-504.1C1011.68,-507.77 1035.4,-511.56 1057,-513.56 1126.66,-520.02 1205.93,-521.03 1264.9,-520.55"/>
<polygon fill="#63b8ff" stroke="#63b8ff" points="1264.96,-524.05 1274.92,-520.45 1264.89,-517.05 1264.96,-524.05"/>
</a>
</g>
</g>
<!-- Node22 -->
<g id="Node000022" class="node">
<title>Node22</title>
<g id="a_Node000022"><a xlink:href="class_bit_vector.html#aa3228d2bacb1bb0f6072d73d43a49456" target="_top" xlink:title="How many octet can be contained in this kind of object.">
<polygon fill="white" stroke="#666666" points="1239,-504.06 1057,-504.06 1057,-485.06 1239,-485.06 1239,-504.06"/>
<text text-anchor="middle" x="1148" y="-492.06" font-family="Helvetica,sans-Serif" font-size="10.00">BitVector::maximumOctetNumber</text>
</a>
</g>
</g>
<!-- Node20&#45;&gt;Node22 -->
<g id="edge34_Node000020_Node000022" class="edge">
<title>Node20&#45;&gt;Node22</title>
<g id="a_edge34_Node000020_Node000022"><a xlink:title=" ">
<path fill="none" stroke="#63b8ff" d="M1021.08,-494.56C1029.44,-494.56 1038.04,-494.56 1046.64,-494.56"/>
<polygon fill="#63b8ff" stroke="#63b8ff" points="1046.71,-498.06 1056.71,-494.56 1046.71,-491.06 1046.71,-498.06"/>
</a>
</g>
</g>
<!-- Node21&#45;&gt;Node3 -->
<g id="edge33_Node000021_Node000003" class="edge">
<title>Node21&#45;&gt;Node3</title>
<g id="a_edge33_Node000021_Node000003"><a xlink:title=" ">
<path fill="none" stroke="#63b8ff" d="M1383.7,-503.52C1411.8,-488.78 1454.32,-466.49 1482,-451.98"/>
<polygon fill="#63b8ff" stroke="#63b8ff" points="1483.9,-454.94 1491.13,-447.19 1480.65,-448.74 1483.9,-454.94"/>
</a>
</g>
</g>
<!-- Node22&#45;&gt;Node3 -->
<g id="edge35_Node000022_Node000003" class="edge">
<title>Node22&#45;&gt;Node3</title>
<g id="a_edge35_Node000022_Node000003"><a xlink:title=" ">
<path fill="none" stroke="#63b8ff" d="M1209.34,-485.02C1279.26,-473.97 1393.24,-455.94 1458.78,-445.58"/>
<polygon fill="#63b8ff" stroke="#63b8ff" points="1459.54,-449 1468.87,-443.99 1458.45,-442.09 1459.54,-449"/>
</a>
</g>
</g>
<!-- Node24&#45;&gt;Node15 -->
<g id="edge38_Node000024_Node000015" class="edge">
<title>Node24&#45;&gt;Node15</title>
<g id="a_edge38_Node000024_Node000015"><a xlink:title=" ">
<path fill="none" stroke="#63b8ff" d="M995.03,-409.17C1065.91,-410.04 1196.08,-411.64 1278.39,-412.65"/>
<polygon fill="#63b8ff" stroke="#63b8ff" points="1278.39,-416.15 1288.44,-412.77 1278.48,-409.15 1278.39,-416.15"/>
</a>
</g>
</g>
<!-- Node25&#45;&gt;Node3 -->
<g id="edge48_Node000025_Node000003" class="edge">
<title>Node25&#45;&gt;Node3</title>
<g id="a_edge48_Node000025_Node000003"><a xlink:title=" ">
<path fill="none" stroke="#63b8ff" d="M434.3,-218.56C511.97,-218.56 633.33,-218.56 738.5,-218.56 738.5,-218.56 738.5,-218.56 1149,-218.56 1275.64,-218.56 1331.41,-165.96 1433,-241.56 1490.59,-284.42 1504.84,-376.98 1508.36,-417.68"/>
<polygon fill="#63b8ff" stroke="#63b8ff" points="1504.87,-417.98 1509.09,-427.7 1511.85,-417.47 1504.87,-417.98"/>
</a>
</g>
</g>
<!-- Node26 -->
<g id="Node000026" class="node">
<title>Node26</title>
<g id="a_Node000026"><a xlink:href="class_bit_vector.html#ad64e921d07b9528a532477f282af135c" target="_top" xlink:title="How many element can fit in this vector without having to resize the vector ?">
<polygon fill="white" stroke="#666666" points="612,-284.56 470,-284.56 470,-254.56 612,-254.56 612,-284.56"/>
<text text-anchor="start" x="478" y="-272.56" font-family="Helvetica,sans-Serif" font-size="10.00">BitVector::currentElement</text>
<text text-anchor="middle" x="541" y="-261.56" font-family="Helvetica,sans-Serif" font-size="10.00">Capacity</text>
</a>
</g>
</g>
<!-- Node25&#45;&gt;Node26 -->
<g id="edge40_Node000025_Node000026" class="edge">
<title>Node25&#45;&gt;Node26</title>
<g id="a_edge40_Node000025_Node000026"><a xlink:title=" ">
<path fill="none" stroke="#63b8ff" d="M389.39,-228.15C413.52,-234.79 446.34,-243.81 475.19,-251.74"/>
<polygon fill="#63b8ff" stroke="#63b8ff" points="474.64,-255.22 485.21,-254.5 476.49,-248.47 474.64,-255.22"/>
</a>
</g>
</g>
<!-- Node26&#45;&gt;Node23 -->
<g id="edge47_Node000026_Node000023" class="edge">
<title>Node26&#45;&gt;Node23</title>
<g id="a_edge47_Node000026_Node000023"><a xlink:title=" ">
<path fill="none" stroke="#63b8ff" d="M612.11,-284.55C635.72,-289.59 661.69,-295.14 683.92,-299.9"/>
<polygon fill="#63b8ff" stroke="#63b8ff" points="683.34,-303.35 693.85,-302.02 684.8,-296.51 683.34,-303.35"/>
</a>
</g>
</g>
<!-- Node27 -->
<g id="Node000027" class="node">
<title>Node27</title>
<g id="a_Node000027"><a xlink:href="class_bit_vector.html#a5af3c70f593aac387de23c7e6e5ae57e" target="_top" xlink:title="Find the element that correspond to coord .">
<polygon fill="white" stroke="#666666" points="813,-279.06 666,-279.06 666,-260.06 813,-260.06 813,-279.06"/>
<text text-anchor="middle" x="739.5" y="-267.06" font-family="Helvetica,sans-Serif" font-size="10.00">BitVector::indexCoordinate</text>
</a>
</g>
</g>
<!-- Node26&#45;&gt;Node27 -->
<g id="edge41_Node000026_Node000027" class="edge">
<title>Node26&#45;&gt;Node27</title>
<g id="a_edge41_Node000026_Node000027"><a xlink:title=" ">
<path fill="none" stroke="#63b8ff" d="M612.11,-269.56C626.12,-269.56 640.97,-269.56 655.37,-269.56"/>
<polygon fill="#63b8ff" stroke="#63b8ff" points="655.76,-273.06 665.76,-269.56 655.76,-266.06 655.76,-273.06"/>
</a>
</g>
</g>
<!-- Node27&#45;&gt;Node3 -->
<g id="edge42_Node000027_Node000003" class="edge">
<title>Node27&#45;&gt;Node3</title>
<g id="a_edge42_Node000027_Node000003"><a xlink:title=" ">
<path fill="none" stroke="#63b8ff" d="M813.23,-261.47C969.7,-245.55 1332.29,-216.97 1433,-281.56 1481.13,-312.43 1499.93,-383.13 1506.44,-417.74"/>
<polygon fill="#63b8ff" stroke="#63b8ff" points="1503.06,-418.72 1508.21,-427.98 1509.96,-417.53 1503.06,-418.72"/>
</a>
</g>
</g>
<!-- Node28 -->
<g id="Node000028" class="node">
<title>Node28</title>
<g id="a_Node000028"><a xlink:href="class_bit_vector.html#a354c83853bc3622efa5d45efcae97286" target="_top" xlink:title="Give more detailed on BiteVector::indexCoordinate.">
<polygon fill="white" stroke="#666666" points="1017.5,-328.56 870.5,-328.56 870.5,-298.56 1017.5,-298.56 1017.5,-328.56"/>
<text text-anchor="start" x="878.5" y="-316.56" font-family="Helvetica,sans-Serif" font-size="10.00">BitVector::indexCoordinate</text>
<text text-anchor="middle" x="944" y="-305.56" font-family="Helvetica,sans-Serif" font-size="10.00">Untreated</text>
</a>
</g>
</g>
<!-- Node27&#45;&gt;Node28 -->
<g id="edge43_Node000027_Node000028" class="edge">
<title>Node27&#45;&gt;Node28</title>
<g id="a_edge43_Node000027_Node000028"><a xlink:title=" ">
<path fill="none" stroke="#63b8ff" d="M784.44,-279.11C807.65,-284.15 836.84,-290.49 863.83,-296.36"/>
<polygon fill="#63b8ff" stroke="#63b8ff" points="863.15,-299.79 873.67,-298.5 864.64,-292.95 863.15,-299.79"/>
</a>
</g>
</g>
<!-- Node28&#45;&gt;Node3 -->
<g id="edge44_Node000028_Node000003" class="edge">
<title>Node28&#45;&gt;Node3</title>
<g id="a_edge44_Node000028_Node000003"><a xlink:title=" ">
<path fill="none" stroke="#63b8ff" d="M1011.82,-298.51C1110.61,-279.98 1298.43,-259.24 1433,-332.56 1467.66,-351.45 1490.68,-393.58 1501.78,-418.35"/>
<polygon fill="#63b8ff" stroke="#63b8ff" points="1498.66,-419.96 1505.81,-427.78 1505.1,-417.21 1498.66,-419.96"/>
</a>
</g>
</g>
<!-- Node28&#45;&gt;Node18 -->
<g id="edge45_Node000028_Node000018" class="edge">
<title>Node28&#45;&gt;Node18</title>
<g id="a_edge45_Node000028_Node000018"><a xlink:title=" ">
<path fill="none" stroke="#63b8ff" d="M967,-328.59C1003.28,-353.38 1075.7,-402.85 1116.76,-430.9"/>
<polygon fill="#63b8ff" stroke="#63b8ff" points="1114.79,-433.8 1125.03,-436.55 1118.74,-428.02 1114.79,-433.8"/>
</a>
</g>
</g>
<!-- Node28&#45;&gt;Node19 -->
<g id="edge46_Node000028_Node000019" class="edge">
<title>Node28&#45;&gt;Node19</title>
<g id="a_edge46_Node000028_Node000019"><a xlink:title=" ">
<path fill="none" stroke="#63b8ff" d="M1017.94,-321.25C1095.55,-329.43 1217.03,-342.23 1290.43,-349.97"/>
<polygon fill="#63b8ff" stroke="#63b8ff" points="1290.14,-353.46 1300.46,-351.02 1290.88,-346.49 1290.14,-353.46"/>
</a>
</g>
</g>
</g>
</svg>
