<?xml version="1.0" encoding="UTF-8" standalone="no"?>
<!DOCTYPE svg PUBLIC "-//W3C//DTD SVG 1.1//EN"
 "http://www.w3.org/Graphics/SVG/1.1/DTD/svg11.dtd">
<!-- Generated by graphviz version 2.43.0 (0)
 -->
<!-- Title: BitVector::set Pages: 1 -->
<!--zoomable 457 -->

<svg id="main" version="1.1" xmlns="http://www.w3.org/2000/svg" xmlns:xlink="http://www.w3.org/1999/xlink" xml:space="preserve" onload="init(evt)">
<style type="text/css"><![CDATA[
.node, .edge {opacity: 0.7;}
.node.selected, .edge.selected {opacity: 1;}
.edge:hover path { stroke: red; }
.edge:hover polygon { stroke: red; fill: red; }
]]></style>

<defs>
  <circle id="rim" cx="0" cy="0" r="7"/>
  <circle id="rim2" cx="0" cy="0" r="3.5"/>
  <g id="zoomPlus">
    <use xlink:href="#rim" fill="#404040"><set attributeName="fill" to="#808080" begin="zoomplus.mouseover" end="zoomplus.mouseout"/></use>
    <path d="M-4,0h8M0,-4v8" fill="none" stroke="white" stroke-width="1.5" pointer-events="none"/>
  </g>
  <g id="zoomMin">
    <use xlink:href="#rim" fill="#404040"><set attributeName="fill" to="#808080" begin="zoomminus.mouseover" end="zoomminus.mouseout"/></use>
    <path d="M-4,0h8" fill="none" stroke="white" stroke-width="1.5" pointer-events="none"/>
  </g>
  <g id="arrowUp" transform="translate(30 24)">
    <use xlink:href="#rim"/>
    <path pointer-events="none" fill="none" stroke="white" stroke-width="1.5" d="M0,-3.0v7 M-2.5,-0.5L0,-3.0L2.5,-0.5"/>
  </g>
  <g id="arrowRight" transform="rotate(90) translate(36 -43)">
    <use xlink:href="#rim"/>
    <path pointer-events="none" fill="none" stroke="white" stroke-width="1.5" d="M0,-3.0v7 M-2.5,-0.5L0,-3.0L2.5,-0.5"/>
  </g>
  <g id="arrowDown" transform="rotate(180) translate(-30 -48)">
    <use xlink:href="#rim"/>
    <path pointer-events="none" fill="none" stroke="white" stroke-width="1.5" d="M0,-3.0v7 M-2.5,-0.5L0,-3.0L2.5,-0.5"/>
  </g>
  <g id="arrowLeft" transform="rotate(270) translate(-36 17)">
    <use xlink:href="#rim"/>
    <path pointer-events="none" fill="none" stroke="white" stroke-width="1.5" d="M0,-3.0v7 M-2.5,-0.5L0,-3.0L2.5,-0.5"/>
  </g>
  <g id="resetDef">
    <use xlink:href="#rim2" fill="#404040"><set attributeName="fill" to="#808080" begin="reset.mouseover" end="reset.mouseout"/></use>
  </g>
</defs>
<script type="application/ecmascript">
var viewWidth = 1461;
var viewHeight = 457;
var sectionId = 'dynsection-63';
</script>
<script type="application/ecmascript" xlink:href="svg.min.js"/>
<svg id="graph" class="graph">
<g id="viewport">
<title>BitVector::set</title>
<!-- Node1 -->
<g id="Node000001" class="node">
<title>Node1</title>
<g id="a_Node000001"><a xlink:title="Replace an element by another element. Can add an element to the list if index = BitVector::_element_...">
<polygon fill="#999999" stroke="#666666" points="82,-396.41 0,-396.41 0,-377.41 82,-377.41 82,-396.41"/>
<text text-anchor="middle" x="41" y="-384.41" font-family="Helvetica,sans-Serif" font-size="10.00">BitVector::set</text>
</a>
</g>
</g>
<!-- Node2 -->
<g id="Node000002" class="node">
<title>Node2</title>
<g id="a_Node000002"><a xlink:href="class_bit_vector.html#aebe159444eb9d619959b7325ac5dac2d" target="_top" xlink:title="Return the value of the bit at the position coord.">
<polygon fill="white" stroke="#666666" points="1310,-239.41 1227,-239.41 1227,-220.41 1310,-220.41 1310,-239.41"/>
<text text-anchor="middle" x="1268.5" y="-227.41" font-family="Helvetica,sans-Serif" font-size="10.00">BitVector::get</text>
</a>
</g>
</g>
<!-- Node1&#45;&gt;Node2 -->
<g id="edge1_Node000001_Node000002" class="edge">
<title>Node1&#45;&gt;Node2</title>
<g id="a_edge1_Node000001_Node000002"><a xlink:title=" ">
<path fill="none" stroke="#63b8ff" d="M65.57,-396.46C110.67,-413.85 212.67,-448.91 302,-448.91 302,-448.91 302,-448.91 907,-448.91 955.66,-448.91 1147.59,-404.55 1191,-369.91 1230.72,-338.22 1252.8,-280.04 1262.12,-249.62"/>
<polygon fill="#63b8ff" stroke="#63b8ff" points="1265.56,-250.35 1264.99,-239.77 1258.83,-248.4 1265.56,-250.35"/>
</a>
</g>
</g>
<!-- Node4 -->
<g id="Node000004" class="node">
<title>Node4</title>
<g id="a_Node000004"><a xlink:href="class_bit_vector.html#aca24053f655c825de0f06ec86fff1cec" target="_top" xlink:title="Replace an element by another element. Can add an element to the list if index = BitVector::_element_...">
<polygon fill="white" stroke="#666666" points="200,-334.41 118,-334.41 118,-315.41 200,-315.41 200,-334.41"/>
<text text-anchor="middle" x="159" y="-322.41" font-family="Helvetica,sans-Serif" font-size="10.00">BitVector::set</text>
</a>
</g>
</g>
<!-- Node1&#45;&gt;Node4 -->
<g id="edge4_Node000001_Node000004" class="edge">
<title>Node1&#45;&gt;Node4</title>
<g id="a_edge4_Node000001_Node000004"><a xlink:title=" ">
<path fill="none" stroke="#63b8ff" d="M59.87,-377.36C78.8,-367.24 108.93,-351.14 130.81,-339.44"/>
<polygon fill="#63b8ff" stroke="#63b8ff" points="132.75,-342.38 139.92,-334.58 129.45,-336.2 132.75,-342.38"/>
</a>
</g>
</g>
<!-- Node2&#45;&gt;Node2 -->
<g id="edge2_Node000002_Node000002" class="edge">
<title>Node2&#45;&gt;Node2</title>
<g id="a_edge2_Node000002_Node000002"><a xlink:title=" ">
<path fill="none" stroke="#63b8ff" d="M1248.46,-239.49C1238.72,-248.14 1245.39,-257.41 1268.5,-257.41 1283.3,-257.41 1291.36,-253.61 1292.68,-248.6"/>
<polygon fill="#63b8ff" stroke="#63b8ff" points="1295.86,-247.15 1288.54,-239.49 1289.49,-250.04 1295.86,-247.15"/>
</a>
</g>
</g>
<!-- Node3 -->
<g id="Node000003" class="node">
<title>Node3</title>
<g id="a_Node000003"><a xlink:href="class_bit_vector_1_1_coords.html#a2892f7f46c4af93f9733e312229d8ec1" target="_top" xlink:title="Get Coords::octet .">
<polygon fill="white" stroke="#666666" points="1453,-244.91 1346,-244.91 1346,-214.91 1453,-214.91 1453,-244.91"/>
<text text-anchor="start" x="1354" y="-232.91" font-family="Helvetica,sans-Serif" font-size="10.00">BitVector::Coords::</text>
<text text-anchor="middle" x="1399.5" y="-221.91" font-family="Helvetica,sans-Serif" font-size="10.00">getOctet</text>
</a>
</g>
</g>
<!-- Node2&#45;&gt;Node3 -->
<g id="edge3_Node000002_Node000003" class="edge">
<title>Node2&#45;&gt;Node3</title>
<g id="a_edge3_Node000002_Node000003"><a xlink:title=" ">
<path fill="none" stroke="#63b8ff" d="M1310.32,-229.91C1318.38,-229.91 1327.02,-229.91 1335.62,-229.91"/>
<polygon fill="#63b8ff" stroke="#63b8ff" points="1335.66,-233.41 1345.66,-229.91 1335.66,-226.41 1335.66,-233.41"/>
</a>
</g>
</g>
<!-- Node4&#45;&gt;Node2 -->
<g id="edge8_Node000004_Node000002" class="edge">
<title>Node4&#45;&gt;Node2</title>
<g id="a_edge8_Node000004_Node000002"><a xlink:title=" ">
<path fill="none" stroke="#63b8ff" d="M169.27,-334.55C182.62,-347.76 208.71,-371.1 236,-381.91 344.3,-424.82 380.01,-410.91 496.5,-410.91 496.5,-410.91 496.5,-410.91 907,-410.91 957.32,-410.91 1148.03,-357.41 1191,-327.91 1221.24,-307.15 1245.05,-270.76 1257.64,-248.64"/>
<polygon fill="#63b8ff" stroke="#63b8ff" points="1260.86,-250.04 1262.61,-239.59 1254.73,-246.67 1260.86,-250.04"/>
</a>
</g>
</g>
<!-- Node5 -->
<g id="Node000005" class="node">
<title>Node5</title>
<g id="a_Node000005"><a xlink:href="class_bit_vector.html#a8c3c1f0faa0bbf35638c7217a841cbd8" target="_top" xlink:title=" ">
<polygon fill="white" stroke="#666666" points="357.5,-372.41 248.5,-372.41 248.5,-353.41 357.5,-353.41 357.5,-372.41"/>
<text text-anchor="middle" x="303" y="-360.41" font-family="Helvetica,sans-Serif" font-size="10.00">BitVector::copyBits</text>
</a>
</g>
</g>
<!-- Node4&#45;&gt;Node5 -->
<g id="edge5_Node000004_Node000005" class="edge">
<title>Node4&#45;&gt;Node5</title>
<g id="a_edge5_Node000004_Node000005"><a xlink:title=" ">
<path fill="none" stroke="#63b8ff" d="M195.83,-334.5C214.16,-339.4 236.68,-345.43 256.25,-350.67"/>
<polygon fill="#63b8ff" stroke="#63b8ff" points="255.61,-354.12 266.18,-353.32 257.42,-347.36 255.61,-354.12"/>
</a>
</g>
</g>
<!-- Node7 -->
<g id="Node000007" class="node">
<title>Node7</title>
<g id="a_Node000007"><a xlink:href="class_bit_vector.html#a115789c8a9812eabb52f8843cd4e9965" target="_top" xlink:title="Give the a coord object that represent the size of 1 element inside BitVector::_data.">
<polygon fill="white" stroke="#666666" points="1177.5,-258.41 1046.5,-258.41 1046.5,-239.41 1177.5,-239.41 1177.5,-258.41"/>
<text text-anchor="middle" x="1112" y="-246.41" font-family="Helvetica,sans-Serif" font-size="10.00">BitVector::getCoordUnit</text>
</a>
</g>
</g>
<!-- Node4&#45;&gt;Node7 -->
<g id="edge9_Node000004_Node000007" class="edge">
<title>Node4&#45;&gt;Node7</title>
<g id="a_edge9_Node000004_Node000007"><a xlink:title=" ">
<path fill="none" stroke="#63b8ff" d="M200.05,-321.76C248.73,-317.95 333.38,-311.36 406,-305.91 668.62,-286.21 734.89,-288.52 997,-262.91 1009.61,-261.68 1022.97,-260.2 1035.95,-258.66"/>
<polygon fill="#63b8ff" stroke="#63b8ff" points="1036.74,-262.09 1046.25,-257.43 1035.91,-255.14 1036.74,-262.09"/>
</a>
</g>
</g>
<!-- Node8 -->
<g id="Node000008" class="node">
<title>Node8</title>
<g id="a_Node000008"><a xlink:href="class_bit_vector.html#a93ab8bc2ec39bf299ae28ffcad504b41" target="_top" xlink:title="Give the coords of the first bit of an element.">
<polygon fill="white" stroke="#666666" points="370,-220.41 236,-220.41 236,-201.41 370,-201.41 370,-220.41"/>
<text text-anchor="middle" x="303" y="-208.41" font-family="Helvetica,sans-Serif" font-size="10.00">BitVector::indexElement</text>
</a>
</g>
</g>
<!-- Node4&#45;&gt;Node8 -->
<g id="edge11_Node000004_Node000008" class="edge">
<title>Node4&#45;&gt;Node8</title>
<g id="a_edge11_Node000004_Node000008"><a xlink:title=" ">
<path fill="none" stroke="#63b8ff" d="M165.66,-315.34C176.87,-297.18 203.63,-257.49 236,-234.91 242.05,-230.69 248.93,-227.12 255.9,-224.14"/>
<polygon fill="#63b8ff" stroke="#63b8ff" points="257.37,-227.32 265.4,-220.42 254.82,-220.8 257.37,-227.32"/>
</a>
</g>
</g>
<!-- Node15 -->
<g id="Node000015" class="node">
<title>Node15</title>
<g id="a_Node000015"><a xlink:href="class_bit_vector.html#ab4d98ce4b8d36ed6af1aa46e67810972" target="_top" xlink:title="Give the last coordinates thar can be contained inside BitVector::_data with the current BitVector::_...">
<polygon fill="white" stroke="#666666" points="352,-296.41 254,-296.41 254,-277.41 352,-277.41 352,-296.41"/>
<text text-anchor="middle" x="303" y="-284.41" font-family="Helvetica,sans-Serif" font-size="10.00">BitVector::lastBit</text>
</a>
</g>
</g>
<!-- Node4&#45;&gt;Node15 -->
<g id="edge24_Node000004_Node000015" class="edge">
<title>Node4&#45;&gt;Node15</title>
<g id="a_edge24_Node000004_Node000015"><a xlink:title=" ">
<path fill="none" stroke="#63b8ff" d="M195.83,-315.32C214.16,-310.42 236.68,-304.39 256.25,-299.15"/>
<polygon fill="#63b8ff" stroke="#63b8ff" points="257.42,-302.46 266.18,-296.5 255.61,-295.7 257.42,-302.46"/>
</a>
</g>
</g>
<!-- Node16 -->
<g id="Node000016" class="node">
<title>Node16</title>
<g id="a_Node000016"><a xlink:href="class_bit_vector.html#ab92cdd9780b949d9d762f58e1ee4a0ae" target="_top" xlink:title="Last postion of the vector.">
<polygon fill="white" stroke="#666666" points="753,-258.41 651,-258.41 651,-239.41 753,-239.41 753,-258.41"/>
<text text-anchor="middle" x="702" y="-246.41" font-family="Helvetica,sans-Serif" font-size="10.00">BitVector::lastPos</text>
</a>
</g>
</g>
<!-- Node4&#45;&gt;Node16 -->
<g id="edge25_Node000004_Node000016" class="edge">
<title>Node4&#45;&gt;Node16</title>
<g id="a_edge25_Node000004_Node000016"><a xlink:title=" ">
<path fill="none" stroke="#63b8ff" d="M169.16,-315C182.4,-301.47 208.34,-277.76 236,-267.91 374.15,-218.7 550.15,-229.72 640.88,-240.3"/>
<polygon fill="#63b8ff" stroke="#63b8ff" points="640.64,-243.8 650.99,-241.52 641.48,-236.85 640.64,-243.8"/>
</a>
</g>
</g>
<!-- Node5&#45;&gt;Node2 -->
<g id="edge6_Node000005_Node000002" class="edge">
<title>Node5&#45;&gt;Node2</title>
<g id="a_edge6_Node000005_Node000002"><a xlink:title=" ">
<path fill="none" stroke="#63b8ff" d="M357.61,-365.12C433.88,-368.06 578.1,-372.91 701,-372.91 701,-372.91 701,-372.91 907,-372.91 1044.16,-372.91 1191.31,-282.36 1245.69,-245.37"/>
<polygon fill="#63b8ff" stroke="#63b8ff" points="1247.94,-248.07 1254.18,-239.52 1243.96,-242.31 1247.94,-248.07"/>
</a>
</g>
</g>
<!-- Node6 -->
<g id="Node000006" class="node">
<title>Node6</title>
<g id="a_Node000006"><a xlink:href="class_bit_vector_1_1_coords.html#a393207c752f8f9121aca38c938914154" target="_top" xlink:title="Get Coords::bit .">
<polygon fill="white" stroke="#666666" points="551,-344.91 444,-344.91 444,-314.91 551,-314.91 551,-344.91"/>
<text text-anchor="start" x="452" y="-332.91" font-family="Helvetica,sans-Serif" font-size="10.00">BitVector::Coords::</text>
<text text-anchor="middle" x="497.5" y="-321.91" font-family="Helvetica,sans-Serif" font-size="10.00">getBit</text>
</a>
</g>
</g>
<!-- Node5&#45;&gt;Node6 -->
<g id="edge7_Node000005_Node000006" class="edge">
<title>Node5&#45;&gt;Node6</title>
<g id="a_edge7_Node000005_Node000006"><a xlink:title=" ">
<path fill="none" stroke="#63b8ff" d="M357.62,-353.72C381.28,-349.66 409.25,-344.87 433.87,-340.65"/>
<polygon fill="#63b8ff" stroke="#63b8ff" points="434.57,-344.08 443.83,-338.94 433.38,-337.18 434.57,-344.08"/>
</a>
</g>
</g>
<!-- Node7&#45;&gt;Node2 -->
<g id="edge10_Node000007_Node000002" class="edge">
<title>Node7&#45;&gt;Node2</title>
<g id="a_edge10_Node000007_Node000002"><a xlink:title=" ">
<path fill="none" stroke="#63b8ff" d="M1177.63,-240.96C1190.68,-239.36 1204.22,-237.69 1216.71,-236.16"/>
<polygon fill="#63b8ff" stroke="#63b8ff" points="1217.43,-239.59 1226.93,-234.9 1216.57,-232.65 1217.43,-239.59"/>
</a>
</g>
</g>
<!-- Node8&#45;&gt;Node2 -->
<g id="edge12_Node000008_Node000002" class="edge">
<title>Node8&#45;&gt;Node2</title>
<g id="a_edge12_Node000008_Node000002"><a xlink:title=" ">
<path fill="none" stroke="#63b8ff" d="M370.03,-210.91C448.81,-210.91 584.52,-210.91 701,-210.91 701,-210.91 701,-210.91 907,-210.91 1017.58,-210.91 1146.98,-219.94 1216.73,-225.55"/>
<polygon fill="#63b8ff" stroke="#63b8ff" points="1216.74,-229.06 1226.99,-226.38 1217.31,-222.08 1216.74,-229.06"/>
</a>
</g>
</g>
<!-- Node9 -->
<g id="Node000009" class="node">
<title>Node9</title>
<g id="a_Node000009"><a xlink:href="class_bit_vector.html#a04e6d0b67ee9b42ccec437b0176067fe" target="_top" xlink:title="Give A size_t that represent the coords of the first bit of an element.">
<polygon fill="white" stroke="#666666" points="589,-154.41 406,-154.41 406,-135.41 589,-135.41 589,-154.41"/>
<text text-anchor="middle" x="497.5" y="-142.41" font-family="Helvetica,sans-Serif" font-size="10.00">BitVector::indexElementUntreated</text>
</a>
</g>
</g>
<!-- Node8&#45;&gt;Node9 -->
<g id="edge13_Node000008_Node000009" class="edge">
<title>Node8&#45;&gt;Node9</title>
<g id="a_edge13_Node000008_Node000009"><a xlink:title=" ">
<path fill="none" stroke="#63b8ff" d="M331.99,-201.31C365.59,-189.79 422.05,-170.44 459.29,-157.67"/>
<polygon fill="#63b8ff" stroke="#63b8ff" points="460.46,-160.97 468.79,-154.41 458.19,-154.34 460.46,-160.97"/>
</a>
</g>
</g>
<!-- Node9&#45;&gt;Node2 -->
<g id="edge14_Node000009_Node000002" class="edge">
<title>Node9&#45;&gt;Node2</title>
<g id="a_edge14_Node000009_Node000002"><a xlink:title=" ">
<path fill="none" stroke="#63b8ff" d="M515.61,-135.31C598.28,-90.35 961.62,91.12 1191,-57.91 1243.9,-92.28 1260.52,-172.61 1265.49,-210.05"/>
<polygon fill="#63b8ff" stroke="#63b8ff" points="1262.04,-210.67 1266.69,-220.19 1268.99,-209.85 1262.04,-210.67"/>
</a>
</g>
</g>
<!-- Node10 -->
<g id="Node000010" class="node">
<title>Node10</title>
<g id="a_Node000010"><a xlink:href="class_bit_vector.html#af68cda7444ec4459393bbfa423f0a7dd" target="_top" xlink:title="Get the Size_t value if a BitVector::CoordUnit.">
<polygon fill="white" stroke="#666666" points="957.5,-182.91 854.5,-182.91 854.5,-152.91 957.5,-152.91 957.5,-182.91"/>
<text text-anchor="start" x="862.5" y="-170.91" font-family="Helvetica,sans-Serif" font-size="10.00">BitVector::getSize</text>
<text text-anchor="middle" x="906" y="-159.91" font-family="Helvetica,sans-Serif" font-size="10.00">_tUnit</text>
</a>
</g>
</g>
<!-- Node9&#45;&gt;Node10 -->
<g id="edge15_Node000009_Node000010" class="edge">
<title>Node9&#45;&gt;Node10</title>
<g id="a_edge15_Node000009_Node000010"><a xlink:title=" ">
<path fill="none" stroke="#63b8ff" d="M589.22,-150.04C667.01,-154.44 776.91,-160.66 844.43,-164.48"/>
<polygon fill="#63b8ff" stroke="#63b8ff" points="844.3,-167.98 854.48,-165.05 844.69,-160.99 844.3,-167.98"/>
</a>
</g>
</g>
<!-- Node12 -->
<g id="Node000012" class="node">
<title>Node12</title>
<g id="a_Node000012"><a xlink:href="class_bit_vector.html#ad36e7d0b4b1417ca434414fa40c72eb8" target="_top" xlink:title="How many element can be contained in this object knowing BitVector::_element_size.">
<polygon fill="white" stroke="#666666" points="779,-135.41 625,-135.41 625,-116.41 779,-116.41 779,-135.41"/>
<text text-anchor="middle" x="702" y="-123.41" font-family="Helvetica,sans-Serif" font-size="10.00">BitVector::maxElementLimit</text>
</a>
</g>
</g>
<!-- Node9&#45;&gt;Node12 -->
<g id="edge18_Node000009_Node000012" class="edge">
<title>Node9&#45;&gt;Node12</title>
<g id="a_edge18_Node000009_Node000012"><a xlink:title=" ">
<path fill="none" stroke="#63b8ff" d="M589.09,-136.41C597.55,-135.62 606.11,-134.81 614.53,-134.02"/>
<polygon fill="#63b8ff" stroke="#63b8ff" points="615.09,-137.49 624.72,-133.07 614.43,-130.52 615.09,-137.49"/>
</a>
</g>
</g>
<!-- Node10&#45;&gt;Node7 -->
<g id="edge16_Node000010_Node000007" class="edge">
<title>Node10&#45;&gt;Node7</title>
<g id="a_edge16_Node000010_Node000007"><a xlink:title=" ">
<path fill="none" stroke="#63b8ff" d="M944.89,-182.96C982.91,-198.05 1040.92,-221.09 1077.36,-235.55"/>
<polygon fill="#63b8ff" stroke="#63b8ff" points="1076.45,-238.96 1087.03,-239.39 1079.03,-232.45 1076.45,-238.96"/>
</a>
</g>
</g>
<!-- Node11 -->
<g id="Node000011" class="node">
<title>Node11</title>
<g id="a_Node000011"><a xlink:href="class_bit_vector_1_1_coords.html#a3a4fac9de925974af9c8a66a1d0179e6" target="_top" xlink:title="Translate octet and bit value inside a size_t. Allow easier mathematic computations.">
<polygon fill="white" stroke="#666666" points="1165.5,-182.91 1058.5,-182.91 1058.5,-152.91 1165.5,-152.91 1165.5,-182.91"/>
<text text-anchor="start" x="1066.5" y="-170.91" font-family="Helvetica,sans-Serif" font-size="10.00">BitVector::Coords::</text>
<text text-anchor="middle" x="1112" y="-159.91" font-family="Helvetica,sans-Serif" font-size="10.00">toSize_t</text>
</a>
</g>
</g>
<!-- Node10&#45;&gt;Node11 -->
<g id="edge17_Node000010_Node000011" class="edge">
<title>Node10&#45;&gt;Node11</title>
<g id="a_edge17_Node000010_Node000011"><a xlink:title=" ">
<path fill="none" stroke="#63b8ff" d="M957.69,-167.91C985.13,-167.91 1019.28,-167.91 1048.38,-167.91"/>
<polygon fill="#63b8ff" stroke="#63b8ff" points="1048.44,-171.41 1058.44,-167.91 1048.44,-164.41 1048.44,-171.41"/>
</a>
</g>
</g>
<!-- Node12&#45;&gt;Node10 -->
<g id="edge19_Node000012_Node000010" class="edge">
<title>Node12&#45;&gt;Node10</title>
<g id="a_edge19_Node000012_Node000010"><a xlink:title=" ">
<path fill="none" stroke="#63b8ff" d="M748.84,-135.44C777.07,-141.31 813.61,-148.91 844.24,-155.28"/>
<polygon fill="#63b8ff" stroke="#63b8ff" points="843.88,-158.78 854.38,-157.39 845.3,-151.92 843.88,-158.78"/>
</a>
</g>
</g>
<!-- Node13 -->
<g id="Node000013" class="node">
<title>Node13</title>
<g id="a_Node000013"><a xlink:href="class_bit_vector.html#a68b14af0886039ddcf55c82a250deb4c" target="_top" xlink:title="How many element can be contained in this kind of object.">
<polygon fill="white" stroke="#666666" points="1191,-96.91 1033,-96.91 1033,-66.91 1191,-66.91 1191,-96.91"/>
<text text-anchor="start" x="1041" y="-84.91" font-family="Helvetica,sans-Serif" font-size="10.00">BitVector::maximumElement</text>
<text text-anchor="middle" x="1112" y="-73.91" font-family="Helvetica,sans-Serif" font-size="10.00">Number</text>
</a>
</g>
</g>
<!-- Node12&#45;&gt;Node13 -->
<g id="edge20_Node000012_Node000013" class="edge">
<title>Node12&#45;&gt;Node13</title>
<g id="a_edge20_Node000012_Node000013"><a xlink:title=" ">
<path fill="none" stroke="#63b8ff" d="M750.53,-116.38C770.39,-112.68 793.75,-108.66 815,-105.91 884.6,-96.9 963.88,-90.68 1022.86,-86.84"/>
<polygon fill="#63b8ff" stroke="#63b8ff" points="1023.13,-90.33 1032.88,-86.2 1022.68,-83.34 1023.13,-90.33"/>
</a>
</g>
</g>
<!-- Node14 -->
<g id="Node000014" class="node">
<title>Node14</title>
<g id="a_Node000014"><a xlink:href="class_bit_vector.html#aa3228d2bacb1bb0f6072d73d43a49456" target="_top" xlink:title="How many octet can be contained in this kind of object.">
<polygon fill="white" stroke="#666666" points="997,-134.41 815,-134.41 815,-115.41 997,-115.41 997,-134.41"/>
<text text-anchor="middle" x="906" y="-122.41" font-family="Helvetica,sans-Serif" font-size="10.00">BitVector::maximumOctetNumber</text>
</a>
</g>
</g>
<!-- Node12&#45;&gt;Node14 -->
<g id="edge22_Node000012_Node000014" class="edge">
<title>Node12&#45;&gt;Node14</title>
<g id="a_edge22_Node000012_Node000014"><a xlink:title=" ">
<path fill="none" stroke="#63b8ff" d="M779.08,-125.53C787.44,-125.49 796.04,-125.45 804.64,-125.41"/>
<polygon fill="#63b8ff" stroke="#63b8ff" points="804.73,-128.91 814.71,-125.36 804.7,-121.91 804.73,-128.91"/>
</a>
</g>
</g>
<!-- Node13&#45;&gt;Node2 -->
<g id="edge21_Node000013_Node000002" class="edge">
<title>Node13&#45;&gt;Node2</title>
<g id="a_edge21_Node000013_Node000002"><a xlink:title=" ">
<path fill="none" stroke="#63b8ff" d="M1167.47,-96.96C1175.85,-100.7 1184.02,-105.29 1191,-110.91 1224.8,-138.12 1248.38,-184.44 1259.75,-210.54"/>
<polygon fill="#63b8ff" stroke="#63b8ff" points="1256.65,-212.21 1263.75,-220.08 1263.11,-209.5 1256.65,-212.21"/>
</a>
</g>
</g>
<!-- Node14&#45;&gt;Node2 -->
<g id="edge23_Node000014_Node000002" class="edge">
<title>Node14&#45;&gt;Node2</title>
<g id="a_edge23_Node000014_Node000002"><a xlink:title=" ">
<path fill="none" stroke="#63b8ff" d="M976.43,-115.39C1036.36,-110.38 1123.65,-110.94 1191,-143.91 1221.06,-158.63 1244.53,-190.89 1257.17,-211.45"/>
<polygon fill="#63b8ff" stroke="#63b8ff" points="1254.24,-213.39 1262.34,-220.22 1260.27,-209.83 1254.24,-213.39"/>
</a>
</g>
</g>
<!-- Node16&#45;&gt;Node7 -->
<g id="edge26_Node000016_Node000007" class="edge">
<title>Node16&#45;&gt;Node7</title>
<g id="a_edge26_Node000016_Node000007"><a xlink:title=" ">
<path fill="none" stroke="#63b8ff" d="M753.03,-248.91C823.91,-248.91 954.08,-248.91 1036.39,-248.91"/>
<polygon fill="#63b8ff" stroke="#63b8ff" points="1036.44,-252.41 1046.44,-248.91 1036.44,-245.41 1036.44,-252.41"/>
</a>
</g>
</g>
</g>
</svg>

<g id="navigator" transform="translate(0 0)" fill="#404254">
  <rect fill="#f2f5e9" fill-opacity="0.5" stroke="#606060" stroke-width=".5" x="0" y="0" width="60" height="60"/>
  <use id="zoomplus" xlink:href="#zoomPlus" x="17" y="9" onmousedown="handleZoom(evt,'in')"/>
  <use id="zoomminus" xlink:href="#zoomMin" x="42" y="9" onmousedown="handleZoom(evt,'out')"/>
  <use id="reset" xlink:href="#resetDef" x="30" y="36" onmousedown="handleReset()"/>
   <use id="arrowup" xlink:href="#arrowUp" x="0" y="0" onmousedown="handlePan(0,-1)"/>
  <use id="arrowright" xlink:href="#arrowRight" x="0" y="0" onmousedown="handlePan(1,0)"/>
  <use id="arrowdown" xlink:href="#arrowDown" x="0" y="0" onmousedown="handlePan(0,1)"/>
  <use id="arrowleft" xlink:href="#arrowLeft" x="0" y="0" onmousedown="handlePan(-1,0)"/>
</g>
<svg viewBox="0 0 15 15" width="100%" height="30px" preserveAspectRatio="xMaxYMin meet">
 <g id="arrow_out" transform="scale(0.3 0.3)">
  <a xlink:href="class_bit_vector_a38e8be69974c874857dd7cb6a52429ac_cgraph_org.svg" target="_base">
   <rect id="button" ry="5" rx="5" y="6" x="6" height="38" width="38"
        fill="#f2f5e9" fill-opacity="0.5" stroke="#606060" stroke-width="1.0"/>
   <path id="arrow"
     d="M 11.500037,31.436501 C 11.940474,20.09759 22.043105,11.32322 32.158766,21.979434 L 37.068811,17.246167 C 37.068811,17.246167 37.088388,32 37.088388,32 L 22.160133,31.978069 C 22.160133,31.978069 26.997745,27.140456 26.997745,27.140456 C 18.528582,18.264221 13.291696,25.230495 11.500037,31.436501 z"
     style="fill:#404040;"/>
  </a>
 </g>
</svg>

<style type='text/css'>
<![CDATA[
[data-mouse-over-selected='false'] { opacity: 0.7; }
[data-mouse-over-selected='true']  { opacity: 1.0; }
]]>
</style>
<script type="application/ecmascript"><![CDATA[
document.addEventListener('DOMContentLoaded', (event) => {
  highlightEdges();
  highlightAdjacentNodes();
});
]]></script>
</svg>
