<?xml version="1.0" encoding="UTF-8" standalone="no"?>
<!DOCTYPE svg PUBLIC "-//W3C//DTD SVG 1.1//EN"
 "http://www.w3.org/Graphics/SVG/1.1/DTD/svg11.dtd">
<!-- Generated by graphviz version 2.43.0 (0)
 -->
<!-- Title: BitVector::Iterator Pages: 1 -->
<svg width="330pt" height="558pt"
 viewBox="0.00 0.00 330.00 558.00" xmlns="http://www.w3.org/2000/svg" xmlns:xlink="http://www.w3.org/1999/xlink">
<g id="graph0" class="graph" transform="scale(1 1) rotate(0) translate(4 554)">
<title>BitVector::Iterator</title>
<!-- Node1 -->
<g id="Node000001" class="node">
<title>Node1</title>
<g id="a_Node000001"><a xlink:title="Special version of a BitVector::Coords. Allow user to iter through a BitVector;.">
<polygon fill="#999999" stroke="transparent" points="210,-199 105,-199 105,0 210,0 210,-199"/>
<text text-anchor="start" x="114.5" y="-186.5" font-family="Helvetica,sans-Serif" font-size="10.00">BitVector::Iterator</text>
<text text-anchor="start" x="112" y="-171.5" font-family="Helvetica,sans-Serif" font-size="10.00">&#45;</text>
<text text-anchor="start" x="122.5" y="-171.5" font-family="Helvetica,sans-Serif" font-size="10.00">_element</text>
<text text-anchor="start" x="109.5" y="-156.5" font-family="Helvetica,sans-Serif" font-size="10.00">+</text>
<text text-anchor="start" x="122.5" y="-156.5" font-family="Helvetica,sans-Serif" font-size="10.00">Iterator()</text>
<text text-anchor="start" x="109.5" y="-141.5" font-family="Helvetica,sans-Serif" font-size="10.00">+</text>
<text text-anchor="start" x="122.5" y="-141.5" font-family="Helvetica,sans-Serif" font-size="10.00">Iterator()</text>
<text text-anchor="start" x="109.5" y="-126.5" font-family="Helvetica,sans-Serif" font-size="10.00">+</text>
<text text-anchor="start" x="122.5" y="-126.5" font-family="Helvetica,sans-Serif" font-size="10.00">Iterator()</text>
<text text-anchor="start" x="109.5" y="-111.5" font-family="Helvetica,sans-Serif" font-size="10.00">+</text>
<text text-anchor="start" x="122.5" y="-111.5" font-family="Helvetica,sans-Serif" font-size="10.00">Iterator()</text>
<text text-anchor="start" x="109.5" y="-96.5" font-family="Helvetica,sans-Serif" font-size="10.00">+</text>
<text text-anchor="start" x="122.5" y="-96.5" font-family="Helvetica,sans-Serif" font-size="10.00">~Iterator()</text>
<text text-anchor="start" x="109.5" y="-81.5" font-family="Helvetica,sans-Serif" font-size="10.00">+</text>
<text text-anchor="start" x="122.5" y="-81.5" font-family="Helvetica,sans-Serif" font-size="10.00">loadValue()</text>
<text text-anchor="start" x="109.5" y="-66.5" font-family="Helvetica,sans-Serif" font-size="10.00">+</text>
<text text-anchor="start" x="122.5" y="-66.5" font-family="Helvetica,sans-Serif" font-size="10.00">increment()</text>
<text text-anchor="start" x="109.5" y="-51.5" font-family="Helvetica,sans-Serif" font-size="10.00">+</text>
<text text-anchor="start" x="122.5" y="-51.5" font-family="Helvetica,sans-Serif" font-size="10.00">decrement()</text>
<text text-anchor="start" x="109.5" y="-36.5" font-family="Helvetica,sans-Serif" font-size="10.00">+</text>
<text text-anchor="start" x="122.5" y="-36.5" font-family="Helvetica,sans-Serif" font-size="10.00">operator bool()</text>
<text text-anchor="start" x="109.5" y="-21.5" font-family="Helvetica,sans-Serif" font-size="10.00">+</text>
<text text-anchor="start" x="122.5" y="-21.5" font-family="Helvetica,sans-Serif" font-size="10.00">operator*()</text>
<text text-anchor="start" x="112" y="-6.5" font-family="Helvetica,sans-Serif" font-size="10.00">&#45;</text>
<text text-anchor="start" x="122.5" y="-6.5" font-family="Helvetica,sans-Serif" font-size="10.00">_nullifyElement()</text>
<polygon fill="#666666" stroke="#666666" points="105.5,-181.5 105.5,-181.5 210.5,-181.5 210.5,-181.5 105.5,-181.5"/>
<polygon fill="#666666" stroke="#666666" points="105.5,-166.5 105.5,-166.5 120.5,-166.5 120.5,-166.5 105.5,-166.5"/>
<polygon fill="#666666" stroke="#666666" points="120.5,-166.5 120.5,-166.5 210.5,-166.5 210.5,-166.5 120.5,-166.5"/>
<polygon fill="none" stroke="#666666" points="105,0 105,-199 210,-199 210,0 105,0"/>
</a>
</g>
</g>
<!-- Node2 -->
<g id="Node000002" class="node">
<title>Node2</title>
<g id="a_Node000002"><a xlink:href="class_bit_vector_1_1_coords.html" target="_top" xlink:title="Class that represent coordinates inside a BitVector. It memorize octet position and bit position n or...">
<polygon fill="white" stroke="transparent" points="145,-520 0,-520 0,-276 145,-276 145,-520"/>
<text text-anchor="start" x="30.5" y="-508" font-family="Helvetica,sans-Serif" font-size="10.00">BitVector::Coords</text>
<text text-anchor="start" x="7" y="-493" font-family="Helvetica,sans-Serif" font-size="10.00">&#45;</text>
<text text-anchor="start" x="17.5" y="-493" font-family="Helvetica,sans-Serif" font-size="10.00">octet</text>
<text text-anchor="start" x="7" y="-478" font-family="Helvetica,sans-Serif" font-size="10.00">&#45;</text>
<text text-anchor="start" x="17.5" y="-478" font-family="Helvetica,sans-Serif" font-size="10.00">bit</text>
<text text-anchor="start" x="4.5" y="-463" font-family="Helvetica,sans-Serif" font-size="10.00">+</text>
<text text-anchor="start" x="17.5" y="-463" font-family="Helvetica,sans-Serif" font-size="10.00">Coords()</text>
<text text-anchor="start" x="4.5" y="-448" font-family="Helvetica,sans-Serif" font-size="10.00">+</text>
<text text-anchor="start" x="17.5" y="-448" font-family="Helvetica,sans-Serif" font-size="10.00">Coords()</text>
<text text-anchor="start" x="4.5" y="-433" font-family="Helvetica,sans-Serif" font-size="10.00">+</text>
<text text-anchor="start" x="17.5" y="-433" font-family="Helvetica,sans-Serif" font-size="10.00">Coords()</text>
<text text-anchor="start" x="4.5" y="-418" font-family="Helvetica,sans-Serif" font-size="10.00">+</text>
<text text-anchor="start" x="17.5" y="-418" font-family="Helvetica,sans-Serif" font-size="10.00">Coords()</text>
<text text-anchor="start" x="4.5" y="-403" font-family="Helvetica,sans-Serif" font-size="10.00">+</text>
<text text-anchor="start" x="17.5" y="-403" font-family="Helvetica,sans-Serif" font-size="10.00">toSize_t()</text>
<text text-anchor="start" x="4.5" y="-388" font-family="Helvetica,sans-Serif" font-size="10.00">+</text>
<text text-anchor="start" x="17.5" y="-388" font-family="Helvetica,sans-Serif" font-size="10.00">toString()</text>
<text text-anchor="start" x="4.5" y="-373" font-family="Helvetica,sans-Serif" font-size="10.00">+</text>
<text text-anchor="start" x="17.5" y="-373" font-family="Helvetica,sans-Serif" font-size="10.00">operator std::string()</text>
<text text-anchor="start" x="4.5" y="-358" font-family="Helvetica,sans-Serif" font-size="10.00">+</text>
<text text-anchor="start" x="17.5" y="-358" font-family="Helvetica,sans-Serif" font-size="10.00">getBit()</text>
<text text-anchor="start" x="4.5" y="-343" font-family="Helvetica,sans-Serif" font-size="10.00">+</text>
<text text-anchor="start" x="17.5" y="-343" font-family="Helvetica,sans-Serif" font-size="10.00">getOctet()</text>
<text text-anchor="start" x="4.5" y="-328" font-family="Helvetica,sans-Serif" font-size="10.00">+</text>
<text text-anchor="start" x="17.5" y="-328" font-family="Helvetica,sans-Serif" font-size="10.00">setOctet()</text>
<text text-anchor="start" x="17.5" y="-313" font-family="Helvetica,sans-Serif" font-size="10.00">and 26 more...</text>
<text text-anchor="start" x="4.5" y="-298" font-family="Helvetica,sans-Serif" font-size="10.00">+</text>
<text text-anchor="start" x="17.5" y="-298" font-family="Helvetica,sans-Serif" font-size="10.00">maximumOctetNumber()</text>
<text text-anchor="start" x="4.5" y="-283" font-family="Helvetica,sans-Serif" font-size="10.00">+</text>
<text text-anchor="start" x="17.5" y="-283" font-family="Helvetica,sans-Serif" font-size="10.00">maximumSize_t()</text>
<polygon fill="#666666" stroke="#666666" points="0.5,-503 0.5,-503 145.5,-503 145.5,-503 0.5,-503"/>
<polygon fill="#666666" stroke="#666666" points="0.5,-473 0.5,-473 15.5,-473 15.5,-473 0.5,-473"/>
<polygon fill="#666666" stroke="#666666" points="15.5,-473 15.5,-473 145.5,-473 145.5,-473 15.5,-473"/>
<polygon fill="none" stroke="#666666" points="0,-276 0,-520 145,-520 145,-276 0,-276"/>
</a>
</g>
</g>
<!-- Node2&#45;&gt;Node1 -->
<g id="edge1_Node000001_Node000002" class="edge">
<title>Node2&#45;&gt;Node1</title>
<g id="a_edge1_Node000001_Node000002"><a xlink:title=" ">
<path fill="none" stroke="#63b8ff" d="M110.03,-266.08C116.45,-243.7 123.02,-220.78 129.14,-199.41"/>
<polygon fill="none" stroke="#63b8ff" points="106.59,-265.4 107.2,-275.97 113.32,-267.33 106.59,-265.4"/>
</a>
</g>
</g>
<!-- Node3 -->
<g id="Node000003" class="node">
<title>Node3</title>
<g id="a_Node000003"><a xlink:href="class_bit_vector.html" target="_top" xlink:title="Class that allow the storage of a number inside a char *. All element must be converted to a number o...">
<polygon fill="white" stroke="transparent" points="322,-550 163,-550 163,-246 322,-246 322,-550"/>
<text text-anchor="start" x="220.5" y="-538" font-family="Helvetica,sans-Serif" font-size="10.00">BitVector</text>
<text text-anchor="start" x="170" y="-523" font-family="Helvetica,sans-Serif" font-size="10.00">&#45;</text>
<text text-anchor="start" x="180.5" y="-523" font-family="Helvetica,sans-Serif" font-size="10.00">_data</text>
<text text-anchor="start" x="170" y="-508" font-family="Helvetica,sans-Serif" font-size="10.00">&#45;</text>
<text text-anchor="start" x="180.5" y="-508" font-family="Helvetica,sans-Serif" font-size="10.00">_data_size</text>
<text text-anchor="start" x="170" y="-493" font-family="Helvetica,sans-Serif" font-size="10.00">&#45;</text>
<text text-anchor="start" x="180.5" y="-493" font-family="Helvetica,sans-Serif" font-size="10.00">_element_number</text>
<text text-anchor="start" x="170" y="-478" font-family="Helvetica,sans-Serif" font-size="10.00">&#45;</text>
<text text-anchor="start" x="180.5" y="-478" font-family="Helvetica,sans-Serif" font-size="10.00">_element_size</text>
<text text-anchor="start" x="167.5" y="-463" font-family="Helvetica,sans-Serif" font-size="10.00">+</text>
<text text-anchor="start" x="180.5" y="-463" font-family="Helvetica,sans-Serif" font-size="10.00">BitVector()</text>
<text text-anchor="start" x="167.5" y="-448" font-family="Helvetica,sans-Serif" font-size="10.00">+</text>
<text text-anchor="start" x="180.5" y="-448" font-family="Helvetica,sans-Serif" font-size="10.00">BitVector()</text>
<text text-anchor="start" x="167.5" y="-433" font-family="Helvetica,sans-Serif" font-size="10.00">+</text>
<text text-anchor="start" x="180.5" y="-433" font-family="Helvetica,sans-Serif" font-size="10.00">BitVector()</text>
<text text-anchor="start" x="167.5" y="-418" font-family="Helvetica,sans-Serif" font-size="10.00">+</text>
<text text-anchor="start" x="180.5" y="-418" font-family="Helvetica,sans-Serif" font-size="10.00">setElementNumber()</text>
<text text-anchor="start" x="167.5" y="-403" font-family="Helvetica,sans-Serif" font-size="10.00">+</text>
<text text-anchor="start" x="180.5" y="-403" font-family="Helvetica,sans-Serif" font-size="10.00">~BitVector()</text>
<text text-anchor="start" x="167.5" y="-388" font-family="Helvetica,sans-Serif" font-size="10.00">+</text>
<text text-anchor="start" x="180.5" y="-388" font-family="Helvetica,sans-Serif" font-size="10.00">getDataSize()</text>
<text text-anchor="start" x="167.5" y="-373" font-family="Helvetica,sans-Serif" font-size="10.00">+</text>
<text text-anchor="start" x="180.5" y="-373" font-family="Helvetica,sans-Serif" font-size="10.00">getElementNumber()</text>
<text text-anchor="start" x="167.5" y="-358" font-family="Helvetica,sans-Serif" font-size="10.00">+</text>
<text text-anchor="start" x="180.5" y="-358" font-family="Helvetica,sans-Serif" font-size="10.00">getElementSize()</text>
<text text-anchor="start" x="167.5" y="-343" font-family="Helvetica,sans-Serif" font-size="10.00">+</text>
<text text-anchor="start" x="180.5" y="-343" font-family="Helvetica,sans-Serif" font-size="10.00">size()</text>
<text text-anchor="start" x="167.5" y="-328" font-family="Helvetica,sans-Serif" font-size="10.00">+</text>
<text text-anchor="start" x="180.5" y="-328" font-family="Helvetica,sans-Serif" font-size="10.00">currentElementCapacity()</text>
<text text-anchor="start" x="180.5" y="-313" font-family="Helvetica,sans-Serif" font-size="10.00">and 36 more...</text>
<text text-anchor="start" x="167.5" y="-298" font-family="Helvetica,sans-Serif" font-size="10.00">+</text>
<text text-anchor="start" x="180.5" y="-298" font-family="Helvetica,sans-Serif" font-size="10.00">maximumOctetNumber()</text>
<text text-anchor="start" x="167.5" y="-283" font-family="Helvetica,sans-Serif" font-size="10.00">+</text>
<text text-anchor="start" x="180.5" y="-283" font-family="Helvetica,sans-Serif" font-size="10.00">maximumElementNumber()</text>
<text text-anchor="start" x="167.5" y="-268" font-family="Helvetica,sans-Serif" font-size="10.00">+</text>
<text text-anchor="start" x="180.5" y="-268" font-family="Helvetica,sans-Serif" font-size="10.00">copyBits()</text>
<text text-anchor="start" x="167.5" y="-253" font-family="Helvetica,sans-Serif" font-size="10.00">#</text>
<text text-anchor="start" x="180.5" y="-253" font-family="Helvetica,sans-Serif" font-size="10.00">_killInternalData()</text>
<polygon fill="#666666" stroke="#666666" points="163.5,-533 163.5,-533 322.5,-533 322.5,-533 163.5,-533"/>
<polygon fill="#666666" stroke="#666666" points="163.5,-473 163.5,-473 178.5,-473 178.5,-473 163.5,-473"/>
<polygon fill="#666666" stroke="#666666" points="178.5,-473 178.5,-473 322.5,-473 322.5,-473 178.5,-473"/>
<polygon fill="none" stroke="#666666" points="163,-246 163,-550 322,-550 322,-246 163,-246"/>
</a>
</g>
</g>
<!-- Node3&#45;&gt;Node1 -->
<g id="edge2_Node000001_Node000003" class="edge">
<title>Node3&#45;&gt;Node1</title>
<g id="a_edge2_Node000001_Node000003"><a xlink:title=" ">
<path fill="none" stroke="#63b8ff" d="M199.13,-245.71C195.76,-233.95 192.39,-222.21 189.12,-210.8"/>
<polygon fill="none" stroke="#63b8ff" points="189.05,-210.57 183.56,-205.9 185.75,-199.03 191.25,-203.7 189.05,-210.57"/>
</a>
</g>
<text text-anchor="middle" x="214.5" y="-220" font-family="Helvetica,sans-Serif" font-size="10.00" fill="grey"> &#45;_parent</text>
</g>
</g>
</svg>
