<?xml version="1.0" encoding="UTF-8" standalone="no"?>
<!DOCTYPE svg PUBLIC "-//W3C//DTD SVG 1.1//EN"
 "http://www.w3.org/Graphics/SVG/1.1/DTD/svg11.dtd">
<!-- Generated by graphviz version 2.43.0 (0)
 -->
<!-- Title: FastaSequence Pages: 1 -->
<!--zoomable 1049 -->

<svg id="main" version="1.1" xmlns="http://www.w3.org/2000/svg" xmlns:xlink="http://www.w3.org/1999/xlink" xml:space="preserve" onload="init(evt)">
<style type="text/css"><![CDATA[
.node, .edge {opacity: 0.7;}
.node.selected, .edge.selected {opacity: 1;}
.edge:hover path { stroke: red; }
.edge:hover polygon { stroke: red; fill: red; }
]]></style>

<defs>
  <circle id="rim" cx="0" cy="0" r="7"/>
  <circle id="rim2" cx="0" cy="0" r="3.5"/>
  <g id="zoomPlus">
    <use xlink:href="#rim" fill="#404040"><set attributeName="fill" to="#808080" begin="zoomplus.mouseover" end="zoomplus.mouseout"/></use>
    <path d="M-4,0h8M0,-4v8" fill="none" stroke="white" stroke-width="1.5" pointer-events="none"/>
  </g>
  <g id="zoomMin">
    <use xlink:href="#rim" fill="#404040"><set attributeName="fill" to="#808080" begin="zoomminus.mouseover" end="zoomminus.mouseout"/></use>
    <path d="M-4,0h8" fill="none" stroke="white" stroke-width="1.5" pointer-events="none"/>
  </g>
  <g id="arrowUp" transform="translate(30 24)">
    <use xlink:href="#rim"/>
    <path pointer-events="none" fill="none" stroke="white" stroke-width="1.5" d="M0,-3.0v7 M-2.5,-0.5L0,-3.0L2.5,-0.5"/>
  </g>
  <g id="arrowRight" transform="rotate(90) translate(36 -43)">
    <use xlink:href="#rim"/>
    <path pointer-events="none" fill="none" stroke="white" stroke-width="1.5" d="M0,-3.0v7 M-2.5,-0.5L0,-3.0L2.5,-0.5"/>
  </g>
  <g id="arrowDown" transform="rotate(180) translate(-30 -48)">
    <use xlink:href="#rim"/>
    <path pointer-events="none" fill="none" stroke="white" stroke-width="1.5" d="M0,-3.0v7 M-2.5,-0.5L0,-3.0L2.5,-0.5"/>
  </g>
  <g id="arrowLeft" transform="rotate(270) translate(-36 17)">
    <use xlink:href="#rim"/>
    <path pointer-events="none" fill="none" stroke="white" stroke-width="1.5" d="M0,-3.0v7 M-2.5,-0.5L0,-3.0L2.5,-0.5"/>
  </g>
  <g id="resetDef">
    <use xlink:href="#rim2" fill="#404040"><set attributeName="fill" to="#808080" begin="reset.mouseover" end="reset.mouseout"/></use>
  </g>
</defs>
<script type="application/ecmascript">
var viewWidth = 350;
var viewHeight = 1049;
var sectionId = 'dynsection-1';
</script>
<script type="application/ecmascript" xlink:href="svg.min.js"/>
<svg id="graph" class="graph">
<g id="viewport">
<title>FastaSequence</title>
<!-- Node1 -->
<g id="Node000001" class="node">
<title>Node1</title>
<g id="a_Node000001"><a xlink:title="Class that represent Sequence inside a fasta File. Can hold comment.">
<polygon fill="#999999" stroke="transparent" points="136,-184 18,-184 18,0 136,0 136,-184"/>
<text text-anchor="start" x="40.5" y="-172" font-family="Helvetica,sans-Serif" font-size="10.00">FastaSequence</text>
<text text-anchor="start" x="24.5" y="-157" font-family="Helvetica,sans-Serif" font-size="10.00">&#45;</text>
<text text-anchor="start" x="35" y="-157" font-family="Helvetica,sans-Serif" font-size="10.00">comments</text>
<text text-anchor="start" x="22" y="-142" font-family="Helvetica,sans-Serif" font-size="10.00">+</text>
<text text-anchor="start" x="35" y="-142" font-family="Helvetica,sans-Serif" font-size="10.00">getAllComment()</text>
<text text-anchor="start" x="22" y="-127" font-family="Helvetica,sans-Serif" font-size="10.00">+</text>
<text text-anchor="start" x="35" y="-127" font-family="Helvetica,sans-Serif" font-size="10.00">FastaSequence()</text>
<text text-anchor="start" x="22" y="-112" font-family="Helvetica,sans-Serif" font-size="10.00">+</text>
<text text-anchor="start" x="35" y="-112" font-family="Helvetica,sans-Serif" font-size="10.00">insert()</text>
<text text-anchor="start" x="22" y="-97" font-family="Helvetica,sans-Serif" font-size="10.00">+</text>
<text text-anchor="start" x="35" y="-97" font-family="Helvetica,sans-Serif" font-size="10.00">eraseSeq()</text>
<text text-anchor="start" x="22" y="-82" font-family="Helvetica,sans-Serif" font-size="10.00">+</text>
<text text-anchor="start" x="35" y="-82" font-family="Helvetica,sans-Serif" font-size="10.00">addComment()</text>
<text text-anchor="start" x="22" y="-67" font-family="Helvetica,sans-Serif" font-size="10.00">+</text>
<text text-anchor="start" x="35" y="-67" font-family="Helvetica,sans-Serif" font-size="10.00">loadComments()</text>
<text text-anchor="start" x="22" y="-52" font-family="Helvetica,sans-Serif" font-size="10.00">+</text>
<text text-anchor="start" x="35" y="-52" font-family="Helvetica,sans-Serif" font-size="10.00">removeComment()</text>
<text text-anchor="start" x="22" y="-37" font-family="Helvetica,sans-Serif" font-size="10.00">+</text>
<text text-anchor="start" x="35" y="-37" font-family="Helvetica,sans-Serif" font-size="10.00">displaceComment()</text>
<text text-anchor="start" x="22" y="-22" font-family="Helvetica,sans-Serif" font-size="10.00">+</text>
<text text-anchor="start" x="35" y="-22" font-family="Helvetica,sans-Serif" font-size="10.00">isCommentedPos()</text>
<text text-anchor="start" x="22" y="-7" font-family="Helvetica,sans-Serif" font-size="10.00">+</text>
<text text-anchor="start" x="35" y="-7" font-family="Helvetica,sans-Serif" font-size="10.00">getComment()</text>
<polygon fill="#666666" stroke="#666666" points="18,-167 18,-167 136,-167 136,-167 18,-167"/>
<polygon fill="#666666" stroke="#666666" points="18,-152 18,-152 33,-152 33,-152 18,-152"/>
<polygon fill="#666666" stroke="#666666" points="33,-152 33,-152 136,-152 136,-152 33,-152"/>
<polygon fill="none" stroke="#666666" points="18,0 18,-184 136,-184 136,0 18,0"/>
</a>
</g>
</g>
<!-- Node2 -->
<g id="Node000002" class="node">
<title>Node2</title>
<g id="a_Node000002"><a xlink:href="class_fasta_related.html" target="_top" xlink:title="Class inherited by all class related to FastaFiles.">
<polygon fill="white" stroke="transparent" points="130,-532.5 0,-532.5 0,-378.5 130,-378.5 130,-532.5"/>
<text text-anchor="start" x="33" y="-520.5" font-family="Helvetica,sans-Serif" font-size="10.00">FastaRelated</text>
<text text-anchor="start" x="6.5" y="-505.5" font-family="Helvetica,sans-Serif" font-size="10.00">&#45;</text>
<text text-anchor="start" x="17" y="-505.5" font-family="Helvetica,sans-Serif" font-size="10.00">legalMultiHeaderChar</text>
<text text-anchor="start" x="6.5" y="-490.5" font-family="Helvetica,sans-Serif" font-size="10.00">&#45;</text>
<text text-anchor="start" x="17" y="-490.5" font-family="Helvetica,sans-Serif" font-size="10.00">legalMonoHeaderChar</text>
<text text-anchor="start" x="6.5" y="-475.5" font-family="Helvetica,sans-Serif" font-size="10.00">&#45;</text>
<text text-anchor="start" x="17" y="-475.5" font-family="Helvetica,sans-Serif" font-size="10.00">legalCommentChar</text>
<text text-anchor="start" x="6.5" y="-460.5" font-family="Helvetica,sans-Serif" font-size="10.00">&#45;</text>
<text text-anchor="start" x="17" y="-460.5" font-family="Helvetica,sans-Serif" font-size="10.00">blankChar</text>
<text text-anchor="start" x="4" y="-445.5" font-family="Helvetica,sans-Serif" font-size="10.00">+</text>
<text text-anchor="start" x="17" y="-445.5" font-family="Helvetica,sans-Serif" font-size="10.00">isHeaderChar()</text>
<text text-anchor="start" x="4" y="-430.5" font-family="Helvetica,sans-Serif" font-size="10.00">+</text>
<text text-anchor="start" x="17" y="-430.5" font-family="Helvetica,sans-Serif" font-size="10.00">isMonoHeaderChar()</text>
<text text-anchor="start" x="4" y="-415.5" font-family="Helvetica,sans-Serif" font-size="10.00">+</text>
<text text-anchor="start" x="17" y="-415.5" font-family="Helvetica,sans-Serif" font-size="10.00">isMultiHeaderChar()</text>
<text text-anchor="start" x="4" y="-400.5" font-family="Helvetica,sans-Serif" font-size="10.00">+</text>
<text text-anchor="start" x="17" y="-400.5" font-family="Helvetica,sans-Serif" font-size="10.00">isCommentChar()</text>
<text text-anchor="start" x="4" y="-385.5" font-family="Helvetica,sans-Serif" font-size="10.00">+</text>
<text text-anchor="start" x="17" y="-385.5" font-family="Helvetica,sans-Serif" font-size="10.00">isBlankChar()</text>
<polygon fill="#666666" stroke="#666666" points="0,-515.5 0,-515.5 130,-515.5 130,-515.5 0,-515.5"/>
<polygon fill="#666666" stroke="#666666" points="0,-455.5 0,-455.5 15,-455.5 15,-455.5 0,-455.5"/>
<polygon fill="#666666" stroke="#666666" points="15,-455.5 15,-455.5 130,-455.5 130,-455.5 15,-455.5"/>
<polygon fill="none" stroke="#666666" points="0,-378.5 0,-532.5 130,-532.5 130,-378.5 0,-378.5"/>
</a>
</g>
</g>
<!-- Node2&#45;&gt;Node1 -->
<g id="edge1_Node000001_Node000002" class="edge">
<title>Node2&#45;&gt;Node1</title>
<g id="a_edge1_Node000001_Node000002"><a xlink:title=" ">
<path fill="none" stroke="#63b8ff" d="M67.87,-368.11C69.71,-312.6 72.1,-240.58 73.97,-184.15"/>
<polygon fill="none" stroke="#63b8ff" points="64.36,-368.17 67.53,-378.28 71.36,-368.4 64.36,-368.17"/>
</a>
</g>
</g>
<!-- Node3 -->
<g id="Node000003" class="node">
<title>Node3</title>
<g id="a_Node000003"><a xlink:href="class_sequence.html" target="_top" xlink:title=" ">
<polygon fill="white" stroke="transparent" points="295.5,-690 148.5,-690 148.5,-221 295.5,-221 295.5,-690"/>
<text text-anchor="start" x="198.5" y="-677.5" font-family="Helvetica,sans-Serif" font-size="10.00">Sequence</text>
<text text-anchor="start" x="155.5" y="-662.5" font-family="Helvetica,sans-Serif" font-size="10.00">&#45;</text>
<text text-anchor="start" x="166" y="-662.5" font-family="Helvetica,sans-Serif" font-size="10.00">type</text>
<text text-anchor="start" x="155.5" y="-647.5" font-family="Helvetica,sans-Serif" font-size="10.00">&#45;</text>
<text text-anchor="start" x="166" y="-647.5" font-family="Helvetica,sans-Serif" font-size="10.00">_encoding_type</text>
<text text-anchor="start" x="155.5" y="-632.5" font-family="Helvetica,sans-Serif" font-size="10.00">&#45;</text>
<text text-anchor="start" x="166" y="-632.5" font-family="Helvetica,sans-Serif" font-size="10.00">_iupac</text>
<text text-anchor="start" x="155.5" y="-617.5" font-family="Helvetica,sans-Serif" font-size="10.00">&#45;</text>
<text text-anchor="start" x="166" y="-617.5" font-family="Helvetica,sans-Serif" font-size="10.00">legalDNA</text>
<text text-anchor="start" x="155.5" y="-602.5" font-family="Helvetica,sans-Serif" font-size="10.00">&#45;</text>
<text text-anchor="start" x="166" y="-602.5" font-family="Helvetica,sans-Serif" font-size="10.00">legalRNA</text>
<text text-anchor="start" x="155.5" y="-587.5" font-family="Helvetica,sans-Serif" font-size="10.00">&#45;</text>
<text text-anchor="start" x="166" y="-587.5" font-family="Helvetica,sans-Serif" font-size="10.00">legalAmino</text>
<text text-anchor="start" x="155.5" y="-572.5" font-family="Helvetica,sans-Serif" font-size="10.00">&#45;</text>
<text text-anchor="start" x="166" y="-572.5" font-family="Helvetica,sans-Serif" font-size="10.00">validType</text>
<text text-anchor="start" x="153" y="-557.5" font-family="Helvetica,sans-Serif" font-size="10.00">+</text>
<text text-anchor="start" x="166" y="-557.5" font-family="Helvetica,sans-Serif" font-size="10.00">begin()</text>
<text text-anchor="start" x="153" y="-542.5" font-family="Helvetica,sans-Serif" font-size="10.00">+</text>
<text text-anchor="start" x="166" y="-542.5" font-family="Helvetica,sans-Serif" font-size="10.00">end()</text>
<text text-anchor="start" x="153" y="-527.5" font-family="Helvetica,sans-Serif" font-size="10.00">+</text>
<text text-anchor="start" x="166" y="-527.5" font-family="Helvetica,sans-Serif" font-size="10.00">Sequence()</text>
<text text-anchor="start" x="153" y="-512.5" font-family="Helvetica,sans-Serif" font-size="10.00">+</text>
<text text-anchor="start" x="166" y="-512.5" font-family="Helvetica,sans-Serif" font-size="10.00">Sequence()</text>
<text text-anchor="start" x="153" y="-497.5" font-family="Helvetica,sans-Serif" font-size="10.00">+</text>
<text text-anchor="start" x="166" y="-497.5" font-family="Helvetica,sans-Serif" font-size="10.00">Sequence()</text>
<text text-anchor="start" x="153" y="-482.5" font-family="Helvetica,sans-Serif" font-size="10.00">+</text>
<text text-anchor="start" x="166" y="-482.5" font-family="Helvetica,sans-Serif" font-size="10.00">getSeq()</text>
<text text-anchor="start" x="153" y="-467.5" font-family="Helvetica,sans-Serif" font-size="10.00">+</text>
<text text-anchor="start" x="166" y="-467.5" font-family="Helvetica,sans-Serif" font-size="10.00">getType()</text>
<text text-anchor="start" x="153" y="-452.5" font-family="Helvetica,sans-Serif" font-size="10.00">+</text>
<text text-anchor="start" x="166" y="-452.5" font-family="Helvetica,sans-Serif" font-size="10.00">getEncodingType()</text>
<text text-anchor="start" x="153" y="-437.5" font-family="Helvetica,sans-Serif" font-size="10.00">+</text>
<text text-anchor="start" x="166" y="-437.5" font-family="Helvetica,sans-Serif" font-size="10.00">getIupac()</text>
<text text-anchor="start" x="153" y="-422.5" font-family="Helvetica,sans-Serif" font-size="10.00">+</text>
<text text-anchor="start" x="166" y="-422.5" font-family="Helvetica,sans-Serif" font-size="10.00">getTypeArray()</text>
<text text-anchor="start" x="166" y="-407.5" font-family="Helvetica,sans-Serif" font-size="10.00">and 19 more...</text>
<text text-anchor="start" x="153" y="-392.5" font-family="Helvetica,sans-Serif" font-size="10.00">+</text>
<text text-anchor="start" x="166" y="-392.5" font-family="Helvetica,sans-Serif" font-size="10.00">getSequenceSymbol()</text>
<text text-anchor="start" x="153" y="-377.5" font-family="Helvetica,sans-Serif" font-size="10.00">+</text>
<text text-anchor="start" x="166" y="-377.5" font-family="Helvetica,sans-Serif" font-size="10.00">getSymbolDNA()</text>
<text text-anchor="start" x="153" y="-362.5" font-family="Helvetica,sans-Serif" font-size="10.00">+</text>
<text text-anchor="start" x="166" y="-362.5" font-family="Helvetica,sans-Serif" font-size="10.00">isLegalNucleic()</text>
<text text-anchor="start" x="153" y="-347.5" font-family="Helvetica,sans-Serif" font-size="10.00">+</text>
<text text-anchor="start" x="166" y="-347.5" font-family="Helvetica,sans-Serif" font-size="10.00">isLegalAmino()</text>
<text text-anchor="start" x="153" y="-332.5" font-family="Helvetica,sans-Serif" font-size="10.00">+</text>
<text text-anchor="start" x="166" y="-332.5" font-family="Helvetica,sans-Serif" font-size="10.00">isLegalSymbol()</text>
<text text-anchor="start" x="153" y="-317.5" font-family="Helvetica,sans-Serif" font-size="10.00">+</text>
<text text-anchor="start" x="166" y="-317.5" font-family="Helvetica,sans-Serif" font-size="10.00">isDNA()</text>
<text text-anchor="start" x="153" y="-302.5" font-family="Helvetica,sans-Serif" font-size="10.00">+</text>
<text text-anchor="start" x="166" y="-302.5" font-family="Helvetica,sans-Serif" font-size="10.00">isRNA()</text>
<text text-anchor="start" x="153" y="-287.5" font-family="Helvetica,sans-Serif" font-size="10.00">+</text>
<text text-anchor="start" x="166" y="-287.5" font-family="Helvetica,sans-Serif" font-size="10.00">isAmino()</text>
<text text-anchor="start" x="153" y="-272.5" font-family="Helvetica,sans-Serif" font-size="10.00">+</text>
<text text-anchor="start" x="166" y="-272.5" font-family="Helvetica,sans-Serif" font-size="10.00">isNucleic()</text>
<text text-anchor="start" x="153" y="-257.5" font-family="Helvetica,sans-Serif" font-size="10.00">+</text>
<text text-anchor="start" x="166" y="-257.5" font-family="Helvetica,sans-Serif" font-size="10.00">isDnaSpecificNucleotide()</text>
<text text-anchor="start" x="166" y="-242.5" font-family="Helvetica,sans-Serif" font-size="10.00">and 14 more...</text>
<text text-anchor="start" x="153" y="-227.5" font-family="Helvetica,sans-Serif" font-size="10.00">#</text>
<text text-anchor="start" x="166" y="-227.5" font-family="Helvetica,sans-Serif" font-size="10.00">parseChar()</text>
<polygon fill="#bfbfbf" stroke="#bfbfbf" points="149,-672.5 149,-672.5 296,-672.5 296,-672.5 149,-672.5"/>
<polygon fill="#bfbfbf" stroke="#bfbfbf" points="149,-567.5 149,-567.5 164,-567.5 164,-567.5 149,-567.5"/>
<polygon fill="#bfbfbf" stroke="#bfbfbf" points="164,-567.5 164,-567.5 296,-567.5 296,-567.5 164,-567.5"/>
<polygon fill="none" stroke="#bfbfbf" points="148.5,-221 148.5,-690 295.5,-690 295.5,-221 148.5,-221"/>
</a>
</g>
</g>
<!-- Node3&#45;&gt;Node1 -->
<g id="edge2_Node000001_Node000003" class="edge">
<title>Node3&#45;&gt;Node1</title>
<g id="a_edge2_Node000001_Node000003"><a xlink:title=" ">
<path fill="none" stroke="#63b8ff" d="M144.61,-234.59C142.74,-230.01 140.87,-225.48 139,-221 133.95,-208.93 128.33,-196.37 122.6,-184.04"/>
<polygon fill="none" stroke="#63b8ff" points="141.43,-236.09 148.42,-244.06 147.93,-233.47 141.43,-236.09"/>
</a>
</g>
</g>
<!-- Node4 -->
<g id="Node000004" class="node">
<title>Node4</title>
<g id="a_Node000004"><a xlink:href="class_bit_vector.html" target="_top" xlink:title="Class that allow the storage of a number inside a char *. All element must be converted to a number o...">
<polygon fill="white" stroke="transparent" points="229.5,-1041 70.5,-1041 70.5,-737 229.5,-737 229.5,-1041"/>
<text text-anchor="start" x="128" y="-1029" font-family="Helvetica,sans-Serif" font-size="10.00">BitVector</text>
<text text-anchor="start" x="77.5" y="-1014" font-family="Helvetica,sans-Serif" font-size="10.00">&#45;</text>
<text text-anchor="start" x="88" y="-1014" font-family="Helvetica,sans-Serif" font-size="10.00">_data</text>
<text text-anchor="start" x="77.5" y="-999" font-family="Helvetica,sans-Serif" font-size="10.00">&#45;</text>
<text text-anchor="start" x="88" y="-999" font-family="Helvetica,sans-Serif" font-size="10.00">_data_size</text>
<text text-anchor="start" x="77.5" y="-984" font-family="Helvetica,sans-Serif" font-size="10.00">&#45;</text>
<text text-anchor="start" x="88" y="-984" font-family="Helvetica,sans-Serif" font-size="10.00">_element_number</text>
<text text-anchor="start" x="77.5" y="-969" font-family="Helvetica,sans-Serif" font-size="10.00">&#45;</text>
<text text-anchor="start" x="88" y="-969" font-family="Helvetica,sans-Serif" font-size="10.00">_element_size</text>
<text text-anchor="start" x="75" y="-954" font-family="Helvetica,sans-Serif" font-size="10.00">+</text>
<text text-anchor="start" x="88" y="-954" font-family="Helvetica,sans-Serif" font-size="10.00">BitVector()</text>
<text text-anchor="start" x="75" y="-939" font-family="Helvetica,sans-Serif" font-size="10.00">+</text>
<text text-anchor="start" x="88" y="-939" font-family="Helvetica,sans-Serif" font-size="10.00">BitVector()</text>
<text text-anchor="start" x="75" y="-924" font-family="Helvetica,sans-Serif" font-size="10.00">+</text>
<text text-anchor="start" x="88" y="-924" font-family="Helvetica,sans-Serif" font-size="10.00">BitVector()</text>
<text text-anchor="start" x="75" y="-909" font-family="Helvetica,sans-Serif" font-size="10.00">+</text>
<text text-anchor="start" x="88" y="-909" font-family="Helvetica,sans-Serif" font-size="10.00">setElementNumber()</text>
<text text-anchor="start" x="75" y="-894" font-family="Helvetica,sans-Serif" font-size="10.00">+</text>
<text text-anchor="start" x="88" y="-894" font-family="Helvetica,sans-Serif" font-size="10.00">~BitVector()</text>
<text text-anchor="start" x="75" y="-879" font-family="Helvetica,sans-Serif" font-size="10.00">+</text>
<text text-anchor="start" x="88" y="-879" font-family="Helvetica,sans-Serif" font-size="10.00">getDataSize()</text>
<text text-anchor="start" x="75" y="-864" font-family="Helvetica,sans-Serif" font-size="10.00">+</text>
<text text-anchor="start" x="88" y="-864" font-family="Helvetica,sans-Serif" font-size="10.00">getElementNumber()</text>
<text text-anchor="start" x="75" y="-849" font-family="Helvetica,sans-Serif" font-size="10.00">+</text>
<text text-anchor="start" x="88" y="-849" font-family="Helvetica,sans-Serif" font-size="10.00">getElementSize()</text>
<text text-anchor="start" x="75" y="-834" font-family="Helvetica,sans-Serif" font-size="10.00">+</text>
<text text-anchor="start" x="88" y="-834" font-family="Helvetica,sans-Serif" font-size="10.00">size()</text>
<text text-anchor="start" x="75" y="-819" font-family="Helvetica,sans-Serif" font-size="10.00">+</text>
<text text-anchor="start" x="88" y="-819" font-family="Helvetica,sans-Serif" font-size="10.00">currentElementCapacity()</text>
<text text-anchor="start" x="88" y="-804" font-family="Helvetica,sans-Serif" font-size="10.00">and 36 more...</text>
<text text-anchor="start" x="75" y="-789" font-family="Helvetica,sans-Serif" font-size="10.00">+</text>
<text text-anchor="start" x="88" y="-789" font-family="Helvetica,sans-Serif" font-size="10.00">maximumOctetNumber()</text>
<text text-anchor="start" x="75" y="-774" font-family="Helvetica,sans-Serif" font-size="10.00">+</text>
<text text-anchor="start" x="88" y="-774" font-family="Helvetica,sans-Serif" font-size="10.00">maximumElementNumber()</text>
<text text-anchor="start" x="75" y="-759" font-family="Helvetica,sans-Serif" font-size="10.00">+</text>
<text text-anchor="start" x="88" y="-759" font-family="Helvetica,sans-Serif" font-size="10.00">copyBits()</text>
<text text-anchor="start" x="75" y="-744" font-family="Helvetica,sans-Serif" font-size="10.00">#</text>
<text text-anchor="start" x="88" y="-744" font-family="Helvetica,sans-Serif" font-size="10.00">_killInternalData()</text>
<polygon fill="#666666" stroke="#666666" points="71,-1024 71,-1024 230,-1024 230,-1024 71,-1024"/>
<polygon fill="#666666" stroke="#666666" points="71,-964 71,-964 86,-964 86,-964 71,-964"/>
<polygon fill="#666666" stroke="#666666" points="86,-964 86,-964 230,-964 230,-964 86,-964"/>
<polygon fill="none" stroke="#666666" points="70.5,-737 70.5,-1041 229.5,-1041 229.5,-737 70.5,-737"/>
</a>
</g>
</g>
<!-- Node4&#45;&gt;Node3 -->
<g id="edge3_Node000003_Node000004" class="edge">
<title>Node4&#45;&gt;Node3</title>
<g id="a_edge3_Node000003_Node000004"><a xlink:title=" ">
<path fill="none" stroke="#63b8ff" d="M175.23,-736.78C177.11,-725.51 179.04,-713.98 180.98,-702.34"/>
<polygon fill="none" stroke="#63b8ff" points="181.04,-702 178.08,-695.42 183.01,-690.16 185.97,-696.74 181.04,-702"/>
</a>
</g>
<text text-anchor="middle" x="192.5" y="-711" font-family="Helvetica,sans-Serif" font-size="10.00" fill="grey"> &#45;seq</text>
</g>
<!-- Node5 -->
<g id="Node000005" class="node">
<title>Node5</title>
<g id="a_Node000005"><a xlink:href="class_header.html" target="_top" xlink:title="Represent the header of a Fasta / FastQ file.">
<polygon fill="white" stroke="transparent" points="342,-943.5 248,-943.5 248,-834.5 342,-834.5 342,-943.5"/>
<text text-anchor="start" x="277" y="-931" font-family="Helvetica,sans-Serif" font-size="10.00">Header</text>
<text text-anchor="start" x="254.5" y="-916" font-family="Helvetica,sans-Serif" font-size="10.00">&#45;</text>
<text text-anchor="start" x="265" y="-916" font-family="Helvetica,sans-Serif" font-size="10.00">_comment</text>
<text text-anchor="start" x="254.5" y="-901" font-family="Helvetica,sans-Serif" font-size="10.00">&#45;</text>
<text text-anchor="start" x="265" y="-901" font-family="Helvetica,sans-Serif" font-size="10.00">_accession</text>
<text text-anchor="start" x="252" y="-886" font-family="Helvetica,sans-Serif" font-size="10.00">+</text>
<text text-anchor="start" x="265" y="-886" font-family="Helvetica,sans-Serif" font-size="10.00">getComment()</text>
<text text-anchor="start" x="252" y="-871" font-family="Helvetica,sans-Serif" font-size="10.00">+</text>
<text text-anchor="start" x="265" y="-871" font-family="Helvetica,sans-Serif" font-size="10.00">setComment()</text>
<text text-anchor="start" x="252" y="-856" font-family="Helvetica,sans-Serif" font-size="10.00">+</text>
<text text-anchor="start" x="265" y="-856" font-family="Helvetica,sans-Serif" font-size="10.00">getAccession()</text>
<text text-anchor="start" x="252" y="-841" font-family="Helvetica,sans-Serif" font-size="10.00">+</text>
<text text-anchor="start" x="265" y="-841" font-family="Helvetica,sans-Serif" font-size="10.00">setAccession()</text>
<polygon fill="#666666" stroke="#666666" points="248,-926 248,-926 342,-926 342,-926 248,-926"/>
<polygon fill="#666666" stroke="#666666" points="248,-896 248,-896 263,-896 263,-896 248,-896"/>
<polygon fill="#666666" stroke="#666666" points="263,-896 263,-896 342,-896 342,-896 263,-896"/>
<polygon fill="none" stroke="#666666" points="248,-834.5 248,-943.5 342,-943.5 342,-834.5 248,-834.5"/>
</a>
</g>
</g>
<!-- Node5&#45;&gt;Node3 -->
<g id="edge4_Node000003_Node000005" class="edge">
<title>Node5&#45;&gt;Node3</title>
<g id="a_edge4_Node000003_Node000005"><a xlink:title=" ">
<path fill="none" stroke="#63b8ff" d="M285.9,-834.22C280.06,-799.71 272.02,-752.17 263.61,-702.45"/>
<polygon fill="none" stroke="#63b8ff" points="263.58,-702.29 258.64,-697.04 261.58,-690.45 266.52,-695.7 263.58,-702.29"/>
</a>
</g>
<text text-anchor="middle" x="288" y="-711" font-family="Helvetica,sans-Serif" font-size="10.00" fill="grey"> &#45;_header</text>
</g>
</g>
</svg>

<g id="navigator" transform="translate(0 0)" fill="#404254">
  <rect fill="#f2f5e9" fill-opacity="0.5" stroke="#606060" stroke-width=".5" x="0" y="0" width="60" height="60"/>
  <use id="zoomplus" xlink:href="#zoomPlus" x="17" y="9" onmousedown="handleZoom(evt,'in')"/>
  <use id="zoomminus" xlink:href="#zoomMin" x="42" y="9" onmousedown="handleZoom(evt,'out')"/>
  <use id="reset" xlink:href="#resetDef" x="30" y="36" onmousedown="handleReset()"/>
   <use id="arrowup" xlink:href="#arrowUp" x="0" y="0" onmousedown="handlePan(0,-1)"/>
  <use id="arrowright" xlink:href="#arrowRight" x="0" y="0" onmousedown="handlePan(1,0)"/>
  <use id="arrowdown" xlink:href="#arrowDown" x="0" y="0" onmousedown="handlePan(0,1)"/>
  <use id="arrowleft" xlink:href="#arrowLeft" x="0" y="0" onmousedown="handlePan(-1,0)"/>
</g>
<svg viewBox="0 0 15 15" width="100%" height="30px" preserveAspectRatio="xMaxYMin meet">
 <g id="arrow_out" transform="scale(0.3 0.3)">
  <a xlink:href="class_fasta_sequence__coll__graph_org.svg" target="_base">
   <rect id="button" ry="5" rx="5" y="6" x="6" height="38" width="38"
        fill="#f2f5e9" fill-opacity="0.5" stroke="#606060" stroke-width="1.0"/>
   <path id="arrow"
     d="M 11.500037,31.436501 C 11.940474,20.09759 22.043105,11.32322 32.158766,21.979434 L 37.068811,17.246167 C 37.068811,17.246167 37.088388,32 37.088388,32 L 22.160133,31.978069 C 22.160133,31.978069 26.997745,27.140456 26.997745,27.140456 C 18.528582,18.264221 13.291696,25.230495 11.500037,31.436501 z"
     style="fill:#404040;"/>
  </a>
 </g>
</svg>

<style type='text/css'>
<![CDATA[
[data-mouse-over-selected='false'] { opacity: 0.7; }
[data-mouse-over-selected='true']  { opacity: 1.0; }
]]>
</style>
<script type="application/ecmascript"><![CDATA[
document.addEventListener('DOMContentLoaded', (event) => {
  highlightEdges();
  highlightAdjacentNodes();
});
]]></script>
</svg>
