<?xml version="1.0" encoding="UTF-8" standalone="no"?>
<!DOCTYPE svg PUBLIC "-//W3C//DTD SVG 1.1//EN"
 "http://www.w3.org/Graphics/SVG/1.1/DTD/svg11.dtd">
<!-- Generated by graphviz version 2.43.0 (0)
 -->
<!-- Title: BitVector::indexCoordinate Pages: 1 -->
<svg width="906pt" height="135pt"
 viewBox="0.00 0.00 906.00 134.50" xmlns="http://www.w3.org/2000/svg" xmlns:xlink="http://www.w3.org/1999/xlink">
<g id="graph0" class="graph" transform="scale(1 1) rotate(0) translate(4 130.5)">
<title>BitVector::indexCoordinate</title>
<!-- Node1 -->
<g id="Node000001" class="node">
<title>Node1</title>
<g id="a_Node000001"><a xlink:title="Find the element that correspond to coord .">
<polygon fill="#999999" stroke="#666666" points="147,-105.5 0,-105.5 0,-86.5 147,-86.5 147,-105.5"/>
<text text-anchor="middle" x="73.5" y="-93.5" font-family="Helvetica,sans-Serif" font-size="10.00">BitVector::indexCoordinate</text>
</a>
</g>
</g>
<!-- Node2 -->
<g id="Node000002" class="node">
<title>Node2</title>
<g id="a_Node000002"><a xlink:href="class_bit_vector.html#aebe159444eb9d619959b7325ac5dac2d" target="_top" xlink:title="Return the value of the bit at the position coord.">
<polygon fill="white" stroke="#666666" points="755,-108.5 672,-108.5 672,-89.5 755,-89.5 755,-108.5"/>
<text text-anchor="middle" x="713.5" y="-96.5" font-family="Helvetica,sans-Serif" font-size="10.00">BitVector::get</text>
</a>
</g>
</g>
<!-- Node1&#45;&gt;Node2 -->
<g id="edge1_Node000001_Node000002" class="edge">
<title>Node1&#45;&gt;Node2</title>
<g id="a_edge1_Node000001_Node000002"><a xlink:title=" ">
<path fill="none" stroke="#63b8ff" d="M147.16,-98.1C159.13,-98.42 171.41,-98.73 183,-99 384.3,-103.66 434.8,-112.88 636,-105 644.23,-104.68 652.95,-104.16 661.45,-103.56"/>
<polygon fill="#63b8ff" stroke="#63b8ff" points="661.93,-107.04 671.64,-102.8 661.41,-100.06 661.93,-107.04"/>
</a>
</g>
</g>
<!-- Node4 -->
<g id="Node000004" class="node">
<title>Node4</title>
<g id="a_Node000004"><a xlink:href="class_bit_vector.html#a354c83853bc3622efa5d45efcae97286" target="_top" xlink:title="Give more detailed on BiteVector::indexCoordinate.">
<polygon fill="white" stroke="#666666" points="330,-90 183,-90 183,-60 330,-60 330,-90"/>
<text text-anchor="start" x="191" y="-78" font-family="Helvetica,sans-Serif" font-size="10.00">BitVector::indexCoordinate</text>
<text text-anchor="middle" x="256.5" y="-67" font-family="Helvetica,sans-Serif" font-size="10.00">Untreated</text>
</a>
</g>
</g>
<!-- Node1&#45;&gt;Node4 -->
<g id="edge4_Node000001_Node000004" class="edge">
<title>Node1&#45;&gt;Node4</title>
<g id="a_edge4_Node000001_Node000004"><a xlink:title=" ">
<path fill="none" stroke="#63b8ff" d="M147.08,-87.58C155.56,-86.6 164.26,-85.59 172.87,-84.59"/>
<polygon fill="#63b8ff" stroke="#63b8ff" points="173.38,-88.05 182.91,-83.42 172.57,-81.1 173.38,-88.05"/>
</a>
</g>
</g>
<!-- Node2&#45;&gt;Node2 -->
<g id="edge2_Node000002_Node000002" class="edge">
<title>Node2&#45;&gt;Node2</title>
<g id="a_edge2_Node000002_Node000002"><a xlink:title=" ">
<path fill="none" stroke="#63b8ff" d="M693.46,-108.58C683.72,-117.23 690.39,-126.5 713.5,-126.5 728.3,-126.5 736.36,-122.7 737.68,-117.69"/>
<polygon fill="#63b8ff" stroke="#63b8ff" points="740.86,-116.23 733.54,-108.58 734.49,-119.13 740.86,-116.23"/>
</a>
</g>
</g>
<!-- Node3 -->
<g id="Node000003" class="node">
<title>Node3</title>
<g id="a_Node000003"><a xlink:href="class_bit_vector_1_1_coords.html#a2892f7f46c4af93f9733e312229d8ec1" target="_top" xlink:title="Get Coords::octet .">
<polygon fill="white" stroke="#666666" points="898,-114 791,-114 791,-84 898,-84 898,-114"/>
<text text-anchor="start" x="799" y="-102" font-family="Helvetica,sans-Serif" font-size="10.00">BitVector::Coords::</text>
<text text-anchor="middle" x="844.5" y="-91" font-family="Helvetica,sans-Serif" font-size="10.00">getOctet</text>
</a>
</g>
</g>
<!-- Node2&#45;&gt;Node3 -->
<g id="edge3_Node000002_Node000003" class="edge">
<title>Node2&#45;&gt;Node3</title>
<g id="a_edge3_Node000002_Node000003"><a xlink:title=" ">
<path fill="none" stroke="#63b8ff" d="M755.32,-99C763.38,-99 772.02,-99 780.62,-99"/>
<polygon fill="#63b8ff" stroke="#63b8ff" points="780.66,-102.5 790.66,-99 780.66,-95.5 780.66,-102.5"/>
</a>
</g>
</g>
<!-- Node4&#45;&gt;Node2 -->
<g id="edge5_Node000004_Node000002" class="edge">
<title>Node4&#45;&gt;Node2</title>
<g id="a_edge5_Node000004_Node000002"><a xlink:title=" ">
<path fill="none" stroke="#63b8ff" d="M330.1,-78.83C422.66,-83.71 580.38,-92.03 661.3,-96.3"/>
<polygon fill="#63b8ff" stroke="#63b8ff" points="661.55,-99.82 671.72,-96.85 661.92,-92.83 661.55,-99.82"/>
</a>
</g>
</g>
<!-- Node5 -->
<g id="Node000005" class="node">
<title>Node5</title>
<g id="a_Node000005"><a xlink:href="class_bit_vector.html#af68cda7444ec4459393bbfa423f0a7dd" target="_top" xlink:title="Get the Size_t value if a BitVector::CoordUnit.">
<polygon fill="white" stroke="#666666" points="469,-71 366,-71 366,-41 469,-41 469,-71"/>
<text text-anchor="start" x="374" y="-59" font-family="Helvetica,sans-Serif" font-size="10.00">BitVector::getSize</text>
<text text-anchor="middle" x="417.5" y="-48" font-family="Helvetica,sans-Serif" font-size="10.00">_tUnit</text>
</a>
</g>
</g>
<!-- Node4&#45;&gt;Node5 -->
<g id="edge6_Node000004_Node000005" class="edge">
<title>Node4&#45;&gt;Node5</title>
<g id="a_edge6_Node000004_Node000005"><a xlink:title=" ">
<path fill="none" stroke="#63b8ff" d="M330.02,-66.33C338.64,-65.3 347.37,-64.26 355.8,-63.25"/>
<polygon fill="#63b8ff" stroke="#63b8ff" points="356.39,-66.71 365.9,-62.05 355.56,-59.76 356.39,-66.71"/>
</a>
</g>
</g>
<!-- Node7 -->
<g id="Node000007" class="node">
<title>Node7</title>
<g id="a_Node000007"><a xlink:href="class_bit_vector_1_1_coords.html#a3a4fac9de925974af9c8a66a1d0179e6" target="_top" xlink:title="Translate octet and bit value inside a size_t. Allow easier mathematic computations.">
<polygon fill="white" stroke="#666666" points="624,-30 517,-30 517,0 624,0 624,-30"/>
<text text-anchor="start" x="525" y="-18" font-family="Helvetica,sans-Serif" font-size="10.00">BitVector::Coords::</text>
<text text-anchor="middle" x="570.5" y="-7" font-family="Helvetica,sans-Serif" font-size="10.00">toSize_t</text>
</a>
</g>
</g>
<!-- Node4&#45;&gt;Node7 -->
<g id="edge10_Node000004_Node000007" class="edge">
<title>Node4&#45;&gt;Node7</title>
<g id="a_edge10_Node000004_Node000007"><a xlink:title=" ">
<path fill="none" stroke="#63b8ff" d="M288.52,-59.87C309.8,-50.21 338.97,-38.34 366,-32 412.46,-21.11 466.32,-16.97 506.95,-15.49"/>
<polygon fill="#63b8ff" stroke="#63b8ff" points="507.1,-18.99 516.98,-15.17 506.88,-11.99 507.1,-18.99"/>
</a>
</g>
</g>
<!-- Node6 -->
<g id="Node000006" class="node">
<title>Node6</title>
<g id="a_Node000006"><a xlink:href="class_bit_vector.html#a115789c8a9812eabb52f8843cd4e9965" target="_top" xlink:title="Give the a coord object that represent the size of 1 element inside BitVector::_data.">
<polygon fill="white" stroke="#666666" points="636,-69.5 505,-69.5 505,-50.5 636,-50.5 636,-69.5"/>
<text text-anchor="middle" x="570.5" y="-57.5" font-family="Helvetica,sans-Serif" font-size="10.00">BitVector::getCoordUnit</text>
</a>
</g>
</g>
<!-- Node5&#45;&gt;Node6 -->
<g id="edge7_Node000005_Node000006" class="edge">
<title>Node5&#45;&gt;Node6</title>
<g id="a_edge7_Node000005_Node000006"><a xlink:title=" ">
<path fill="none" stroke="#63b8ff" d="M469.2,-57.34C477.45,-57.56 486.15,-57.79 494.83,-58.02"/>
<polygon fill="#63b8ff" stroke="#63b8ff" points="494.9,-61.52 504.99,-58.29 495.08,-54.53 494.9,-61.52"/>
</a>
</g>
</g>
<!-- Node5&#45;&gt;Node7 -->
<g id="edge9_Node000005_Node000007" class="edge">
<title>Node5&#45;&gt;Node7</title>
<g id="a_edge9_Node000005_Node000007"><a xlink:title=" ">
<path fill="none" stroke="#63b8ff" d="M469.2,-42.23C481.3,-38.95 494.36,-35.4 506.93,-31.99"/>
<polygon fill="#63b8ff" stroke="#63b8ff" points="508.14,-35.29 516.87,-29.29 506.3,-28.53 508.14,-35.29"/>
</a>
</g>
</g>
<!-- Node6&#45;&gt;Node2 -->
<g id="edge8_Node000006_Node000002" class="edge">
<title>Node6&#45;&gt;Node2</title>
<g id="a_edge8_Node000006_Node000002"><a xlink:title=" ">
<path fill="none" stroke="#63b8ff" d="M605.99,-69.54C624.68,-74.71 647.99,-81.16 668.03,-86.7"/>
<polygon fill="#63b8ff" stroke="#63b8ff" points="667.3,-90.13 677.87,-89.42 669.17,-83.38 667.3,-90.13"/>
</a>
</g>
</g>
</g>
</svg>
