<?xml version="1.0" encoding="UTF-8" standalone="no"?>
<!DOCTYPE svg PUBLIC "-//W3C//DTD SVG 1.1//EN"
 "http://www.w3.org/Graphics/SVG/1.1/DTD/svg11.dtd">
<!-- Generated by graphviz version 2.43.0 (0)
 -->
<!-- Title: BitVector::Iterator Pages: 1 -->
<svg width="153pt" height="502pt"
 viewBox="0.00 0.00 153.00 502.00" xmlns="http://www.w3.org/2000/svg" xmlns:xlink="http://www.w3.org/1999/xlink">
<g id="graph0" class="graph" transform="scale(1 1) rotate(0) translate(4 498)">
<title>BitVector::Iterator</title>
<!-- Node1 -->
<g id="Node000001" class="node">
<title>Node1</title>
<g id="a_Node000001"><a xlink:title="Special version of a BitVector::Coords. Allow user to iter through a BitVector;.">
<polygon fill="#999999" stroke="transparent" points="125,-214 20,-214 20,0 125,0 125,-214"/>
<text text-anchor="start" x="29.5" y="-202" font-family="Helvetica,sans-Serif" font-size="10.00">BitVector::Iterator</text>
<text text-anchor="start" x="27" y="-187" font-family="Helvetica,sans-Serif" font-size="10.00">&#45;</text>
<text text-anchor="start" x="37.5" y="-187" font-family="Helvetica,sans-Serif" font-size="10.00">_parent</text>
<text text-anchor="start" x="27" y="-172" font-family="Helvetica,sans-Serif" font-size="10.00">&#45;</text>
<text text-anchor="start" x="37.5" y="-172" font-family="Helvetica,sans-Serif" font-size="10.00">_element</text>
<text text-anchor="start" x="24.5" y="-157" font-family="Helvetica,sans-Serif" font-size="10.00">+</text>
<text text-anchor="start" x="37.5" y="-157" font-family="Helvetica,sans-Serif" font-size="10.00">Iterator()</text>
<text text-anchor="start" x="24.5" y="-142" font-family="Helvetica,sans-Serif" font-size="10.00">+</text>
<text text-anchor="start" x="37.5" y="-142" font-family="Helvetica,sans-Serif" font-size="10.00">Iterator()</text>
<text text-anchor="start" x="24.5" y="-127" font-family="Helvetica,sans-Serif" font-size="10.00">+</text>
<text text-anchor="start" x="37.5" y="-127" font-family="Helvetica,sans-Serif" font-size="10.00">Iterator()</text>
<text text-anchor="start" x="24.5" y="-112" font-family="Helvetica,sans-Serif" font-size="10.00">+</text>
<text text-anchor="start" x="37.5" y="-112" font-family="Helvetica,sans-Serif" font-size="10.00">Iterator()</text>
<text text-anchor="start" x="24.5" y="-97" font-family="Helvetica,sans-Serif" font-size="10.00">+</text>
<text text-anchor="start" x="37.5" y="-97" font-family="Helvetica,sans-Serif" font-size="10.00">~Iterator()</text>
<text text-anchor="start" x="24.5" y="-82" font-family="Helvetica,sans-Serif" font-size="10.00">+</text>
<text text-anchor="start" x="37.5" y="-82" font-family="Helvetica,sans-Serif" font-size="10.00">loadValue()</text>
<text text-anchor="start" x="24.5" y="-67" font-family="Helvetica,sans-Serif" font-size="10.00">+</text>
<text text-anchor="start" x="37.5" y="-67" font-family="Helvetica,sans-Serif" font-size="10.00">increment()</text>
<text text-anchor="start" x="24.5" y="-52" font-family="Helvetica,sans-Serif" font-size="10.00">+</text>
<text text-anchor="start" x="37.5" y="-52" font-family="Helvetica,sans-Serif" font-size="10.00">decrement()</text>
<text text-anchor="start" x="24.5" y="-37" font-family="Helvetica,sans-Serif" font-size="10.00">+</text>
<text text-anchor="start" x="37.5" y="-37" font-family="Helvetica,sans-Serif" font-size="10.00">operator bool()</text>
<text text-anchor="start" x="24.5" y="-22" font-family="Helvetica,sans-Serif" font-size="10.00">+</text>
<text text-anchor="start" x="37.5" y="-22" font-family="Helvetica,sans-Serif" font-size="10.00">operator*()</text>
<text text-anchor="start" x="27" y="-7" font-family="Helvetica,sans-Serif" font-size="10.00">&#45;</text>
<text text-anchor="start" x="37.5" y="-7" font-family="Helvetica,sans-Serif" font-size="10.00">_nullifyElement()</text>
<polygon fill="#666666" stroke="#666666" points="20.5,-197 20.5,-197 125.5,-197 125.5,-197 20.5,-197"/>
<polygon fill="#666666" stroke="#666666" points="20.5,-167 20.5,-167 35.5,-167 35.5,-167 20.5,-167"/>
<polygon fill="#666666" stroke="#666666" points="35.5,-167 35.5,-167 125.5,-167 125.5,-167 35.5,-167"/>
<polygon fill="none" stroke="#666666" points="20,0 20,-214 125,-214 125,0 20,0"/>
</a>
</g>
</g>
<!-- Node2 -->
<g id="Node000002" class="node">
<title>Node2</title>
<g id="a_Node000002"><a xlink:href="class_bit_vector_1_1_coords.html" target="_top" xlink:title="Class that represent coordinates inside a BitVector. It memorize octet position and bit position n or...">
<polygon fill="white" stroke="transparent" points="145,-494 0,-494 0,-250 145,-250 145,-494"/>
<text text-anchor="start" x="30.5" y="-482" font-family="Helvetica,sans-Serif" font-size="10.00">BitVector::Coords</text>
<text text-anchor="start" x="7" y="-467" font-family="Helvetica,sans-Serif" font-size="10.00">&#45;</text>
<text text-anchor="start" x="17.5" y="-467" font-family="Helvetica,sans-Serif" font-size="10.00">octet</text>
<text text-anchor="start" x="7" y="-452" font-family="Helvetica,sans-Serif" font-size="10.00">&#45;</text>
<text text-anchor="start" x="17.5" y="-452" font-family="Helvetica,sans-Serif" font-size="10.00">bit</text>
<text text-anchor="start" x="4.5" y="-437" font-family="Helvetica,sans-Serif" font-size="10.00">+</text>
<text text-anchor="start" x="17.5" y="-437" font-family="Helvetica,sans-Serif" font-size="10.00">Coords()</text>
<text text-anchor="start" x="4.5" y="-422" font-family="Helvetica,sans-Serif" font-size="10.00">+</text>
<text text-anchor="start" x="17.5" y="-422" font-family="Helvetica,sans-Serif" font-size="10.00">Coords()</text>
<text text-anchor="start" x="4.5" y="-407" font-family="Helvetica,sans-Serif" font-size="10.00">+</text>
<text text-anchor="start" x="17.5" y="-407" font-family="Helvetica,sans-Serif" font-size="10.00">Coords()</text>
<text text-anchor="start" x="4.5" y="-392" font-family="Helvetica,sans-Serif" font-size="10.00">+</text>
<text text-anchor="start" x="17.5" y="-392" font-family="Helvetica,sans-Serif" font-size="10.00">Coords()</text>
<text text-anchor="start" x="4.5" y="-377" font-family="Helvetica,sans-Serif" font-size="10.00">+</text>
<text text-anchor="start" x="17.5" y="-377" font-family="Helvetica,sans-Serif" font-size="10.00">toSize_t()</text>
<text text-anchor="start" x="4.5" y="-362" font-family="Helvetica,sans-Serif" font-size="10.00">+</text>
<text text-anchor="start" x="17.5" y="-362" font-family="Helvetica,sans-Serif" font-size="10.00">toString()</text>
<text text-anchor="start" x="4.5" y="-347" font-family="Helvetica,sans-Serif" font-size="10.00">+</text>
<text text-anchor="start" x="17.5" y="-347" font-family="Helvetica,sans-Serif" font-size="10.00">operator std::string()</text>
<text text-anchor="start" x="4.5" y="-332" font-family="Helvetica,sans-Serif" font-size="10.00">+</text>
<text text-anchor="start" x="17.5" y="-332" font-family="Helvetica,sans-Serif" font-size="10.00">getBit()</text>
<text text-anchor="start" x="4.5" y="-317" font-family="Helvetica,sans-Serif" font-size="10.00">+</text>
<text text-anchor="start" x="17.5" y="-317" font-family="Helvetica,sans-Serif" font-size="10.00">getOctet()</text>
<text text-anchor="start" x="4.5" y="-302" font-family="Helvetica,sans-Serif" font-size="10.00">+</text>
<text text-anchor="start" x="17.5" y="-302" font-family="Helvetica,sans-Serif" font-size="10.00">setOctet()</text>
<text text-anchor="start" x="17.5" y="-287" font-family="Helvetica,sans-Serif" font-size="10.00">and 26 more...</text>
<text text-anchor="start" x="4.5" y="-272" font-family="Helvetica,sans-Serif" font-size="10.00">+</text>
<text text-anchor="start" x="17.5" y="-272" font-family="Helvetica,sans-Serif" font-size="10.00">maximumOctetNumber()</text>
<text text-anchor="start" x="4.5" y="-257" font-family="Helvetica,sans-Serif" font-size="10.00">+</text>
<text text-anchor="start" x="17.5" y="-257" font-family="Helvetica,sans-Serif" font-size="10.00">maximumSize_t()</text>
<polygon fill="#666666" stroke="#666666" points="0.5,-477 0.5,-477 145.5,-477 145.5,-477 0.5,-477"/>
<polygon fill="#666666" stroke="#666666" points="0.5,-447 0.5,-447 15.5,-447 15.5,-447 0.5,-447"/>
<polygon fill="#666666" stroke="#666666" points="15.5,-447 15.5,-447 145.5,-447 145.5,-447 15.5,-447"/>
<polygon fill="none" stroke="#666666" points="0,-250 0,-494 145,-494 145,-250 0,-250"/>
</a>
</g>
</g>
<!-- Node2&#45;&gt;Node1 -->
<g id="edge1_Node000001_Node000002" class="edge">
<title>Node2&#45;&gt;Node1</title>
<g id="a_edge1_Node000001_Node000002"><a xlink:title=" ">
<path fill="none" stroke="#63b8ff" d="M72.5,-239.86C72.5,-231.31 72.5,-222.76 72.5,-214.35"/>
<polygon fill="none" stroke="#63b8ff" points="69,-239.89 72.5,-249.89 76,-239.89 69,-239.89"/>
</a>
</g>
</g>
</g>
</svg>
