<?xml version="1.0" encoding="UTF-8" standalone="no"?>
<!DOCTYPE svg PUBLIC "-//W3C//DTD SVG 1.1//EN"
 "http://www.w3.org/Graphics/SVG/1.1/DTD/svg11.dtd">
<!-- Generated by graphviz version 2.43.0 (0)
 -->
<!-- Title: BitVector::Coords::operator* Pages: 1 -->
<svg width="520pt" height="72pt"
 viewBox="0.00 0.00 520.00 71.50" xmlns="http://www.w3.org/2000/svg" xmlns:xlink="http://www.w3.org/1999/xlink">
<g id="graph0" class="graph" transform="scale(1 1) rotate(0) translate(4 67.5)">
<title>BitVector::Coords::operator*</title>
<!-- Node1 -->
<g id="Node000001" class="node">
<title>Node1</title>
<g id="a_Node000001"><a xlink:title="Multiply this object by an integer.">
<polygon fill="#999999" stroke="#666666" points="107,-51 0,-51 0,-21 107,-21 107,-51"/>
<text text-anchor="start" x="8" y="-39" font-family="Helvetica,sans-Serif" font-size="10.00">BitVector::Coords::</text>
<text text-anchor="middle" x="53.5" y="-28" font-family="Helvetica,sans-Serif" font-size="10.00">operator*</text>
</a>
</g>
</g>
<!-- Node2 -->
<g id="Node000002" class="node">
<title>Node2</title>
<g id="a_Node000002"><a xlink:href="class_bit_vector.html#aebe159444eb9d619959b7325ac5dac2d" target="_top" xlink:title="Return the value of the bit at the position coord.">
<polygon fill="white" stroke="#666666" points="369,-45.5 286,-45.5 286,-26.5 369,-26.5 369,-45.5"/>
<text text-anchor="middle" x="327.5" y="-33.5" font-family="Helvetica,sans-Serif" font-size="10.00">BitVector::get</text>
</a>
</g>
</g>
<!-- Node1&#45;&gt;Node2 -->
<g id="edge1_Node000001_Node000002" class="edge">
<title>Node1&#45;&gt;Node2</title>
<g id="a_edge1_Node000001_Node000002"><a xlink:title=" ">
<path fill="none" stroke="#63b8ff" d="M107.37,-38.09C119.1,-38.47 131.47,-38.8 143,-39 190.55,-39.81 202.45,-39.93 250,-39 258.22,-38.84 266.93,-38.58 275.42,-38.28"/>
<polygon fill="#63b8ff" stroke="#63b8ff" points="275.75,-41.77 285.62,-37.9 275.49,-34.78 275.75,-41.77"/>
</a>
</g>
</g>
<!-- Node4 -->
<g id="Node000004" class="node">
<title>Node4</title>
<g id="a_Node000004"><a xlink:href="class_bit_vector_1_1_coords.html#a20e302b03f7971717dc68ecd352f90b5" target="_top" xlink:title="Set Coords::octet and Coords::bit .">
<polygon fill="white" stroke="#666666" points="250,-30 143,-30 143,0 250,0 250,-30"/>
<text text-anchor="start" x="151" y="-18" font-family="Helvetica,sans-Serif" font-size="10.00">BitVector::Coords::</text>
<text text-anchor="middle" x="196.5" y="-7" font-family="Helvetica,sans-Serif" font-size="10.00">setSize_t</text>
</a>
</g>
</g>
<!-- Node1&#45;&gt;Node4 -->
<g id="edge4_Node000001_Node000004" class="edge">
<title>Node1&#45;&gt;Node4</title>
<g id="a_edge4_Node000001_Node000004"><a xlink:title=" ">
<path fill="none" stroke="#63b8ff" d="M107,-28.18C115.44,-26.92 124.26,-25.61 132.9,-24.32"/>
<polygon fill="#63b8ff" stroke="#63b8ff" points="133.58,-27.76 142.95,-22.83 132.55,-20.84 133.58,-27.76"/>
</a>
</g>
</g>
<!-- Node2&#45;&gt;Node2 -->
<g id="edge2_Node000002_Node000002" class="edge">
<title>Node2&#45;&gt;Node2</title>
<g id="a_edge2_Node000002_Node000002"><a xlink:title=" ">
<path fill="none" stroke="#63b8ff" d="M307.46,-45.58C297.72,-54.23 304.39,-63.5 327.5,-63.5 342.3,-63.5 350.36,-59.7 351.68,-54.69"/>
<polygon fill="#63b8ff" stroke="#63b8ff" points="354.86,-53.23 347.54,-45.58 348.49,-56.13 354.86,-53.23"/>
</a>
</g>
</g>
<!-- Node3 -->
<g id="Node000003" class="node">
<title>Node3</title>
<g id="a_Node000003"><a xlink:href="class_bit_vector_1_1_coords.html#a2892f7f46c4af93f9733e312229d8ec1" target="_top" xlink:title="Get Coords::octet .">
<polygon fill="white" stroke="#666666" points="512,-51 405,-51 405,-21 512,-21 512,-51"/>
<text text-anchor="start" x="413" y="-39" font-family="Helvetica,sans-Serif" font-size="10.00">BitVector::Coords::</text>
<text text-anchor="middle" x="458.5" y="-28" font-family="Helvetica,sans-Serif" font-size="10.00">getOctet</text>
</a>
</g>
</g>
<!-- Node2&#45;&gt;Node3 -->
<g id="edge3_Node000002_Node000003" class="edge">
<title>Node2&#45;&gt;Node3</title>
<g id="a_edge3_Node000002_Node000003"><a xlink:title=" ">
<path fill="none" stroke="#63b8ff" d="M369.32,-36C377.38,-36 386.02,-36 394.62,-36"/>
<polygon fill="#63b8ff" stroke="#63b8ff" points="394.66,-39.5 404.66,-36 394.66,-32.5 394.66,-39.5"/>
</a>
</g>
</g>
<!-- Node4&#45;&gt;Node2 -->
<g id="edge5_Node000004_Node000002" class="edge">
<title>Node4&#45;&gt;Node2</title>
<g id="a_edge5_Node000004_Node000002"><a xlink:title=" ">
<path fill="none" stroke="#63b8ff" d="M250.34,-23.6C258.75,-24.97 267.43,-26.38 275.79,-27.75"/>
<polygon fill="#63b8ff" stroke="#63b8ff" points="275.35,-31.22 285.79,-29.37 276.48,-24.31 275.35,-31.22"/>
</a>
</g>
</g>
</g>
</svg>
