<?xml version="1.0" encoding="UTF-8" standalone="no"?>
<!DOCTYPE svg PUBLIC "-//W3C//DTD SVG 1.1//EN"
 "http://www.w3.org/Graphics/SVG/1.1/DTD/svg11.dtd">
<!-- Generated by graphviz version 2.43.0 (0)
 -->
<!-- Title: FastaHeader Pages: 1 -->
<svg width="250pt" height="509pt"
 viewBox="0.00 0.00 250.00 509.00" xmlns="http://www.w3.org/2000/svg" xmlns:xlink="http://www.w3.org/1999/xlink">
<g id="graph0" class="graph" transform="scale(1 1) rotate(0) translate(4 505)">
<title>FastaHeader</title>
<!-- Node1 -->
<g id="Node000001" class="node">
<title>Node1</title>
<g id="a_Node000001"><a xlink:title="A header function that is supposed to be hubble to parse Header from Fasta file.">
<polygon fill="#999999" stroke="transparent" points="223.5,-311 36.5,-311 36.5,0 223.5,0 223.5,-311"/>
<text text-anchor="start" x="100" y="-298.5" font-family="Helvetica,sans-Serif" font-size="10.00">FastaHeader</text>
<text text-anchor="start" x="43.5" y="-283.5" font-family="Helvetica,sans-Serif" font-size="10.00">&#45;</text>
<text text-anchor="start" x="54" y="-283.5" font-family="Helvetica,sans-Serif" font-size="10.00">identifier_format</text>
<text text-anchor="start" x="43.5" y="-268.5" font-family="Helvetica,sans-Serif" font-size="10.00">&#45;</text>
<text text-anchor="start" x="54" y="-268.5" font-family="Helvetica,sans-Serif" font-size="10.00">identifier</text>
<text text-anchor="start" x="41" y="-253.5" font-family="Helvetica,sans-Serif" font-size="10.00">+</text>
<text text-anchor="start" x="54" y="-253.5" font-family="Helvetica,sans-Serif" font-size="10.00">FastaHeader()</text>
<text text-anchor="start" x="41" y="-238.5" font-family="Helvetica,sans-Serif" font-size="10.00">+</text>
<text text-anchor="start" x="54" y="-238.5" font-family="Helvetica,sans-Serif" font-size="10.00">FastaHeader()</text>
<text text-anchor="start" x="41" y="-223.5" font-family="Helvetica,sans-Serif" font-size="10.00">+</text>
<text text-anchor="start" x="54" y="-223.5" font-family="Helvetica,sans-Serif" font-size="10.00">load()</text>
<text text-anchor="start" x="41" y="-208.5" font-family="Helvetica,sans-Serif" font-size="10.00">+</text>
<text text-anchor="start" x="54" y="-208.5" font-family="Helvetica,sans-Serif" font-size="10.00">getIdentifiers()</text>
<text text-anchor="start" x="41" y="-193.5" font-family="Helvetica,sans-Serif" font-size="10.00">+</text>
<text text-anchor="start" x="54" y="-193.5" font-family="Helvetica,sans-Serif" font-size="10.00">getFormat()</text>
<text text-anchor="start" x="41" y="-178.5" font-family="Helvetica,sans-Serif" font-size="10.00">+</text>
<text text-anchor="start" x="54" y="-178.5" font-family="Helvetica,sans-Serif" font-size="10.00">findFirstWord()</text>
<text text-anchor="start" x="41" y="-163.5" font-family="Helvetica,sans-Serif" font-size="10.00">+</text>
<text text-anchor="start" x="54" y="-163.5" font-family="Helvetica,sans-Serif" font-size="10.00">clearRawHeader()</text>
<text text-anchor="start" x="41" y="-148.5" font-family="Helvetica,sans-Serif" font-size="10.00">+</text>
<text text-anchor="start" x="54" y="-148.5" font-family="Helvetica,sans-Serif" font-size="10.00">cutRawHeader()</text>
<text text-anchor="start" x="41" y="-133.5" font-family="Helvetica,sans-Serif" font-size="10.00">+</text>
<text text-anchor="start" x="54" y="-133.5" font-family="Helvetica,sans-Serif" font-size="10.00">parseRawHeader()</text>
<text text-anchor="start" x="41" y="-118.5" font-family="Helvetica,sans-Serif" font-size="10.00">+</text>
<text text-anchor="start" x="54" y="-118.5" font-family="Helvetica,sans-Serif" font-size="10.00">parseRawHeader()</text>
<text text-anchor="start" x="41" y="-103.5" font-family="Helvetica,sans-Serif" font-size="10.00">+</text>
<text text-anchor="start" x="54" y="-103.5" font-family="Helvetica,sans-Serif" font-size="10.00">intermediateMakeFormatFrom</text>
<text text-anchor="start" x="54" y="-92.5" font-family="Helvetica,sans-Serif" font-size="10.00">Vector()</text>
<text text-anchor="start" x="41" y="-77.5" font-family="Helvetica,sans-Serif" font-size="10.00">+</text>
<text text-anchor="start" x="54" y="-77.5" font-family="Helvetica,sans-Serif" font-size="10.00">makeGenInfoBackboneIdHeader()</text>
<text text-anchor="start" x="41" y="-62.5" font-family="Helvetica,sans-Serif" font-size="10.00">+</text>
<text text-anchor="start" x="54" y="-62.5" font-family="Helvetica,sans-Serif" font-size="10.00">parseGenInfoBackboneIdHeader()</text>
<text text-anchor="start" x="41" y="-47.5" font-family="Helvetica,sans-Serif" font-size="10.00">+</text>
<text text-anchor="start" x="54" y="-47.5" font-family="Helvetica,sans-Serif" font-size="10.00">parseGenInfoBackboneIdHeader()</text>
<text text-anchor="start" x="41" y="-32.5" font-family="Helvetica,sans-Serif" font-size="10.00">+</text>
<text text-anchor="start" x="54" y="-32.5" font-family="Helvetica,sans-Serif" font-size="10.00">makeGenInfoBackboneMoltype</text>
<text text-anchor="start" x="54" y="-21.5" font-family="Helvetica,sans-Serif" font-size="10.00">Header()</text>
<text text-anchor="start" x="54" y="-6.5" font-family="Helvetica,sans-Serif" font-size="10.00">and 59 more...</text>
<polygon fill="#666666" stroke="#666666" points="37,-293.5 37,-293.5 224,-293.5 224,-293.5 37,-293.5"/>
<polygon fill="#666666" stroke="#666666" points="37,-263.5 37,-263.5 52,-263.5 52,-263.5 37,-263.5"/>
<polygon fill="#666666" stroke="#666666" points="52,-263.5 52,-263.5 224,-263.5 224,-263.5 52,-263.5"/>
<polygon fill="none" stroke="#666666" points="36.5,0 36.5,-311 223.5,-311 223.5,0 36.5,0"/>
</a>
</g>
</g>
<!-- Node2 -->
<g id="Node000002" class="node">
<title>Node2</title>
<g id="a_Node000002"><a xlink:href="class_fasta_related.html" target="_top" xlink:title="Class inherited by all class related to FastaFiles.">
<polygon fill="white" stroke="transparent" points="130,-501 0,-501 0,-347 130,-347 130,-501"/>
<text text-anchor="start" x="33" y="-489" font-family="Helvetica,sans-Serif" font-size="10.00">FastaRelated</text>
<text text-anchor="start" x="6.5" y="-474" font-family="Helvetica,sans-Serif" font-size="10.00">&#45;</text>
<text text-anchor="start" x="17" y="-474" font-family="Helvetica,sans-Serif" font-size="10.00">legalMultiHeaderChar</text>
<text text-anchor="start" x="6.5" y="-459" font-family="Helvetica,sans-Serif" font-size="10.00">&#45;</text>
<text text-anchor="start" x="17" y="-459" font-family="Helvetica,sans-Serif" font-size="10.00">legalMonoHeaderChar</text>
<text text-anchor="start" x="6.5" y="-444" font-family="Helvetica,sans-Serif" font-size="10.00">&#45;</text>
<text text-anchor="start" x="17" y="-444" font-family="Helvetica,sans-Serif" font-size="10.00">legalCommentChar</text>
<text text-anchor="start" x="6.5" y="-429" font-family="Helvetica,sans-Serif" font-size="10.00">&#45;</text>
<text text-anchor="start" x="17" y="-429" font-family="Helvetica,sans-Serif" font-size="10.00">blankChar</text>
<text text-anchor="start" x="4" y="-414" font-family="Helvetica,sans-Serif" font-size="10.00">+</text>
<text text-anchor="start" x="17" y="-414" font-family="Helvetica,sans-Serif" font-size="10.00">isHeaderChar()</text>
<text text-anchor="start" x="4" y="-399" font-family="Helvetica,sans-Serif" font-size="10.00">+</text>
<text text-anchor="start" x="17" y="-399" font-family="Helvetica,sans-Serif" font-size="10.00">isMonoHeaderChar()</text>
<text text-anchor="start" x="4" y="-384" font-family="Helvetica,sans-Serif" font-size="10.00">+</text>
<text text-anchor="start" x="17" y="-384" font-family="Helvetica,sans-Serif" font-size="10.00">isMultiHeaderChar()</text>
<text text-anchor="start" x="4" y="-369" font-family="Helvetica,sans-Serif" font-size="10.00">+</text>
<text text-anchor="start" x="17" y="-369" font-family="Helvetica,sans-Serif" font-size="10.00">isCommentChar()</text>
<text text-anchor="start" x="4" y="-354" font-family="Helvetica,sans-Serif" font-size="10.00">+</text>
<text text-anchor="start" x="17" y="-354" font-family="Helvetica,sans-Serif" font-size="10.00">isBlankChar()</text>
<polygon fill="#666666" stroke="#666666" points="0,-484 0,-484 130,-484 130,-484 0,-484"/>
<polygon fill="#666666" stroke="#666666" points="0,-424 0,-424 15,-424 15,-424 0,-424"/>
<polygon fill="#666666" stroke="#666666" points="15,-424 15,-424 130,-424 130,-424 15,-424"/>
<polygon fill="none" stroke="#666666" points="0,-347 0,-501 130,-501 130,-347 0,-347"/>
</a>
</g>
</g>
<!-- Node2&#45;&gt;Node1 -->
<g id="edge1_Node000001_Node000002" class="edge">
<title>Node2&#45;&gt;Node1</title>
<g id="a_edge1_Node000001_Node000002"><a xlink:title=" ">
<path fill="none" stroke="#63b8ff" d="M85.92,-337.23C87.98,-328.79 90.11,-320.06 92.27,-311.21"/>
<polygon fill="none" stroke="#63b8ff" points="82.51,-336.44 83.54,-346.99 89.31,-338.1 82.51,-336.44"/>
</a>
</g>
</g>
<!-- Node3 -->
<g id="Node000003" class="node">
<title>Node3</title>
<g id="a_Node000003"><a xlink:href="class_header.html" target="_top" xlink:title="Represent the header of a Fasta / FastQ file.">
<polygon fill="white" stroke="transparent" points="242,-478.5 148,-478.5 148,-369.5 242,-369.5 242,-478.5"/>
<text text-anchor="start" x="177" y="-466" font-family="Helvetica,sans-Serif" font-size="10.00">Header</text>
<text text-anchor="start" x="154.5" y="-451" font-family="Helvetica,sans-Serif" font-size="10.00">&#45;</text>
<text text-anchor="start" x="165" y="-451" font-family="Helvetica,sans-Serif" font-size="10.00">_comment</text>
<text text-anchor="start" x="154.5" y="-436" font-family="Helvetica,sans-Serif" font-size="10.00">&#45;</text>
<text text-anchor="start" x="165" y="-436" font-family="Helvetica,sans-Serif" font-size="10.00">_accession</text>
<text text-anchor="start" x="152" y="-421" font-family="Helvetica,sans-Serif" font-size="10.00">+</text>
<text text-anchor="start" x="165" y="-421" font-family="Helvetica,sans-Serif" font-size="10.00">getComment()</text>
<text text-anchor="start" x="152" y="-406" font-family="Helvetica,sans-Serif" font-size="10.00">+</text>
<text text-anchor="start" x="165" y="-406" font-family="Helvetica,sans-Serif" font-size="10.00">setComment()</text>
<text text-anchor="start" x="152" y="-391" font-family="Helvetica,sans-Serif" font-size="10.00">+</text>
<text text-anchor="start" x="165" y="-391" font-family="Helvetica,sans-Serif" font-size="10.00">getAccession()</text>
<text text-anchor="start" x="152" y="-376" font-family="Helvetica,sans-Serif" font-size="10.00">+</text>
<text text-anchor="start" x="165" y="-376" font-family="Helvetica,sans-Serif" font-size="10.00">setAccession()</text>
<polygon fill="#666666" stroke="#666666" points="148,-461 148,-461 242,-461 242,-461 148,-461"/>
<polygon fill="#666666" stroke="#666666" points="148,-431 148,-431 163,-431 163,-431 148,-431"/>
<polygon fill="#666666" stroke="#666666" points="163,-431 163,-431 242,-431 242,-431 163,-431"/>
<polygon fill="none" stroke="#666666" points="148,-369.5 148,-478.5 242,-478.5 242,-369.5 148,-369.5"/>
</a>
</g>
</g>
<!-- Node3&#45;&gt;Node1 -->
<g id="edge2_Node000001_Node000003" class="edge">
<title>Node3&#45;&gt;Node1</title>
<g id="a_edge2_Node000001_Node000003"><a xlink:title=" ">
<path fill="none" stroke="#63b8ff" d="M179.48,-359.36C175.85,-344.48 171.82,-327.98 167.69,-311.02"/>
<polygon fill="none" stroke="#63b8ff" points="176.15,-360.5 181.92,-369.39 182.96,-358.85 176.15,-360.5"/>
</a>
</g>
</g>
</g>
</svg>
