<?xml version="1.0" encoding="UTF-8" standalone="no"?>
<!DOCTYPE svg PUBLIC "-//W3C//DTD SVG 1.1//EN"
 "http://www.w3.org/Graphics/SVG/1.1/DTD/svg11.dtd">
<!-- Generated by graphviz version 2.43.0 (0)
 -->
<!-- Title: BitVector::resize Pages: 1 -->
<!--zoomable 409 -->

<svg id="main" version="1.1" xmlns="http://www.w3.org/2000/svg" xmlns:xlink="http://www.w3.org/1999/xlink" xml:space="preserve" onload="init(evt)">
<style type="text/css"><![CDATA[
.node, .edge {opacity: 0.7;}
.node.selected, .edge.selected {opacity: 1;}
.edge:hover path { stroke: red; }
.edge:hover polygon { stroke: red; fill: red; }
]]></style>

<defs>
  <circle id="rim" cx="0" cy="0" r="7"/>
  <circle id="rim2" cx="0" cy="0" r="3.5"/>
  <g id="zoomPlus">
    <use xlink:href="#rim" fill="#404040"><set attributeName="fill" to="#808080" begin="zoomplus.mouseover" end="zoomplus.mouseout"/></use>
    <path d="M-4,0h8M0,-4v8" fill="none" stroke="white" stroke-width="1.5" pointer-events="none"/>
  </g>
  <g id="zoomMin">
    <use xlink:href="#rim" fill="#404040"><set attributeName="fill" to="#808080" begin="zoomminus.mouseover" end="zoomminus.mouseout"/></use>
    <path d="M-4,0h8" fill="none" stroke="white" stroke-width="1.5" pointer-events="none"/>
  </g>
  <g id="arrowUp" transform="translate(30 24)">
    <use xlink:href="#rim"/>
    <path pointer-events="none" fill="none" stroke="white" stroke-width="1.5" d="M0,-3.0v7 M-2.5,-0.5L0,-3.0L2.5,-0.5"/>
  </g>
  <g id="arrowRight" transform="rotate(90) translate(36 -43)">
    <use xlink:href="#rim"/>
    <path pointer-events="none" fill="none" stroke="white" stroke-width="1.5" d="M0,-3.0v7 M-2.5,-0.5L0,-3.0L2.5,-0.5"/>
  </g>
  <g id="arrowDown" transform="rotate(180) translate(-30 -48)">
    <use xlink:href="#rim"/>
    <path pointer-events="none" fill="none" stroke="white" stroke-width="1.5" d="M0,-3.0v7 M-2.5,-0.5L0,-3.0L2.5,-0.5"/>
  </g>
  <g id="arrowLeft" transform="rotate(270) translate(-36 17)">
    <use xlink:href="#rim"/>
    <path pointer-events="none" fill="none" stroke="white" stroke-width="1.5" d="M0,-3.0v7 M-2.5,-0.5L0,-3.0L2.5,-0.5"/>
  </g>
  <g id="resetDef">
    <use xlink:href="#rim2" fill="#404040"><set attributeName="fill" to="#808080" begin="reset.mouseover" end="reset.mouseout"/></use>
  </g>
</defs>
<script type="application/ecmascript">
var viewWidth = 1363;
var viewHeight = 409;
var sectionId = 'dynsection-59';
</script>
<script type="application/ecmascript" xlink:href="svg.min.js"/>
<svg id="graph" class="graph">
<g id="viewport">
<title>BitVector::resize</title>
<!-- Node1 -->
<g id="Node000001" class="node">
<title>Node1</title>
<g id="a_Node000001"><a xlink:title="Modify the length of BitVector::_data.">
<polygon fill="#999999" stroke="#666666" points="96,-296.43 0,-296.43 0,-277.43 96,-277.43 96,-296.43"/>
<text text-anchor="middle" x="48" y="-284.43" font-family="Helvetica,sans-Serif" font-size="10.00">BitVector::resize</text>
</a>
</g>
</g>
<!-- Node2 -->
<g id="Node000002" class="node">
<title>Node2</title>
<g id="a_Node000002"><a xlink:href="class_bit_vector.html#aece011ed1a0d697e5f777a7c2e147fcd" target="_top" xlink:title="Free memory used by BitVector::_data.">
<polygon fill="white" stroke="#666666" points="678,-334.43 530,-334.43 530,-315.43 678,-315.43 678,-334.43"/>
<text text-anchor="middle" x="604" y="-322.43" font-family="Helvetica,sans-Serif" font-size="10.00">BitVector::_killInternalData</text>
</a>
</g>
</g>
<!-- Node1&#45;&gt;Node2 -->
<g id="edge1_Node000001_Node000002" class="edge">
<title>Node1&#45;&gt;Node2</title>
<g id="a_edge1_Node000001_Node000002"><a xlink:title=" ">
<path fill="none" stroke="#63b8ff" d="M96.27,-295.88C107.92,-297.81 120.38,-299.66 132,-300.93 267.27,-315.73 425.41,-321.43 519.72,-323.6"/>
<polygon fill="#63b8ff" stroke="#63b8ff" points="519.69,-327.11 529.77,-323.83 519.85,-320.11 519.69,-327.11"/>
</a>
</g>
</g>
<!-- Node3 -->
<g id="Node000003" class="node">
<title>Node3</title>
<g id="a_Node000003"><a xlink:href="class_bit_vector.html#aebe159444eb9d619959b7325ac5dac2d" target="_top" xlink:title="Return the value of the bit at the position coord.">
<polygon fill="white" stroke="#666666" points="1212,-220.43 1129,-220.43 1129,-201.43 1212,-201.43 1212,-220.43"/>
<text text-anchor="middle" x="1170.5" y="-208.43" font-family="Helvetica,sans-Serif" font-size="10.00">BitVector::get</text>
</a>
</g>
</g>
<!-- Node1&#45;&gt;Node3 -->
<g id="edge5_Node000001_Node000003" class="edge">
<title>Node1&#45;&gt;Node3</title>
<g id="a_edge5_Node000001_Node000003"><a xlink:title=" ">
<path fill="none" stroke="#63b8ff" d="M68.67,-296.51C85.2,-304.19 109.65,-314.68 132,-320.93 247.48,-353.21 278.59,-362.93 398.5,-362.93 398.5,-362.93 398.5,-362.93 809,-362.93 938.49,-362.93 981.76,-364.2 1093,-297.93 1121.79,-280.78 1145.51,-249.1 1158.56,-229.07"/>
<polygon fill="#63b8ff" stroke="#63b8ff" points="1161.57,-230.86 1163.94,-220.53 1155.65,-227.13 1161.57,-230.86"/>
</a>
</g>
</g>
<!-- Node4 -->
<g id="Node000004" class="node">
<title>Node4</title>
<g id="a_Node000004"><a xlink:href="class_bit_vector_1_1_coords.html#a2892f7f46c4af93f9733e312229d8ec1" target="_top" xlink:title="Get Coords::octet .">
<polygon fill="white" stroke="#666666" points="1355,-225.93 1248,-225.93 1248,-195.93 1355,-195.93 1355,-225.93"/>
<text text-anchor="start" x="1256" y="-213.93" font-family="Helvetica,sans-Serif" font-size="10.00">BitVector::Coords::</text>
<text text-anchor="middle" x="1301.5" y="-202.93" font-family="Helvetica,sans-Serif" font-size="10.00">getOctet</text>
</a>
</g>
</g>
<!-- Node1&#45;&gt;Node4 -->
<g id="edge6_Node000001_Node000004" class="edge">
<title>Node1&#45;&gt;Node4</title>
<g id="a_edge6_Node000001_Node000004"><a xlink:title=" ">
<path fill="none" stroke="#63b8ff" d="M58.18,-296.65C72.49,-311.17 101.63,-338.25 132,-351.93 241.81,-401.38 278.07,-400.93 398.5,-400.93 398.5,-400.93 398.5,-400.93 1015,-400.93 1134.04,-400.93 1241.28,-285.04 1282.55,-234.28"/>
<polygon fill="#63b8ff" stroke="#63b8ff" points="1285.53,-236.15 1289.03,-226.16 1280.06,-231.78 1285.53,-236.15"/>
</a>
</g>
</g>
<!-- Node5 -->
<g id="Node000005" class="node">
<title>Node5</title>
<g id="a_Node000005"><a xlink:href="class_bit_vector.html#af68cda7444ec4459393bbfa423f0a7dd" target="_top" xlink:title="Get the Size_t value if a BitVector::CoordUnit.">
<polygon fill="white" stroke="#666666" points="859.5,-166.93 756.5,-166.93 756.5,-136.93 859.5,-136.93 859.5,-166.93"/>
<text text-anchor="start" x="764.5" y="-154.93" font-family="Helvetica,sans-Serif" font-size="10.00">BitVector::getSize</text>
<text text-anchor="middle" x="808" y="-143.93" font-family="Helvetica,sans-Serif" font-size="10.00">_tUnit</text>
</a>
</g>
</g>
<!-- Node1&#45;&gt;Node5 -->
<g id="edge7_Node000001_Node000005" class="edge">
<title>Node1&#45;&gt;Node5</title>
<g id="a_edge7_Node000001_Node000005"><a xlink:title=" ">
<path fill="none" stroke="#63b8ff" d="M96.15,-284.16C141.4,-281.15 211.59,-275.59 272,-266.93 455.43,-240.61 500.55,-228.09 681,-185.93 702.43,-180.92 725.73,-174.82 746.4,-169.18"/>
<polygon fill="#63b8ff" stroke="#63b8ff" points="747.6,-172.48 756.31,-166.45 745.74,-165.73 747.6,-172.48"/>
</a>
</g>
</g>
<!-- Node8 -->
<g id="Node000008" class="node">
<title>Node8</title>
<g id="a_Node000008"><a xlink:href="class_bit_vector.html#a93ab8bc2ec39bf299ae28ffcad504b41" target="_top" xlink:title="Give the coords of the first bit of an element.">
<polygon fill="white" stroke="#666666" points="269,-258.43 135,-258.43 135,-239.43 269,-239.43 269,-258.43"/>
<text text-anchor="middle" x="202" y="-246.43" font-family="Helvetica,sans-Serif" font-size="10.00">BitVector::indexElement</text>
</a>
</g>
</g>
<!-- Node1&#45;&gt;Node8 -->
<g id="edge11_Node000001_Node000008" class="edge">
<title>Node1&#45;&gt;Node8</title>
<g id="a_edge11_Node000001_Node000008"><a xlink:title=" ">
<path fill="none" stroke="#63b8ff" d="M87.36,-277.34C107.32,-272.35 131.93,-266.2 153.13,-260.89"/>
<polygon fill="#63b8ff" stroke="#63b8ff" points="154.07,-264.27 162.92,-258.45 152.37,-257.48 154.07,-264.27"/>
</a>
</g>
</g>
<!-- Node12 -->
<g id="Node000012" class="node">
<title>Node12</title>
<g id="a_Node000012"><a xlink:href="class_bit_vector.html#aa3228d2bacb1bb0f6072d73d43a49456" target="_top" xlink:title="How many octet can be contained in this kind of object.">
<polygon fill="white" stroke="#666666" points="899,-48.43 717,-48.43 717,-29.43 899,-29.43 899,-48.43"/>
<text text-anchor="middle" x="808" y="-36.43" font-family="Helvetica,sans-Serif" font-size="10.00">BitVector::maximumOctetNumber</text>
</a>
</g>
</g>
<!-- Node1&#45;&gt;Node12 -->
<g id="edge22_Node000001_Node000012" class="edge">
<title>Node1&#45;&gt;Node12</title>
<g id="a_edge22_Node000001_Node000012"><a xlink:title=" ">
<path fill="none" stroke="#63b8ff" d="M49.87,-277.34C53.31,-245.39 69.12,-142.04 132,-96.93 325.62,41.98 635.53,-2.65 756.41,-27.31"/>
<polygon fill="#63b8ff" stroke="#63b8ff" points="755.98,-30.8 766.49,-29.41 757.41,-23.95 755.98,-30.8"/>
</a>
</g>
</g>
<!-- Node13 -->
<g id="Node000013" class="node">
<title>Node13</title>
<g id="a_Node000013"><a xlink:href="class_bit_vector.html#acb362f03b29600195996f52c04940439" target="_top" xlink:title="How many octet can be contained in this object knowing BitVector::_element_size.">
<polygon fill="white" stroke="#666666" points="272,-125.43 132,-125.43 132,-106.43 272,-106.43 272,-125.43"/>
<text text-anchor="middle" x="202" y="-113.43" font-family="Helvetica,sans-Serif" font-size="10.00">BitVector::maxOctetLimit</text>
</a>
</g>
</g>
<!-- Node1&#45;&gt;Node13 -->
<g id="edge23_Node000001_Node000013" class="edge">
<title>Node1&#45;&gt;Node13</title>
<g id="a_edge23_Node000001_Node000013"><a xlink:title=" ">
<path fill="none" stroke="#63b8ff" d="M57.61,-277.24C82.38,-249.38 154.07,-168.73 185.7,-133.14"/>
<polygon fill="#63b8ff" stroke="#63b8ff" points="188.46,-135.3 192.49,-125.51 183.23,-130.65 188.46,-135.3"/>
</a>
</g>
</g>
<!-- Node2&#45;&gt;Node3 -->
<g id="edge2_Node000002_Node000003" class="edge">
<title>Node2&#45;&gt;Node3</title>
<g id="a_edge2_Node000002_Node000003"><a xlink:title=" ">
<path fill="none" stroke="#63b8ff" d="M678.25,-326.12C775.99,-325.39 953.01,-315.89 1093,-262.93 1114.85,-254.66 1136.56,-239 1151.25,-227.02"/>
<polygon fill="#63b8ff" stroke="#63b8ff" points="1153.63,-229.59 1159.03,-220.47 1149.12,-224.23 1153.63,-229.59"/>
</a>
</g>
</g>
<!-- Node3&#45;&gt;Node3 -->
<g id="edge3_Node000003_Node000003" class="edge">
<title>Node3&#45;&gt;Node3</title>
<g id="a_edge3_Node000003_Node000003"><a xlink:title=" ">
<path fill="none" stroke="#63b8ff" d="M1150.46,-220.51C1140.72,-229.16 1147.39,-238.43 1170.5,-238.43 1185.3,-238.43 1193.36,-234.63 1194.68,-229.62"/>
<polygon fill="#63b8ff" stroke="#63b8ff" points="1197.86,-228.16 1190.54,-220.51 1191.49,-231.06 1197.86,-228.16"/>
</a>
</g>
</g>
<!-- Node3&#45;&gt;Node4 -->
<g id="edge4_Node000003_Node000004" class="edge">
<title>Node3&#45;&gt;Node4</title>
<g id="a_edge4_Node000003_Node000004"><a xlink:title=" ">
<path fill="none" stroke="#63b8ff" d="M1212.32,-210.93C1220.38,-210.93 1229.02,-210.93 1237.62,-210.93"/>
<polygon fill="#63b8ff" stroke="#63b8ff" points="1237.66,-214.43 1247.66,-210.93 1237.66,-207.43 1237.66,-214.43"/>
</a>
</g>
</g>
<!-- Node6 -->
<g id="Node000006" class="node">
<title>Node6</title>
<g id="a_Node000006"><a xlink:href="class_bit_vector.html#a115789c8a9812eabb52f8843cd4e9965" target="_top" xlink:title="Give the a coord object that represent the size of 1 element inside BitVector::_data.">
<polygon fill="white" stroke="#666666" points="1079.5,-182.43 948.5,-182.43 948.5,-163.43 1079.5,-163.43 1079.5,-182.43"/>
<text text-anchor="middle" x="1014" y="-170.43" font-family="Helvetica,sans-Serif" font-size="10.00">BitVector::getCoordUnit</text>
</a>
</g>
</g>
<!-- Node5&#45;&gt;Node6 -->
<g id="edge8_Node000005_Node000006" class="edge">
<title>Node5&#45;&gt;Node6</title>
<g id="a_edge8_Node000005_Node000006"><a xlink:title=" ">
<path fill="none" stroke="#63b8ff" d="M859.69,-157.15C883.34,-159.58 911.96,-162.53 938.04,-165.21"/>
<polygon fill="#63b8ff" stroke="#63b8ff" points="937.97,-168.72 948.27,-166.26 938.69,-161.76 937.97,-168.72"/>
</a>
</g>
</g>
<!-- Node7 -->
<g id="Node000007" class="node">
<title>Node7</title>
<g id="a_Node000007"><a xlink:href="class_bit_vector_1_1_coords.html#a3a4fac9de925974af9c8a66a1d0179e6" target="_top" xlink:title="Translate octet and bit value inside a size_t. Allow easier mathematic computations.">
<polygon fill="white" stroke="#666666" points="1067.5,-144.93 960.5,-144.93 960.5,-114.93 1067.5,-114.93 1067.5,-144.93"/>
<text text-anchor="start" x="968.5" y="-132.93" font-family="Helvetica,sans-Serif" font-size="10.00">BitVector::Coords::</text>
<text text-anchor="middle" x="1014" y="-121.93" font-family="Helvetica,sans-Serif" font-size="10.00">toSize_t</text>
</a>
</g>
</g>
<!-- Node5&#45;&gt;Node7 -->
<g id="edge10_Node000005_Node000007" class="edge">
<title>Node5&#45;&gt;Node7</title>
<g id="a_edge10_Node000005_Node000007"><a xlink:title=" ">
<path fill="none" stroke="#63b8ff" d="M859.69,-146.46C887.13,-143.5 921.28,-139.82 950.38,-136.68"/>
<polygon fill="#63b8ff" stroke="#63b8ff" points="950.87,-140.15 960.44,-135.6 950.12,-133.19 950.87,-140.15"/>
</a>
</g>
</g>
<!-- Node6&#45;&gt;Node3 -->
<g id="edge9_Node000006_Node000003" class="edge">
<title>Node6&#45;&gt;Node3</title>
<g id="a_edge9_Node000006_Node000003"><a xlink:title=" ">
<path fill="none" stroke="#63b8ff" d="M1053.99,-182.52C1074.28,-187.51 1099.29,-193.66 1120.85,-198.96"/>
<polygon fill="#63b8ff" stroke="#63b8ff" points="1120.25,-202.42 1130.79,-201.41 1121.92,-195.62 1120.25,-202.42"/>
</a>
</g>
</g>
<!-- Node8&#45;&gt;Node3 -->
<g id="edge12_Node000008_Node000003" class="edge">
<title>Node8&#45;&gt;Node3</title>
<g id="a_edge12_Node000008_Node000003"><a xlink:title=" ">
<path fill="none" stroke="#63b8ff" d="M269.18,-248.93C348.5,-248.93 485.47,-248.93 603,-248.93 603,-248.93 603,-248.93 809,-248.93 919.89,-248.93 1048.92,-230.93 1118.58,-219.7"/>
<polygon fill="#63b8ff" stroke="#63b8ff" points="1119.52,-223.09 1128.83,-218.03 1118.4,-216.19 1119.52,-223.09"/>
</a>
</g>
</g>
<!-- Node9 -->
<g id="Node000009" class="node">
<title>Node9</title>
<g id="a_Node000009"><a xlink:href="class_bit_vector.html#a04e6d0b67ee9b42ccec437b0176067fe" target="_top" xlink:title="Give A size_t that represent the coords of the first bit of an element.">
<polygon fill="white" stroke="#666666" points="491,-201.43 308,-201.43 308,-182.43 491,-182.43 491,-201.43"/>
<text text-anchor="middle" x="399.5" y="-189.43" font-family="Helvetica,sans-Serif" font-size="10.00">BitVector::indexElementUntreated</text>
</a>
</g>
</g>
<!-- Node8&#45;&gt;Node9 -->
<g id="edge13_Node000008_Node000009" class="edge">
<title>Node8&#45;&gt;Node9</title>
<g id="a_edge13_Node000008_Node000009"><a xlink:title=" ">
<path fill="none" stroke="#63b8ff" d="M235.72,-239.39C268.71,-229.77 319.78,-214.88 355.9,-204.35"/>
<polygon fill="#63b8ff" stroke="#63b8ff" points="357.05,-207.66 365.67,-201.5 355.09,-200.94 357.05,-207.66"/>
</a>
</g>
</g>
<!-- Node9&#45;&gt;Node3 -->
<g id="edge14_Node000009_Node000003" class="edge">
<title>Node9&#45;&gt;Node3</title>
<g id="a_edge14_Node000009_Node000003"><a xlink:title=" ">
<path fill="none" stroke="#63b8ff" d="M491.35,-194.17C654.1,-198.19 990.3,-206.5 1118.4,-209.67"/>
<polygon fill="#63b8ff" stroke="#63b8ff" points="1118.62,-213.17 1128.71,-209.92 1118.79,-206.17 1118.62,-213.17"/>
</a>
</g>
</g>
<!-- Node9&#45;&gt;Node5 -->
<g id="edge15_Node000009_Node000005" class="edge">
<title>Node9&#45;&gt;Node5</title>
<g id="a_edge15_Node000009_Node000005"><a xlink:title=" ">
<path fill="none" stroke="#63b8ff" d="M491.22,-183C569.01,-175.35 678.91,-164.53 746.43,-157.89"/>
<polygon fill="#63b8ff" stroke="#63b8ff" points="746.87,-161.36 756.48,-156.9 746.18,-154.4 746.87,-161.36"/>
</a>
</g>
</g>
<!-- Node10 -->
<g id="Node000010" class="node">
<title>Node10</title>
<g id="a_Node000010"><a xlink:href="class_bit_vector.html#ad36e7d0b4b1417ca434414fa40c72eb8" target="_top" xlink:title="How many element can be contained in this object knowing BitVector::_element_size.">
<polygon fill="white" stroke="#666666" points="681,-106.43 527,-106.43 527,-87.43 681,-87.43 681,-106.43"/>
<text text-anchor="middle" x="604" y="-94.43" font-family="Helvetica,sans-Serif" font-size="10.00">BitVector::maxElementLimit</text>
</a>
</g>
</g>
<!-- Node9&#45;&gt;Node10 -->
<g id="edge16_Node000009_Node000010" class="edge">
<title>Node9&#45;&gt;Node10</title>
<g id="a_edge16_Node000009_Node000010"><a xlink:title=" ">
<path fill="none" stroke="#63b8ff" d="M421.03,-182.3C457.13,-165.36 532.08,-130.2 573.64,-110.7"/>
<polygon fill="#63b8ff" stroke="#63b8ff" points="575.15,-113.86 582.72,-106.44 572.18,-107.52 575.15,-113.86"/>
</a>
</g>
</g>
<!-- Node10&#45;&gt;Node5 -->
<g id="edge17_Node000010_Node000005" class="edge">
<title>Node10&#45;&gt;Node5</title>
<g id="a_edge17_Node000010_Node000005"><a xlink:title=" ">
<path fill="none" stroke="#63b8ff" d="M640.19,-106.51C669.4,-114.46 711.64,-125.96 746.3,-135.4"/>
<polygon fill="#63b8ff" stroke="#63b8ff" points="745.75,-138.88 756.32,-138.13 747.59,-132.12 745.75,-138.88"/>
</a>
</g>
</g>
<!-- Node11 -->
<g id="Node000011" class="node">
<title>Node11</title>
<g id="a_Node000011"><a xlink:href="class_bit_vector.html#a68b14af0886039ddcf55c82a250deb4c" target="_top" xlink:title="How many element can be contained in this kind of object.">
<polygon fill="white" stroke="#666666" points="1093,-96.93 935,-96.93 935,-66.93 1093,-66.93 1093,-96.93"/>
<text text-anchor="start" x="943" y="-84.93" font-family="Helvetica,sans-Serif" font-size="10.00">BitVector::maximumElement</text>
<text text-anchor="middle" x="1014" y="-73.93" font-family="Helvetica,sans-Serif" font-size="10.00">Number</text>
</a>
</g>
</g>
<!-- Node10&#45;&gt;Node11 -->
<g id="edge18_Node000010_Node000011" class="edge">
<title>Node10&#45;&gt;Node11</title>
<g id="a_edge18_Node000010_Node000011"><a xlink:title=" ">
<path fill="none" stroke="#63b8ff" d="M681.26,-94.12C750.32,-91.59 852.06,-87.84 924.64,-85.18"/>
<polygon fill="#63b8ff" stroke="#63b8ff" points="924.82,-88.67 934.68,-84.81 924.56,-81.68 924.82,-88.67"/>
</a>
</g>
</g>
<!-- Node10&#45;&gt;Node12 -->
<g id="edge20_Node000010_Node000012" class="edge">
<title>Node10&#45;&gt;Node12</title>
<g id="a_edge20_Node000010_Node000012"><a xlink:title=" ">
<path fill="none" stroke="#63b8ff" d="M638.36,-87.35C672.71,-77.49 726.4,-62.07 763.94,-51.29"/>
<polygon fill="#63b8ff" stroke="#63b8ff" points="764.95,-54.64 773.59,-48.52 763.02,-47.92 764.95,-54.64"/>
</a>
</g>
</g>
<!-- Node11&#45;&gt;Node3 -->
<g id="edge19_Node000011_Node000003" class="edge">
<title>Node11&#45;&gt;Node3</title>
<g id="a_edge19_Node000011_Node000003"><a xlink:title=" ">
<path fill="none" stroke="#63b8ff" d="M1077.24,-96.96C1082.8,-99.5 1088.16,-102.47 1093,-105.93 1124.81,-128.63 1148.6,-168.69 1160.66,-192.22"/>
<polygon fill="#63b8ff" stroke="#63b8ff" points="1157.53,-193.78 1165.1,-201.2 1163.8,-190.68 1157.53,-193.78"/>
</a>
</g>
</g>
<!-- Node12&#45;&gt;Node3 -->
<g id="edge21_Node000012_Node000003" class="edge">
<title>Node12&#45;&gt;Node3</title>
<g id="a_edge21_Node000012_Node000003"><a xlink:title=" ">
<path fill="none" stroke="#63b8ff" d="M852.64,-29.4C912.29,-18.95 1020.17,-9.49 1093,-57.93 1139.65,-88.96 1159.09,-157.36 1166.09,-191.19"/>
<polygon fill="#63b8ff" stroke="#63b8ff" points="1162.69,-192.06 1168.01,-201.23 1169.57,-190.75 1162.69,-192.06"/>
</a>
</g>
</g>
<!-- Node13&#45;&gt;Node4 -->
<g id="edge24_Node000013_Node000004" class="edge">
<title>Node13&#45;&gt;Node4</title>
<g id="a_edge24_Node000013_Node000004"><a xlink:title=" ">
<path fill="none" stroke="#63b8ff" d="M222,-106.32C278.48,-78.68 450.9,-0.93 603,-0.93 603,-0.93 603,-0.93 1015,-0.93 1139.73,-0.93 1245.94,-132.61 1284.75,-187.42"/>
<polygon fill="#63b8ff" stroke="#63b8ff" points="1282.02,-189.62 1290.6,-195.83 1287.76,-185.62 1282.02,-189.62"/>
</a>
</g>
</g>
<!-- Node14 -->
<g id="Node000014" class="node">
<title>Node14</title>
<g id="a_Node000014"><a xlink:href="class_bit_vector.html#a214e556dd89acce2427a378c5520adbd" target="_top" xlink:title="Last acceptable coordinate knowing BitVector::_element_size.">
<polygon fill="white" stroke="#666666" points="481,-125.43 318,-125.43 318,-106.43 481,-106.43 481,-125.43"/>
<text text-anchor="middle" x="399.5" y="-113.43" font-family="Helvetica,sans-Serif" font-size="10.00">BitVector::MaximalCoordLimit</text>
</a>
</g>
</g>
<!-- Node13&#45;&gt;Node14 -->
<g id="edge25_Node000013_Node000014" class="edge">
<title>Node13&#45;&gt;Node14</title>
<g id="a_edge25_Node000013_Node000014"><a xlink:title=" ">
<path fill="none" stroke="#63b8ff" d="M272.2,-115.93C283.59,-115.93 295.54,-115.93 307.36,-115.93"/>
<polygon fill="#63b8ff" stroke="#63b8ff" points="307.69,-119.43 317.69,-115.93 307.69,-112.43 307.69,-119.43"/>
</a>
</g>
</g>
<!-- Node14&#45;&gt;Node5 -->
<g id="edge26_Node000014_Node000005" class="edge">
<title>Node14&#45;&gt;Node5</title>
<g id="a_edge26_Node000014_Node000005"><a xlink:title=" ">
<path fill="none" stroke="#63b8ff" d="M481.3,-123.08C559.31,-129.99 675.69,-140.3 746.16,-146.54"/>
<polygon fill="#63b8ff" stroke="#63b8ff" points="745.95,-150.03 756.22,-147.43 746.56,-143.06 745.95,-150.03"/>
</a>
</g>
</g>
<!-- Node14&#45;&gt;Node10 -->
<g id="edge27_Node000014_Node000010" class="edge">
<title>Node14&#45;&gt;Node10</title>
<g id="a_edge27_Node000014_Node000010"><a xlink:title=" ">
<path fill="none" stroke="#63b8ff" d="M481.12,-108.36C492.8,-107.27 504.87,-106.14 516.67,-105.03"/>
<polygon fill="#63b8ff" stroke="#63b8ff" points="517.31,-108.48 526.94,-104.06 516.66,-101.51 517.31,-108.48"/>
</a>
</g>
</g>
</g>
</svg>

<g id="navigator" transform="translate(0 0)" fill="#404254">
  <rect fill="#f2f5e9" fill-opacity="0.5" stroke="#606060" stroke-width=".5" x="0" y="0" width="60" height="60"/>
  <use id="zoomplus" xlink:href="#zoomPlus" x="17" y="9" onmousedown="handleZoom(evt,'in')"/>
  <use id="zoomminus" xlink:href="#zoomMin" x="42" y="9" onmousedown="handleZoom(evt,'out')"/>
  <use id="reset" xlink:href="#resetDef" x="30" y="36" onmousedown="handleReset()"/>
   <use id="arrowup" xlink:href="#arrowUp" x="0" y="0" onmousedown="handlePan(0,-1)"/>
  <use id="arrowright" xlink:href="#arrowRight" x="0" y="0" onmousedown="handlePan(1,0)"/>
  <use id="arrowdown" xlink:href="#arrowDown" x="0" y="0" onmousedown="handlePan(0,1)"/>
  <use id="arrowleft" xlink:href="#arrowLeft" x="0" y="0" onmousedown="handlePan(-1,0)"/>
</g>
<svg viewBox="0 0 15 15" width="100%" height="30px" preserveAspectRatio="xMaxYMin meet">
 <g id="arrow_out" transform="scale(0.3 0.3)">
  <a xlink:href="class_bit_vector_a13856f33d2350c573cf2fbe587f03757_cgraph_org.svg" target="_base">
   <rect id="button" ry="5" rx="5" y="6" x="6" height="38" width="38"
        fill="#f2f5e9" fill-opacity="0.5" stroke="#606060" stroke-width="1.0"/>
   <path id="arrow"
     d="M 11.500037,31.436501 C 11.940474,20.09759 22.043105,11.32322 32.158766,21.979434 L 37.068811,17.246167 C 37.068811,17.246167 37.088388,32 37.088388,32 L 22.160133,31.978069 C 22.160133,31.978069 26.997745,27.140456 26.997745,27.140456 C 18.528582,18.264221 13.291696,25.230495 11.500037,31.436501 z"
     style="fill:#404040;"/>
  </a>
 </g>
</svg>

<style type='text/css'>
<![CDATA[
[data-mouse-over-selected='false'] { opacity: 0.7; }
[data-mouse-over-selected='true']  { opacity: 1.0; }
]]>
</style>
<script type="application/ecmascript"><![CDATA[
document.addEventListener('DOMContentLoaded', (event) => {
  highlightEdges();
  highlightAdjacentNodes();
});
]]></script>
</svg>
