<?xml version="1.0" encoding="UTF-8" standalone="no"?>
<!DOCTYPE svg PUBLIC "-//W3C//DTD SVG 1.1//EN"
 "http://www.w3.org/Graphics/SVG/1.1/DTD/svg11.dtd">
<!-- Generated by graphviz version 2.43.0 (0)
 -->
<!-- Title: BitVector::remove Pages: 1 -->
<!--zoomable 529 -->

<svg id="main" version="1.1" xmlns="http://www.w3.org/2000/svg" xmlns:xlink="http://www.w3.org/1999/xlink" xml:space="preserve" onload="init(evt)">
<style type="text/css"><![CDATA[
.node, .edge {opacity: 0.7;}
.node.selected, .edge.selected {opacity: 1;}
.edge:hover path { stroke: red; }
.edge:hover polygon { stroke: red; fill: red; }
]]></style>

<defs>
  <circle id="rim" cx="0" cy="0" r="7"/>
  <circle id="rim2" cx="0" cy="0" r="3.5"/>
  <g id="zoomPlus">
    <use xlink:href="#rim" fill="#404040"><set attributeName="fill" to="#808080" begin="zoomplus.mouseover" end="zoomplus.mouseout"/></use>
    <path d="M-4,0h8M0,-4v8" fill="none" stroke="white" stroke-width="1.5" pointer-events="none"/>
  </g>
  <g id="zoomMin">
    <use xlink:href="#rim" fill="#404040"><set attributeName="fill" to="#808080" begin="zoomminus.mouseover" end="zoomminus.mouseout"/></use>
    <path d="M-4,0h8" fill="none" stroke="white" stroke-width="1.5" pointer-events="none"/>
  </g>
  <g id="arrowUp" transform="translate(30 24)">
    <use xlink:href="#rim"/>
    <path pointer-events="none" fill="none" stroke="white" stroke-width="1.5" d="M0,-3.0v7 M-2.5,-0.5L0,-3.0L2.5,-0.5"/>
  </g>
  <g id="arrowRight" transform="rotate(90) translate(36 -43)">
    <use xlink:href="#rim"/>
    <path pointer-events="none" fill="none" stroke="white" stroke-width="1.5" d="M0,-3.0v7 M-2.5,-0.5L0,-3.0L2.5,-0.5"/>
  </g>
  <g id="arrowDown" transform="rotate(180) translate(-30 -48)">
    <use xlink:href="#rim"/>
    <path pointer-events="none" fill="none" stroke="white" stroke-width="1.5" d="M0,-3.0v7 M-2.5,-0.5L0,-3.0L2.5,-0.5"/>
  </g>
  <g id="arrowLeft" transform="rotate(270) translate(-36 17)">
    <use xlink:href="#rim"/>
    <path pointer-events="none" fill="none" stroke="white" stroke-width="1.5" d="M0,-3.0v7 M-2.5,-0.5L0,-3.0L2.5,-0.5"/>
  </g>
  <g id="resetDef">
    <use xlink:href="#rim2" fill="#404040"><set attributeName="fill" to="#808080" begin="reset.mouseover" end="reset.mouseout"/></use>
  </g>
</defs>
<script type="application/ecmascript">
var viewWidth = 1570;
var viewHeight = 529;
var sectionId = 'dynsection-57';
</script>
<script type="application/ecmascript" xlink:href="svg.min.js"/>
<svg id="graph" class="graph">
<g id="viewport">
<title>BitVector::remove</title>
<!-- Node1 -->
<g id="Node000001" class="node">
<title>Node1</title>
<g id="a_Node000001"><a xlink:title="Remove a number of element from the vector.">
<polygon fill="#999999" stroke="#666666" points="104,-457.56 0,-457.56 0,-438.56 104,-438.56 104,-457.56"/>
<text text-anchor="middle" x="52" y="-445.56" font-family="Helvetica,sans-Serif" font-size="10.00">BitVector::remove</text>
</a>
</g>
</g>
<!-- Node2 -->
<g id="Node000002" class="node">
<title>Node2</title>
<g id="a_Node000002"><a xlink:href="class_bit_vector.html#aebe159444eb9d619959b7325ac5dac2d" target="_top" xlink:title="Return the value of the bit at the position coord.">
<polygon fill="white" stroke="#666666" points="1419,-252.56 1336,-252.56 1336,-233.56 1419,-233.56 1419,-252.56"/>
<text text-anchor="middle" x="1377.5" y="-240.56" font-family="Helvetica,sans-Serif" font-size="10.00">BitVector::get</text>
</a>
</g>
</g>
<!-- Node1&#45;&gt;Node2 -->
<g id="edge1_Node000001_Node000002" class="edge">
<title>Node1&#45;&gt;Node2</title>
<g id="a_edge1_Node000001_Node000002"><a xlink:title=" ">
<path fill="none" stroke="#63b8ff" d="M85.86,-457.59C148.01,-474.75 287.26,-509.06 407,-509.06 407,-509.06 407,-509.06 1016,-509.06 1143.35,-509.06 1201.79,-552.13 1300,-471.06 1364.57,-417.76 1374.92,-308.05 1376.38,-263.02"/>
<polygon fill="#63b8ff" stroke="#63b8ff" points="1379.88,-262.88 1376.58,-252.81 1372.88,-262.74 1379.88,-262.88"/>
</a>
</g>
</g>
<!-- Node4 -->
<g id="Node000004" class="node">
<title>Node4</title>
<g id="a_Node000004"><a xlink:href="class_bit_vector.html#aca24053f655c825de0f06ec86fff1cec" target="_top" xlink:title="Replace an element by another element. Can add an element to the list if index = BitVector::_element_...">
<polygon fill="white" stroke="#666666" points="261.5,-155.56 179.5,-155.56 179.5,-136.56 261.5,-136.56 261.5,-155.56"/>
<text text-anchor="middle" x="220.5" y="-143.56" font-family="Helvetica,sans-Serif" font-size="10.00">BitVector::set</text>
</a>
</g>
</g>
<!-- Node1&#45;&gt;Node4 -->
<g id="edge4_Node000001_Node000004" class="edge">
<title>Node1&#45;&gt;Node4</title>
<g id="a_edge4_Node000001_Node000004"><a xlink:title=" ">
<path fill="none" stroke="#63b8ff" d="M58.35,-438.35C82.03,-395.4 177.63,-222 209.27,-164.61"/>
<polygon fill="#63b8ff" stroke="#63b8ff" points="212.49,-166.03 214.25,-155.58 206.36,-162.65 212.49,-166.03"/>
</a>
</g>
</g>
<!-- Node17 -->
<g id="Node000017" class="node">
<title>Node17</title>
<g id="a_Node000017"><a xlink:href="class_bit_vector.html#ad60f42244db2c82260326605916431d3" target="_top" xlink:title="Modify the number of known element in this object.">
<polygon fill="white" stroke="#666666" points="301,-457.56 140,-457.56 140,-438.56 301,-438.56 301,-457.56"/>
<text text-anchor="middle" x="220.5" y="-445.56" font-family="Helvetica,sans-Serif" font-size="10.00">BitVector::setElementNumber</text>
</a>
</g>
</g>
<!-- Node1&#45;&gt;Node17 -->
<g id="edge27_Node000001_Node000017" class="edge">
<title>Node1&#45;&gt;Node17</title>
<g id="a_edge27_Node000001_Node000017"><a xlink:title=" ">
<path fill="none" stroke="#63b8ff" d="M104.31,-448.06C112.42,-448.06 121,-448.06 129.67,-448.06"/>
<polygon fill="#63b8ff" stroke="#63b8ff" points="129.88,-451.56 139.88,-448.06 129.88,-444.56 129.88,-451.56"/>
</a>
</g>
</g>
<!-- Node2&#45;&gt;Node2 -->
<g id="edge2_Node000002_Node000002" class="edge">
<title>Node2&#45;&gt;Node2</title>
<g id="a_edge2_Node000002_Node000002"><a xlink:title=" ">
<path fill="none" stroke="#63b8ff" d="M1357.46,-252.64C1347.72,-261.29 1354.39,-270.56 1377.5,-270.56 1392.3,-270.56 1400.36,-266.76 1401.68,-261.75"/>
<polygon fill="#63b8ff" stroke="#63b8ff" points="1404.86,-260.3 1397.54,-252.64 1398.49,-263.2 1404.86,-260.3"/>
</a>
</g>
</g>
<!-- Node3 -->
<g id="Node000003" class="node">
<title>Node3</title>
<g id="a_Node000003"><a xlink:href="class_bit_vector_1_1_coords.html#a2892f7f46c4af93f9733e312229d8ec1" target="_top" xlink:title="Get Coords::octet .">
<polygon fill="white" stroke="#666666" points="1562,-258.06 1455,-258.06 1455,-228.06 1562,-228.06 1562,-258.06"/>
<text text-anchor="start" x="1463" y="-246.06" font-family="Helvetica,sans-Serif" font-size="10.00">BitVector::Coords::</text>
<text text-anchor="middle" x="1508.5" y="-235.06" font-family="Helvetica,sans-Serif" font-size="10.00">getOctet</text>
</a>
</g>
</g>
<!-- Node2&#45;&gt;Node3 -->
<g id="edge3_Node000002_Node000003" class="edge">
<title>Node2&#45;&gt;Node3</title>
<g id="a_edge3_Node000002_Node000003"><a xlink:title=" ">
<path fill="none" stroke="#63b8ff" d="M1419.32,-243.06C1427.38,-243.06 1436.02,-243.06 1444.62,-243.06"/>
<polygon fill="#63b8ff" stroke="#63b8ff" points="1444.66,-246.56 1454.66,-243.06 1444.66,-239.56 1444.66,-246.56"/>
</a>
</g>
</g>
<!-- Node4&#45;&gt;Node2 -->
<g id="edge8_Node000004_Node000002" class="edge">
<title>Node4&#45;&gt;Node2</title>
<g id="a_edge8_Node000004_Node000002"><a xlink:title=" ">
<path fill="none" stroke="#63b8ff" d="M254.82,-136.54C321.05,-118.49 474.16,-81.06 605.5,-81.06 605.5,-81.06 605.5,-81.06 1016,-81.06 1142.79,-81.06 1193.6,-39.11 1300,-108.06 1341.68,-135.07 1363,-193.19 1371.67,-223.61"/>
<polygon fill="#63b8ff" stroke="#63b8ff" points="1368.34,-224.7 1374.31,-233.45 1375.1,-222.88 1368.34,-224.7"/>
</a>
</g>
</g>
<!-- Node5 -->
<g id="Node000005" class="node">
<title>Node5</title>
<g id="a_Node000005"><a xlink:href="class_bit_vector.html#a8c3c1f0faa0bbf35638c7217a841cbd8" target="_top" xlink:title=" ">
<polygon fill="white" stroke="#666666" points="462.5,-155.56 353.5,-155.56 353.5,-136.56 462.5,-136.56 462.5,-155.56"/>
<text text-anchor="middle" x="408" y="-143.56" font-family="Helvetica,sans-Serif" font-size="10.00">BitVector::copyBits</text>
</a>
</g>
</g>
<!-- Node4&#45;&gt;Node5 -->
<g id="edge5_Node000004_Node000005" class="edge">
<title>Node4&#45;&gt;Node5</title>
<g id="a_edge5_Node000004_Node000005"><a xlink:title=" ">
<path fill="none" stroke="#63b8ff" d="M261.75,-146.06C285.56,-146.06 316.25,-146.06 343.29,-146.06"/>
<polygon fill="#63b8ff" stroke="#63b8ff" points="343.45,-149.56 353.45,-146.06 343.45,-142.56 343.45,-149.56"/>
</a>
</g>
</g>
<!-- Node7 -->
<g id="Node000007" class="node">
<title>Node7</title>
<g id="a_Node000007"><a xlink:href="class_bit_vector.html#a115789c8a9812eabb52f8843cd4e9965" target="_top" xlink:title="Give the a coord object that represent the size of 1 element inside BitVector::_data.">
<polygon fill="white" stroke="#666666" points="1286.5,-52.56 1155.5,-52.56 1155.5,-33.56 1286.5,-33.56 1286.5,-52.56"/>
<text text-anchor="middle" x="1221" y="-40.56" font-family="Helvetica,sans-Serif" font-size="10.00">BitVector::getCoordUnit</text>
</a>
</g>
</g>
<!-- Node4&#45;&gt;Node7 -->
<g id="edge9_Node000004_Node000007" class="edge">
<title>Node4&#45;&gt;Node7</title>
<g id="a_edge9_Node000004_Node000007"><a xlink:title=" ">
<path fill="none" stroke="#63b8ff" d="M227.93,-136.41C243.54,-113.91 285.92,-58.03 337,-34.06 445.66,16.93 485.47,-5.06 605.5,-5.06 605.5,-5.06 605.5,-5.06 812,-5.06 929.51,-5.06 1065.25,-20.88 1146.76,-32.11"/>
<polygon fill="#63b8ff" stroke="#63b8ff" points="1146.53,-35.61 1156.92,-33.52 1147.49,-28.68 1146.53,-35.61"/>
</a>
</g>
</g>
<!-- Node8 -->
<g id="Node000008" class="node">
<title>Node8</title>
<g id="a_Node000008"><a xlink:href="class_bit_vector.html#a93ab8bc2ec39bf299ae28ffcad504b41" target="_top" xlink:title="Give the coords of the first bit of an element.">
<polygon fill="white" stroke="#666666" points="475,-242.56 341,-242.56 341,-223.56 475,-223.56 475,-242.56"/>
<text text-anchor="middle" x="408" y="-230.56" font-family="Helvetica,sans-Serif" font-size="10.00">BitVector::indexElement</text>
</a>
</g>
</g>
<!-- Node4&#45;&gt;Node8 -->
<g id="edge11_Node000004_Node000008" class="edge">
<title>Node4&#45;&gt;Node8</title>
<g id="a_edge11_Node000004_Node000008"><a xlink:title=" ">
<path fill="none" stroke="#63b8ff" d="M242.06,-155.7C274.88,-171.1 339.25,-201.29 377.15,-219.06"/>
<polygon fill="#63b8ff" stroke="#63b8ff" points="376.09,-222.43 386.63,-223.51 379.06,-216.09 376.09,-222.43"/>
</a>
</g>
</g>
<!-- Node15 -->
<g id="Node000015" class="node">
<title>Node15</title>
<g id="a_Node000015"><a xlink:href="class_bit_vector.html#ab4d98ce4b8d36ed6af1aa46e67810972" target="_top" xlink:title="Give the last coordinates thar can be contained inside BitVector::_data with the current BitVector::_...">
<polygon fill="white" stroke="#666666" points="655.5,-397.56 557.5,-397.56 557.5,-378.56 655.5,-378.56 655.5,-397.56"/>
<text text-anchor="middle" x="606.5" y="-385.56" font-family="Helvetica,sans-Serif" font-size="10.00">BitVector::lastBit</text>
</a>
</g>
</g>
<!-- Node4&#45;&gt;Node15 -->
<g id="edge24_Node000004_Node000015" class="edge">
<title>Node4&#45;&gt;Node15</title>
<g id="a_edge24_Node000004_Node000015"><a xlink:title=" ">
<path fill="none" stroke="#63b8ff" d="M230.83,-155.81C249.79,-175.33 294.62,-220.11 337,-252.06 411.07,-307.91 430.29,-323.26 515,-361.06 527.89,-366.81 542.35,-371.75 555.86,-375.77"/>
<polygon fill="#63b8ff" stroke="#63b8ff" points="554.92,-379.14 565.5,-378.53 556.85,-372.41 554.92,-379.14"/>
</a>
</g>
</g>
<!-- Node16 -->
<g id="Node000016" class="node">
<title>Node16</title>
<g id="a_Node000016"><a xlink:href="class_bit_vector.html#ab92cdd9780b949d9d762f58e1ee4a0ae" target="_top" xlink:title="Last postion of the vector.">
<polygon fill="white" stroke="#666666" points="862,-52.56 760,-52.56 760,-33.56 862,-33.56 862,-52.56"/>
<text text-anchor="middle" x="811" y="-40.56" font-family="Helvetica,sans-Serif" font-size="10.00">BitVector::lastPos</text>
</a>
</g>
</g>
<!-- Node4&#45;&gt;Node16 -->
<g id="edge25_Node000004_Node000016" class="edge">
<title>Node4&#45;&gt;Node16</title>
<g id="a_edge25_Node000004_Node000016"><a xlink:title=" ">
<path fill="none" stroke="#63b8ff" d="M231.26,-136.51C249.93,-118.95 292.8,-81.97 337,-67.06 478.6,-19.3 657.55,-27.26 749.44,-35.89"/>
<polygon fill="#63b8ff" stroke="#63b8ff" points="749.38,-39.4 759.67,-36.89 750.06,-32.44 749.38,-39.4"/>
</a>
</g>
</g>
<!-- Node5&#45;&gt;Node2 -->
<g id="edge6_Node000005_Node000002" class="edge">
<title>Node5&#45;&gt;Node2</title>
<g id="a_edge6_Node000005_Node000002"><a xlink:title=" ">
<path fill="none" stroke="#63b8ff" d="M462.54,-147.57C520.57,-148.94 615.87,-150.42 698,-148.06 831.74,-144.22 1181.22,-76.48 1300,-138.06 1335.22,-156.32 1358.15,-199.05 1369.06,-224.01"/>
<polygon fill="#63b8ff" stroke="#63b8ff" points="1365.93,-225.6 1373,-233.49 1372.39,-222.92 1365.93,-225.6"/>
</a>
</g>
</g>
<!-- Node6 -->
<g id="Node000006" class="node">
<title>Node6</title>
<g id="a_Node000006"><a xlink:href="class_bit_vector_1_1_coords.html#a393207c752f8f9121aca38c938914154" target="_top" xlink:title="Get Coords::bit .">
<polygon fill="white" stroke="#666666" points="660,-139.06 553,-139.06 553,-109.06 660,-109.06 660,-139.06"/>
<text text-anchor="start" x="561" y="-127.06" font-family="Helvetica,sans-Serif" font-size="10.00">BitVector::Coords::</text>
<text text-anchor="middle" x="606.5" y="-116.06" font-family="Helvetica,sans-Serif" font-size="10.00">getBit</text>
</a>
</g>
</g>
<!-- Node5&#45;&gt;Node6 -->
<g id="edge7_Node000005_Node000006" class="edge">
<title>Node5&#45;&gt;Node6</title>
<g id="a_edge7_Node000005_Node000006"><a xlink:title=" ">
<path fill="none" stroke="#63b8ff" d="M462.69,-140.05C487.47,-137.27 517.05,-133.96 542.84,-131.08"/>
<polygon fill="#63b8ff" stroke="#63b8ff" points="543.34,-134.54 552.89,-129.95 542.56,-127.59 543.34,-134.54"/>
</a>
</g>
</g>
<!-- Node7&#45;&gt;Node2 -->
<g id="edge10_Node000007_Node000002" class="edge">
<title>Node7&#45;&gt;Node2</title>
<g id="a_edge10_Node000007_Node000002"><a xlink:title=" ">
<path fill="none" stroke="#63b8ff" d="M1275.2,-52.64C1284.21,-56.07 1292.92,-60.73 1300,-67.06 1347.51,-109.55 1366.73,-186.81 1373.41,-223.16"/>
<polygon fill="#63b8ff" stroke="#63b8ff" points="1370.03,-224.15 1375.16,-233.42 1376.93,-222.98 1370.03,-224.15"/>
</a>
</g>
</g>
<!-- Node8&#45;&gt;Node2 -->
<g id="edge12_Node000008_Node000002" class="edge">
<title>Node8&#45;&gt;Node2</title>
<g id="a_edge12_Node000008_Node000002"><a xlink:title=" ">
<path fill="none" stroke="#63b8ff" d="M458.51,-242.58C476.29,-245.82 496.51,-249.32 515,-252.06 792.47,-293.17 861.92,-308.69 1142,-324.06 1212.12,-327.91 1235.51,-351.86 1300,-324.06 1329.46,-311.36 1352.86,-281.12 1365.68,-261.39"/>
<polygon fill="#63b8ff" stroke="#63b8ff" points="1368.8,-263.02 1371.11,-252.68 1362.85,-259.32 1368.8,-263.02"/>
</a>
</g>
</g>
<!-- Node9 -->
<g id="Node000009" class="node">
<title>Node9</title>
<g id="a_Node000009"><a xlink:href="class_bit_vector.html#a04e6d0b67ee9b42ccec437b0176067fe" target="_top" xlink:title="Give A size_t that represent the coords of the first bit of an element.">
<polygon fill="white" stroke="#666666" points="698,-242.56 515,-242.56 515,-223.56 698,-223.56 698,-242.56"/>
<text text-anchor="middle" x="606.5" y="-230.56" font-family="Helvetica,sans-Serif" font-size="10.00">BitVector::indexElementUntreated</text>
</a>
</g>
</g>
<!-- Node8&#45;&gt;Node9 -->
<g id="edge13_Node000008_Node000009" class="edge">
<title>Node8&#45;&gt;Node9</title>
<g id="a_edge13_Node000008_Node000009"><a xlink:title=" ">
<path fill="none" stroke="#63b8ff" d="M475.25,-233.06C484.78,-233.06 494.76,-233.06 504.77,-233.06"/>
<polygon fill="#63b8ff" stroke="#63b8ff" points="504.77,-236.56 514.77,-233.06 504.77,-229.56 504.77,-236.56"/>
</a>
</g>
</g>
<!-- Node9&#45;&gt;Node2 -->
<g id="edge14_Node000009_Node000002" class="edge">
<title>Node9&#45;&gt;Node2</title>
<g id="a_edge14_Node000009_Node000002"><a xlink:title=" ">
<path fill="none" stroke="#63b8ff" d="M632.47,-223.55C724.75,-189.92 1053.85,-83.51 1300,-176.06 1326.17,-185.9 1349.24,-209.21 1363.03,-225.56"/>
<polygon fill="#63b8ff" stroke="#63b8ff" points="1360.35,-227.8 1369.36,-233.36 1365.78,-223.39 1360.35,-227.8"/>
</a>
</g>
</g>
<!-- Node10 -->
<g id="Node000010" class="node">
<title>Node10</title>
<g id="a_Node000010"><a xlink:href="class_bit_vector.html#af68cda7444ec4459393bbfa423f0a7dd" target="_top" xlink:title="Get the Size_t value if a BitVector::CoordUnit.">
<polygon fill="white" stroke="#666666" points="1066.5,-291.06 963.5,-291.06 963.5,-261.06 1066.5,-261.06 1066.5,-291.06"/>
<text text-anchor="start" x="971.5" y="-279.06" font-family="Helvetica,sans-Serif" font-size="10.00">BitVector::getSize</text>
<text text-anchor="middle" x="1015" y="-268.06" font-family="Helvetica,sans-Serif" font-size="10.00">_tUnit</text>
</a>
</g>
</g>
<!-- Node9&#45;&gt;Node10 -->
<g id="edge15_Node000009_Node000010" class="edge">
<title>Node9&#45;&gt;Node10</title>
<g id="a_edge15_Node000009_Node000010"><a xlink:title=" ">
<path fill="none" stroke="#63b8ff" d="M665.65,-242.59C687.09,-245.89 711.61,-249.42 734,-252.06 809.26,-260.93 896.28,-267.87 953.08,-271.96"/>
<polygon fill="#63b8ff" stroke="#63b8ff" points="953.1,-275.47 963.32,-272.69 953.59,-268.49 953.1,-275.47"/>
</a>
</g>
</g>
<!-- Node12 -->
<g id="Node000012" class="node">
<title>Node12</title>
<g id="a_Node000012"><a xlink:href="class_bit_vector.html#ad36e7d0b4b1417ca434414fa40c72eb8" target="_top" xlink:title="How many element can be contained in this object knowing BitVector::_element_size.">
<polygon fill="white" stroke="#666666" points="888,-242.56 734,-242.56 734,-223.56 888,-223.56 888,-242.56"/>
<text text-anchor="middle" x="811" y="-230.56" font-family="Helvetica,sans-Serif" font-size="10.00">BitVector::maxElementLimit</text>
</a>
</g>
</g>
<!-- Node9&#45;&gt;Node12 -->
<g id="edge18_Node000009_Node000012" class="edge">
<title>Node9&#45;&gt;Node12</title>
<g id="a_edge18_Node000009_Node000012"><a xlink:title=" ">
<path fill="none" stroke="#63b8ff" d="M698.09,-233.06C706.55,-233.06 715.11,-233.06 723.53,-233.06"/>
<polygon fill="#63b8ff" stroke="#63b8ff" points="723.72,-236.56 733.72,-233.06 723.72,-229.56 723.72,-236.56"/>
</a>
</g>
</g>
<!-- Node10&#45;&gt;Node7 -->
<g id="edge16_Node000010_Node000007" class="edge">
<title>Node10&#45;&gt;Node7</title>
<g id="a_edge16_Node000010_Node000007"><a xlink:title=" ">
<path fill="none" stroke="#63b8ff" d="M1066.81,-270.51C1080.69,-266.98 1094.94,-261.27 1106,-252.06 1134.72,-228.14 1124.53,-209.1 1142,-176.06 1164.19,-134.09 1193.07,-86.45 1208.72,-61.13"/>
<polygon fill="#63b8ff" stroke="#63b8ff" points="1211.73,-62.92 1214.03,-52.58 1205.78,-59.22 1211.73,-62.92"/>
</a>
</g>
</g>
<!-- Node11 -->
<g id="Node000011" class="node">
<title>Node11</title>
<g id="a_Node000011"><a xlink:href="class_bit_vector_1_1_coords.html#a3a4fac9de925974af9c8a66a1d0179e6" target="_top" xlink:title="Translate octet and bit value inside a size_t. Allow easier mathematic computations.">
<polygon fill="white" stroke="#666666" points="1274.5,-315.06 1167.5,-315.06 1167.5,-285.06 1274.5,-285.06 1274.5,-315.06"/>
<text text-anchor="start" x="1175.5" y="-303.06" font-family="Helvetica,sans-Serif" font-size="10.00">BitVector::Coords::</text>
<text text-anchor="middle" x="1221" y="-292.06" font-family="Helvetica,sans-Serif" font-size="10.00">toSize_t</text>
</a>
</g>
</g>
<!-- Node10&#45;&gt;Node11 -->
<g id="edge17_Node000010_Node000011" class="edge">
<title>Node10&#45;&gt;Node11</title>
<g id="a_edge17_Node000010_Node000011"><a xlink:title=" ">
<path fill="none" stroke="#63b8ff" d="M1066.69,-282.02C1094.13,-285.25 1128.28,-289.27 1157.38,-292.69"/>
<polygon fill="#63b8ff" stroke="#63b8ff" points="1157.1,-296.18 1167.44,-293.88 1157.92,-289.23 1157.1,-296.18"/>
</a>
</g>
</g>
<!-- Node12&#45;&gt;Node10 -->
<g id="edge19_Node000012_Node000010" class="edge">
<title>Node12&#45;&gt;Node10</title>
<g id="a_edge19_Node000012_Node000010"><a xlink:title=" ">
<path fill="none" stroke="#63b8ff" d="M856.83,-242.6C885.25,-248.65 922.38,-256.56 953.41,-263.16"/>
<polygon fill="#63b8ff" stroke="#63b8ff" points="952.74,-266.6 963.25,-265.26 954.2,-259.75 952.74,-266.6"/>
</a>
</g>
</g>
<!-- Node13 -->
<g id="Node000013" class="node">
<title>Node13</title>
<g id="a_Node000013"><a xlink:href="class_bit_vector.html#a68b14af0886039ddcf55c82a250deb4c" target="_top" xlink:title="How many element can be contained in this kind of object.">
<polygon fill="white" stroke="#666666" points="1300,-215.06 1142,-215.06 1142,-185.06 1300,-185.06 1300,-215.06"/>
<text text-anchor="start" x="1150" y="-203.06" font-family="Helvetica,sans-Serif" font-size="10.00">BitVector::maximumElement</text>
<text text-anchor="middle" x="1221" y="-192.06" font-family="Helvetica,sans-Serif" font-size="10.00">Number</text>
</a>
</g>
</g>
<!-- Node12&#45;&gt;Node13 -->
<g id="edge20_Node000012_Node000013" class="edge">
<title>Node12&#45;&gt;Node13</title>
<g id="a_edge20_Node000012_Node000013"><a xlink:title=" ">
<path fill="none" stroke="#63b8ff" d="M863.7,-223.55C882.61,-220.39 904.22,-217.15 924,-215.06 993.66,-207.72 1072.93,-203.95 1131.89,-202.02"/>
<polygon fill="#63b8ff" stroke="#63b8ff" points="1132.03,-205.52 1141.92,-201.7 1131.81,-198.52 1132.03,-205.52"/>
</a>
</g>
</g>
<!-- Node14 -->
<g id="Node000014" class="node">
<title>Node14</title>
<g id="a_Node000014"><a xlink:href="class_bit_vector.html#aa3228d2bacb1bb0f6072d73d43a49456" target="_top" xlink:title="How many octet can be contained in this kind of object.">
<polygon fill="white" stroke="#666666" points="1106,-242.56 924,-242.56 924,-223.56 1106,-223.56 1106,-242.56"/>
<text text-anchor="middle" x="1015" y="-230.56" font-family="Helvetica,sans-Serif" font-size="10.00">BitVector::maximumOctetNumber</text>
</a>
</g>
</g>
<!-- Node12&#45;&gt;Node14 -->
<g id="edge22_Node000012_Node000014" class="edge">
<title>Node12&#45;&gt;Node14</title>
<g id="a_edge22_Node000012_Node000014"><a xlink:title=" ">
<path fill="none" stroke="#63b8ff" d="M888.08,-233.06C896.44,-233.06 905.04,-233.06 913.64,-233.06"/>
<polygon fill="#63b8ff" stroke="#63b8ff" points="913.71,-236.56 923.71,-233.06 913.71,-229.56 913.71,-236.56"/>
</a>
</g>
</g>
<!-- Node13&#45;&gt;Node2 -->
<g id="edge21_Node000013_Node000002" class="edge">
<title>Node13&#45;&gt;Node2</title>
<g id="a_edge21_Node000013_Node000002"><a xlink:title=" ">
<path fill="none" stroke="#63b8ff" d="M1276.04,-215.1C1294.37,-220.2 1314.62,-225.84 1332.11,-230.71"/>
<polygon fill="#63b8ff" stroke="#63b8ff" points="1331.48,-234.16 1342.06,-233.47 1333.36,-227.42 1331.48,-234.16"/>
</a>
</g>
</g>
<!-- Node14&#45;&gt;Node2 -->
<g id="edge23_Node000014_Node000002" class="edge">
<title>Node14&#45;&gt;Node2</title>
<g id="a_edge23_Node000014_Node000002"><a xlink:title=" ">
<path fill="none" stroke="#63b8ff" d="M1106.04,-235.56C1175.34,-237.48 1268.62,-240.07 1325.56,-241.65"/>
<polygon fill="#63b8ff" stroke="#63b8ff" points="1325.66,-245.15 1335.75,-241.93 1325.85,-238.15 1325.66,-245.15"/>
</a>
</g>
</g>
<!-- Node16&#45;&gt;Node7 -->
<g id="edge26_Node000016_Node000007" class="edge">
<title>Node16&#45;&gt;Node7</title>
<g id="a_edge26_Node000016_Node000007"><a xlink:title=" ">
<path fill="none" stroke="#63b8ff" d="M862.03,-43.06C932.91,-43.06 1063.08,-43.06 1145.39,-43.06"/>
<polygon fill="#63b8ff" stroke="#63b8ff" points="1145.44,-46.56 1155.44,-43.06 1145.44,-39.56 1145.44,-46.56"/>
</a>
</g>
</g>
<!-- Node17&#45;&gt;Node2 -->
<g id="edge36_Node000017_Node000002" class="edge">
<title>Node17&#45;&gt;Node2</title>
<g id="a_edge36_Node000017_Node000002"><a xlink:title=" ">
<path fill="none" stroke="#63b8ff" d="M301.21,-455.62C378.82,-462.33 500.14,-471.06 605.5,-471.06 605.5,-471.06 605.5,-471.06 1016,-471.06 1143.35,-471.06 1199.44,-511.19 1300,-433.06 1354.81,-390.48 1370.51,-302.37 1374.88,-262.92"/>
<polygon fill="#63b8ff" stroke="#63b8ff" points="1378.36,-263.25 1375.85,-252.96 1371.4,-262.57 1378.36,-263.25"/>
</a>
</g>
</g>
<!-- Node18 -->
<g id="Node000018" class="node">
<title>Node18</title>
<g id="a_Node000018"><a xlink:href="class_bit_vector.html#ad64e921d07b9528a532477f282af135c" target="_top" xlink:title="How many element can fit in this vector without having to resize the vector ?">
<polygon fill="white" stroke="#666666" points="479,-441.06 337,-441.06 337,-411.06 479,-411.06 479,-441.06"/>
<text text-anchor="start" x="345" y="-429.06" font-family="Helvetica,sans-Serif" font-size="10.00">BitVector::currentElement</text>
<text text-anchor="middle" x="408" y="-418.06" font-family="Helvetica,sans-Serif" font-size="10.00">Capacity</text>
</a>
</g>
</g>
<!-- Node17&#45;&gt;Node18 -->
<g id="edge28_Node000017_Node000018" class="edge">
<title>Node17&#45;&gt;Node18</title>
<g id="a_edge28_Node000017_Node000018"><a xlink:title=" ">
<path fill="none" stroke="#63b8ff" d="M301.25,-438.6C309.79,-437.59 318.48,-436.56 327.02,-435.55"/>
<polygon fill="#63b8ff" stroke="#63b8ff" points="327.44,-439.02 336.96,-434.37 326.62,-432.07 327.44,-439.02"/>
</a>
</g>
</g>
<!-- Node18&#45;&gt;Node15 -->
<g id="edge35_Node000018_Node000015" class="edge">
<title>Node18&#45;&gt;Node15</title>
<g id="a_edge35_Node000018_Node000015"><a xlink:title=" ">
<path fill="none" stroke="#63b8ff" d="M479.11,-412.5C501.47,-408.18 525.95,-403.44 547.37,-399.3"/>
<polygon fill="#63b8ff" stroke="#63b8ff" points="548.14,-402.72 557.29,-397.38 546.81,-395.85 548.14,-402.72"/>
</a>
</g>
</g>
<!-- Node19 -->
<g id="Node000019" class="node">
<title>Node19</title>
<g id="a_Node000019"><a xlink:href="class_bit_vector.html#a5af3c70f593aac387de23c7e6e5ae57e" target="_top" xlink:title="Find the element that correspond to coord .">
<polygon fill="white" stroke="#666666" points="680,-435.56 533,-435.56 533,-416.56 680,-416.56 680,-435.56"/>
<text text-anchor="middle" x="606.5" y="-423.56" font-family="Helvetica,sans-Serif" font-size="10.00">BitVector::indexCoordinate</text>
</a>
</g>
</g>
<!-- Node18&#45;&gt;Node19 -->
<g id="edge29_Node000018_Node000019" class="edge">
<title>Node18&#45;&gt;Node19</title>
<g id="a_edge29_Node000018_Node000019"><a xlink:title=" ">
<path fill="none" stroke="#63b8ff" d="M479.11,-426.06C493.12,-426.06 507.97,-426.06 522.37,-426.06"/>
<polygon fill="#63b8ff" stroke="#63b8ff" points="522.76,-429.56 532.76,-426.06 522.76,-422.56 522.76,-429.56"/>
</a>
</g>
</g>
<!-- Node19&#45;&gt;Node2 -->
<g id="edge30_Node000019_Node000002" class="edge">
<title>Node19&#45;&gt;Node2</title>
<g id="a_edge30_Node000019_Node000002"><a xlink:title=" ">
<path fill="none" stroke="#63b8ff" d="M680.15,-432.57C836.9,-445.16 1200.69,-466.05 1300,-399.06 1347.18,-367.23 1366.37,-297.59 1373.2,-263.15"/>
<polygon fill="#63b8ff" stroke="#63b8ff" points="1376.71,-263.4 1375.06,-252.93 1369.83,-262.14 1376.71,-263.4"/>
</a>
</g>
</g>
<!-- Node20 -->
<g id="Node000020" class="node">
<title>Node20</title>
<g id="a_Node000020"><a xlink:href="class_bit_vector.html#a354c83853bc3622efa5d45efcae97286" target="_top" xlink:title="Give more detailed on BiteVector::indexCoordinate.">
<polygon fill="white" stroke="#666666" points="884.5,-405.06 737.5,-405.06 737.5,-375.06 884.5,-375.06 884.5,-405.06"/>
<text text-anchor="start" x="745.5" y="-393.06" font-family="Helvetica,sans-Serif" font-size="10.00">BitVector::indexCoordinate</text>
<text text-anchor="middle" x="811" y="-382.06" font-family="Helvetica,sans-Serif" font-size="10.00">Untreated</text>
</a>
</g>
</g>
<!-- Node19&#45;&gt;Node20 -->
<g id="edge31_Node000019_Node000020" class="edge">
<title>Node19&#45;&gt;Node20</title>
<g id="a_edge31_Node000019_Node000020"><a xlink:title=" ">
<path fill="none" stroke="#63b8ff" d="M660.97,-416.56C681.19,-412.96 704.71,-408.78 727.01,-404.81"/>
<polygon fill="#63b8ff" stroke="#63b8ff" points="727.92,-408.21 737.15,-403.01 726.69,-401.32 727.92,-408.21"/>
</a>
</g>
</g>
<!-- Node20&#45;&gt;Node2 -->
<g id="edge32_Node000020_Node000002" class="edge">
<title>Node20&#45;&gt;Node2</title>
<g id="a_edge32_Node000020_Node000002"><a xlink:title=" ">
<path fill="none" stroke="#63b8ff" d="M884.86,-395.51C1003.47,-403.03 1231.91,-411.46 1300,-371.06 1340.67,-346.93 1362.25,-292.07 1371.28,-262.61"/>
<polygon fill="#63b8ff" stroke="#63b8ff" points="1374.73,-263.27 1374.13,-252.69 1368,-261.33 1374.73,-263.27"/>
</a>
</g>
</g>
<!-- Node20&#45;&gt;Node10 -->
<g id="edge33_Node000020_Node000010" class="edge">
<title>Node20&#45;&gt;Node10</title>
<g id="a_edge33_Node000020_Node000010"><a xlink:title=" ">
<path fill="none" stroke="#63b8ff" d="M828.24,-374.88C849.01,-356.17 886.77,-324.47 924,-305.06 933.27,-300.23 943.49,-296.01 953.62,-292.39"/>
<polygon fill="#63b8ff" stroke="#63b8ff" points="954.93,-295.65 963.27,-289.11 952.68,-289.02 954.93,-295.65"/>
</a>
</g>
</g>
<!-- Node20&#45;&gt;Node11 -->
<g id="edge34_Node000020_Node000011" class="edge">
<title>Node20&#45;&gt;Node11</title>
<g id="a_edge34_Node000020_Node000011"><a xlink:title=" ">
<path fill="none" stroke="#63b8ff" d="M880.29,-375C957.69,-357.92 1082.78,-330.33 1157.64,-313.82"/>
<polygon fill="#63b8ff" stroke="#63b8ff" points="1158.4,-317.23 1167.41,-311.66 1156.89,-310.4 1158.4,-317.23"/>
</a>
</g>
</g>
</g>
</svg>

<g id="navigator" transform="translate(0 0)" fill="#404254">
  <rect fill="#f2f5e9" fill-opacity="0.5" stroke="#606060" stroke-width=".5" x="0" y="0" width="60" height="60"/>
  <use id="zoomplus" xlink:href="#zoomPlus" x="17" y="9" onmousedown="handleZoom(evt,'in')"/>
  <use id="zoomminus" xlink:href="#zoomMin" x="42" y="9" onmousedown="handleZoom(evt,'out')"/>
  <use id="reset" xlink:href="#resetDef" x="30" y="36" onmousedown="handleReset()"/>
   <use id="arrowup" xlink:href="#arrowUp" x="0" y="0" onmousedown="handlePan(0,-1)"/>
  <use id="arrowright" xlink:href="#arrowRight" x="0" y="0" onmousedown="handlePan(1,0)"/>
  <use id="arrowdown" xlink:href="#arrowDown" x="0" y="0" onmousedown="handlePan(0,1)"/>
  <use id="arrowleft" xlink:href="#arrowLeft" x="0" y="0" onmousedown="handlePan(-1,0)"/>
</g>
<svg viewBox="0 0 15 15" width="100%" height="30px" preserveAspectRatio="xMaxYMin meet">
 <g id="arrow_out" transform="scale(0.3 0.3)">
  <a xlink:href="class_bit_vector_a87f84edf5dd56606b26e8741ba6ced02_cgraph_org.svg" target="_base">
   <rect id="button" ry="5" rx="5" y="6" x="6" height="38" width="38"
        fill="#f2f5e9" fill-opacity="0.5" stroke="#606060" stroke-width="1.0"/>
   <path id="arrow"
     d="M 11.500037,31.436501 C 11.940474,20.09759 22.043105,11.32322 32.158766,21.979434 L 37.068811,17.246167 C 37.068811,17.246167 37.088388,32 37.088388,32 L 22.160133,31.978069 C 22.160133,31.978069 26.997745,27.140456 26.997745,27.140456 C 18.528582,18.264221 13.291696,25.230495 11.500037,31.436501 z"
     style="fill:#404040;"/>
  </a>
 </g>
</svg>

<style type='text/css'>
<![CDATA[
[data-mouse-over-selected='false'] { opacity: 0.7; }
[data-mouse-over-selected='true']  { opacity: 1.0; }
]]>
</style>
<script type="application/ecmascript"><![CDATA[
document.addEventListener('DOMContentLoaded', (event) => {
  highlightEdges();
  highlightAdjacentNodes();
});
]]></script>
</svg>
