<?xml version="1.0" encoding="UTF-8" standalone="no"?>
<!DOCTYPE svg PUBLIC "-//W3C//DTD SVG 1.1//EN"
 "http://www.w3.org/Graphics/SVG/1.1/DTD/svg11.dtd">
<!-- Generated by graphviz version 2.43.0 (0)
 -->
<!-- Title: Sequence::translationTab Pages: 1 -->
<svg width="822pt" height="124pt"
 viewBox="0.00 0.00 822.00 124.00" xmlns="http://www.w3.org/2000/svg" xmlns:xlink="http://www.w3.org/1999/xlink">
<g id="graph0" class="graph" transform="scale(1 1) rotate(0) translate(4 120)">
<title>Sequence::translationTab</title>
<!-- Node1 -->
<g id="Node000001" class="node">
<title>Node1</title>
<g id="a_Node000001"><a xlink:title="Give a map that compress / decompress char used by Sequence.">
<polygon fill="#999999" stroke="#666666" points="139,-66 0,-66 0,-47 139,-47 139,-66"/>
<text text-anchor="middle" x="69.5" y="-54" font-family="Helvetica,sans-Serif" font-size="10.00">Sequence::translationTab</text>
</a>
</g>
</g>
<!-- Node2 -->
<g id="Node000002" class="node">
<title>Node2</title>
<g id="a_Node000002"><a xlink:href="class_sequence.html#a555c6e58957c4d07028eb5c67b1732ac" target="_top" xlink:title="Function used by Sequence::translationTab to create their compression map.">
<polygon fill="white" stroke="#666666" points="303,-19 175,-19 175,0 303,0 303,-19"/>
<text text-anchor="middle" x="239" y="-7" font-family="Helvetica,sans-Serif" font-size="10.00">Sequence::fillCodeMap</text>
</a>
</g>
</g>
<!-- Node1&#45;&gt;Node2 -->
<g id="edge1_Node000001_Node000002" class="edge">
<title>Node1&#45;&gt;Node2</title>
<g id="a_edge1_Node000001_Node000002"><a xlink:title=" ">
<path fill="none" stroke="#63b8ff" d="M104.4,-46.99C130.19,-39.75 165.91,-29.73 193.93,-21.87"/>
<polygon fill="#63b8ff" stroke="#63b8ff" points="195.18,-25.15 203.87,-19.08 193.29,-18.41 195.18,-25.15"/>
</a>
</g>
</g>
<!-- Node3 -->
<g id="Node000003" class="node">
<title>Node3</title>
<g id="a_Node000003"><a xlink:href="class_sequence.html#ad40777fd2f7ad3ae247fab02459e6759" target="_top" xlink:title="Retrieve the symbol at the position in the sequence.">
<polygon fill="white" stroke="#666666" points="426.5,-66 340.5,-66 340.5,-47 426.5,-47 426.5,-66"/>
<text text-anchor="middle" x="383.5" y="-54" font-family="Helvetica,sans-Serif" font-size="10.00">Sequence::get</text>
</a>
</g>
</g>
<!-- Node1&#45;&gt;Node3 -->
<g id="edge12_Node000001_Node000003" class="edge">
<title>Node1&#45;&gt;Node3</title>
<g id="a_edge12_Node000001_Node000003"><a xlink:title=" ">
<path fill="none" stroke="#63b8ff" d="M139.36,-50.79C196.89,-49.25 277.72,-49.42 330.1,-51.3"/>
<polygon fill="#63b8ff" stroke="#63b8ff" points="330.05,-54.8 340.18,-51.7 330.33,-47.81 330.05,-54.8"/>
</a>
</g>
</g>
<!-- Node2&#45;&gt;Node3 -->
<g id="edge2_Node000002_Node000003" class="edge">
<title>Node2&#45;&gt;Node3</title>
<g id="a_edge2_Node000002_Node000003"><a xlink:title=" ">
<path fill="none" stroke="#63b8ff" d="M268.84,-19.01C290.33,-26.1 319.91,-35.86 343.51,-43.64"/>
<polygon fill="#63b8ff" stroke="#63b8ff" points="342.62,-47.03 353.22,-46.84 344.82,-40.39 342.62,-47.03"/>
</a>
</g>
</g>
<!-- Node7 -->
<g id="Node000007" class="node">
<title>Node7</title>
<g id="a_Node000007"><a xlink:href="class_sequence.html#acf21040958590f98163b3d11f19ea93e" target="_top" xlink:title="Give the number of element contained in this sequence.">
<polygon fill="white" stroke="#666666" points="428,-19 339,-19 339,0 428,0 428,-19"/>
<text text-anchor="middle" x="383.5" y="-7" font-family="Helvetica,sans-Serif" font-size="10.00">Sequence::size</text>
</a>
</g>
</g>
<!-- Node2&#45;&gt;Node7 -->
<g id="edge9_Node000002_Node000007" class="edge">
<title>Node2&#45;&gt;Node7</title>
<g id="a_edge9_Node000002_Node000007"><a xlink:title=" ">
<path fill="none" stroke="#63b8ff" d="M303.33,-9.5C311.8,-9.5 320.42,-9.5 328.7,-9.5"/>
<polygon fill="#63b8ff" stroke="#63b8ff" points="328.98,-13 338.98,-9.5 328.98,-6 328.98,-13"/>
</a>
</g>
</g>
<!-- Node3&#45;&gt;Node1 -->
<g id="edge8_Node000003_Node000001" class="edge">
<title>Node3&#45;&gt;Node1</title>
<g id="a_edge8_Node000003_Node000001"><a xlink:title=" ">
<path fill="none" stroke="#63b8ff" d="M340.18,-61.3C291.42,-63.43 210.23,-63.81 149.65,-62.46"/>
<polygon fill="#63b8ff" stroke="#63b8ff" points="149.44,-58.96 139.36,-62.21 149.27,-65.95 149.44,-58.96"/>
</a>
</g>
</g>
<!-- Node3&#45;&gt;Node3 -->
<g id="edge6_Node000003_Node000003" class="edge">
<title>Node3&#45;&gt;Node3</title>
<g id="a_edge6_Node000003_Node000003"><a xlink:title=" ">
<path fill="none" stroke="#63b8ff" d="M361.31,-66.08C350.51,-74.73 357.91,-84 383.5,-84 399.9,-84 408.82,-80.2 410.29,-75.19"/>
<polygon fill="#63b8ff" stroke="#63b8ff" points="413.32,-73.44 405.69,-66.08 407.07,-76.59 413.32,-73.44"/>
</a>
</g>
</g>
<!-- Node4 -->
<g id="Node000004" class="node">
<title>Node4</title>
<g id="a_Node000004"><a xlink:href="class_bit_vector.html#aebe159444eb9d619959b7325ac5dac2d" target="_top" xlink:title="Return the value of the bit at the position coord.">
<polygon fill="white" stroke="#666666" points="581.5,-98 498.5,-98 498.5,-79 581.5,-79 581.5,-98"/>
<text text-anchor="middle" x="540" y="-86" font-family="Helvetica,sans-Serif" font-size="10.00">BitVector::get</text>
</a>
</g>
</g>
<!-- Node3&#45;&gt;Node4 -->
<g id="edge3_Node000003_Node000004" class="edge">
<title>Node3&#45;&gt;Node4</title>
<g id="a_edge3_Node000003_Node000004"><a xlink:title=" ">
<path fill="none" stroke="#63b8ff" d="M426.72,-65.24C445.83,-69.2 468.56,-73.91 488.56,-78.05"/>
<polygon fill="#63b8ff" stroke="#63b8ff" points="487.93,-81.5 498.43,-80.1 489.35,-74.64 487.93,-81.5"/>
</a>
</g>
</g>
<!-- Node6 -->
<g id="Node000006" class="node">
<title>Node6</title>
<g id="a_Node000006"><a xlink:href="class_sequence.html#a8181f024304b3fb5f55c7118f648cc61" target="_top" xlink:title="Return a char (same format as Sequence::getType()) that indicate which alphabet is used in the during...">
<polygon fill="white" stroke="#666666" points="616,-61 464,-61 464,-42 616,-42 616,-61"/>
<text text-anchor="middle" x="540" y="-49" font-family="Helvetica,sans-Serif" font-size="10.00">Sequence::getEncodingType</text>
</a>
</g>
</g>
<!-- Node3&#45;&gt;Node6 -->
<g id="edge7_Node000003_Node000006" class="edge">
<title>Node3&#45;&gt;Node6</title>
<g id="a_edge7_Node000003_Node000006"><a xlink:title=" ">
<path fill="none" stroke="#63b8ff" d="M426.72,-55.13C435.18,-54.86 444.36,-54.56 453.69,-54.26"/>
<polygon fill="#63b8ff" stroke="#63b8ff" points="453.98,-57.75 463.86,-53.93 453.75,-50.76 453.98,-57.75"/>
</a>
</g>
</g>
<!-- Node4&#45;&gt;Node4 -->
<g id="edge4_Node000004_Node000004" class="edge">
<title>Node4&#45;&gt;Node4</title>
<g id="a_edge4_Node000004_Node000004"><a xlink:title=" ">
<path fill="none" stroke="#63b8ff" d="M515.96,-98.08C504.26,-106.73 512.27,-116 540,-116 558.2,-116 567.9,-112.01 569.12,-106.82"/>
<polygon fill="#63b8ff" stroke="#63b8ff" points="572.09,-104.97 564.04,-98.08 566.04,-108.49 572.09,-104.97"/>
</a>
</g>
</g>
<!-- Node5 -->
<g id="Node000005" class="node">
<title>Node5</title>
<g id="a_Node000005"><a xlink:href="class_bit_vector_1_1_coords.html#a2892f7f46c4af93f9733e312229d8ec1" target="_top" xlink:title="Get Coords::octet .">
<polygon fill="white" stroke="#666666" points="786.5,-103.5 679.5,-103.5 679.5,-73.5 786.5,-73.5 786.5,-103.5"/>
<text text-anchor="start" x="687.5" y="-91.5" font-family="Helvetica,sans-Serif" font-size="10.00">BitVector::Coords::</text>
<text text-anchor="middle" x="733" y="-80.5" font-family="Helvetica,sans-Serif" font-size="10.00">getOctet</text>
</a>
</g>
</g>
<!-- Node4&#45;&gt;Node5 -->
<g id="edge5_Node000004_Node000005" class="edge">
<title>Node4&#45;&gt;Node5</title>
<g id="a_edge5_Node000004_Node000005"><a xlink:title=" ">
<path fill="none" stroke="#63b8ff" d="M581.51,-88.5C606.86,-88.5 640.07,-88.5 668.83,-88.5"/>
<polygon fill="#63b8ff" stroke="#63b8ff" points="669.21,-92 679.21,-88.5 669.21,-85 669.21,-92"/>
</a>
</g>
</g>
<!-- Node8 -->
<g id="Node000008" class="node">
<title>Node8</title>
<g id="a_Node000008"><a xlink:href="class_bit_vector.html#ab30ea2b408107e4e6bc8095b5a64a1dd" target="_top" xlink:title="Number of element inside this object.">
<polygon fill="white" stroke="#666666" points="583,-19 497,-19 497,0 583,0 583,-19"/>
<text text-anchor="middle" x="540" y="-7" font-family="Helvetica,sans-Serif" font-size="10.00">BitVector::size</text>
</a>
</g>
</g>
<!-- Node7&#45;&gt;Node8 -->
<g id="edge10_Node000007_Node000008" class="edge">
<title>Node7&#45;&gt;Node8</title>
<g id="a_edge10_Node000007_Node000008"><a xlink:title=" ">
<path fill="none" stroke="#63b8ff" d="M428.36,-9.5C446.5,-9.5 467.68,-9.5 486.63,-9.5"/>
<polygon fill="#63b8ff" stroke="#63b8ff" points="486.89,-13 496.89,-9.5 486.89,-6 486.89,-13"/>
</a>
</g>
</g>
<!-- Node9 -->
<g id="Node000009" class="node">
<title>Node9</title>
<g id="a_Node000009"><a xlink:href="class_bit_vector.html#a5339660cfb315ab5de7f78bdf5af4ce1" target="_top" xlink:title="Get BitVector::_element_number.">
<polygon fill="white" stroke="#666666" points="814,-19 652,-19 652,0 814,0 814,-19"/>
<text text-anchor="middle" x="733" y="-7" font-family="Helvetica,sans-Serif" font-size="10.00">BitVector::getElementNumber</text>
</a>
</g>
</g>
<!-- Node8&#45;&gt;Node9 -->
<g id="edge11_Node000008_Node000009" class="edge">
<title>Node8&#45;&gt;Node9</title>
<g id="a_edge11_Node000008_Node000009"><a xlink:title=" ">
<path fill="none" stroke="#63b8ff" d="M583.39,-9.5C600.59,-9.5 621.17,-9.5 641.45,-9.5"/>
<polygon fill="#63b8ff" stroke="#63b8ff" points="641.69,-13 651.69,-9.5 641.69,-6 641.69,-13"/>
</a>
</g>
</g>
</g>
</svg>
