<?xml version="1.0" encoding="UTF-8" standalone="no"?>
<!DOCTYPE svg PUBLIC "-//W3C//DTD SVG 1.1//EN"
 "http://www.w3.org/Graphics/SVG/1.1/DTD/svg11.dtd">
<!-- Generated by graphviz version 2.43.0 (0)
 -->
<!-- Title: BitVector::insert Pages: 1 -->
<!--zoomable 476 -->

<svg id="main" version="1.1" xmlns="http://www.w3.org/2000/svg" xmlns:xlink="http://www.w3.org/1999/xlink" xml:space="preserve" onload="init(evt)">
<style type="text/css"><![CDATA[
.node, .edge {opacity: 0.7;}
.node.selected, .edge.selected {opacity: 1;}
.edge:hover path { stroke: red; }
.edge:hover polygon { stroke: red; fill: red; }
]]></style>

<defs>
  <circle id="rim" cx="0" cy="0" r="7"/>
  <circle id="rim2" cx="0" cy="0" r="3.5"/>
  <g id="zoomPlus">
    <use xlink:href="#rim" fill="#404040"><set attributeName="fill" to="#808080" begin="zoomplus.mouseover" end="zoomplus.mouseout"/></use>
    <path d="M-4,0h8M0,-4v8" fill="none" stroke="white" stroke-width="1.5" pointer-events="none"/>
  </g>
  <g id="zoomMin">
    <use xlink:href="#rim" fill="#404040"><set attributeName="fill" to="#808080" begin="zoomminus.mouseover" end="zoomminus.mouseout"/></use>
    <path d="M-4,0h8" fill="none" stroke="white" stroke-width="1.5" pointer-events="none"/>
  </g>
  <g id="arrowUp" transform="translate(30 24)">
    <use xlink:href="#rim"/>
    <path pointer-events="none" fill="none" stroke="white" stroke-width="1.5" d="M0,-3.0v7 M-2.5,-0.5L0,-3.0L2.5,-0.5"/>
  </g>
  <g id="arrowRight" transform="rotate(90) translate(36 -43)">
    <use xlink:href="#rim"/>
    <path pointer-events="none" fill="none" stroke="white" stroke-width="1.5" d="M0,-3.0v7 M-2.5,-0.5L0,-3.0L2.5,-0.5"/>
  </g>
  <g id="arrowDown" transform="rotate(180) translate(-30 -48)">
    <use xlink:href="#rim"/>
    <path pointer-events="none" fill="none" stroke="white" stroke-width="1.5" d="M0,-3.0v7 M-2.5,-0.5L0,-3.0L2.5,-0.5"/>
  </g>
  <g id="arrowLeft" transform="rotate(270) translate(-36 17)">
    <use xlink:href="#rim"/>
    <path pointer-events="none" fill="none" stroke="white" stroke-width="1.5" d="M0,-3.0v7 M-2.5,-0.5L0,-3.0L2.5,-0.5"/>
  </g>
  <g id="resetDef">
    <use xlink:href="#rim2" fill="#404040"><set attributeName="fill" to="#808080" begin="reset.mouseover" end="reset.mouseout"/></use>
  </g>
</defs>
<script type="application/ecmascript">
var viewWidth = 1827;
var viewHeight = 476;
var sectionId = 'dynsection-34';
</script>
<script type="application/ecmascript" xlink:href="svg.min.js"/>
<svg id="graph" class="graph">
<g id="viewport">
<title>BitVector::insert</title>
<!-- Node1 -->
<g id="Node000001" class="node">
<title>Node1</title>
<g id="a_Node000001"><a xlink:title="Insert a number_of_elements inside the vector at the index pos .">
<polygon fill="#999999" stroke="#666666" points="95,-334.58 0,-334.58 0,-315.58 95,-315.58 95,-334.58"/>
<text text-anchor="middle" x="47.5" y="-322.58" font-family="Helvetica,sans-Serif" font-size="10.00">BitVector::insert</text>
</a>
</g>
</g>
<!-- Node2 -->
<g id="Node000002" class="node">
<title>Node2</title>
<g id="a_Node000002"><a xlink:href="class_bit_vector.html#aebe159444eb9d619959b7325ac5dac2d" target="_top" xlink:title="Return the value of the bit at the position coord.">
<polygon fill="white" stroke="#666666" points="1676,-239.58 1593,-239.58 1593,-220.58 1676,-220.58 1676,-239.58"/>
<text text-anchor="middle" x="1634.5" y="-227.58" font-family="Helvetica,sans-Serif" font-size="10.00">BitVector::get</text>
</a>
</g>
</g>
<!-- Node1&#45;&gt;Node2 -->
<g id="edge1_Node000001_Node000002" class="edge">
<title>Node1&#45;&gt;Node2</title>
<g id="a_edge1_Node000001_Node000002"><a xlink:title=" ">
<path fill="none" stroke="#63b8ff" d="M61.26,-334.68C105.18,-366.74 255.08,-468.08 395.5,-468.08 395.5,-468.08 395.5,-468.08 1273,-468.08 1403.9,-468.08 1456.58,-474.04 1557,-390.08 1601.56,-352.81 1621.99,-283.57 1629.66,-249.72"/>
<polygon fill="#63b8ff" stroke="#63b8ff" points="1633.13,-250.21 1631.78,-239.7 1626.28,-248.76 1633.13,-250.21"/>
</a>
</g>
</g>
<!-- Node4 -->
<g id="Node000004" class="node">
<title>Node4</title>
<g id="a_Node000004"><a xlink:href="class_bit_vector.html#a686af396e4dff1536b7588213726c4cc" target="_top" xlink:title="Insert a number of blank position inside BitVector::_data.">
<polygon fill="white" stroke="#666666" points="309,-258.58 131,-258.58 131,-239.58 309,-239.58 309,-258.58"/>
<text text-anchor="middle" x="220" y="-246.58" font-family="Helvetica,sans-Serif" font-size="10.00">BitVector::makeRoomForElement</text>
</a>
</g>
</g>
<!-- Node1&#45;&gt;Node4 -->
<g id="edge4_Node000001_Node000004" class="edge">
<title>Node1&#45;&gt;Node4</title>
<g id="a_edge4_Node000001_Node000004"><a xlink:title=" ">
<path fill="none" stroke="#63b8ff" d="M70.09,-315.45C99.94,-302.14 153.98,-278.06 188.1,-262.85"/>
<polygon fill="#63b8ff" stroke="#63b8ff" points="189.87,-265.89 197.58,-258.62 187.02,-259.5 189.87,-265.89"/>
</a>
</g>
</g>
<!-- Node6 -->
<g id="Node000006" class="node">
<title>Node6</title>
<g id="a_Node000006"><a xlink:href="class_bit_vector.html#aca24053f655c825de0f06ec86fff1cec" target="_top" xlink:title="Replace an element by another element. Can add an element to the list if index = BitVector::_element_...">
<polygon fill="white" stroke="#666666" points="566,-315.58 484,-315.58 484,-296.58 566,-296.58 566,-315.58"/>
<text text-anchor="middle" x="525" y="-303.58" font-family="Helvetica,sans-Serif" font-size="10.00">BitVector::set</text>
</a>
</g>
</g>
<!-- Node1&#45;&gt;Node6 -->
<g id="edge32_Node000001_Node000006" class="edge">
<title>Node1&#45;&gt;Node6</title>
<g id="a_edge32_Node000001_Node000006"><a xlink:title=" ">
<path fill="none" stroke="#63b8ff" d="M95.39,-323.2C185.3,-319.61 381.18,-311.78 473.69,-308.09"/>
<polygon fill="#63b8ff" stroke="#63b8ff" points="474.06,-311.57 483.92,-307.68 473.78,-304.58 474.06,-311.57"/>
</a>
</g>
</g>
<!-- Node2&#45;&gt;Node2 -->
<g id="edge2_Node000002_Node000002" class="edge">
<title>Node2&#45;&gt;Node2</title>
<g id="a_edge2_Node000002_Node000002"><a xlink:title=" ">
<path fill="none" stroke="#63b8ff" d="M1614.46,-239.66C1604.72,-248.31 1611.39,-257.58 1634.5,-257.58 1649.3,-257.58 1657.36,-253.77 1658.68,-248.76"/>
<polygon fill="#63b8ff" stroke="#63b8ff" points="1661.86,-247.31 1654.54,-239.66 1655.49,-250.21 1661.86,-247.31"/>
</a>
</g>
</g>
<!-- Node3 -->
<g id="Node000003" class="node">
<title>Node3</title>
<g id="a_Node000003"><a xlink:href="class_bit_vector_1_1_coords.html#a2892f7f46c4af93f9733e312229d8ec1" target="_top" xlink:title="Get Coords::octet .">
<polygon fill="white" stroke="#666666" points="1819,-245.08 1712,-245.08 1712,-215.08 1819,-215.08 1819,-245.08"/>
<text text-anchor="start" x="1720" y="-233.08" font-family="Helvetica,sans-Serif" font-size="10.00">BitVector::Coords::</text>
<text text-anchor="middle" x="1765.5" y="-222.08" font-family="Helvetica,sans-Serif" font-size="10.00">getOctet</text>
</a>
</g>
</g>
<!-- Node2&#45;&gt;Node3 -->
<g id="edge3_Node000002_Node000003" class="edge">
<title>Node2&#45;&gt;Node3</title>
<g id="a_edge3_Node000002_Node000003"><a xlink:title=" ">
<path fill="none" stroke="#63b8ff" d="M1676.32,-230.08C1684.38,-230.08 1693.02,-230.08 1701.62,-230.08"/>
<polygon fill="#63b8ff" stroke="#63b8ff" points="1701.66,-233.58 1711.66,-230.08 1701.66,-226.58 1701.66,-233.58"/>
</a>
</g>
</g>
<!-- Node4&#45;&gt;Node2 -->
<g id="edge29_Node000004_Node000002" class="edge">
<title>Node4&#45;&gt;Node2</title>
<g id="a_edge29_Node000004_Node000002"><a xlink:title=" ">
<path fill="none" stroke="#63b8ff" d="M226.91,-239.53C254.55,-196.19 375.97,-20.08 524,-20.08 524,-20.08 524,-20.08 1273,-20.08 1399.5,-20.08 1454.66,35.28 1557,-39.08 1613.67,-80.25 1628.41,-170.42 1632.2,-210.36"/>
<polygon fill="#63b8ff" stroke="#63b8ff" points="1628.72,-210.74 1633.02,-220.42 1635.7,-210.17 1628.72,-210.74"/>
</a>
</g>
</g>
<!-- Node5 -->
<g id="Node000005" class="node">
<title>Node5</title>
<g id="a_Node000005"><a xlink:href="class_bit_vector.html#afbdbe8a5003f5941ffd5ab095cf87d88" target="_top" xlink:title="Add an element at the end of the vector.">
<polygon fill="white" stroke="#666666" points="448,-258.58 345,-258.58 345,-239.58 448,-239.58 448,-258.58"/>
<text text-anchor="middle" x="396.5" y="-246.58" font-family="Helvetica,sans-Serif" font-size="10.00">BitVector::append</text>
</a>
</g>
</g>
<!-- Node4&#45;&gt;Node5 -->
<g id="edge5_Node000004_Node000005" class="edge">
<title>Node4&#45;&gt;Node5</title>
<g id="a_edge5_Node000004_Node000005"><a xlink:title=" ">
<path fill="none" stroke="#63b8ff" d="M309.02,-249.08C317.59,-249.08 326.16,-249.08 334.38,-249.08"/>
<polygon fill="#63b8ff" stroke="#63b8ff" points="334.6,-252.58 344.59,-249.08 334.59,-245.58 334.6,-252.58"/>
</a>
</g>
</g>
<!-- Node4&#45;&gt;Node6 -->
<g id="edge31_Node000004_Node000006" class="edge">
<title>Node4&#45;&gt;Node6</title>
<g id="a_edge31_Node000004_Node000006"><a xlink:title=" ">
<path fill="none" stroke="#63b8ff" d="M271.72,-258.62C327.86,-269.18 417.8,-286.1 473.75,-296.62"/>
<polygon fill="#63b8ff" stroke="#63b8ff" points="473.32,-300.1 483.79,-298.51 474.61,-293.22 473.32,-300.1"/>
</a>
</g>
</g>
<!-- Node14 -->
<g id="Node000014" class="node">
<title>Node14</title>
<g id="a_Node000014"><a xlink:href="class_bit_vector.html#ad36e7d0b4b1417ca434414fa40c72eb8" target="_top" xlink:title="How many element can be contained in this object knowing BitVector::_element_size.">
<polygon fill="white" stroke="#666666" points="1145,-125.58 991,-125.58 991,-106.58 1145,-106.58 1145,-125.58"/>
<text text-anchor="middle" x="1068" y="-113.58" font-family="Helvetica,sans-Serif" font-size="10.00">BitVector::maxElementLimit</text>
</a>
</g>
</g>
<!-- Node4&#45;&gt;Node14 -->
<g id="edge30_Node000004_Node000014" class="edge">
<title>Node4&#45;&gt;Node14</title>
<g id="a_edge30_Node000004_Node000014"><a xlink:title=" ">
<path fill="none" stroke="#63b8ff" d="M233.81,-239.55C274.18,-210.52 403.22,-125.08 524,-125.08 524,-125.08 524,-125.08 670,-125.08 777.1,-125.08 900.42,-121.76 980.83,-119.15"/>
<polygon fill="#63b8ff" stroke="#63b8ff" points="981.02,-122.65 990.9,-118.82 980.79,-115.65 981.02,-122.65"/>
</a>
</g>
</g>
<!-- Node5&#45;&gt;Node6 -->
<g id="edge6_Node000005_Node000006" class="edge">
<title>Node5&#45;&gt;Node6</title>
<g id="a_edge6_Node000005_Node000006"><a xlink:title=" ">
<path fill="none" stroke="#63b8ff" d="M418.67,-258.62C439.11,-267.82 470.26,-281.86 493.39,-292.28"/>
<polygon fill="#63b8ff" stroke="#63b8ff" points="492.2,-295.59 502.76,-296.5 495.08,-289.2 492.2,-295.59"/>
</a>
</g>
</g>
<!-- Node6&#45;&gt;Node2 -->
<g id="edge10_Node000006_Node000002" class="edge">
<title>Node6&#45;&gt;Node2</title>
<g id="a_edge10_Node000006_Node000002"><a xlink:title=" ">
<path fill="none" stroke="#63b8ff" d="M566.12,-314.17C577.67,-316.3 590.3,-318.46 602,-320.08 717.18,-335.96 746.23,-344.08 862.5,-344.08 862.5,-344.08 862.5,-344.08 1273,-344.08 1401.74,-344.08 1439.41,-339.48 1557,-287.08 1579.26,-277.16 1601.2,-259.81 1615.84,-246.85"/>
<polygon fill="#63b8ff" stroke="#63b8ff" points="1618.52,-249.14 1623.56,-239.82 1613.81,-243.97 1618.52,-249.14"/>
</a>
</g>
</g>
<!-- Node7 -->
<g id="Node000007" class="node">
<title>Node7</title>
<g id="a_Node000007"><a xlink:href="class_bit_vector.html#a8c3c1f0faa0bbf35638c7217a841cbd8" target="_top" xlink:title=" ">
<polygon fill="white" stroke="#666666" points="723.5,-391.58 614.5,-391.58 614.5,-372.58 723.5,-372.58 723.5,-391.58"/>
<text text-anchor="middle" x="669" y="-379.58" font-family="Helvetica,sans-Serif" font-size="10.00">BitVector::copyBits</text>
</a>
</g>
</g>
<!-- Node6&#45;&gt;Node7 -->
<g id="edge7_Node000006_Node000007" class="edge">
<title>Node6&#45;&gt;Node7</title>
<g id="a_edge7_Node000006_Node000007"><a xlink:title=" ">
<path fill="none" stroke="#63b8ff" d="M538.04,-315.73C552.54,-327.02 577.97,-345.73 602,-358.08 609.96,-362.16 618.78,-365.88 627.31,-369.1"/>
<polygon fill="#63b8ff" stroke="#63b8ff" points="626.17,-372.41 636.76,-372.52 628.55,-365.83 626.17,-372.41"/>
</a>
</g>
</g>
<!-- Node9 -->
<g id="Node000009" class="node">
<title>Node9</title>
<g id="a_Node000009"><a xlink:href="class_bit_vector.html#a115789c8a9812eabb52f8843cd4e9965" target="_top" xlink:title="Give the a coord object that represent the size of 1 element inside BitVector::_data.">
<polygon fill="white" stroke="#666666" points="1543.5,-277.58 1412.5,-277.58 1412.5,-258.58 1543.5,-258.58 1543.5,-277.58"/>
<text text-anchor="middle" x="1478" y="-265.58" font-family="Helvetica,sans-Serif" font-size="10.00">BitVector::getCoordUnit</text>
</a>
</g>
</g>
<!-- Node6&#45;&gt;Node9 -->
<g id="edge11_Node000006_Node000009" class="edge">
<title>Node6&#45;&gt;Node9</title>
<g id="a_edge11_Node000006_Node000009"><a xlink:title=" ">
<path fill="none" stroke="#63b8ff" d="M566.14,-306.08C629.23,-306.08 755.45,-306.08 862.5,-306.08 862.5,-306.08 862.5,-306.08 1069,-306.08 1186.51,-306.08 1322.25,-290.25 1403.76,-279.03"/>
<polygon fill="#63b8ff" stroke="#63b8ff" points="1404.49,-282.46 1413.92,-277.62 1403.53,-275.53 1404.49,-282.46"/>
</a>
</g>
</g>
<!-- Node10 -->
<g id="Node000010" class="node">
<title>Node10</title>
<g id="a_Node000010"><a xlink:href="class_bit_vector.html#a93ab8bc2ec39bf299ae28ffcad504b41" target="_top" xlink:title="Give the coords of the first bit of an element.">
<polygon fill="white" stroke="#666666" points="736,-239.58 602,-239.58 602,-220.58 736,-220.58 736,-239.58"/>
<text text-anchor="middle" x="669" y="-227.58" font-family="Helvetica,sans-Serif" font-size="10.00">BitVector::indexElement</text>
</a>
</g>
</g>
<!-- Node6&#45;&gt;Node10 -->
<g id="edge13_Node000006_Node000010" class="edge">
<title>Node6&#45;&gt;Node10</title>
<g id="a_edge13_Node000006_Node000010"><a xlink:title=" ">
<path fill="none" stroke="#63b8ff" d="M538.04,-296.42C552.54,-285.13 577.97,-266.42 602,-254.08 609.96,-249.99 618.78,-246.27 627.31,-243.05"/>
<polygon fill="#63b8ff" stroke="#63b8ff" points="628.55,-246.32 636.76,-239.63 626.17,-239.74 628.55,-246.32"/>
</a>
</g>
</g>
<!-- Node17 -->
<g id="Node000017" class="node">
<title>Node17</title>
<g id="a_Node000017"><a xlink:href="class_bit_vector.html#ab4d98ce4b8d36ed6af1aa46e67810972" target="_top" xlink:title="Give the last coordinates thar can be contained inside BitVector::_data with the current BitVector::_...">
<polygon fill="white" stroke="#666666" points="718,-428.58 620,-428.58 620,-409.58 718,-409.58 718,-428.58"/>
<text text-anchor="middle" x="669" y="-416.58" font-family="Helvetica,sans-Serif" font-size="10.00">BitVector::lastBit</text>
</a>
</g>
</g>
<!-- Node6&#45;&gt;Node17 -->
<g id="edge26_Node000006_Node000017" class="edge">
<title>Node6&#45;&gt;Node17</title>
<g id="a_edge26_Node000006_Node000017"><a xlink:title=" ">
<path fill="none" stroke="#63b8ff" d="M531.03,-315.84C541.5,-335.18 567.57,-378.46 602,-401.08 604.73,-402.87 607.63,-404.48 610.65,-405.94"/>
<polygon fill="#63b8ff" stroke="#63b8ff" points="609.35,-409.19 619.93,-409.84 612.07,-402.74 609.35,-409.19"/>
</a>
</g>
</g>
<!-- Node18 -->
<g id="Node000018" class="node">
<title>Node18</title>
<g id="a_Node000018"><a xlink:href="class_bit_vector.html#ab92cdd9780b949d9d762f58e1ee4a0ae" target="_top" xlink:title="Last postion of the vector.">
<polygon fill="white" stroke="#666666" points="1119,-277.58 1017,-277.58 1017,-258.58 1119,-258.58 1119,-277.58"/>
<text text-anchor="middle" x="1068" y="-265.58" font-family="Helvetica,sans-Serif" font-size="10.00">BitVector::lastPos</text>
</a>
</g>
</g>
<!-- Node6&#45;&gt;Node18 -->
<g id="edge27_Node000006_Node000018" class="edge">
<title>Node6&#45;&gt;Node18</title>
<g id="a_edge27_Node000006_Node000018"><a xlink:title=" ">
<path fill="none" stroke="#63b8ff" d="M566.08,-297.68C577.63,-295.54 590.27,-293.45 602,-292.08 746.61,-275.1 917.92,-270.13 1006.77,-268.68"/>
<polygon fill="#63b8ff" stroke="#63b8ff" points="1006.99,-272.17 1016.93,-268.52 1006.88,-265.17 1006.99,-272.17"/>
</a>
</g>
</g>
<!-- Node7&#45;&gt;Node2 -->
<g id="edge8_Node000007_Node000002" class="edge">
<title>Node7&#45;&gt;Node2</title>
<g id="a_edge8_Node000007_Node000002"><a xlink:title=" ">
<path fill="none" stroke="#63b8ff" d="M723.62,-382.08C799.9,-382.08 944.14,-382.08 1067,-382.08 1067,-382.08 1067,-382.08 1273,-382.08 1399.67,-382.08 1449.56,-425.17 1557,-358.08 1597.11,-333.03 1618.93,-278.56 1628.14,-249.4"/>
<polygon fill="#63b8ff" stroke="#63b8ff" points="1631.56,-250.17 1631.06,-239.58 1624.85,-248.17 1631.56,-250.17"/>
</a>
</g>
</g>
<!-- Node8 -->
<g id="Node000008" class="node">
<title>Node8</title>
<g id="a_Node000008"><a xlink:href="class_bit_vector_1_1_coords.html#a393207c752f8f9121aca38c938914154" target="_top" xlink:title="Get Coords::bit .">
<polygon fill="white" stroke="#666666" points="917,-440.08 810,-440.08 810,-410.08 917,-410.08 917,-440.08"/>
<text text-anchor="start" x="818" y="-428.08" font-family="Helvetica,sans-Serif" font-size="10.00">BitVector::Coords::</text>
<text text-anchor="middle" x="863.5" y="-417.08" font-family="Helvetica,sans-Serif" font-size="10.00">getBit</text>
</a>
</g>
</g>
<!-- Node7&#45;&gt;Node8 -->
<g id="edge9_Node000007_Node000008" class="edge">
<title>Node7&#45;&gt;Node8</title>
<g id="a_edge9_Node000007_Node000008"><a xlink:title=" ">
<path fill="none" stroke="#63b8ff" d="M712.72,-391.62C738.38,-397.35 771.49,-404.75 800.05,-411.13"/>
<polygon fill="#63b8ff" stroke="#63b8ff" points="799.42,-414.57 809.94,-413.34 800.95,-407.74 799.42,-414.57"/>
</a>
</g>
</g>
<!-- Node9&#45;&gt;Node2 -->
<g id="edge12_Node000009_Node000002" class="edge">
<title>Node9&#45;&gt;Node2</title>
<g id="a_edge12_Node000009_Node000002"><a xlink:title=" ">
<path fill="none" stroke="#63b8ff" d="M1517.99,-258.49C1538.28,-253.49 1563.29,-247.34 1584.85,-242.04"/>
<polygon fill="#63b8ff" stroke="#63b8ff" points="1585.92,-245.38 1594.79,-239.6 1584.25,-238.59 1585.92,-245.38"/>
</a>
</g>
</g>
<!-- Node10&#45;&gt;Node2 -->
<g id="edge14_Node000010_Node000002" class="edge">
<title>Node10&#45;&gt;Node2</title>
<g id="a_edge14_Node000010_Node000002"><a xlink:title=" ">
<path fill="none" stroke="#63b8ff" d="M736.03,-230.08C814.81,-230.08 950.52,-230.08 1067,-230.08 1067,-230.08 1067,-230.08 1273,-230.08 1383.43,-230.08 1512.89,-230.08 1582.69,-230.08"/>
<polygon fill="#63b8ff" stroke="#63b8ff" points="1582.95,-233.58 1592.95,-230.08 1582.95,-226.58 1582.95,-233.58"/>
</a>
</g>
</g>
<!-- Node11 -->
<g id="Node000011" class="node">
<title>Node11</title>
<g id="a_Node000011"><a xlink:href="class_bit_vector.html#a04e6d0b67ee9b42ccec437b0176067fe" target="_top" xlink:title="Give A size_t that represent the coords of the first bit of an element.">
<polygon fill="white" stroke="#666666" points="955,-182.58 772,-182.58 772,-163.58 955,-163.58 955,-182.58"/>
<text text-anchor="middle" x="863.5" y="-170.58" font-family="Helvetica,sans-Serif" font-size="10.00">BitVector::indexElementUntreated</text>
</a>
</g>
</g>
<!-- Node10&#45;&gt;Node11 -->
<g id="edge15_Node000010_Node000011" class="edge">
<title>Node10&#45;&gt;Node11</title>
<g id="a_edge15_Node000010_Node000011"><a xlink:title=" ">
<path fill="none" stroke="#63b8ff" d="M702.22,-220.54C734.7,-210.92 784.99,-196.03 820.56,-185.49"/>
<polygon fill="#63b8ff" stroke="#63b8ff" points="821.58,-188.84 830.17,-182.65 819.59,-182.13 821.58,-188.84"/>
</a>
</g>
</g>
<!-- Node11&#45;&gt;Node2 -->
<g id="edge16_Node000011_Node000002" class="edge">
<title>Node11&#45;&gt;Node2</title>
<g id="a_edge16_Node000011_Node000002"><a xlink:title=" ">
<path fill="none" stroke="#63b8ff" d="M955.01,-175.26C1087.56,-179.24 1342.07,-189.83 1557,-216.08 1565.38,-217.1 1574.23,-218.46 1582.82,-219.93"/>
<polygon fill="#63b8ff" stroke="#63b8ff" points="1582.29,-223.39 1592.75,-221.69 1583.51,-216.49 1582.29,-223.39"/>
</a>
</g>
</g>
<!-- Node12 -->
<g id="Node000012" class="node">
<title>Node12</title>
<g id="a_Node000012"><a xlink:href="class_bit_vector.html#af68cda7444ec4459393bbfa423f0a7dd" target="_top" xlink:title="Get the Size_t value if a BitVector::CoordUnit.">
<polygon fill="white" stroke="#666666" points="1323.5,-164.08 1220.5,-164.08 1220.5,-134.08 1323.5,-134.08 1323.5,-164.08"/>
<text text-anchor="start" x="1228.5" y="-152.08" font-family="Helvetica,sans-Serif" font-size="10.00">BitVector::getSize</text>
<text text-anchor="middle" x="1272" y="-141.08" font-family="Helvetica,sans-Serif" font-size="10.00">_tUnit</text>
</a>
</g>
</g>
<!-- Node11&#45;&gt;Node12 -->
<g id="edge17_Node000011_Node000012" class="edge">
<title>Node11&#45;&gt;Node12</title>
<g id="a_edge17_Node000011_Node000012"><a xlink:title=" ">
<path fill="none" stroke="#63b8ff" d="M955.22,-167.72C1033.01,-163.13 1142.91,-156.64 1210.43,-152.65"/>
<polygon fill="#63b8ff" stroke="#63b8ff" points="1210.7,-156.14 1220.48,-152.06 1210.29,-149.15 1210.7,-156.14"/>
</a>
</g>
</g>
<!-- Node11&#45;&gt;Node14 -->
<g id="edge20_Node000011_Node000014" class="edge">
<title>Node11&#45;&gt;Node14</title>
<g id="a_edge20_Node000011_Node000014"><a xlink:title=" ">
<path fill="none" stroke="#63b8ff" d="M898.39,-163.54C932.71,-153.88 985.91,-138.9 1023.36,-128.36"/>
<polygon fill="#63b8ff" stroke="#63b8ff" points="1024.32,-131.73 1033,-125.65 1022.42,-124.99 1024.32,-131.73"/>
</a>
</g>
</g>
<!-- Node12&#45;&gt;Node9 -->
<g id="edge18_Node000012_Node000009" class="edge">
<title>Node12&#45;&gt;Node9</title>
<g id="a_edge18_Node000012_Node000009"><a xlink:title=" ">
<path fill="none" stroke="#63b8ff" d="M1298.84,-164.15C1338.24,-187.13 1412.88,-230.67 1451.86,-253.41"/>
<polygon fill="#63b8ff" stroke="#63b8ff" points="1450.11,-256.44 1460.51,-258.46 1453.64,-250.4 1450.11,-256.44"/>
</a>
</g>
</g>
<!-- Node13 -->
<g id="Node000013" class="node">
<title>Node13</title>
<g id="a_Node000013"><a xlink:href="class_bit_vector_1_1_coords.html#a3a4fac9de925974af9c8a66a1d0179e6" target="_top" xlink:title="Translate octet and bit value inside a size_t. Allow easier mathematic computations.">
<polygon fill="white" stroke="#666666" points="1531.5,-164.08 1424.5,-164.08 1424.5,-134.08 1531.5,-134.08 1531.5,-164.08"/>
<text text-anchor="start" x="1432.5" y="-152.08" font-family="Helvetica,sans-Serif" font-size="10.00">BitVector::Coords::</text>
<text text-anchor="middle" x="1478" y="-141.08" font-family="Helvetica,sans-Serif" font-size="10.00">toSize_t</text>
</a>
</g>
</g>
<!-- Node12&#45;&gt;Node13 -->
<g id="edge19_Node000012_Node000013" class="edge">
<title>Node12&#45;&gt;Node13</title>
<g id="a_edge19_Node000012_Node000013"><a xlink:title=" ">
<path fill="none" stroke="#63b8ff" d="M1323.69,-149.08C1351.13,-149.08 1385.28,-149.08 1414.38,-149.08"/>
<polygon fill="#63b8ff" stroke="#63b8ff" points="1414.44,-152.58 1424.44,-149.08 1414.44,-145.58 1414.44,-152.58"/>
</a>
</g>
</g>
<!-- Node14&#45;&gt;Node12 -->
<g id="edge21_Node000014_Node000012" class="edge">
<title>Node14&#45;&gt;Node12</title>
<g id="a_edge21_Node000014_Node000012"><a xlink:title=" ">
<path fill="none" stroke="#63b8ff" d="M1127.16,-125.58C1153.3,-129.85 1184.15,-134.89 1210.56,-139.2"/>
<polygon fill="#63b8ff" stroke="#63b8ff" points="1210.02,-142.66 1220.45,-140.82 1211.15,-135.75 1210.02,-142.66"/>
</a>
</g>
</g>
<!-- Node15 -->
<g id="Node000015" class="node">
<title>Node15</title>
<g id="a_Node000015"><a xlink:href="class_bit_vector.html#a68b14af0886039ddcf55c82a250deb4c" target="_top" xlink:title="How many element can be contained in this kind of object.">
<polygon fill="white" stroke="#666666" points="1557,-78.08 1399,-78.08 1399,-48.08 1557,-48.08 1557,-78.08"/>
<text text-anchor="start" x="1407" y="-66.08" font-family="Helvetica,sans-Serif" font-size="10.00">BitVector::maximumElement</text>
<text text-anchor="middle" x="1478" y="-55.08" font-family="Helvetica,sans-Serif" font-size="10.00">Number</text>
</a>
</g>
</g>
<!-- Node14&#45;&gt;Node15 -->
<g id="edge22_Node000014_Node000015" class="edge">
<title>Node14&#45;&gt;Node15</title>
<g id="a_edge22_Node000014_Node000015"><a xlink:title=" ">
<path fill="none" stroke="#63b8ff" d="M1100.07,-106.49C1122.38,-99.99 1153.27,-91.75 1181,-87.08 1250.32,-75.38 1329.78,-69.33 1388.9,-66.24"/>
<polygon fill="#63b8ff" stroke="#63b8ff" points="1389.14,-69.73 1398.95,-65.73 1388.79,-62.74 1389.14,-69.73"/>
</a>
</g>
</g>
<!-- Node16 -->
<g id="Node000016" class="node">
<title>Node16</title>
<g id="a_Node000016"><a xlink:href="class_bit_vector.html#aa3228d2bacb1bb0f6072d73d43a49456" target="_top" xlink:title="How many octet can be contained in this kind of object.">
<polygon fill="white" stroke="#666666" points="1363,-115.58 1181,-115.58 1181,-96.58 1363,-96.58 1363,-115.58"/>
<text text-anchor="middle" x="1272" y="-103.58" font-family="Helvetica,sans-Serif" font-size="10.00">BitVector::maximumOctetNumber</text>
</a>
</g>
</g>
<!-- Node14&#45;&gt;Node16 -->
<g id="edge24_Node000014_Node000016" class="edge">
<title>Node14&#45;&gt;Node16</title>
<g id="a_edge24_Node000014_Node000016"><a xlink:title=" ">
<path fill="none" stroke="#63b8ff" d="M1145.08,-112.31C1153.44,-111.9 1162.04,-111.47 1170.64,-111.04"/>
<polygon fill="#63b8ff" stroke="#63b8ff" points="1170.9,-114.54 1180.71,-110.55 1170.55,-107.54 1170.9,-114.54"/>
</a>
</g>
</g>
<!-- Node15&#45;&gt;Node2 -->
<g id="edge23_Node000015_Node000002" class="edge">
<title>Node15&#45;&gt;Node2</title>
<g id="a_edge23_Node000015_Node000002"><a xlink:title=" ">
<path fill="none" stroke="#63b8ff" d="M1534.6,-78.1C1542.65,-81.83 1550.43,-86.42 1557,-92.08 1595.1,-124.85 1617.88,-181.53 1627.73,-211.01"/>
<polygon fill="#63b8ff" stroke="#63b8ff" points="1624.4,-212.09 1630.78,-220.55 1631.07,-209.96 1624.4,-212.09"/>
</a>
</g>
</g>
<!-- Node16&#45;&gt;Node2 -->
<g id="edge25_Node000016_Node000002" class="edge">
<title>Node16&#45;&gt;Node2</title>
<g id="a_edge25_Node000016_Node000002"><a xlink:title=" ">
<path fill="none" stroke="#63b8ff" d="M1328.9,-96.54C1389.15,-89.16 1485.93,-85.88 1557,-125.08 1591.56,-144.14 1614.62,-186.2 1625.75,-210.92"/>
<polygon fill="#63b8ff" stroke="#63b8ff" points="1622.63,-212.52 1629.79,-220.33 1629.06,-209.76 1622.63,-212.52"/>
</a>
</g>
</g>
<!-- Node18&#45;&gt;Node9 -->
<g id="edge28_Node000018_Node000009" class="edge">
<title>Node18&#45;&gt;Node9</title>
<g id="a_edge28_Node000018_Node000009"><a xlink:title=" ">
<path fill="none" stroke="#63b8ff" d="M1119.03,-268.08C1189.91,-268.08 1320.08,-268.08 1402.39,-268.08"/>
<polygon fill="#63b8ff" stroke="#63b8ff" points="1402.44,-271.58 1412.44,-268.08 1402.44,-264.58 1402.44,-271.58"/>
</a>
</g>
</g>
</g>
</svg>

<g id="navigator" transform="translate(0 0)" fill="#404254">
  <rect fill="#f2f5e9" fill-opacity="0.5" stroke="#606060" stroke-width=".5" x="0" y="0" width="60" height="60"/>
  <use id="zoomplus" xlink:href="#zoomPlus" x="17" y="9" onmousedown="handleZoom(evt,'in')"/>
  <use id="zoomminus" xlink:href="#zoomMin" x="42" y="9" onmousedown="handleZoom(evt,'out')"/>
  <use id="reset" xlink:href="#resetDef" x="30" y="36" onmousedown="handleReset()"/>
   <use id="arrowup" xlink:href="#arrowUp" x="0" y="0" onmousedown="handlePan(0,-1)"/>
  <use id="arrowright" xlink:href="#arrowRight" x="0" y="0" onmousedown="handlePan(1,0)"/>
  <use id="arrowdown" xlink:href="#arrowDown" x="0" y="0" onmousedown="handlePan(0,1)"/>
  <use id="arrowleft" xlink:href="#arrowLeft" x="0" y="0" onmousedown="handlePan(-1,0)"/>
</g>
<svg viewBox="0 0 15 15" width="100%" height="30px" preserveAspectRatio="xMaxYMin meet">
 <g id="arrow_out" transform="scale(0.3 0.3)">
  <a xlink:href="class_bit_vector_a915743b3f94c75c22317d160bfa741ff_cgraph_org.svg" target="_base">
   <rect id="button" ry="5" rx="5" y="6" x="6" height="38" width="38"
        fill="#f2f5e9" fill-opacity="0.5" stroke="#606060" stroke-width="1.0"/>
   <path id="arrow"
     d="M 11.500037,31.436501 C 11.940474,20.09759 22.043105,11.32322 32.158766,21.979434 L 37.068811,17.246167 C 37.068811,17.246167 37.088388,32 37.088388,32 L 22.160133,31.978069 C 22.160133,31.978069 26.997745,27.140456 26.997745,27.140456 C 18.528582,18.264221 13.291696,25.230495 11.500037,31.436501 z"
     style="fill:#404040;"/>
  </a>
 </g>
</svg>

<style type='text/css'>
<![CDATA[
[data-mouse-over-selected='false'] { opacity: 0.7; }
[data-mouse-over-selected='true']  { opacity: 1.0; }
]]>
</style>
<script type="application/ecmascript"><![CDATA[
document.addEventListener('DOMContentLoaded', (event) => {
  highlightEdges();
  highlightAdjacentNodes();
});
]]></script>
</svg>
