<?xml version="1.0" encoding="UTF-8" standalone="no"?>
<!DOCTYPE svg PUBLIC "-//W3C//DTD SVG 1.1//EN"
 "http://www.w3.org/Graphics/SVG/1.1/DTD/svg11.dtd">
<!-- Generated by graphviz version 2.43.0 (0)
 -->
<!-- Title: Sequence::isRNA Pages: 1 -->
<svg width="1026pt" height="138pt"
 viewBox="0.00 0.00 1026.00 138.00" xmlns="http://www.w3.org/2000/svg" xmlns:xlink="http://www.w3.org/1999/xlink">
<g id="graph0" class="graph" transform="scale(1 1) rotate(0) translate(4 134)">
<title>Sequence::isRNA</title>
<!-- Node1 -->
<g id="Node000001" class="node">
<title>Node1</title>
<g id="a_Node000001"><a xlink:title="Say if a symbol can be an acid nucleic related to RNA.">
<polygon fill="#999999" stroke="#666666" points="99,-38 0,-38 0,-19 99,-19 99,-38"/>
<text text-anchor="middle" x="49.5" y="-26" font-family="Helvetica,sans-Serif" font-size="10.00">Sequence::isRNA</text>
</a>
</g>
</g>
<!-- Node2 -->
<g id="Node000002" class="node">
<title>Node2</title>
<g id="a_Node000002"><a xlink:href="class_sequence.html#ad40777fd2f7ad3ae247fab02459e6759" target="_top" xlink:title="Retrieve the symbol at the position in the sequence.">
<polygon fill="white" stroke="#666666" points="221,-38 135,-38 135,-19 221,-19 221,-38"/>
<text text-anchor="middle" x="178" y="-26" font-family="Helvetica,sans-Serif" font-size="10.00">Sequence::get</text>
</a>
</g>
</g>
<!-- Node1&#45;&gt;Node2 -->
<g id="edge1_Node000001_Node000002" class="edge">
<title>Node1&#45;&gt;Node2</title>
<g id="a_edge1_Node000001_Node000002"><a xlink:title=" ">
<path fill="none" stroke="#63b8ff" d="M99.05,-28.5C107.47,-28.5 116.26,-28.5 124.77,-28.5"/>
<polygon fill="#63b8ff" stroke="#63b8ff" points="124.98,-32 134.98,-28.5 124.98,-25 124.98,-32"/>
</a>
</g>
</g>
<!-- Node2&#45;&gt;Node2 -->
<g id="edge5_Node000002_Node000002" class="edge">
<title>Node2&#45;&gt;Node2</title>
<g id="a_edge5_Node000002_Node000002"><a xlink:title=" ">
<path fill="none" stroke="#63b8ff" d="M158.27,-38.08C148.67,-46.73 155.25,-56 178,-56 192.22,-56 200.12,-52.38 201.7,-47.55"/>
<polygon fill="#63b8ff" stroke="#63b8ff" points="204.83,-45.95 197.73,-38.08 198.37,-48.66 204.83,-45.95"/>
</a>
</g>
</g>
<!-- Node3 -->
<g id="Node000003" class="node">
<title>Node3</title>
<g id="a_Node000003"><a xlink:href="class_bit_vector.html#aebe159444eb9d619959b7325ac5dac2d" target="_top" xlink:title="Return the value of the bit at the position coord.">
<polygon fill="white" stroke="#666666" points="374.5,-112 291.5,-112 291.5,-93 374.5,-93 374.5,-112"/>
<text text-anchor="middle" x="333" y="-100" font-family="Helvetica,sans-Serif" font-size="10.00">BitVector::get</text>
</a>
</g>
</g>
<!-- Node2&#45;&gt;Node3 -->
<g id="edge2_Node000002_Node000003" class="edge">
<title>Node2&#45;&gt;Node3</title>
<g id="a_edge2_Node000002_Node000003"><a xlink:title=" ">
<path fill="none" stroke="#63b8ff" d="M189.76,-38.34C204.07,-50.9 230.62,-72.43 257,-84.5 264.7,-88.02 273.18,-90.91 281.57,-93.25"/>
<polygon fill="#63b8ff" stroke="#63b8ff" points="280.78,-96.66 291.34,-95.75 282.52,-89.88 280.78,-96.66"/>
</a>
</g>
</g>
<!-- Node5 -->
<g id="Node000005" class="node">
<title>Node5</title>
<g id="a_Node000005"><a xlink:href="class_sequence.html#a8181f024304b3fb5f55c7118f648cc61" target="_top" xlink:title="Return a char (same format as Sequence::getType()) that indicate which alphabet is used in the during...">
<polygon fill="white" stroke="#666666" points="409,-75 257,-75 257,-56 409,-56 409,-75"/>
<text text-anchor="middle" x="333" y="-63" font-family="Helvetica,sans-Serif" font-size="10.00">Sequence::getEncodingType</text>
</a>
</g>
</g>
<!-- Node2&#45;&gt;Node5 -->
<g id="edge6_Node000002_Node000005" class="edge">
<title>Node2&#45;&gt;Node5</title>
<g id="a_edge6_Node000002_Node000005"><a xlink:title=" ">
<path fill="none" stroke="#63b8ff" d="M218.27,-38.09C230.66,-41.11 244.4,-44.45 257,-47.5 265.23,-49.49 273.97,-51.6 282.47,-53.64"/>
<polygon fill="#63b8ff" stroke="#63b8ff" points="281.75,-57.06 292.29,-56 283.39,-50.26 281.75,-57.06"/>
</a>
</g>
</g>
<!-- Node6 -->
<g id="Node000006" class="node">
<title>Node6</title>
<g id="a_Node000006"><a xlink:href="class_sequence.html#a49a9126010c0332493c803ddca005394" target="_top" xlink:title="Give a map that compress / decompress char used by Sequence.">
<polygon fill="white" stroke="#666666" points="402.5,-38 263.5,-38 263.5,-19 402.5,-19 402.5,-38"/>
<text text-anchor="middle" x="333" y="-26" font-family="Helvetica,sans-Serif" font-size="10.00">Sequence::translationTab</text>
</a>
</g>
</g>
<!-- Node2&#45;&gt;Node6 -->
<g id="edge7_Node000002_Node000006" class="edge">
<title>Node2&#45;&gt;Node6</title>
<g id="a_edge7_Node000002_Node000006"><a xlink:title=" ">
<path fill="none" stroke="#63b8ff" d="M221.21,-22.39C231.24,-21.99 242.25,-21.78 253.32,-21.75"/>
<polygon fill="#63b8ff" stroke="#63b8ff" points="253.47,-25.25 263.48,-21.78 253.49,-18.25 253.47,-25.25"/>
</a>
</g>
</g>
<!-- Node3&#45;&gt;Node3 -->
<g id="edge3_Node000003_Node000003" class="edge">
<title>Node3&#45;&gt;Node3</title>
<g id="a_edge3_Node000003_Node000003"><a xlink:title=" ">
<path fill="none" stroke="#63b8ff" d="M309.26,-112.08C297.72,-120.73 305.63,-130 333,-130 350.96,-130 360.54,-126.01 361.75,-120.82"/>
<polygon fill="#63b8ff" stroke="#63b8ff" points="364.75,-119.02 356.74,-112.08 358.67,-122.5 364.75,-119.02"/>
</a>
</g>
</g>
<!-- Node4 -->
<g id="Node000004" class="node">
<title>Node4</title>
<g id="a_Node000004"><a xlink:href="class_bit_vector_1_1_coords.html#a2892f7f46c4af93f9733e312229d8ec1" target="_top" xlink:title="Get Coords::octet .">
<polygon fill="white" stroke="#666666" points="562.5,-117.5 455.5,-117.5 455.5,-87.5 562.5,-87.5 562.5,-117.5"/>
<text text-anchor="start" x="463.5" y="-105.5" font-family="Helvetica,sans-Serif" font-size="10.00">BitVector::Coords::</text>
<text text-anchor="middle" x="509" y="-94.5" font-family="Helvetica,sans-Serif" font-size="10.00">getOctet</text>
</a>
</g>
</g>
<!-- Node3&#45;&gt;Node4 -->
<g id="edge4_Node000003_Node000004" class="edge">
<title>Node3&#45;&gt;Node4</title>
<g id="a_edge4_Node000003_Node000004"><a xlink:title=" ">
<path fill="none" stroke="#63b8ff" d="M374.8,-102.5C395.71,-102.5 421.64,-102.5 445.05,-102.5"/>
<polygon fill="#63b8ff" stroke="#63b8ff" points="445.25,-106 455.25,-102.5 445.25,-99 445.25,-106"/>
</a>
</g>
</g>
<!-- Node6&#45;&gt;Node2 -->
<g id="edge13_Node000006_Node000002" class="edge">
<title>Node6&#45;&gt;Node2</title>
<g id="a_edge13_Node000006_Node000002"><a xlink:title=" ">
<path fill="none" stroke="#63b8ff" d="M263.48,-35.22C252.68,-35.31 241.67,-35.21 231.32,-34.94"/>
<polygon fill="#63b8ff" stroke="#63b8ff" points="231.32,-31.44 221.21,-34.61 231.09,-38.44 231.32,-31.44"/>
</a>
</g>
</g>
<!-- Node7 -->
<g id="Node000007" class="node">
<title>Node7</title>
<g id="a_Node000007"><a xlink:href="class_sequence.html#a555c6e58957c4d07028eb5c67b1732ac" target="_top" xlink:title="Function used by Sequence::translationTab to create their compression map.">
<polygon fill="white" stroke="#666666" points="573,-19 445,-19 445,0 573,0 573,-19"/>
<text text-anchor="middle" x="509" y="-7" font-family="Helvetica,sans-Serif" font-size="10.00">Sequence::fillCodeMap</text>
</a>
</g>
</g>
<!-- Node6&#45;&gt;Node7 -->
<g id="edge8_Node000006_Node000007" class="edge">
<title>Node6&#45;&gt;Node7</title>
<g id="a_edge8_Node000006_Node000007"><a xlink:title=" ">
<path fill="none" stroke="#63b8ff" d="M402.77,-20.99C413.28,-19.84 424.16,-18.65 434.76,-17.5"/>
<polygon fill="#63b8ff" stroke="#63b8ff" points="435.26,-20.96 444.82,-16.4 434.5,-14.01 435.26,-20.96"/>
</a>
</g>
</g>
<!-- Node7&#45;&gt;Node2 -->
<g id="edge9_Node000007_Node000002" class="edge">
<title>Node7&#45;&gt;Node2</title>
<g id="a_edge9_Node000007_Node000002"><a xlink:title=" ">
<path fill="none" stroke="#63b8ff" d="M444.83,-5.35C393.92,-3 320.6,-1.87 257,-9.5 245.01,-10.94 232.21,-13.58 220.51,-16.44"/>
<polygon fill="#63b8ff" stroke="#63b8ff" points="219.38,-13.12 210.56,-18.99 221.12,-19.9 219.38,-13.12"/>
</a>
</g>
</g>
<!-- Node8 -->
<g id="Node000008" class="node">
<title>Node8</title>
<g id="a_Node000008"><a xlink:href="class_sequence.html#acf21040958590f98163b3d11f19ea93e" target="_top" xlink:title="Give the number of element contained in this sequence.">
<polygon fill="white" stroke="#666666" points="698,-19 609,-19 609,0 698,0 698,-19"/>
<text text-anchor="middle" x="653.5" y="-7" font-family="Helvetica,sans-Serif" font-size="10.00">Sequence::size</text>
</a>
</g>
</g>
<!-- Node7&#45;&gt;Node8 -->
<g id="edge10_Node000007_Node000008" class="edge">
<title>Node7&#45;&gt;Node8</title>
<g id="a_edge10_Node000007_Node000008"><a xlink:title=" ">
<path fill="none" stroke="#63b8ff" d="M573.33,-9.5C581.8,-9.5 590.42,-9.5 598.7,-9.5"/>
<polygon fill="#63b8ff" stroke="#63b8ff" points="598.98,-13 608.98,-9.5 598.98,-6 598.98,-13"/>
</a>
</g>
</g>
<!-- Node9 -->
<g id="Node000009" class="node">
<title>Node9</title>
<g id="a_Node000009"><a xlink:href="class_bit_vector.html#ab30ea2b408107e4e6bc8095b5a64a1dd" target="_top" xlink:title="Number of element inside this object.">
<polygon fill="white" stroke="#666666" points="820,-19 734,-19 734,0 820,0 820,-19"/>
<text text-anchor="middle" x="777" y="-7" font-family="Helvetica,sans-Serif" font-size="10.00">BitVector::size</text>
</a>
</g>
</g>
<!-- Node8&#45;&gt;Node9 -->
<g id="edge11_Node000008_Node000009" class="edge">
<title>Node8&#45;&gt;Node9</title>
<g id="a_edge11_Node000008_Node000009"><a xlink:title=" ">
<path fill="none" stroke="#63b8ff" d="M698.02,-9.5C706.25,-9.5 714.94,-9.5 723.41,-9.5"/>
<polygon fill="#63b8ff" stroke="#63b8ff" points="723.6,-13 733.6,-9.5 723.6,-6 723.6,-13"/>
</a>
</g>
</g>
<!-- Node10 -->
<g id="Node000010" class="node">
<title>Node10</title>
<g id="a_Node000010"><a xlink:href="class_bit_vector.html#a5339660cfb315ab5de7f78bdf5af4ce1" target="_top" xlink:title="Get BitVector::_element_number.">
<polygon fill="white" stroke="#666666" points="1018,-19 856,-19 856,0 1018,0 1018,-19"/>
<text text-anchor="middle" x="937" y="-7" font-family="Helvetica,sans-Serif" font-size="10.00">BitVector::getElementNumber</text>
</a>
</g>
</g>
<!-- Node9&#45;&gt;Node10 -->
<g id="edge12_Node000009_Node000010" class="edge">
<title>Node9&#45;&gt;Node10</title>
<g id="a_edge12_Node000009_Node000010"><a xlink:title=" ">
<path fill="none" stroke="#63b8ff" d="M820.34,-9.5C828.23,-9.5 836.74,-9.5 845.44,-9.5"/>
<polygon fill="#63b8ff" stroke="#63b8ff" points="845.71,-13 855.71,-9.5 845.71,-6 845.71,-13"/>
</a>
</g>
</g>
</g>
</svg>
