<?xml version="1.0" encoding="UTF-8" standalone="no"?>
<!DOCTYPE svg PUBLIC "-//W3C//DTD SVG 1.1//EN"
 "http://www.w3.org/Graphics/SVG/1.1/DTD/svg11.dtd">
<!-- Generated by graphviz version 2.43.0 (0)
 -->
<!-- Title: Sequence::isLegalSymbol Pages: 1 -->
<svg width="1380pt" height="194pt"
 viewBox="0.00 0.00 1380.00 194.00" xmlns="http://www.w3.org/2000/svg" xmlns:xlink="http://www.w3.org/1999/xlink">
<g id="graph0" class="graph" transform="scale(1 1) rotate(0) translate(4 190)">
<title>Sequence::isLegalSymbol</title>
<!-- Node1 -->
<g id="Node000001" class="node">
<title>Node1</title>
<g id="a_Node000001"><a xlink:title="Say if a symbol can be used in the a sequence.">
<polygon fill="#999999" stroke="#666666" points="141,-132 0,-132 0,-113 141,-113 141,-132"/>
<text text-anchor="middle" x="70.5" y="-120" font-family="Helvetica,sans-Serif" font-size="10.00">Sequence::isLegalSymbol</text>
</a>
</g>
</g>
<!-- Node2 -->
<g id="Node000002" class="node">
<title>Node2</title>
<g id="a_Node000002"><a xlink:href="class_sequence.html#ad40777fd2f7ad3ae247fab02459e6759" target="_top" xlink:title="Retrieve the symbol at the position in the sequence.">
<polygon fill="white" stroke="#666666" points="575,-94 489,-94 489,-75 575,-75 575,-94"/>
<text text-anchor="middle" x="532" y="-82" font-family="Helvetica,sans-Serif" font-size="10.00">Sequence::get</text>
</a>
</g>
</g>
<!-- Node1&#45;&gt;Node2 -->
<g id="edge1_Node000001_Node000002" class="edge">
<title>Node1&#45;&gt;Node2</title>
<g id="a_edge1_Node000001_Node000002"><a xlink:title=" ">
<path fill="none" stroke="#63b8ff" d="M114.38,-132.01C133.45,-135.78 156.24,-139.65 177,-141.5 299.72,-152.46 334.71,-149.98 453,-115.5 469.14,-110.8 486.58,-104.04 500.86,-98.03"/>
<polygon fill="#63b8ff" stroke="#63b8ff" points="502.38,-101.18 510.19,-94.02 499.62,-94.75 502.38,-101.18"/>
</a>
</g>
</g>
<!-- Node11 -->
<g id="Node000011" class="node">
<title>Node11</title>
<g id="a_Node000011"><a xlink:href="class_sequence.html#a1c338fe40d1251531461f2a737f235cd" target="_top" xlink:title="Say if a symbol can be an amino acid.">
<polygon fill="white" stroke="#666666" points="315,-132 179,-132 179,-113 315,-113 315,-132"/>
<text text-anchor="middle" x="247" y="-120" font-family="Helvetica,sans-Serif" font-size="10.00">Sequence::isLegalAmino</text>
</a>
</g>
</g>
<!-- Node1&#45;&gt;Node11 -->
<g id="edge14_Node000001_Node000011" class="edge">
<title>Node1&#45;&gt;Node11</title>
<g id="a_edge14_Node000001_Node000011"><a xlink:title=" ">
<path fill="none" stroke="#63b8ff" d="M141.22,-122.5C150.25,-122.5 159.55,-122.5 168.7,-122.5"/>
<polygon fill="#63b8ff" stroke="#63b8ff" points="168.95,-126 178.95,-122.5 168.95,-119 168.95,-126"/>
</a>
</g>
</g>
<!-- Node12 -->
<g id="Node000012" class="node">
<title>Node12</title>
<g id="a_Node000012"><a xlink:href="class_sequence.html#a2f4c93c744fc524b81c91843c81d31be" target="_top" xlink:title="Say if a symbol can be an acid nucleic.">
<polygon fill="white" stroke="#666666" points="317,-75 177,-75 177,-56 317,-56 317,-75"/>
<text text-anchor="middle" x="247" y="-63" font-family="Helvetica,sans-Serif" font-size="10.00">Sequence::isLegalNucleic</text>
</a>
</g>
</g>
<!-- Node1&#45;&gt;Node12 -->
<g id="edge16_Node000001_Node000012" class="edge">
<title>Node1&#45;&gt;Node12</title>
<g id="a_edge16_Node000001_Node000012"><a xlink:title=" ">
<path fill="none" stroke="#63b8ff" d="M100.71,-112.96C129.9,-103.42 174.96,-88.71 207.15,-78.19"/>
<polygon fill="#63b8ff" stroke="#63b8ff" points="208.28,-81.5 216.7,-75.07 206.1,-74.85 208.28,-81.5"/>
</a>
</g>
</g>
<!-- Node2&#45;&gt;Node2 -->
<g id="edge5_Node000002_Node000002" class="edge">
<title>Node2&#45;&gt;Node2</title>
<g id="a_edge5_Node000002_Node000002"><a xlink:title=" ">
<path fill="none" stroke="#63b8ff" d="M512.27,-94.08C502.67,-102.73 509.25,-112 532,-112 546.22,-112 554.12,-108.38 555.7,-103.55"/>
<polygon fill="#63b8ff" stroke="#63b8ff" points="558.83,-101.95 551.73,-94.08 552.37,-104.66 558.83,-101.95"/>
</a>
</g>
</g>
<!-- Node3 -->
<g id="Node000003" class="node">
<title>Node3</title>
<g id="a_Node000003"><a xlink:href="class_bit_vector.html#aebe159444eb9d619959b7325ac5dac2d" target="_top" xlink:title="Return the value of the bit at the position coord.">
<polygon fill="white" stroke="#666666" points="728.5,-168 645.5,-168 645.5,-149 728.5,-149 728.5,-168"/>
<text text-anchor="middle" x="687" y="-156" font-family="Helvetica,sans-Serif" font-size="10.00">BitVector::get</text>
</a>
</g>
</g>
<!-- Node2&#45;&gt;Node3 -->
<g id="edge2_Node000002_Node000003" class="edge">
<title>Node2&#45;&gt;Node3</title>
<g id="a_edge2_Node000002_Node000003"><a xlink:title=" ">
<path fill="none" stroke="#63b8ff" d="M543.76,-94.34C558.07,-106.9 584.62,-128.43 611,-140.5 618.7,-144.02 627.18,-146.91 635.57,-149.25"/>
<polygon fill="#63b8ff" stroke="#63b8ff" points="634.78,-152.66 645.34,-151.75 636.52,-145.88 634.78,-152.66"/>
</a>
</g>
</g>
<!-- Node5 -->
<g id="Node000005" class="node">
<title>Node5</title>
<g id="a_Node000005"><a xlink:href="class_sequence.html#a8181f024304b3fb5f55c7118f648cc61" target="_top" xlink:title="Return a char (same format as Sequence::getType()) that indicate which alphabet is used in the during...">
<polygon fill="white" stroke="#666666" points="763,-131 611,-131 611,-112 763,-112 763,-131"/>
<text text-anchor="middle" x="687" y="-119" font-family="Helvetica,sans-Serif" font-size="10.00">Sequence::getEncodingType</text>
</a>
</g>
</g>
<!-- Node2&#45;&gt;Node5 -->
<g id="edge6_Node000002_Node000005" class="edge">
<title>Node2&#45;&gt;Node5</title>
<g id="a_edge6_Node000002_Node000005"><a xlink:title=" ">
<path fill="none" stroke="#63b8ff" d="M572.27,-94.09C584.66,-97.11 598.4,-100.45 611,-103.5 619.23,-105.49 627.97,-107.6 636.47,-109.64"/>
<polygon fill="#63b8ff" stroke="#63b8ff" points="635.75,-113.06 646.29,-112 637.39,-106.26 635.75,-113.06"/>
</a>
</g>
</g>
<!-- Node6 -->
<g id="Node000006" class="node">
<title>Node6</title>
<g id="a_Node000006"><a xlink:href="class_sequence.html#a49a9126010c0332493c803ddca005394" target="_top" xlink:title="Give a map that compress / decompress char used by Sequence.">
<polygon fill="white" stroke="#666666" points="756.5,-94 617.5,-94 617.5,-75 756.5,-75 756.5,-94"/>
<text text-anchor="middle" x="687" y="-82" font-family="Helvetica,sans-Serif" font-size="10.00">Sequence::translationTab</text>
</a>
</g>
</g>
<!-- Node2&#45;&gt;Node6 -->
<g id="edge7_Node000002_Node000006" class="edge">
<title>Node2&#45;&gt;Node6</title>
<g id="a_edge7_Node000002_Node000006"><a xlink:title=" ">
<path fill="none" stroke="#63b8ff" d="M575.21,-78.39C585.24,-77.99 596.25,-77.78 607.32,-77.75"/>
<polygon fill="#63b8ff" stroke="#63b8ff" points="607.47,-81.25 617.48,-77.78 607.49,-74.25 607.47,-81.25"/>
</a>
</g>
</g>
<!-- Node3&#45;&gt;Node3 -->
<g id="edge3_Node000003_Node000003" class="edge">
<title>Node3&#45;&gt;Node3</title>
<g id="a_edge3_Node000003_Node000003"><a xlink:title=" ">
<path fill="none" stroke="#63b8ff" d="M663.26,-168.08C651.72,-176.73 659.63,-186 687,-186 704.96,-186 714.54,-182.01 715.75,-176.82"/>
<polygon fill="#63b8ff" stroke="#63b8ff" points="718.75,-175.02 710.74,-168.08 712.67,-178.5 718.75,-175.02"/>
</a>
</g>
</g>
<!-- Node4 -->
<g id="Node000004" class="node">
<title>Node4</title>
<g id="a_Node000004"><a xlink:href="class_bit_vector_1_1_coords.html#a2892f7f46c4af93f9733e312229d8ec1" target="_top" xlink:title="Get Coords::octet .">
<polygon fill="white" stroke="#666666" points="916.5,-173.5 809.5,-173.5 809.5,-143.5 916.5,-143.5 916.5,-173.5"/>
<text text-anchor="start" x="817.5" y="-161.5" font-family="Helvetica,sans-Serif" font-size="10.00">BitVector::Coords::</text>
<text text-anchor="middle" x="863" y="-150.5" font-family="Helvetica,sans-Serif" font-size="10.00">getOctet</text>
</a>
</g>
</g>
<!-- Node3&#45;&gt;Node4 -->
<g id="edge4_Node000003_Node000004" class="edge">
<title>Node3&#45;&gt;Node4</title>
<g id="a_edge4_Node000003_Node000004"><a xlink:title=" ">
<path fill="none" stroke="#63b8ff" d="M728.8,-158.5C749.71,-158.5 775.64,-158.5 799.05,-158.5"/>
<polygon fill="#63b8ff" stroke="#63b8ff" points="799.25,-162 809.25,-158.5 799.25,-155 799.25,-162"/>
</a>
</g>
</g>
<!-- Node6&#45;&gt;Node2 -->
<g id="edge13_Node000006_Node000002" class="edge">
<title>Node6&#45;&gt;Node2</title>
<g id="a_edge13_Node000006_Node000002"><a xlink:title=" ">
<path fill="none" stroke="#63b8ff" d="M617.48,-91.22C606.68,-91.31 595.67,-91.21 585.32,-90.94"/>
<polygon fill="#63b8ff" stroke="#63b8ff" points="585.32,-87.44 575.21,-90.61 585.09,-94.44 585.32,-87.44"/>
</a>
</g>
</g>
<!-- Node7 -->
<g id="Node000007" class="node">
<title>Node7</title>
<g id="a_Node000007"><a xlink:href="class_sequence.html#a555c6e58957c4d07028eb5c67b1732ac" target="_top" xlink:title="Function used by Sequence::translationTab to create their compression map.">
<polygon fill="white" stroke="#666666" points="927,-75 799,-75 799,-56 927,-56 927,-75"/>
<text text-anchor="middle" x="863" y="-63" font-family="Helvetica,sans-Serif" font-size="10.00">Sequence::fillCodeMap</text>
</a>
</g>
</g>
<!-- Node6&#45;&gt;Node7 -->
<g id="edge8_Node000006_Node000007" class="edge">
<title>Node6&#45;&gt;Node7</title>
<g id="a_edge8_Node000006_Node000007"><a xlink:title=" ">
<path fill="none" stroke="#63b8ff" d="M756.77,-76.99C767.28,-75.84 778.16,-74.65 788.76,-73.5"/>
<polygon fill="#63b8ff" stroke="#63b8ff" points="789.26,-76.96 798.82,-72.4 788.5,-70.01 789.26,-76.96"/>
</a>
</g>
</g>
<!-- Node7&#45;&gt;Node2 -->
<g id="edge9_Node000007_Node000002" class="edge">
<title>Node7&#45;&gt;Node2</title>
<g id="a_edge9_Node000007_Node000002"><a xlink:title=" ">
<path fill="none" stroke="#63b8ff" d="M798.85,-61.88C747.95,-59.89 674.63,-59.12 611,-66.5 599.8,-67.8 587.86,-70.08 576.77,-72.6"/>
<polygon fill="#63b8ff" stroke="#63b8ff" points="575.8,-69.23 566.88,-74.95 577.42,-76.04 575.8,-69.23"/>
</a>
</g>
</g>
<!-- Node8 -->
<g id="Node000008" class="node">
<title>Node8</title>
<g id="a_Node000008"><a xlink:href="class_sequence.html#acf21040958590f98163b3d11f19ea93e" target="_top" xlink:title="Give the number of element contained in this sequence.">
<polygon fill="white" stroke="#666666" points="1052,-75 963,-75 963,-56 1052,-56 1052,-75"/>
<text text-anchor="middle" x="1007.5" y="-63" font-family="Helvetica,sans-Serif" font-size="10.00">Sequence::size</text>
</a>
</g>
</g>
<!-- Node7&#45;&gt;Node8 -->
<g id="edge10_Node000007_Node000008" class="edge">
<title>Node7&#45;&gt;Node8</title>
<g id="a_edge10_Node000007_Node000008"><a xlink:title=" ">
<path fill="none" stroke="#63b8ff" d="M927.33,-65.5C935.8,-65.5 944.42,-65.5 952.7,-65.5"/>
<polygon fill="#63b8ff" stroke="#63b8ff" points="952.98,-69 962.98,-65.5 952.98,-62 952.98,-69"/>
</a>
</g>
</g>
<!-- Node9 -->
<g id="Node000009" class="node">
<title>Node9</title>
<g id="a_Node000009"><a xlink:href="class_bit_vector.html#ab30ea2b408107e4e6bc8095b5a64a1dd" target="_top" xlink:title="Number of element inside this object.">
<polygon fill="white" stroke="#666666" points="1174,-75 1088,-75 1088,-56 1174,-56 1174,-75"/>
<text text-anchor="middle" x="1131" y="-63" font-family="Helvetica,sans-Serif" font-size="10.00">BitVector::size</text>
</a>
</g>
</g>
<!-- Node8&#45;&gt;Node9 -->
<g id="edge11_Node000008_Node000009" class="edge">
<title>Node8&#45;&gt;Node9</title>
<g id="a_edge11_Node000008_Node000009"><a xlink:title=" ">
<path fill="none" stroke="#63b8ff" d="M1052.02,-65.5C1060.25,-65.5 1068.94,-65.5 1077.41,-65.5"/>
<polygon fill="#63b8ff" stroke="#63b8ff" points="1077.6,-69 1087.6,-65.5 1077.6,-62 1077.6,-69"/>
</a>
</g>
</g>
<!-- Node10 -->
<g id="Node000010" class="node">
<title>Node10</title>
<g id="a_Node000010"><a xlink:href="class_bit_vector.html#a5339660cfb315ab5de7f78bdf5af4ce1" target="_top" xlink:title="Get BitVector::_element_number.">
<polygon fill="white" stroke="#666666" points="1372,-75 1210,-75 1210,-56 1372,-56 1372,-75"/>
<text text-anchor="middle" x="1291" y="-63" font-family="Helvetica,sans-Serif" font-size="10.00">BitVector::getElementNumber</text>
</a>
</g>
</g>
<!-- Node9&#45;&gt;Node10 -->
<g id="edge12_Node000009_Node000010" class="edge">
<title>Node9&#45;&gt;Node10</title>
<g id="a_edge12_Node000009_Node000010"><a xlink:title=" ">
<path fill="none" stroke="#63b8ff" d="M1174.34,-65.5C1182.23,-65.5 1190.74,-65.5 1199.44,-65.5"/>
<polygon fill="#63b8ff" stroke="#63b8ff" points="1199.71,-69 1209.71,-65.5 1199.71,-62 1199.71,-69"/>
</a>
</g>
</g>
<!-- Node11&#45;&gt;Node2 -->
<g id="edge15_Node000011_Node000002" class="edge">
<title>Node11&#45;&gt;Node2</title>
<g id="a_edge15_Node000011_Node000002"><a xlink:title=" ">
<path fill="none" stroke="#63b8ff" d="M315.07,-113.49C365.21,-106.76 432.8,-97.69 478.91,-91.49"/>
<polygon fill="#63b8ff" stroke="#63b8ff" points="479.54,-94.94 488.99,-90.14 478.61,-88 479.54,-94.94"/>
</a>
</g>
</g>
<!-- Node12&#45;&gt;Node2 -->
<g id="edge17_Node000012_Node000002" class="edge">
<title>Node12&#45;&gt;Node2</title>
<g id="a_edge17_Node000012_Node000002"><a xlink:title=" ">
<path fill="none" stroke="#63b8ff" d="M317.23,-70.15C367.02,-73.49 433.14,-77.93 478.59,-80.98"/>
<polygon fill="#63b8ff" stroke="#63b8ff" points="478.6,-84.49 488.81,-81.67 479.07,-77.51 478.6,-84.49"/>
</a>
</g>
</g>
<!-- Node13 -->
<g id="Node000013" class="node">
<title>Node13</title>
<g id="a_Node000013"><a xlink:href="class_sequence.html#a14cf335c6053ca586d4e1694898575cf" target="_top" xlink:title="Say if a symbol can be an acid nucleic related to DNA.">
<polygon fill="white" stroke="#666666" points="453,-56 353,-56 353,-37 453,-37 453,-56"/>
<text text-anchor="middle" x="403" y="-44" font-family="Helvetica,sans-Serif" font-size="10.00">Sequence::isDNA</text>
</a>
</g>
</g>
<!-- Node12&#45;&gt;Node13 -->
<g id="edge18_Node000012_Node000013" class="edge">
<title>Node12&#45;&gt;Node13</title>
<g id="a_edge18_Node000012_Node000013"><a xlink:title=" ">
<path fill="none" stroke="#63b8ff" d="M317.34,-56.94C325.86,-55.89 334.49,-54.83 342.84,-53.8"/>
<polygon fill="#63b8ff" stroke="#63b8ff" points="343.35,-57.26 352.84,-52.56 342.49,-50.32 343.35,-57.26"/>
</a>
</g>
</g>
<!-- Node14 -->
<g id="Node000014" class="node">
<title>Node14</title>
<g id="a_Node000014"><a xlink:href="class_sequence.html#ad04d994668bcc5d29c6813fcbc28dfb6" target="_top" xlink:title="Say if a symbol can be an acid nucleic related to RNA.">
<polygon fill="white" stroke="#666666" points="452.5,-19 353.5,-19 353.5,0 452.5,0 452.5,-19"/>
<text text-anchor="middle" x="403" y="-7" font-family="Helvetica,sans-Serif" font-size="10.00">Sequence::isRNA</text>
</a>
</g>
</g>
<!-- Node12&#45;&gt;Node14 -->
<g id="edge20_Node000012_Node000014" class="edge">
<title>Node12&#45;&gt;Node14</title>
<g id="a_edge20_Node000012_Node000014"><a xlink:title=" ">
<path fill="none" stroke="#63b8ff" d="M274.47,-55.87C299.86,-46.64 338.36,-32.64 366.42,-22.44"/>
<polygon fill="#63b8ff" stroke="#63b8ff" points="367.67,-25.71 375.87,-19 365.28,-19.13 367.67,-25.71"/>
</a>
</g>
</g>
<!-- Node13&#45;&gt;Node2 -->
<g id="edge19_Node000013_Node000002" class="edge">
<title>Node13&#45;&gt;Node2</title>
<g id="a_edge19_Node000013_Node000002"><a xlink:title=" ">
<path fill="none" stroke="#63b8ff" d="M436.05,-56.09C452.14,-60.9 471.84,-66.8 489.12,-71.97"/>
<polygon fill="#63b8ff" stroke="#63b8ff" points="488.38,-75.4 498.96,-74.91 490.39,-68.69 488.38,-75.4"/>
</a>
</g>
</g>
<!-- Node14&#45;&gt;Node2 -->
<g id="edge21_Node000014_Node000002" class="edge">
<title>Node14&#45;&gt;Node2</title>
<g id="a_edge21_Node000014_Node000002"><a xlink:title=" ">
<path fill="none" stroke="#63b8ff" d="M434.12,-19.06C440.5,-21.5 447.09,-24.33 453,-27.5 474.51,-39.01 496.75,-55.85 511.96,-68.23"/>
<polygon fill="#63b8ff" stroke="#63b8ff" points="510.11,-71.25 520.04,-74.94 514.58,-65.86 510.11,-71.25"/>
</a>
</g>
</g>
</g>
</svg>
