<?xml version="1.0" encoding="UTF-8" standalone="no"?>
<!DOCTYPE svg PUBLIC "-//W3C//DTD SVG 1.1//EN"
 "http://www.w3.org/Graphics/SVG/1.1/DTD/svg11.dtd">
<!-- Generated by graphviz version 2.43.0 (0)
 -->
<!-- Title: Sequence::isLegalNucleic Pages: 1 -->
<svg width="1203pt" height="156pt"
 viewBox="0.00 0.00 1203.00 156.00" xmlns="http://www.w3.org/2000/svg" xmlns:xlink="http://www.w3.org/1999/xlink">
<g id="graph0" class="graph" transform="scale(1 1) rotate(0) translate(4 152)">
<title>Sequence::isLegalNucleic</title>
<!-- Node1 -->
<g id="Node000001" class="node">
<title>Node1</title>
<g id="a_Node000001"><a xlink:title="Say if a symbol can be an acid nucleic.">
<polygon fill="#999999" stroke="#666666" points="140,-56 0,-56 0,-37 140,-37 140,-56"/>
<text text-anchor="middle" x="70" y="-44" font-family="Helvetica,sans-Serif" font-size="10.00">Sequence::isLegalNucleic</text>
</a>
</g>
</g>
<!-- Node2 -->
<g id="Node000002" class="node">
<title>Node2</title>
<g id="a_Node000002"><a xlink:href="class_sequence.html#ad40777fd2f7ad3ae247fab02459e6759" target="_top" xlink:title="Retrieve the symbol at the position in the sequence.">
<polygon fill="white" stroke="#666666" points="398,-56 312,-56 312,-37 398,-37 398,-56"/>
<text text-anchor="middle" x="355" y="-44" font-family="Helvetica,sans-Serif" font-size="10.00">Sequence::get</text>
</a>
</g>
</g>
<!-- Node1&#45;&gt;Node2 -->
<g id="edge1_Node000001_Node000002" class="edge">
<title>Node1&#45;&gt;Node2</title>
<g id="a_edge1_Node000001_Node000002"><a xlink:title=" ">
<path fill="none" stroke="#63b8ff" d="M113.68,-56.01C132.65,-59.78 155.33,-63.65 176,-65.5 220.27,-69.47 231.87,-70.8 276,-65.5 287.99,-64.06 300.79,-61.42 312.49,-58.56"/>
<polygon fill="#63b8ff" stroke="#63b8ff" points="313.62,-61.88 322.44,-56.01 311.88,-55.1 313.62,-61.88"/>
</a>
</g>
</g>
<!-- Node11 -->
<g id="Node000011" class="node">
<title>Node11</title>
<g id="a_Node000011"><a xlink:href="class_sequence.html#a14cf335c6053ca586d4e1694898575cf" target="_top" xlink:title="Say if a symbol can be an acid nucleic related to DNA.">
<polygon fill="white" stroke="#666666" points="276,-56 176,-56 176,-37 276,-37 276,-56"/>
<text text-anchor="middle" x="226" y="-44" font-family="Helvetica,sans-Serif" font-size="10.00">Sequence::isDNA</text>
</a>
</g>
</g>
<!-- Node1&#45;&gt;Node11 -->
<g id="edge14_Node000001_Node000011" class="edge">
<title>Node1&#45;&gt;Node11</title>
<g id="a_edge14_Node000001_Node000011"><a xlink:title=" ">
<path fill="none" stroke="#63b8ff" d="M140.34,-46.5C148.86,-46.5 157.49,-46.5 165.84,-46.5"/>
<polygon fill="#63b8ff" stroke="#63b8ff" points="165.84,-50 175.84,-46.5 165.84,-43 165.84,-50"/>
</a>
</g>
</g>
<!-- Node12 -->
<g id="Node000012" class="node">
<title>Node12</title>
<g id="a_Node000012"><a xlink:href="class_sequence.html#ad04d994668bcc5d29c6813fcbc28dfb6" target="_top" xlink:title="Say if a symbol can be an acid nucleic related to RNA.">
<polygon fill="white" stroke="#666666" points="275.5,-19 176.5,-19 176.5,0 275.5,0 275.5,-19"/>
<text text-anchor="middle" x="226" y="-7" font-family="Helvetica,sans-Serif" font-size="10.00">Sequence::isRNA</text>
</a>
</g>
</g>
<!-- Node1&#45;&gt;Node12 -->
<g id="edge16_Node000001_Node000012" class="edge">
<title>Node1&#45;&gt;Node12</title>
<g id="a_edge16_Node000001_Node000012"><a xlink:title=" ">
<path fill="none" stroke="#63b8ff" d="M110.66,-36.97C130.34,-32.24 154.32,-26.48 175.22,-21.46"/>
<polygon fill="#63b8ff" stroke="#63b8ff" points="176.3,-24.8 185.21,-19.06 174.67,-17.99 176.3,-24.8"/>
</a>
</g>
</g>
<!-- Node2&#45;&gt;Node2 -->
<g id="edge5_Node000002_Node000002" class="edge">
<title>Node2&#45;&gt;Node2</title>
<g id="a_edge5_Node000002_Node000002"><a xlink:title=" ">
<path fill="none" stroke="#63b8ff" d="M335.27,-56.08C325.67,-64.73 332.25,-74 355,-74 369.22,-74 377.12,-70.38 378.7,-65.55"/>
<polygon fill="#63b8ff" stroke="#63b8ff" points="381.83,-63.95 374.73,-56.08 375.37,-66.66 381.83,-63.95"/>
</a>
</g>
</g>
<!-- Node3 -->
<g id="Node000003" class="node">
<title>Node3</title>
<g id="a_Node000003"><a xlink:href="class_bit_vector.html#aebe159444eb9d619959b7325ac5dac2d" target="_top" xlink:title="Return the value of the bit at the position coord.">
<polygon fill="white" stroke="#666666" points="551.5,-130 468.5,-130 468.5,-111 551.5,-111 551.5,-130"/>
<text text-anchor="middle" x="510" y="-118" font-family="Helvetica,sans-Serif" font-size="10.00">BitVector::get</text>
</a>
</g>
</g>
<!-- Node2&#45;&gt;Node3 -->
<g id="edge2_Node000002_Node000003" class="edge">
<title>Node2&#45;&gt;Node3</title>
<g id="a_edge2_Node000002_Node000003"><a xlink:title=" ">
<path fill="none" stroke="#63b8ff" d="M366.76,-56.34C381.07,-68.9 407.62,-90.43 434,-102.5 441.7,-106.02 450.18,-108.91 458.57,-111.25"/>
<polygon fill="#63b8ff" stroke="#63b8ff" points="457.78,-114.66 468.34,-113.75 459.52,-107.88 457.78,-114.66"/>
</a>
</g>
</g>
<!-- Node5 -->
<g id="Node000005" class="node">
<title>Node5</title>
<g id="a_Node000005"><a xlink:href="class_sequence.html#a8181f024304b3fb5f55c7118f648cc61" target="_top" xlink:title="Return a char (same format as Sequence::getType()) that indicate which alphabet is used in the during...">
<polygon fill="white" stroke="#666666" points="586,-93 434,-93 434,-74 586,-74 586,-93"/>
<text text-anchor="middle" x="510" y="-81" font-family="Helvetica,sans-Serif" font-size="10.00">Sequence::getEncodingType</text>
</a>
</g>
</g>
<!-- Node2&#45;&gt;Node5 -->
<g id="edge6_Node000002_Node000005" class="edge">
<title>Node2&#45;&gt;Node5</title>
<g id="a_edge6_Node000002_Node000005"><a xlink:title=" ">
<path fill="none" stroke="#63b8ff" d="M395.27,-56.09C407.66,-59.11 421.4,-62.45 434,-65.5 442.23,-67.49 450.97,-69.6 459.47,-71.64"/>
<polygon fill="#63b8ff" stroke="#63b8ff" points="458.75,-75.06 469.29,-74 460.39,-68.26 458.75,-75.06"/>
</a>
</g>
</g>
<!-- Node6 -->
<g id="Node000006" class="node">
<title>Node6</title>
<g id="a_Node000006"><a xlink:href="class_sequence.html#a49a9126010c0332493c803ddca005394" target="_top" xlink:title="Give a map that compress / decompress char used by Sequence.">
<polygon fill="white" stroke="#666666" points="579.5,-56 440.5,-56 440.5,-37 579.5,-37 579.5,-56"/>
<text text-anchor="middle" x="510" y="-44" font-family="Helvetica,sans-Serif" font-size="10.00">Sequence::translationTab</text>
</a>
</g>
</g>
<!-- Node2&#45;&gt;Node6 -->
<g id="edge7_Node000002_Node000006" class="edge">
<title>Node2&#45;&gt;Node6</title>
<g id="a_edge7_Node000002_Node000006"><a xlink:title=" ">
<path fill="none" stroke="#63b8ff" d="M398.21,-40.39C408.24,-39.99 419.25,-39.78 430.32,-39.75"/>
<polygon fill="#63b8ff" stroke="#63b8ff" points="430.47,-43.25 440.48,-39.78 430.49,-36.25 430.47,-43.25"/>
</a>
</g>
</g>
<!-- Node3&#45;&gt;Node3 -->
<g id="edge3_Node000003_Node000003" class="edge">
<title>Node3&#45;&gt;Node3</title>
<g id="a_edge3_Node000003_Node000003"><a xlink:title=" ">
<path fill="none" stroke="#63b8ff" d="M486.26,-130.08C474.72,-138.73 482.63,-148 510,-148 527.96,-148 537.54,-144.01 538.75,-138.82"/>
<polygon fill="#63b8ff" stroke="#63b8ff" points="541.75,-137.02 533.74,-130.08 535.67,-140.5 541.75,-137.02"/>
</a>
</g>
</g>
<!-- Node4 -->
<g id="Node000004" class="node">
<title>Node4</title>
<g id="a_Node000004"><a xlink:href="class_bit_vector_1_1_coords.html#a2892f7f46c4af93f9733e312229d8ec1" target="_top" xlink:title="Get Coords::octet .">
<polygon fill="white" stroke="#666666" points="739.5,-135.5 632.5,-135.5 632.5,-105.5 739.5,-105.5 739.5,-135.5"/>
<text text-anchor="start" x="640.5" y="-123.5" font-family="Helvetica,sans-Serif" font-size="10.00">BitVector::Coords::</text>
<text text-anchor="middle" x="686" y="-112.5" font-family="Helvetica,sans-Serif" font-size="10.00">getOctet</text>
</a>
</g>
</g>
<!-- Node3&#45;&gt;Node4 -->
<g id="edge4_Node000003_Node000004" class="edge">
<title>Node3&#45;&gt;Node4</title>
<g id="a_edge4_Node000003_Node000004"><a xlink:title=" ">
<path fill="none" stroke="#63b8ff" d="M551.8,-120.5C572.71,-120.5 598.64,-120.5 622.05,-120.5"/>
<polygon fill="#63b8ff" stroke="#63b8ff" points="622.25,-124 632.25,-120.5 622.25,-117 622.25,-124"/>
</a>
</g>
</g>
<!-- Node6&#45;&gt;Node2 -->
<g id="edge13_Node000006_Node000002" class="edge">
<title>Node6&#45;&gt;Node2</title>
<g id="a_edge13_Node000006_Node000002"><a xlink:title=" ">
<path fill="none" stroke="#63b8ff" d="M440.48,-53.22C429.68,-53.31 418.67,-53.21 408.32,-52.94"/>
<polygon fill="#63b8ff" stroke="#63b8ff" points="408.32,-49.44 398.21,-52.61 408.09,-56.44 408.32,-49.44"/>
</a>
</g>
</g>
<!-- Node7 -->
<g id="Node000007" class="node">
<title>Node7</title>
<g id="a_Node000007"><a xlink:href="class_sequence.html#a555c6e58957c4d07028eb5c67b1732ac" target="_top" xlink:title="Function used by Sequence::translationTab to create their compression map.">
<polygon fill="white" stroke="#666666" points="750,-37 622,-37 622,-18 750,-18 750,-37"/>
<text text-anchor="middle" x="686" y="-25" font-family="Helvetica,sans-Serif" font-size="10.00">Sequence::fillCodeMap</text>
</a>
</g>
</g>
<!-- Node6&#45;&gt;Node7 -->
<g id="edge8_Node000006_Node000007" class="edge">
<title>Node6&#45;&gt;Node7</title>
<g id="a_edge8_Node000006_Node000007"><a xlink:title=" ">
<path fill="none" stroke="#63b8ff" d="M579.77,-38.99C590.28,-37.84 601.16,-36.65 611.76,-35.5"/>
<polygon fill="#63b8ff" stroke="#63b8ff" points="612.26,-38.96 621.82,-34.4 611.5,-32.01 612.26,-38.96"/>
</a>
</g>
</g>
<!-- Node7&#45;&gt;Node2 -->
<g id="edge9_Node000007_Node000002" class="edge">
<title>Node7&#45;&gt;Node2</title>
<g id="a_edge9_Node000007_Node000002"><a xlink:title=" ">
<path fill="none" stroke="#63b8ff" d="M621.83,-23.35C570.92,-21 497.6,-19.87 434,-27.5 422.01,-28.94 409.21,-31.58 397.51,-34.44"/>
<polygon fill="#63b8ff" stroke="#63b8ff" points="396.38,-31.12 387.56,-36.99 398.12,-37.9 396.38,-31.12"/>
</a>
</g>
</g>
<!-- Node8 -->
<g id="Node000008" class="node">
<title>Node8</title>
<g id="a_Node000008"><a xlink:href="class_sequence.html#acf21040958590f98163b3d11f19ea93e" target="_top" xlink:title="Give the number of element contained in this sequence.">
<polygon fill="white" stroke="#666666" points="875,-37 786,-37 786,-18 875,-18 875,-37"/>
<text text-anchor="middle" x="830.5" y="-25" font-family="Helvetica,sans-Serif" font-size="10.00">Sequence::size</text>
</a>
</g>
</g>
<!-- Node7&#45;&gt;Node8 -->
<g id="edge10_Node000007_Node000008" class="edge">
<title>Node7&#45;&gt;Node8</title>
<g id="a_edge10_Node000007_Node000008"><a xlink:title=" ">
<path fill="none" stroke="#63b8ff" d="M750.33,-27.5C758.8,-27.5 767.42,-27.5 775.7,-27.5"/>
<polygon fill="#63b8ff" stroke="#63b8ff" points="775.98,-31 785.98,-27.5 775.98,-24 775.98,-31"/>
</a>
</g>
</g>
<!-- Node9 -->
<g id="Node000009" class="node">
<title>Node9</title>
<g id="a_Node000009"><a xlink:href="class_bit_vector.html#ab30ea2b408107e4e6bc8095b5a64a1dd" target="_top" xlink:title="Number of element inside this object.">
<polygon fill="white" stroke="#666666" points="997,-37 911,-37 911,-18 997,-18 997,-37"/>
<text text-anchor="middle" x="954" y="-25" font-family="Helvetica,sans-Serif" font-size="10.00">BitVector::size</text>
</a>
</g>
</g>
<!-- Node8&#45;&gt;Node9 -->
<g id="edge11_Node000008_Node000009" class="edge">
<title>Node8&#45;&gt;Node9</title>
<g id="a_edge11_Node000008_Node000009"><a xlink:title=" ">
<path fill="none" stroke="#63b8ff" d="M875.02,-27.5C883.25,-27.5 891.94,-27.5 900.41,-27.5"/>
<polygon fill="#63b8ff" stroke="#63b8ff" points="900.6,-31 910.6,-27.5 900.6,-24 900.6,-31"/>
</a>
</g>
</g>
<!-- Node10 -->
<g id="Node000010" class="node">
<title>Node10</title>
<g id="a_Node000010"><a xlink:href="class_bit_vector.html#a5339660cfb315ab5de7f78bdf5af4ce1" target="_top" xlink:title="Get BitVector::_element_number.">
<polygon fill="white" stroke="#666666" points="1195,-37 1033,-37 1033,-18 1195,-18 1195,-37"/>
<text text-anchor="middle" x="1114" y="-25" font-family="Helvetica,sans-Serif" font-size="10.00">BitVector::getElementNumber</text>
</a>
</g>
</g>
<!-- Node9&#45;&gt;Node10 -->
<g id="edge12_Node000009_Node000010" class="edge">
<title>Node9&#45;&gt;Node10</title>
<g id="a_edge12_Node000009_Node000010"><a xlink:title=" ">
<path fill="none" stroke="#63b8ff" d="M997.34,-27.5C1005.23,-27.5 1013.74,-27.5 1022.44,-27.5"/>
<polygon fill="#63b8ff" stroke="#63b8ff" points="1022.71,-31 1032.71,-27.5 1022.71,-24 1022.71,-31"/>
</a>
</g>
</g>
<!-- Node11&#45;&gt;Node2 -->
<g id="edge15_Node000011_Node000002" class="edge">
<title>Node11&#45;&gt;Node2</title>
<g id="a_edge15_Node000011_Node000002"><a xlink:title=" ">
<path fill="none" stroke="#63b8ff" d="M276.1,-46.5C284.44,-46.5 293.12,-46.5 301.54,-46.5"/>
<polygon fill="#63b8ff" stroke="#63b8ff" points="301.64,-50 311.64,-46.5 301.64,-43 301.64,-50"/>
</a>
</g>
</g>
<!-- Node12&#45;&gt;Node2 -->
<g id="edge17_Node000012_Node000002" class="edge">
<title>Node12&#45;&gt;Node2</title>
<g id="a_edge17_Node000012_Node000002"><a xlink:title=" ">
<path fill="none" stroke="#63b8ff" d="M259.71,-19.03C275.43,-23.61 294.49,-29.16 311.34,-34.07"/>
<polygon fill="#63b8ff" stroke="#63b8ff" points="310.38,-37.44 320.96,-36.88 312.34,-30.72 310.38,-37.44"/>
</a>
</g>
</g>
</g>
</svg>
