<?xml version="1.0" encoding="UTF-8" standalone="no"?>
<!DOCTYPE svg PUBLIC "-//W3C//DTD SVG 1.1//EN"
 "http://www.w3.org/Graphics/SVG/1.1/DTD/svg11.dtd">
<!-- Generated by graphviz version 2.43.0 (0)
 -->
<!-- Title: BitVector::maximumElementNumber Pages: 1 -->
<!--zoomable 470 -->

<svg id="main" version="1.1" xmlns="http://www.w3.org/2000/svg" xmlns:xlink="http://www.w3.org/1999/xlink" xml:space="preserve" onload="init(evt)">
<style type="text/css"><![CDATA[
.node, .edge {opacity: 0.7;}
.node.selected, .edge.selected {opacity: 1;}
.edge:hover path { stroke: red; }
.edge:hover polygon { stroke: red; fill: red; }
]]></style>

<defs>
  <circle id="rim" cx="0" cy="0" r="7"/>
  <circle id="rim2" cx="0" cy="0" r="3.5"/>
  <g id="zoomPlus">
    <use xlink:href="#rim" fill="#404040"><set attributeName="fill" to="#808080" begin="zoomplus.mouseover" end="zoomplus.mouseout"/></use>
    <path d="M-4,0h8M0,-4v8" fill="none" stroke="white" stroke-width="1.5" pointer-events="none"/>
  </g>
  <g id="zoomMin">
    <use xlink:href="#rim" fill="#404040"><set attributeName="fill" to="#808080" begin="zoomminus.mouseover" end="zoomminus.mouseout"/></use>
    <path d="M-4,0h8" fill="none" stroke="white" stroke-width="1.5" pointer-events="none"/>
  </g>
  <g id="arrowUp" transform="translate(30 24)">
    <use xlink:href="#rim"/>
    <path pointer-events="none" fill="none" stroke="white" stroke-width="1.5" d="M0,-3.0v7 M-2.5,-0.5L0,-3.0L2.5,-0.5"/>
  </g>
  <g id="arrowRight" transform="rotate(90) translate(36 -43)">
    <use xlink:href="#rim"/>
    <path pointer-events="none" fill="none" stroke="white" stroke-width="1.5" d="M0,-3.0v7 M-2.5,-0.5L0,-3.0L2.5,-0.5"/>
  </g>
  <g id="arrowDown" transform="rotate(180) translate(-30 -48)">
    <use xlink:href="#rim"/>
    <path pointer-events="none" fill="none" stroke="white" stroke-width="1.5" d="M0,-3.0v7 M-2.5,-0.5L0,-3.0L2.5,-0.5"/>
  </g>
  <g id="arrowLeft" transform="rotate(270) translate(-36 17)">
    <use xlink:href="#rim"/>
    <path pointer-events="none" fill="none" stroke="white" stroke-width="1.5" d="M0,-3.0v7 M-2.5,-0.5L0,-3.0L2.5,-0.5"/>
  </g>
  <g id="resetDef">
    <use xlink:href="#rim2" fill="#404040"><set attributeName="fill" to="#808080" begin="reset.mouseover" end="reset.mouseout"/></use>
  </g>
</defs>
<script type="application/ecmascript">
var viewWidth = 1476;
var viewHeight = 470;
var sectionId = 'dynsection-49';
</script>
<script type="application/ecmascript" xlink:href="svg.min.js"/>
<svg id="graph" class="graph">
<g id="viewport">
<title>BitVector::maximumElementNumber</title>
<!-- Node1 -->
<g id="Node000001" class="node">
<title>Node1</title>
<g id="a_Node000001"><a xlink:title="How many element can be contained in this kind of object.">
<polygon fill="#999999" stroke="#666666" points="1468,-238 1310,-238 1310,-208 1468,-208 1468,-238"/>
<text text-anchor="start" x="1318" y="-226" font-family="Helvetica,sans-Serif" font-size="10.00">BitVector::maximumElement</text>
<text text-anchor="middle" x="1389" y="-215" font-family="Helvetica,sans-Serif" font-size="10.00">Number</text>
</a>
</g>
</g>
<!-- Node2 -->
<g id="Node000002" class="node">
<title>Node2</title>
<g id="a_Node000002"><a xlink:href="class_bit_vector.html#ad36e7d0b4b1417ca434414fa40c72eb8" target="_top" xlink:title="How many element can be contained in this object knowing BitVector::_element_size.">
<polygon fill="white" stroke="#666666" points="1274,-232.5 1120,-232.5 1120,-213.5 1274,-213.5 1274,-232.5"/>
<text text-anchor="middle" x="1197" y="-220.5" font-family="Helvetica,sans-Serif" font-size="10.00">BitVector::maxElementLimit</text>
</a>
</g>
</g>
<!-- Node1&#45;&gt;Node2 -->
<g id="edge1_Node000001_Node000002" class="edge">
<title>Node1&#45;&gt;Node2</title>
<g id="a_edge1_Node000001_Node000002"><a xlink:title=" ">
<path fill="none" stroke="#63b8ff" d="M1299.62,-223C1291.15,-223 1282.61,-223 1274.27,-223"/>
<polygon fill="#63b8ff" stroke="#63b8ff" points="1299.9,-226.5 1309.9,-223 1299.9,-219.5 1299.9,-226.5"/>
</a>
</g>
</g>
<!-- Node3 -->
<g id="Node000003" class="node">
<title>Node3</title>
<g id="a_Node000003"><a xlink:href="class_bit_vector.html#a04e6d0b67ee9b42ccec437b0176067fe" target="_top" xlink:title="Give A size_t that represent the coords of the first bit of an element.">
<polygon fill="white" stroke="#666666" points="1084,-253.5 901,-253.5 901,-234.5 1084,-234.5 1084,-253.5"/>
<text text-anchor="middle" x="992.5" y="-241.5" font-family="Helvetica,sans-Serif" font-size="10.00">BitVector::indexElementUntreated</text>
</a>
</g>
</g>
<!-- Node2&#45;&gt;Node3 -->
<g id="edge2_Node000002_Node000003" class="edge">
<title>Node2&#45;&gt;Node3</title>
<g id="a_edge2_Node000002_Node000003"><a xlink:title=" ">
<path fill="none" stroke="#63b8ff" d="M1109.52,-231.97C1101.08,-232.84 1092.49,-233.73 1084.01,-234.61"/>
<polygon fill="#63b8ff" stroke="#63b8ff" points="1110.15,-235.42 1119.73,-230.91 1109.42,-228.46 1110.15,-235.42"/>
</a>
</g>
</g>
<!-- Node13 -->
<g id="Node000013" class="node">
<title>Node13</title>
<g id="a_Node000013"><a xlink:href="class_bit_vector.html#a686af396e4dff1536b7588213726c4cc" target="_top" xlink:title="Insert a number of blank position inside BitVector::_data.">
<polygon fill="white" stroke="#666666" points="309,-395.5 131,-395.5 131,-376.5 309,-376.5 309,-395.5"/>
<text text-anchor="middle" x="220" y="-383.5" font-family="Helvetica,sans-Serif" font-size="10.00">BitVector::makeRoomForElement</text>
</a>
</g>
</g>
<!-- Node2&#45;&gt;Node13 -->
<g id="edge22_Node000002_Node000013" class="edge">
<title>Node2&#45;&gt;Node13</title>
<g id="a_edge22_Node000002_Node000013"><a xlink:title=" ">
<path fill="none" stroke="#63b8ff" d="M1181.01,-240.18C1131.46,-294.97 966.07,-462 791.5,-462 791.5,-462 791.5,-462 609,-462 472.4,-462 313.72,-416.08 249.82,-395.63"/>
<polygon fill="#63b8ff" stroke="#63b8ff" points="1183.67,-242.46 1187.72,-232.67 1178.45,-237.8 1183.67,-242.46"/>
</a>
</g>
</g>
<!-- Node19 -->
<g id="Node000019" class="node">
<title>Node19</title>
<g id="a_Node000019"><a xlink:href="class_bit_vector.html#a346dbe2e158d2cfda20212e7f93e8402" target="_top" xlink:title="Do maximum BitVector::_element_number is reached (With no possibility to push it further)">
<polygon fill="white" stroke="#666666" points="865,-214 716,-214 716,-184 865,-184 865,-214"/>
<text text-anchor="start" x="724" y="-202" font-family="Helvetica,sans-Serif" font-size="10.00">BitVector::maxElementSize</text>
<text text-anchor="middle" x="790.5" y="-191" font-family="Helvetica,sans-Serif" font-size="10.00">IsReached</text>
</a>
</g>
</g>
<!-- Node2&#45;&gt;Node19 -->
<g id="edge23_Node000002_Node000019" class="edge">
<title>Node2&#45;&gt;Node19</title>
<g id="a_edge23_Node000002_Node000019"><a xlink:title=" ">
<path fill="none" stroke="#63b8ff" d="M1109.86,-217.89C1037.15,-213.57 934.15,-207.46 865.2,-203.37"/>
<polygon fill="#63b8ff" stroke="#63b8ff" points="1109.73,-221.39 1119.92,-218.49 1110.14,-214.4 1109.73,-221.39"/>
</a>
</g>
</g>
<!-- Node21 -->
<g id="Node000021" class="node">
<title>Node21</title>
<g id="a_Node000021"><a xlink:href="class_bit_vector.html#a214e556dd89acce2427a378c5520adbd" target="_top" xlink:title="Last acceptable coordinate knowing BitVector::_element_size.">
<polygon fill="white" stroke="#666666" points="1074,-157.5 911,-157.5 911,-138.5 1074,-138.5 1074,-157.5"/>
<text text-anchor="middle" x="992.5" y="-145.5" font-family="Helvetica,sans-Serif" font-size="10.00">BitVector::MaximalCoordLimit</text>
</a>
</g>
</g>
<!-- Node2&#45;&gt;Node21 -->
<g id="edge25_Node000002_Node000021" class="edge">
<title>Node2&#45;&gt;Node21</title>
<g id="a_edge25_Node000002_Node000021"><a xlink:title=" ">
<path fill="none" stroke="#63b8ff" d="M1160.5,-209.85C1120.17,-194.91 1055.33,-170.9 1019.46,-157.61"/>
<polygon fill="#63b8ff" stroke="#63b8ff" points="1159.35,-213.16 1169.94,-213.35 1161.78,-206.59 1159.35,-213.16"/>
</a>
</g>
</g>
<!-- Node4 -->
<g id="Node000004" class="node">
<title>Node4</title>
<g id="a_Node000004"><a xlink:href="class_bit_vector.html#a93ab8bc2ec39bf299ae28ffcad504b41" target="_top" xlink:title="Give the coords of the first bit of an element.">
<polygon fill="white" stroke="#666666" points="857.5,-259.5 723.5,-259.5 723.5,-240.5 857.5,-240.5 857.5,-259.5"/>
<text text-anchor="middle" x="790.5" y="-247.5" font-family="Helvetica,sans-Serif" font-size="10.00">BitVector::indexElement</text>
</a>
</g>
</g>
<!-- Node3&#45;&gt;Node4 -->
<g id="edge3_Node000003_Node000004" class="edge">
<title>Node3&#45;&gt;Node4</title>
<g id="a_edge3_Node000003_Node000004"><a xlink:title=" ">
<path fill="none" stroke="#63b8ff" d="M890.59,-247.03C879.39,-247.36 868.2,-247.7 857.59,-248.02"/>
<polygon fill="#63b8ff" stroke="#63b8ff" points="890.97,-250.52 900.86,-246.72 890.76,-243.52 890.97,-250.52"/>
</a>
</g>
</g>
<!-- Node5 -->
<g id="Node000005" class="node">
<title>Node5</title>
<g id="a_Node000005"><a xlink:href="class_bit_vector.html#a2d0fe43b80b63edbd64dc887fd87d915" target="_top" xlink:title="Return the element at the position index.">
<polygon fill="white" stroke="#666666" points="651.5,-300.5 568.5,-300.5 568.5,-281.5 651.5,-281.5 651.5,-300.5"/>
<text text-anchor="middle" x="610" y="-288.5" font-family="Helvetica,sans-Serif" font-size="10.00">BitVector::get</text>
</a>
</g>
</g>
<!-- Node4&#45;&gt;Node5 -->
<g id="edge4_Node000004_Node000005" class="edge">
<title>Node4&#45;&gt;Node5</title>
<g id="a_edge4_Node000004_Node000005"><a xlink:title=" ">
<path fill="none" stroke="#63b8ff" d="M738.25,-261.77C710.72,-268.09 677.26,-275.78 651.56,-281.68"/>
<polygon fill="#63b8ff" stroke="#63b8ff" points="739.14,-265.16 748.1,-259.51 737.57,-258.34 739.14,-265.16"/>
</a>
</g>
</g>
<!-- Node6 -->
<g id="Node000006" class="node">
<title>Node6</title>
<g id="a_Node000006"><a xlink:href="class_bit_vector.html#a13856f33d2350c573cf2fbe587f03757" target="_top" xlink:title="Modify the length of BitVector::_data.">
<polygon fill="white" stroke="#666666" points="658,-127.5 562,-127.5 562,-108.5 658,-108.5 658,-127.5"/>
<text text-anchor="middle" x="610" y="-115.5" font-family="Helvetica,sans-Serif" font-size="10.00">BitVector::resize</text>
</a>
</g>
</g>
<!-- Node4&#45;&gt;Node6 -->
<g id="edge5_Node000004_Node000006" class="edge">
<title>Node4&#45;&gt;Node6</title>
<g id="a_edge5_Node000004_Node000006"><a xlink:title=" ">
<path fill="none" stroke="#63b8ff" d="M744.4,-236.94C734.65,-233.17 724.68,-228.55 716,-223 673.21,-195.65 634.1,-148.21 618.34,-127.8"/>
<polygon fill="#63b8ff" stroke="#63b8ff" points="743.42,-240.31 754.02,-240.42 745.81,-233.73 743.42,-240.31"/>
</a>
</g>
</g>
<!-- Node10 -->
<g id="Node000010" class="node">
<title>Node10</title>
<g id="a_Node000010"><a xlink:href="class_bit_vector.html#aca24053f655c825de0f06ec86fff1cec" target="_top" xlink:title="Replace an element by another element. Can add an element to the list if index = BitVector::_element_...">
<polygon fill="white" stroke="#666666" points="651,-263.5 569,-263.5 569,-244.5 651,-244.5 651,-263.5"/>
<text text-anchor="middle" x="610" y="-251.5" font-family="Helvetica,sans-Serif" font-size="10.00">BitVector::set</text>
</a>
</g>
</g>
<!-- Node4&#45;&gt;Node10 -->
<g id="edge9_Node000004_Node000010" class="edge">
<title>Node4&#45;&gt;Node10</title>
<g id="a_edge9_Node000004_Node000010"><a xlink:title=" ">
<path fill="none" stroke="#63b8ff" d="M713.24,-251.71C691.9,-252.19 669.54,-252.69 651.19,-253.1"/>
<polygon fill="#63b8ff" stroke="#63b8ff" points="713.37,-255.21 723.29,-251.48 713.21,-248.21 713.37,-255.21"/>
</a>
</g>
</g>
<!-- Node7 -->
<g id="Node000007" class="node">
<title>Node7</title>
<g id="a_Node000007"><a xlink:href="class_bit_vector.html#a23c1685317944b2a5c6f149a5fccc6bd" target="_top" xlink:title="Construct a new Bit Vector object.">
<polygon fill="white" stroke="#666666" points="480,-131.5 369,-131.5 369,-112.5 480,-112.5 480,-131.5"/>
<text text-anchor="middle" x="424.5" y="-119.5" font-family="Helvetica,sans-Serif" font-size="10.00">BitVector::BitVector</text>
</a>
</g>
</g>
<!-- Node6&#45;&gt;Node7 -->
<g id="edge6_Node000006_Node000007" class="edge">
<title>Node6&#45;&gt;Node7</title>
<g id="a_edge6_Node000006_Node000007"><a xlink:title=" ">
<path fill="none" stroke="#63b8ff" d="M551.52,-119.25C528.71,-119.75 502.59,-120.32 480.07,-120.81"/>
<polygon fill="#63b8ff" stroke="#63b8ff" points="551.82,-122.75 561.74,-119.03 551.67,-115.75 551.82,-122.75"/>
</a>
</g>
</g>
<!-- Node8 -->
<g id="Node000008" class="node">
<title>Node8</title>
<g id="a_Node000008"><a xlink:href="class_bit_vector.html#a673b530bb6e520f7f7fa90070e0034db" target="_top" xlink:title="Free memory used by BitVector::_data.">
<polygon fill="white" stroke="#666666" points="470,-94.5 379,-94.5 379,-75.5 470,-75.5 470,-94.5"/>
<text text-anchor="middle" x="424.5" y="-82.5" font-family="Helvetica,sans-Serif" font-size="10.00">BitVector::clear</text>
</a>
</g>
</g>
<!-- Node6&#45;&gt;Node8 -->
<g id="edge7_Node000006_Node000008" class="edge">
<title>Node6&#45;&gt;Node8</title>
<g id="a_edge7_Node000006_Node000008"><a xlink:title=" ">
<path fill="none" stroke="#63b8ff" d="M551.88,-107.73C525.52,-102.99 494.68,-97.44 470.07,-93.02"/>
<polygon fill="#63b8ff" stroke="#63b8ff" points="551.28,-111.18 561.74,-109.5 552.52,-104.29 551.28,-111.18"/>
</a>
</g>
</g>
<!-- Node9 -->
<g id="Node000009" class="node">
<title>Node9</title>
<g id="a_Node000009"><a xlink:href="class_bit_vector.html#a80a4aa212535129b881b4fb2623ce222" target="_top" xlink:title="Reduce the size of BitVector::_data to fit BitVector::_element_number.">
<polygon fill="white" stroke="#666666" points="473,-57.5 376,-57.5 376,-38.5 473,-38.5 473,-57.5"/>
<text text-anchor="middle" x="424.5" y="-45.5" font-family="Helvetica,sans-Serif" font-size="10.00">BitVector::shrink</text>
</a>
</g>
</g>
<!-- Node6&#45;&gt;Node9 -->
<g id="edge8_Node000006_Node000009" class="edge">
<title>Node6&#45;&gt;Node9</title>
<g id="a_edge8_Node000006_Node000009"><a xlink:title=" ">
<path fill="none" stroke="#63b8ff" d="M576.64,-104.31C564.97,-99.15 551.77,-93.05 540,-87 523.53,-78.53 521.22,-72.81 504,-66 494.25,-62.14 483.47,-59 473.11,-56.48"/>
<polygon fill="#63b8ff" stroke="#63b8ff" points="575.46,-107.61 586.03,-108.4 578.26,-101.2 575.46,-107.61"/>
</a>
</g>
</g>
<!-- Node11 -->
<g id="Node000011" class="node">
<title>Node11</title>
<g id="a_Node000011"><a xlink:href="class_bit_vector.html#afbdbe8a5003f5941ffd5ab095cf87d88" target="_top" xlink:title="Add an element at the end of the vector.">
<polygon fill="white" stroke="#666666" points="476,-357.5 373,-357.5 373,-338.5 476,-338.5 476,-357.5"/>
<text text-anchor="middle" x="424.5" y="-345.5" font-family="Helvetica,sans-Serif" font-size="10.00">BitVector::append</text>
</a>
</g>
</g>
<!-- Node10&#45;&gt;Node11 -->
<g id="edge10_Node000010_Node000011" class="edge">
<title>Node10&#45;&gt;Node11</title>
<g id="a_edge10_Node000010_Node000011"><a xlink:title=" ">
<path fill="none" stroke="#63b8ff" d="M558.85,-263.02C552.14,-265.56 545.63,-268.82 540,-273 515.93,-290.85 528.45,-312.68 504,-330 495.79,-335.82 485.98,-339.79 476.13,-342.49"/>
<polygon fill="#63b8ff" stroke="#63b8ff" points="560.34,-266.22 568.76,-259.79 558.17,-259.56 560.34,-266.22"/>
</a>
</g>
</g>
<!-- Node12 -->
<g id="Node000012" class="node">
<title>Node12</title>
<g id="a_Node000012"><a xlink:href="class_bit_vector.html#a5547d55a697d61de026d0a94e743624b" target="_top" xlink:title="Construct a new Bit Vector object.">
<polygon fill="white" stroke="#666666" points="275.5,-319.5 164.5,-319.5 164.5,-300.5 275.5,-300.5 275.5,-319.5"/>
<text text-anchor="middle" x="220" y="-307.5" font-family="Helvetica,sans-Serif" font-size="10.00">BitVector::BitVector</text>
</a>
</g>
</g>
<!-- Node10&#45;&gt;Node12 -->
<g id="edge16_Node000010_Node000012" class="edge">
<title>Node10&#45;&gt;Node12</title>
<g id="a_edge16_Node000010_Node000012"><a xlink:title=" ">
<path fill="none" stroke="#63b8ff" d="M558.63,-261.27C485.66,-271.8 351.03,-291.23 275.7,-302.11"/>
<polygon fill="#63b8ff" stroke="#63b8ff" points="559.54,-264.67 568.94,-259.78 558.54,-257.75 559.54,-264.67"/>
</a>
</g>
</g>
<!-- Node10&#45;&gt;Node13 -->
<g id="edge19_Node000010_Node000013" class="edge">
<title>Node10&#45;&gt;Node13</title>
<g id="a_edge19_Node000010_Node000013"><a xlink:title=" ">
<path fill="none" stroke="#63b8ff" d="M559.24,-261.57C552.2,-264.31 545.5,-268.01 540,-273 506.87,-303.06 539.99,-340.43 504,-367 432.1,-420.09 319.9,-407.45 260.68,-395.6"/>
<polygon fill="#63b8ff" stroke="#63b8ff" points="560.53,-264.83 568.96,-258.41 558.36,-258.18 560.53,-264.83"/>
</a>
</g>
</g>
<!-- Node14 -->
<g id="Node000014" class="node">
<title>Node14</title>
<g id="a_Node000014"><a xlink:href="class_bit_vector.html#a9f86c96c013632abd9d18feafe78d72e" target="_top" xlink:title="Insert a number_of_elements inside the vector at the index pos .">
<polygon fill="white" stroke="#666666" points="95,-414.5 0,-414.5 0,-395.5 95,-395.5 95,-414.5"/>
<text text-anchor="middle" x="47.5" y="-402.5" font-family="Helvetica,sans-Serif" font-size="10.00">BitVector::insert</text>
</a>
</g>
</g>
<!-- Node10&#45;&gt;Node14 -->
<g id="edge17_Node000010_Node000014" class="edge">
<title>Node10&#45;&gt;Node14</title>
<g id="a_edge17_Node000010_Node000014"><a xlink:title=" ">
<path fill="none" stroke="#63b8ff" d="M559.07,-261.05C552,-263.85 545.34,-267.7 540,-273 498.36,-314.33 550.34,-364.02 504,-400 372.97,-501.72 150.87,-440.11 74.9,-414.53"/>
<polygon fill="#63b8ff" stroke="#63b8ff" points="560.46,-264.28 568.88,-257.86 558.29,-257.63 560.46,-264.28"/>
</a>
</g>
</g>
<!-- Node15 -->
<g id="Node000015" class="node">
<title>Node15</title>
<g id="a_Node000015"><a xlink:href="class_bit_vector.html#a915743b3f94c75c22317d160bfa741ff" target="_top" xlink:title="Insert a number_of_elements inside the vector at the index pos .">
<polygon fill="white" stroke="#666666" points="95,-301.5 0,-301.5 0,-282.5 95,-282.5 95,-301.5"/>
<text text-anchor="middle" x="47.5" y="-289.5" font-family="Helvetica,sans-Serif" font-size="10.00">BitVector::insert</text>
</a>
</g>
</g>
<!-- Node10&#45;&gt;Node15 -->
<g id="edge18_Node000010_Node000015" class="edge">
<title>Node10&#45;&gt;Node15</title>
<g id="a_edge18_Node000010_Node000015"><a xlink:title=" ">
<path fill="none" stroke="#63b8ff" d="M579.88,-240.36C559.21,-231.46 530.54,-220.65 504,-216 338.96,-187.05 139.8,-256.03 72.23,-282.33"/>
<polygon fill="#63b8ff" stroke="#63b8ff" points="578.49,-243.57 589.05,-244.41 581.32,-237.17 578.49,-243.57"/>
</a>
</g>
</g>
<!-- Node16 -->
<g id="Node000016" class="node">
<title>Node16</title>
<g id="a_Node000016"><a xlink:href="class_bit_vector.html#a2af5c1a1a0050e2b52d06c38436280fd" target="_top" xlink:title="Add an element at the end of the vector.">
<polygon fill="white" stroke="#666666" points="476,-320.5 373,-320.5 373,-301.5 476,-301.5 476,-320.5"/>
<text text-anchor="middle" x="424.5" y="-308.5" font-family="Helvetica,sans-Serif" font-size="10.00">BitVector::append</text>
</a>
</g>
</g>
<!-- Node10&#45;&gt;Node16 -->
<g id="edge15_Node000010_Node000016" class="edge">
<title>Node10&#45;&gt;Node16</title>
<g id="a_edge15_Node000010_Node000016"><a xlink:title=" ">
<path fill="none" stroke="#63b8ff" d="M561.72,-266.33C554.41,-268.43 546.97,-270.69 540,-273 523.7,-278.4 520.22,-281.38 504,-287 489.19,-292.14 472.61,-297.29 458.52,-301.5"/>
<polygon fill="#63b8ff" stroke="#63b8ff" points="562.87,-269.64 571.55,-263.56 560.97,-262.9 562.87,-269.64"/>
</a>
</g>
</g>
<!-- Node17 -->
<g id="Node000017" class="node">
<title>Node17</title>
<g id="a_Node000017"><a xlink:href="class_bit_vector.html#a87f84edf5dd56606b26e8741ba6ced02" target="_top" xlink:title="Remove a number of element from the vector.">
<polygon fill="white" stroke="#666666" points="476.5,-244.5 372.5,-244.5 372.5,-225.5 476.5,-225.5 476.5,-244.5"/>
<text text-anchor="middle" x="424.5" y="-232.5" font-family="Helvetica,sans-Serif" font-size="10.00">BitVector::remove</text>
</a>
</g>
</g>
<!-- Node10&#45;&gt;Node17 -->
<g id="edge20_Node000010_Node000017" class="edge">
<title>Node10&#45;&gt;Node17</title>
<g id="a_edge20_Node000010_Node000017"><a xlink:title=" ">
<path fill="none" stroke="#63b8ff" d="M558.52,-248.77C533,-246.13 502.11,-242.93 476.52,-240.28"/>
<polygon fill="#63b8ff" stroke="#63b8ff" points="558.42,-252.28 568.73,-249.83 559.14,-245.32 558.42,-252.28"/>
</a>
</g>
</g>
<!-- Node18 -->
<g id="Node000018" class="node">
<title>Node18</title>
<g id="a_Node000018"><a xlink:href="class_bit_vector.html#a38e8be69974c874857dd7cb6a52429ac" target="_top" xlink:title="Replace an element by another element. Can add an element to the list if index = BitVector::_element_...">
<polygon fill="white" stroke="#666666" points="465.5,-168.5 383.5,-168.5 383.5,-149.5 465.5,-149.5 465.5,-168.5"/>
<text text-anchor="middle" x="424.5" y="-156.5" font-family="Helvetica,sans-Serif" font-size="10.00">BitVector::set</text>
</a>
</g>
</g>
<!-- Node10&#45;&gt;Node18 -->
<g id="edge21_Node000010_Node000018" class="edge">
<title>Node10&#45;&gt;Node18</title>
<g id="a_edge21_Node000010_Node000018"><a xlink:title=" ">
<path fill="none" stroke="#63b8ff" d="M589.56,-238.23C569.26,-222.42 535.97,-198.27 504,-183 491.78,-177.16 477.82,-172.35 465.1,-168.61"/>
<polygon fill="#63b8ff" stroke="#63b8ff" points="587.41,-241 597.43,-244.45 591.75,-235.5 587.41,-241"/>
</a>
</g>
</g>
<!-- Node11&#45;&gt;Node12 -->
<g id="edge11_Node000011_Node000012" class="edge">
<title>Node11&#45;&gt;Node12</title>
<g id="a_edge11_Node000011_Node000012"><a xlink:title=" ">
<path fill="none" stroke="#63b8ff" d="M362.87,-336.62C333.77,-331.16 299.31,-324.69 271.63,-319.5"/>
<polygon fill="#63b8ff" stroke="#63b8ff" points="362.45,-340.1 372.92,-338.51 363.74,-333.22 362.45,-340.1"/>
</a>
</g>
</g>
<!-- Node11&#45;&gt;Node13 -->
<g id="edge12_Node000011_Node000013" class="edge">
<title>Node11&#45;&gt;Node13</title>
<g id="a_edge12_Node000011_Node000013"><a xlink:title=" ">
<path fill="none" stroke="#63b8ff" d="M362.87,-359.38C333.77,-364.84 299.31,-371.31 271.63,-376.5"/>
<polygon fill="#63b8ff" stroke="#63b8ff" points="363.74,-362.78 372.92,-357.49 362.45,-355.9 363.74,-362.78"/>
</a>
</g>
</g>
<!-- Node13&#45;&gt;Node14 -->
<g id="edge13_Node000013_Node000014" class="edge">
<title>Node13&#45;&gt;Node14</title>
<g id="a_edge13_Node000013_Node000014"><a xlink:title=" ">
<path fill="none" stroke="#63b8ff" d="M123.14,-396.68C113.48,-397.76 104.01,-398.81 95.23,-399.79"/>
<polygon fill="#63b8ff" stroke="#63b8ff" points="123.7,-400.14 133.25,-395.56 122.92,-393.18 123.7,-400.14"/>
</a>
</g>
</g>
<!-- Node13&#45;&gt;Node15 -->
<g id="edge14_Node000013_Node000015" class="edge">
<title>Node13&#45;&gt;Node15</title>
<g id="a_edge14_Node000013_Node000015"><a xlink:title=" ">
<path fill="none" stroke="#63b8ff" d="M192.95,-371.64C157.72,-352.22 95.86,-318.11 65.83,-301.56"/>
<polygon fill="#63b8ff" stroke="#63b8ff" points="191.27,-374.71 201.71,-376.47 194.65,-368.58 191.27,-374.71"/>
</a>
</g>
</g>
<!-- Node20 -->
<g id="Node000020" class="node">
<title>Node20</title>
<g id="a_Node000020"><a xlink:href="class_bit_vector.html#a87e099aba27ebb0f67c07dd8314828e7" target="_top" xlink:title="Do maximum capacity is reached (With no possibility to push it further)">
<polygon fill="white" stroke="#666666" points="504,-20.5 345,-20.5 345,-1.5 504,-1.5 504,-20.5"/>
<text text-anchor="middle" x="424.5" y="-8.5" font-family="Helvetica,sans-Serif" font-size="10.00">BitVector::maxSizeIsReached</text>
</a>
</g>
</g>
<!-- Node19&#45;&gt;Node20 -->
<g id="edge24_Node000019_Node000020" class="edge">
<title>Node19&#45;&gt;Node20</title>
<g id="a_edge24_Node000019_Node000020"><a xlink:title=" ">
<path fill="none" stroke="#63b8ff" d="M763.05,-177.32C748.83,-165.42 731.16,-150.23 716,-136 699.27,-120.3 699.08,-111.74 680,-99 609.99,-52.25 584.37,-54.04 504,-29 493.99,-25.88 483.1,-23.04 472.72,-20.59"/>
<polygon fill="#63b8ff" stroke="#63b8ff" points="761.05,-180.21 770.98,-183.91 765.53,-174.83 761.05,-180.21"/>
</a>
</g>
</g>
<!-- Node22 -->
<g id="Node000022" class="node">
<title>Node22</title>
<g id="a_Node000022"><a xlink:href="class_bit_vector.html#acb362f03b29600195996f52c04940439" target="_top" xlink:title="How many octet can be contained in this object knowing BitVector::_element_size.">
<polygon fill="white" stroke="#666666" points="860.5,-127.5 720.5,-127.5 720.5,-108.5 860.5,-108.5 860.5,-127.5"/>
<text text-anchor="middle" x="790.5" y="-115.5" font-family="Helvetica,sans-Serif" font-size="10.00">BitVector::maxOctetLimit</text>
</a>
</g>
</g>
<!-- Node21&#45;&gt;Node22 -->
<g id="edge26_Node000021_Node000022" class="edge">
<title>Node21&#45;&gt;Node22</title>
<g id="a_edge26_Node000021_Node000022"><a xlink:title=" ">
<path fill="none" stroke="#63b8ff" d="M917.94,-136.97C897.25,-133.86 874.93,-130.51 854.89,-127.51"/>
<polygon fill="#63b8ff" stroke="#63b8ff" points="917.54,-140.44 927.94,-138.47 918.57,-133.52 917.54,-140.44"/>
</a>
</g>
</g>
<!-- Node22&#45;&gt;Node6 -->
<g id="edge29_Node000022_Node000006" class="edge">
<title>Node22&#45;&gt;Node6</title>
<g id="a_edge29_Node000022_Node000006"><a xlink:title=" ">
<path fill="none" stroke="#63b8ff" d="M710.1,-118C692.31,-118 674,-118 658.03,-118"/>
<polygon fill="#63b8ff" stroke="#63b8ff" points="710.49,-121.5 720.49,-118 710.49,-114.5 710.49,-121.5"/>
</a>
</g>
</g>
<!-- Node23 -->
<g id="Node000023" class="node">
<title>Node23</title>
<g id="a_Node000023"><a xlink:href="class_bit_vector.html#a00aeec5e60b478d74e1540f34f46e37c" target="_top" xlink:title="Do maximum BitVector::_data_size is reached (With no possibility to push it further)">
<polygon fill="white" stroke="#666666" points="680,-30 540,-30 540,0 680,0 680,-30"/>
<text text-anchor="start" x="548" y="-18" font-family="Helvetica,sans-Serif" font-size="10.00">BitVector::maxDataSizeIs</text>
<text text-anchor="middle" x="610" y="-7" font-family="Helvetica,sans-Serif" font-size="10.00">Reached</text>
</a>
</g>
</g>
<!-- Node22&#45;&gt;Node23 -->
<g id="edge27_Node000022_Node000023" class="edge">
<title>Node22&#45;&gt;Node23</title>
<g id="a_edge27_Node000022_Node000023"><a xlink:title=" ">
<path fill="none" stroke="#63b8ff" d="M764.25,-103.43C730.58,-84 671.27,-49.78 637.15,-30.09"/>
<polygon fill="#63b8ff" stroke="#63b8ff" points="762.62,-106.53 773.03,-108.49 766.11,-100.47 762.62,-106.53"/>
</a>
</g>
</g>
<!-- Node23&#45;&gt;Node20 -->
<g id="edge28_Node000023_Node000020" class="edge">
<title>Node23&#45;&gt;Node20</title>
<g id="a_edge28_Node000023_Node000020"><a xlink:title=" ">
<path fill="none" stroke="#63b8ff" d="M529.65,-13.27C521.17,-13.09 512.56,-12.9 504.09,-12.71"/>
<polygon fill="#63b8ff" stroke="#63b8ff" points="529.81,-16.77 539.89,-13.49 529.97,-9.78 529.81,-16.77"/>
</a>
</g>
</g>
</g>
</svg>

<g id="navigator" transform="translate(0 0)" fill="#404254">
  <rect fill="#f2f5e9" fill-opacity="0.5" stroke="#606060" stroke-width=".5" x="0" y="0" width="60" height="60"/>
  <use id="zoomplus" xlink:href="#zoomPlus" x="17" y="9" onmousedown="handleZoom(evt,'in')"/>
  <use id="zoomminus" xlink:href="#zoomMin" x="42" y="9" onmousedown="handleZoom(evt,'out')"/>
  <use id="reset" xlink:href="#resetDef" x="30" y="36" onmousedown="handleReset()"/>
   <use id="arrowup" xlink:href="#arrowUp" x="0" y="0" onmousedown="handlePan(0,-1)"/>
  <use id="arrowright" xlink:href="#arrowRight" x="0" y="0" onmousedown="handlePan(1,0)"/>
  <use id="arrowdown" xlink:href="#arrowDown" x="0" y="0" onmousedown="handlePan(0,1)"/>
  <use id="arrowleft" xlink:href="#arrowLeft" x="0" y="0" onmousedown="handlePan(-1,0)"/>
</g>
<svg viewBox="0 0 15 15" width="100%" height="30px" preserveAspectRatio="xMaxYMin meet">
 <g id="arrow_out" transform="scale(0.3 0.3)">
  <a xlink:href="class_bit_vector_a68b14af0886039ddcf55c82a250deb4c_icgraph_org.svg" target="_base">
   <rect id="button" ry="5" rx="5" y="6" x="6" height="38" width="38"
        fill="#f2f5e9" fill-opacity="0.5" stroke="#606060" stroke-width="1.0"/>
   <path id="arrow"
     d="M 11.500037,31.436501 C 11.940474,20.09759 22.043105,11.32322 32.158766,21.979434 L 37.068811,17.246167 C 37.068811,17.246167 37.088388,32 37.088388,32 L 22.160133,31.978069 C 22.160133,31.978069 26.997745,27.140456 26.997745,27.140456 C 18.528582,18.264221 13.291696,25.230495 11.500037,31.436501 z"
     style="fill:#404040;"/>
  </a>
 </g>
</svg>

<style type='text/css'>
<![CDATA[
[data-mouse-over-selected='false'] { opacity: 0.7; }
[data-mouse-over-selected='true']  { opacity: 1.0; }
]]>
</style>
<script type="application/ecmascript"><![CDATA[
document.addEventListener('DOMContentLoaded', (event) => {
  highlightEdges();
  highlightAdjacentNodes();
});
]]></script>
</svg>
