<?xml version="1.0" encoding="UTF-8" standalone="no"?>
<!DOCTYPE svg PUBLIC "-//W3C//DTD SVG 1.1//EN"
 "http://www.w3.org/Graphics/SVG/1.1/DTD/svg11.dtd">
<!-- Generated by graphviz version 2.43.0 (0)
 -->
<!-- Title: BitVector::set Pages: 1 -->
<!--zoomable 130 -->

<svg id="main" version="1.1" xmlns="http://www.w3.org/2000/svg" xmlns:xlink="http://www.w3.org/1999/xlink" xml:space="preserve" onload="init(evt)">
<style type="text/css"><![CDATA[
.node, .edge {opacity: 0.7;}
.node.selected, .edge.selected {opacity: 1;}
.edge:hover path { stroke: red; }
.edge:hover polygon { stroke: red; fill: red; }
]]></style>

<defs>
  <circle id="rim" cx="0" cy="0" r="7"/>
  <circle id="rim2" cx="0" cy="0" r="3.5"/>
  <g id="zoomPlus">
    <use xlink:href="#rim" fill="#404040"><set attributeName="fill" to="#808080" begin="zoomplus.mouseover" end="zoomplus.mouseout"/></use>
    <path d="M-4,0h8M0,-4v8" fill="none" stroke="white" stroke-width="1.5" pointer-events="none"/>
  </g>
  <g id="zoomMin">
    <use xlink:href="#rim" fill="#404040"><set attributeName="fill" to="#808080" begin="zoomminus.mouseover" end="zoomminus.mouseout"/></use>
    <path d="M-4,0h8" fill="none" stroke="white" stroke-width="1.5" pointer-events="none"/>
  </g>
  <g id="arrowUp" transform="translate(30 24)">
    <use xlink:href="#rim"/>
    <path pointer-events="none" fill="none" stroke="white" stroke-width="1.5" d="M0,-3.0v7 M-2.5,-0.5L0,-3.0L2.5,-0.5"/>
  </g>
  <g id="arrowRight" transform="rotate(90) translate(36 -43)">
    <use xlink:href="#rim"/>
    <path pointer-events="none" fill="none" stroke="white" stroke-width="1.5" d="M0,-3.0v7 M-2.5,-0.5L0,-3.0L2.5,-0.5"/>
  </g>
  <g id="arrowDown" transform="rotate(180) translate(-30 -48)">
    <use xlink:href="#rim"/>
    <path pointer-events="none" fill="none" stroke="white" stroke-width="1.5" d="M0,-3.0v7 M-2.5,-0.5L0,-3.0L2.5,-0.5"/>
  </g>
  <g id="arrowLeft" transform="rotate(270) translate(-36 17)">
    <use xlink:href="#rim"/>
    <path pointer-events="none" fill="none" stroke="white" stroke-width="1.5" d="M0,-3.0v7 M-2.5,-0.5L0,-3.0L2.5,-0.5"/>
  </g>
  <g id="resetDef">
    <use xlink:href="#rim2" fill="#404040"><set attributeName="fill" to="#808080" begin="reset.mouseover" end="reset.mouseout"/></use>
  </g>
</defs>
<script type="application/ecmascript">
var viewWidth = 657;
var viewHeight = 130;
var sectionId = 'dynsection-61';
</script>
<script type="application/ecmascript" xlink:href="svg.min.js"/>
<svg id="graph" class="graph">
<g id="viewport">
<title>BitVector::set</title>
<!-- Node1 -->
<g id="Node000001" class="node">
<title>Node1</title>
<g id="a_Node000001"><a xlink:title="Modify a bit inside BitVector::_data.">
<polygon fill="#999999" stroke="#666666" points="82,-65.13 0,-65.13 0,-46.13 82,-46.13 82,-65.13"/>
<text text-anchor="middle" x="41" y="-53.13" font-family="Helvetica,sans-Serif" font-size="10.00">BitVector::set</text>
</a>
</g>
</g>
<!-- Node2 -->
<g id="Node000002" class="node">
<title>Node2</title>
<g id="a_Node000002"><a xlink:href="class_bit_vector.html#aebe159444eb9d619959b7325ac5dac2d" target="_top" xlink:title="Return the value of the bit at the position coord.">
<polygon fill="white" stroke="#666666" points="506,-84.13 423,-84.13 423,-65.13 506,-65.13 506,-84.13"/>
<text text-anchor="middle" x="464.5" y="-72.13" font-family="Helvetica,sans-Serif" font-size="10.00">BitVector::get</text>
</a>
</g>
</g>
<!-- Node1&#45;&gt;Node2 -->
<g id="edge1_Node000001_Node000002" class="edge">
<title>Node1&#45;&gt;Node2</title>
<g id="a_edge1_Node000001_Node000002"><a xlink:title=" ">
<path fill="none" stroke="#63b8ff" d="M82.03,-57.43C159.07,-60.9 327.79,-68.51 412.64,-72.34"/>
<polygon fill="#63b8ff" stroke="#63b8ff" points="412.66,-75.84 422.81,-72.79 412.97,-68.85 412.66,-75.84"/>
</a>
</g>
</g>
<!-- Node3 -->
<g id="Node000003" class="node">
<title>Node3</title>
<g id="a_Node000003"><a xlink:href="class_bit_vector_1_1_coords.html#a2892f7f46c4af93f9733e312229d8ec1" target="_top" xlink:title="Get Coords::octet .">
<polygon fill="white" stroke="#666666" points="649,-51.63 542,-51.63 542,-21.63 649,-21.63 649,-51.63"/>
<text text-anchor="start" x="550" y="-39.63" font-family="Helvetica,sans-Serif" font-size="10.00">BitVector::Coords::</text>
<text text-anchor="middle" x="595.5" y="-28.63" font-family="Helvetica,sans-Serif" font-size="10.00">getOctet</text>
</a>
</g>
</g>
<!-- Node1&#45;&gt;Node3 -->
<g id="edge4_Node000001_Node000003" class="edge">
<title>Node1&#45;&gt;Node3</title>
<g id="a_edge4_Node000001_Node000003"><a xlink:title=" ">
<path fill="none" stroke="#63b8ff" d="M56.08,-46.07C70.78,-36.71 94.88,-23.08 118,-17.63 263.04,16.61 439.69,-6.69 531.8,-23.55"/>
<polygon fill="#63b8ff" stroke="#63b8ff" points="531.32,-27.02 541.79,-25.41 532.61,-20.14 531.32,-27.02"/>
</a>
</g>
</g>
<!-- Node4 -->
<g id="Node000004" class="node">
<title>Node4</title>
<g id="a_Node000004"><a xlink:href="class_bit_vector.html#ab4d98ce4b8d36ed6af1aa46e67810972" target="_top" xlink:title="Give the last coordinates thar can be contained inside BitVector::_data with the current BitVector::_...">
<polygon fill="white" stroke="#666666" points="218,-46.13 120,-46.13 120,-27.13 218,-27.13 218,-46.13"/>
<text text-anchor="middle" x="169" y="-34.13" font-family="Helvetica,sans-Serif" font-size="10.00">BitVector::lastBit</text>
</a>
</g>
</g>
<!-- Node1&#45;&gt;Node4 -->
<g id="edge5_Node000001_Node000004" class="edge">
<title>Node1&#45;&gt;Node4</title>
<g id="a_edge5_Node000001_Node000004"><a xlink:title=" ">
<path fill="none" stroke="#63b8ff" d="M82.21,-49.56C90.99,-48.24 100.46,-46.81 109.78,-45.41"/>
<polygon fill="#63b8ff" stroke="#63b8ff" points="110.43,-48.85 119.8,-43.9 109.39,-41.93 110.43,-48.85"/>
</a>
</g>
</g>
<!-- Node5 -->
<g id="Node000005" class="node">
<title>Node5</title>
<g id="a_Node000005"><a xlink:href="class_bit_vector.html#ab92cdd9780b949d9d762f58e1ee4a0ae" target="_top" xlink:title="Last postion of the vector.">
<polygon fill="white" stroke="#666666" points="220,-122.13 118,-122.13 118,-103.13 220,-103.13 220,-122.13"/>
<text text-anchor="middle" x="169" y="-110.13" font-family="Helvetica,sans-Serif" font-size="10.00">BitVector::lastPos</text>
</a>
</g>
</g>
<!-- Node1&#45;&gt;Node5 -->
<g id="edge6_Node000001_Node000005" class="edge">
<title>Node1&#45;&gt;Node5</title>
<g id="a_edge6_Node000001_Node000005"><a xlink:title=" ">
<path fill="none" stroke="#63b8ff" d="M63.09,-65.17C83.44,-74.38 114.47,-88.41 137.51,-98.84"/>
<polygon fill="#63b8ff" stroke="#63b8ff" points="136.29,-102.12 146.84,-103.06 139.17,-95.75 136.29,-102.12"/>
</a>
</g>
</g>
<!-- Node2&#45;&gt;Node2 -->
<g id="edge2_Node000002_Node000002" class="edge">
<title>Node2&#45;&gt;Node2</title>
<g id="a_edge2_Node000002_Node000002"><a xlink:title=" ">
<path fill="none" stroke="#63b8ff" d="M444.46,-84.21C434.72,-92.86 441.39,-102.13 464.5,-102.13 479.3,-102.13 487.36,-98.33 488.68,-93.32"/>
<polygon fill="#63b8ff" stroke="#63b8ff" points="491.86,-91.86 484.54,-84.21 485.49,-94.76 491.86,-91.86"/>
</a>
</g>
</g>
<!-- Node2&#45;&gt;Node3 -->
<g id="edge3_Node000002_Node000003" class="edge">
<title>Node2&#45;&gt;Node3</title>
<g id="a_edge3_Node000002_Node000003"><a xlink:title=" ">
<path fill="none" stroke="#63b8ff" d="M498.05,-65.04C508.89,-61.85 521.34,-58.18 533.61,-54.57"/>
<polygon fill="#63b8ff" stroke="#63b8ff" points="534.77,-57.87 543.38,-51.69 532.8,-51.16 534.77,-57.87"/>
</a>
</g>
</g>
<!-- Node6 -->
<g id="Node000006" class="node">
<title>Node6</title>
<g id="a_Node000006"><a xlink:href="class_bit_vector.html#a115789c8a9812eabb52f8843cd4e9965" target="_top" xlink:title="Give the a coord object that represent the size of 1 element inside BitVector::_data.">
<polygon fill="white" stroke="#666666" points="387,-122.13 256,-122.13 256,-103.13 387,-103.13 387,-122.13"/>
<text text-anchor="middle" x="321.5" y="-110.13" font-family="Helvetica,sans-Serif" font-size="10.00">BitVector::getCoordUnit</text>
</a>
</g>
</g>
<!-- Node5&#45;&gt;Node6 -->
<g id="edge7_Node000005_Node000006" class="edge">
<title>Node5&#45;&gt;Node6</title>
<g id="a_edge7_Node000005_Node000006"><a xlink:title=" ">
<path fill="none" stroke="#63b8ff" d="M220.11,-112.63C228.35,-112.63 237.04,-112.63 245.72,-112.63"/>
<polygon fill="#63b8ff" stroke="#63b8ff" points="245.88,-116.13 255.88,-112.63 245.88,-109.13 245.88,-116.13"/>
</a>
</g>
</g>
<!-- Node6&#45;&gt;Node2 -->
<g id="edge8_Node000006_Node000002" class="edge">
<title>Node6&#45;&gt;Node2</title>
<g id="a_edge8_Node000006_Node000002"><a xlink:title=" ">
<path fill="none" stroke="#63b8ff" d="M358.08,-103.04C376.28,-98.13 398.64,-92.11 418.07,-86.87"/>
<polygon fill="#63b8ff" stroke="#63b8ff" points="419.19,-90.2 427.93,-84.21 417.36,-83.44 419.19,-90.2"/>
</a>
</g>
</g>
</g>
</svg>

<g id="navigator" transform="translate(0 0)" fill="#404254">
  <rect fill="#f2f5e9" fill-opacity="0.5" stroke="#606060" stroke-width=".5" x="0" y="0" width="60" height="60"/>
  <use id="zoomplus" xlink:href="#zoomPlus" x="17" y="9" onmousedown="handleZoom(evt,'in')"/>
  <use id="zoomminus" xlink:href="#zoomMin" x="42" y="9" onmousedown="handleZoom(evt,'out')"/>
  <use id="reset" xlink:href="#resetDef" x="30" y="36" onmousedown="handleReset()"/>
   <use id="arrowup" xlink:href="#arrowUp" x="0" y="0" onmousedown="handlePan(0,-1)"/>
  <use id="arrowright" xlink:href="#arrowRight" x="0" y="0" onmousedown="handlePan(1,0)"/>
  <use id="arrowdown" xlink:href="#arrowDown" x="0" y="0" onmousedown="handlePan(0,1)"/>
  <use id="arrowleft" xlink:href="#arrowLeft" x="0" y="0" onmousedown="handlePan(-1,0)"/>
</g>
<svg viewBox="0 0 15 15" width="100%" height="30px" preserveAspectRatio="xMaxYMin meet">
 <g id="arrow_out" transform="scale(0.3 0.3)">
  <a xlink:href="class_bit_vector_a9c63a7f853693a19595fa92d487f92b5_cgraph_org.svg" target="_base">
   <rect id="button" ry="5" rx="5" y="6" x="6" height="38" width="38"
        fill="#f2f5e9" fill-opacity="0.5" stroke="#606060" stroke-width="1.0"/>
   <path id="arrow"
     d="M 11.500037,31.436501 C 11.940474,20.09759 22.043105,11.32322 32.158766,21.979434 L 37.068811,17.246167 C 37.068811,17.246167 37.088388,32 37.088388,32 L 22.160133,31.978069 C 22.160133,31.978069 26.997745,27.140456 26.997745,27.140456 C 18.528582,18.264221 13.291696,25.230495 11.500037,31.436501 z"
     style="fill:#404040;"/>
  </a>
 </g>
</svg>

<style type='text/css'>
<![CDATA[
[data-mouse-over-selected='false'] { opacity: 0.7; }
[data-mouse-over-selected='true']  { opacity: 1.0; }
]]>
</style>
<script type="application/ecmascript"><![CDATA[
document.addEventListener('DOMContentLoaded', (event) => {
  highlightEdges();
  highlightAdjacentNodes();
});
]]></script>
</svg>
