<?xml version="1.0" encoding="UTF-8" standalone="no"?>
<!DOCTYPE svg PUBLIC "-//W3C//DTD SVG 1.1//EN"
 "http://www.w3.org/Graphics/SVG/1.1/DTD/svg11.dtd">
<!-- Generated by graphviz version 2.43.0 (0)
 -->
<!-- Title: Header::setComment Pages: 1 -->
<svg width="449pt" height="27pt"
 viewBox="0.00 0.00 449.00 27.00" xmlns="http://www.w3.org/2000/svg" xmlns:xlink="http://www.w3.org/1999/xlink">
<g id="graph0" class="graph" transform="scale(1 1) rotate(0) translate(4 23)">
<title>Header::setComment</title>
<!-- Node1 -->
<g id="Node000001" class="node">
<title>Node1</title>
<g id="a_Node000001"><a xlink:title="Change the comments related to this header;.">
<polygon fill="#999999" stroke="#666666" points="441,-19 320,-19 320,0 441,0 441,-19"/>
<text text-anchor="middle" x="380.5" y="-7" font-family="Helvetica,sans-Serif" font-size="10.00">Header::setComment</text>
</a>
</g>
</g>
<!-- Node2 -->
<g id="Node000002" class="node">
<title>Node2</title>
<g id="a_Node000002"><a xlink:href="class_fasta_header.html#a5b5ec58e0bfdf768854f4e3377f976da" target="_top" xlink:title="Construct a new Fasta Header object.">
<polygon fill="white" stroke="#666666" points="284,-19 180,-19 180,0 284,0 284,-19"/>
<text text-anchor="middle" x="232" y="-7" font-family="Helvetica,sans-Serif" font-size="10.00">FastaHeader::load</text>
</a>
</g>
</g>
<!-- Node1&#45;&gt;Node2 -->
<g id="edge1_Node000001_Node000002" class="edge">
<title>Node1&#45;&gt;Node2</title>
<g id="a_edge1_Node000001_Node000002"><a xlink:title=" ">
<path fill="none" stroke="#63b8ff" d="M309.8,-9.5C301.13,-9.5 292.4,-9.5 284.08,-9.5"/>
<polygon fill="#63b8ff" stroke="#63b8ff" points="309.91,-13 319.91,-9.5 309.91,-6 309.91,-13"/>
</a>
</g>
</g>
<!-- Node3 -->
<g id="Node000003" class="node">
<title>Node3</title>
<g id="a_Node000003"><a xlink:href="class_fasta_header.html#a3c8ae1370cb8045162803a2ed790d987" target="_top" xlink:title="Construct a new Fasta Header object.">
<polygon fill="white" stroke="#666666" points="144,-19 0,-19 0,0 144,0 144,-19"/>
<text text-anchor="middle" x="72" y="-7" font-family="Helvetica,sans-Serif" font-size="10.00">FastaHeader::FastaHeader</text>
</a>
</g>
</g>
<!-- Node2&#45;&gt;Node3 -->
<g id="edge2_Node000002_Node000003" class="edge">
<title>Node2&#45;&gt;Node3</title>
<g id="a_edge2_Node000002_Node000003"><a xlink:title=" ">
<path fill="none" stroke="#63b8ff" d="M169.66,-9.5C161.3,-9.5 152.66,-9.5 144.14,-9.5"/>
<polygon fill="#63b8ff" stroke="#63b8ff" points="169.7,-13 179.7,-9.5 169.7,-6 169.7,-13"/>
</a>
</g>
</g>
</g>
</svg>
