<?xml version="1.0" encoding="UTF-8" standalone="no"?>
<!DOCTYPE svg PUBLIC "-//W3C//DTD SVG 1.1//EN"
 "http://www.w3.org/Graphics/SVG/1.1/DTD/svg11.dtd">
<!-- Generated by graphviz version 2.43.0 (0)
 -->
<!-- Title: BitVector::getCoordUnit Pages: 1 -->
<!--zoomable 602 -->

<svg id="main" version="1.1" xmlns="http://www.w3.org/2000/svg" xmlns:xlink="http://www.w3.org/1999/xlink" xml:space="preserve" onload="init(evt)">
<style type="text/css"><![CDATA[
.node, .edge {opacity: 0.7;}
.node.selected, .edge.selected {opacity: 1;}
.edge:hover path { stroke: red; }
.edge:hover polygon { stroke: red; fill: red; }
]]></style>

<defs>
  <circle id="rim" cx="0" cy="0" r="7"/>
  <circle id="rim2" cx="0" cy="0" r="3.5"/>
  <g id="zoomPlus">
    <use xlink:href="#rim" fill="#404040"><set attributeName="fill" to="#808080" begin="zoomplus.mouseover" end="zoomplus.mouseout"/></use>
    <path d="M-4,0h8M0,-4v8" fill="none" stroke="white" stroke-width="1.5" pointer-events="none"/>
  </g>
  <g id="zoomMin">
    <use xlink:href="#rim" fill="#404040"><set attributeName="fill" to="#808080" begin="zoomminus.mouseover" end="zoomminus.mouseout"/></use>
    <path d="M-4,0h8" fill="none" stroke="white" stroke-width="1.5" pointer-events="none"/>
  </g>
  <g id="arrowUp" transform="translate(30 24)">
    <use xlink:href="#rim"/>
    <path pointer-events="none" fill="none" stroke="white" stroke-width="1.5" d="M0,-3.0v7 M-2.5,-0.5L0,-3.0L2.5,-0.5"/>
  </g>
  <g id="arrowRight" transform="rotate(90) translate(36 -43)">
    <use xlink:href="#rim"/>
    <path pointer-events="none" fill="none" stroke="white" stroke-width="1.5" d="M0,-3.0v7 M-2.5,-0.5L0,-3.0L2.5,-0.5"/>
  </g>
  <g id="arrowDown" transform="rotate(180) translate(-30 -48)">
    <use xlink:href="#rim"/>
    <path pointer-events="none" fill="none" stroke="white" stroke-width="1.5" d="M0,-3.0v7 M-2.5,-0.5L0,-3.0L2.5,-0.5"/>
  </g>
  <g id="arrowLeft" transform="rotate(270) translate(-36 17)">
    <use xlink:href="#rim"/>
    <path pointer-events="none" fill="none" stroke="white" stroke-width="1.5" d="M0,-3.0v7 M-2.5,-0.5L0,-3.0L2.5,-0.5"/>
  </g>
  <g id="resetDef">
    <use xlink:href="#rim2" fill="#404040"><set attributeName="fill" to="#808080" begin="reset.mouseover" end="reset.mouseout"/></use>
  </g>
</defs>
<script type="application/ecmascript">
var viewWidth = 1923;
var viewHeight = 602;
var sectionId = 'dynsection-21';
</script>
<script type="application/ecmascript" xlink:href="svg.min.js"/>
<svg id="graph" class="graph">
<g id="viewport">
<title>BitVector::getCoordUnit</title>
<!-- Node1 -->
<g id="Node000001" class="node">
<title>Node1</title>
<g id="a_Node000001"><a xlink:title="Give the a coord object that represent the size of 1 element inside BitVector::_data.">
<polygon fill="#999999" stroke="#666666" points="1915,-338 1784,-338 1784,-319 1915,-319 1915,-338"/>
<text text-anchor="middle" x="1849.5" y="-326" font-family="Helvetica,sans-Serif" font-size="10.00">BitVector::getCoordUnit</text>
</a>
</g>
</g>
<!-- Node2 -->
<g id="Node000002" class="node">
<title>Node2</title>
<g id="a_Node000002"><a xlink:href="class_bit_vector.html#a2d0fe43b80b63edbd64dc887fd87d915" target="_top" xlink:title="Return the element at the position index.">
<polygon fill="white" stroke="#666666" points="981,-594 898,-594 898,-575 981,-575 981,-594"/>
<text text-anchor="middle" x="939.5" y="-582" font-family="Helvetica,sans-Serif" font-size="10.00">BitVector::get</text>
</a>
</g>
</g>
<!-- Node1&#45;&gt;Node2 -->
<g id="edge1_Node000001_Node000002" class="edge">
<title>Node1&#45;&gt;Node2</title>
<g id="a_edge1_Node000001_Node000002"><a xlink:title=" ">
<path fill="none" stroke="#63b8ff" d="M1837.82,-347.21C1802.6,-406.21 1683.7,-584.5 1533,-584.5 1533,-584.5 1533,-584.5 1326.5,-584.5 1200.51,-584.5 1051.4,-584.5 981.07,-584.5"/>
<polygon fill="#63b8ff" stroke="#63b8ff" points="1841.05,-348.62 1843.08,-338.22 1835.01,-345.08 1841.05,-348.62"/>
</a>
</g>
</g>
<!-- Node3 -->
<g id="Node000003" class="node">
<title>Node3</title>
<g id="a_Node000003"><a xlink:href="class_bit_vector.html#af68cda7444ec4459393bbfa423f0a7dd" target="_top" xlink:title="Get the Size_t value if a BitVector::CoordUnit.">
<polygon fill="white" stroke="#666666" points="1748,-447.5 1645,-447.5 1645,-417.5 1748,-417.5 1748,-447.5"/>
<text text-anchor="start" x="1653" y="-435.5" font-family="Helvetica,sans-Serif" font-size="10.00">BitVector::getSize</text>
<text text-anchor="middle" x="1696.5" y="-424.5" font-family="Helvetica,sans-Serif" font-size="10.00">_tUnit</text>
</a>
</g>
</g>
<!-- Node1&#45;&gt;Node3 -->
<g id="edge2_Node000001_Node000003" class="edge">
<title>Node1&#45;&gt;Node3</title>
<g id="a_edge2_Node000001_Node000003"><a xlink:title=" ">
<path fill="none" stroke="#63b8ff" d="M1826.01,-343.99C1797.26,-363.79 1747.8,-397.86 1719.36,-417.45"/>
<polygon fill="#63b8ff" stroke="#63b8ff" points="1828.31,-346.65 1834.56,-338.1 1824.34,-340.89 1828.31,-346.65"/>
</a>
</g>
</g>
<!-- Node24 -->
<g id="Node000024" class="node">
<title>Node24</title>
<g id="a_Node000024"><a xlink:href="class_bit_vector.html#aca24053f655c825de0f06ec86fff1cec" target="_top" xlink:title="Replace an element by another element. Can add an element to the list if index = BitVector::_element_...">
<polygon fill="white" stroke="#666666" points="980.5,-189 898.5,-189 898.5,-170 980.5,-170 980.5,-189"/>
<text text-anchor="middle" x="939.5" y="-177" font-family="Helvetica,sans-Serif" font-size="10.00">BitVector::set</text>
</a>
</g>
</g>
<!-- Node1&#45;&gt;Node24 -->
<g id="edge56_Node000001_Node000024" class="edge">
<title>Node1&#45;&gt;Node24</title>
<g id="a_edge56_Node000001_Node000024"><a xlink:title=" ">
<path fill="none" stroke="#63b8ff" d="M1839.47,-309.71C1824.37,-280.12 1791.37,-222.55 1748,-188.5 1668.4,-126.01 1634.2,-113.5 1533,-113.5 1533,-113.5 1533,-113.5 1326.5,-113.5 1194.1,-113.5 1039.75,-151.7 973.48,-169.97"/>
<polygon fill="#63b8ff" stroke="#63b8ff" points="1836.46,-311.52 1844.04,-318.92 1842.73,-308.41 1836.46,-311.52"/>
</a>
</g>
</g>
<!-- Node38 -->
<g id="Node000038" class="node">
<title>Node38</title>
<g id="a_Node000038"><a xlink:href="class_bit_vector.html#ab92cdd9780b949d9d762f58e1ee4a0ae" target="_top" xlink:title="Last postion of the vector.">
<polygon fill="white" stroke="#666666" points="1747.5,-217 1645.5,-217 1645.5,-198 1747.5,-198 1747.5,-217"/>
<text text-anchor="middle" x="1696.5" y="-205" font-family="Helvetica,sans-Serif" font-size="10.00">BitVector::lastPos</text>
</a>
</g>
</g>
<!-- Node1&#45;&gt;Node38 -->
<g id="edge52_Node000001_Node000038" class="edge">
<title>Node1&#45;&gt;Node38</title>
<g id="a_edge52_Node000001_Node000038"><a xlink:title=" ">
<path fill="none" stroke="#63b8ff" d="M1828.23,-312.26C1796.38,-286.73 1735.55,-237.99 1709.66,-217.24"/>
<polygon fill="#63b8ff" stroke="#63b8ff" points="1826.41,-315.28 1836.4,-318.8 1830.78,-309.82 1826.41,-315.28"/>
</a>
</g>
</g>
<!-- Node4 -->
<g id="Node000004" class="node">
<title>Node4</title>
<g id="a_Node000004"><a xlink:href="class_bit_vector.html#a354c83853bc3622efa5d45efcae97286" target="_top" xlink:title="Give more detailed on BiteVector::indexCoordinate.">
<polygon fill="white" stroke="#666666" points="1605.5,-345.5 1458.5,-345.5 1458.5,-315.5 1605.5,-315.5 1605.5,-345.5"/>
<text text-anchor="start" x="1466.5" y="-333.5" font-family="Helvetica,sans-Serif" font-size="10.00">BitVector::indexCoordinate</text>
<text text-anchor="middle" x="1532" y="-322.5" font-family="Helvetica,sans-Serif" font-size="10.00">Untreated</text>
</a>
</g>
</g>
<!-- Node3&#45;&gt;Node4 -->
<g id="edge3_Node000003_Node000004" class="edge">
<title>Node3&#45;&gt;Node4</title>
<g id="a_edge3_Node000003_Node000004"><a xlink:title=" ">
<path fill="none" stroke="#63b8ff" d="M1664.64,-411.65C1648.24,-400.7 1627.66,-387.16 1609,-375.5 1592.62,-365.26 1573.95,-354.2 1559.22,-345.61"/>
<polygon fill="#63b8ff" stroke="#63b8ff" points="1663.03,-414.78 1673.29,-417.44 1666.93,-408.97 1663.03,-414.78"/>
</a>
</g>
</g>
<!-- Node18 -->
<g id="Node000018" class="node">
<title>Node18</title>
<g id="a_Node000018"><a xlink:href="class_bit_vector.html#a04e6d0b67ee9b42ccec437b0176067fe" target="_top" xlink:title="Give A size_t that represent the coords of the first bit of an element.">
<polygon fill="white" stroke="#666666" points="1419,-480 1236,-480 1236,-461 1419,-461 1419,-480"/>
<text text-anchor="middle" x="1327.5" y="-468" font-family="Helvetica,sans-Serif" font-size="10.00">BitVector::indexElementUntreated</text>
</a>
</g>
</g>
<!-- Node3&#45;&gt;Node18 -->
<g id="edge17_Node000003_Node000018" class="edge">
<title>Node3&#45;&gt;Node18</title>
<g id="a_edge17_Node000003_Node000018"><a xlink:title=" ">
<path fill="none" stroke="#63b8ff" d="M1634.8,-443.73C1626.16,-445.13 1617.37,-446.43 1609,-447.5 1545.75,-455.56 1474.09,-461.38 1419.04,-465.15"/>
<polygon fill="#63b8ff" stroke="#63b8ff" points="1635.55,-447.16 1644.84,-442.07 1634.41,-440.25 1635.55,-447.16"/>
</a>
</g>
</g>
<!-- Node20 -->
<g id="Node000020" class="node">
<title>Node20</title>
<g id="a_Node000020"><a xlink:href="class_bit_vector.html#a13856f33d2350c573cf2fbe587f03757" target="_top" xlink:title="Modify the length of BitVector::_data.">
<polygon fill="white" stroke="#666666" points="987.5,-494 891.5,-494 891.5,-475 987.5,-475 987.5,-494"/>
<text text-anchor="middle" x="939.5" y="-482" font-family="Helvetica,sans-Serif" font-size="10.00">BitVector::resize</text>
</a>
</g>
</g>
<!-- Node3&#45;&gt;Node20 -->
<g id="edge50_Node000003_Node000020" class="edge">
<title>Node3&#45;&gt;Node20</title>
<g id="a_edge50_Node000003_Node000020"><a xlink:title=" ">
<path fill="none" stroke="#63b8ff" d="M1657,-451.95C1642.32,-458.56 1625.22,-465.33 1609,-469.5 1370.84,-530.8 1301.89,-492.76 1056,-488.5 1033.53,-488.11 1008.62,-487.3 987.69,-486.5"/>
<polygon fill="#63b8ff" stroke="#63b8ff" points="1658.66,-455.03 1666.26,-447.65 1655.72,-448.68 1658.66,-455.03"/>
</a>
</g>
</g>
<!-- Node23 -->
<g id="Node000023" class="node">
<title>Node23</title>
<g id="a_Node000023"><a xlink:href="class_bit_vector.html#a80a4aa212535129b881b4fb2623ce222" target="_top" xlink:title="Reduce the size of BitVector::_data to fit BitVector::_element_number.">
<polygon fill="white" stroke="#666666" points="792,-540 695,-540 695,-521 792,-521 792,-540"/>
<text text-anchor="middle" x="743.5" y="-528" font-family="Helvetica,sans-Serif" font-size="10.00">BitVector::shrink</text>
</a>
</g>
</g>
<!-- Node3&#45;&gt;Node23 -->
<g id="edge51_Node000003_Node000023" class="edge">
<title>Node3&#45;&gt;Node23</title>
<g id="a_edge51_Node000003_Node000023"><a xlink:title=" ">
<path fill="none" stroke="#63b8ff" d="M1672.97,-454.62C1656.58,-469.4 1633.11,-488 1609,-498.5 1493.04,-548.99 1454.98,-546.5 1328.5,-546.5 1328.5,-546.5 1328.5,-546.5 1127,-546.5 1006.37,-546.5 864.52,-538.46 792.18,-533.78"/>
<polygon fill="#63b8ff" stroke="#63b8ff" points="1675.47,-457.08 1680.43,-447.72 1670.71,-451.95 1675.47,-457.08"/>
</a>
</g>
</g>
<!-- Node32 -->
<g id="Node000032" class="node">
<title>Node32</title>
<g id="a_Node000032"><a xlink:href="class_bit_vector.html#ad36e7d0b4b1417ca434414fa40c72eb8" target="_top" xlink:title="How many element can be contained in this object knowing BitVector::_element_size.">
<polygon fill="white" stroke="#666666" points="1609,-404 1455,-404 1455,-385 1609,-385 1609,-404"/>
<text text-anchor="middle" x="1532" y="-392" font-family="Helvetica,sans-Serif" font-size="10.00">BitVector::maxElementLimit</text>
</a>
</g>
</g>
<!-- Node3&#45;&gt;Node32 -->
<g id="edge39_Node000003_Node000032" class="edge">
<title>Node3&#45;&gt;Node32</title>
<g id="a_edge39_Node000003_Node000032"><a xlink:title=" ">
<path fill="none" stroke="#63b8ff" d="M1635.1,-418.38C1614.64,-413.59 1592.27,-408.36 1573.71,-404.02"/>
<polygon fill="#63b8ff" stroke="#63b8ff" points="1634.44,-421.82 1644.97,-420.68 1636.03,-415 1634.44,-421.82"/>
</a>
</g>
</g>
<!-- Node35 -->
<g id="Node000035" class="node">
<title>Node35</title>
<g id="a_Node000035"><a xlink:href="class_bit_vector.html#a214e556dd89acce2427a378c5520adbd" target="_top" xlink:title="Last acceptable coordinate knowing BitVector::_element_size.">
<polygon fill="white" stroke="#666666" points="1409,-443 1246,-443 1246,-424 1409,-424 1409,-443"/>
<text text-anchor="middle" x="1327.5" y="-431" font-family="Helvetica,sans-Serif" font-size="10.00">BitVector::MaximalCoordLimit</text>
</a>
</g>
</g>
<!-- Node3&#45;&gt;Node35 -->
<g id="edge49_Node000003_Node000035" class="edge">
<title>Node3&#45;&gt;Node35</title>
<g id="a_edge49_Node000003_Node000035"><a xlink:title=" ">
<path fill="none" stroke="#63b8ff" d="M1634.51,-432.67C1572.84,-432.83 1477.19,-433.09 1409.25,-433.28"/>
<polygon fill="#63b8ff" stroke="#63b8ff" points="1634.87,-436.17 1644.86,-432.64 1634.85,-429.17 1634.87,-436.17"/>
</a>
</g>
</g>
<!-- Node5 -->
<g id="Node000005" class="node">
<title>Node5</title>
<g id="a_Node000005"><a xlink:href="class_bit_vector.html#a5af3c70f593aac387de23c7e6e5ae57e" target="_top" xlink:title="Find the element that correspond to coord .">
<polygon fill="white" stroke="#666666" points="1401,-317 1254,-317 1254,-298 1401,-298 1401,-317"/>
<text text-anchor="middle" x="1327.5" y="-305" font-family="Helvetica,sans-Serif" font-size="10.00">BitVector::indexCoordinate</text>
</a>
</g>
</g>
<!-- Node4&#45;&gt;Node5 -->
<g id="edge4_Node000004_Node000005" class="edge">
<title>Node4&#45;&gt;Node5</title>
<g id="a_edge4_Node000004_Node000005"><a xlink:title=" ">
<path fill="none" stroke="#63b8ff" d="M1448.31,-321.11C1432.7,-319.34 1416.48,-317.49 1401.21,-315.76"/>
<polygon fill="#63b8ff" stroke="#63b8ff" points="1448.13,-324.61 1458.46,-322.26 1448.92,-317.66 1448.13,-324.61"/>
</a>
</g>
</g>
<!-- Node6 -->
<g id="Node000006" class="node">
<title>Node6</title>
<g id="a_Node000006"><a xlink:href="class_bit_vector.html#aed5c03f3a6a9a2e5f3c58fb14768b0b4" target="_top" xlink:title="Say how many items can be hold inside this object with the current BitVector::_data_size:">
<polygon fill="white" stroke="#666666" points="1200,-274 1056,-274 1056,-255 1200,-255 1200,-274"/>
<text text-anchor="middle" x="1128" y="-262" font-family="Helvetica,sans-Serif" font-size="10.00">BitVector::currentCapacity</text>
</a>
</g>
</g>
<!-- Node5&#45;&gt;Node6 -->
<g id="edge5_Node000005_Node000006" class="edge">
<title>Node5&#45;&gt;Node6</title>
<g id="a_edge5_Node000005_Node000006"><a xlink:title=" ">
<path fill="none" stroke="#63b8ff" d="M1272.76,-295.8C1241.35,-288.96 1202.22,-280.44 1172.71,-274.02"/>
<polygon fill="#63b8ff" stroke="#63b8ff" points="1272.15,-299.25 1282.67,-297.96 1273.64,-292.41 1272.15,-299.25"/>
</a>
</g>
</g>
<!-- Node7 -->
<g id="Node000007" class="node">
<title>Node7</title>
<g id="a_Node000007"><a xlink:href="class_bit_vector.html#ad64e921d07b9528a532477f282af135c" target="_top" xlink:title="How many element can fit in this vector without having to resize the vector ?">
<polygon fill="white" stroke="#666666" points="1199,-322.5 1057,-322.5 1057,-292.5 1199,-292.5 1199,-322.5"/>
<text text-anchor="start" x="1065" y="-310.5" font-family="Helvetica,sans-Serif" font-size="10.00">BitVector::currentElement</text>
<text text-anchor="middle" x="1128" y="-299.5" font-family="Helvetica,sans-Serif" font-size="10.00">Capacity</text>
</a>
</g>
</g>
<!-- Node5&#45;&gt;Node7 -->
<g id="edge6_Node000005_Node000007" class="edge">
<title>Node5&#45;&gt;Node7</title>
<g id="a_edge6_Node000005_Node000007"><a xlink:title=" ">
<path fill="none" stroke="#63b8ff" d="M1243.67,-307.5C1228.89,-307.5 1213.63,-307.5 1199.24,-307.5"/>
<polygon fill="#63b8ff" stroke="#63b8ff" points="1243.8,-311 1253.8,-307.5 1243.8,-304 1243.8,-311"/>
</a>
</g>
</g>
<!-- Node8 -->
<g id="Node000008" class="node">
<title>Node8</title>
<g id="a_Node000008"><a xlink:href="class_bit_vector.html#ad60f42244db2c82260326605916431d3" target="_top" xlink:title="Modify the number of known element in this object.">
<polygon fill="white" stroke="#666666" points="1020,-319 859,-319 859,-300 1020,-300 1020,-319"/>
<text text-anchor="middle" x="939.5" y="-307" font-family="Helvetica,sans-Serif" font-size="10.00">BitVector::setElementNumber</text>
</a>
</g>
</g>
<!-- Node7&#45;&gt;Node8 -->
<g id="edge7_Node000007_Node000008" class="edge">
<title>Node7&#45;&gt;Node8</title>
<g id="a_edge7_Node000007_Node000008"><a xlink:title=" ">
<path fill="none" stroke="#63b8ff" d="M1046.54,-308.36C1037.76,-308.46 1028.83,-308.55 1020.06,-308.65"/>
<polygon fill="#63b8ff" stroke="#63b8ff" points="1046.8,-311.86 1056.76,-308.25 1046.72,-304.86 1046.8,-311.86"/>
</a>
</g>
</g>
<!-- Node9 -->
<g id="Node000009" class="node">
<title>Node9</title>
<g id="a_Node000009"><a xlink:href="class_bit_vector.html#a87f84edf5dd56606b26e8741ba6ced02" target="_top" xlink:title="Remove a number of element from the vector.">
<polygon fill="white" stroke="#666666" points="795.5,-322 691.5,-322 691.5,-303 795.5,-303 795.5,-322"/>
<text text-anchor="middle" x="743.5" y="-310" font-family="Helvetica,sans-Serif" font-size="10.00">BitVector::remove</text>
</a>
</g>
</g>
<!-- Node8&#45;&gt;Node9 -->
<g id="edge8_Node000008_Node000009" class="edge">
<title>Node8&#45;&gt;Node9</title>
<g id="a_edge8_Node000008_Node000009"><a xlink:title=" ">
<path fill="none" stroke="#63b8ff" d="M848.69,-310.89C830.49,-311.17 811.95,-311.46 795.65,-311.71"/>
<polygon fill="#63b8ff" stroke="#63b8ff" points="848.81,-314.39 858.75,-310.73 848.7,-307.39 848.81,-314.39"/>
</a>
</g>
</g>
<!-- Node10 -->
<g id="Node000010" class="node">
<title>Node10</title>
<g id="a_Node000010"><a xlink:href="class_sequence.html#a20eb6bdd6f5cba62a251eff4387a525d" target="_top" xlink:title="Remove a portion of the sequence.">
<polygon fill="white" stroke="#666666" points="587.5,-360 490.5,-360 490.5,-341 587.5,-341 587.5,-360"/>
<text text-anchor="middle" x="539" y="-348" font-family="Helvetica,sans-Serif" font-size="10.00">Sequence::erase</text>
</a>
</g>
</g>
<!-- Node9&#45;&gt;Node10 -->
<g id="edge9_Node000009_Node000010" class="edge">
<title>Node9&#45;&gt;Node10</title>
<g id="a_edge9_Node000009_Node000010"><a xlink:title=" ">
<path fill="none" stroke="#63b8ff" d="M681.7,-323.91C651.6,-329.56 615.81,-336.27 587.73,-341.54"/>
<polygon fill="#63b8ff" stroke="#63b8ff" points="682.48,-327.32 691.66,-322.04 681.19,-320.44 682.48,-327.32"/>
</a>
</g>
</g>
<!-- Node11 -->
<g id="Node000011" class="node">
<title>Node11</title>
<g id="a_Node000011"><a xlink:href="class_sequence.html#aa48778c592160ac60319f780817f491c" target="_top" xlink:title="Insert a number of chars at the position position .">
<polygon fill="white" stroke="#666666" points="414,-246 316,-246 316,-227 414,-227 414,-246"/>
<text text-anchor="middle" x="365" y="-234" font-family="Helvetica,sans-Serif" font-size="10.00">Sequence::insert</text>
</a>
</g>
</g>
<!-- Node9&#45;&gt;Node11 -->
<g id="edge10_Node000009_Node000011" class="edge">
<title>Node9&#45;&gt;Node11</title>
<g id="a_edge10_Node000009_Node000011"><a xlink:title=" ">
<path fill="none" stroke="#63b8ff" d="M683.38,-301.05C624.26,-289.54 530.76,-271.16 450,-254.5 437,-251.82 422.89,-248.83 410,-246.06"/>
<polygon fill="#63b8ff" stroke="#63b8ff" points="682.8,-304.51 693.29,-302.98 684.14,-297.64 682.8,-304.51"/>
</a>
</g>
</g>
<!-- Node12 -->
<g id="Node000012" class="node">
<title>Node12</title>
<g id="a_Node000012"><a xlink:href="class_sequence.html#a3cf6cf5e54782f4d1a2ee07ec519523c" target="_top" xlink:title="Insert a char at the position position .">
<polygon fill="white" stroke="#666666" points="268,-283 170,-283 170,-264 268,-264 268,-283"/>
<text text-anchor="middle" x="219" y="-271" font-family="Helvetica,sans-Serif" font-size="10.00">Sequence::insert</text>
</a>
</g>
</g>
<!-- Node11&#45;&gt;Node12 -->
<g id="edge11_Node000011_Node000012" class="edge">
<title>Node11&#45;&gt;Node12</title>
<g id="a_edge11_Node000011_Node000012"><a xlink:title=" ">
<path fill="none" stroke="#63b8ff" d="M317.09,-248.55C297.77,-253.52 275.68,-259.19 257.46,-263.88"/>
<polygon fill="#63b8ff" stroke="#63b8ff" points="318.1,-251.91 326.92,-246.03 316.36,-245.13 318.1,-251.91"/>
</a>
</g>
</g>
<!-- Node13 -->
<g id="Node000013" class="node">
<title>Node13</title>
<g id="a_Node000013"><a xlink:href="class_sequence.html#aa57fd5a7fdd173374e56006ce1c47bdc" target="_top" xlink:title="Insert a number of chars at the the back of the sequence position .">
<polygon fill="white" stroke="#666666" points="280,-246 158,-246 158,-227 280,-227 280,-246"/>
<text text-anchor="middle" x="219" y="-234" font-family="Helvetica,sans-Serif" font-size="10.00">Sequence::insertBack</text>
</a>
</g>
</g>
<!-- Node11&#45;&gt;Node13 -->
<g id="edge12_Node000011_Node000013" class="edge">
<title>Node11&#45;&gt;Node13</title>
<g id="a_edge12_Node000011_Node000013"><a xlink:title=" ">
<path fill="none" stroke="#63b8ff" d="M305.61,-236.5C297.25,-236.5 288.64,-236.5 280.25,-236.5"/>
<polygon fill="#63b8ff" stroke="#63b8ff" points="305.65,-240 315.65,-236.5 305.65,-233 305.65,-240"/>
</a>
</g>
</g>
<!-- Node14 -->
<g id="Node000014" class="node">
<title>Node14</title>
<g id="a_Node000014"><a xlink:href="class_sequence.html#a092f380b654de9aaa8a770ec0948c454" target="_top" xlink:title="Insert a number of chars at the the front of the sequence position .">
<polygon fill="white" stroke="#666666" points="280,-209 158,-209 158,-190 280,-190 280,-209"/>
<text text-anchor="middle" x="219" y="-197" font-family="Helvetica,sans-Serif" font-size="10.00">Sequence::insertFront</text>
</a>
</g>
</g>
<!-- Node11&#45;&gt;Node14 -->
<g id="edge13_Node000011_Node000014" class="edge">
<title>Node11&#45;&gt;Node14</title>
<g id="a_edge13_Node000011_Node000014"><a xlink:title=" ">
<path fill="none" stroke="#63b8ff" d="M317.09,-224.45C297.77,-219.48 275.68,-213.81 257.46,-209.12"/>
<polygon fill="#63b8ff" stroke="#63b8ff" points="316.36,-227.87 326.92,-226.97 318.1,-221.09 316.36,-227.87"/>
</a>
</g>
</g>
<!-- Node15 -->
<g id="Node000015" class="node">
<title>Node15</title>
<g id="a_Node000015"><a xlink:href="class_sequence.html#a16e70626e330194c1507ed339c9c629c" target="_top" xlink:title="Insert a char at the the back of the sequence position .">
<polygon fill="white" stroke="#666666" points="122,-246 0,-246 0,-227 122,-227 122,-246"/>
<text text-anchor="middle" x="61" y="-234" font-family="Helvetica,sans-Serif" font-size="10.00">Sequence::insertBack</text>
</a>
</g>
</g>
<!-- Node14&#45;&gt;Node15 -->
<g id="edge14_Node000014_Node000015" class="edge">
<title>Node14&#45;&gt;Node15</title>
<g id="a_edge14_Node000014_Node000015"><a xlink:title=" ">
<path fill="none" stroke="#63b8ff" d="M168.01,-211.36C146.78,-216.39 122.36,-222.18 102.31,-226.94"/>
<polygon fill="#63b8ff" stroke="#63b8ff" points="168.9,-214.74 177.83,-209.03 167.29,-207.93 168.9,-214.74"/>
</a>
</g>
</g>
<!-- Node16 -->
<g id="Node000016" class="node">
<title>Node16</title>
<g id="a_Node000016"><a xlink:href="class_sequence.html#a1fa6868ce587e1f3d779bb226cfda548" target="_top" xlink:title="Insert a char at the the front of the sequence position .">
<polygon fill="white" stroke="#666666" points="122,-209 0,-209 0,-190 122,-190 122,-209"/>
<text text-anchor="middle" x="61" y="-197" font-family="Helvetica,sans-Serif" font-size="10.00">Sequence::insertFront</text>
</a>
</g>
</g>
<!-- Node14&#45;&gt;Node16 -->
<g id="edge15_Node000014_Node000016" class="edge">
<title>Node14&#45;&gt;Node16</title>
<g id="a_edge15_Node000014_Node000016"><a xlink:title=" ">
<path fill="none" stroke="#63b8ff" d="M147.46,-199.5C139.01,-199.5 130.44,-199.5 122.15,-199.5"/>
<polygon fill="#63b8ff" stroke="#63b8ff" points="147.69,-203 157.69,-199.5 147.69,-196 147.69,-203"/>
</a>
</g>
</g>
<!-- Node17 -->
<g id="Node000017" class="node">
<title>Node17</title>
<g id="a_Node000017"><a xlink:href="class_sequence.html#ae293cd5124445b604bbcba3a5f01a48a" target="_top" xlink:title="Main Constructor. Construct a new Sequence object.">
<polygon fill="white" stroke="#666666" points="119.5,-172 2.5,-172 2.5,-153 119.5,-153 119.5,-172"/>
<text text-anchor="middle" x="61" y="-160" font-family="Helvetica,sans-Serif" font-size="10.00">Sequence::Sequence</text>
</a>
</g>
</g>
<!-- Node14&#45;&gt;Node17 -->
<g id="edge16_Node000014_Node000017" class="edge">
<title>Node14&#45;&gt;Node17</title>
<g id="a_edge16_Node000014_Node000017"><a xlink:title=" ">
<path fill="none" stroke="#63b8ff" d="M168.01,-187.64C146.78,-182.61 122.36,-176.82 102.31,-172.06"/>
<polygon fill="#63b8ff" stroke="#63b8ff" points="167.29,-191.07 177.83,-189.97 168.9,-184.26 167.29,-191.07"/>
</a>
</g>
</g>
<!-- Node19 -->
<g id="Node000019" class="node">
<title>Node19</title>
<g id="a_Node000019"><a xlink:href="class_bit_vector.html#a93ab8bc2ec39bf299ae28ffcad504b41" target="_top" xlink:title="Give the coords of the first bit of an element.">
<polygon fill="white" stroke="#666666" points="1195,-480 1061,-480 1061,-461 1195,-461 1195,-480"/>
<text text-anchor="middle" x="1128" y="-468" font-family="Helvetica,sans-Serif" font-size="10.00">BitVector::indexElement</text>
</a>
</g>
</g>
<!-- Node18&#45;&gt;Node19 -->
<g id="edge18_Node000018_Node000019" class="edge">
<title>Node18&#45;&gt;Node19</title>
<g id="a_edge18_Node000018_Node000019"><a xlink:title=" ">
<path fill="none" stroke="#63b8ff" d="M1225.55,-470.5C1215.26,-470.5 1204.99,-470.5 1195.21,-470.5"/>
<polygon fill="#63b8ff" stroke="#63b8ff" points="1225.84,-474 1235.84,-470.5 1225.84,-467 1225.84,-474"/>
</a>
</g>
</g>
<!-- Node19&#45;&gt;Node2 -->
<g id="edge19_Node000019_Node000002" class="edge">
<title>Node19&#45;&gt;Node2</title>
<g id="a_edge19_Node000019_Node000002"><a xlink:title=" ">
<path fill="none" stroke="#63b8ff" d="M1102.82,-485.28C1063.98,-509.02 988.74,-555.01 956.17,-574.92"/>
<polygon fill="#63b8ff" stroke="#63b8ff" points="1104.71,-488.23 1111.42,-480.02 1101.06,-482.25 1104.71,-488.23"/>
</a>
</g>
</g>
<!-- Node19&#45;&gt;Node20 -->
<g id="edge20_Node000019_Node000020" class="edge">
<title>Node19&#45;&gt;Node20</title>
<g id="a_edge20_Node000019_Node000020"><a xlink:title=" ">
<path fill="none" stroke="#63b8ff" d="M1050.92,-476.21C1029.51,-477.82 1006.85,-479.52 987.67,-480.96"/>
<polygon fill="#63b8ff" stroke="#63b8ff" points="1051.27,-479.69 1060.98,-475.46 1050.75,-472.71 1051.27,-479.69"/>
</a>
</g>
</g>
<!-- Node19&#45;&gt;Node24 -->
<g id="edge24_Node000019_Node000024" class="edge">
<title>Node19&#45;&gt;Node24</title>
<g id="a_edge24_Node000019_Node000024"><a xlink:title=" ">
<path fill="none" stroke="#63b8ff" d="M1060.45,-455.54C1058.88,-454.29 1057.39,-452.95 1056,-451.5 1005.24,-398.59 1049.95,-357.43 1020,-290.5 1001.41,-248.96 965.99,-207.29 949.44,-189.05"/>
<polygon fill="#63b8ff" stroke="#63b8ff" points="1058.58,-458.5 1068.88,-460.97 1062.37,-452.62 1058.58,-458.5"/>
</a>
</g>
</g>
<!-- Node21 -->
<g id="Node000021" class="node">
<title>Node21</title>
<g id="a_Node000021"><a xlink:href="class_bit_vector.html#a23c1685317944b2a5c6f149a5fccc6bd" target="_top" xlink:title="Construct a new Bit Vector object.">
<polygon fill="white" stroke="#666666" points="799,-502 688,-502 688,-483 799,-483 799,-502"/>
<text text-anchor="middle" x="743.5" y="-490" font-family="Helvetica,sans-Serif" font-size="10.00">BitVector::BitVector</text>
</a>
</g>
</g>
<!-- Node20&#45;&gt;Node21 -->
<g id="edge21_Node000020_Node000021" class="edge">
<title>Node20&#45;&gt;Node21</title>
<g id="a_edge21_Node000020_Node000021"><a xlink:title=" ">
<path fill="none" stroke="#63b8ff" d="M880.98,-486.87C855.05,-487.94 824.58,-489.2 799.02,-490.25"/>
<polygon fill="#63b8ff" stroke="#63b8ff" points="881.19,-490.37 891.04,-486.46 880.91,-483.37 881.19,-490.37"/>
</a>
</g>
</g>
<!-- Node22 -->
<g id="Node000022" class="node">
<title>Node22</title>
<g id="a_Node000022"><a xlink:href="class_bit_vector.html#a673b530bb6e520f7f7fa90070e0034db" target="_top" xlink:title="Free memory used by BitVector::_data.">
<polygon fill="white" stroke="#666666" points="789,-465 698,-465 698,-446 789,-446 789,-465"/>
<text text-anchor="middle" x="743.5" y="-453" font-family="Helvetica,sans-Serif" font-size="10.00">BitVector::clear</text>
</a>
</g>
</g>
<!-- Node20&#45;&gt;Node22 -->
<g id="edge22_Node000020_Node000022" class="edge">
<title>Node20&#45;&gt;Node22</title>
<g id="a_edge22_Node000020_Node000022"><a xlink:title=" ">
<path fill="none" stroke="#63b8ff" d="M880.92,-475.89C851.57,-471.51 816.41,-466.25 789.14,-462.17"/>
<polygon fill="#63b8ff" stroke="#63b8ff" points="880.63,-479.39 891.04,-477.41 881.67,-472.47 880.63,-479.39"/>
</a>
</g>
</g>
<!-- Node20&#45;&gt;Node23 -->
<g id="edge23_Node000020_Node000023" class="edge">
<title>Node20&#45;&gt;Node23</title>
<g id="a_edge23_Node000020_Node000023"><a xlink:title=" ">
<path fill="none" stroke="#63b8ff" d="M888.18,-496.43C855.94,-504.08 814.68,-513.86 784.65,-520.98"/>
<polygon fill="#63b8ff" stroke="#63b8ff" points="889.38,-499.74 898.3,-494.03 887.77,-492.93 889.38,-499.74"/>
</a>
</g>
</g>
<!-- Node24&#45;&gt;Node9 -->
<g id="edge37_Node000024_Node000009" class="edge">
<title>Node24&#45;&gt;Node9</title>
<g id="a_edge37_Node000024_Node000009"><a xlink:title=" ">
<path fill="none" stroke="#63b8ff" d="M924.42,-197.13C904.36,-221.14 865.25,-263.94 823,-288.5 812.4,-294.66 800.07,-299.39 788.36,-302.95"/>
<polygon fill="#63b8ff" stroke="#63b8ff" points="927.29,-199.16 930.93,-189.2 921.88,-194.72 927.29,-199.16"/>
</a>
</g>
</g>
<!-- Node24&#45;&gt;Node11 -->
<g id="edge33_Node000024_Node000011" class="edge">
<title>Node24&#45;&gt;Node11</title>
<g id="a_edge33_Node000024_Node000011"><a xlink:title=" ">
<path fill="none" stroke="#63b8ff" d="M911.67,-165.42C888.81,-154.27 854.72,-139.58 823,-133.5 660.14,-102.26 599.91,-71.6 450,-142.5 411.02,-160.93 382.29,-206.66 371.12,-226.76"/>
<polygon fill="#63b8ff" stroke="#63b8ff" points="910.23,-168.62 920.74,-169.95 913.36,-162.35 910.23,-168.62"/>
</a>
</g>
</g>
<!-- Node25 -->
<g id="Node000025" class="node">
<title>Node25</title>
<g id="a_Node000025"><a xlink:href="class_bit_vector.html#afbdbe8a5003f5941ffd5ab095cf87d88" target="_top" xlink:title="Add an element at the end of the vector.">
<polygon fill="white" stroke="#666666" points="795,-208 692,-208 692,-189 795,-189 795,-208"/>
<text text-anchor="middle" x="743.5" y="-196" font-family="Helvetica,sans-Serif" font-size="10.00">BitVector::append</text>
</a>
</g>
</g>
<!-- Node24&#45;&gt;Node25 -->
<g id="edge25_Node000024_Node000025" class="edge">
<title>Node24&#45;&gt;Node25</title>
<g id="a_edge25_Node000024_Node000025"><a xlink:title=" ">
<path fill="none" stroke="#63b8ff" d="M888.1,-184.44C859.45,-187.24 823.68,-190.74 795.02,-193.55"/>
<polygon fill="#63b8ff" stroke="#63b8ff" points="888.69,-187.89 898.3,-183.44 888.01,-180.93 888.69,-187.89"/>
</a>
</g>
</g>
<!-- Node26 -->
<g id="Node000026" class="node">
<title>Node26</title>
<g id="a_Node000026"><a xlink:href="class_bit_vector.html#a5547d55a697d61de026d0a94e743624b" target="_top" xlink:title="Construct a new Bit Vector object.">
<polygon fill="white" stroke="#666666" points="594.5,-171 483.5,-171 483.5,-152 594.5,-152 594.5,-171"/>
<text text-anchor="middle" x="539" y="-159" font-family="Helvetica,sans-Serif" font-size="10.00">BitVector::BitVector</text>
</a>
</g>
</g>
<!-- Node24&#45;&gt;Node26 -->
<g id="edge32_Node000024_Node000026" class="edge">
<title>Node24&#45;&gt;Node26</title>
<g id="a_edge32_Node000024_Node000026"><a xlink:title=" ">
<path fill="none" stroke="#63b8ff" d="M906.48,-166.28C883.65,-157.6 851.99,-147.03 823,-142.5 740.78,-129.65 643.78,-142.05 587.35,-151.96"/>
<polygon fill="#63b8ff" stroke="#63b8ff" points="905.41,-169.62 916,-169.99 907.95,-163.1 905.41,-169.62"/>
</a>
</g>
</g>
<!-- Node27 -->
<g id="Node000027" class="node">
<title>Node27</title>
<g id="a_Node000027"><a xlink:href="class_bit_vector.html#a686af396e4dff1536b7588213726c4cc" target="_top" xlink:title="Insert a number of blank position inside BitVector::_data.">
<polygon fill="white" stroke="#666666" points="628,-246 450,-246 450,-227 628,-227 628,-246"/>
<text text-anchor="middle" x="539" y="-234" font-family="Helvetica,sans-Serif" font-size="10.00">BitVector::makeRoomForElement</text>
</a>
</g>
</g>
<!-- Node24&#45;&gt;Node27 -->
<g id="edge36_Node000024_Node000027" class="edge">
<title>Node24&#45;&gt;Node27</title>
<g id="a_edge36_Node000024_Node000027"><a xlink:title=" ">
<path fill="none" stroke="#63b8ff" d="M905.07,-192.56C882.3,-200.87 851.28,-211.05 823,-216.5 758.43,-228.94 684.25,-233.84 628.03,-235.69"/>
<polygon fill="#63b8ff" stroke="#63b8ff" points="906.45,-195.78 914.6,-189.02 904.01,-189.22 906.45,-195.78"/>
</a>
</g>
</g>
<!-- Node28 -->
<g id="Node000028" class="node">
<title>Node28</title>
<g id="a_Node000028"><a xlink:href="class_bit_vector.html#a9f86c96c013632abd9d18feafe78d72e" target="_top" xlink:title="Insert a number_of_elements inside the vector at the index pos .">
<polygon fill="white" stroke="#666666" points="412.5,-283 317.5,-283 317.5,-264 412.5,-264 412.5,-283"/>
<text text-anchor="middle" x="365" y="-271" font-family="Helvetica,sans-Serif" font-size="10.00">BitVector::insert</text>
</a>
</g>
</g>
<!-- Node24&#45;&gt;Node28 -->
<g id="edge34_Node000024_Node000028" class="edge">
<title>Node24&#45;&gt;Node28</title>
<g id="a_edge34_Node000024_Node000028"><a xlink:title=" ">
<path fill="none" stroke="#63b8ff" d="M916.23,-194.55C893.77,-208.86 857.57,-229.64 823,-239.5 677.83,-280.92 496.79,-279.62 412.81,-276.17"/>
<polygon fill="#63b8ff" stroke="#63b8ff" points="918.22,-197.43 924.7,-189.04 914.4,-191.56 918.22,-197.43"/>
</a>
</g>
</g>
<!-- Node29 -->
<g id="Node000029" class="node">
<title>Node29</title>
<g id="a_Node000029"><a xlink:href="class_bit_vector.html#a915743b3f94c75c22317d160bfa741ff" target="_top" xlink:title="Insert a number_of_elements inside the vector at the index pos .">
<polygon fill="white" stroke="#666666" points="412.5,-133 317.5,-133 317.5,-114 412.5,-114 412.5,-133"/>
<text text-anchor="middle" x="365" y="-121" font-family="Helvetica,sans-Serif" font-size="10.00">BitVector::insert</text>
</a>
</g>
</g>
<!-- Node24&#45;&gt;Node29 -->
<g id="edge35_Node000024_Node000029" class="edge">
<title>Node24&#45;&gt;Node29</title>
<g id="a_edge35_Node000024_Node000029"><a xlink:title=" ">
<path fill="none" stroke="#63b8ff" d="M926.13,-161.35C907.35,-135.62 868.94,-89.63 823,-71.5 668.8,-10.64 609.45,-26.14 450,-71.5 420.97,-79.76 392.15,-101.24 376.98,-113.86"/>
<polygon fill="#63b8ff" stroke="#63b8ff" points="923.5,-163.69 932.14,-169.83 929.21,-159.65 923.5,-163.69"/>
</a>
</g>
</g>
<!-- Node30 -->
<g id="Node000030" class="node">
<title>Node30</title>
<g id="a_Node000030"><a xlink:href="class_bit_vector.html#a2af5c1a1a0050e2b52d06c38436280fd" target="_top" xlink:title="Add an element at the end of the vector.">
<polygon fill="white" stroke="#666666" points="795,-171 692,-171 692,-152 795,-152 795,-171"/>
<text text-anchor="middle" x="743.5" y="-159" font-family="Helvetica,sans-Serif" font-size="10.00">BitVector::append</text>
</a>
</g>
</g>
<!-- Node24&#45;&gt;Node30 -->
<g id="edge31_Node000024_Node000030" class="edge">
<title>Node24&#45;&gt;Node30</title>
<g id="a_edge31_Node000024_Node000030"><a xlink:title=" ">
<path fill="none" stroke="#63b8ff" d="M888.1,-174.82C859.45,-172.17 823.68,-168.85 795.02,-166.19"/>
<polygon fill="#63b8ff" stroke="#63b8ff" points="888.02,-178.33 898.3,-175.77 888.67,-171.36 888.02,-178.33"/>
</a>
</g>
</g>
<!-- Node31 -->
<g id="Node000031" class="node">
<title>Node31</title>
<g id="a_Node000031"><a xlink:href="class_bit_vector.html#a38e8be69974c874857dd7cb6a52429ac" target="_top" xlink:title="Replace an element by another element. Can add an element to the list if index = BitVector::_element_...">
<polygon fill="white" stroke="#666666" points="784.5,-19 702.5,-19 702.5,0 784.5,0 784.5,-19"/>
<text text-anchor="middle" x="743.5" y="-7" font-family="Helvetica,sans-Serif" font-size="10.00">BitVector::set</text>
</a>
</g>
</g>
<!-- Node24&#45;&gt;Node31 -->
<g id="edge38_Node000024_Node000031" class="edge">
<title>Node24&#45;&gt;Node31</title>
<g id="a_edge38_Node000024_Node000031"><a xlink:title=" ">
<path fill="none" stroke="#63b8ff" d="M928.67,-160.72C911.45,-129.63 872.85,-67.54 823,-33.5 811.58,-25.7 797.55,-20.37 784.52,-16.75"/>
<polygon fill="#63b8ff" stroke="#63b8ff" points="925.66,-162.52 933.5,-169.65 931.82,-159.19 925.66,-162.52"/>
</a>
</g>
</g>
<!-- Node25&#45;&gt;Node26 -->
<g id="edge26_Node000025_Node000026" class="edge">
<title>Node25&#45;&gt;Node26</title>
<g id="a_edge26_Node000025_Node000026"><a xlink:title=" ">
<path fill="none" stroke="#63b8ff" d="M682.03,-187.45C653.39,-182.22 619.52,-176.03 592.05,-171.01"/>
<polygon fill="#63b8ff" stroke="#63b8ff" points="681.46,-190.9 691.92,-189.26 682.72,-184.02 681.46,-190.9"/>
</a>
</g>
</g>
<!-- Node25&#45;&gt;Node27 -->
<g id="edge27_Node000025_Node000027" class="edge">
<title>Node25&#45;&gt;Node27</title>
<g id="a_edge27_Node000025_Node000027"><a xlink:title=" ">
<path fill="none" stroke="#63b8ff" d="M681.87,-209.88C652.77,-215.34 618.31,-221.81 590.63,-227"/>
<polygon fill="#63b8ff" stroke="#63b8ff" points="682.74,-213.28 691.92,-207.99 681.45,-206.4 682.74,-213.28"/>
</a>
</g>
</g>
<!-- Node27&#45;&gt;Node11 -->
<g id="edge28_Node000027_Node000011" class="edge">
<title>Node27&#45;&gt;Node11</title>
<g id="a_edge28_Node000027_Node000011"><a xlink:title=" ">
<path fill="none" stroke="#63b8ff" d="M439.98,-236.5C431.17,-236.5 422.53,-236.5 414.44,-236.5"/>
<polygon fill="#63b8ff" stroke="#63b8ff" points="439.98,-240 449.98,-236.5 439.98,-233 439.98,-240"/>
</a>
</g>
</g>
<!-- Node27&#45;&gt;Node28 -->
<g id="edge29_Node000027_Node000028" class="edge">
<title>Node27&#45;&gt;Node28</title>
<g id="a_edge29_Node000027_Node000028"><a xlink:title=" ">
<path fill="none" stroke="#63b8ff" d="M483.83,-248.15C460.21,-253.23 432.85,-259.12 410.44,-263.94"/>
<polygon fill="#63b8ff" stroke="#63b8ff" points="484.67,-251.55 493.71,-246.03 483.19,-244.71 484.67,-251.55"/>
</a>
</g>
</g>
<!-- Node27&#45;&gt;Node29 -->
<g id="edge30_Node000027_Node000029" class="edge">
<title>Node27&#45;&gt;Node29</title>
<g id="a_edge30_Node000027_Node000029"><a xlink:title=" ">
<path fill="none" stroke="#63b8ff" d="M514.44,-221.36C496.68,-209.92 471.76,-193.8 450,-179.5 425.39,-163.33 396.91,-144.27 380.23,-133.07"/>
<polygon fill="#63b8ff" stroke="#63b8ff" points="512.71,-224.41 523.01,-226.88 516.5,-218.52 512.71,-224.41"/>
</a>
</g>
</g>
<!-- Node32&#45;&gt;Node18 -->
<g id="edge40_Node000032_Node000018" class="edge">
<title>Node32&#45;&gt;Node18</title>
<g id="a_edge40_Node000032_Node000018"><a xlink:title=" ">
<path fill="none" stroke="#63b8ff" d="M1506.54,-409.34C1484.39,-422.18 1450.51,-440.39 1419,-451.5 1408.4,-455.24 1396.83,-458.35 1385.62,-460.9"/>
<polygon fill="#63b8ff" stroke="#63b8ff" points="1508.43,-412.29 1515.27,-404.2 1504.88,-406.25 1508.43,-412.29"/>
</a>
</g>
</g>
<!-- Node32&#45;&gt;Node27 -->
<g id="edge41_Node000032_Node000027" class="edge">
<title>Node32&#45;&gt;Node27</title>
<g id="a_edge41_Node000032_Node000027"><a xlink:title=" ">
<path fill="none" stroke="#63b8ff" d="M1490.07,-382.2C1469.03,-376.41 1442.86,-370.02 1419,-366.5 1086.65,-317.52 979.78,-445.11 664,-330.5 613.97,-312.34 567.51,-266.47 548.75,-246.28"/>
<polygon fill="#63b8ff" stroke="#63b8ff" points="1489.38,-385.64 1499.95,-384.98 1491.27,-378.91 1489.38,-385.64"/>
</a>
</g>
</g>
<!-- Node33 -->
<g id="Node000033" class="node">
<title>Node33</title>
<g id="a_Node000033"><a xlink:href="class_bit_vector.html#a346dbe2e158d2cfda20212e7f93e8402" target="_top" xlink:title="Do maximum BitVector::_element_number is reached (With no possibility to push it further)">
<polygon fill="white" stroke="#666666" points="1402,-405.5 1253,-405.5 1253,-375.5 1402,-375.5 1402,-405.5"/>
<text text-anchor="start" x="1261" y="-393.5" font-family="Helvetica,sans-Serif" font-size="10.00">BitVector::maxElementSize</text>
<text text-anchor="middle" x="1327.5" y="-382.5" font-family="Helvetica,sans-Serif" font-size="10.00">IsReached</text>
</a>
</g>
</g>
<!-- Node32&#45;&gt;Node33 -->
<g id="edge42_Node000032_Node000033" class="edge">
<title>Node32&#45;&gt;Node33</title>
<g id="a_edge42_Node000032_Node000033"><a xlink:title=" ">
<path fill="none" stroke="#63b8ff" d="M1444.51,-392.79C1430.36,-392.51 1415.82,-392.22 1402.02,-391.95"/>
<polygon fill="#63b8ff" stroke="#63b8ff" points="1444.66,-396.3 1454.73,-392.99 1444.8,-389.3 1444.66,-396.3"/>
</a>
</g>
</g>
<!-- Node32&#45;&gt;Node35 -->
<g id="edge44_Node000032_Node000035" class="edge">
<title>Node32&#45;&gt;Node35</title>
<g id="a_edge44_Node000032_Node000035"><a xlink:title=" ">
<path fill="none" stroke="#63b8ff" d="M1471.6,-405.94C1441.81,-411.68 1406.15,-418.55 1377.88,-423.99"/>
<polygon fill="#63b8ff" stroke="#63b8ff" points="1472.31,-409.37 1481.46,-404.04 1470.98,-402.49 1472.31,-409.37"/>
</a>
</g>
</g>
<!-- Node34 -->
<g id="Node000034" class="node">
<title>Node34</title>
<g id="a_Node000034"><a xlink:href="class_bit_vector.html#a87e099aba27ebb0f67c07dd8314828e7" target="_top" xlink:title="Do maximum capacity is reached (With no possibility to push it further)">
<polygon fill="white" stroke="#666666" points="823,-428 664,-428 664,-409 823,-409 823,-428"/>
<text text-anchor="middle" x="743.5" y="-416" font-family="Helvetica,sans-Serif" font-size="10.00">BitVector::maxSizeIsReached</text>
</a>
</g>
</g>
<!-- Node33&#45;&gt;Node34 -->
<g id="edge43_Node000033_Node000034" class="edge">
<title>Node33&#45;&gt;Node34</title>
<g id="a_edge43_Node000033_Node000034"><a xlink:title=" ">
<path fill="none" stroke="#63b8ff" d="M1242.51,-392.96C1148.9,-395.92 993.04,-401.51 859,-409.5 847.36,-410.19 835.05,-411.04 823,-411.93"/>
<polygon fill="#63b8ff" stroke="#63b8ff" points="1242.89,-396.45 1252.77,-392.63 1242.67,-389.45 1242.89,-396.45"/>
</a>
</g>
</g>
<!-- Node36 -->
<g id="Node000036" class="node">
<title>Node36</title>
<g id="a_Node000036"><a xlink:href="class_bit_vector.html#acb362f03b29600195996f52c04940439" target="_top" xlink:title="How many octet can be contained in this object knowing BitVector::_element_size.">
<polygon fill="white" stroke="#666666" points="1198,-443 1058,-443 1058,-424 1198,-424 1198,-443"/>
<text text-anchor="middle" x="1128" y="-431" font-family="Helvetica,sans-Serif" font-size="10.00">BitVector::maxOctetLimit</text>
</a>
</g>
</g>
<!-- Node35&#45;&gt;Node36 -->
<g id="edge45_Node000035_Node000036" class="edge">
<title>Node35&#45;&gt;Node36</title>
<g id="a_edge45_Node000035_Node000036"><a xlink:title=" ">
<path fill="none" stroke="#63b8ff" d="M1235.83,-433.5C1223.22,-433.5 1210.43,-433.5 1198.29,-433.5"/>
<polygon fill="#63b8ff" stroke="#63b8ff" points="1235.88,-437 1245.88,-433.5 1235.88,-430 1235.88,-437"/>
</a>
</g>
</g>
<!-- Node36&#45;&gt;Node20 -->
<g id="edge48_Node000036_Node000020" class="edge">
<title>Node36&#45;&gt;Node20</title>
<g id="a_edge48_Node000036_Node000020"><a xlink:title=" ">
<path fill="none" stroke="#63b8ff" d="M1078.75,-445.53C1071.13,-447.48 1063.34,-449.52 1056,-451.5 1027.81,-459.1 995.91,-468.26 972.79,-474.99"/>
<polygon fill="#63b8ff" stroke="#63b8ff" points="1079.8,-448.87 1088.62,-443.01 1078.07,-442.09 1079.8,-448.87"/>
</a>
</g>
</g>
<!-- Node37 -->
<g id="Node000037" class="node">
<title>Node37</title>
<g id="a_Node000037"><a xlink:href="class_bit_vector.html#a00aeec5e60b478d74e1540f34f46e37c" target="_top" xlink:title="Do maximum BitVector::_data_size is reached (With no possibility to push it further)">
<polygon fill="white" stroke="#666666" points="1009.5,-448.5 869.5,-448.5 869.5,-418.5 1009.5,-418.5 1009.5,-448.5"/>
<text text-anchor="start" x="877.5" y="-436.5" font-family="Helvetica,sans-Serif" font-size="10.00">BitVector::maxDataSizeIs</text>
<text text-anchor="middle" x="939.5" y="-425.5" font-family="Helvetica,sans-Serif" font-size="10.00">Reached</text>
</a>
</g>
</g>
<!-- Node36&#45;&gt;Node37 -->
<g id="edge46_Node000036_Node000037" class="edge">
<title>Node36&#45;&gt;Node37</title>
<g id="a_edge46_Node000036_Node000037"><a xlink:title=" ">
<path fill="none" stroke="#63b8ff" d="M1047.74,-433.5C1035.04,-433.5 1022,-433.5 1009.57,-433.5"/>
<polygon fill="#63b8ff" stroke="#63b8ff" points="1047.82,-437 1057.82,-433.5 1047.82,-430 1047.82,-437"/>
</a>
</g>
</g>
<!-- Node37&#45;&gt;Node34 -->
<g id="edge47_Node000037_Node000034" class="edge">
<title>Node37&#45;&gt;Node34</title>
<g id="a_edge47_Node000037_Node000034"><a xlink:title=" ">
<path fill="none" stroke="#63b8ff" d="M859.02,-427.35C847.22,-426.44 835.06,-425.5 823.27,-424.59"/>
<polygon fill="#63b8ff" stroke="#63b8ff" points="859.04,-430.87 869.28,-428.15 859.58,-423.89 859.04,-430.87"/>
</a>
</g>
</g>
<!-- Node38&#45;&gt;Node24 -->
<g id="edge55_Node000038_Node000024" class="edge">
<title>Node38&#45;&gt;Node24</title>
<g id="a_edge55_Node000038_Node000024"><a xlink:title=" ">
<path fill="none" stroke="#63b8ff" d="M1635.24,-208.05C1586.58,-208.31 1516.37,-208.24 1455,-206.5 1277.97,-201.49 1067.01,-188.08 980.5,-182.26"/>
<polygon fill="#63b8ff" stroke="#63b8ff" points="1635.3,-211.55 1645.28,-208 1635.26,-204.55 1635.3,-211.55"/>
</a>
</g>
</g>
<!-- Node39 -->
<g id="Node000039" class="node">
<title>Node39</title>
<g id="a_Node000039"><a xlink:href="class_bit_vector.html#a0608b1bfe67ad7972903a602eb42e404" target="_top" xlink:title="Give an iterator to end an iteration.">
<polygon fill="white" stroke="#666666" points="1574.5,-198 1489.5,-198 1489.5,-179 1574.5,-179 1574.5,-198"/>
<text text-anchor="middle" x="1532" y="-186" font-family="Helvetica,sans-Serif" font-size="10.00">BitVector::end</text>
</a>
</g>
</g>
<!-- Node38&#45;&gt;Node39 -->
<g id="edge53_Node000038_Node000039" class="edge">
<title>Node38&#45;&gt;Node39</title>
<g id="a_edge53_Node000038_Node000039"><a xlink:title=" ">
<path fill="none" stroke="#63b8ff" d="M1635.38,-200.47C1615.21,-198.11 1593.17,-195.54 1574.72,-193.38"/>
<polygon fill="#63b8ff" stroke="#63b8ff" points="1635.08,-203.96 1645.42,-201.64 1635.89,-197.01 1635.08,-203.96"/>
</a>
</g>
</g>
<!-- Node40 -->
<g id="Node000040" class="node">
<title>Node40</title>
<g id="a_Node000040"><a xlink:href="class_bit_vector.html#a9c63a7f853693a19595fa92d487f92b5" target="_top" xlink:title="Modify a bit inside BitVector::_data.">
<polygon fill="white" stroke="#666666" points="1573,-161 1491,-161 1491,-142 1573,-142 1573,-161"/>
<text text-anchor="middle" x="1532" y="-149" font-family="Helvetica,sans-Serif" font-size="10.00">BitVector::set</text>
</a>
</g>
</g>
<!-- Node38&#45;&gt;Node40 -->
<g id="edge54_Node000038_Node000040" class="edge">
<title>Node38&#45;&gt;Node40</title>
<g id="a_edge54_Node000038_Node000040"><a xlink:title=" ">
<path fill="none" stroke="#63b8ff" d="M1667.14,-193.48C1650.5,-185.65 1628.89,-176.16 1609,-169.5 1597.56,-165.67 1584.88,-162.32 1573.22,-159.59"/>
<polygon fill="#63b8ff" stroke="#63b8ff" points="1665.78,-196.71 1676.32,-197.87 1668.8,-190.4 1665.78,-196.71"/>
</a>
</g>
</g>
</g>
</svg>

<g id="navigator" transform="translate(0 0)" fill="#404254">
  <rect fill="#f2f5e9" fill-opacity="0.5" stroke="#606060" stroke-width=".5" x="0" y="0" width="60" height="60"/>
  <use id="zoomplus" xlink:href="#zoomPlus" x="17" y="9" onmousedown="handleZoom(evt,'in')"/>
  <use id="zoomminus" xlink:href="#zoomMin" x="42" y="9" onmousedown="handleZoom(evt,'out')"/>
  <use id="reset" xlink:href="#resetDef" x="30" y="36" onmousedown="handleReset()"/>
   <use id="arrowup" xlink:href="#arrowUp" x="0" y="0" onmousedown="handlePan(0,-1)"/>
  <use id="arrowright" xlink:href="#arrowRight" x="0" y="0" onmousedown="handlePan(1,0)"/>
  <use id="arrowdown" xlink:href="#arrowDown" x="0" y="0" onmousedown="handlePan(0,1)"/>
  <use id="arrowleft" xlink:href="#arrowLeft" x="0" y="0" onmousedown="handlePan(-1,0)"/>
</g>
<svg viewBox="0 0 15 15" width="100%" height="30px" preserveAspectRatio="xMaxYMin meet">
 <g id="arrow_out" transform="scale(0.3 0.3)">
  <a xlink:href="class_bit_vector_a115789c8a9812eabb52f8843cd4e9965_icgraph_org.svg" target="_base">
   <rect id="button" ry="5" rx="5" y="6" x="6" height="38" width="38"
        fill="#f2f5e9" fill-opacity="0.5" stroke="#606060" stroke-width="1.0"/>
   <path id="arrow"
     d="M 11.500037,31.436501 C 11.940474,20.09759 22.043105,11.32322 32.158766,21.979434 L 37.068811,17.246167 C 37.068811,17.246167 37.088388,32 37.088388,32 L 22.160133,31.978069 C 22.160133,31.978069 26.997745,27.140456 26.997745,27.140456 C 18.528582,18.264221 13.291696,25.230495 11.500037,31.436501 z"
     style="fill:#404040;"/>
  </a>
 </g>
</svg>

<style type='text/css'>
<![CDATA[
[data-mouse-over-selected='false'] { opacity: 0.7; }
[data-mouse-over-selected='true']  { opacity: 1.0; }
]]>
</style>
<script type="application/ecmascript"><![CDATA[
document.addEventListener('DOMContentLoaded', (event) => {
  highlightEdges();
  highlightAdjacentNodes();
});
]]></script>
</svg>
