<?xml version="1.0" encoding="UTF-8" standalone="no"?>
<!DOCTYPE svg PUBLIC "-//W3C//DTD SVG 1.1//EN"
 "http://www.w3.org/Graphics/SVG/1.1/DTD/svg11.dtd">
<!-- Generated by graphviz version 2.43.0 (0)
 -->
<!-- Title: BitVector::getCoordUnit Pages: 1 -->
<!--zoomable 465 -->

<svg id="main" version="1.1" xmlns="http://www.w3.org/2000/svg" xmlns:xlink="http://www.w3.org/1999/xlink" xml:space="preserve" onload="init(evt)">
<style type="text/css"><![CDATA[
.node, .edge {opacity: 0.7;}
.node.selected, .edge.selected {opacity: 1;}
.edge:hover path { stroke: red; }
.edge:hover polygon { stroke: red; fill: red; }
]]></style>

<defs>
  <circle id="rim" cx="0" cy="0" r="7"/>
  <circle id="rim2" cx="0" cy="0" r="3.5"/>
  <g id="zoomPlus">
    <use xlink:href="#rim" fill="#404040"><set attributeName="fill" to="#808080" begin="zoomplus.mouseover" end="zoomplus.mouseout"/></use>
    <path d="M-4,0h8M0,-4v8" fill="none" stroke="white" stroke-width="1.5" pointer-events="none"/>
  </g>
  <g id="zoomMin">
    <use xlink:href="#rim" fill="#404040"><set attributeName="fill" to="#808080" begin="zoomminus.mouseover" end="zoomminus.mouseout"/></use>
    <path d="M-4,0h8" fill="none" stroke="white" stroke-width="1.5" pointer-events="none"/>
  </g>
  <g id="arrowUp" transform="translate(30 24)">
    <use xlink:href="#rim"/>
    <path pointer-events="none" fill="none" stroke="white" stroke-width="1.5" d="M0,-3.0v7 M-2.5,-0.5L0,-3.0L2.5,-0.5"/>
  </g>
  <g id="arrowRight" transform="rotate(90) translate(36 -43)">
    <use xlink:href="#rim"/>
    <path pointer-events="none" fill="none" stroke="white" stroke-width="1.5" d="M0,-3.0v7 M-2.5,-0.5L0,-3.0L2.5,-0.5"/>
  </g>
  <g id="arrowDown" transform="rotate(180) translate(-30 -48)">
    <use xlink:href="#rim"/>
    <path pointer-events="none" fill="none" stroke="white" stroke-width="1.5" d="M0,-3.0v7 M-2.5,-0.5L0,-3.0L2.5,-0.5"/>
  </g>
  <g id="arrowLeft" transform="rotate(270) translate(-36 17)">
    <use xlink:href="#rim"/>
    <path pointer-events="none" fill="none" stroke="white" stroke-width="1.5" d="M0,-3.0v7 M-2.5,-0.5L0,-3.0L2.5,-0.5"/>
  </g>
  <g id="resetDef">
    <use xlink:href="#rim2" fill="#404040"><set attributeName="fill" to="#808080" begin="reset.mouseover" end="reset.mouseout"/></use>
  </g>
</defs>
<script type="application/ecmascript">
var viewWidth = 1604;
var viewHeight = 465;
var sectionId = 'dynsection-21';
</script>
<script type="application/ecmascript" xlink:href="svg.min.js"/>
<svg id="graph" class="graph">
<g id="viewport">
<title>BitVector::getCoordUnit</title>
<!-- Node1 -->
<g id="Node000001" class="node">
<title>Node1</title>
<g id="a_Node000001"><a xlink:title="Give the a coord object that represent the size of 1 element inside BitVector::_data.">
<polygon fill="#999999" stroke="#666666" points="1596,-247.8 1465,-247.8 1465,-228.8 1596,-228.8 1596,-247.8"/>
<text text-anchor="middle" x="1530.5" y="-235.8" font-family="Helvetica,sans-Serif" font-size="10.00">BitVector::getCoordUnit</text>
</a>
</g>
</g>
<!-- Node2 -->
<g id="Node000002" class="node">
<title>Node2</title>
<g id="a_Node000002"><a xlink:href="class_bit_vector.html#a2d0fe43b80b63edbd64dc887fd87d915" target="_top" xlink:title="Return the element at the position index.">
<polygon fill="white" stroke="#666666" points="662,-390.8 579,-390.8 579,-371.8 662,-371.8 662,-390.8"/>
<text text-anchor="middle" x="620.5" y="-378.8" font-family="Helvetica,sans-Serif" font-size="10.00">BitVector::get</text>
</a>
</g>
</g>
<!-- Node1&#45;&gt;Node2 -->
<g id="edge1_Node000001_Node000002" class="edge">
<title>Node1&#45;&gt;Node2</title>
<g id="a_edge1_Node000001_Node000002"><a xlink:title=" ">
<path fill="none" stroke="#63b8ff" d="M1516.63,-256.34C1477.61,-308.75 1354.58,-457.3 1214,-457.3 1214,-457.3 1214,-457.3 1007.5,-457.3 871.58,-457.3 713.73,-411.38 650.17,-390.93"/>
<polygon fill="#63b8ff" stroke="#63b8ff" points="1519.66,-258.13 1522.74,-248 1514.01,-254 1519.66,-258.13"/>
</a>
</g>
</g>
<!-- Node3 -->
<g id="Node000003" class="node">
<title>Node3</title>
<g id="a_Node000003"><a xlink:href="class_bit_vector.html#af68cda7444ec4459393bbfa423f0a7dd" target="_top" xlink:title="Get the Size_t value if a BitVector::CoordUnit.">
<polygon fill="white" stroke="#666666" points="1429,-316.3 1326,-316.3 1326,-286.3 1429,-286.3 1429,-316.3"/>
<text text-anchor="start" x="1334" y="-304.3" font-family="Helvetica,sans-Serif" font-size="10.00">BitVector::getSize</text>
<text text-anchor="middle" x="1377.5" y="-293.3" font-family="Helvetica,sans-Serif" font-size="10.00">_tUnit</text>
</a>
</g>
</g>
<!-- Node1&#45;&gt;Node3 -->
<g id="edge2_Node000001_Node000003" class="edge">
<title>Node1&#45;&gt;Node3</title>
<g id="a_edge2_Node000001_Node000003"><a xlink:title=" ">
<path fill="none" stroke="#63b8ff" d="M1497.1,-251.82C1472.86,-261.94 1439.7,-275.77 1414.61,-286.24"/>
<polygon fill="#63b8ff" stroke="#63b8ff" points="1498.69,-254.95 1506.57,-247.87 1495.99,-248.49 1498.69,-254.95"/>
</a>
</g>
</g>
<!-- Node16 -->
<g id="Node000016" class="node">
<title>Node16</title>
<g id="a_Node000016"><a xlink:href="class_bit_vector.html#aca24053f655c825de0f06ec86fff1cec" target="_top" xlink:title="Replace an element by another element. Can add an element to the list if index = BitVector::_element_...">
<polygon fill="white" stroke="#666666" points="661.5,-123.8 579.5,-123.8 579.5,-104.8 661.5,-104.8 661.5,-123.8"/>
<text text-anchor="middle" x="620.5" y="-111.8" font-family="Helvetica,sans-Serif" font-size="10.00">BitVector::set</text>
</a>
</g>
</g>
<!-- Node1&#45;&gt;Node16 -->
<g id="edge46_Node000001_Node000016" class="edge">
<title>Node1&#45;&gt;Node16</title>
<g id="a_edge46_Node000001_Node000016"><a xlink:title=" ">
<path fill="none" stroke="#63b8ff" d="M1516.23,-220.5C1476.54,-169.46 1352.83,-26.3 1214,-26.3 1214,-26.3 1214,-26.3 1007.5,-26.3 867.63,-26.3 706.22,-81.91 645.9,-104.72"/>
<polygon fill="#63b8ff" stroke="#63b8ff" points="1513.61,-222.82 1522.46,-228.64 1519.17,-218.57 1513.61,-222.82"/>
</a>
</g>
</g>
<!-- Node30 -->
<g id="Node000030" class="node">
<title>Node30</title>
<g id="a_Node000030"><a xlink:href="class_bit_vector.html#ab92cdd9780b949d9d762f58e1ee4a0ae" target="_top" xlink:title="Last postion of the vector.">
<polygon fill="white" stroke="#666666" points="1428.5,-167.8 1326.5,-167.8 1326.5,-148.8 1428.5,-148.8 1428.5,-167.8"/>
<text text-anchor="middle" x="1377.5" y="-155.8" font-family="Helvetica,sans-Serif" font-size="10.00">BitVector::lastPos</text>
</a>
</g>
</g>
<!-- Node1&#45;&gt;Node30 -->
<g id="edge42_Node000001_Node000030" class="edge">
<title>Node1&#45;&gt;Node30</title>
<g id="a_edge42_Node000001_Node000030"><a xlink:title=" ">
<path fill="none" stroke="#63b8ff" d="M1502.45,-223.97C1471.92,-207.8 1423.12,-181.94 1396.78,-167.99"/>
<polygon fill="#63b8ff" stroke="#63b8ff" points="1500.81,-227.06 1511.29,-228.65 1504.09,-220.88 1500.81,-227.06"/>
</a>
</g>
</g>
<!-- Node4 -->
<g id="Node000004" class="node">
<title>Node4</title>
<g id="a_Node000004"><a xlink:href="class_bit_vector.html#a354c83853bc3622efa5d45efcae97286" target="_top" xlink:title="Give more detailed on BiteVector::indexCoordinate.">
<polygon fill="white" stroke="#666666" points="1286.5,-235.3 1139.5,-235.3 1139.5,-205.3 1286.5,-205.3 1286.5,-235.3"/>
<text text-anchor="start" x="1147.5" y="-223.3" font-family="Helvetica,sans-Serif" font-size="10.00">BitVector::indexCoordinate</text>
<text text-anchor="middle" x="1213" y="-212.3" font-family="Helvetica,sans-Serif" font-size="10.00">Untreated</text>
</a>
</g>
</g>
<!-- Node3&#45;&gt;Node4 -->
<g id="edge3_Node000003_Node000004" class="edge">
<title>Node3&#45;&gt;Node4</title>
<g id="a_edge3_Node000003_Node000004"><a xlink:title=" ">
<path fill="none" stroke="#63b8ff" d="M1349.06,-280.38C1332.61,-268.58 1310.88,-254.24 1290,-244.3 1283.13,-241.03 1275.7,-238.06 1268.28,-235.41"/>
<polygon fill="#63b8ff" stroke="#63b8ff" points="1347.02,-283.22 1357.16,-286.29 1351.14,-277.57 1347.02,-283.22"/>
</a>
</g>
</g>
<!-- Node10 -->
<g id="Node000010" class="node">
<title>Node10</title>
<g id="a_Node000010"><a xlink:href="class_bit_vector.html#a04e6d0b67ee9b42ccec437b0176067fe" target="_top" xlink:title="Give A size_t that represent the coords of the first bit of an element.">
<polygon fill="white" stroke="#666666" points="1100,-348.8 917,-348.8 917,-329.8 1100,-329.8 1100,-348.8"/>
<text text-anchor="middle" x="1008.5" y="-336.8" font-family="Helvetica,sans-Serif" font-size="10.00">BitVector::indexElementUntreated</text>
</a>
</g>
</g>
<!-- Node3&#45;&gt;Node10 -->
<g id="edge9_Node000003_Node000010" class="edge">
<title>Node3&#45;&gt;Node10</title>
<g id="a_edge9_Node000003_Node000010"><a xlink:title=" ">
<path fill="none" stroke="#63b8ff" d="M1315.78,-311.72C1307.14,-313.03 1298.36,-314.27 1290,-315.3 1226.7,-323.12 1155.04,-329.21 1100,-333.29"/>
<polygon fill="#63b8ff" stroke="#63b8ff" points="1316.48,-315.15 1325.82,-310.16 1315.4,-308.24 1316.48,-315.15"/>
</a>
</g>
</g>
<!-- Node12 -->
<g id="Node000012" class="node">
<title>Node12</title>
<g id="a_Node000012"><a xlink:href="class_bit_vector.html#a13856f33d2350c573cf2fbe587f03757" target="_top" xlink:title="Modify the length of BitVector::_data.">
<polygon fill="white" stroke="#666666" points="668.5,-353.8 572.5,-353.8 572.5,-334.8 668.5,-334.8 668.5,-353.8"/>
<text text-anchor="middle" x="620.5" y="-341.8" font-family="Helvetica,sans-Serif" font-size="10.00">BitVector::resize</text>
</a>
</g>
</g>
<!-- Node3&#45;&gt;Node12 -->
<g id="edge40_Node000003_Node000012" class="edge">
<title>Node3&#45;&gt;Node12</title>
<g id="a_edge40_Node000003_Node000012"><a xlink:title=" ">
<path fill="none" stroke="#63b8ff" d="M1337.23,-320.47C1322.71,-326.8 1305.9,-333.25 1290,-337.3 1051.68,-398.06 982.55,-371.08 737,-357.3 714.44,-356.04 689.51,-353.39 668.6,-350.81"/>
<polygon fill="#63b8ff" stroke="#63b8ff" points="1338.72,-323.64 1346.42,-316.35 1335.86,-317.25 1338.72,-323.64"/>
</a>
</g>
</g>
<!-- Node15 -->
<g id="Node000015" class="node">
<title>Node15</title>
<g id="a_Node000015"><a xlink:href="class_bit_vector.html#a80a4aa212535129b881b4fb2623ce222" target="_top" xlink:title="Reduce the size of BitVector::_data to fit BitVector::_element_number.">
<polygon fill="white" stroke="#666666" points="473,-427.8 376,-427.8 376,-408.8 473,-408.8 473,-427.8"/>
<text text-anchor="middle" x="424.5" y="-415.8" font-family="Helvetica,sans-Serif" font-size="10.00">BitVector::shrink</text>
</a>
</g>
</g>
<!-- Node3&#45;&gt;Node15 -->
<g id="edge41_Node000003_Node000015" class="edge">
<title>Node3&#45;&gt;Node15</title>
<g id="a_edge41_Node000003_Node000015"><a xlink:title=" ">
<path fill="none" stroke="#63b8ff" d="M1353.93,-323.32C1337.51,-338.05 1314.04,-356.64 1290,-367.3 1174.1,-418.72 1136.29,-419.3 1009.5,-419.3 1009.5,-419.3 1009.5,-419.3 808,-419.3 687.47,-419.3 545.58,-418.8 473.21,-418.51"/>
<polygon fill="#63b8ff" stroke="#63b8ff" points="1356.41,-325.79 1361.39,-316.44 1351.66,-320.64 1356.41,-325.79"/>
</a>
</g>
</g>
<!-- Node24 -->
<g id="Node000024" class="node">
<title>Node24</title>
<g id="a_Node000024"><a xlink:href="class_bit_vector.html#ad36e7d0b4b1417ca434414fa40c72eb8" target="_top" xlink:title="How many element can be contained in this object knowing BitVector::_element_size.">
<polygon fill="white" stroke="#666666" points="1290,-272.8 1136,-272.8 1136,-253.8 1290,-253.8 1290,-272.8"/>
<text text-anchor="middle" x="1213" y="-260.8" font-family="Helvetica,sans-Serif" font-size="10.00">BitVector::maxElementLimit</text>
</a>
</g>
</g>
<!-- Node3&#45;&gt;Node24 -->
<g id="edge29_Node000003_Node000024" class="edge">
<title>Node3&#45;&gt;Node24</title>
<g id="a_edge29_Node000003_Node000024"><a xlink:title=" ">
<path fill="none" stroke="#63b8ff" d="M1316.1,-287.18C1295.64,-282.39 1273.27,-277.16 1254.71,-272.82"/>
<polygon fill="#63b8ff" stroke="#63b8ff" points="1315.44,-290.62 1325.97,-289.49 1317.03,-283.8 1315.44,-290.62"/>
</a>
</g>
</g>
<!-- Node27 -->
<g id="Node000027" class="node">
<title>Node27</title>
<g id="a_Node000027"><a xlink:href="class_bit_vector.html#a214e556dd89acce2427a378c5520adbd" target="_top" xlink:title="Last acceptable coordinate knowing BitVector::_element_size.">
<polygon fill="white" stroke="#666666" points="1090,-310.8 927,-310.8 927,-291.8 1090,-291.8 1090,-310.8"/>
<text text-anchor="middle" x="1008.5" y="-298.8" font-family="Helvetica,sans-Serif" font-size="10.00">BitVector::MaximalCoordLimit</text>
</a>
</g>
</g>
<!-- Node3&#45;&gt;Node27 -->
<g id="edge39_Node000003_Node000027" class="edge">
<title>Node3&#45;&gt;Node27</title>
<g id="a_edge39_Node000003_Node000027"><a xlink:title=" ">
<path fill="none" stroke="#63b8ff" d="M1315.51,-301.3C1253.84,-301.3 1158.19,-301.3 1090.25,-301.3"/>
<polygon fill="#63b8ff" stroke="#63b8ff" points="1315.86,-304.8 1325.86,-301.3 1315.86,-297.8 1315.86,-304.8"/>
</a>
</g>
</g>
<!-- Node5 -->
<g id="Node000005" class="node">
<title>Node5</title>
<g id="a_Node000005"><a xlink:href="class_bit_vector.html#a5af3c70f593aac387de23c7e6e5ae57e" target="_top" xlink:title="Find the element that correspond to coord .">
<polygon fill="white" stroke="#666666" points="1082,-224.8 935,-224.8 935,-205.8 1082,-205.8 1082,-224.8"/>
<text text-anchor="middle" x="1008.5" y="-212.8" font-family="Helvetica,sans-Serif" font-size="10.00">BitVector::indexCoordinate</text>
</a>
</g>
</g>
<!-- Node4&#45;&gt;Node5 -->
<g id="edge4_Node000004_Node000005" class="edge">
<title>Node4&#45;&gt;Node5</title>
<g id="a_edge4_Node000004_Node000005"><a xlink:title=" ">
<path fill="none" stroke="#63b8ff" d="M1129.31,-218.26C1113.7,-217.88 1097.48,-217.48 1082.21,-217.1"/>
<polygon fill="#63b8ff" stroke="#63b8ff" points="1129.38,-221.76 1139.46,-218.51 1129.55,-214.77 1129.38,-221.76"/>
</a>
</g>
</g>
<!-- Node6 -->
<g id="Node000006" class="node">
<title>Node6</title>
<g id="a_Node000006"><a xlink:href="class_bit_vector.html#aed5c03f3a6a9a2e5f3c58fb14768b0b4" target="_top" xlink:title="Say how many items can be hold inside this object with the current BitVector::_data_size:">
<polygon fill="white" stroke="#666666" points="881,-181.8 737,-181.8 737,-162.8 881,-162.8 881,-181.8"/>
<text text-anchor="middle" x="809" y="-169.8" font-family="Helvetica,sans-Serif" font-size="10.00">BitVector::currentCapacity</text>
</a>
</g>
</g>
<!-- Node5&#45;&gt;Node6 -->
<g id="edge5_Node000005_Node000006" class="edge">
<title>Node5&#45;&gt;Node6</title>
<g id="a_edge5_Node000005_Node000006"><a xlink:title=" ">
<path fill="none" stroke="#63b8ff" d="M953.76,-203.6C922.35,-196.76 883.22,-188.24 853.71,-181.82"/>
<polygon fill="#63b8ff" stroke="#63b8ff" points="953.15,-207.05 963.67,-205.76 954.64,-200.21 953.15,-207.05"/>
</a>
</g>
</g>
<!-- Node7 -->
<g id="Node000007" class="node">
<title>Node7</title>
<g id="a_Node000007"><a xlink:href="class_bit_vector.html#ad64e921d07b9528a532477f282af135c" target="_top" xlink:title="How many element can fit in this vector without having to resize the vector ?">
<polygon fill="white" stroke="#666666" points="880,-230.3 738,-230.3 738,-200.3 880,-200.3 880,-230.3"/>
<text text-anchor="start" x="746" y="-218.3" font-family="Helvetica,sans-Serif" font-size="10.00">BitVector::currentElement</text>
<text text-anchor="middle" x="809" y="-207.3" font-family="Helvetica,sans-Serif" font-size="10.00">Capacity</text>
</a>
</g>
</g>
<!-- Node5&#45;&gt;Node7 -->
<g id="edge6_Node000005_Node000007" class="edge">
<title>Node5&#45;&gt;Node7</title>
<g id="a_edge6_Node000005_Node000007"><a xlink:title=" ">
<path fill="none" stroke="#63b8ff" d="M924.67,-215.3C909.89,-215.3 894.63,-215.3 880.24,-215.3"/>
<polygon fill="#63b8ff" stroke="#63b8ff" points="924.8,-218.8 934.8,-215.3 924.8,-211.8 924.8,-218.8"/>
</a>
</g>
</g>
<!-- Node8 -->
<g id="Node000008" class="node">
<title>Node8</title>
<g id="a_Node000008"><a xlink:href="class_bit_vector.html#ad60f42244db2c82260326605916431d3" target="_top" xlink:title="Modify the number of known element in this object.">
<polygon fill="white" stroke="#666666" points="701,-227.8 540,-227.8 540,-208.8 701,-208.8 701,-227.8"/>
<text text-anchor="middle" x="620.5" y="-215.8" font-family="Helvetica,sans-Serif" font-size="10.00">BitVector::setElementNumber</text>
</a>
</g>
</g>
<!-- Node7&#45;&gt;Node8 -->
<g id="edge7_Node000007_Node000008" class="edge">
<title>Node7&#45;&gt;Node8</title>
<g id="a_edge7_Node000007_Node000008"><a xlink:title=" ">
<path fill="none" stroke="#63b8ff" d="M727.54,-216.6C718.76,-216.74 709.83,-216.88 701.06,-217.02"/>
<polygon fill="#63b8ff" stroke="#63b8ff" points="727.82,-220.09 737.76,-216.43 727.7,-213.09 727.82,-220.09"/>
</a>
</g>
</g>
<!-- Node9 -->
<g id="Node000009" class="node">
<title>Node9</title>
<g id="a_Node000009"><a xlink:href="class_bit_vector.html#a87f84edf5dd56606b26e8741ba6ced02" target="_top" xlink:title="Remove a number of element from the vector.">
<polygon fill="white" stroke="#666666" points="476.5,-274.8 372.5,-274.8 372.5,-255.8 476.5,-255.8 476.5,-274.8"/>
<text text-anchor="middle" x="424.5" y="-262.8" font-family="Helvetica,sans-Serif" font-size="10.00">BitVector::remove</text>
</a>
</g>
</g>
<!-- Node8&#45;&gt;Node9 -->
<g id="edge8_Node000008_Node000009" class="edge">
<title>Node8&#45;&gt;Node9</title>
<g id="a_edge8_Node000008_Node000009"><a xlink:title=" ">
<path fill="none" stroke="#63b8ff" d="M570.45,-230.19C537.81,-238.09 495.51,-248.34 465.03,-255.73"/>
<polygon fill="#63b8ff" stroke="#63b8ff" points="571.35,-233.57 580.24,-227.81 569.7,-226.77 571.35,-233.57"/>
</a>
</g>
</g>
<!-- Node11 -->
<g id="Node000011" class="node">
<title>Node11</title>
<g id="a_Node000011"><a xlink:href="class_bit_vector.html#a93ab8bc2ec39bf299ae28ffcad504b41" target="_top" xlink:title="Give the coords of the first bit of an element.">
<polygon fill="white" stroke="#666666" points="876,-348.8 742,-348.8 742,-329.8 876,-329.8 876,-348.8"/>
<text text-anchor="middle" x="809" y="-336.8" font-family="Helvetica,sans-Serif" font-size="10.00">BitVector::indexElement</text>
</a>
</g>
</g>
<!-- Node10&#45;&gt;Node11 -->
<g id="edge10_Node000010_Node000011" class="edge">
<title>Node10&#45;&gt;Node11</title>
<g id="a_edge10_Node000010_Node000011"><a xlink:title=" ">
<path fill="none" stroke="#63b8ff" d="M906.55,-339.3C896.26,-339.3 885.99,-339.3 876.21,-339.3"/>
<polygon fill="#63b8ff" stroke="#63b8ff" points="906.84,-342.8 916.84,-339.3 906.84,-335.8 906.84,-342.8"/>
</a>
</g>
</g>
<!-- Node11&#45;&gt;Node2 -->
<g id="edge11_Node000011_Node000002" class="edge">
<title>Node11&#45;&gt;Node2</title>
<g id="a_edge11_Node000011_Node000002"><a xlink:title=" ">
<path fill="none" stroke="#63b8ff" d="M755.9,-351.03C726.22,-357.72 689.58,-365.97 662.05,-372.17"/>
<polygon fill="#63b8ff" stroke="#63b8ff" points="756.69,-354.44 765.68,-348.83 755.16,-347.62 756.69,-354.44"/>
</a>
</g>
</g>
<!-- Node11&#45;&gt;Node12 -->
<g id="edge12_Node000011_Node000012" class="edge">
<title>Node11&#45;&gt;Node12</title>
<g id="a_edge12_Node000011_Node000012"><a xlink:title=" ">
<path fill="none" stroke="#63b8ff" d="M731.92,-341.34C710.51,-341.92 687.85,-342.52 668.67,-343.04"/>
<polygon fill="#63b8ff" stroke="#63b8ff" points="732.08,-344.84 741.98,-341.07 731.89,-337.84 732.08,-344.84"/>
</a>
</g>
</g>
<!-- Node11&#45;&gt;Node16 -->
<g id="edge16_Node000011_Node000016" class="edge">
<title>Node11&#45;&gt;Node16</title>
<g id="a_edge16_Node000011_Node000016"><a xlink:title=" ">
<path fill="none" stroke="#63b8ff" d="M743.2,-324.45C741,-322.9 738.92,-321.19 737,-319.3 697.3,-280.26 728.75,-247.58 701,-199.3 682.87,-167.77 650.93,-138.56 633.57,-123.99"/>
<polygon fill="#63b8ff" stroke="#63b8ff" points="741.83,-327.7 752.23,-329.68 745.34,-321.64 741.83,-327.7"/>
</a>
</g>
</g>
<!-- Node13 -->
<g id="Node000013" class="node">
<title>Node13</title>
<g id="a_Node000013"><a xlink:href="class_bit_vector.html#a23c1685317944b2a5c6f149a5fccc6bd" target="_top" xlink:title="Construct a new Bit Vector object.">
<polygon fill="white" stroke="#666666" points="480,-351.8 369,-351.8 369,-332.8 480,-332.8 480,-351.8"/>
<text text-anchor="middle" x="424.5" y="-339.8" font-family="Helvetica,sans-Serif" font-size="10.00">BitVector::BitVector</text>
</a>
</g>
</g>
<!-- Node12&#45;&gt;Node13 -->
<g id="edge13_Node000012_Node000013" class="edge">
<title>Node12&#45;&gt;Node13</title>
<g id="a_edge13_Node000012_Node000013"><a xlink:title=" ">
<path fill="none" stroke="#63b8ff" d="M561.98,-343.71C536.05,-343.44 505.58,-343.13 480.02,-342.86"/>
<polygon fill="#63b8ff" stroke="#63b8ff" points="562.01,-347.21 572.04,-343.81 562.08,-340.21 562.01,-347.21"/>
</a>
</g>
</g>
<!-- Node14 -->
<g id="Node000014" class="node">
<title>Node14</title>
<g id="a_Node000014"><a xlink:href="class_bit_vector.html#a673b530bb6e520f7f7fa90070e0034db" target="_top" xlink:title="Free memory used by BitVector::_data.">
<polygon fill="white" stroke="#666666" points="470,-388.8 379,-388.8 379,-369.8 470,-369.8 470,-388.8"/>
<text text-anchor="middle" x="424.5" y="-376.8" font-family="Helvetica,sans-Serif" font-size="10.00">BitVector::clear</text>
</a>
</g>
</g>
<!-- Node12&#45;&gt;Node14 -->
<g id="edge14_Node000012_Node000014" class="edge">
<title>Node12&#45;&gt;Node14</title>
<g id="a_edge14_Node000012_Node000014"><a xlink:title=" ">
<path fill="none" stroke="#63b8ff" d="M561.92,-354.69C532.57,-359.99 497.41,-366.33 470.14,-371.25"/>
<polygon fill="#63b8ff" stroke="#63b8ff" points="562.82,-358.08 572.04,-352.86 561.58,-351.2 562.82,-358.08"/>
</a>
</g>
</g>
<!-- Node12&#45;&gt;Node15 -->
<g id="edge15_Node000012_Node000015" class="edge">
<title>Node12&#45;&gt;Node15</title>
<g id="a_edge15_Node000012_Node000015"><a xlink:title=" ">
<path fill="none" stroke="#63b8ff" d="M562.82,-352.98C554.89,-355.37 547.05,-358.42 540,-362.3 520.19,-373.23 523.67,-387.11 504,-398.3 494.59,-403.66 483.74,-407.6 473.16,-410.5"/>
<polygon fill="#63b8ff" stroke="#63b8ff" points="563.75,-356.35 572.5,-350.38 561.93,-349.59 563.75,-356.35"/>
</a>
</g>
</g>
<!-- Node16&#45;&gt;Node9 -->
<g id="edge27_Node000016_Node000009" class="edge">
<title>Node16&#45;&gt;Node9</title>
<g id="a_edge27_Node000016_Node000009"><a xlink:title=" ">
<path fill="none" stroke="#63b8ff" d="M602.87,-131.64C586.63,-148.67 561.31,-175.5 540,-199.3 523.6,-217.62 524.57,-227.84 504,-241.3 494.46,-247.55 483.22,-252.23 472.27,-255.72"/>
<polygon fill="#63b8ff" stroke="#63b8ff" points="605.68,-133.77 610.06,-124.12 600.62,-128.93 605.68,-133.77"/>
</a>
</g>
</g>
<!-- Node17 -->
<g id="Node000017" class="node">
<title>Node17</title>
<g id="a_Node000017"><a xlink:href="class_bit_vector.html#afbdbe8a5003f5941ffd5ab095cf87d88" target="_top" xlink:title="Add an element at the end of the vector.">
<polygon fill="white" stroke="#666666" points="476,-160.8 373,-160.8 373,-141.8 476,-141.8 476,-160.8"/>
<text text-anchor="middle" x="424.5" y="-148.8" font-family="Helvetica,sans-Serif" font-size="10.00">BitVector::append</text>
</a>
</g>
</g>
<!-- Node16&#45;&gt;Node17 -->
<g id="edge17_Node000016_Node000017" class="edge">
<title>Node16&#45;&gt;Node17</title>
<g id="a_edge17_Node000016_Node000017"><a xlink:title=" ">
<path fill="none" stroke="#63b8ff" d="M569.44,-123.85C540.61,-129.35 504.5,-136.24 475.66,-141.74"/>
<polygon fill="#63b8ff" stroke="#63b8ff" points="570.14,-127.28 579.3,-121.97 568.82,-120.4 570.14,-127.28"/>
</a>
</g>
</g>
<!-- Node18 -->
<g id="Node000018" class="node">
<title>Node18</title>
<g id="a_Node000018"><a xlink:href="class_bit_vector.html#a5547d55a697d61de026d0a94e743624b" target="_top" xlink:title="Construct a new Bit Vector object.">
<polygon fill="white" stroke="#666666" points="275.5,-179.8 164.5,-179.8 164.5,-160.8 275.5,-160.8 275.5,-179.8"/>
<text text-anchor="middle" x="220" y="-167.8" font-family="Helvetica,sans-Serif" font-size="10.00">BitVector::BitVector</text>
</a>
</g>
</g>
<!-- Node16&#45;&gt;Node18 -->
<g id="edge23_Node000016_Node000018" class="edge">
<title>Node16&#45;&gt;Node18</title>
<g id="a_edge23_Node000016_Node000018"><a xlink:title=" ">
<path fill="none" stroke="#63b8ff" d="M596.13,-129.24C573.57,-142.72 537.92,-161.58 504,-169.3 426.15,-187.04 333.11,-182.66 275.52,-177.1"/>
<polygon fill="#63b8ff" stroke="#63b8ff" points="598.25,-132.04 604.96,-123.84 594.6,-126.07 598.25,-132.04"/>
</a>
</g>
</g>
<!-- Node19 -->
<g id="Node000019" class="node">
<title>Node19</title>
<g id="a_Node000019"><a xlink:href="class_bit_vector.html#a686af396e4dff1536b7588213726c4cc" target="_top" xlink:title="Insert a number of blank position inside BitVector::_data.">
<polygon fill="white" stroke="#666666" points="309,-48.8 131,-48.8 131,-29.8 309,-29.8 309,-48.8"/>
<text text-anchor="middle" x="220" y="-36.8" font-family="Helvetica,sans-Serif" font-size="10.00">BitVector::makeRoomForElement</text>
</a>
</g>
</g>
<!-- Node16&#45;&gt;Node19 -->
<g id="edge26_Node000016_Node000019" class="edge">
<title>Node16&#45;&gt;Node19</title>
<g id="a_edge26_Node000016_Node000019"><a xlink:title=" ">
<path fill="none" stroke="#63b8ff" d="M595.97,-99.54C573.34,-86.17 537.7,-67.24 504,-58.3 440.22,-41.39 365.67,-36.97 309.1,-36.61"/>
<polygon fill="#63b8ff" stroke="#63b8ff" points="594.17,-102.54 604.54,-104.71 597.79,-96.55 594.17,-102.54"/>
</a>
</g>
</g>
<!-- Node20 -->
<g id="Node000020" class="node">
<title>Node20</title>
<g id="a_Node000020"><a xlink:href="class_bit_vector.html#a9f86c96c013632abd9d18feafe78d72e" target="_top" xlink:title="Insert a number_of_elements inside the vector at the index pos .">
<polygon fill="white" stroke="#666666" points="95,-29.8 0,-29.8 0,-10.8 95,-10.8 95,-29.8"/>
<text text-anchor="middle" x="47.5" y="-17.8" font-family="Helvetica,sans-Serif" font-size="10.00">BitVector::insert</text>
</a>
</g>
</g>
<!-- Node16&#45;&gt;Node20 -->
<g id="edge24_Node000016_Node000020" class="edge">
<title>Node16&#45;&gt;Node20</title>
<g id="a_edge24_Node000016_Node000020"><a xlink:title=" ">
<path fill="none" stroke="#63b8ff" d="M602.21,-97.78C580.99,-78.66 543,-48.04 504,-34.3 362.03,15.71 179.51,-0.88 95.11,-12.7"/>
<polygon fill="#63b8ff" stroke="#63b8ff" points="600.01,-100.51 609.74,-104.72 604.76,-95.37 600.01,-100.51"/>
</a>
</g>
</g>
<!-- Node21 -->
<g id="Node000021" class="node">
<title>Node21</title>
<g id="a_Node000021"><a xlink:href="class_bit_vector.html#a915743b3f94c75c22317d160bfa741ff" target="_top" xlink:title="Insert a number_of_elements inside the vector at the index pos .">
<polygon fill="white" stroke="#666666" points="95,-66.8 0,-66.8 0,-47.8 95,-47.8 95,-66.8"/>
<text text-anchor="middle" x="47.5" y="-54.8" font-family="Helvetica,sans-Serif" font-size="10.00">BitVector::insert</text>
</a>
</g>
</g>
<!-- Node16&#45;&gt;Node21 -->
<g id="edge25_Node000016_Node000021" class="edge">
<title>Node16&#45;&gt;Node21</title>
<g id="a_edge25_Node000016_Node000021"><a xlink:title=" ">
<path fill="none" stroke="#63b8ff" d="M601.87,-130.76C580.58,-149.4 542.77,-178.69 504,-190.3 473.38,-199.47 147.16,-197.32 131,-188.3 82.42,-161.19 58.46,-92.27 51.07,-66.88"/>
<polygon fill="#63b8ff" stroke="#63b8ff" points="604.33,-133.25 609.44,-123.97 599.66,-128.04 604.33,-133.25"/>
</a>
</g>
</g>
<!-- Node22 -->
<g id="Node000022" class="node">
<title>Node22</title>
<g id="a_Node000022"><a xlink:href="class_bit_vector.html#a2af5c1a1a0050e2b52d06c38436280fd" target="_top" xlink:title="Add an element at the end of the vector.">
<polygon fill="white" stroke="#666666" points="476,-123.8 373,-123.8 373,-104.8 476,-104.8 476,-123.8"/>
<text text-anchor="middle" x="424.5" y="-111.8" font-family="Helvetica,sans-Serif" font-size="10.00">BitVector::append</text>
</a>
</g>
</g>
<!-- Node16&#45;&gt;Node22 -->
<g id="edge22_Node000016_Node000022" class="edge">
<title>Node16&#45;&gt;Node22</title>
<g id="a_edge22_Node000016_Node000022"><a xlink:title=" ">
<path fill="none" stroke="#63b8ff" d="M569.1,-114.3C540.45,-114.3 504.68,-114.3 476.02,-114.3"/>
<polygon fill="#63b8ff" stroke="#63b8ff" points="569.3,-117.8 579.3,-114.3 569.3,-110.8 569.3,-117.8"/>
</a>
</g>
</g>
<!-- Node23 -->
<g id="Node000023" class="node">
<title>Node23</title>
<g id="a_Node000023"><a xlink:href="class_bit_vector.html#a38e8be69974c874857dd7cb6a52429ac" target="_top" xlink:title="Replace an element by another element. Can add an element to the list if index = BitVector::_element_...">
<polygon fill="white" stroke="#666666" points="465.5,-86.8 383.5,-86.8 383.5,-67.8 465.5,-67.8 465.5,-86.8"/>
<text text-anchor="middle" x="424.5" y="-74.8" font-family="Helvetica,sans-Serif" font-size="10.00">BitVector::set</text>
</a>
</g>
</g>
<!-- Node16&#45;&gt;Node23 -->
<g id="edge28_Node000016_Node000023" class="edge">
<title>Node16&#45;&gt;Node23</title>
<g id="a_edge28_Node000016_Node000023"><a xlink:title=" ">
<path fill="none" stroke="#63b8ff" d="M569.18,-104.71C536.94,-98.56 495.68,-90.69 465.65,-84.96"/>
<polygon fill="#63b8ff" stroke="#63b8ff" points="568.82,-108.2 579.3,-106.64 570.14,-101.32 568.82,-108.2"/>
</a>
</g>
</g>
<!-- Node17&#45;&gt;Node18 -->
<g id="edge18_Node000017_Node000018" class="edge">
<title>Node17&#45;&gt;Node18</title>
<g id="a_edge18_Node000017_Node000018"><a xlink:title=" ">
<path fill="none" stroke="#63b8ff" d="M362.94,-156.99C335.18,-159.59 302.53,-162.65 275.54,-165.19"/>
<polygon fill="#63b8ff" stroke="#63b8ff" points="363.29,-160.47 372.92,-156.05 362.64,-153.5 363.29,-160.47"/>
</a>
</g>
</g>
<!-- Node17&#45;&gt;Node19 -->
<g id="edge19_Node000017_Node000019" class="edge">
<title>Node17&#45;&gt;Node19</title>
<g id="a_edge19_Node000017_Node000019"><a xlink:title=" ">
<path fill="none" stroke="#63b8ff" d="M362.9,-139.29C356.73,-137.29 350.66,-134.97 345,-132.3 297.53,-109.93 250.43,-67.68 230.68,-48.82"/>
<polygon fill="#63b8ff" stroke="#63b8ff" points="362.04,-142.69 372.63,-142.19 364.04,-135.98 362.04,-142.69"/>
</a>
</g>
</g>
<!-- Node19&#45;&gt;Node20 -->
<g id="edge20_Node000019_Node000020" class="edge">
<title>Node19&#45;&gt;Node20</title>
<g id="a_edge20_Node000019_Node000020"><a xlink:title=" ">
<path fill="none" stroke="#63b8ff" d="M123.14,-28.62C113.48,-27.54 104.01,-26.49 95.23,-25.51"/>
<polygon fill="#63b8ff" stroke="#63b8ff" points="122.92,-32.12 133.25,-29.75 123.7,-25.16 122.92,-32.12"/>
</a>
</g>
</g>
<!-- Node19&#45;&gt;Node21 -->
<g id="edge21_Node000019_Node000021" class="edge">
<title>Node19&#45;&gt;Node21</title>
<g id="a_edge21_Node000019_Node000021"><a xlink:title=" ">
<path fill="none" stroke="#63b8ff" d="M120.79,-49.67C112.02,-50.6 103.44,-51.5 95.43,-52.35"/>
<polygon fill="#63b8ff" stroke="#63b8ff" points="121.18,-53.15 130.75,-48.62 120.44,-46.19 121.18,-53.15"/>
</a>
</g>
</g>
<!-- Node24&#45;&gt;Node10 -->
<g id="edge30_Node000024_Node000010" class="edge">
<title>Node24&#45;&gt;Node10</title>
<g id="a_edge30_Node000024_Node000010"><a xlink:title=" ">
<path fill="none" stroke="#63b8ff" d="M1187.1,-277.99C1164.9,-290.53 1131.2,-308.25 1100,-319.3 1088.32,-323.44 1075.48,-326.9 1063.23,-329.71"/>
<polygon fill="#63b8ff" stroke="#63b8ff" points="1188.93,-280.98 1195.86,-272.97 1185.45,-274.91 1188.93,-280.98"/>
</a>
</g>
</g>
<!-- Node24&#45;&gt;Node19 -->
<g id="edge31_Node000024_Node000019" class="edge">
<title>Node24&#45;&gt;Node19</title>
<g id="a_edge31_Node000024_Node000019"><a xlink:title=" ">
<path fill="none" stroke="#63b8ff" d="M1145.94,-249.88C1142.47,-248.23 1139.13,-246.38 1136,-244.3 1113.78,-229.55 1122.06,-211.28 1100,-196.3 872.88,-42.14 776.09,-70.62 504,-34.3 439.1,-25.64 365.09,-27.35 309.03,-30.98"/>
<polygon fill="#63b8ff" stroke="#63b8ff" points="1144.78,-253.19 1155.36,-253.79 1147.46,-246.72 1144.78,-253.19"/>
</a>
</g>
</g>
<!-- Node25 -->
<g id="Node000025" class="node">
<title>Node25</title>
<g id="a_Node000025"><a xlink:href="class_bit_vector.html#a346dbe2e158d2cfda20212e7f93e8402" target="_top" xlink:title="Do maximum BitVector::_element_number is reached (With no possibility to push it further)">
<polygon fill="white" stroke="#666666" points="1083,-273.3 934,-273.3 934,-243.3 1083,-243.3 1083,-273.3"/>
<text text-anchor="start" x="942" y="-261.3" font-family="Helvetica,sans-Serif" font-size="10.00">BitVector::maxElementSize</text>
<text text-anchor="middle" x="1008.5" y="-250.3" font-family="Helvetica,sans-Serif" font-size="10.00">IsReached</text>
</a>
</g>
</g>
<!-- Node24&#45;&gt;Node25 -->
<g id="edge32_Node000024_Node000025" class="edge">
<title>Node24&#45;&gt;Node25</title>
<g id="a_edge32_Node000024_Node000025"><a xlink:title=" ">
<path fill="none" stroke="#63b8ff" d="M1125.51,-261.17C1111.36,-260.82 1096.82,-260.46 1083.02,-260.12"/>
<polygon fill="#63b8ff" stroke="#63b8ff" points="1125.65,-264.67 1135.73,-261.42 1125.82,-257.67 1125.65,-264.67"/>
</a>
</g>
</g>
<!-- Node24&#45;&gt;Node27 -->
<g id="edge34_Node000024_Node000027" class="edge">
<title>Node24&#45;&gt;Node27</title>
<g id="a_edge34_Node000024_Node000027"><a xlink:title=" ">
<path fill="none" stroke="#63b8ff" d="M1151.15,-274.72C1122.18,-280.16 1087.92,-286.59 1060.36,-291.76"/>
<polygon fill="#63b8ff" stroke="#63b8ff" points="1151.98,-278.13 1161.16,-272.84 1150.69,-271.25 1151.98,-278.13"/>
</a>
</g>
</g>
<!-- Node26 -->
<g id="Node000026" class="node">
<title>Node26</title>
<g id="a_Node000026"><a xlink:href="class_bit_vector.html#a87e099aba27ebb0f67c07dd8314828e7" target="_top" xlink:title="Do maximum capacity is reached (With no possibility to push it further)">
<polygon fill="white" stroke="#666666" points="504,-311.8 345,-311.8 345,-292.8 504,-292.8 504,-311.8"/>
<text text-anchor="middle" x="424.5" y="-299.8" font-family="Helvetica,sans-Serif" font-size="10.00">BitVector::maxSizeIsReached</text>
</a>
</g>
</g>
<!-- Node25&#45;&gt;Node26 -->
<g id="edge33_Node000025_Node000026" class="edge">
<title>Node25&#45;&gt;Node26</title>
<g id="a_edge33_Node000025_Node000026"><a xlink:title=" ">
<path fill="none" stroke="#63b8ff" d="M923.89,-257.32C830.06,-257.24 673.51,-260.15 540,-277.3 525.82,-279.12 492.72,-286.48 465.73,-292.74"/>
<polygon fill="#63b8ff" stroke="#63b8ff" points="923.88,-260.82 933.89,-257.34 923.89,-253.82 923.88,-260.82"/>
</a>
</g>
</g>
<!-- Node28 -->
<g id="Node000028" class="node">
<title>Node28</title>
<g id="a_Node000028"><a xlink:href="class_bit_vector.html#acb362f03b29600195996f52c04940439" target="_top" xlink:title="How many octet can be contained in this object knowing BitVector::_element_size.">
<polygon fill="white" stroke="#666666" points="879,-310.8 739,-310.8 739,-291.8 879,-291.8 879,-310.8"/>
<text text-anchor="middle" x="809" y="-298.8" font-family="Helvetica,sans-Serif" font-size="10.00">BitVector::maxOctetLimit</text>
</a>
</g>
</g>
<!-- Node27&#45;&gt;Node28 -->
<g id="edge35_Node000027_Node000028" class="edge">
<title>Node27&#45;&gt;Node28</title>
<g id="a_edge35_Node000027_Node000028"><a xlink:title=" ">
<path fill="none" stroke="#63b8ff" d="M916.83,-301.3C904.22,-301.3 891.43,-301.3 879.29,-301.3"/>
<polygon fill="#63b8ff" stroke="#63b8ff" points="916.88,-304.8 926.88,-301.3 916.88,-297.8 916.88,-304.8"/>
</a>
</g>
</g>
<!-- Node28&#45;&gt;Node12 -->
<g id="edge38_Node000028_Node000012" class="edge">
<title>Node28&#45;&gt;Node12</title>
<g id="a_edge38_Node000028_Node000012"><a xlink:title=" ">
<path fill="none" stroke="#63b8ff" d="M756.48,-313.18C726.96,-319.99 690.4,-328.42 662.77,-334.79"/>
<polygon fill="#63b8ff" stroke="#63b8ff" points="757.65,-316.5 766.61,-310.85 756.08,-309.68 757.65,-316.5"/>
</a>
</g>
</g>
<!-- Node29 -->
<g id="Node000029" class="node">
<title>Node29</title>
<g id="a_Node000029"><a xlink:href="class_bit_vector.html#a00aeec5e60b478d74e1540f34f46e37c" target="_top" xlink:title="Do maximum BitVector::_data_size is reached (With no possibility to push it further)">
<polygon fill="white" stroke="#666666" points="690.5,-316.3 550.5,-316.3 550.5,-286.3 690.5,-286.3 690.5,-316.3"/>
<text text-anchor="start" x="558.5" y="-304.3" font-family="Helvetica,sans-Serif" font-size="10.00">BitVector::maxDataSizeIs</text>
<text text-anchor="middle" x="620.5" y="-293.3" font-family="Helvetica,sans-Serif" font-size="10.00">Reached</text>
</a>
</g>
</g>
<!-- Node28&#45;&gt;Node29 -->
<g id="edge36_Node000028_Node000029" class="edge">
<title>Node28&#45;&gt;Node29</title>
<g id="a_edge36_Node000028_Node000029"><a xlink:title=" ">
<path fill="none" stroke="#63b8ff" d="M728.74,-301.3C716.04,-301.3 703,-301.3 690.57,-301.3"/>
<polygon fill="#63b8ff" stroke="#63b8ff" points="728.82,-304.8 738.82,-301.3 728.82,-297.8 728.82,-304.8"/>
</a>
</g>
</g>
<!-- Node29&#45;&gt;Node26 -->
<g id="edge37_Node000029_Node000026" class="edge">
<title>Node29&#45;&gt;Node26</title>
<g id="a_edge37_Node000029_Node000026"><a xlink:title=" ">
<path fill="none" stroke="#63b8ff" d="M540.02,-301.71C528.22,-301.77 516.06,-301.84 504.27,-301.9"/>
<polygon fill="#63b8ff" stroke="#63b8ff" points="540.3,-305.21 550.28,-301.66 540.27,-298.21 540.3,-305.21"/>
</a>
</g>
</g>
<!-- Node30&#45;&gt;Node16 -->
<g id="edge45_Node000030_Node000016" class="edge">
<title>Node30&#45;&gt;Node16</title>
<g id="a_edge45_Node000030_Node000016"><a xlink:title=" ">
<path fill="none" stroke="#63b8ff" d="M1350.47,-143.97C1333.75,-135.57 1311.24,-125.77 1290,-121.3 1056.31,-72.14 766.44,-97.48 661.65,-109.32"/>
<polygon fill="#63b8ff" stroke="#63b8ff" points="1349.11,-147.2 1359.6,-148.69 1352.33,-140.99 1349.11,-147.2"/>
</a>
</g>
</g>
<!-- Node31 -->
<g id="Node000031" class="node">
<title>Node31</title>
<g id="a_Node000031"><a xlink:href="class_bit_vector.html#a0608b1bfe67ad7972903a602eb42e404" target="_top" xlink:title="Give an iterator to end an iteration.">
<polygon fill="white" stroke="#666666" points="1255.5,-186.8 1170.5,-186.8 1170.5,-167.8 1255.5,-167.8 1255.5,-186.8"/>
<text text-anchor="middle" x="1213" y="-174.8" font-family="Helvetica,sans-Serif" font-size="10.00">BitVector::end</text>
</a>
</g>
</g>
<!-- Node30&#45;&gt;Node31 -->
<g id="edge43_Node000030_Node000031" class="edge">
<title>Node30&#45;&gt;Node31</title>
<g id="a_edge43_Node000030_Node000031"><a xlink:title=" ">
<path fill="none" stroke="#63b8ff" d="M1316.38,-165.33C1296.21,-167.69 1274.17,-170.27 1255.72,-172.42"/>
<polygon fill="#63b8ff" stroke="#63b8ff" points="1316.89,-168.8 1326.42,-164.16 1316.08,-161.84 1316.89,-168.8"/>
</a>
</g>
</g>
<!-- Node32 -->
<g id="Node000032" class="node">
<title>Node32</title>
<g id="a_Node000032"><a xlink:href="class_bit_vector.html#a9c63a7f853693a19595fa92d487f92b5" target="_top" xlink:title="Modify a bit inside BitVector::_data.">
<polygon fill="white" stroke="#666666" points="1254,-149.8 1172,-149.8 1172,-130.8 1254,-130.8 1254,-149.8"/>
<text text-anchor="middle" x="1213" y="-137.8" font-family="Helvetica,sans-Serif" font-size="10.00">BitVector::set</text>
</a>
</g>
</g>
<!-- Node30&#45;&gt;Node32 -->
<g id="edge44_Node000030_Node000032" class="edge">
<title>Node30&#45;&gt;Node32</title>
<g id="a_edge44_Node000030_Node000032"><a xlink:title=" ">
<path fill="none" stroke="#63b8ff" d="M1316.41,-151.65C1295.65,-149.35 1272.9,-146.83 1254.13,-144.75"/>
<polygon fill="#63b8ff" stroke="#63b8ff" points="1316.09,-155.13 1326.42,-152.76 1316.86,-148.18 1316.09,-155.13"/>
</a>
</g>
</g>
</g>
</svg>

<g id="navigator" transform="translate(0 0)" fill="#404254">
  <rect fill="#f2f5e9" fill-opacity="0.5" stroke="#606060" stroke-width=".5" x="0" y="0" width="60" height="60"/>
  <use id="zoomplus" xlink:href="#zoomPlus" x="17" y="9" onmousedown="handleZoom(evt,'in')"/>
  <use id="zoomminus" xlink:href="#zoomMin" x="42" y="9" onmousedown="handleZoom(evt,'out')"/>
  <use id="reset" xlink:href="#resetDef" x="30" y="36" onmousedown="handleReset()"/>
   <use id="arrowup" xlink:href="#arrowUp" x="0" y="0" onmousedown="handlePan(0,-1)"/>
  <use id="arrowright" xlink:href="#arrowRight" x="0" y="0" onmousedown="handlePan(1,0)"/>
  <use id="arrowdown" xlink:href="#arrowDown" x="0" y="0" onmousedown="handlePan(0,1)"/>
  <use id="arrowleft" xlink:href="#arrowLeft" x="0" y="0" onmousedown="handlePan(-1,0)"/>
</g>
<svg viewBox="0 0 15 15" width="100%" height="30px" preserveAspectRatio="xMaxYMin meet">
 <g id="arrow_out" transform="scale(0.3 0.3)">
  <a xlink:href="class_bit_vector_a115789c8a9812eabb52f8843cd4e9965_icgraph_org.svg" target="_base">
   <rect id="button" ry="5" rx="5" y="6" x="6" height="38" width="38"
        fill="#f2f5e9" fill-opacity="0.5" stroke="#606060" stroke-width="1.0"/>
   <path id="arrow"
     d="M 11.500037,31.436501 C 11.940474,20.09759 22.043105,11.32322 32.158766,21.979434 L 37.068811,17.246167 C 37.068811,17.246167 37.088388,32 37.088388,32 L 22.160133,31.978069 C 22.160133,31.978069 26.997745,27.140456 26.997745,27.140456 C 18.528582,18.264221 13.291696,25.230495 11.500037,31.436501 z"
     style="fill:#404040;"/>
  </a>
 </g>
</svg>

<style type='text/css'>
<![CDATA[
[data-mouse-over-selected='false'] { opacity: 0.7; }
[data-mouse-over-selected='true']  { opacity: 1.0; }
]]>
</style>
<script type="application/ecmascript"><![CDATA[
document.addEventListener('DOMContentLoaded', (event) => {
  highlightEdges();
  highlightAdjacentNodes();
});
]]></script>
</svg>
