<?xml version="1.0" encoding="UTF-8" standalone="no"?>
<!DOCTYPE svg PUBLIC "-//W3C//DTD SVG 1.1//EN"
 "http://www.w3.org/Graphics/SVG/1.1/DTD/svg11.dtd">
<!-- Generated by graphviz version 2.43.0 (0)
 -->
<!-- Title: BitVector::BitVector Pages: 1 -->
<svg width="1510pt" height="430pt"
 viewBox="0.00 0.00 1510.00 429.89" xmlns="http://www.w3.org/2000/svg" xmlns:xlink="http://www.w3.org/1999/xlink">
<g id="graph0" class="graph" transform="scale(1 1) rotate(0) translate(4 425.89)">
<title>BitVector::BitVector</title>
<!-- Node1 -->
<g id="Node000001" class="node">
<title>Node1</title>
<g id="a_Node000001"><a xlink:title="Construct a new Bit Vector object.">
<polygon fill="#999999" stroke="#666666" points="111,-351.5 0,-351.5 0,-332.5 111,-332.5 111,-351.5"/>
<text text-anchor="middle" x="55.5" y="-339.5" font-family="Helvetica,sans-Serif" font-size="10.00">BitVector::BitVector</text>
</a>
</g>
</g>
<!-- Node2 -->
<g id="Node000002" class="node">
<title>Node2</title>
<g id="a_Node000002"><a xlink:href="class_bit_vector.html#aebe159444eb9d619959b7325ac5dac2d" target="_top" xlink:title="Return the value of the bit at the position coord.">
<polygon fill="white" stroke="#666666" points="1359,-256.5 1276,-256.5 1276,-237.5 1359,-237.5 1359,-256.5"/>
<text text-anchor="middle" x="1317.5" y="-244.5" font-family="Helvetica,sans-Serif" font-size="10.00">BitVector::get</text>
</a>
</g>
</g>
<!-- Node1&#45;&gt;Node2 -->
<g id="edge1_Node000001_Node000002" class="edge">
<title>Node1&#45;&gt;Node2</title>
<g id="a_edge1_Node000001_Node000002"><a xlink:title=" ">
<path fill="none" stroke="#63b8ff" d="M77.94,-351.63C125.51,-372.08 243.92,-418 348,-418 348,-418 348,-418 752,-418 971.71,-418 1049.2,-447.94 1240,-339 1270.5,-321.58 1294.09,-287.03 1306.58,-265.58"/>
<polygon fill="#63b8ff" stroke="#63b8ff" points="1309.69,-267.19 1311.53,-256.76 1303.59,-263.77 1309.69,-267.19"/>
</a>
</g>
</g>
<!-- Node4 -->
<g id="Node000004" class="node">
<title>Node4</title>
<g id="a_Node000004"><a xlink:href="class_bit_vector.html#a13856f33d2350c573cf2fbe587f03757" target="_top" xlink:title="Modify the length of BitVector::_data.">
<polygon fill="white" stroke="#666666" points="243,-294.5 147,-294.5 147,-275.5 243,-275.5 243,-294.5"/>
<text text-anchor="middle" x="195" y="-282.5" font-family="Helvetica,sans-Serif" font-size="10.00">BitVector::resize</text>
</a>
</g>
</g>
<!-- Node1&#45;&gt;Node4 -->
<g id="edge4_Node000001_Node000004" class="edge">
<title>Node1&#45;&gt;Node4</title>
<g id="a_edge4_Node000001_Node000004"><a xlink:title=" ">
<path fill="none" stroke="#63b8ff" d="M79.51,-332.46C101.92,-323.17 136.19,-308.96 161.4,-298.51"/>
<polygon fill="#63b8ff" stroke="#63b8ff" points="163.01,-301.63 170.91,-294.57 160.33,-295.17 163.01,-301.63"/>
</a>
</g>
</g>
<!-- Node2&#45;&gt;Node2 -->
<g id="edge2_Node000002_Node000002" class="edge">
<title>Node2&#45;&gt;Node2</title>
<g id="a_edge2_Node000002_Node000002"><a xlink:title=" ">
<path fill="none" stroke="#63b8ff" d="M1297.46,-256.58C1287.72,-265.23 1294.39,-274.5 1317.5,-274.5 1332.3,-274.5 1340.36,-270.7 1341.68,-265.69"/>
<polygon fill="#63b8ff" stroke="#63b8ff" points="1344.86,-264.23 1337.54,-256.58 1338.49,-267.13 1344.86,-264.23"/>
</a>
</g>
</g>
<!-- Node3 -->
<g id="Node000003" class="node">
<title>Node3</title>
<g id="a_Node000003"><a xlink:href="class_bit_vector_1_1_coords.html#a2892f7f46c4af93f9733e312229d8ec1" target="_top" xlink:title="Get Coords::octet .">
<polygon fill="white" stroke="#666666" points="1502,-262 1395,-262 1395,-232 1502,-232 1502,-262"/>
<text text-anchor="start" x="1403" y="-250" font-family="Helvetica,sans-Serif" font-size="10.00">BitVector::Coords::</text>
<text text-anchor="middle" x="1448.5" y="-239" font-family="Helvetica,sans-Serif" font-size="10.00">getOctet</text>
</a>
</g>
</g>
<!-- Node2&#45;&gt;Node3 -->
<g id="edge3_Node000002_Node000003" class="edge">
<title>Node2&#45;&gt;Node3</title>
<g id="a_edge3_Node000002_Node000003"><a xlink:title=" ">
<path fill="none" stroke="#63b8ff" d="M1359.32,-247C1367.38,-247 1376.02,-247 1384.62,-247"/>
<polygon fill="#63b8ff" stroke="#63b8ff" points="1384.66,-250.5 1394.66,-247 1384.66,-243.5 1384.66,-250.5"/>
</a>
</g>
</g>
<!-- Node4&#45;&gt;Node2 -->
<g id="edge7_Node000004_Node000002" class="edge">
<title>Node4&#45;&gt;Node2</title>
<g id="a_edge7_Node000004_Node000002"><a xlink:title=" ">
<path fill="none" stroke="#63b8ff" d="M230.91,-294.54C293.47,-310.77 429,-342 545.5,-342 545.5,-342 545.5,-342 956,-342 1083.23,-342 1122.4,-354.55 1240,-306 1263.28,-296.39 1285.58,-277.75 1300.03,-263.98"/>
<polygon fill="#63b8ff" stroke="#63b8ff" points="1302.53,-266.43 1307.21,-256.92 1297.62,-261.44 1302.53,-266.43"/>
</a>
</g>
</g>
<!-- Node4&#45;&gt;Node3 -->
<g id="edge8_Node000004_Node000003" class="edge">
<title>Node4&#45;&gt;Node3</title>
<g id="a_edge8_Node000004_Node000003"><a xlink:title=" ">
<path fill="none" stroke="#63b8ff" d="M209.08,-294.53C224.86,-305.53 252.57,-323.37 279,-333 392,-374.18 425.23,-380 545.5,-380 545.5,-380 545.5,-380 752,-380 969.65,-380 1029.24,-393.35 1240,-339 1303.54,-322.61 1372.22,-288.62 1412.46,-266.85"/>
<polygon fill="#63b8ff" stroke="#63b8ff" points="1414.24,-269.87 1421.34,-262 1410.88,-263.73 1414.24,-269.87"/>
</a>
</g>
</g>
<!-- Node5 -->
<g id="Node000005" class="node">
<title>Node5</title>
<g id="a_Node000005"><a xlink:href="class_bit_vector.html#aece011ed1a0d697e5f777a7c2e147fcd" target="_top" xlink:title="Free memory used by BitVector::_data.">
<polygon fill="white" stroke="#666666" points="825,-313.5 677,-313.5 677,-294.5 825,-294.5 825,-313.5"/>
<text text-anchor="middle" x="751" y="-301.5" font-family="Helvetica,sans-Serif" font-size="10.00">BitVector::_killInternalData</text>
</a>
</g>
</g>
<!-- Node4&#45;&gt;Node5 -->
<g id="edge5_Node000004_Node000005" class="edge">
<title>Node4&#45;&gt;Node5</title>
<g id="a_edge5_Node000004_Node000005"><a xlink:title=" ">
<path fill="none" stroke="#63b8ff" d="M243.23,-286.62C337.18,-289.84 548.57,-297.09 666.49,-301.14"/>
<polygon fill="#63b8ff" stroke="#63b8ff" points="666.44,-304.64 676.55,-301.48 666.68,-297.64 666.44,-304.64"/>
</a>
</g>
</g>
<!-- Node6 -->
<g id="Node000006" class="node">
<title>Node6</title>
<g id="a_Node000006"><a xlink:href="class_bit_vector.html#af68cda7444ec4459393bbfa423f0a7dd" target="_top" xlink:title="Get the Size_t value if a BitVector::CoordUnit.">
<polygon fill="white" stroke="#666666" points="1006.5,-105 903.5,-105 903.5,-75 1006.5,-75 1006.5,-105"/>
<text text-anchor="start" x="911.5" y="-93" font-family="Helvetica,sans-Serif" font-size="10.00">BitVector::getSize</text>
<text text-anchor="middle" x="955" y="-82" font-family="Helvetica,sans-Serif" font-size="10.00">_tUnit</text>
</a>
</g>
</g>
<!-- Node4&#45;&gt;Node6 -->
<g id="edge9_Node000004_Node000006" class="edge">
<title>Node4&#45;&gt;Node6</title>
<g id="a_edge9_Node000004_Node000006"><a xlink:title=" ">
<path fill="none" stroke="#63b8ff" d="M197.41,-275.13C202.27,-245.02 221.38,-154.1 279,-115 470.08,14.66 766.58,-40.36 893.27,-72.66"/>
<polygon fill="#63b8ff" stroke="#63b8ff" points="892.62,-76.11 903.18,-75.23 894.38,-69.33 892.62,-76.11"/>
</a>
</g>
</g>
<!-- Node9 -->
<g id="Node000009" class="node">
<title>Node9</title>
<g id="a_Node000009"><a xlink:href="class_bit_vector.html#a93ab8bc2ec39bf299ae28ffcad504b41" target="_top" xlink:title="Give the coords of the first bit of an element.">
<polygon fill="white" stroke="#666666" points="416,-237.5 282,-237.5 282,-218.5 416,-218.5 416,-237.5"/>
<text text-anchor="middle" x="349" y="-225.5" font-family="Helvetica,sans-Serif" font-size="10.00">BitVector::indexElement</text>
</a>
</g>
</g>
<!-- Node4&#45;&gt;Node9 -->
<g id="edge13_Node000004_Node000009" class="edge">
<title>Node4&#45;&gt;Node9</title>
<g id="a_edge13_Node000004_Node000009"><a xlink:title=" ">
<path fill="none" stroke="#63b8ff" d="M219.15,-275.48C235.74,-268.74 258.66,-259.58 279,-252 289.09,-248.24 300.07,-244.34 310.25,-240.8"/>
<polygon fill="#63b8ff" stroke="#63b8ff" points="311.39,-244.11 319.7,-237.53 309.11,-237.49 311.39,-244.11"/>
</a>
</g>
</g>
<!-- Node13 -->
<g id="Node000013" class="node">
<title>Node13</title>
<g id="a_Node000013"><a xlink:href="class_bit_vector.html#aa3228d2bacb1bb0f6072d73d43a49456" target="_top" xlink:title="How many octet can be contained in this kind of object.">
<polygon fill="white" stroke="#666666" points="1046,-199.5 864,-199.5 864,-180.5 1046,-180.5 1046,-199.5"/>
<text text-anchor="middle" x="955" y="-187.5" font-family="Helvetica,sans-Serif" font-size="10.00">BitVector::maximumOctetNumber</text>
</a>
</g>
</g>
<!-- Node4&#45;&gt;Node13 -->
<g id="edge24_Node000004_Node000013" class="edge">
<title>Node4&#45;&gt;Node13</title>
<g id="a_edge24_Node000004_Node000013"><a xlink:title=" ">
<path fill="none" stroke="#63b8ff" d="M243.13,-279.09C367.75,-263.47 707.37,-220.91 867.83,-200.8"/>
<polygon fill="#63b8ff" stroke="#63b8ff" points="868.65,-204.22 878.14,-199.51 867.78,-197.28 868.65,-204.22"/>
</a>
</g>
</g>
<!-- Node14 -->
<g id="Node000014" class="node">
<title>Node14</title>
<g id="a_Node000014"><a xlink:href="class_bit_vector.html#acb362f03b29600195996f52c04940439" target="_top" xlink:title="How many octet can be contained in this object knowing BitVector::_element_size.">
<polygon fill="white" stroke="#666666" points="419,-143.5 279,-143.5 279,-124.5 419,-124.5 419,-143.5"/>
<text text-anchor="middle" x="349" y="-131.5" font-family="Helvetica,sans-Serif" font-size="10.00">BitVector::maxOctetLimit</text>
</a>
</g>
</g>
<!-- Node4&#45;&gt;Node14 -->
<g id="edge25_Node000004_Node000014" class="edge">
<title>Node4&#45;&gt;Node14</title>
<g id="a_edge25_Node000004_Node000014"><a xlink:title=" ">
<path fill="none" stroke="#63b8ff" d="M205.97,-275.09C231.42,-249.81 299.02,-182.66 330.9,-150.99"/>
<polygon fill="#63b8ff" stroke="#63b8ff" points="333.56,-153.28 338.19,-143.75 328.63,-148.31 333.56,-153.28"/>
</a>
</g>
</g>
<!-- Node5&#45;&gt;Node2 -->
<g id="edge6_Node000005_Node000002" class="edge">
<title>Node5&#45;&gt;Node2</title>
<g id="a_edge6_Node000005_Node000002"><a xlink:title=" ">
<path fill="none" stroke="#63b8ff" d="M825.05,-308.43C921.46,-312.47 1095.82,-313.49 1240,-280 1257.29,-275.99 1275.57,-268.24 1289.93,-261.26"/>
<polygon fill="#63b8ff" stroke="#63b8ff" points="1291.82,-264.23 1299.19,-256.61 1288.68,-257.97 1291.82,-264.23"/>
</a>
</g>
</g>
<!-- Node7 -->
<g id="Node000007" class="node">
<title>Node7</title>
<g id="a_Node000007"><a xlink:href="class_bit_vector.html#a115789c8a9812eabb52f8843cd4e9965" target="_top" xlink:title="Give the a coord object that represent the size of 1 element inside BitVector::_data.">
<polygon fill="white" stroke="#666666" points="1226.5,-113.5 1095.5,-113.5 1095.5,-94.5 1226.5,-94.5 1226.5,-113.5"/>
<text text-anchor="middle" x="1161" y="-101.5" font-family="Helvetica,sans-Serif" font-size="10.00">BitVector::getCoordUnit</text>
</a>
</g>
</g>
<!-- Node6&#45;&gt;Node7 -->
<g id="edge10_Node000006_Node000007" class="edge">
<title>Node6&#45;&gt;Node7</title>
<g id="a_edge10_Node000006_Node000007"><a xlink:title=" ">
<path fill="none" stroke="#63b8ff" d="M1006.69,-93.48C1030.34,-95.1 1058.96,-97.07 1085.04,-98.86"/>
<polygon fill="#63b8ff" stroke="#63b8ff" points="1085.06,-102.37 1095.27,-99.56 1085.54,-95.38 1085.06,-102.37"/>
</a>
</g>
</g>
<!-- Node8 -->
<g id="Node000008" class="node">
<title>Node8</title>
<g id="a_Node000008"><a xlink:href="class_bit_vector_1_1_coords.html#a3a4fac9de925974af9c8a66a1d0179e6" target="_top" xlink:title="Translate octet and bit value inside a size_t. Allow easier mathematic computations.">
<polygon fill="white" stroke="#666666" points="1214.5,-76 1107.5,-76 1107.5,-46 1214.5,-46 1214.5,-76"/>
<text text-anchor="start" x="1115.5" y="-64" font-family="Helvetica,sans-Serif" font-size="10.00">BitVector::Coords::</text>
<text text-anchor="middle" x="1161" y="-53" font-family="Helvetica,sans-Serif" font-size="10.00">toSize_t</text>
</a>
</g>
</g>
<!-- Node6&#45;&gt;Node8 -->
<g id="edge12_Node000006_Node000008" class="edge">
<title>Node6&#45;&gt;Node8</title>
<g id="a_edge12_Node000006_Node000008"><a xlink:title=" ">
<path fill="none" stroke="#63b8ff" d="M1006.69,-82.79C1034.13,-78.89 1068.28,-74.04 1097.38,-69.9"/>
<polygon fill="#63b8ff" stroke="#63b8ff" points="1098.03,-73.34 1107.44,-68.47 1097.04,-66.41 1098.03,-73.34"/>
</a>
</g>
</g>
<!-- Node7&#45;&gt;Node2 -->
<g id="edge11_Node000007_Node000002" class="edge">
<title>Node7&#45;&gt;Node2</title>
<g id="a_edge11_Node000007_Node000002"><a xlink:title=" ">
<path fill="none" stroke="#63b8ff" d="M1222.48,-113.61C1228.72,-116.07 1234.7,-119.15 1240,-123 1276.85,-149.78 1299.71,-200.25 1310.03,-227.82"/>
<polygon fill="#63b8ff" stroke="#63b8ff" points="1306.82,-229.24 1313.48,-237.48 1313.41,-226.89 1306.82,-229.24"/>
</a>
</g>
</g>
<!-- Node9&#45;&gt;Node2 -->
<g id="edge14_Node000009_Node000002" class="edge">
<title>Node9&#45;&gt;Node2</title>
<g id="a_edge14_Node000009_Node000002"><a xlink:title=" ">
<path fill="none" stroke="#63b8ff" d="M416.1,-230.41C544.44,-234.96 836.34,-244.64 1082,-248 1145.34,-248.87 1218.3,-248.31 1265.8,-247.74"/>
<polygon fill="#63b8ff" stroke="#63b8ff" points="1265.87,-251.24 1275.83,-247.62 1265.79,-244.24 1265.87,-251.24"/>
</a>
</g>
</g>
<!-- Node10 -->
<g id="Node000010" class="node">
<title>Node10</title>
<g id="a_Node000010"><a xlink:href="class_bit_vector.html#a04e6d0b67ee9b42ccec437b0176067fe" target="_top" xlink:title="Give A size_t that represent the coords of the first bit of an element.">
<polygon fill="white" stroke="#666666" points="638,-189.5 455,-189.5 455,-170.5 638,-170.5 638,-189.5"/>
<text text-anchor="middle" x="546.5" y="-177.5" font-family="Helvetica,sans-Serif" font-size="10.00">BitVector::indexElementUntreated</text>
</a>
</g>
</g>
<!-- Node9&#45;&gt;Node10 -->
<g id="edge15_Node000009_Node000010" class="edge">
<title>Node9&#45;&gt;Node10</title>
<g id="a_edge15_Node000009_Node000010"><a xlink:title=" ">
<path fill="none" stroke="#63b8ff" d="M389.09,-218.4C419.99,-210.81 463.3,-200.18 496.52,-192.03"/>
<polygon fill="#63b8ff" stroke="#63b8ff" points="497.6,-195.37 506.48,-189.58 495.93,-188.57 497.6,-195.37"/>
</a>
</g>
</g>
<!-- Node10&#45;&gt;Node2 -->
<g id="edge16_Node000010_Node000002" class="edge">
<title>Node10&#45;&gt;Node2</title>
<g id="a_edge16_Node000010_Node000002"><a xlink:title=" ">
<path fill="none" stroke="#63b8ff" d="M638.22,-188.08C701.49,-193.7 787.89,-201.35 864,-208 1009.91,-220.74 1182.31,-235.53 1265.94,-242.68"/>
<polygon fill="#63b8ff" stroke="#63b8ff" points="1265.67,-246.17 1275.94,-243.53 1266.27,-239.2 1265.67,-246.17"/>
</a>
</g>
</g>
<!-- Node10&#45;&gt;Node6 -->
<g id="edge17_Node000010_Node000006" class="edge">
<title>Node10&#45;&gt;Node6</title>
<g id="a_edge17_Node000010_Node000006"><a xlink:title=" ">
<path fill="none" stroke="#63b8ff" d="M583.72,-170.46C600.49,-165.63 620.53,-159.24 638,-152 654.71,-145.07 656.82,-138.67 674,-133 747.13,-108.85 835.56,-98.15 893.22,-93.49"/>
<polygon fill="#63b8ff" stroke="#63b8ff" points="893.56,-96.97 903.26,-92.71 893.02,-89.99 893.56,-96.97"/>
</a>
</g>
</g>
<!-- Node11 -->
<g id="Node000011" class="node">
<title>Node11</title>
<g id="a_Node000011"><a xlink:href="class_bit_vector.html#ad36e7d0b4b1417ca434414fa40c72eb8" target="_top" xlink:title="How many element can be contained in this object knowing BitVector::_element_size.">
<polygon fill="white" stroke="#666666" points="828,-161.5 674,-161.5 674,-142.5 828,-142.5 828,-161.5"/>
<text text-anchor="middle" x="751" y="-149.5" font-family="Helvetica,sans-Serif" font-size="10.00">BitVector::maxElementLimit</text>
</a>
</g>
</g>
<!-- Node10&#45;&gt;Node11 -->
<g id="edge18_Node000010_Node000011" class="edge">
<title>Node10&#45;&gt;Node11</title>
<g id="a_edge18_Node000010_Node000011"><a xlink:title=" ">
<path fill="none" stroke="#63b8ff" d="M616.34,-170.48C633.95,-168.05 653.02,-165.41 671.09,-162.91"/>
<polygon fill="#63b8ff" stroke="#63b8ff" points="671.58,-166.38 681.01,-161.54 670.62,-159.44 671.58,-166.38"/>
</a>
</g>
</g>
<!-- Node11&#45;&gt;Node6 -->
<g id="edge19_Node000011_Node000006" class="edge">
<title>Node11&#45;&gt;Node6</title>
<g id="a_edge19_Node000011_Node000006"><a xlink:title=" ">
<path fill="none" stroke="#63b8ff" d="M783.12,-142.45C812.89,-133.31 858.54,-119.3 895.17,-108.06"/>
<polygon fill="#63b8ff" stroke="#63b8ff" points="896.22,-111.4 904.75,-105.12 894.16,-104.7 896.22,-111.4"/>
</a>
</g>
</g>
<!-- Node12 -->
<g id="Node000012" class="node">
<title>Node12</title>
<g id="a_Node000012"><a xlink:href="class_bit_vector.html#a68b14af0886039ddcf55c82a250deb4c" target="_top" xlink:title="How many element can be contained in this kind of object.">
<polygon fill="white" stroke="#666666" points="1240,-162 1082,-162 1082,-132 1240,-132 1240,-162"/>
<text text-anchor="start" x="1090" y="-150" font-family="Helvetica,sans-Serif" font-size="10.00">BitVector::maximumElement</text>
<text text-anchor="middle" x="1161" y="-139" font-family="Helvetica,sans-Serif" font-size="10.00">Number</text>
</a>
</g>
</g>
<!-- Node11&#45;&gt;Node12 -->
<g id="edge20_Node000011_Node000012" class="edge">
<title>Node11&#45;&gt;Node12</title>
<g id="a_edge20_Node000011_Node000012"><a xlink:title=" ">
<path fill="none" stroke="#63b8ff" d="M828.26,-151.07C897.32,-150.22 999.06,-148.97 1071.64,-148.08"/>
<polygon fill="#63b8ff" stroke="#63b8ff" points="1071.72,-151.58 1081.68,-147.96 1071.64,-144.58 1071.72,-151.58"/>
</a>
</g>
</g>
<!-- Node11&#45;&gt;Node13 -->
<g id="edge22_Node000011_Node000013" class="edge">
<title>Node11&#45;&gt;Node13</title>
<g id="a_edge22_Node000011_Node000013"><a xlink:title=" ">
<path fill="none" stroke="#63b8ff" d="M802.71,-161.54C830.21,-166.71 864.38,-173.14 893.28,-178.58"/>
<polygon fill="#63b8ff" stroke="#63b8ff" points="892.79,-182.05 903.27,-180.46 894.09,-175.17 892.79,-182.05"/>
</a>
</g>
</g>
<!-- Node12&#45;&gt;Node2 -->
<g id="edge21_Node000012_Node000002" class="edge">
<title>Node12&#45;&gt;Node2</title>
<g id="a_edge21_Node000012_Node000002"><a xlink:title=" ">
<path fill="none" stroke="#63b8ff" d="M1211.65,-162.12C1221.38,-165.99 1231.27,-170.62 1240,-176 1264.17,-190.89 1287.41,-214.15 1301.81,-229.96"/>
<polygon fill="#63b8ff" stroke="#63b8ff" points="1299.22,-232.32 1308.49,-237.46 1304.45,-227.66 1299.22,-232.32"/>
</a>
</g>
</g>
<!-- Node13&#45;&gt;Node2 -->
<g id="edge23_Node000013_Node000002" class="edge">
<title>Node13&#45;&gt;Node2</title>
<g id="a_edge23_Node000013_Node000002"><a xlink:title=" ">
<path fill="none" stroke="#63b8ff" d="M1046.12,-190.23C1102.56,-192.18 1176.41,-198.05 1240,-214 1257.1,-218.29 1275.26,-225.97 1289.59,-232.85"/>
<polygon fill="#63b8ff" stroke="#63b8ff" points="1288.32,-236.13 1298.84,-237.43 1291.43,-229.85 1288.32,-236.13"/>
</a>
</g>
</g>
<!-- Node14&#45;&gt;Node3 -->
<g id="edge26_Node000014_Node000003" class="edge">
<title>Node14&#45;&gt;Node3</title>
<g id="a_edge26_Node000014_Node000003"><a xlink:title=" ">
<path fill="none" stroke="#63b8ff" d="M366.11,-124.36C419.06,-93.64 593.27,0 750,0 750,0 750,0 1162,0 1297.31,0 1400.06,-160.65 1434.76,-222.83"/>
<polygon fill="#63b8ff" stroke="#63b8ff" points="1431.87,-224.83 1439.74,-231.92 1438.01,-221.47 1431.87,-224.83"/>
</a>
</g>
</g>
<!-- Node15 -->
<g id="Node000015" class="node">
<title>Node15</title>
<g id="a_Node000015"><a xlink:href="class_bit_vector.html#a214e556dd89acce2427a378c5520adbd" target="_top" xlink:title="Last acceptable coordinate knowing BitVector::_element_size.">
<polygon fill="white" stroke="#666666" points="628,-143.5 465,-143.5 465,-124.5 628,-124.5 628,-143.5"/>
<text text-anchor="middle" x="546.5" y="-131.5" font-family="Helvetica,sans-Serif" font-size="10.00">BitVector::MaximalCoordLimit</text>
</a>
</g>
</g>
<!-- Node14&#45;&gt;Node15 -->
<g id="edge27_Node000014_Node000015" class="edge">
<title>Node14&#45;&gt;Node15</title>
<g id="a_edge27_Node000014_Node000015"><a xlink:title=" ">
<path fill="none" stroke="#63b8ff" d="M419.2,-134C430.59,-134 442.54,-134 454.36,-134"/>
<polygon fill="#63b8ff" stroke="#63b8ff" points="454.69,-137.5 464.69,-134 454.69,-130.5 454.69,-137.5"/>
</a>
</g>
</g>
<!-- Node15&#45;&gt;Node6 -->
<g id="edge28_Node000015_Node000006" class="edge">
<title>Node15&#45;&gt;Node6</title>
<g id="a_edge28_Node000015_Node000006"><a xlink:title=" ">
<path fill="none" stroke="#63b8ff" d="M575.75,-124.43C601.13,-116.3 639.59,-105.17 674,-100 748.83,-88.76 836.11,-87.49 893.08,-88.22"/>
<polygon fill="#63b8ff" stroke="#63b8ff" points="893.3,-91.72 903.35,-88.38 893.41,-84.72 893.3,-91.72"/>
</a>
</g>
</g>
<!-- Node15&#45;&gt;Node11 -->
<g id="edge29_Node000015_Node000011" class="edge">
<title>Node15&#45;&gt;Node11</title>
<g id="a_edge29_Node000015_Node000011"><a xlink:title=" ">
<path fill="none" stroke="#63b8ff" d="M628.12,-141.17C639.8,-142.2 651.87,-143.28 663.67,-144.33"/>
<polygon fill="#63b8ff" stroke="#63b8ff" points="663.67,-147.84 673.94,-145.24 664.29,-140.87 663.67,-147.84"/>
</a>
</g>
</g>
</g>
</svg>
