<?xml version="1.0" encoding="UTF-8" standalone="no"?>
<!DOCTYPE svg PUBLIC "-//W3C//DTD SVG 1.1//EN"
 "http://www.w3.org/Graphics/SVG/1.1/DTD/svg11.dtd">
<!-- Generated by graphviz version 2.43.0 (0)
 -->
<!-- Title: Sequence::insert Pages: 1 -->
<!--zoomable 722 -->

<svg id="main" version="1.1" xmlns="http://www.w3.org/2000/svg" xmlns:xlink="http://www.w3.org/1999/xlink" xml:space="preserve" onload="init(evt)">
<style type="text/css"><![CDATA[
.node, .edge {opacity: 0.7;}
.node.selected, .edge.selected {opacity: 1;}
.edge:hover path { stroke: red; }
.edge:hover polygon { stroke: red; fill: red; }
]]></style>

<defs>
  <circle id="rim" cx="0" cy="0" r="7"/>
  <circle id="rim2" cx="0" cy="0" r="3.5"/>
  <g id="zoomPlus">
    <use xlink:href="#rim" fill="#404040"><set attributeName="fill" to="#808080" begin="zoomplus.mouseover" end="zoomplus.mouseout"/></use>
    <path d="M-4,0h8M0,-4v8" fill="none" stroke="white" stroke-width="1.5" pointer-events="none"/>
  </g>
  <g id="zoomMin">
    <use xlink:href="#rim" fill="#404040"><set attributeName="fill" to="#808080" begin="zoomminus.mouseover" end="zoomminus.mouseout"/></use>
    <path d="M-4,0h8" fill="none" stroke="white" stroke-width="1.5" pointer-events="none"/>
  </g>
  <g id="arrowUp" transform="translate(30 24)">
    <use xlink:href="#rim"/>
    <path pointer-events="none" fill="none" stroke="white" stroke-width="1.5" d="M0,-3.0v7 M-2.5,-0.5L0,-3.0L2.5,-0.5"/>
  </g>
  <g id="arrowRight" transform="rotate(90) translate(36 -43)">
    <use xlink:href="#rim"/>
    <path pointer-events="none" fill="none" stroke="white" stroke-width="1.5" d="M0,-3.0v7 M-2.5,-0.5L0,-3.0L2.5,-0.5"/>
  </g>
  <g id="arrowDown" transform="rotate(180) translate(-30 -48)">
    <use xlink:href="#rim"/>
    <path pointer-events="none" fill="none" stroke="white" stroke-width="1.5" d="M0,-3.0v7 M-2.5,-0.5L0,-3.0L2.5,-0.5"/>
  </g>
  <g id="arrowLeft" transform="rotate(270) translate(-36 17)">
    <use xlink:href="#rim"/>
    <path pointer-events="none" fill="none" stroke="white" stroke-width="1.5" d="M0,-3.0v7 M-2.5,-0.5L0,-3.0L2.5,-0.5"/>
  </g>
  <g id="resetDef">
    <use xlink:href="#rim2" fill="#404040"><set attributeName="fill" to="#808080" begin="reset.mouseover" end="reset.mouseout"/></use>
  </g>
</defs>
<script type="application/ecmascript">
var viewWidth = 2108;
var viewHeight = 722;
var sectionId = 'dynsection-20';
</script>
<script type="application/ecmascript" xlink:href="svg.min.js"/>
<svg id="graph" class="graph">
<g id="viewport">
<title>Sequence::insert</title>
<!-- Node1 -->
<g id="Node000001" class="node">
<title>Node1</title>
<g id="a_Node000001"><a xlink:title="Insert a char at the position position .">
<polygon fill="#999999" stroke="#666666" points="98,-154 0,-154 0,-135 98,-135 98,-154"/>
<text text-anchor="middle" x="49" y="-142" font-family="Helvetica,sans-Serif" font-size="10.00">Sequence::insert</text>
</a>
</g>
</g>
<!-- Node2 -->
<g id="Node000002" class="node">
<title>Node2</title>
<g id="a_Node000002"><a xlink:href="class_sequence.html#ad40777fd2f7ad3ae247fab02459e6759" target="_top" xlink:title="Retrieve the symbol at the position in the sequence.">
<polygon fill="white" stroke="#666666" points="400,-107 314,-107 314,-88 400,-88 400,-107"/>
<text text-anchor="middle" x="357" y="-95" font-family="Helvetica,sans-Serif" font-size="10.00">Sequence::get</text>
</a>
</g>
</g>
<!-- Node1&#45;&gt;Node2 -->
<g id="edge1_Node000001_Node000002" class="edge">
<title>Node1&#45;&gt;Node2</title>
<g id="a_edge1_Node000001_Node000002"><a xlink:title=" ">
<path fill="none" stroke="#63b8ff" d="M98.15,-137.1C154.04,-128.52 245.89,-114.41 303.55,-105.56"/>
<polygon fill="#63b8ff" stroke="#63b8ff" points="304.2,-109 313.55,-104.02 303.14,-102.08 304.2,-109"/>
</a>
</g>
</g>
<!-- Node11 -->
<g id="Node000011" class="node">
<title>Node11</title>
<g id="a_Node000011"><a xlink:href="class_sequence.html#aa48778c592160ac60319f780817f491c" target="_top" xlink:title="Insert a number of chars at the position position .">
<polygon fill="white" stroke="#666666" points="232,-182 134,-182 134,-163 232,-163 232,-182"/>
<text text-anchor="middle" x="183" y="-170" font-family="Helvetica,sans-Serif" font-size="10.00">Sequence::insert</text>
</a>
</g>
</g>
<!-- Node1&#45;&gt;Node11 -->
<g id="edge14_Node000001_Node000011" class="edge">
<title>Node1&#45;&gt;Node11</title>
<g id="a_edge14_Node000001_Node000011"><a xlink:title=" ">
<path fill="none" stroke="#63b8ff" d="M95.06,-154.06C105.36,-156.24 116.42,-158.59 127.08,-160.85"/>
<polygon fill="#63b8ff" stroke="#63b8ff" points="126.64,-164.33 137.15,-162.99 128.09,-157.49 126.64,-164.33"/>
</a>
</g>
</g>
<!-- Node2&#45;&gt;Node2 -->
<g id="edge5_Node000002_Node000002" class="edge">
<title>Node2&#45;&gt;Node2</title>
<g id="a_edge5_Node000002_Node000002"><a xlink:title=" ">
<path fill="none" stroke="#63b8ff" d="M330.18,-107.08C317.13,-115.73 326.07,-125 357,-125 377.78,-125 388.63,-120.82 389.56,-115.45"/>
<polygon fill="#63b8ff" stroke="#63b8ff" points="392.36,-113.35 383.82,-107.08 386.59,-117.31 392.36,-113.35"/>
</a>
</g>
</g>
<!-- Node3 -->
<g id="Node000003" class="node">
<title>Node3</title>
<g id="a_Node000003"><a xlink:href="class_bit_vector.html#aebe159444eb9d619959b7325ac5dac2d" target="_top" xlink:title="Return the value of the bit at the position coord.">
<polygon fill="white" stroke="#666666" points="1957,-399 1874,-399 1874,-380 1957,-380 1957,-399"/>
<text text-anchor="middle" x="1915.5" y="-387" font-family="Helvetica,sans-Serif" font-size="10.00">BitVector::get</text>
</a>
</g>
</g>
<!-- Node2&#45;&gt;Node3 -->
<g id="edge2_Node000002_Node000003" class="edge">
<title>Node2&#45;&gt;Node3</title>
<g id="a_edge2_Node000002_Node000003"><a xlink:title=" ">
<path fill="none" stroke="#63b8ff" d="M400.07,-88.56C471.53,-74.18 621.37,-47.5 749.5,-47.5 749.5,-47.5 749.5,-47.5 1554,-47.5 1682.09,-47.5 1743.68,-9.84 1838,-96.5 1879.01,-134.18 1904.53,-310.14 1912.12,-369.72"/>
<polygon fill="#63b8ff" stroke="#63b8ff" points="1908.65,-370.23 1913.36,-379.72 1915.6,-369.37 1908.65,-370.23"/>
</a>
</g>
</g>
<!-- Node5 -->
<g id="Node000005" class="node">
<title>Node5</title>
<g id="a_Node000005"><a xlink:href="class_sequence.html#a8181f024304b3fb5f55c7118f648cc61" target="_top" xlink:title="Return a char (same format as Sequence::getType()) that indicate which alphabet is used in the during...">
<polygon fill="white" stroke="#666666" points="634,-19 482,-19 482,0 634,0 634,-19"/>
<text text-anchor="middle" x="558" y="-7" font-family="Helvetica,sans-Serif" font-size="10.00">Sequence::getEncodingType</text>
</a>
</g>
</g>
<!-- Node2&#45;&gt;Node5 -->
<g id="edge6_Node000002_Node000005" class="edge">
<title>Node2&#45;&gt;Node5</title>
<g id="a_edge6_Node000002_Node000005"><a xlink:title=" ">
<path fill="none" stroke="#63b8ff" d="M374.43,-87.9C397.78,-74.51 442.17,-50.02 482,-33.5 491.95,-29.37 502.89,-25.51 513.25,-22.15"/>
<polygon fill="#63b8ff" stroke="#63b8ff" points="514.49,-25.43 522.97,-19.08 512.38,-18.75 514.49,-25.43"/>
</a>
</g>
</g>
<!-- Node6 -->
<g id="Node000006" class="node">
<title>Node6</title>
<g id="a_Node000006"><a xlink:href="class_sequence.html#a49a9126010c0332493c803ddca005394" target="_top" xlink:title="Give a map that compress / decompress char used by Sequence.">
<polygon fill="white" stroke="#666666" points="627.5,-133 488.5,-133 488.5,-114 627.5,-114 627.5,-133"/>
<text text-anchor="middle" x="558" y="-121" font-family="Helvetica,sans-Serif" font-size="10.00">Sequence::translationTab</text>
</a>
</g>
</g>
<!-- Node2&#45;&gt;Node6 -->
<g id="edge7_Node000002_Node000006" class="edge">
<title>Node2&#45;&gt;Node6</title>
<g id="a_edge7_Node000002_Node000006"><a xlink:title=" ">
<path fill="none" stroke="#63b8ff" d="M400.2,-97.38C433.6,-100.27 480.06,-106.33 513.73,-112.16"/>
<polygon fill="#63b8ff" stroke="#63b8ff" points="513.28,-115.64 523.74,-113.97 514.52,-108.75 513.28,-115.64"/>
</a>
</g>
</g>
<!-- Node3&#45;&gt;Node3 -->
<g id="edge3_Node000003_Node000003" class="edge">
<title>Node3&#45;&gt;Node3</title>
<g id="a_edge3_Node000003_Node000003"><a xlink:title=" ">
<path fill="none" stroke="#63b8ff" d="M1895.46,-399.08C1885.72,-407.73 1892.39,-417 1915.5,-417 1930.3,-417 1938.36,-413.2 1939.68,-408.19"/>
<polygon fill="#63b8ff" stroke="#63b8ff" points="1942.86,-406.73 1935.54,-399.08 1936.49,-409.63 1942.86,-406.73"/>
</a>
</g>
</g>
<!-- Node4 -->
<g id="Node000004" class="node">
<title>Node4</title>
<g id="a_Node000004"><a xlink:href="class_bit_vector_1_1_coords.html#a2892f7f46c4af93f9733e312229d8ec1" target="_top" xlink:title="Get Coords::octet .">
<polygon fill="white" stroke="#666666" points="2100,-404.5 1993,-404.5 1993,-374.5 2100,-374.5 2100,-404.5"/>
<text text-anchor="start" x="2001" y="-392.5" font-family="Helvetica,sans-Serif" font-size="10.00">BitVector::Coords::</text>
<text text-anchor="middle" x="2046.5" y="-381.5" font-family="Helvetica,sans-Serif" font-size="10.00">getOctet</text>
</a>
</g>
</g>
<!-- Node3&#45;&gt;Node4 -->
<g id="edge4_Node000003_Node000004" class="edge">
<title>Node3&#45;&gt;Node4</title>
<g id="a_edge4_Node000003_Node000004"><a xlink:title=" ">
<path fill="none" stroke="#63b8ff" d="M1957.32,-389.5C1965.38,-389.5 1974.02,-389.5 1982.62,-389.5"/>
<polygon fill="#63b8ff" stroke="#63b8ff" points="1982.66,-393 1992.66,-389.5 1982.66,-386 1982.66,-393"/>
</a>
</g>
</g>
<!-- Node6&#45;&gt;Node2 -->
<g id="edge13_Node000006_Node000002" class="edge">
<title>Node6&#45;&gt;Node2</title>
<g id="a_edge13_Node000006_Node000002"><a xlink:title=" ">
<path fill="none" stroke="#63b8ff" d="M488.47,-121C459.59,-117.8 426.85,-113.27 401.39,-108.86"/>
<polygon fill="#63b8ff" stroke="#63b8ff" points="401.77,-105.37 391.31,-107.04 400.53,-112.26 401.77,-105.37"/>
</a>
</g>
</g>
<!-- Node7 -->
<g id="Node000007" class="node">
<title>Node7</title>
<g id="a_Node000007"><a xlink:href="class_sequence.html#a555c6e58957c4d07028eb5c67b1732ac" target="_top" xlink:title="Function used by Sequence::translationTab to create their compression map.">
<polygon fill="white" stroke="#666666" points="814.5,-95 686.5,-95 686.5,-76 814.5,-76 814.5,-95"/>
<text text-anchor="middle" x="750.5" y="-83" font-family="Helvetica,sans-Serif" font-size="10.00">Sequence::fillCodeMap</text>
</a>
</g>
</g>
<!-- Node6&#45;&gt;Node7 -->
<g id="edge8_Node000006_Node000007" class="edge">
<title>Node6&#45;&gt;Node7</title>
<g id="a_edge8_Node000006_Node000007"><a xlink:title=" ">
<path fill="none" stroke="#63b8ff" d="M607.07,-113.91C632.78,-108.78 664.61,-102.43 691.66,-97.04"/>
<polygon fill="#63b8ff" stroke="#63b8ff" points="692.65,-100.41 701.77,-95.02 691.28,-93.54 692.65,-100.41"/>
</a>
</g>
</g>
<!-- Node7&#45;&gt;Node2 -->
<g id="edge9_Node000007_Node000002" class="edge">
<title>Node7&#45;&gt;Node2</title>
<g id="a_edge9_Node000007_Node000002"><a xlink:title=" ">
<path fill="none" stroke="#63b8ff" d="M686.49,-87.43C609.85,-89.78 481.89,-93.7 410.39,-95.89"/>
<polygon fill="#63b8ff" stroke="#63b8ff" points="410.16,-92.4 400.27,-96.2 410.37,-99.4 410.16,-92.4"/>
</a>
</g>
</g>
<!-- Node8 -->
<g id="Node000008" class="node">
<title>Node8</title>
<g id="a_Node000008"><a xlink:href="class_sequence.html#acf21040958590f98163b3d11f19ea93e" target="_top" xlink:title="Give the number of element contained in this sequence.">
<polygon fill="white" stroke="#666666" points="982.5,-95 893.5,-95 893.5,-76 982.5,-76 982.5,-95"/>
<text text-anchor="middle" x="938" y="-83" font-family="Helvetica,sans-Serif" font-size="10.00">Sequence::size</text>
</a>
</g>
</g>
<!-- Node7&#45;&gt;Node8 -->
<g id="edge10_Node000007_Node000008" class="edge">
<title>Node7&#45;&gt;Node8</title>
<g id="a_edge10_Node000007_Node000008"><a xlink:title=" ">
<path fill="none" stroke="#63b8ff" d="M814.56,-85.5C836.86,-85.5 861.71,-85.5 883.17,-85.5"/>
<polygon fill="#63b8ff" stroke="#63b8ff" points="883.4,-89 893.4,-85.5 883.4,-82 883.4,-89"/>
</a>
</g>
</g>
<!-- Node9 -->
<g id="Node000009" class="node">
<title>Node9</title>
<g id="a_Node000009"><a xlink:href="class_bit_vector.html#ab30ea2b408107e4e6bc8095b5a64a1dd" target="_top" xlink:title="Number of element inside this object.">
<polygon fill="white" stroke="#666666" points="1179.5,-95 1093.5,-95 1093.5,-76 1179.5,-76 1179.5,-95"/>
<text text-anchor="middle" x="1136.5" y="-83" font-family="Helvetica,sans-Serif" font-size="10.00">BitVector::size</text>
</a>
</g>
</g>
<!-- Node8&#45;&gt;Node9 -->
<g id="edge11_Node000008_Node000009" class="edge">
<title>Node8&#45;&gt;Node9</title>
<g id="a_edge11_Node000008_Node000009"><a xlink:title=" ">
<path fill="none" stroke="#63b8ff" d="M982.61,-85.5C1012.27,-85.5 1051.68,-85.5 1083.05,-85.5"/>
<polygon fill="#63b8ff" stroke="#63b8ff" points="1083.36,-89 1093.36,-85.5 1083.36,-82 1083.36,-89"/>
</a>
</g>
</g>
<!-- Node10 -->
<g id="Node000010" class="node">
<title>Node10</title>
<g id="a_Node000010"><a xlink:href="class_bit_vector.html#a5339660cfb315ab5de7f78bdf5af4ce1" target="_top" xlink:title="Get BitVector::_element_number.">
<polygon fill="white" stroke="#666666" points="1426,-95 1264,-95 1264,-76 1426,-76 1426,-95"/>
<text text-anchor="middle" x="1345" y="-83" font-family="Helvetica,sans-Serif" font-size="10.00">BitVector::getElementNumber</text>
</a>
</g>
</g>
<!-- Node9&#45;&gt;Node10 -->
<g id="edge12_Node000009_Node000010" class="edge">
<title>Node9&#45;&gt;Node10</title>
<g id="a_edge12_Node000009_Node000010"><a xlink:title=" ">
<path fill="none" stroke="#63b8ff" d="M1179.54,-85.5C1200.88,-85.5 1227.68,-85.5 1253.42,-85.5"/>
<polygon fill="#63b8ff" stroke="#63b8ff" points="1253.6,-89 1263.6,-85.5 1253.6,-82 1253.6,-89"/>
</a>
</g>
</g>
<!-- Node11&#45;&gt;Node2 -->
<g id="edge15_Node000011_Node000002" class="edge">
<title>Node11&#45;&gt;Node2</title>
<g id="a_edge15_Node000011_Node000002"><a xlink:title=" ">
<path fill="none" stroke="#63b8ff" d="M206.13,-162.85C236.19,-149.74 290.1,-126.24 324.41,-111.28"/>
<polygon fill="#63b8ff" stroke="#63b8ff" points="326.18,-114.32 333.95,-107.11 323.39,-107.9 326.18,-114.32"/>
</a>
</g>
</g>
<!-- Node11&#45;&gt;Node6 -->
<g id="edge58_Node000011_Node000006" class="edge">
<title>Node11&#45;&gt;Node6</title>
<g id="a_edge58_Node000011_Node000006"><a xlink:title=" ">
<path fill="none" stroke="#63b8ff" d="M232.38,-166.14C294.7,-157.96 403.82,-143.62 478.18,-133.85"/>
<polygon fill="#63b8ff" stroke="#63b8ff" points="478.98,-137.28 488.44,-132.51 478.07,-130.34 478.98,-137.28"/>
</a>
</g>
</g>
<!-- Node12 -->
<g id="Node000012" class="node">
<title>Node12</title>
<g id="a_Node000012"><a xlink:href="class_bit_vector.html#a686af396e4dff1536b7588213726c4cc" target="_top" xlink:title="Insert a number of blank position inside BitVector::_data.">
<polygon fill="white" stroke="#666666" points="446,-360 268,-360 268,-341 446,-341 446,-360"/>
<text text-anchor="middle" x="357" y="-348" font-family="Helvetica,sans-Serif" font-size="10.00">BitVector::makeRoomForElement</text>
</a>
</g>
</g>
<!-- Node11&#45;&gt;Node12 -->
<g id="edge16_Node000011_Node000012" class="edge">
<title>Node11&#45;&gt;Node12</title>
<g id="a_edge16_Node000011_Node000012"><a xlink:title=" ">
<path fill="none" stroke="#63b8ff" d="M193.25,-182.07C221.01,-210.8 303.92,-296.6 339.49,-333.42"/>
<polygon fill="#63b8ff" stroke="#63b8ff" points="337.24,-336.12 346.71,-340.88 342.27,-331.26 337.24,-336.12"/>
</a>
</g>
</g>
<!-- Node14 -->
<g id="Node000014" class="node">
<title>Node14</title>
<g id="a_Node000014"><a xlink:href="class_bit_vector.html#aca24053f655c825de0f06ec86fff1cec" target="_top" xlink:title="Replace an element by another element. Can add an element to the list if index = BitVector::_element_...">
<polygon fill="white" stroke="#666666" points="791.5,-474 709.5,-474 709.5,-455 791.5,-455 791.5,-474"/>
<text text-anchor="middle" x="750.5" y="-462" font-family="Helvetica,sans-Serif" font-size="10.00">BitVector::set</text>
</a>
</g>
</g>
<!-- Node11&#45;&gt;Node14 -->
<g id="edge57_Node000011_Node000014" class="edge">
<title>Node11&#45;&gt;Node14</title>
<g id="a_edge57_Node000011_Node000014"><a xlink:title=" ">
<path fill="none" stroke="#63b8ff" d="M185.34,-182.26C190.2,-213.91 209.77,-314.77 268,-368.5 389.34,-480.46 602.7,-477.96 699.38,-470.1"/>
<polygon fill="#63b8ff" stroke="#63b8ff" points="699.81,-473.58 709.47,-469.23 699.21,-466.61 699.81,-473.58"/>
</a>
</g>
</g>
<!-- Node27 -->
<g id="Node000027" class="node">
<title>Node27</title>
<g id="a_Node000027"><a xlink:href="class_bit_vector.html#a87f84edf5dd56606b26e8741ba6ced02" target="_top" xlink:title="Remove a number of element from the vector.">
<polygon fill="white" stroke="#666666" points="610,-201 506,-201 506,-182 610,-182 610,-201"/>
<text text-anchor="middle" x="558" y="-189" font-family="Helvetica,sans-Serif" font-size="10.00">BitVector::remove</text>
</a>
</g>
</g>
<!-- Node11&#45;&gt;Node27 -->
<g id="edge44_Node000011_Node000027" class="edge">
<title>Node11&#45;&gt;Node27</title>
<g id="a_edge44_Node000011_Node000027"><a xlink:title=" ">
<path fill="none" stroke="#63b8ff" d="M232.38,-174.96C299.78,-178.4 421.93,-184.62 495.65,-188.37"/>
<polygon fill="#63b8ff" stroke="#63b8ff" points="495.55,-191.87 505.72,-188.89 495.91,-184.88 495.55,-191.87"/>
</a>
</g>
</g>
<!-- Node12&#45;&gt;Node3 -->
<g id="edge41_Node000012_Node000003" class="edge">
<title>Node12&#45;&gt;Node3</title>
<g id="a_edge41_Node000012_Node000003"><a xlink:title=" ">
<path fill="none" stroke="#63b8ff" d="M442.5,-340.97C572.02,-326.66 827.49,-299.57 1045,-283.5 1230.06,-269.82 1276.49,-267.17 1462,-262.5 1542.86,-260.47 1563.12,-261.67 1644,-262.5 1730.24,-263.39 1763.05,-223.84 1838,-266.5 1877.73,-289.11 1899.61,-341.63 1908.96,-370.18"/>
<polygon fill="#63b8ff" stroke="#63b8ff" points="1905.64,-371.31 1911.94,-379.84 1912.33,-369.25 1905.64,-371.31"/>
</a>
</g>
</g>
<!-- Node13 -->
<g id="Node000013" class="node">
<title>Node13</title>
<g id="a_Node000013"><a xlink:href="class_bit_vector.html#afbdbe8a5003f5941ffd5ab095cf87d88" target="_top" xlink:title="Add an element at the end of the vector.">
<polygon fill="white" stroke="#666666" points="609.5,-398 506.5,-398 506.5,-379 609.5,-379 609.5,-398"/>
<text text-anchor="middle" x="558" y="-386" font-family="Helvetica,sans-Serif" font-size="10.00">BitVector::append</text>
</a>
</g>
</g>
<!-- Node12&#45;&gt;Node13 -->
<g id="edge17_Node000012_Node000013" class="edge">
<title>Node12&#45;&gt;Node13</title>
<g id="a_edge17_Node000012_Node000013"><a xlink:title=" ">
<path fill="none" stroke="#63b8ff" d="M407.96,-360.04C435.05,-365.21 468.71,-371.64 497.18,-377.08"/>
<polygon fill="#63b8ff" stroke="#63b8ff" points="496.54,-380.52 507.02,-378.96 497.85,-373.64 496.54,-380.52"/>
</a>
</g>
</g>
<!-- Node12&#45;&gt;Node14 -->
<g id="edge43_Node000012_Node000014" class="edge">
<title>Node12&#45;&gt;Node14</title>
<g id="a_edge43_Node000012_Node000014"><a xlink:title=" ">
<path fill="none" stroke="#63b8ff" d="M376,-360.09C399.71,-372.38 442.97,-393.62 482,-406.5 555.98,-430.92 644.9,-447.85 699.3,-456.87"/>
<polygon fill="#63b8ff" stroke="#63b8ff" points="698.94,-460.35 709.37,-458.51 700.06,-453.45 698.94,-460.35"/>
</a>
</g>
</g>
<!-- Node22 -->
<g id="Node000022" class="node">
<title>Node22</title>
<g id="a_Node000022"><a xlink:href="class_bit_vector.html#ad36e7d0b4b1417ca434414fa40c72eb8" target="_top" xlink:title="How many element can be contained in this object knowing BitVector::_element_size.">
<polygon fill="white" stroke="#666666" points="1422,-409 1268,-409 1268,-390 1422,-390 1422,-409"/>
<text text-anchor="middle" x="1345" y="-397" font-family="Helvetica,sans-Serif" font-size="10.00">BitVector::maxElementLimit</text>
</a>
</g>
</g>
<!-- Node12&#45;&gt;Node22 -->
<g id="edge42_Node000012_Node000022" class="edge">
<title>Node12&#45;&gt;Node22</title>
<g id="a_edge42_Node000012_Node000022"><a xlink:title=" ">
<path fill="none" stroke="#63b8ff" d="M446.24,-350.5C525.59,-350.5 645.34,-350.5 749.5,-350.5 749.5,-350.5 749.5,-350.5 939,-350.5 1063.55,-350.5 1208.09,-373.62 1286.39,-388.1"/>
<polygon fill="#63b8ff" stroke="#63b8ff" points="1286.06,-391.6 1296.53,-389.99 1287.34,-384.72 1286.06,-391.6"/>
</a>
</g>
</g>
<!-- Node13&#45;&gt;Node14 -->
<g id="edge18_Node000013_Node000014" class="edge">
<title>Node13&#45;&gt;Node14</title>
<g id="a_edge18_Node000013_Node000014"><a xlink:title=" ">
<path fill="none" stroke="#63b8ff" d="M591.77,-398.1C605,-402.21 620.34,-407.26 634,-412.5 664.18,-424.08 697.78,-439.51 720.93,-450.54"/>
<polygon fill="#63b8ff" stroke="#63b8ff" points="719.64,-453.81 730.17,-454.98 722.67,-447.5 719.64,-453.81"/>
</a>
</g>
</g>
<!-- Node14&#45;&gt;Node3 -->
<g id="edge22_Node000014_Node000003" class="edge">
<title>Node14&#45;&gt;Node3</title>
<g id="a_edge22_Node000014_Node000003"><a xlink:title=" ">
<path fill="none" stroke="#63b8ff" d="M754.75,-474.18C765.47,-504.64 802.8,-599.26 867,-646.5 966.06,-719.39 1012.51,-713.5 1135.5,-713.5 1135.5,-713.5 1135.5,-713.5 1554,-713.5 1687.82,-713.5 1743.82,-708.57 1838,-613.5 1895.61,-555.34 1909.88,-452.07 1913.38,-409.1"/>
<polygon fill="#63b8ff" stroke="#63b8ff" points="1916.87,-409.32 1914.08,-399.1 1909.89,-408.83 1916.87,-409.32"/>
</a>
</g>
</g>
<!-- Node15 -->
<g id="Node000015" class="node">
<title>Node15</title>
<g id="a_Node000015"><a xlink:href="class_bit_vector.html#a8c3c1f0faa0bbf35638c7217a841cbd8" target="_top" xlink:title=" ">
<polygon fill="white" stroke="#666666" points="992.5,-637 883.5,-637 883.5,-618 992.5,-618 992.5,-637"/>
<text text-anchor="middle" x="938" y="-625" font-family="Helvetica,sans-Serif" font-size="10.00">BitVector::copyBits</text>
</a>
</g>
</g>
<!-- Node14&#45;&gt;Node15 -->
<g id="edge19_Node000014_Node000015" class="edge">
<title>Node14&#45;&gt;Node15</title>
<g id="a_edge19_Node000014_Node000015"><a xlink:title=" ">
<path fill="none" stroke="#63b8ff" d="M756.91,-474.14C771.43,-499.16 813.8,-566.8 867,-603.5 873.18,-607.76 880.19,-611.33 887.32,-614.3"/>
<polygon fill="#63b8ff" stroke="#63b8ff" points="886.47,-617.72 897.06,-617.98 888.94,-611.17 886.47,-617.72"/>
</a>
</g>
</g>
<!-- Node17 -->
<g id="Node000017" class="node">
<title>Node17</title>
<g id="a_Node000017"><a xlink:href="class_bit_vector.html#a115789c8a9812eabb52f8843cd4e9965" target="_top" xlink:title="Give the a coord object that represent the size of 1 element inside BitVector::_data.">
<polygon fill="white" stroke="#666666" points="1824.5,-561 1693.5,-561 1693.5,-542 1824.5,-542 1824.5,-561"/>
<text text-anchor="middle" x="1759" y="-549" font-family="Helvetica,sans-Serif" font-size="10.00">BitVector::getCoordUnit</text>
</a>
</g>
</g>
<!-- Node14&#45;&gt;Node17 -->
<g id="edge23_Node000014_Node000017" class="edge">
<title>Node14&#45;&gt;Node17</title>
<g id="a_edge23_Node000014_Node000017"><a xlink:title=" ">
<path fill="none" stroke="#63b8ff" d="M776.22,-474.14C836.58,-496.79 996.74,-551.5 1135.5,-551.5 1135.5,-551.5 1135.5,-551.5 1346,-551.5 1463.93,-551.5 1600.85,-551.5 1683.38,-551.5"/>
<polygon fill="#63b8ff" stroke="#63b8ff" points="1683.42,-555 1693.42,-551.5 1683.42,-548 1683.42,-555"/>
</a>
</g>
</g>
<!-- Node18 -->
<g id="Node000018" class="node">
<title>Node18</title>
<g id="a_Node000018"><a xlink:href="class_bit_vector.html#a93ab8bc2ec39bf299ae28ffcad504b41" target="_top" xlink:title="Give the coords of the first bit of an element.">
<polygon fill="white" stroke="#666666" points="1005,-474 871,-474 871,-455 1005,-455 1005,-474"/>
<text text-anchor="middle" x="938" y="-462" font-family="Helvetica,sans-Serif" font-size="10.00">BitVector::indexElement</text>
</a>
</g>
</g>
<!-- Node14&#45;&gt;Node18 -->
<g id="edge25_Node000014_Node000018" class="edge">
<title>Node14&#45;&gt;Node18</title>
<g id="a_edge25_Node000014_Node000018"><a xlink:title=" ">
<path fill="none" stroke="#63b8ff" d="M791.75,-464.5C811.98,-464.5 837.19,-464.5 860.89,-464.5"/>
<polygon fill="#63b8ff" stroke="#63b8ff" points="860.94,-468 870.94,-464.5 860.94,-461 860.94,-468"/>
</a>
</g>
</g>
<!-- Node25 -->
<g id="Node000025" class="node">
<title>Node25</title>
<g id="a_Node000025"><a xlink:href="class_bit_vector.html#ab4d98ce4b8d36ed6af1aa46e67810972" target="_top" xlink:title="Give the last coordinates thar can be contained inside BitVector::_data with the current BitVector::_...">
<polygon fill="white" stroke="#666666" points="1185.5,-312 1087.5,-312 1087.5,-293 1185.5,-293 1185.5,-312"/>
<text text-anchor="middle" x="1136.5" y="-300" font-family="Helvetica,sans-Serif" font-size="10.00">BitVector::lastBit</text>
</a>
</g>
</g>
<!-- Node14&#45;&gt;Node25 -->
<g id="edge38_Node000014_Node000025" class="edge">
<title>Node14&#45;&gt;Node25</title>
<g id="a_edge38_Node000014_Node000025"><a xlink:title=" ">
<path fill="none" stroke="#63b8ff" d="M774.09,-454.97C839.17,-427.51 1027.28,-348.16 1103.18,-316.14"/>
<polygon fill="#63b8ff" stroke="#63b8ff" points="1104.85,-319.23 1112.7,-312.12 1102.13,-312.78 1104.85,-319.23"/>
</a>
</g>
</g>
<!-- Node26 -->
<g id="Node000026" class="node">
<title>Node26</title>
<g id="a_Node000026"><a xlink:href="class_bit_vector.html#ab92cdd9780b949d9d762f58e1ee4a0ae" target="_top" xlink:title="Last postion of the vector.">
<polygon fill="white" stroke="#666666" points="1396,-599 1294,-599 1294,-580 1396,-580 1396,-599"/>
<text text-anchor="middle" x="1345" y="-587" font-family="Helvetica,sans-Serif" font-size="10.00">BitVector::lastPos</text>
</a>
</g>
</g>
<!-- Node14&#45;&gt;Node26 -->
<g id="edge39_Node000014_Node000026" class="edge">
<title>Node14&#45;&gt;Node26</title>
<g id="a_edge39_Node000014_Node000026"><a xlink:title=" ">
<path fill="none" stroke="#63b8ff" d="M758.57,-474.02C774.9,-495.11 817.61,-545.52 867,-565.5 1007.4,-622.29 1190.28,-610.26 1283.54,-598.71"/>
<polygon fill="#63b8ff" stroke="#63b8ff" points="1284.17,-602.15 1293.65,-597.41 1283.28,-595.21 1284.17,-602.15"/>
</a>
</g>
</g>
<!-- Node15&#45;&gt;Node3 -->
<g id="edge20_Node000015_Node000003" class="edge">
<title>Node15&#45;&gt;Node3</title>
<g id="a_edge20_Node000015_Node000003"><a xlink:title=" ">
<path fill="none" stroke="#63b8ff" d="M992.72,-627.5C1070.28,-627.5 1218.14,-627.5 1344,-627.5 1344,-627.5 1344,-627.5 1554,-627.5 1682.83,-627.5 1738.25,-651.02 1838,-569.5 1888.75,-528.02 1906.46,-446.75 1912.1,-409.29"/>
<polygon fill="#63b8ff" stroke="#63b8ff" points="1915.6,-409.54 1913.49,-399.16 1908.67,-408.59 1915.6,-409.54"/>
</a>
</g>
</g>
<!-- Node16 -->
<g id="Node000016" class="node">
<title>Node16</title>
<g id="a_Node000016"><a xlink:href="class_bit_vector_1_1_coords.html#a393207c752f8f9121aca38c938914154" target="_top" xlink:title="Get Coords::bit .">
<polygon fill="white" stroke="#666666" points="1190,-685.5 1083,-685.5 1083,-655.5 1190,-655.5 1190,-685.5"/>
<text text-anchor="start" x="1091" y="-673.5" font-family="Helvetica,sans-Serif" font-size="10.00">BitVector::Coords::</text>
<text text-anchor="middle" x="1136.5" y="-662.5" font-family="Helvetica,sans-Serif" font-size="10.00">getBit</text>
</a>
</g>
</g>
<!-- Node15&#45;&gt;Node16 -->
<g id="edge21_Node000015_Node000016" class="edge">
<title>Node15&#45;&gt;Node16</title>
<g id="a_edge21_Node000015_Node000016"><a xlink:title=" ">
<path fill="none" stroke="#63b8ff" d="M982.61,-637.04C1009.22,-642.87 1043.68,-650.41 1073.15,-656.86"/>
<polygon fill="#63b8ff" stroke="#63b8ff" points="1072.41,-660.28 1082.93,-659 1073.91,-653.44 1072.41,-660.28"/>
</a>
</g>
</g>
<!-- Node17&#45;&gt;Node3 -->
<g id="edge24_Node000017_Node000003" class="edge">
<title>Node17&#45;&gt;Node3</title>
<g id="a_edge24_Node000017_Node000003"><a xlink:title=" ">
<path fill="none" stroke="#63b8ff" d="M1811.09,-541.94C1820.71,-538.51 1830.19,-533.84 1838,-527.5 1877.03,-495.84 1899.41,-438.68 1908.96,-408.83"/>
<polygon fill="#63b8ff" stroke="#63b8ff" points="1912.33,-409.75 1911.9,-399.17 1905.64,-407.71 1912.33,-409.75"/>
</a>
</g>
</g>
<!-- Node18&#45;&gt;Node3 -->
<g id="edge26_Node000018_Node000003" class="edge">
<title>Node18&#45;&gt;Node3</title>
<g id="a_edge26_Node000018_Node000003"><a xlink:title=" ">
<path fill="none" stroke="#63b8ff" d="M986.47,-474.01C1061.89,-488.26 1213.86,-513.5 1344,-513.5 1344,-513.5 1344,-513.5 1554,-513.5 1681.07,-513.5 1726.1,-540.72 1838,-480.5 1868.73,-463.96 1892.24,-429.57 1904.66,-408.12"/>
<polygon fill="#63b8ff" stroke="#63b8ff" points="1907.77,-409.73 1909.58,-399.29 1901.66,-406.33 1907.77,-409.73"/>
</a>
</g>
</g>
<!-- Node19 -->
<g id="Node000019" class="node">
<title>Node19</title>
<g id="a_Node000019"><a xlink:href="class_bit_vector.html#a04e6d0b67ee9b42ccec437b0176067fe" target="_top" xlink:title="Give A size_t that represent the coords of the first bit of an element.">
<polygon fill="white" stroke="#666666" points="1228,-442 1045,-442 1045,-423 1228,-423 1228,-442"/>
<text text-anchor="middle" x="1136.5" y="-430" font-family="Helvetica,sans-Serif" font-size="10.00">BitVector::indexElementUntreated</text>
</a>
</g>
</g>
<!-- Node18&#45;&gt;Node19 -->
<g id="edge27_Node000018_Node000019" class="edge">
<title>Node18&#45;&gt;Node19</title>
<g id="a_edge27_Node000018_Node000019"><a xlink:title=" ">
<path fill="none" stroke="#63b8ff" d="M997.42,-454.99C1019.3,-451.42 1044.35,-447.34 1067.05,-443.65"/>
<polygon fill="#63b8ff" stroke="#63b8ff" points="1067.65,-447.09 1076.96,-442.03 1066.53,-440.19 1067.65,-447.09"/>
</a>
</g>
</g>
<!-- Node19&#45;&gt;Node3 -->
<g id="edge28_Node000019_Node000003" class="edge">
<title>Node19&#45;&gt;Node3</title>
<g id="a_edge28_Node000019_Node000003"><a xlink:title=" ">
<path fill="none" stroke="#63b8ff" d="M1210.53,-442.02C1366.06,-461.16 1724.95,-499.01 1838,-456.5 1864.17,-446.66 1887.24,-423.35 1901.03,-407"/>
<polygon fill="#63b8ff" stroke="#63b8ff" points="1903.78,-409.17 1907.36,-399.2 1898.35,-404.76 1903.78,-409.17"/>
</a>
</g>
</g>
<!-- Node20 -->
<g id="Node000020" class="node">
<title>Node20</title>
<g id="a_Node000020"><a xlink:href="class_bit_vector.html#af68cda7444ec4459393bbfa423f0a7dd" target="_top" xlink:title="Get the Size_t value if a BitVector::CoordUnit.">
<polygon fill="white" stroke="#666666" points="1604.5,-371.5 1501.5,-371.5 1501.5,-341.5 1604.5,-341.5 1604.5,-371.5"/>
<text text-anchor="start" x="1509.5" y="-359.5" font-family="Helvetica,sans-Serif" font-size="10.00">BitVector::getSize</text>
<text text-anchor="middle" x="1553" y="-348.5" font-family="Helvetica,sans-Serif" font-size="10.00">_tUnit</text>
</a>
</g>
</g>
<!-- Node19&#45;&gt;Node20 -->
<g id="edge29_Node000019_Node000020" class="edge">
<title>Node19&#45;&gt;Node20</title>
<g id="a_edge29_Node000019_Node000020"><a xlink:title=" ">
<path fill="none" stroke="#63b8ff" d="M1155.76,-422.89C1179.83,-410.73 1223.83,-390.18 1264,-380.5 1340.84,-361.97 1432.18,-357.16 1491.07,-356.2"/>
<polygon fill="#63b8ff" stroke="#63b8ff" points="1491.36,-359.7 1501.31,-356.06 1491.27,-352.7 1491.36,-359.7"/>
</a>
</g>
</g>
<!-- Node19&#45;&gt;Node22 -->
<g id="edge32_Node000019_Node000022" class="edge">
<title>Node19&#45;&gt;Node22</title>
<g id="a_edge32_Node000019_Node000022"><a xlink:title=" ">
<path fill="none" stroke="#63b8ff" d="M1196.95,-423C1221.04,-419.15 1249.03,-414.68 1274.08,-410.67"/>
<polygon fill="#63b8ff" stroke="#63b8ff" points="1274.93,-414.08 1284.25,-409.05 1273.83,-407.17 1274.93,-414.08"/>
</a>
</g>
</g>
<!-- Node20&#45;&gt;Node17 -->
<g id="edge30_Node000020_Node000017" class="edge">
<title>Node20&#45;&gt;Node17</title>
<g id="a_edge30_Node000020_Node000017"><a xlink:title=" ">
<path fill="none" stroke="#63b8ff" d="M1604.81,-362.06C1618.69,-365.58 1632.94,-371.29 1644,-380.5 1672.72,-404.42 1659.99,-424.93 1680,-456.5 1698.53,-485.73 1724.88,-516.05 1741.71,-534.35"/>
<polygon fill="#63b8ff" stroke="#63b8ff" points="1739.33,-536.93 1748.71,-541.86 1744.46,-532.16 1739.33,-536.93"/>
</a>
</g>
</g>
<!-- Node21 -->
<g id="Node000021" class="node">
<title>Node21</title>
<g id="a_Node000021"><a xlink:href="class_bit_vector_1_1_coords.html#a3a4fac9de925974af9c8a66a1d0179e6" target="_top" xlink:title="Translate octet and bit value inside a size_t. Allow easier mathematic computations.">
<polygon fill="white" stroke="#666666" points="1812.5,-347.5 1705.5,-347.5 1705.5,-317.5 1812.5,-317.5 1812.5,-347.5"/>
<text text-anchor="start" x="1713.5" y="-335.5" font-family="Helvetica,sans-Serif" font-size="10.00">BitVector::Coords::</text>
<text text-anchor="middle" x="1759" y="-324.5" font-family="Helvetica,sans-Serif" font-size="10.00">toSize_t</text>
</a>
</g>
</g>
<!-- Node20&#45;&gt;Node21 -->
<g id="edge31_Node000020_Node000021" class="edge">
<title>Node20&#45;&gt;Node21</title>
<g id="a_edge31_Node000020_Node000021"><a xlink:title=" ">
<path fill="none" stroke="#63b8ff" d="M1604.69,-350.54C1632.13,-347.31 1666.28,-343.29 1695.38,-339.87"/>
<polygon fill="#63b8ff" stroke="#63b8ff" points="1695.92,-343.33 1705.44,-338.68 1695.1,-336.38 1695.92,-343.33"/>
</a>
</g>
</g>
<!-- Node22&#45;&gt;Node20 -->
<g id="edge33_Node000022_Node000020" class="edge">
<title>Node22&#45;&gt;Node20</title>
<g id="a_edge33_Node000022_Node000020"><a xlink:title=" ">
<path fill="none" stroke="#63b8ff" d="M1391.72,-389.96C1421.02,-383.84 1459.4,-375.83 1491.26,-369.18"/>
<polygon fill="#63b8ff" stroke="#63b8ff" points="1492.28,-372.54 1501.35,-367.07 1490.85,-365.69 1492.28,-372.54"/>
</a>
</g>
</g>
<!-- Node23 -->
<g id="Node000023" class="node">
<title>Node23</title>
<g id="a_Node000023"><a xlink:href="class_bit_vector.html#a68b14af0886039ddcf55c82a250deb4c" target="_top" xlink:title="How many element can be contained in this kind of object.">
<polygon fill="white" stroke="#666666" points="1838,-447.5 1680,-447.5 1680,-417.5 1838,-417.5 1838,-447.5"/>
<text text-anchor="start" x="1688" y="-435.5" font-family="Helvetica,sans-Serif" font-size="10.00">BitVector::maximumElement</text>
<text text-anchor="middle" x="1759" y="-424.5" font-family="Helvetica,sans-Serif" font-size="10.00">Number</text>
</a>
</g>
</g>
<!-- Node22&#45;&gt;Node23 -->
<g id="edge34_Node000022_Node000023" class="edge">
<title>Node22&#45;&gt;Node23</title>
<g id="a_edge34_Node000022_Node000023"><a xlink:title=" ">
<path fill="none" stroke="#63b8ff" d="M1399.85,-409.04C1419.37,-412.19 1441.63,-415.41 1462,-417.5 1531.68,-424.65 1610.95,-428.44 1669.91,-430.42"/>
<polygon fill="#63b8ff" stroke="#63b8ff" points="1669.82,-433.92 1679.93,-430.74 1670.05,-426.92 1669.82,-433.92"/>
</a>
</g>
</g>
<!-- Node24 -->
<g id="Node000024" class="node">
<title>Node24</title>
<g id="a_Node000024"><a xlink:href="class_bit_vector.html#aa3228d2bacb1bb0f6072d73d43a49456" target="_top" xlink:title="How many octet can be contained in this kind of object.">
<polygon fill="white" stroke="#666666" points="1644,-409 1462,-409 1462,-390 1644,-390 1644,-409"/>
<text text-anchor="middle" x="1553" y="-397" font-family="Helvetica,sans-Serif" font-size="10.00">BitVector::maximumOctetNumber</text>
</a>
</g>
</g>
<!-- Node22&#45;&gt;Node24 -->
<g id="edge36_Node000022_Node000024" class="edge">
<title>Node22&#45;&gt;Node24</title>
<g id="a_edge36_Node000022_Node000024"><a xlink:title=" ">
<path fill="none" stroke="#63b8ff" d="M1422.12,-399.5C1431.73,-399.5 1441.68,-399.5 1451.6,-399.5"/>
<polygon fill="#63b8ff" stroke="#63b8ff" points="1451.9,-403 1461.9,-399.5 1451.9,-396 1451.9,-403"/>
</a>
</g>
</g>
<!-- Node23&#45;&gt;Node3 -->
<g id="edge35_Node000023_Node000003" class="edge">
<title>Node23&#45;&gt;Node3</title>
<g id="a_edge35_Node000023_Node000003"><a xlink:title=" ">
<path fill="none" stroke="#63b8ff" d="M1814.04,-417.46C1832.37,-412.36 1852.62,-406.72 1870.11,-401.85"/>
<polygon fill="#63b8ff" stroke="#63b8ff" points="1871.36,-405.14 1880.06,-399.09 1869.48,-398.4 1871.36,-405.14"/>
</a>
</g>
</g>
<!-- Node24&#45;&gt;Node3 -->
<g id="edge37_Node000024_Node000003" class="edge">
<title>Node24&#45;&gt;Node3</title>
<g id="a_edge37_Node000024_Node000003"><a xlink:title=" ">
<path fill="none" stroke="#63b8ff" d="M1644.04,-397C1713.34,-395.08 1806.62,-392.49 1863.56,-390.91"/>
<polygon fill="#63b8ff" stroke="#63b8ff" points="1863.85,-394.41 1873.75,-390.63 1863.66,-387.41 1863.85,-394.41"/>
</a>
</g>
</g>
<!-- Node26&#45;&gt;Node17 -->
<g id="edge40_Node000026_Node000017" class="edge">
<title>Node26&#45;&gt;Node17</title>
<g id="a_edge40_Node000026_Node000017"><a xlink:title=" ">
<path fill="none" stroke="#63b8ff" d="M1396.15,-586.1C1455.42,-581.94 1556.99,-574.34 1644,-565.5 1656.6,-564.22 1669.97,-562.71 1682.94,-561.17"/>
<polygon fill="#63b8ff" stroke="#63b8ff" points="1683.73,-564.6 1693.24,-559.93 1682.9,-557.65 1683.73,-564.6"/>
</a>
</g>
</g>
<!-- Node27&#45;&gt;Node3 -->
<g id="edge45_Node000027_Node000003" class="edge">
<title>Node27&#45;&gt;Node3</title>
<g id="a_edge45_Node000027_Node000003"><a xlink:title=" ">
<path fill="none" stroke="#63b8ff" d="M590.51,-181.9C654.94,-163.16 806.64,-123.5 937,-123.5 937,-123.5 937,-123.5 1554,-123.5 1680.4,-123.5 1738.45,-60.62 1838,-138.5 1911.24,-195.8 1916.32,-321.32 1915.37,-369.82"/>
<polygon fill="#63b8ff" stroke="#63b8ff" points="1911.87,-369.83 1915.06,-379.93 1918.87,-370.04 1911.87,-369.83"/>
</a>
</g>
</g>
<!-- Node27&#45;&gt;Node14 -->
<g id="edge46_Node000027_Node000014" class="edge">
<title>Node27&#45;&gt;Node14</title>
<g id="a_edge46_Node000027_Node000014"><a xlink:title=" ">
<path fill="none" stroke="#63b8ff" d="M565.78,-201.22C593.73,-241.27 700.26,-393.94 736.98,-446.55"/>
<polygon fill="#63b8ff" stroke="#63b8ff" points="734.21,-448.7 742.8,-454.9 739.95,-444.7 734.21,-448.7"/>
</a>
</g>
</g>
<!-- Node28 -->
<g id="Node000028" class="node">
<title>Node28</title>
<g id="a_Node000028"><a xlink:href="class_bit_vector.html#ad60f42244db2c82260326605916431d3" target="_top" xlink:title="Modify the number of known element in this object.">
<polygon fill="white" stroke="#666666" points="831,-201 670,-201 670,-182 831,-182 831,-201"/>
<text text-anchor="middle" x="750.5" y="-189" font-family="Helvetica,sans-Serif" font-size="10.00">BitVector::setElementNumber</text>
</a>
</g>
</g>
<!-- Node27&#45;&gt;Node28 -->
<g id="edge47_Node000027_Node000028" class="edge">
<title>Node27&#45;&gt;Node28</title>
<g id="a_edge47_Node000027_Node000028"><a xlink:title=" ">
<path fill="none" stroke="#63b8ff" d="M610.05,-191.5C625.44,-191.5 642.8,-191.5 659.92,-191.5"/>
<polygon fill="#63b8ff" stroke="#63b8ff" points="659.95,-195 669.95,-191.5 659.95,-188 659.95,-195"/>
</a>
</g>
</g>
<!-- Node28&#45;&gt;Node3 -->
<g id="edge56_Node000028_Node000003" class="edge">
<title>Node28&#45;&gt;Node3</title>
<g id="a_edge56_Node000028_Node000003"><a xlink:title=" ">
<path fill="none" stroke="#63b8ff" d="M828.23,-181.97C905.64,-173.18 1028.68,-161.5 1135.5,-161.5 1135.5,-161.5 1135.5,-161.5 1554,-161.5 1680.57,-161.5 1736.88,-106.38 1838,-182.5 1898.56,-228.09 1911.21,-326.86 1913.83,-369.37"/>
<polygon fill="#63b8ff" stroke="#63b8ff" points="1910.34,-369.75 1914.32,-379.56 1917.33,-369.41 1910.34,-369.75"/>
</a>
</g>
</g>
<!-- Node29 -->
<g id="Node000029" class="node">
<title>Node29</title>
<g id="a_Node000029"><a xlink:href="class_bit_vector.html#ad64e921d07b9528a532477f282af135c" target="_top" xlink:title="How many element can fit in this vector without having to resize the vector ?">
<polygon fill="white" stroke="#666666" points="1009,-219.5 867,-219.5 867,-189.5 1009,-189.5 1009,-219.5"/>
<text text-anchor="start" x="875" y="-207.5" font-family="Helvetica,sans-Serif" font-size="10.00">BitVector::currentElement</text>
<text text-anchor="middle" x="938" y="-196.5" font-family="Helvetica,sans-Serif" font-size="10.00">Capacity</text>
</a>
</g>
</g>
<!-- Node28&#45;&gt;Node29 -->
<g id="edge48_Node000028_Node000029" class="edge">
<title>Node28&#45;&gt;Node29</title>
<g id="a_edge48_Node000028_Node000029"><a xlink:title=" ">
<path fill="none" stroke="#63b8ff" d="M831.25,-197.09C839.69,-197.68 848.29,-198.28 856.74,-198.88"/>
<polygon fill="#63b8ff" stroke="#63b8ff" points="856.74,-202.38 866.96,-199.59 857.23,-195.4 856.74,-202.38"/>
</a>
</g>
</g>
<!-- Node29&#45;&gt;Node25 -->
<g id="edge55_Node000029_Node000025" class="edge">
<title>Node29&#45;&gt;Node25</title>
<g id="a_edge55_Node000029_Node000025"><a xlink:title=" ">
<path fill="none" stroke="#63b8ff" d="M969.27,-219.6C1006.83,-238.33 1070.37,-270.02 1107.05,-288.31"/>
<polygon fill="#63b8ff" stroke="#63b8ff" points="1105.7,-291.55 1116.21,-292.88 1108.82,-285.28 1105.7,-291.55"/>
</a>
</g>
</g>
<!-- Node30 -->
<g id="Node000030" class="node">
<title>Node30</title>
<g id="a_Node000030"><a xlink:href="class_bit_vector.html#a5af3c70f593aac387de23c7e6e5ae57e" target="_top" xlink:title="Find the element that correspond to coord .">
<polygon fill="white" stroke="#666666" points="1210,-214 1063,-214 1063,-195 1210,-195 1210,-214"/>
<text text-anchor="middle" x="1136.5" y="-202" font-family="Helvetica,sans-Serif" font-size="10.00">BitVector::indexCoordinate</text>
</a>
</g>
</g>
<!-- Node29&#45;&gt;Node30 -->
<g id="edge49_Node000029_Node000030" class="edge">
<title>Node29&#45;&gt;Node30</title>
<g id="a_edge49_Node000029_Node000030"><a xlink:title=" ">
<path fill="none" stroke="#63b8ff" d="M1009.11,-204.5C1023.12,-204.5 1037.97,-204.5 1052.37,-204.5"/>
<polygon fill="#63b8ff" stroke="#63b8ff" points="1052.76,-208 1062.76,-204.5 1052.76,-201 1052.76,-208"/>
</a>
</g>
</g>
<!-- Node30&#45;&gt;Node3 -->
<g id="edge50_Node000030_Node000003" class="edge">
<title>Node30&#45;&gt;Node3</title>
<g id="a_edge50_Node000030_Node000003"><a xlink:title=" ">
<path fill="none" stroke="#63b8ff" d="M1210.3,-197.08C1368.33,-182.44 1736.76,-156.73 1838,-223.5 1888.67,-256.92 1906.33,-333.09 1912.02,-369.45"/>
<polygon fill="#63b8ff" stroke="#63b8ff" points="1908.61,-370.34 1913.47,-379.76 1915.54,-369.37 1908.61,-370.34"/>
</a>
</g>
</g>
<!-- Node31 -->
<g id="Node000031" class="node">
<title>Node31</title>
<g id="a_Node000031"><a xlink:href="class_bit_vector.html#a354c83853bc3622efa5d45efcae97286" target="_top" xlink:title="Give more detailed on BiteVector::indexCoordinate.">
<polygon fill="white" stroke="#666666" points="1418.5,-313.5 1271.5,-313.5 1271.5,-283.5 1418.5,-283.5 1418.5,-313.5"/>
<text text-anchor="start" x="1279.5" y="-301.5" font-family="Helvetica,sans-Serif" font-size="10.00">BitVector::indexCoordinate</text>
<text text-anchor="middle" x="1345" y="-290.5" font-family="Helvetica,sans-Serif" font-size="10.00">Untreated</text>
</a>
</g>
</g>
<!-- Node30&#45;&gt;Node31 -->
<g id="edge51_Node000030_Node000031" class="edge">
<title>Node30&#45;&gt;Node31</title>
<g id="a_edge51_Node000030_Node000031"><a xlink:title=" ">
<path fill="none" stroke="#63b8ff" d="M1158.44,-214.03C1191.87,-229.25 1257.98,-259.34 1301.59,-279.19"/>
<polygon fill="#63b8ff" stroke="#63b8ff" points="1300.25,-282.43 1310.8,-283.39 1303.15,-276.06 1300.25,-282.43"/>
</a>
</g>
</g>
<!-- Node31&#45;&gt;Node3 -->
<g id="edge52_Node000031_Node000003" class="edge">
<title>Node31&#45;&gt;Node3</title>
<g id="a_edge52_Node000031_Node000003"><a xlink:title=" ">
<path fill="none" stroke="#63b8ff" d="M1416.89,-283.49C1515.93,-266.07 1699.16,-246.97 1838,-308.5 1867.33,-321.5 1890.77,-351.65 1903.63,-371.28"/>
<polygon fill="#63b8ff" stroke="#63b8ff" points="1900.8,-373.34 1909.08,-379.95 1906.72,-369.62 1900.8,-373.34"/>
</a>
</g>
</g>
<!-- Node31&#45;&gt;Node20 -->
<g id="edge53_Node000031_Node000020" class="edge">
<title>Node31&#45;&gt;Node20</title>
<g id="a_edge53_Node000031_Node000020"><a xlink:title=" ">
<path fill="none" stroke="#63b8ff" d="M1399.32,-313.51C1427.59,-321.47 1462.44,-331.28 1491.7,-339.52"/>
<polygon fill="#63b8ff" stroke="#63b8ff" points="1490.81,-342.91 1501.39,-342.25 1492.71,-336.17 1490.81,-342.91"/>
</a>
</g>
</g>
<!-- Node31&#45;&gt;Node21 -->
<g id="edge54_Node000031_Node000021" class="edge">
<title>Node31&#45;&gt;Node21</title>
<g id="a_edge54_Node000031_Node000021"><a xlink:title=" ">
<path fill="none" stroke="#63b8ff" d="M1418.71,-304.5C1497.14,-310.97 1620.76,-321.17 1695.14,-327.31"/>
<polygon fill="#63b8ff" stroke="#63b8ff" points="1695.04,-330.82 1705.3,-328.15 1695.62,-323.84 1695.04,-330.82"/>
</a>
</g>
</g>
</g>
</svg>

<g id="navigator" transform="translate(0 0)" fill="#404254">
  <rect fill="#f2f5e9" fill-opacity="0.5" stroke="#606060" stroke-width=".5" x="0" y="0" width="60" height="60"/>
  <use id="zoomplus" xlink:href="#zoomPlus" x="17" y="9" onmousedown="handleZoom(evt,'in')"/>
  <use id="zoomminus" xlink:href="#zoomMin" x="42" y="9" onmousedown="handleZoom(evt,'out')"/>
  <use id="reset" xlink:href="#resetDef" x="30" y="36" onmousedown="handleReset()"/>
   <use id="arrowup" xlink:href="#arrowUp" x="0" y="0" onmousedown="handlePan(0,-1)"/>
  <use id="arrowright" xlink:href="#arrowRight" x="0" y="0" onmousedown="handlePan(1,0)"/>
  <use id="arrowdown" xlink:href="#arrowDown" x="0" y="0" onmousedown="handlePan(0,1)"/>
  <use id="arrowleft" xlink:href="#arrowLeft" x="0" y="0" onmousedown="handlePan(-1,0)"/>
</g>
<svg viewBox="0 0 15 15" width="100%" height="30px" preserveAspectRatio="xMaxYMin meet">
 <g id="arrow_out" transform="scale(0.3 0.3)">
  <a xlink:href="class_sequence_a3cf6cf5e54782f4d1a2ee07ec519523c_cgraph_org.svg" target="_base">
   <rect id="button" ry="5" rx="5" y="6" x="6" height="38" width="38"
        fill="#f2f5e9" fill-opacity="0.5" stroke="#606060" stroke-width="1.0"/>
   <path id="arrow"
     d="M 11.500037,31.436501 C 11.940474,20.09759 22.043105,11.32322 32.158766,21.979434 L 37.068811,17.246167 C 37.068811,17.246167 37.088388,32 37.088388,32 L 22.160133,31.978069 C 22.160133,31.978069 26.997745,27.140456 26.997745,27.140456 C 18.528582,18.264221 13.291696,25.230495 11.500037,31.436501 z"
     style="fill:#404040;"/>
  </a>
 </g>
</svg>

<style type='text/css'>
<![CDATA[
[data-mouse-over-selected='false'] { opacity: 0.7; }
[data-mouse-over-selected='true']  { opacity: 1.0; }
]]>
</style>
<script type="application/ecmascript"><![CDATA[
document.addEventListener('DOMContentLoaded', (event) => {
  highlightEdges();
  highlightAdjacentNodes();
});
]]></script>
</svg>
