<?xml version="1.0" encoding="UTF-8" standalone="no"?>
<!DOCTYPE svg PUBLIC "-//W3C//DTD SVG 1.1//EN"
 "http://www.w3.org/Graphics/SVG/1.1/DTD/svg11.dtd">
<!-- Generated by graphviz version 2.43.0 (0)
 -->
<!-- Title: FastaRelated Pages: 1 -->
<!--zoomable 509 -->

<svg id="main" version="1.1" xmlns="http://www.w3.org/2000/svg" xmlns:xlink="http://www.w3.org/1999/xlink" xml:space="preserve" onload="init(evt)">
<style type="text/css"><![CDATA[
.node, .edge {opacity: 0.7;}
.node.selected, .edge.selected {opacity: 1;}
.edge:hover path { stroke: red; }
.edge:hover polygon { stroke: red; fill: red; }
]]></style>

<defs>
  <circle id="rim" cx="0" cy="0" r="7"/>
  <circle id="rim2" cx="0" cy="0" r="3.5"/>
  <g id="zoomPlus">
    <use xlink:href="#rim" fill="#404040"><set attributeName="fill" to="#808080" begin="zoomplus.mouseover" end="zoomplus.mouseout"/></use>
    <path d="M-4,0h8M0,-4v8" fill="none" stroke="white" stroke-width="1.5" pointer-events="none"/>
  </g>
  <g id="zoomMin">
    <use xlink:href="#rim" fill="#404040"><set attributeName="fill" to="#808080" begin="zoomminus.mouseover" end="zoomminus.mouseout"/></use>
    <path d="M-4,0h8" fill="none" stroke="white" stroke-width="1.5" pointer-events="none"/>
  </g>
  <g id="arrowUp" transform="translate(30 24)">
    <use xlink:href="#rim"/>
    <path pointer-events="none" fill="none" stroke="white" stroke-width="1.5" d="M0,-3.0v7 M-2.5,-0.5L0,-3.0L2.5,-0.5"/>
  </g>
  <g id="arrowRight" transform="rotate(90) translate(36 -43)">
    <use xlink:href="#rim"/>
    <path pointer-events="none" fill="none" stroke="white" stroke-width="1.5" d="M0,-3.0v7 M-2.5,-0.5L0,-3.0L2.5,-0.5"/>
  </g>
  <g id="arrowDown" transform="rotate(180) translate(-30 -48)">
    <use xlink:href="#rim"/>
    <path pointer-events="none" fill="none" stroke="white" stroke-width="1.5" d="M0,-3.0v7 M-2.5,-0.5L0,-3.0L2.5,-0.5"/>
  </g>
  <g id="arrowLeft" transform="rotate(270) translate(-36 17)">
    <use xlink:href="#rim"/>
    <path pointer-events="none" fill="none" stroke="white" stroke-width="1.5" d="M0,-3.0v7 M-2.5,-0.5L0,-3.0L2.5,-0.5"/>
  </g>
  <g id="resetDef">
    <use xlink:href="#rim2" fill="#404040"><set attributeName="fill" to="#808080" begin="reset.mouseover" end="reset.mouseout"/></use>
  </g>
</defs>
<script type="application/ecmascript">
var viewWidth = 429;
var viewHeight = 509;
var sectionId = 'dynsection-0';
</script>
<script type="application/ecmascript" xlink:href="svg.min.js"/>
<svg id="graph" class="graph">
<g id="viewport">
<title>FastaRelated</title>
<!-- Node1 -->
<g id="Node000001" class="node">
<title>Node1</title>
<g id="a_Node000001"><a xlink:title="Class inherited by all class related to FastaFiles.">
<polygon fill="#999999" stroke="transparent" points="309.5,-501 179.5,-501 179.5,-347 309.5,-347 309.5,-501"/>
<text text-anchor="start" x="212.5" y="-489" font-family="Helvetica,sans-Serif" font-size="10.00">FastaRelated</text>
<text text-anchor="start" x="186" y="-474" font-family="Helvetica,sans-Serif" font-size="10.00">&#45;</text>
<text text-anchor="start" x="196.5" y="-474" font-family="Helvetica,sans-Serif" font-size="10.00">legalMultiHeaderChar</text>
<text text-anchor="start" x="186" y="-459" font-family="Helvetica,sans-Serif" font-size="10.00">&#45;</text>
<text text-anchor="start" x="196.5" y="-459" font-family="Helvetica,sans-Serif" font-size="10.00">legalMonoHeaderChar</text>
<text text-anchor="start" x="186" y="-444" font-family="Helvetica,sans-Serif" font-size="10.00">&#45;</text>
<text text-anchor="start" x="196.5" y="-444" font-family="Helvetica,sans-Serif" font-size="10.00">legalCommentChar</text>
<text text-anchor="start" x="186" y="-429" font-family="Helvetica,sans-Serif" font-size="10.00">&#45;</text>
<text text-anchor="start" x="196.5" y="-429" font-family="Helvetica,sans-Serif" font-size="10.00">blankChar</text>
<text text-anchor="start" x="183.5" y="-414" font-family="Helvetica,sans-Serif" font-size="10.00">+</text>
<text text-anchor="start" x="196.5" y="-414" font-family="Helvetica,sans-Serif" font-size="10.00">isHeaderChar()</text>
<text text-anchor="start" x="183.5" y="-399" font-family="Helvetica,sans-Serif" font-size="10.00">+</text>
<text text-anchor="start" x="196.5" y="-399" font-family="Helvetica,sans-Serif" font-size="10.00">isMonoHeaderChar()</text>
<text text-anchor="start" x="183.5" y="-384" font-family="Helvetica,sans-Serif" font-size="10.00">+</text>
<text text-anchor="start" x="196.5" y="-384" font-family="Helvetica,sans-Serif" font-size="10.00">isMultiHeaderChar()</text>
<text text-anchor="start" x="183.5" y="-369" font-family="Helvetica,sans-Serif" font-size="10.00">+</text>
<text text-anchor="start" x="196.5" y="-369" font-family="Helvetica,sans-Serif" font-size="10.00">isCommentChar()</text>
<text text-anchor="start" x="183.5" y="-354" font-family="Helvetica,sans-Serif" font-size="10.00">+</text>
<text text-anchor="start" x="196.5" y="-354" font-family="Helvetica,sans-Serif" font-size="10.00">isBlankChar()</text>
<polygon fill="#666666" stroke="#666666" points="179.5,-484 179.5,-484 309.5,-484 309.5,-484 179.5,-484"/>
<polygon fill="#666666" stroke="#666666" points="179.5,-424 179.5,-424 194.5,-424 194.5,-424 179.5,-424"/>
<polygon fill="#666666" stroke="#666666" points="194.5,-424 194.5,-424 309.5,-424 309.5,-424 194.5,-424"/>
<polygon fill="none" stroke="#666666" points="179.5,-347 179.5,-501 309.5,-501 309.5,-347 179.5,-347"/>
</a>
</g>
</g>
<!-- Node2 -->
<g id="Node000002" class="node">
<title>Node2</title>
<g id="a_Node000002"><a xlink:href="class_fasta_header.html" target="_top" xlink:title="A header function that is supposed to be hubble to parse Header from Fasta file.">
<polygon fill="white" stroke="transparent" points="187,-311 0,-311 0,0 187,0 187,-311"/>
<text text-anchor="start" x="63.5" y="-298.5" font-family="Helvetica,sans-Serif" font-size="10.00">FastaHeader</text>
<text text-anchor="start" x="7" y="-283.5" font-family="Helvetica,sans-Serif" font-size="10.00">&#45;</text>
<text text-anchor="start" x="17.5" y="-283.5" font-family="Helvetica,sans-Serif" font-size="10.00">identifier_format</text>
<text text-anchor="start" x="7" y="-268.5" font-family="Helvetica,sans-Serif" font-size="10.00">&#45;</text>
<text text-anchor="start" x="17.5" y="-268.5" font-family="Helvetica,sans-Serif" font-size="10.00">identifier</text>
<text text-anchor="start" x="4.5" y="-253.5" font-family="Helvetica,sans-Serif" font-size="10.00">+</text>
<text text-anchor="start" x="17.5" y="-253.5" font-family="Helvetica,sans-Serif" font-size="10.00">FastaHeader()</text>
<text text-anchor="start" x="4.5" y="-238.5" font-family="Helvetica,sans-Serif" font-size="10.00">+</text>
<text text-anchor="start" x="17.5" y="-238.5" font-family="Helvetica,sans-Serif" font-size="10.00">FastaHeader()</text>
<text text-anchor="start" x="4.5" y="-223.5" font-family="Helvetica,sans-Serif" font-size="10.00">+</text>
<text text-anchor="start" x="17.5" y="-223.5" font-family="Helvetica,sans-Serif" font-size="10.00">load()</text>
<text text-anchor="start" x="4.5" y="-208.5" font-family="Helvetica,sans-Serif" font-size="10.00">+</text>
<text text-anchor="start" x="17.5" y="-208.5" font-family="Helvetica,sans-Serif" font-size="10.00">getIdentifiers()</text>
<text text-anchor="start" x="4.5" y="-193.5" font-family="Helvetica,sans-Serif" font-size="10.00">+</text>
<text text-anchor="start" x="17.5" y="-193.5" font-family="Helvetica,sans-Serif" font-size="10.00">getFormat()</text>
<text text-anchor="start" x="4.5" y="-178.5" font-family="Helvetica,sans-Serif" font-size="10.00">+</text>
<text text-anchor="start" x="17.5" y="-178.5" font-family="Helvetica,sans-Serif" font-size="10.00">findFirstWord()</text>
<text text-anchor="start" x="4.5" y="-163.5" font-family="Helvetica,sans-Serif" font-size="10.00">+</text>
<text text-anchor="start" x="17.5" y="-163.5" font-family="Helvetica,sans-Serif" font-size="10.00">clearRawHeader()</text>
<text text-anchor="start" x="4.5" y="-148.5" font-family="Helvetica,sans-Serif" font-size="10.00">+</text>
<text text-anchor="start" x="17.5" y="-148.5" font-family="Helvetica,sans-Serif" font-size="10.00">cutRawHeader()</text>
<text text-anchor="start" x="4.5" y="-133.5" font-family="Helvetica,sans-Serif" font-size="10.00">+</text>
<text text-anchor="start" x="17.5" y="-133.5" font-family="Helvetica,sans-Serif" font-size="10.00">parseRawHeader()</text>
<text text-anchor="start" x="4.5" y="-118.5" font-family="Helvetica,sans-Serif" font-size="10.00">+</text>
<text text-anchor="start" x="17.5" y="-118.5" font-family="Helvetica,sans-Serif" font-size="10.00">parseRawHeader()</text>
<text text-anchor="start" x="4.5" y="-103.5" font-family="Helvetica,sans-Serif" font-size="10.00">+</text>
<text text-anchor="start" x="17.5" y="-103.5" font-family="Helvetica,sans-Serif" font-size="10.00">intermediateMakeFormatFrom</text>
<text text-anchor="start" x="17.5" y="-92.5" font-family="Helvetica,sans-Serif" font-size="10.00">Vector()</text>
<text text-anchor="start" x="4.5" y="-77.5" font-family="Helvetica,sans-Serif" font-size="10.00">+</text>
<text text-anchor="start" x="17.5" y="-77.5" font-family="Helvetica,sans-Serif" font-size="10.00">makeGenInfoBackboneIdHeader()</text>
<text text-anchor="start" x="4.5" y="-62.5" font-family="Helvetica,sans-Serif" font-size="10.00">+</text>
<text text-anchor="start" x="17.5" y="-62.5" font-family="Helvetica,sans-Serif" font-size="10.00">parseGenInfoBackboneIdHeader()</text>
<text text-anchor="start" x="4.5" y="-47.5" font-family="Helvetica,sans-Serif" font-size="10.00">+</text>
<text text-anchor="start" x="17.5" y="-47.5" font-family="Helvetica,sans-Serif" font-size="10.00">parseGenInfoBackboneIdHeader()</text>
<text text-anchor="start" x="4.5" y="-32.5" font-family="Helvetica,sans-Serif" font-size="10.00">+</text>
<text text-anchor="start" x="17.5" y="-32.5" font-family="Helvetica,sans-Serif" font-size="10.00">makeGenInfoBackboneMoltype</text>
<text text-anchor="start" x="17.5" y="-21.5" font-family="Helvetica,sans-Serif" font-size="10.00">Header()</text>
<text text-anchor="start" x="17.5" y="-6.5" font-family="Helvetica,sans-Serif" font-size="10.00">and 59 more...</text>
<polygon fill="#666666" stroke="#666666" points="0.5,-293.5 0.5,-293.5 187.5,-293.5 187.5,-293.5 0.5,-293.5"/>
<polygon fill="#666666" stroke="#666666" points="0.5,-263.5 0.5,-263.5 15.5,-263.5 15.5,-263.5 0.5,-263.5"/>
<polygon fill="#666666" stroke="#666666" points="15.5,-263.5 15.5,-263.5 187.5,-263.5 187.5,-263.5 15.5,-263.5"/>
<polygon fill="none" stroke="#666666" points="0,0 0,-311 187,-311 187,0 0,0"/>
</a>
</g>
</g>
<!-- Node1&#45;&gt;Node2 -->
<g id="edge1_Node000001_Node000002" class="edge">
<title>Node1&#45;&gt;Node2</title>
<g id="a_edge1_Node000001_Node000002"><a xlink:title=" ">
<path fill="none" stroke="#63b8ff" d="M196.37,-338.05C191.44,-329.36 186.34,-320.35 181.16,-311.21"/>
<polygon fill="none" stroke="#63b8ff" points="193.46,-340.01 201.43,-346.99 199.55,-336.56 193.46,-340.01"/>
</a>
</g>
</g>
<!-- Node3 -->
<g id="Node000003" class="node">
<title>Node3</title>
<g id="a_Node000003"><a xlink:href="class_fasta_manager.html" target="_top" xlink:title="Class that should represent a Fasta File.">
<polygon fill="white" stroke="transparent" points="284,-187.5 205,-187.5 205,-123.5 284,-123.5 284,-187.5"/>
<text text-anchor="start" x="210.5" y="-175.5" font-family="Helvetica,sans-Serif" font-size="10.00">FastaManager</text>
<text text-anchor="start" x="243" y="-160.5" font-family="Helvetica,sans-Serif" font-size="10.00"> </text>
<text text-anchor="start" x="211.5" y="-145.5" font-family="Helvetica,sans-Serif" font-size="10.00">+</text>
<text text-anchor="start" x="226.5" y="-145.5" font-family="Helvetica,sans-Serif" font-size="10.00">loadFile()</text>
<text text-anchor="start" x="211.5" y="-130.5" font-family="Helvetica,sans-Serif" font-size="10.00">+</text>
<text text-anchor="start" x="226.5" y="-130.5" font-family="Helvetica,sans-Serif" font-size="10.00">loadText()</text>
<polygon fill="#666666" stroke="#666666" points="205.5,-170.5 205.5,-170.5 284.5,-170.5 284.5,-170.5 205.5,-170.5"/>
<polygon fill="#666666" stroke="#666666" points="205.5,-155.5 205.5,-155.5 284.5,-155.5 284.5,-155.5 205.5,-155.5"/>
<polygon fill="none" stroke="#666666" points="205,-123.5 205,-187.5 284,-187.5 284,-123.5 205,-123.5"/>
</a>
</g>
</g>
<!-- Node1&#45;&gt;Node3 -->
<g id="edge2_Node000001_Node000003" class="edge">
<title>Node1&#45;&gt;Node3</title>
<g id="a_edge2_Node000001_Node000003"><a xlink:title=" ">
<path fill="none" stroke="#8b1a1a" d="M244.5,-336.93C244.5,-285.89 244.5,-224.23 244.5,-187.81"/>
<polygon fill="none" stroke="#8b1a1a" points="241,-336.99 244.5,-346.99 248,-336.99 241,-336.99"/>
</a>
</g>
</g>
<!-- Node4 -->
<g id="Node000004" class="node">
<title>Node4</title>
<g id="a_Node000004"><a xlink:href="class_fasta_sequence.html" target="_top" xlink:title="Class that represent Sequence inside a fasta File. Can hold comment.">
<polygon fill="white" stroke="transparent" points="420.5,-247.5 302.5,-247.5 302.5,-63.5 420.5,-63.5 420.5,-247.5"/>
<text text-anchor="start" x="325" y="-235.5" font-family="Helvetica,sans-Serif" font-size="10.00">FastaSequence</text>
<text text-anchor="start" x="309" y="-220.5" font-family="Helvetica,sans-Serif" font-size="10.00">&#45;</text>
<text text-anchor="start" x="319.5" y="-220.5" font-family="Helvetica,sans-Serif" font-size="10.00">comments</text>
<text text-anchor="start" x="306.5" y="-205.5" font-family="Helvetica,sans-Serif" font-size="10.00">+</text>
<text text-anchor="start" x="319.5" y="-205.5" font-family="Helvetica,sans-Serif" font-size="10.00">getAllComment()</text>
<text text-anchor="start" x="306.5" y="-190.5" font-family="Helvetica,sans-Serif" font-size="10.00">+</text>
<text text-anchor="start" x="319.5" y="-190.5" font-family="Helvetica,sans-Serif" font-size="10.00">FastaSequence()</text>
<text text-anchor="start" x="306.5" y="-175.5" font-family="Helvetica,sans-Serif" font-size="10.00">+</text>
<text text-anchor="start" x="319.5" y="-175.5" font-family="Helvetica,sans-Serif" font-size="10.00">insert()</text>
<text text-anchor="start" x="306.5" y="-160.5" font-family="Helvetica,sans-Serif" font-size="10.00">+</text>
<text text-anchor="start" x="319.5" y="-160.5" font-family="Helvetica,sans-Serif" font-size="10.00">eraseSeq()</text>
<text text-anchor="start" x="306.5" y="-145.5" font-family="Helvetica,sans-Serif" font-size="10.00">+</text>
<text text-anchor="start" x="319.5" y="-145.5" font-family="Helvetica,sans-Serif" font-size="10.00">addComment()</text>
<text text-anchor="start" x="306.5" y="-130.5" font-family="Helvetica,sans-Serif" font-size="10.00">+</text>
<text text-anchor="start" x="319.5" y="-130.5" font-family="Helvetica,sans-Serif" font-size="10.00">loadComments()</text>
<text text-anchor="start" x="306.5" y="-115.5" font-family="Helvetica,sans-Serif" font-size="10.00">+</text>
<text text-anchor="start" x="319.5" y="-115.5" font-family="Helvetica,sans-Serif" font-size="10.00">removeComment()</text>
<text text-anchor="start" x="306.5" y="-100.5" font-family="Helvetica,sans-Serif" font-size="10.00">+</text>
<text text-anchor="start" x="319.5" y="-100.5" font-family="Helvetica,sans-Serif" font-size="10.00">displaceComment()</text>
<text text-anchor="start" x="306.5" y="-85.5" font-family="Helvetica,sans-Serif" font-size="10.00">+</text>
<text text-anchor="start" x="319.5" y="-85.5" font-family="Helvetica,sans-Serif" font-size="10.00">isCommentedPos()</text>
<text text-anchor="start" x="306.5" y="-70.5" font-family="Helvetica,sans-Serif" font-size="10.00">+</text>
<text text-anchor="start" x="319.5" y="-70.5" font-family="Helvetica,sans-Serif" font-size="10.00">getComment()</text>
<polygon fill="#666666" stroke="#666666" points="302.5,-230.5 302.5,-230.5 420.5,-230.5 420.5,-230.5 302.5,-230.5"/>
<polygon fill="#666666" stroke="#666666" points="302.5,-215.5 302.5,-215.5 317.5,-215.5 317.5,-215.5 302.5,-215.5"/>
<polygon fill="#666666" stroke="#666666" points="317.5,-215.5 317.5,-215.5 420.5,-215.5 420.5,-215.5 317.5,-215.5"/>
<polygon fill="none" stroke="#666666" points="302.5,-63.5 302.5,-247.5 420.5,-247.5 420.5,-63.5 302.5,-63.5"/>
</a>
</g>
</g>
<!-- Node1&#45;&gt;Node4 -->
<g id="edge3_Node000001_Node000004" class="edge">
<title>Node1&#45;&gt;Node4</title>
<g id="a_edge3_Node000001_Node000004"><a xlink:title=" ">
<path fill="none" stroke="#63b8ff" d="M281.91,-337.79C294.52,-309.07 308.64,-276.91 321.44,-247.74"/>
<polygon fill="none" stroke="#63b8ff" points="278.69,-336.43 277.87,-346.99 285.1,-339.24 278.69,-336.43"/>
</a>
</g>
</g>
</g>
</svg>

<g id="navigator" transform="translate(0 0)" fill="#404254">
  <rect fill="#f2f5e9" fill-opacity="0.5" stroke="#606060" stroke-width=".5" x="0" y="0" width="60" height="60"/>
  <use id="zoomplus" xlink:href="#zoomPlus" x="17" y="9" onmousedown="handleZoom(evt,'in')"/>
  <use id="zoomminus" xlink:href="#zoomMin" x="42" y="9" onmousedown="handleZoom(evt,'out')"/>
  <use id="reset" xlink:href="#resetDef" x="30" y="36" onmousedown="handleReset()"/>
   <use id="arrowup" xlink:href="#arrowUp" x="0" y="0" onmousedown="handlePan(0,-1)"/>
  <use id="arrowright" xlink:href="#arrowRight" x="0" y="0" onmousedown="handlePan(1,0)"/>
  <use id="arrowdown" xlink:href="#arrowDown" x="0" y="0" onmousedown="handlePan(0,1)"/>
  <use id="arrowleft" xlink:href="#arrowLeft" x="0" y="0" onmousedown="handlePan(-1,0)"/>
</g>
<svg viewBox="0 0 15 15" width="100%" height="30px" preserveAspectRatio="xMaxYMin meet">
 <g id="arrow_out" transform="scale(0.3 0.3)">
  <a xlink:href="class_fasta_related__inherit__graph_org.svg" target="_base">
   <rect id="button" ry="5" rx="5" y="6" x="6" height="38" width="38"
        fill="#f2f5e9" fill-opacity="0.5" stroke="#606060" stroke-width="1.0"/>
   <path id="arrow"
     d="M 11.500037,31.436501 C 11.940474,20.09759 22.043105,11.32322 32.158766,21.979434 L 37.068811,17.246167 C 37.068811,17.246167 37.088388,32 37.088388,32 L 22.160133,31.978069 C 22.160133,31.978069 26.997745,27.140456 26.997745,27.140456 C 18.528582,18.264221 13.291696,25.230495 11.500037,31.436501 z"
     style="fill:#404040;"/>
  </a>
 </g>
</svg>

<style type='text/css'>
<![CDATA[
[data-mouse-over-selected='false'] { opacity: 0.7; }
[data-mouse-over-selected='true']  { opacity: 1.0; }
]]>
</style>
<script type="application/ecmascript"><![CDATA[
document.addEventListener('DOMContentLoaded', (event) => {
  highlightEdges();
  highlightAdjacentNodes();
});
]]></script>
</svg>
