<?xml version="1.0" encoding="UTF-8" standalone="no"?>
<!DOCTYPE svg PUBLIC "-//W3C//DTD SVG 1.1//EN"
 "http://www.w3.org/Graphics/SVG/1.1/DTD/svg11.dtd">
<!-- Generated by graphviz version 2.43.0 (0)
 -->
<!-- Title: BitVector::Coords::toSize_t Pages: 1 -->
<!--zoomable 555 -->

<svg id="main" version="1.1" xmlns="http://www.w3.org/2000/svg" xmlns:xlink="http://www.w3.org/1999/xlink" xml:space="preserve" onload="init(evt)">
<style type="text/css"><![CDATA[
.node, .edge {opacity: 0.7;}
.node.selected, .edge.selected {opacity: 1;}
.edge:hover path { stroke: red; }
.edge:hover polygon { stroke: red; fill: red; }
]]></style>

<defs>
  <circle id="rim" cx="0" cy="0" r="7"/>
  <circle id="rim2" cx="0" cy="0" r="3.5"/>
  <g id="zoomPlus">
    <use xlink:href="#rim" fill="#404040"><set attributeName="fill" to="#808080" begin="zoomplus.mouseover" end="zoomplus.mouseout"/></use>
    <path d="M-4,0h8M0,-4v8" fill="none" stroke="white" stroke-width="1.5" pointer-events="none"/>
  </g>
  <g id="zoomMin">
    <use xlink:href="#rim" fill="#404040"><set attributeName="fill" to="#808080" begin="zoomminus.mouseover" end="zoomminus.mouseout"/></use>
    <path d="M-4,0h8" fill="none" stroke="white" stroke-width="1.5" pointer-events="none"/>
  </g>
  <g id="arrowUp" transform="translate(30 24)">
    <use xlink:href="#rim"/>
    <path pointer-events="none" fill="none" stroke="white" stroke-width="1.5" d="M0,-3.0v7 M-2.5,-0.5L0,-3.0L2.5,-0.5"/>
  </g>
  <g id="arrowRight" transform="rotate(90) translate(36 -43)">
    <use xlink:href="#rim"/>
    <path pointer-events="none" fill="none" stroke="white" stroke-width="1.5" d="M0,-3.0v7 M-2.5,-0.5L0,-3.0L2.5,-0.5"/>
  </g>
  <g id="arrowDown" transform="rotate(180) translate(-30 -48)">
    <use xlink:href="#rim"/>
    <path pointer-events="none" fill="none" stroke="white" stroke-width="1.5" d="M0,-3.0v7 M-2.5,-0.5L0,-3.0L2.5,-0.5"/>
  </g>
  <g id="arrowLeft" transform="rotate(270) translate(-36 17)">
    <use xlink:href="#rim"/>
    <path pointer-events="none" fill="none" stroke="white" stroke-width="1.5" d="M0,-3.0v7 M-2.5,-0.5L0,-3.0L2.5,-0.5"/>
  </g>
  <g id="resetDef">
    <use xlink:href="#rim2" fill="#404040"><set attributeName="fill" to="#808080" begin="reset.mouseover" end="reset.mouseout"/></use>
  </g>
</defs>
<script type="application/ecmascript">
var viewWidth = 1899;
var viewHeight = 555;
var sectionId = 'dynsection-36';
</script>
<script type="application/ecmascript" xlink:href="svg.min.js"/>
<svg id="graph" class="graph">
<g id="viewport">
<title>BitVector::Coords::toSize_t</title>
<!-- Node1 -->
<g id="Node000001" class="node">
<title>Node1</title>
<g id="a_Node000001"><a xlink:title="Translate octet and bit value inside a size_t. Allow easier mathematic computations.">
<polygon fill="#999999" stroke="#666666" points="1891,-189.5 1784,-189.5 1784,-159.5 1891,-159.5 1891,-189.5"/>
<text text-anchor="start" x="1792" y="-177.5" font-family="Helvetica,sans-Serif" font-size="10.00">BitVector::Coords::</text>
<text text-anchor="middle" x="1837.5" y="-166.5" font-family="Helvetica,sans-Serif" font-size="10.00">toSize_t</text>
</a>
</g>
</g>
<!-- Node2 -->
<g id="Node000002" class="node">
<title>Node2</title>
<g id="a_Node000002"><a xlink:href="class_bit_vector.html#af68cda7444ec4459393bbfa423f0a7dd" target="_top" xlink:title="Get the Size_t value if a BitVector::CoordUnit.">
<polygon fill="white" stroke="#666666" points="1748,-168.5 1645,-168.5 1645,-138.5 1748,-138.5 1748,-168.5"/>
<text text-anchor="start" x="1653" y="-156.5" font-family="Helvetica,sans-Serif" font-size="10.00">BitVector::getSize</text>
<text text-anchor="middle" x="1696.5" y="-145.5" font-family="Helvetica,sans-Serif" font-size="10.00">_tUnit</text>
</a>
</g>
</g>
<!-- Node1&#45;&gt;Node2 -->
<g id="edge1_Node000001_Node000002" class="edge">
<title>Node1&#45;&gt;Node2</title>
<g id="a_edge1_Node000001_Node000002"><a xlink:title=" ">
<path fill="none" stroke="#63b8ff" d="M1773.96,-165.05C1765.37,-163.75 1756.63,-162.43 1748.28,-161.17"/>
<polygon fill="#63b8ff" stroke="#63b8ff" points="1773.54,-168.53 1783.95,-166.56 1774.59,-161.61 1773.54,-168.53"/>
</a>
</g>
</g>
<!-- Node3 -->
<g id="Node000003" class="node">
<title>Node3</title>
<g id="a_Node000003"><a xlink:href="class_bit_vector.html#a354c83853bc3622efa5d45efcae97286" target="_top" xlink:title="Give more detailed on BiteVector::indexCoordinate.">
<polygon fill="white" stroke="#666666" points="1605.5,-249.5 1458.5,-249.5 1458.5,-219.5 1605.5,-219.5 1605.5,-249.5"/>
<text text-anchor="start" x="1466.5" y="-237.5" font-family="Helvetica,sans-Serif" font-size="10.00">BitVector::indexCoordinate</text>
<text text-anchor="middle" x="1532" y="-226.5" font-family="Helvetica,sans-Serif" font-size="10.00">Untreated</text>
</a>
</g>
</g>
<!-- Node1&#45;&gt;Node3 -->
<g id="edge51_Node000001_Node000003" class="edge">
<title>Node1&#45;&gt;Node3</title>
<g id="a_edge51_Node000001_Node000003"><a xlink:title=" ">
<path fill="none" stroke="#63b8ff" d="M1774.15,-186.83C1725.22,-196.5 1657,-209.99 1605.6,-220.15"/>
<polygon fill="#63b8ff" stroke="#63b8ff" points="1774.85,-190.26 1783.98,-184.88 1773.49,-183.39 1774.85,-190.26"/>
</a>
</g>
</g>
<!-- Node2&#45;&gt;Node3 -->
<g id="edge2_Node000002_Node000003" class="edge">
<title>Node2&#45;&gt;Node3</title>
<g id="a_edge2_Node000002_Node000003"><a xlink:title=" ">
<path fill="none" stroke="#63b8ff" d="M1664.47,-173.98C1648.32,-184.17 1628.01,-196.25 1609,-205.5 1598.71,-210.51 1587.33,-215.25 1576.57,-219.39"/>
<polygon fill="#63b8ff" stroke="#63b8ff" points="1666.44,-176.87 1672.99,-168.54 1662.68,-170.97 1666.44,-176.87"/>
</a>
</g>
</g>
<!-- Node17 -->
<g id="Node000017" class="node">
<title>Node17</title>
<g id="a_Node000017"><a xlink:href="class_bit_vector.html#a04e6d0b67ee9b42ccec437b0176067fe" target="_top" xlink:title="Give A size_t that represent the coords of the first bit of an element.">
<polygon fill="white" stroke="#666666" points="1419,-244 1236,-244 1236,-225 1419,-225 1419,-244"/>
<text text-anchor="middle" x="1327.5" y="-232" font-family="Helvetica,sans-Serif" font-size="10.00">BitVector::indexElementUntreated</text>
</a>
</g>
</g>
<!-- Node2&#45;&gt;Node17 -->
<g id="edge16_Node000002_Node000017" class="edge">
<title>Node2&#45;&gt;Node17</title>
<g id="a_edge16_Node000002_Node000017"><a xlink:title=" ">
<path fill="none" stroke="#63b8ff" d="M1634.73,-166.91C1560.54,-183.29 1436.94,-210.57 1371.77,-224.95"/>
<polygon fill="#63b8ff" stroke="#63b8ff" points="1635.84,-170.25 1644.86,-164.68 1634.34,-163.42 1635.84,-170.25"/>
</a>
</g>
</g>
<!-- Node20 -->
<g id="Node000020" class="node">
<title>Node20</title>
<g id="a_Node000020"><a xlink:href="class_bit_vector.html#a13856f33d2350c573cf2fbe587f03757" target="_top" xlink:title="Modify the length of BitVector::_data.">
<polygon fill="white" stroke="#666666" points="987.5,-80 891.5,-80 891.5,-61 987.5,-61 987.5,-80"/>
<text text-anchor="middle" x="939.5" y="-68" font-family="Helvetica,sans-Serif" font-size="10.00">BitVector::resize</text>
</a>
</g>
</g>
<!-- Node2&#45;&gt;Node20 -->
<g id="edge49_Node000002_Node000020" class="edge">
<title>Node2&#45;&gt;Node20</title>
<g id="a_edge49_Node000002_Node000020"><a xlink:title=" ">
<path fill="none" stroke="#63b8ff" d="M1658.88,-134.02C1643.82,-126.8 1625.95,-119.23 1609,-114.5 1383.25,-51.53 1098.72,-60.43 987.8,-67.07"/>
<polygon fill="#63b8ff" stroke="#63b8ff" points="1657.35,-137.17 1667.87,-138.44 1660.44,-130.89 1657.35,-137.17"/>
</a>
</g>
</g>
<!-- Node23 -->
<g id="Node000023" class="node">
<title>Node23</title>
<g id="a_Node000023"><a xlink:href="class_bit_vector.html#a80a4aa212535129b881b4fb2623ce222" target="_top" xlink:title="Reduce the size of BitVector::_data to fit BitVector::_element_number.">
<polygon fill="white" stroke="#666666" points="792,-19 695,-19 695,0 792,0 792,-19"/>
<text text-anchor="middle" x="743.5" y="-7" font-family="Helvetica,sans-Serif" font-size="10.00">BitVector::shrink</text>
</a>
</g>
</g>
<!-- Node2&#45;&gt;Node23 -->
<g id="edge50_Node000002_Node000023" class="edge">
<title>Node2&#45;&gt;Node23</title>
<g id="a_edge50_Node000002_Node000023"><a xlink:title=" ">
<path fill="none" stroke="#63b8ff" d="M1675.56,-131.18C1659.29,-114.39 1634.85,-92.17 1609,-79.5 1494.69,-23.46 1455.8,-21.5 1328.5,-21.5 1328.5,-21.5 1328.5,-21.5 1127,-21.5 1006.41,-21.5 864.55,-15.47 792.19,-11.96"/>
<polygon fill="#63b8ff" stroke="#63b8ff" points="1673.02,-133.59 1682.43,-138.46 1678.11,-128.79 1673.02,-133.59"/>
</a>
</g>
</g>
<!-- Node32 -->
<g id="Node000032" class="node">
<title>Node32</title>
<g id="a_Node000032"><a xlink:href="class_bit_vector.html#ad36e7d0b4b1417ca434414fa40c72eb8" target="_top" xlink:title="How many element can be contained in this object knowing BitVector::_element_size.">
<polygon fill="white" stroke="#666666" points="1609,-163 1455,-163 1455,-144 1609,-144 1609,-163"/>
<text text-anchor="middle" x="1532" y="-151" font-family="Helvetica,sans-Serif" font-size="10.00">BitVector::maxElementLimit</text>
</a>
</g>
</g>
<!-- Node2&#45;&gt;Node32 -->
<g id="edge38_Node000002_Node000032" class="edge">
<title>Node2&#45;&gt;Node32</title>
<g id="a_edge38_Node000002_Node000032"><a xlink:title=" ">
<path fill="none" stroke="#63b8ff" d="M1634.91,-153.5C1626.51,-153.5 1617.79,-153.5 1609.15,-153.5"/>
<polygon fill="#63b8ff" stroke="#63b8ff" points="1634.97,-157 1644.97,-153.5 1634.97,-150 1634.97,-157"/>
</a>
</g>
</g>
<!-- Node35 -->
<g id="Node000035" class="node">
<title>Node35</title>
<g id="a_Node000035"><a xlink:href="class_bit_vector.html#a214e556dd89acce2427a378c5520adbd" target="_top" xlink:title="Last acceptable coordinate knowing BitVector::_element_size.">
<polygon fill="white" stroke="#666666" points="1409,-120 1246,-120 1246,-101 1409,-101 1409,-120"/>
<text text-anchor="middle" x="1327.5" y="-108" font-family="Helvetica,sans-Serif" font-size="10.00">BitVector::MaximalCoordLimit</text>
</a>
</g>
</g>
<!-- Node2&#45;&gt;Node35 -->
<g id="edge48_Node000002_Node000035" class="edge">
<title>Node2&#45;&gt;Node35</title>
<g id="a_edge48_Node000002_Node000035"><a xlink:title=" ">
<path fill="none" stroke="#63b8ff" d="M1634.89,-139.14C1626.23,-137.39 1617.41,-135.78 1609,-134.5 1542.08,-124.33 1465.46,-118.14 1409.23,-114.6"/>
<polygon fill="#63b8ff" stroke="#63b8ff" points="1634.43,-142.62 1644.94,-141.23 1635.86,-135.76 1634.43,-142.62"/>
</a>
</g>
</g>
<!-- Node4 -->
<g id="Node000004" class="node">
<title>Node4</title>
<g id="a_Node000004"><a xlink:href="class_bit_vector.html#a5af3c70f593aac387de23c7e6e5ae57e" target="_top" xlink:title="Find the element that correspond to coord .">
<polygon fill="white" stroke="#666666" points="1401,-369 1254,-369 1254,-350 1401,-350 1401,-369"/>
<text text-anchor="middle" x="1327.5" y="-357" font-family="Helvetica,sans-Serif" font-size="10.00">BitVector::indexCoordinate</text>
</a>
</g>
</g>
<!-- Node3&#45;&gt;Node4 -->
<g id="edge3_Node000003_Node000004" class="edge">
<title>Node3&#45;&gt;Node4</title>
<g id="a_edge3_Node000003_Node000004"><a xlink:title=" ">
<path fill="none" stroke="#63b8ff" d="M1497.9,-254.93C1453.6,-282.28 1376.79,-329.69 1344.03,-349.91"/>
<polygon fill="#63b8ff" stroke="#63b8ff" points="1499.9,-257.81 1506.57,-249.58 1496.23,-251.85 1499.9,-257.81"/>
</a>
</g>
</g>
<!-- Node5 -->
<g id="Node000005" class="node">
<title>Node5</title>
<g id="a_Node000005"><a xlink:href="class_bit_vector.html#aed5c03f3a6a9a2e5f3c58fb14768b0b4" target="_top" xlink:title="Say how many items can be hold inside this object with the current BitVector::_data_size:">
<polygon fill="white" stroke="#666666" points="1200,-412 1056,-412 1056,-393 1200,-393 1200,-412"/>
<text text-anchor="middle" x="1128" y="-400" font-family="Helvetica,sans-Serif" font-size="10.00">BitVector::currentCapacity</text>
</a>
</g>
</g>
<!-- Node4&#45;&gt;Node5 -->
<g id="edge4_Node000004_Node000005" class="edge">
<title>Node4&#45;&gt;Node5</title>
<g id="a_edge4_Node000004_Node000005"><a xlink:title=" ">
<path fill="none" stroke="#63b8ff" d="M1272.76,-371.2C1241.35,-378.04 1202.22,-386.56 1172.71,-392.98"/>
<polygon fill="#63b8ff" stroke="#63b8ff" points="1273.64,-374.59 1282.67,-369.04 1272.15,-367.75 1273.64,-374.59"/>
</a>
</g>
</g>
<!-- Node6 -->
<g id="Node000006" class="node">
<title>Node6</title>
<g id="a_Node000006"><a xlink:href="class_bit_vector.html#ad64e921d07b9528a532477f282af135c" target="_top" xlink:title="How many element can fit in this vector without having to resize the vector ?">
<polygon fill="white" stroke="#666666" points="1199,-374.5 1057,-374.5 1057,-344.5 1199,-344.5 1199,-374.5"/>
<text text-anchor="start" x="1065" y="-362.5" font-family="Helvetica,sans-Serif" font-size="10.00">BitVector::currentElement</text>
<text text-anchor="middle" x="1128" y="-351.5" font-family="Helvetica,sans-Serif" font-size="10.00">Capacity</text>
</a>
</g>
</g>
<!-- Node4&#45;&gt;Node6 -->
<g id="edge5_Node000004_Node000006" class="edge">
<title>Node4&#45;&gt;Node6</title>
<g id="a_edge5_Node000004_Node000006"><a xlink:title=" ">
<path fill="none" stroke="#63b8ff" d="M1243.67,-359.5C1228.89,-359.5 1213.63,-359.5 1199.24,-359.5"/>
<polygon fill="#63b8ff" stroke="#63b8ff" points="1243.8,-363 1253.8,-359.5 1243.8,-356 1243.8,-363"/>
</a>
</g>
</g>
<!-- Node7 -->
<g id="Node000007" class="node">
<title>Node7</title>
<g id="a_Node000007"><a xlink:href="class_bit_vector.html#ad60f42244db2c82260326605916431d3" target="_top" xlink:title="Modify the number of known element in this object.">
<polygon fill="white" stroke="#666666" points="1020,-451 859,-451 859,-432 1020,-432 1020,-451"/>
<text text-anchor="middle" x="939.5" y="-439" font-family="Helvetica,sans-Serif" font-size="10.00">BitVector::setElementNumber</text>
</a>
</g>
</g>
<!-- Node6&#45;&gt;Node7 -->
<g id="edge6_Node000006_Node000007" class="edge">
<title>Node6&#45;&gt;Node7</title>
<g id="a_edge6_Node000006_Node000007"><a xlink:title=" ">
<path fill="none" stroke="#63b8ff" d="M1071.9,-378.16C1066.49,-380.22 1061.12,-382.34 1056,-384.5 1020.55,-399.42 980.6,-420.02 958.2,-431.94"/>
<polygon fill="#63b8ff" stroke="#63b8ff" points="1073.46,-381.32 1081.62,-374.57 1071.03,-374.76 1073.46,-381.32"/>
</a>
</g>
</g>
<!-- Node8 -->
<g id="Node000008" class="node">
<title>Node8</title>
<g id="a_Node000008"><a xlink:href="class_bit_vector.html#a87f84edf5dd56606b26e8741ba6ced02" target="_top" xlink:title="Remove a number of element from the vector.">
<polygon fill="white" stroke="#666666" points="795.5,-509 691.5,-509 691.5,-490 795.5,-490 795.5,-509"/>
<text text-anchor="middle" x="743.5" y="-497" font-family="Helvetica,sans-Serif" font-size="10.00">BitVector::remove</text>
</a>
</g>
</g>
<!-- Node7&#45;&gt;Node8 -->
<g id="edge7_Node000007_Node000008" class="edge">
<title>Node7&#45;&gt;Node8</title>
<g id="a_edge7_Node000007_Node000008"><a xlink:title=" ">
<path fill="none" stroke="#63b8ff" d="M896.74,-453.99C860.72,-464.75 809.46,-480.08 776.58,-489.91"/>
<polygon fill="#63b8ff" stroke="#63b8ff" points="897.89,-457.3 906.46,-451.08 895.88,-450.59 897.89,-457.3"/>
</a>
</g>
</g>
<!-- Node9 -->
<g id="Node000009" class="node">
<title>Node9</title>
<g id="a_Node000009"><a xlink:href="class_sequence.html#a20eb6bdd6f5cba62a251eff4387a525d" target="_top" xlink:title="Remove a portion of the sequence.">
<polygon fill="white" stroke="#666666" points="587.5,-547 490.5,-547 490.5,-528 587.5,-528 587.5,-547"/>
<text text-anchor="middle" x="539" y="-535" font-family="Helvetica,sans-Serif" font-size="10.00">Sequence::erase</text>
</a>
</g>
</g>
<!-- Node8&#45;&gt;Node9 -->
<g id="edge8_Node000008_Node000009" class="edge">
<title>Node8&#45;&gt;Node9</title>
<g id="a_edge8_Node000008_Node000009"><a xlink:title=" ">
<path fill="none" stroke="#63b8ff" d="M681.7,-510.91C651.6,-516.56 615.81,-523.27 587.73,-528.54"/>
<polygon fill="#63b8ff" stroke="#63b8ff" points="682.48,-514.32 691.66,-509.04 681.19,-507.44 682.48,-514.32"/>
</a>
</g>
</g>
<!-- Node10 -->
<g id="Node000010" class="node">
<title>Node10</title>
<g id="a_Node000010"><a xlink:href="class_sequence.html#aa48778c592160ac60319f780817f491c" target="_top" xlink:title="Insert a number of chars at the position position .">
<polygon fill="white" stroke="#666666" points="414,-471 316,-471 316,-452 414,-452 414,-471"/>
<text text-anchor="middle" x="365" y="-459" font-family="Helvetica,sans-Serif" font-size="10.00">Sequence::insert</text>
</a>
</g>
</g>
<!-- Node8&#45;&gt;Node10 -->
<g id="edge9_Node000008_Node000010" class="edge">
<title>Node8&#45;&gt;Node10</title>
<g id="a_edge9_Node000008_Node000010"><a xlink:title=" ">
<path fill="none" stroke="#63b8ff" d="M681.06,-495.95C621.77,-492.18 529.54,-485.37 450,-475.5 438.41,-474.06 425.97,-472.18 414.32,-470.26"/>
<polygon fill="#63b8ff" stroke="#63b8ff" points="681.18,-499.47 691.38,-496.6 681.62,-492.48 681.18,-499.47"/>
</a>
</g>
</g>
<!-- Node11 -->
<g id="Node000011" class="node">
<title>Node11</title>
<g id="a_Node000011"><a xlink:href="class_sequence.html#a3cf6cf5e54782f4d1a2ee07ec519523c" target="_top" xlink:title="Insert a char at the position position .">
<polygon fill="white" stroke="#666666" points="268,-508 170,-508 170,-489 268,-489 268,-508"/>
<text text-anchor="middle" x="219" y="-496" font-family="Helvetica,sans-Serif" font-size="10.00">Sequence::insert</text>
</a>
</g>
</g>
<!-- Node10&#45;&gt;Node11 -->
<g id="edge10_Node000010_Node000011" class="edge">
<title>Node10&#45;&gt;Node11</title>
<g id="a_edge10_Node000010_Node000011"><a xlink:title=" ">
<path fill="none" stroke="#63b8ff" d="M317.09,-473.55C297.77,-478.52 275.68,-484.19 257.46,-488.88"/>
<polygon fill="#63b8ff" stroke="#63b8ff" points="318.1,-476.91 326.92,-471.03 316.36,-470.13 318.1,-476.91"/>
</a>
</g>
</g>
<!-- Node12 -->
<g id="Node000012" class="node">
<title>Node12</title>
<g id="a_Node000012"><a xlink:href="class_sequence.html#aa57fd5a7fdd173374e56006ce1c47bdc" target="_top" xlink:title="Insert a number of chars at the the back of the sequence position .">
<polygon fill="white" stroke="#666666" points="280,-471 158,-471 158,-452 280,-452 280,-471"/>
<text text-anchor="middle" x="219" y="-459" font-family="Helvetica,sans-Serif" font-size="10.00">Sequence::insertBack</text>
</a>
</g>
</g>
<!-- Node10&#45;&gt;Node12 -->
<g id="edge11_Node000010_Node000012" class="edge">
<title>Node10&#45;&gt;Node12</title>
<g id="a_edge11_Node000010_Node000012"><a xlink:title=" ">
<path fill="none" stroke="#63b8ff" d="M305.61,-461.5C297.25,-461.5 288.64,-461.5 280.25,-461.5"/>
<polygon fill="#63b8ff" stroke="#63b8ff" points="305.65,-465 315.65,-461.5 305.65,-458 305.65,-465"/>
</a>
</g>
</g>
<!-- Node13 -->
<g id="Node000013" class="node">
<title>Node13</title>
<g id="a_Node000013"><a xlink:href="class_sequence.html#a092f380b654de9aaa8a770ec0948c454" target="_top" xlink:title="Insert a number of chars at the the front of the sequence position .">
<polygon fill="white" stroke="#666666" points="280,-434 158,-434 158,-415 280,-415 280,-434"/>
<text text-anchor="middle" x="219" y="-422" font-family="Helvetica,sans-Serif" font-size="10.00">Sequence::insertFront</text>
</a>
</g>
</g>
<!-- Node10&#45;&gt;Node13 -->
<g id="edge12_Node000010_Node000013" class="edge">
<title>Node10&#45;&gt;Node13</title>
<g id="a_edge12_Node000010_Node000013"><a xlink:title=" ">
<path fill="none" stroke="#63b8ff" d="M317.09,-449.45C297.77,-444.48 275.68,-438.81 257.46,-434.12"/>
<polygon fill="#63b8ff" stroke="#63b8ff" points="316.36,-452.87 326.92,-451.97 318.1,-446.09 316.36,-452.87"/>
</a>
</g>
</g>
<!-- Node14 -->
<g id="Node000014" class="node">
<title>Node14</title>
<g id="a_Node000014"><a xlink:href="class_sequence.html#a16e70626e330194c1507ed339c9c629c" target="_top" xlink:title="Insert a char at the the back of the sequence position .">
<polygon fill="white" stroke="#666666" points="122,-471 0,-471 0,-452 122,-452 122,-471"/>
<text text-anchor="middle" x="61" y="-459" font-family="Helvetica,sans-Serif" font-size="10.00">Sequence::insertBack</text>
</a>
</g>
</g>
<!-- Node13&#45;&gt;Node14 -->
<g id="edge13_Node000013_Node000014" class="edge">
<title>Node13&#45;&gt;Node14</title>
<g id="a_edge13_Node000013_Node000014"><a xlink:title=" ">
<path fill="none" stroke="#63b8ff" d="M168.01,-436.36C146.78,-441.39 122.36,-447.18 102.31,-451.94"/>
<polygon fill="#63b8ff" stroke="#63b8ff" points="168.9,-439.74 177.83,-434.03 167.29,-432.93 168.9,-439.74"/>
</a>
</g>
</g>
<!-- Node15 -->
<g id="Node000015" class="node">
<title>Node15</title>
<g id="a_Node000015"><a xlink:href="class_sequence.html#a1fa6868ce587e1f3d779bb226cfda548" target="_top" xlink:title="Insert a char at the the front of the sequence position .">
<polygon fill="white" stroke="#666666" points="122,-434 0,-434 0,-415 122,-415 122,-434"/>
<text text-anchor="middle" x="61" y="-422" font-family="Helvetica,sans-Serif" font-size="10.00">Sequence::insertFront</text>
</a>
</g>
</g>
<!-- Node13&#45;&gt;Node15 -->
<g id="edge14_Node000013_Node000015" class="edge">
<title>Node13&#45;&gt;Node15</title>
<g id="a_edge14_Node000013_Node000015"><a xlink:title=" ">
<path fill="none" stroke="#63b8ff" d="M147.46,-424.5C139.01,-424.5 130.44,-424.5 122.15,-424.5"/>
<polygon fill="#63b8ff" stroke="#63b8ff" points="147.69,-428 157.69,-424.5 147.69,-421 147.69,-428"/>
</a>
</g>
</g>
<!-- Node16 -->
<g id="Node000016" class="node">
<title>Node16</title>
<g id="a_Node000016"><a xlink:href="class_sequence.html#ae293cd5124445b604bbcba3a5f01a48a" target="_top" xlink:title="Main Constructor. Construct a new Sequence object.">
<polygon fill="white" stroke="#666666" points="119.5,-397 2.5,-397 2.5,-378 119.5,-378 119.5,-397"/>
<text text-anchor="middle" x="61" y="-385" font-family="Helvetica,sans-Serif" font-size="10.00">Sequence::Sequence</text>
</a>
</g>
</g>
<!-- Node13&#45;&gt;Node16 -->
<g id="edge15_Node000013_Node000016" class="edge">
<title>Node13&#45;&gt;Node16</title>
<g id="a_edge15_Node000013_Node000016"><a xlink:title=" ">
<path fill="none" stroke="#63b8ff" d="M168.01,-412.64C146.78,-407.61 122.36,-401.82 102.31,-397.06"/>
<polygon fill="#63b8ff" stroke="#63b8ff" points="167.29,-416.07 177.83,-414.97 168.9,-409.26 167.29,-416.07"/>
</a>
</g>
</g>
<!-- Node18 -->
<g id="Node000018" class="node">
<title>Node18</title>
<g id="a_Node000018"><a xlink:href="class_bit_vector.html#a93ab8bc2ec39bf299ae28ffcad504b41" target="_top" xlink:title="Give the coords of the first bit of an element.">
<polygon fill="white" stroke="#666666" points="1195,-282 1061,-282 1061,-263 1195,-263 1195,-282"/>
<text text-anchor="middle" x="1128" y="-270" font-family="Helvetica,sans-Serif" font-size="10.00">BitVector::indexElement</text>
</a>
</g>
</g>
<!-- Node17&#45;&gt;Node18 -->
<g id="edge17_Node000017_Node000018" class="edge">
<title>Node17&#45;&gt;Node18</title>
<g id="a_edge17_Node000017_Node000018"><a xlink:title=" ">
<path fill="none" stroke="#63b8ff" d="M1266.79,-245.99C1238.61,-251.41 1205.37,-257.81 1178.6,-262.96"/>
<polygon fill="#63b8ff" stroke="#63b8ff" points="1267.76,-249.37 1276.92,-244.04 1266.44,-242.49 1267.76,-249.37"/>
</a>
</g>
</g>
<!-- Node19 -->
<g id="Node000019" class="node">
<title>Node19</title>
<g id="a_Node000019"><a xlink:href="class_bit_vector.html#a2d0fe43b80b63edbd64dc887fd87d915" target="_top" xlink:title="Return the element at the position index.">
<polygon fill="white" stroke="#666666" points="981,-356 898,-356 898,-337 981,-337 981,-356"/>
<text text-anchor="middle" x="939.5" y="-344" font-family="Helvetica,sans-Serif" font-size="10.00">BitVector::get</text>
</a>
</g>
</g>
<!-- Node18&#45;&gt;Node19 -->
<g id="edge18_Node000018_Node000019" class="edge">
<title>Node18&#45;&gt;Node19</title>
<g id="a_edge18_Node000018_Node000019"><a xlink:title=" ">
<path fill="none" stroke="#63b8ff" d="M1103,-287.38C1081.84,-299.92 1049.83,-317.53 1020,-328.5 1007.65,-333.04 993.78,-336.66 981.12,-339.43"/>
<polygon fill="#63b8ff" stroke="#63b8ff" points="1104.87,-290.34 1111.64,-282.18 1101.26,-284.34 1104.87,-290.34"/>
</a>
</g>
</g>
<!-- Node18&#45;&gt;Node20 -->
<g id="edge19_Node000018_Node000020" class="edge">
<title>Node18&#45;&gt;Node20</title>
<g id="a_edge19_Node000018_Node000020"><a xlink:title=" ">
<path fill="none" stroke="#63b8ff" d="M1118.26,-253.51C1098.47,-211.25 1049.63,-111.48 1020,-89.5 1010.65,-82.57 999.14,-78.13 987.8,-75.29"/>
<polygon fill="#63b8ff" stroke="#63b8ff" points="1115.15,-255.12 1122.54,-262.71 1121.5,-252.17 1115.15,-255.12"/>
</a>
</g>
</g>
<!-- Node24 -->
<g id="Node000024" class="node">
<title>Node24</title>
<g id="a_Node000024"><a xlink:href="class_bit_vector.html#aca24053f655c825de0f06ec86fff1cec" target="_top" xlink:title="Replace an element by another element. Can add an element to the list if index = BitVector::_element_...">
<polygon fill="white" stroke="#666666" points="980.5,-319 898.5,-319 898.5,-300 980.5,-300 980.5,-319"/>
<text text-anchor="middle" x="939.5" y="-307" font-family="Helvetica,sans-Serif" font-size="10.00">BitVector::set</text>
</a>
</g>
</g>
<!-- Node18&#45;&gt;Node24 -->
<g id="edge23_Node000018_Node000024" class="edge">
<title>Node18&#45;&gt;Node24</title>
<g id="a_edge23_Node000018_Node000024"><a xlink:title=" ">
<path fill="none" stroke="#63b8ff" d="M1069.08,-283.99C1040.44,-289.67 1006.58,-296.39 980.8,-301.51"/>
<polygon fill="#63b8ff" stroke="#63b8ff" points="1069.84,-287.41 1078.97,-282.03 1068.48,-280.54 1069.84,-287.41"/>
</a>
</g>
</g>
<!-- Node21 -->
<g id="Node000021" class="node">
<title>Node21</title>
<g id="a_Node000021"><a xlink:href="class_bit_vector.html#a23c1685317944b2a5c6f149a5fccc6bd" target="_top" xlink:title="Construct a new Bit Vector object.">
<polygon fill="white" stroke="#666666" points="799,-56 688,-56 688,-37 799,-37 799,-56"/>
<text text-anchor="middle" x="743.5" y="-44" font-family="Helvetica,sans-Serif" font-size="10.00">BitVector::BitVector</text>
</a>
</g>
</g>
<!-- Node20&#45;&gt;Node21 -->
<g id="edge20_Node000020_Node000021" class="edge">
<title>Node20&#45;&gt;Node21</title>
<g id="a_edge20_Node000020_Node000021"><a xlink:title=" ">
<path fill="none" stroke="#63b8ff" d="M880.98,-63.38C855.05,-60.18 824.58,-56.41 799.02,-53.24"/>
<polygon fill="#63b8ff" stroke="#63b8ff" points="880.69,-66.87 891.04,-64.63 881.55,-59.93 880.69,-66.87"/>
</a>
</g>
</g>
<!-- Node22 -->
<g id="Node000022" class="node">
<title>Node22</title>
<g id="a_Node000022"><a xlink:href="class_bit_vector.html#a673b530bb6e520f7f7fa90070e0034db" target="_top" xlink:title="Free memory used by BitVector::_data.">
<polygon fill="white" stroke="#666666" points="789,-93 698,-93 698,-74 789,-74 789,-93"/>
<text text-anchor="middle" x="743.5" y="-81" font-family="Helvetica,sans-Serif" font-size="10.00">BitVector::clear</text>
</a>
</g>
</g>
<!-- Node20&#45;&gt;Node22 -->
<g id="edge21_Node000020_Node000022" class="edge">
<title>Node20&#45;&gt;Node22</title>
<g id="a_edge21_Node000020_Node000022"><a xlink:title=" ">
<path fill="none" stroke="#63b8ff" d="M880.92,-74.36C851.57,-76.33 816.41,-78.68 789.14,-80.51"/>
<polygon fill="#63b8ff" stroke="#63b8ff" points="881.3,-77.84 891.04,-73.68 880.83,-70.86 881.3,-77.84"/>
</a>
</g>
</g>
<!-- Node20&#45;&gt;Node23 -->
<g id="edge22_Node000020_Node000023" class="edge">
<title>Node20&#45;&gt;Node23</title>
<g id="a_edge22_Node000020_Node000023"><a xlink:title=" ">
<path fill="none" stroke="#63b8ff" d="M905.78,-57.01C882.87,-47.89 851.39,-36 823,-27.5 812.69,-24.41 801.47,-21.55 790.84,-19.07"/>
<polygon fill="#63b8ff" stroke="#63b8ff" points="904.77,-60.38 915.36,-60.86 907.38,-53.88 904.77,-60.38"/>
</a>
</g>
</g>
<!-- Node24&#45;&gt;Node8 -->
<g id="edge36_Node000024_Node000008" class="edge">
<title>Node24&#45;&gt;Node8</title>
<g id="a_edge36_Node000024_Node000008"><a xlink:title=" ">
<path fill="none" stroke="#63b8ff" d="M888.38,-312.87C877.53,-315.78 866.94,-320.61 859,-328.5 811.3,-375.93 869.2,-426.61 823,-475.5 815.66,-483.27 805.88,-488.54 795.73,-492.12"/>
<polygon fill="#63b8ff" stroke="#63b8ff" points="889.33,-316.24 898.36,-310.7 887.84,-309.4 889.33,-316.24"/>
</a>
</g>
</g>
<!-- Node24&#45;&gt;Node10 -->
<g id="edge32_Node000024_Node000010" class="edge">
<title>Node24&#45;&gt;Node10</title>
<g id="a_edge32_Node000024_Node000010"><a xlink:title=" ">
<path fill="none" stroke="#63b8ff" d="M888.58,-313.49C877.81,-316.39 867.21,-321.06 859,-328.5 822.75,-361.34 861.93,-402.88 823,-432.5 759.97,-480.46 518.21,-471.33 414.12,-464.93"/>
<polygon fill="#63b8ff" stroke="#63b8ff" points="889.45,-316.89 898.45,-311.3 887.93,-310.05 889.45,-316.89"/>
</a>
</g>
</g>
<!-- Node25 -->
<g id="Node000025" class="node">
<title>Node25</title>
<g id="a_Node000025"><a xlink:href="class_bit_vector.html#afbdbe8a5003f5941ffd5ab095cf87d88" target="_top" xlink:title="Add an element at the end of the vector.">
<polygon fill="white" stroke="#666666" points="795,-395 692,-395 692,-376 795,-376 795,-395"/>
<text text-anchor="middle" x="743.5" y="-383" font-family="Helvetica,sans-Serif" font-size="10.00">BitVector::append</text>
</a>
</g>
</g>
<!-- Node24&#45;&gt;Node25 -->
<g id="edge24_Node000024_Node000025" class="edge">
<title>Node24&#45;&gt;Node25</title>
<g id="a_edge24_Node000024_Node000025"><a xlink:title=" ">
<path fill="none" stroke="#63b8ff" d="M888.31,-317.41C878.26,-320.11 868.02,-323.71 859,-328.5 839.83,-338.68 841.84,-350.73 823,-361.5 812.24,-367.65 799.72,-372.4 787.89,-375.98"/>
<polygon fill="#63b8ff" stroke="#63b8ff" points="889.36,-320.76 898.25,-315 887.71,-313.95 889.36,-320.76"/>
</a>
</g>
</g>
<!-- Node26 -->
<g id="Node000026" class="node">
<title>Node26</title>
<g id="a_Node000026"><a xlink:href="class_bit_vector.html#a5547d55a697d61de026d0a94e743624b" target="_top" xlink:title="Construct a new Bit Vector object.">
<polygon fill="white" stroke="#666666" points="594.5,-414 483.5,-414 483.5,-395 594.5,-395 594.5,-414"/>
<text text-anchor="middle" x="539" y="-402" font-family="Helvetica,sans-Serif" font-size="10.00">BitVector::BitVector</text>
</a>
</g>
</g>
<!-- Node24&#45;&gt;Node26 -->
<g id="edge31_Node000024_Node000026" class="edge">
<title>Node24&#45;&gt;Node26</title>
<g id="a_edge31_Node000024_Node000026"><a xlink:title=" ">
<path fill="none" stroke="#63b8ff" d="M888.19,-314.42C877.73,-317.3 867.35,-321.73 859,-328.5 829.97,-352.05 854.58,-384.51 823,-404.5 743.49,-454.81 624.58,-429.85 569.7,-414.08"/>
<polygon fill="#63b8ff" stroke="#63b8ff" points="889.24,-317.77 898.19,-312.11 887.66,-310.95 889.24,-317.77"/>
</a>
</g>
</g>
<!-- Node27 -->
<g id="Node000027" class="node">
<title>Node27</title>
<g id="a_Node000027"><a xlink:href="class_bit_vector.html#a686af396e4dff1536b7588213726c4cc" target="_top" xlink:title="Insert a number of blank position inside BitVector::_data.">
<polygon fill="white" stroke="#666666" points="628,-320 450,-320 450,-301 628,-301 628,-320"/>
<text text-anchor="middle" x="539" y="-308" font-family="Helvetica,sans-Serif" font-size="10.00">BitVector::makeRoomForElement</text>
</a>
</g>
</g>
<!-- Node24&#45;&gt;Node27 -->
<g id="edge35_Node000024_Node000027" class="edge">
<title>Node24&#45;&gt;Node27</title>
<g id="a_edge35_Node000024_Node000027"><a xlink:title=" ">
<path fill="none" stroke="#63b8ff" d="M888.41,-319.57C868.19,-323.15 844.57,-326.74 823,-328.5 752.57,-334.25 734.48,-333.59 664,-328.5 640.89,-326.83 615.55,-323.44 593.83,-320.04"/>
<polygon fill="#63b8ff" stroke="#63b8ff" points="889.13,-322.99 898.34,-317.76 887.88,-316.11 889.13,-322.99"/>
</a>
</g>
</g>
<!-- Node28 -->
<g id="Node000028" class="node">
<title>Node28</title>
<g id="a_Node000028"><a xlink:href="class_bit_vector.html#a9f86c96c013632abd9d18feafe78d72e" target="_top" xlink:title="Insert a number_of_elements inside the vector at the index pos .">
<polygon fill="white" stroke="#666666" points="412.5,-282 317.5,-282 317.5,-263 412.5,-263 412.5,-282"/>
<text text-anchor="middle" x="365" y="-270" font-family="Helvetica,sans-Serif" font-size="10.00">BitVector::insert</text>
</a>
</g>
</g>
<!-- Node24&#45;&gt;Node28 -->
<g id="edge33_Node000024_Node000028" class="edge">
<title>Node24&#45;&gt;Node28</title>
<g id="a_edge33_Node000024_Node000028"><a xlink:title=" ">
<path fill="none" stroke="#63b8ff" d="M915.85,-294.68C893.36,-280.92 857.36,-261.39 823,-253.5 674.98,-219.51 493.07,-246.91 410.51,-262.94"/>
<polygon fill="#63b8ff" stroke="#63b8ff" points="914.01,-297.66 924.34,-300 917.73,-291.72 914.01,-297.66"/>
</a>
</g>
</g>
<!-- Node29 -->
<g id="Node000029" class="node">
<title>Node29</title>
<g id="a_Node000029"><a xlink:href="class_bit_vector.html#a915743b3f94c75c22317d160bfa741ff" target="_top" xlink:title="Insert a number_of_elements inside the vector at the index pos .">
<polygon fill="white" stroke="#666666" points="412.5,-226 317.5,-226 317.5,-207 412.5,-207 412.5,-226"/>
<text text-anchor="middle" x="365" y="-214" font-family="Helvetica,sans-Serif" font-size="10.00">BitVector::insert</text>
</a>
</g>
</g>
<!-- Node24&#45;&gt;Node29 -->
<g id="edge34_Node000024_Node000029" class="edge">
<title>Node24&#45;&gt;Node29</title>
<g id="a_edge34_Node000024_Node000029"><a xlink:title=" ">
<path fill="none" stroke="#63b8ff" d="M920.79,-293.29C899.43,-274.89 861.55,-245.83 823,-233.5 679.32,-187.54 497.18,-200.44 412.81,-210.14"/>
<polygon fill="#63b8ff" stroke="#63b8ff" points="918.57,-296 928.39,-299.99 923.2,-290.75 918.57,-296"/>
</a>
</g>
</g>
<!-- Node30 -->
<g id="Node000030" class="node">
<title>Node30</title>
<g id="a_Node000030"><a xlink:href="class_bit_vector.html#a2af5c1a1a0050e2b52d06c38436280fd" target="_top" xlink:title="Add an element at the end of the vector.">
<polygon fill="white" stroke="#666666" points="795,-319 692,-319 692,-300 795,-300 795,-319"/>
<text text-anchor="middle" x="743.5" y="-307" font-family="Helvetica,sans-Serif" font-size="10.00">BitVector::append</text>
</a>
</g>
</g>
<!-- Node24&#45;&gt;Node30 -->
<g id="edge30_Node000024_Node000030" class="edge">
<title>Node24&#45;&gt;Node30</title>
<g id="a_edge30_Node000024_Node000030"><a xlink:title=" ">
<path fill="none" stroke="#63b8ff" d="M888.1,-309.5C859.45,-309.5 823.68,-309.5 795.02,-309.5"/>
<polygon fill="#63b8ff" stroke="#63b8ff" points="888.3,-313 898.3,-309.5 888.3,-306 888.3,-313"/>
</a>
</g>
</g>
<!-- Node31 -->
<g id="Node000031" class="node">
<title>Node31</title>
<g id="a_Node000031"><a xlink:href="class_bit_vector.html#a38e8be69974c874857dd7cb6a52429ac" target="_top" xlink:title="Replace an element by another element. Can add an element to the list if index = BitVector::_element_...">
<polygon fill="white" stroke="#666666" points="784.5,-282 702.5,-282 702.5,-263 784.5,-263 784.5,-282"/>
<text text-anchor="middle" x="743.5" y="-270" font-family="Helvetica,sans-Serif" font-size="10.00">BitVector::set</text>
</a>
</g>
</g>
<!-- Node24&#45;&gt;Node31 -->
<g id="edge37_Node000024_Node000031" class="edge">
<title>Node24&#45;&gt;Node31</title>
<g id="a_edge37_Node000024_Node000031"><a xlink:title=" ">
<path fill="none" stroke="#63b8ff" d="M888.18,-299.9C855.94,-293.75 814.68,-285.88 784.65,-280.16"/>
<polygon fill="#63b8ff" stroke="#63b8ff" points="887.82,-303.4 898.3,-301.83 889.14,-296.52 887.82,-303.4"/>
</a>
</g>
</g>
<!-- Node25&#45;&gt;Node26 -->
<g id="edge25_Node000025_Node000026" class="edge">
<title>Node25&#45;&gt;Node26</title>
<g id="a_edge25_Node000025_Node000026"><a xlink:title=" ">
<path fill="none" stroke="#63b8ff" d="M681.94,-391.18C654.18,-393.79 621.53,-396.85 594.54,-399.38"/>
<polygon fill="#63b8ff" stroke="#63b8ff" points="682.29,-394.66 691.92,-390.25 681.64,-387.7 682.29,-394.66"/>
</a>
</g>
</g>
<!-- Node25&#45;&gt;Node27 -->
<g id="edge26_Node000025_Node000027" class="edge">
<title>Node25&#45;&gt;Node27</title>
<g id="a_edge26_Node000025_Node000027"><a xlink:title=" ">
<path fill="none" stroke="#63b8ff" d="M698.88,-372.96C687.46,-369.46 675.21,-365.51 664,-361.5 627.62,-348.49 586.28,-330.91 561.71,-320.15"/>
<polygon fill="#63b8ff" stroke="#63b8ff" points="698.07,-376.37 708.66,-375.91 700.1,-369.67 698.07,-376.37"/>
</a>
</g>
</g>
<!-- Node27&#45;&gt;Node10 -->
<g id="edge27_Node000027_Node000010" class="edge">
<title>Node27&#45;&gt;Node10</title>
<g id="a_edge27_Node000027_Node000010"><a xlink:title=" ">
<path fill="none" stroke="#63b8ff" d="M518.88,-326.85C501,-342.18 473.59,-365.78 450,-386.5 423.41,-409.85 392.43,-437.67 376.56,-451.97"/>
<polygon fill="#63b8ff" stroke="#63b8ff" points="521.52,-329.2 526.84,-320.04 516.96,-323.89 521.52,-329.2"/>
</a>
</g>
</g>
<!-- Node27&#45;&gt;Node28 -->
<g id="edge28_Node000027_Node000028" class="edge">
<title>Node27&#45;&gt;Node28</title>
<g id="a_edge28_Node000027_Node000028"><a xlink:title=" ">
<path fill="none" stroke="#63b8ff" d="M484.8,-298.75C460.48,-293.37 432.05,-287.09 409.09,-282.02"/>
<polygon fill="#63b8ff" stroke="#63b8ff" points="484.08,-302.17 494.6,-300.91 485.59,-295.34 484.08,-302.17"/>
</a>
</g>
</g>
<!-- Node27&#45;&gt;Node29 -->
<g id="edge29_Node000027_Node000029" class="edge">
<title>Node27&#45;&gt;Node29</title>
<g id="a_edge29_Node000027_Node000029"><a xlink:title=" ">
<path fill="none" stroke="#63b8ff" d="M511.72,-296.14C476.19,-276.72 413.78,-242.61 383.48,-226.06"/>
<polygon fill="#63b8ff" stroke="#63b8ff" points="510.11,-299.25 520.56,-300.97 513.46,-293.1 510.11,-299.25"/>
</a>
</g>
</g>
<!-- Node32&#45;&gt;Node17 -->
<g id="edge39_Node000032_Node000017" class="edge">
<title>Node32&#45;&gt;Node17</title>
<g id="a_edge39_Node000032_Node000017"><a xlink:title=" ">
<path fill="none" stroke="#63b8ff" d="M1479.79,-166.28C1471.23,-169.36 1462.66,-173.07 1455,-177.5 1436.21,-188.36 1438.04,-200.08 1419,-210.5 1407.59,-216.74 1394.48,-221.43 1381.83,-224.92"/>
<polygon fill="#63b8ff" stroke="#63b8ff" points="1481.02,-169.56 1489.39,-163.07 1478.8,-162.93 1481.02,-169.56"/>
</a>
</g>
</g>
<!-- Node32&#45;&gt;Node27 -->
<g id="edge40_Node000032_Node000027" class="edge">
<title>Node32&#45;&gt;Node27</title>
<g id="a_edge40_Node000032_Node000027"><a xlink:title=" ">
<path fill="none" stroke="#63b8ff" d="M1475.25,-165.16C1468.43,-166.61 1461.55,-168.08 1455,-169.5 1438.98,-172.97 1435.23,-175.18 1419,-177.5 1291.14,-195.79 1258.17,-196.5 1129,-196.5 1129,-196.5 1129,-196.5 938.5,-196.5 813.9,-196.5 782.36,-214.56 664,-253.5 624.61,-266.46 581.13,-288.34 557.56,-300.88"/>
<polygon fill="#63b8ff" stroke="#63b8ff" points="1476.11,-168.56 1485.17,-163.06 1474.66,-161.71 1476.11,-168.56"/>
</a>
</g>
</g>
<!-- Node33 -->
<g id="Node000033" class="node">
<title>Node33</title>
<g id="a_Node000033"><a xlink:href="class_bit_vector.html#a346dbe2e158d2cfda20212e7f93e8402" target="_top" xlink:title="Do maximum BitVector::_element_number is reached (With no possibility to push it further)">
<polygon fill="white" stroke="#666666" points="1402,-168.5 1253,-168.5 1253,-138.5 1402,-138.5 1402,-168.5"/>
<text text-anchor="start" x="1261" y="-156.5" font-family="Helvetica,sans-Serif" font-size="10.00">BitVector::maxElementSize</text>
<text text-anchor="middle" x="1327.5" y="-145.5" font-family="Helvetica,sans-Serif" font-size="10.00">IsReached</text>
</a>
</g>
</g>
<!-- Node32&#45;&gt;Node33 -->
<g id="edge41_Node000032_Node000033" class="edge">
<title>Node32&#45;&gt;Node33</title>
<g id="a_edge41_Node000032_Node000033"><a xlink:title=" ">
<path fill="none" stroke="#63b8ff" d="M1444.51,-153.5C1430.36,-153.5 1415.82,-153.5 1402.02,-153.5"/>
<polygon fill="#63b8ff" stroke="#63b8ff" points="1444.73,-157 1454.73,-153.5 1444.73,-150 1444.73,-157"/>
</a>
</g>
</g>
<!-- Node32&#45;&gt;Node35 -->
<g id="edge43_Node000032_Node000035" class="edge">
<title>Node32&#45;&gt;Node35</title>
<g id="a_edge43_Node000032_Node000035"><a xlink:title=" ">
<path fill="none" stroke="#63b8ff" d="M1476.91,-141.86C1458.53,-137.92 1437.88,-133.5 1419,-129.5 1404.39,-126.4 1388.46,-123.05 1374.08,-120.03"/>
<polygon fill="#63b8ff" stroke="#63b8ff" points="1476.35,-145.32 1486.86,-144 1477.81,-138.48 1476.35,-145.32"/>
</a>
</g>
</g>
<!-- Node34 -->
<g id="Node000034" class="node">
<title>Node34</title>
<g id="a_Node000034"><a xlink:href="class_bit_vector.html#a87e099aba27ebb0f67c07dd8314828e7" target="_top" xlink:title="Do maximum capacity is reached (With no possibility to push it further)">
<polygon fill="white" stroke="#666666" points="823,-130 664,-130 664,-111 823,-111 823,-130"/>
<text text-anchor="middle" x="743.5" y="-118" font-family="Helvetica,sans-Serif" font-size="10.00">BitVector::maxSizeIsReached</text>
</a>
</g>
</g>
<!-- Node33&#45;&gt;Node34 -->
<g id="edge42_Node000033_Node000034" class="edge">
<title>Node33&#45;&gt;Node34</title>
<g id="a_edge42_Node000033_Node000034"><a xlink:title=" ">
<path fill="none" stroke="#63b8ff" d="M1242.38,-153.48C1148.65,-152.8 992.69,-149.67 859,-137.5 839.69,-135.74 818.66,-132.89 799.97,-130.03"/>
<polygon fill="#63b8ff" stroke="#63b8ff" points="1242.63,-156.98 1252.66,-153.55 1242.68,-149.98 1242.63,-156.98"/>
</a>
</g>
</g>
<!-- Node36 -->
<g id="Node000036" class="node">
<title>Node36</title>
<g id="a_Node000036"><a xlink:href="class_bit_vector.html#acb362f03b29600195996f52c04940439" target="_top" xlink:title="How many octet can be contained in this object knowing BitVector::_element_size.">
<polygon fill="white" stroke="#666666" points="1198,-120 1058,-120 1058,-101 1198,-101 1198,-120"/>
<text text-anchor="middle" x="1128" y="-108" font-family="Helvetica,sans-Serif" font-size="10.00">BitVector::maxOctetLimit</text>
</a>
</g>
</g>
<!-- Node35&#45;&gt;Node36 -->
<g id="edge44_Node000035_Node000036" class="edge">
<title>Node35&#45;&gt;Node36</title>
<g id="a_edge44_Node000035_Node000036"><a xlink:title=" ">
<path fill="none" stroke="#63b8ff" d="M1235.83,-110.5C1223.22,-110.5 1210.43,-110.5 1198.29,-110.5"/>
<polygon fill="#63b8ff" stroke="#63b8ff" points="1235.88,-114 1245.88,-110.5 1235.88,-107 1235.88,-114"/>
</a>
</g>
</g>
<!-- Node36&#45;&gt;Node20 -->
<g id="edge47_Node000036_Node000020" class="edge">
<title>Node36&#45;&gt;Node20</title>
<g id="a_edge47_Node000036_Node000020"><a xlink:title=" ">
<path fill="none" stroke="#63b8ff" d="M1072.34,-98.78C1044.48,-92.8 1011.04,-85.63 984.81,-80"/>
<polygon fill="#63b8ff" stroke="#63b8ff" points="1071.82,-102.24 1082.33,-100.92 1073.28,-95.4 1071.82,-102.24"/>
</a>
</g>
</g>
<!-- Node37 -->
<g id="Node000037" class="node">
<title>Node37</title>
<g id="a_Node000037"><a xlink:href="class_bit_vector.html#a00aeec5e60b478d74e1540f34f46e37c" target="_top" xlink:title="Do maximum BitVector::_data_size is reached (With no possibility to push it further)">
<polygon fill="white" stroke="#666666" points="1009.5,-128.5 869.5,-128.5 869.5,-98.5 1009.5,-98.5 1009.5,-128.5"/>
<text text-anchor="start" x="877.5" y="-116.5" font-family="Helvetica,sans-Serif" font-size="10.00">BitVector::maxDataSizeIs</text>
<text text-anchor="middle" x="939.5" y="-105.5" font-family="Helvetica,sans-Serif" font-size="10.00">Reached</text>
</a>
</g>
</g>
<!-- Node36&#45;&gt;Node37 -->
<g id="edge45_Node000036_Node000037" class="edge">
<title>Node36&#45;&gt;Node37</title>
<g id="a_edge45_Node000036_Node000037"><a xlink:title=" ">
<path fill="none" stroke="#63b8ff" d="M1047.74,-111.78C1035.04,-111.98 1022,-112.19 1009.57,-112.39"/>
<polygon fill="#63b8ff" stroke="#63b8ff" points="1047.88,-115.27 1057.82,-111.61 1047.76,-108.27 1047.88,-115.27"/>
</a>
</g>
</g>
<!-- Node37&#45;&gt;Node34 -->
<g id="edge46_Node000037_Node000034" class="edge">
<title>Node37&#45;&gt;Node34</title>
<g id="a_edge46_Node000037_Node000034"><a xlink:title=" ">
<path fill="none" stroke="#63b8ff" d="M859.02,-116.37C847.22,-116.79 835.06,-117.23 823.27,-117.66"/>
<polygon fill="#63b8ff" stroke="#63b8ff" points="859.42,-119.86 869.28,-116 859.16,-112.86 859.42,-119.86"/>
</a>
</g>
</g>
</g>
</svg>

<g id="navigator" transform="translate(0 0)" fill="#404254">
  <rect fill="#f2f5e9" fill-opacity="0.5" stroke="#606060" stroke-width=".5" x="0" y="0" width="60" height="60"/>
  <use id="zoomplus" xlink:href="#zoomPlus" x="17" y="9" onmousedown="handleZoom(evt,'in')"/>
  <use id="zoomminus" xlink:href="#zoomMin" x="42" y="9" onmousedown="handleZoom(evt,'out')"/>
  <use id="reset" xlink:href="#resetDef" x="30" y="36" onmousedown="handleReset()"/>
   <use id="arrowup" xlink:href="#arrowUp" x="0" y="0" onmousedown="handlePan(0,-1)"/>
  <use id="arrowright" xlink:href="#arrowRight" x="0" y="0" onmousedown="handlePan(1,0)"/>
  <use id="arrowdown" xlink:href="#arrowDown" x="0" y="0" onmousedown="handlePan(0,1)"/>
  <use id="arrowleft" xlink:href="#arrowLeft" x="0" y="0" onmousedown="handlePan(-1,0)"/>
</g>
<svg viewBox="0 0 15 15" width="100%" height="30px" preserveAspectRatio="xMaxYMin meet">
 <g id="arrow_out" transform="scale(0.3 0.3)">
  <a xlink:href="class_bit_vector_1_1_coords_a3a4fac9de925974af9c8a66a1d0179e6_icgraph_org.svg" target="_base">
   <rect id="button" ry="5" rx="5" y="6" x="6" height="38" width="38"
        fill="#f2f5e9" fill-opacity="0.5" stroke="#606060" stroke-width="1.0"/>
   <path id="arrow"
     d="M 11.500037,31.436501 C 11.940474,20.09759 22.043105,11.32322 32.158766,21.979434 L 37.068811,17.246167 C 37.068811,17.246167 37.088388,32 37.088388,32 L 22.160133,31.978069 C 22.160133,31.978069 26.997745,27.140456 26.997745,27.140456 C 18.528582,18.264221 13.291696,25.230495 11.500037,31.436501 z"
     style="fill:#404040;"/>
  </a>
 </g>
</svg>

<style type='text/css'>
<![CDATA[
[data-mouse-over-selected='false'] { opacity: 0.7; }
[data-mouse-over-selected='true']  { opacity: 1.0; }
]]>
</style>
<script type="application/ecmascript"><![CDATA[
document.addEventListener('DOMContentLoaded', (event) => {
  highlightEdges();
  highlightAdjacentNodes();
});
]]></script>
</svg>
