<?xml version="1.0" encoding="UTF-8" standalone="no"?>
<!DOCTYPE svg PUBLIC "-//W3C//DTD SVG 1.1//EN"
 "http://www.w3.org/Graphics/SVG/1.1/DTD/svg11.dtd">
<!-- Generated by graphviz version 2.43.0 (0)
 -->
<!-- Title: Graphical Class Hierarchy Pages: 1 -->
<svg width="213pt" height="101pt"
 viewBox="0.00 0.00 213.00 101.00" xmlns="http://www.w3.org/2000/svg" xmlns:xlink="http://www.w3.org/1999/xlink">
<g id="graph0" class="graph" transform="scale(1 1) rotate(0) translate(4 97)">
<title>Graphical Class Hierarchy</title>
<!-- Node0 -->
<g id="Node000000" class="node">
<title>Node0</title>
<g id="a_Node000000"><a xlink:href="class_fasta_related.html" target="_top" xlink:title="Class inherited by all class related to FastaFiles.">
<polygon fill="white" stroke="#666666" points="80,-56 0,-56 0,-37 80,-37 80,-56"/>
<text text-anchor="middle" x="40" y="-44" font-family="Helvetica,sans-Serif" font-size="10.00">FastaRelated</text>
</a>
</g>
</g>
<!-- Node1 -->
<g id="Node000001" class="node">
<title>Node1</title>
<g id="a_Node000001"><a xlink:href="class_fasta_header.html" target="_top" xlink:title="A header function that is supposed to be hubble to parse Header from Fasta file.">
<polygon fill="white" stroke="#666666" points="199,-93 122,-93 122,-74 199,-74 199,-93"/>
<text text-anchor="middle" x="160.5" y="-81" font-family="Helvetica,sans-Serif" font-size="10.00">FastaHeader</text>
</a>
</g>
</g>
<!-- Node0&#45;&gt;Node1 -->
<g id="edge2_Node000000_Node000001" class="edge">
<title>Node0&#45;&gt;Node1</title>
<g id="a_edge2_Node000000_Node000001"><a xlink:title=" ">
<path fill="none" stroke="#63b8ff" d="M81.36,-59.1C96.84,-63.93 114.23,-69.37 128.67,-73.88"/>
<polygon fill="#63b8ff" stroke="#63b8ff" points="82.11,-55.67 71.52,-56.03 80.02,-62.35 82.11,-55.67"/>
</a>
</g>
</g>
<!-- Node3 -->
<g id="Node000003" class="node">
<title>Node3</title>
<g id="a_Node000003"><a xlink:href="class_fasta_manager.html" target="_top" xlink:title="Class that should represent a Fasta File.">
<polygon fill="white" stroke="#666666" points="203,-56 118,-56 118,-37 203,-37 203,-56"/>
<text text-anchor="middle" x="160.5" y="-44" font-family="Helvetica,sans-Serif" font-size="10.00">FastaManager</text>
</a>
</g>
</g>
<!-- Node0&#45;&gt;Node3 -->
<g id="edge3_Node000000_Node000003" class="edge">
<title>Node0&#45;&gt;Node3</title>
<g id="a_edge3_Node000000_Node000003"><a xlink:title=" ">
<path fill="none" stroke="#8b1a1a" d="M90.32,-46.5C99.52,-46.5 109.04,-46.5 117.97,-46.5"/>
<polygon fill="#8b1a1a" stroke="#8b1a1a" points="90.13,-43 80.13,-46.5 90.13,-50 90.13,-43"/>
</a>
</g>
</g>
<!-- Node4 -->
<g id="Node000004" class="node">
<title>Node4</title>
<g id="a_Node000004"><a xlink:href="class_fasta_sequence.html" target="_top" xlink:title="Class that represent Sequence inside a fasta File. Can hold comment.">
<polygon fill="white" stroke="#666666" points="205,-19 116,-19 116,0 205,0 205,-19"/>
<text text-anchor="middle" x="160.5" y="-7" font-family="Helvetica,sans-Serif" font-size="10.00">FastaSequence</text>
</a>
</g>
</g>
<!-- Node0&#45;&gt;Node4 -->
<g id="edge4_Node000000_Node000004" class="edge">
<title>Node0&#45;&gt;Node4</title>
<g id="a_edge4_Node000000_Node000004"><a xlink:title=" ">
<path fill="none" stroke="#63b8ff" d="M81.36,-33.9C96.84,-29.07 114.23,-23.63 128.67,-19.12"/>
<polygon fill="#63b8ff" stroke="#63b8ff" points="80.02,-30.65 71.52,-36.97 82.11,-37.33 80.02,-30.65"/>
</a>
</g>
</g>
<!-- Node2 -->
<g id="Node000002" class="node">
<title>Node2</title>
<g id="a_Node000002"><a xlink:href="class_header.html" target="_top" xlink:title="Represent the header of a Fasta / FastQ file.">
<polygon fill="white" stroke="#666666" points="66,-93 14,-93 14,-74 66,-74 66,-93"/>
<text text-anchor="middle" x="40" y="-81" font-family="Helvetica,sans-Serif" font-size="10.00">Header</text>
</a>
</g>
</g>
<!-- Node2&#45;&gt;Node1 -->
<g id="edge5_Node000002_Node000001" class="edge">
<title>Node2&#45;&gt;Node1</title>
<g id="a_edge5_Node000002_Node000001"><a xlink:title=" ">
<path fill="none" stroke="#63b8ff" d="M76.13,-83.5C90.51,-83.5 107.16,-83.5 121.79,-83.5"/>
<polygon fill="#63b8ff" stroke="#63b8ff" points="76.13,-80 66.13,-83.5 76.13,-87 76.13,-80"/>
</a>
</g>
</g>
<!-- Node5 -->
<g id="Node000005" class="node">
<title>Node5</title>
<g id="a_Node000005"><a xlink:href="class_sequence.html" target="_top" xlink:title=" ">
<polygon fill="white" stroke="#666666" points="72,-19 8,-19 8,0 72,0 72,-19"/>
<text text-anchor="middle" x="40" y="-7" font-family="Helvetica,sans-Serif" font-size="10.00">Sequence</text>
</a>
</g>
</g>
<!-- Node5&#45;&gt;Node4 -->
<g id="edge6_Node000005_Node000004" class="edge">
<title>Node5&#45;&gt;Node4</title>
<g id="a_edge6_Node000005_Node000004"><a xlink:title=" ">
<path fill="none" stroke="#63b8ff" d="M82.18,-9.5C93,-9.5 104.7,-9.5 115.65,-9.5"/>
<polygon fill="#63b8ff" stroke="#63b8ff" points="82.13,-6 72.13,-9.5 82.13,-13 82.13,-6"/>
</a>
</g>
</g>
</g>
</svg>
